<svg width="251" height="260" viewBox="0 0 251 260" fill="none" xmlns="http://www.w3.org/2000/svg">
<path d="M25.5443 210.144C28.1043 210.144 29.9283 208.848 30.3283 206.208H29.0323C28.7443 208.064 27.4483 209.008 25.5763 209.008C23.1123 209.008 21.6403 207.248 21.6403 204.336V204.208C21.6403 201.328 23.2243 199.488 25.5923 199.488C27.5443 199.488 28.5523 200.384 28.8403 202.128H30.2163C29.9763 199.648 27.9603 198.384 25.5763 198.384C22.4723 198.384 20.2003 200.832 20.2003 204.224V204.352C20.2003 207.872 22.2323 210.144 25.5443 210.144ZM35.8238 210.144C38.2078 210.144 39.9518 208.4 39.9518 205.872V205.744C39.9518 203.232 38.2078 201.488 35.8398 201.488C33.4718 201.488 31.7278 203.248 31.7278 205.76V205.888C31.7278 208.336 33.4398 210.144 35.8238 210.144ZM35.8398 209.04C34.1438 209.04 33.1038 207.792 33.1038 205.888V205.76C33.1038 203.84 34.1598 202.592 35.8398 202.592C37.5038 202.592 38.5758 203.84 38.5758 205.776V205.888C38.5758 207.776 37.5198 209.04 35.8398 209.04ZM42.0081 210H43.3361V204.88C43.3361 203.376 44.4561 202.64 45.5441 202.64C46.6961 202.64 47.3201 203.248 47.3201 204.72V210H48.6481V204.88C48.6481 203.376 49.7681 202.64 50.8561 202.64C52.0081 202.64 52.6321 203.248 52.6321 204.72V210H53.9601V204.816C53.9601 202.384 52.6481 201.488 51.1441 201.488C50.1041 201.488 48.8561 201.968 48.2801 203.056C47.8481 201.936 46.9041 201.488 45.8321 201.488C44.6321 201.488 43.7201 202.128 43.3361 202.912V201.632H42.0081V210ZM56.5706 212.912H57.8986V208.624C58.3786 209.456 59.3546 210.144 60.7306 210.144C63.0346 210.144 64.5386 208.384 64.5386 205.824V205.696C64.5386 203.088 62.9226 201.488 60.7306 201.488C59.5146 201.488 58.3786 202.224 57.8986 203.04V201.632H56.5706V212.912ZM60.6026 209.04C58.9706 209.04 57.8506 208.032 57.8506 205.888V205.76C57.8506 203.616 59.0346 202.592 60.5866 202.592C61.9946 202.592 63.1626 203.648 63.1626 205.76V205.888C63.1626 207.92 62.2666 209.04 60.6026 209.04ZM70.0258 210.144C71.9138 210.144 73.3058 209.264 73.5938 207.584H72.2658C72.0898 208.56 71.3378 209.04 70.0418 209.04C68.3298 209.04 67.4178 207.984 67.3538 206.08H73.6578V205.648C73.6578 202.656 71.8338 201.488 69.8978 201.488C67.5938 201.488 65.9778 203.248 65.9778 205.776V205.904C65.9778 208.48 67.6578 210.144 70.0258 210.144ZM67.4018 205.008C67.6258 203.52 68.5378 202.592 69.8978 202.592C71.2738 202.592 72.1698 203.28 72.2978 205.008H67.4018ZM78.2396 210.112C78.7836 210.112 79.1036 210.032 79.3756 209.936V208.816C79.0876 208.928 78.7676 208.992 78.3516 208.992C77.6796 208.992 77.3116 208.592 77.3116 207.776V202.752H79.2636V201.632H77.3116V199.728H75.9836V201.632H74.7836V202.752H75.9836V207.904C75.9836 209.216 76.7196 210.112 78.2396 210.112ZM82.0551 199.888C82.5351 199.888 82.9351 199.488 82.9351 199.008C82.9351 198.528 82.5351 198.128 82.0551 198.128C81.5751 198.128 81.1751 198.528 81.1751 199.008C81.1751 199.488 81.5751 199.888 82.0551 199.888ZM81.4151 210H82.7431V201.632H81.4151V210ZM88.0052 210.112C88.5492 210.112 88.8692 210.032 89.1412 209.936V208.816C88.8532 208.928 88.5332 208.992 88.1172 208.992C87.4452 208.992 87.0772 208.592 87.0772 207.776V202.752H89.0292V201.632H87.0772V199.728H85.7492V201.632H84.5492V202.752H85.7492V207.904C85.7492 209.216 86.4852 210.112 88.0052 210.112ZM91.8207 199.888C92.3007 199.888 92.7007 199.488 92.7007 199.008C92.7007 198.528 92.3007 198.128 91.8207 198.128C91.3407 198.128 90.9407 198.528 90.9407 199.008C90.9407 199.488 91.3407 199.888 91.8207 199.888ZM91.1807 210H92.5087V201.632H91.1807V210ZM97.3228 210H99.0188L102.027 201.632H100.651L98.2028 208.656L95.7228 201.632H94.2828L97.3228 210ZM106.963 210.144C108.851 210.144 110.243 209.264 110.531 207.584H109.203C109.027 208.56 108.275 209.04 106.979 209.04C105.267 209.04 104.355 207.984 104.291 206.08H110.595V205.648C110.595 202.656 108.771 201.488 106.835 201.488C104.531 201.488 102.915 203.248 102.915 205.776V205.904C102.915 208.48 104.595 210.144 106.963 210.144ZM104.339 205.008C104.563 203.52 105.475 202.592 106.835 202.592C108.211 202.592 109.107 203.28 109.235 205.008H104.339ZM112.665 210H114.009V197.632H112.665V210ZM117.479 212.912H118.823L123.447 201.632H122.087L119.767 207.632L117.207 201.632H115.783L119.063 209.136L117.479 212.912ZM129.43 212.912H130.758V208.624C131.238 209.456 132.214 210.144 133.59 210.144C135.894 210.144 137.398 208.384 137.398 205.824V205.696C137.398 203.088 135.782 201.488 133.59 201.488C132.374 201.488 131.238 202.224 130.758 203.04V201.632H129.43V212.912ZM133.462 209.04C131.83 209.04 130.71 208.032 130.71 205.888V205.76C130.71 203.616 131.894 202.592 133.446 202.592C134.854 202.592 136.022 203.648 136.022 205.76V205.888C136.022 207.92 135.126 209.04 133.462 209.04ZM139.461 210H140.789V205.408C140.789 203.344 141.861 202.816 143.541 202.736V201.488C142.037 201.536 141.317 202.192 140.789 203.136V201.632H139.461V210ZM146.149 199.888C146.629 199.888 147.029 199.488 147.029 199.008C147.029 198.528 146.629 198.128 146.149 198.128C145.669 198.128 145.269 198.528 145.269 199.008C145.269 199.488 145.669 199.888 146.149 199.888ZM145.509 210H146.837V201.632H145.509V210ZM153.027 210.144C155.043 210.144 156.499 208.8 156.675 206.992H155.443C155.299 208.352 154.227 209.04 153.043 209.04C151.427 209.04 150.307 207.952 150.307 205.904V205.776C150.307 203.808 151.475 202.592 152.995 202.592C154.147 202.592 155.107 203.088 155.315 204.416H156.627C156.371 202.288 154.739 201.488 152.995 201.488C150.755 201.488 148.931 203.216 148.931 205.776V205.904C148.931 208.496 150.691 210.144 153.027 210.144ZM162.104 210.144C163.992 210.144 165.384 209.264 165.672 207.584H164.344C164.168 208.56 163.416 209.04 162.12 209.04C160.408 209.04 159.496 207.984 159.432 206.08H165.736V205.648C165.736 202.656 163.912 201.488 161.976 201.488C159.672 201.488 158.056 203.248 158.056 205.776V205.904C158.056 208.48 159.736 210.144 162.104 210.144ZM159.48 205.008C159.704 203.52 160.616 202.592 161.976 202.592C163.352 202.592 164.248 203.28 164.376 205.008H159.48ZM170.926 210.144C172.142 210.144 173.31 209.376 173.79 208.56V210H175.118V197.632H173.79V202.976C173.31 202.16 172.446 201.488 171.054 201.488C168.75 201.488 167.15 203.296 167.15 205.856V205.984C167.15 208.592 168.734 210.144 170.926 210.144ZM171.07 209.04C169.662 209.04 168.526 208.032 168.526 205.92V205.792C168.526 203.76 169.518 202.592 171.182 202.592C172.814 202.592 173.838 203.6 173.838 205.744V205.872C173.838 208.016 172.622 209.04 171.07 209.04ZM182.327 210H183.655V202.752H185.703V201.632H183.655V200.128C183.655 199.28 184.007 198.688 184.871 198.688C185.239 198.688 185.575 198.768 185.815 198.864V197.744C185.479 197.632 185.255 197.584 184.823 197.584C183.159 197.584 182.327 198.576 182.327 200.272V201.632H181.127V202.752H182.327V210ZM190.636 210.144C193.02 210.144 194.764 208.4 194.764 205.872V205.744C194.764 203.232 193.02 201.488 190.652 201.488C188.284 201.488 186.54 203.248 186.54 205.76V205.888C186.54 208.336 188.252 210.144 190.636 210.144ZM190.652 209.04C188.956 209.04 187.916 207.792 187.916 205.888V205.76C187.916 203.84 188.972 202.592 190.652 202.592C192.316 202.592 193.388 203.84 193.388 205.776V205.888C193.388 207.776 192.332 209.04 190.652 209.04ZM196.821 210H198.149V205.408C198.149 203.344 199.221 202.816 200.901 202.736V201.488C199.397 201.536 198.677 202.192 198.149 203.136V201.632H196.821V210ZM209.247 210H210.511L213.183 200.96L215.775 210H217.055L220.031 198.56H218.735L216.383 207.824L213.695 198.56H212.703L210.015 207.792L207.695 198.56H206.271L209.247 210ZM222.43 199.888C222.91 199.888 223.31 199.488 223.31 199.008C223.31 198.528 222.91 198.128 222.43 198.128C221.95 198.128 221.55 198.528 221.55 199.008C221.55 199.488 221.95 199.888 222.43 199.888ZM221.79 210H223.118V201.632H221.79V210ZM225.868 210H227.212V197.632H225.868V210ZM229.962 210H231.306V197.632H229.962V210ZM16.7115 232H18.1675L20.1195 225.728L21.8635 232H23.3355L25.9435 223.632H24.5835L22.6155 230.368L20.7115 223.632H19.5595L17.5275 230.368L15.5755 223.632H14.1355L16.7115 232ZM27.7346 232H29.0626V227.408C29.0626 225.344 30.1346 224.816 31.8146 224.736V223.488C30.3106 223.536 29.5906 224.192 29.0626 225.136V223.632H27.7346V232ZM34.4223 221.888C34.9023 221.888 35.3023 221.488 35.3023 221.008C35.3023 220.528 34.9023 220.128 34.4223 220.128C33.9423 220.128 33.5423 220.528 33.5423 221.008C33.5423 221.488 33.9423 221.888 34.4223 221.888ZM33.7823 232H35.1103V223.632H33.7823V232ZM40.3724 232.112C40.9164 232.112 41.2364 232.032 41.5084 231.936V230.816C41.2204 230.928 40.9004 230.992 40.4844 230.992C39.8124 230.992 39.4444 230.592 39.4444 229.776V224.752H41.3964V223.632H39.4444V221.728H38.1164V223.632H36.9164V224.752H38.1164V229.904C38.1164 231.216 38.8524 232.112 40.3724 232.112ZM44.1879 221.888C44.6679 221.888 45.0679 221.488 45.0679 221.008C45.0679 220.528 44.6679 220.128 44.1879 220.128C43.7079 220.128 43.3079 220.528 43.3079 221.008C43.3079 221.488 43.7079 221.888 44.1879 221.888ZM43.5479 232H44.8759V223.632H43.5479V232ZM47.594 232H48.922V226.928C48.922 225.424 50.026 224.64 51.258 224.64C52.602 224.64 53.226 225.296 53.226 226.768V232H54.554V226.864C54.554 224.432 53.338 223.488 51.61 223.488C50.234 223.488 49.306 224.176 48.922 224.96V223.632H47.594V232ZM60.5005 235.056C62.8365 235.056 64.4845 233.872 64.5005 231.44V223.632H63.1725V224.976C62.6925 224.16 61.8285 223.488 60.4365 223.488C58.1325 223.488 56.5325 225.376 56.5325 227.648V227.76C56.5325 230.064 58.1485 231.728 60.3405 231.728C61.5565 231.728 62.6925 230.96 63.1725 230.144V231.36C63.1725 233.152 62.1325 233.936 60.4845 233.936C59.0605 233.936 58.2605 233.44 58.0685 232.48H56.7085C56.9325 233.888 58.0205 235.056 60.5005 235.056ZM60.4845 230.624C59.0765 230.624 57.9085 229.536 57.9085 227.712V227.584C57.9085 225.824 58.9005 224.592 60.5645 224.592C62.1965 224.592 63.2205 225.68 63.2205 227.552V227.664C63.2205 229.536 62.0365 230.624 60.4845 230.624ZM73.9661 232.112C74.5101 232.112 74.8301 232.032 75.1021 231.936V230.816C74.8141 230.928 74.4941 230.992 74.0781 230.992C73.4061 230.992 73.0381 230.592 73.0381 229.776V224.752H74.9901V223.632H73.0381V221.728H71.7101V223.632H70.5101V224.752H71.7101V229.904C71.7101 231.216 72.4461 232.112 73.9661 232.112ZM80.5816 232.144C82.9656 232.144 84.7096 230.4 84.7096 227.872V227.744C84.7096 225.232 82.9656 223.488 80.5976 223.488C78.2296 223.488 76.4856 225.248 76.4856 227.76V227.888C76.4856 230.336 78.1976 232.144 80.5816 232.144ZM80.5976 231.04C78.9016 231.04 77.8616 229.792 77.8616 227.888V227.76C77.8616 225.84 78.9176 224.592 80.5976 224.592C82.2616 224.592 83.3336 225.84 83.3336 227.776V227.888C83.3336 229.776 82.2776 231.04 80.5976 231.04ZM95.1603 232.144C97.4643 232.144 98.9683 230.384 98.9683 227.824V227.696C98.9683 225.088 97.3523 223.488 95.1603 223.488C93.9443 223.488 92.8083 224.224 92.3283 225.04V219.632H91.0003V232H92.3283V230.624C92.8083 231.456 93.8003 232.144 95.1603 232.144ZM95.0323 231.04C93.4003 231.04 92.2803 230.032 92.2803 227.888V227.76C92.2803 225.616 93.4643 224.592 95.0163 224.592C96.4243 224.592 97.5923 225.648 97.5923 227.76V227.888C97.5923 229.92 96.6963 231.04 95.0323 231.04ZM104.456 232.144C106.344 232.144 107.736 231.264 108.024 229.584H106.696C106.52 230.56 105.768 231.04 104.472 231.04C102.76 231.04 101.848 229.984 101.784 228.08H108.088V227.648C108.088 224.656 106.264 223.488 104.328 223.488C102.024 223.488 100.408 225.248 100.408 227.776V227.904C100.408 230.48 102.088 232.144 104.456 232.144ZM101.832 227.008C102.056 225.52 102.968 224.592 104.328 224.592C105.704 224.592 106.6 225.28 106.728 227.008H101.832ZM114.36 232H115.688V226.88C115.688 225.376 116.808 224.64 117.896 224.64C119.048 224.64 119.672 225.248 119.672 226.72V232H121V226.88C121 225.376 122.12 224.64 123.208 224.64C124.36 224.64 124.984 225.248 124.984 226.72V232H126.312V226.816C126.312 224.384 125 223.488 123.496 223.488C122.456 223.488 121.208 223.968 120.632 225.056C120.2 223.936 119.256 223.488 118.184 223.488C116.984 223.488 116.072 224.128 115.688 224.912V223.632H114.36V232ZM131.018 232.144C132.25 232.144 133.002 231.728 133.626 230.944V232H134.954V226.48C134.954 224.144 133.498 223.488 131.898 223.488C130.282 223.488 128.762 224.192 128.586 226.096H129.914C130.042 225.072 130.682 224.592 131.834 224.592C133.114 224.592 133.626 225.152 133.626 226.48V227.088H132.426C130.282 227.088 128.234 227.744 128.234 229.68C128.234 231.392 129.466 232.144 131.018 232.144ZM131.146 231.088C129.978 231.088 129.562 230.544 129.562 229.68C129.562 228.448 130.794 228.032 132.474 228.032H133.626V229.072C133.626 230.368 132.554 231.088 131.146 231.088ZM140.715 232.144C141.931 232.144 143.099 231.376 143.579 230.56V232H144.907V219.632H143.579V224.976C143.099 224.16 142.235 223.488 140.843 223.488C138.539 223.488 136.939 225.296 136.939 227.856V227.984C136.939 230.592 138.523 232.144 140.715 232.144ZM140.859 231.04C139.451 231.04 138.315 230.032 138.315 227.92V227.792C138.315 225.76 139.307 224.592 140.971 224.592C142.603 224.592 143.627 225.6 143.627 227.744V227.872C143.627 230.016 142.411 231.04 140.859 231.04ZM151.018 232.144C152.906 232.144 154.298 231.264 154.586 229.584H153.258C153.082 230.56 152.33 231.04 151.034 231.04C149.322 231.04 148.41 229.984 148.346 228.08H154.65V227.648C154.65 224.656 152.826 223.488 150.89 223.488C148.586 223.488 146.97 225.248 146.97 227.776V227.904C146.97 230.48 148.65 232.144 151.018 232.144ZM148.394 227.008C148.618 225.52 149.53 224.592 150.89 224.592C152.266 224.592 153.162 225.28 153.29 227.008H148.394ZM163.018 232.144C164.25 232.144 165.002 231.728 165.626 230.944V232H166.954V226.48C166.954 224.144 165.498 223.488 163.898 223.488C162.282 223.488 160.762 224.192 160.586 226.096H161.914C162.042 225.072 162.682 224.592 163.834 224.592C165.114 224.592 165.626 225.152 165.626 226.48V227.088H164.426C162.282 227.088 160.234 227.744 160.234 229.68C160.234 231.392 161.466 232.144 163.018 232.144ZM163.146 231.088C161.978 231.088 161.562 230.544 161.562 229.68C161.562 228.448 162.794 228.032 164.474 228.032H165.626V229.072C165.626 230.368 164.554 231.088 163.146 231.088ZM173.035 232.144C175.051 232.144 176.507 230.8 176.683 228.992H175.451C175.307 230.352 174.235 231.04 173.051 231.04C171.435 231.04 170.315 229.952 170.315 227.904V227.776C170.315 225.808 171.483 224.592 173.003 224.592C174.155 224.592 175.115 225.088 175.323 226.416H176.635C176.379 224.288 174.747 223.488 173.003 223.488C170.763 223.488 168.939 225.216 168.939 227.776V227.904C168.939 230.496 170.699 232.144 173.035 232.144ZM182.16 232.144C184.176 232.144 185.632 230.8 185.808 228.992H184.576C184.432 230.352 183.36 231.04 182.176 231.04C180.56 231.04 179.44 229.952 179.44 227.904V227.776C179.44 225.808 180.608 224.592 182.128 224.592C183.28 224.592 184.24 225.088 184.448 226.416H185.76C185.504 224.288 183.872 223.488 182.128 223.488C179.888 223.488 178.064 225.216 178.064 227.776V227.904C178.064 230.496 179.824 232.144 182.16 232.144ZM191.237 232.144C193.125 232.144 194.517 231.264 194.805 229.584H193.477C193.301 230.56 192.549 231.04 191.253 231.04C189.541 231.04 188.629 229.984 188.565 228.08H194.869V227.648C194.869 224.656 193.045 223.488 191.109 223.488C188.805 223.488 187.189 225.248 187.189 227.776V227.904C187.189 230.48 188.869 232.144 191.237 232.144ZM188.613 227.008C188.837 225.52 189.749 224.592 191.109 224.592C192.485 224.592 193.381 225.28 193.509 227.008H188.613ZM199.577 232.144C201.609 232.144 202.649 231.12 202.649 229.6C202.649 227.824 201.433 227.44 199.705 227.12C198.169 226.848 197.753 226.544 197.753 225.792C197.753 225.072 198.377 224.592 199.337 224.592C200.393 224.592 200.905 224.992 201.097 225.904H202.377C202.153 224.096 200.857 223.488 199.353 223.488C198.041 223.488 196.521 224.288 196.521 225.84C196.521 227.296 197.257 227.904 199.433 228.304C200.729 228.544 201.385 228.832 201.385 229.712C201.385 230.608 200.825 231.04 199.561 231.04C198.217 231.04 197.689 230.416 197.593 229.424H196.297C196.377 231.136 197.577 232.144 199.577 232.144ZM207.264 232.144C209.296 232.144 210.336 231.12 210.336 229.6C210.336 227.824 209.12 227.44 207.392 227.12C205.856 226.848 205.44 226.544 205.44 225.792C205.44 225.072 206.064 224.592 207.024 224.592C208.08 224.592 208.592 224.992 208.784 225.904H210.064C209.84 224.096 208.544 223.488 207.04 223.488C205.728 223.488 204.208 224.288 204.208 225.84C204.208 227.296 204.944 227.904 207.12 228.304C208.416 228.544 209.072 228.832 209.072 229.712C209.072 230.608 208.512 231.04 207.248 231.04C205.904 231.04 205.376 230.416 205.28 229.424H203.984C204.064 231.136 205.264 232.144 207.264 232.144ZM213.032 221.888C213.512 221.888 213.912 221.488 213.912 221.008C213.912 220.528 213.512 220.128 213.032 220.128C212.552 220.128 212.152 220.528 212.152 221.008C212.152 221.488 212.552 221.888 213.032 221.888ZM212.392 232H213.72V223.632H212.392V232ZM220.598 232.144C222.902 232.144 224.406 230.384 224.406 227.824V227.696C224.406 225.088 222.79 223.488 220.598 223.488C219.382 223.488 218.246 224.224 217.766 225.04V219.632H216.438V232H217.766V230.624C218.246 231.456 219.238 232.144 220.598 232.144ZM220.47 231.04C218.838 231.04 217.718 230.032 217.718 227.888V227.76C217.718 225.616 218.902 224.592 220.454 224.592C221.862 224.592 223.03 225.648 223.03 227.76V227.888C223.03 229.92 222.134 231.04 220.47 231.04ZM226.501 232H227.845V219.632H226.501V232ZM233.987 232.144C235.875 232.144 237.267 231.264 237.555 229.584H236.227C236.051 230.56 235.299 231.04 234.003 231.04C232.291 231.04 231.379 229.984 231.315 228.08H237.619V227.648C237.619 224.656 235.795 223.488 233.859 223.488C231.555 223.488 229.939 225.248 229.939 227.776V227.904C229.939 230.48 231.619 232.144 233.987 232.144ZM231.363 227.008C231.587 225.52 232.499 224.592 233.859 224.592C235.235 224.592 236.131 225.28 236.259 227.008H231.363ZM75.3541 254.144C76.5861 254.144 77.3381 253.728 77.9621 252.944V254H79.2901V248.48C79.2901 246.144 77.8341 245.488 76.2341 245.488C74.6181 245.488 73.0981 246.192 72.9221 248.096H74.2501C74.3781 247.072 75.0181 246.592 76.1701 246.592C77.4501 246.592 77.9621 247.152 77.9621 248.48V249.088H76.7621C74.6181 249.088 72.5701 249.744 72.5701 251.68C72.5701 253.392 73.8021 254.144 75.3541 254.144ZM75.4821 253.088C74.3141 253.088 73.8981 252.544 73.8981 251.68C73.8981 250.448 75.1301 250.032 76.8101 250.032H77.9621V251.072C77.9621 252.368 76.8901 253.088 75.4821 253.088ZM81.8987 254H83.2267V248.928C83.2267 247.424 84.3307 246.64 85.5627 246.64C86.9067 246.64 87.5307 247.296 87.5307 248.768V254H88.8587V248.864C88.8587 246.432 87.6427 245.488 85.9147 245.488C84.5387 245.488 83.6107 246.176 83.2267 246.96V245.632H81.8987V254ZM94.6132 254.144C95.8292 254.144 96.9972 253.376 97.4772 252.56V254H98.8052V241.632H97.4772V246.976C96.9972 246.16 96.1332 245.488 94.7412 245.488C92.4372 245.488 90.8372 247.296 90.8372 249.856V249.984C90.8372 252.592 92.4212 254.144 94.6132 254.144ZM94.7572 253.04C93.3492 253.04 92.2132 252.032 92.2132 249.92V249.792C92.2132 247.76 93.2052 246.592 94.8692 246.592C96.5012 246.592 97.5252 247.6 97.5252 249.744V249.872C97.5252 252.016 96.3092 253.04 94.7572 253.04ZM107.823 254.144C109.055 254.144 109.807 253.728 110.431 252.944V254H111.759V248.48C111.759 246.144 110.303 245.488 108.703 245.488C107.087 245.488 105.567 246.192 105.391 248.096H106.719C106.847 247.072 107.487 246.592 108.639 246.592C109.919 246.592 110.431 247.152 110.431 248.48V249.088H109.231C107.087 249.088 105.039 249.744 105.039 251.68C105.039 253.392 106.271 254.144 107.823 254.144ZM107.951 253.088C106.783 253.088 106.367 252.544 106.367 251.68C106.367 250.448 107.599 250.032 109.279 250.032H110.431V251.072C110.431 252.368 109.359 253.088 107.951 253.088ZM114.655 254H115.983V246.752H119.263V254H120.591V246.752H122.639V245.632H120.591V244.128C120.591 243.28 120.943 242.688 121.807 242.688C122.175 242.688 122.511 242.768 122.751 242.864V241.744C122.415 241.632 122.191 241.584 121.759 241.584C120.095 241.584 119.263 242.576 119.263 244.272V245.632H115.983V244.24C115.983 243.392 116.335 242.8 117.199 242.8C117.567 242.8 117.903 242.88 118.143 242.976V241.856C117.807 241.744 117.583 241.696 117.151 241.696C115.487 241.696 114.655 242.688 114.655 244.384V245.632H113.455V246.752H114.655V254ZM127.574 254.144C129.958 254.144 131.702 252.4 131.702 249.872V249.744C131.702 247.232 129.958 245.488 127.59 245.488C125.222 245.488 123.478 247.248 123.478 249.76V249.888C123.478 252.336 125.19 254.144 127.574 254.144ZM127.59 253.04C125.894 253.04 124.854 251.792 124.854 249.888V249.76C124.854 247.84 125.91 246.592 127.59 246.592C129.254 246.592 130.326 247.84 130.326 249.776V249.888C130.326 251.776 129.27 253.04 127.59 253.04ZM133.758 254H135.086V249.408C135.086 247.344 136.158 246.816 137.838 246.736V245.488C136.334 245.536 135.614 246.192 135.086 247.136V245.632H133.758V254ZM142.691 254.144C143.907 254.144 145.075 253.376 145.555 252.56V254H146.883V241.632H145.555V246.976C145.075 246.16 144.211 245.488 142.819 245.488C140.515 245.488 138.915 247.296 138.915 249.856V249.984C138.915 252.592 140.499 254.144 142.691 254.144ZM142.835 253.04C141.427 253.04 140.291 252.032 140.291 249.92V249.792C140.291 247.76 141.283 246.592 142.947 246.592C144.579 246.592 145.603 247.6 145.603 249.744V249.872C145.603 252.016 144.387 253.04 142.835 253.04ZM151.667 254.144C152.899 254.144 153.651 253.728 154.275 252.944V254H155.603V248.48C155.603 246.144 154.147 245.488 152.547 245.488C150.931 245.488 149.411 246.192 149.235 248.096H150.563C150.691 247.072 151.331 246.592 152.483 246.592C153.763 246.592 154.275 247.152 154.275 248.48V249.088H153.075C150.931 249.088 148.883 249.744 148.883 251.68C148.883 253.392 150.115 254.144 151.667 254.144ZM151.795 253.088C150.627 253.088 150.211 252.544 150.211 251.68C150.211 250.448 151.443 250.032 153.123 250.032H154.275V251.072C154.275 252.368 153.203 253.088 151.795 253.088ZM162.371 254.144C164.675 254.144 166.179 252.384 166.179 249.824V249.696C166.179 247.088 164.563 245.488 162.371 245.488C161.155 245.488 160.019 246.224 159.539 247.04V241.632H158.211V254H159.539V252.624C160.019 253.456 161.011 254.144 162.371 254.144ZM162.243 253.04C160.611 253.04 159.491 252.032 159.491 249.888V249.76C159.491 247.616 160.675 246.592 162.227 246.592C163.635 246.592 164.803 247.648 164.803 249.76V249.888C164.803 251.92 163.907 253.04 162.243 253.04ZM168.274 254H169.618V241.632H168.274V254ZM175.76 254.144C177.648 254.144 179.04 253.264 179.328 251.584H178C177.824 252.56 177.072 253.04 175.776 253.04C174.064 253.04 173.152 251.984 173.088 250.08H179.392V249.648C179.392 246.656 177.568 245.488 175.632 245.488C173.328 245.488 171.712 247.248 171.712 249.776V249.904C171.712 252.48 173.392 254.144 175.76 254.144ZM173.136 249.008C173.36 247.52 174.272 246.592 175.632 246.592C177.008 246.592 177.904 247.28 178.032 249.008H173.136Z" fill="#001064"/>
<path d="M72.9436 167H75.6936L76.9256 163.106H82.9316L84.1856 167H87.2216L82.0296 151.27H78.2016L72.9436 167ZM79.9396 153.668L82.2496 160.972H77.6076L79.9396 153.668ZM89.2999 167H91.9619V157.496H96.0099V167H98.6719V157.496H101.29V155.494H98.6719V153.844C98.6719 152.854 99.1119 152.15 100.19 152.15C100.674 152.15 101.092 152.238 101.4 152.348V150.28C100.916 150.126 100.52 150.06 99.8599 150.06C97.4179 150.06 96.0099 151.424 96.0099 153.954V155.494H91.9619V153.976C91.9619 152.986 92.4019 152.282 93.4799 152.282C93.9639 152.282 94.3599 152.392 94.6679 152.502V150.434C94.1839 150.28 93.7879 150.214 93.1499 150.214C90.6859 150.214 89.2999 151.556 89.2999 154.108V155.494H87.7379V157.496H89.2999V167ZM107.644 167.22C111.032 167.22 113.562 164.888 113.562 161.302V161.126C113.562 157.606 111.032 155.252 107.666 155.252C104.278 155.252 101.748 157.628 101.748 161.192V161.368C101.748 164.866 104.256 167.22 107.644 167.22ZM107.666 165.152C105.642 165.152 104.476 163.678 104.476 161.324V161.148C104.476 158.772 105.686 157.342 107.666 157.342C109.646 157.342 110.834 158.794 110.834 161.17V161.324C110.834 163.678 109.646 165.152 107.666 165.152ZM115.467 167H118.129V161.016C118.129 158.574 119.537 157.826 121.869 157.804V155.318C119.933 155.34 118.855 156.198 118.129 157.65V155.494H115.467V167ZM127.765 167.22C129.459 167.22 130.933 166.208 131.549 165.064V167H134.211V150.17H131.549V157.254C130.911 156.11 129.745 155.252 127.875 155.252C124.883 155.252 122.705 157.584 122.705 161.258V161.434C122.705 165.174 124.883 167.22 127.765 167.22ZM128.425 165.108C126.709 165.108 125.433 163.898 125.433 161.368V161.192C125.433 158.706 126.577 157.342 128.535 157.342C130.471 157.342 131.637 158.596 131.637 161.126V161.302C131.637 163.876 130.273 165.108 128.425 165.108ZM139.889 167.22C141.649 167.22 142.661 166.582 143.409 165.592V167H146.027V159.454C146.027 156.308 144.003 155.252 141.429 155.252C138.855 155.252 136.721 156.374 136.501 159.058H139.075C139.207 157.914 139.889 157.254 141.275 157.254C142.837 157.254 143.365 158.024 143.365 159.564V160.158H141.935C138.635 160.158 136.039 161.126 136.039 163.81C136.039 166.208 137.777 167.22 139.889 167.22ZM140.527 165.306C139.207 165.306 138.679 164.668 138.679 163.7C138.679 162.292 139.977 161.83 142.001 161.83H143.365V162.974C143.365 164.448 142.155 165.306 140.527 165.306ZM155.002 167.22C157.972 167.22 160.106 164.976 160.106 161.28V161.104C160.106 157.386 157.884 155.252 155.002 155.252C153.308 155.252 151.878 156.242 151.24 157.342V150.17H148.578V167H151.24V165.152C151.856 166.318 153.176 167.22 155.002 167.22ZM154.342 165.108C152.406 165.108 151.152 163.898 151.152 161.324V161.148C151.152 158.596 152.472 157.342 154.32 157.342C156.058 157.342 157.378 158.596 157.378 161.148V161.324C157.378 163.788 156.3 165.108 154.342 165.108ZM162.066 167H164.728V150.17H162.066V167ZM172.533 167.22C175.481 167.22 177.439 165.9 177.813 163.48H175.239C175.041 164.602 174.205 165.24 172.599 165.24C170.619 165.24 169.519 164.008 169.431 161.83H177.857V161.06C177.857 156.946 175.283 155.252 172.423 155.252C169.145 155.252 166.703 157.628 166.703 161.192V161.368C166.703 164.998 169.145 167.22 172.533 167.22ZM169.475 160.048C169.739 158.266 170.817 157.188 172.423 157.188C174.073 157.188 175.085 158.068 175.217 160.048H169.475Z" fill="#001064"/>
<circle cx="126" cy="48" r="42" fill="#E9FAF4"/>
<g clip-path="url(#clip0)">
<path fill-rule="evenodd" clip-rule="evenodd" d="M137.499 77.2013C137.399 74.7013 138.599 72.7013 139.799 70.7013C141.999 66.9013 144.199 63.0013 146.199 59.1013C146.499 58.6013 146.499 58.2013 146.299 57.6013C145.699 55.9013 144.999 54.2013 143.999 52.6013C142.699 50.4013 141.699 48.1013 139.999 46.1013C138.399 44.2013 137.099 42.1013 135.099 40.7013C134.199 40.0013 133.199 39.6013 132.099 39.1013C131.199 38.7013 130.199 38.9013 129.499 39.4013C128.899 39.9013 129.099 40.7013 129.299 41.4013C130.399 45.7013 132.599 49.5013 135.199 53.0013C135.699 53.6013 135.899 54.1013 135.299 54.8013C132.499 57.9013 131.199 61.8013 129.399 65.4013C128.699 66.9013 128.699 68.6013 128.299 70.2013C128.199 70.8013 128.199 71.7013 127.399 71.6013C126.599 71.5013 126.399 70.7013 126.399 69.9013C126.499 65.8013 127.499 61.9013 129.799 58.4013C130.599 57.1013 131.299 55.8013 132.099 54.5013C132.299 54.1013 132.399 53.7013 132.099 53.3013C131.399 52.2013 130.799 51.0013 130.099 49.9013C129.899 49.6013 129.699 49.5013 129.399 49.5013C128.199 49.7013 127.199 49.3013 126.199 48.8013C125.399 48.3013 124.899 48.6013 124.599 49.4013C124.199 50.5013 123.499 51.5013 122.899 52.4013C122.099 53.6013 120.299 54.0013 118.799 53.2013C117.799 52.7013 117.699 53.1013 117.799 53.9013C117.999 55.6013 116.999 56.7013 115.899 57.7013C115.099 58.5013 113.999 58.6013 112.999 57.9013C110.399 56.1013 109.099 53.3013 107.899 50.5013C106.999 48.3013 106.599 45.9013 106.199 43.6013C106.099 42.9013 106.299 42.5013 106.999 42.4013C107.599 42.3013 107.899 42.7013 108.099 43.3013C108.599 45.3013 109.199 47.3013 109.899 49.3013C110.299 50.4013 110.699 51.4013 111.199 52.4013C111.799 53.8013 113.099 54.6013 114.399 55.3013C115.199 55.7013 115.299 54.9013 115.399 54.4013C115.499 53.5013 115.399 52.6013 115.399 51.7013C115.299 50.5013 114.799 49.5013 114.199 48.4013C112.499 45.5013 111.299 42.5013 110.099 39.4013C109.799 38.7013 109.499 38.4013 108.799 38.5013C108.099 38.5013 107.499 38.4013 106.799 38.7013C104.899 39.3013 103.199 41.7013 103.199 43.9013C103.199 46.6013 103.999 49.0013 104.799 51.5013C107.299 58.8013 111.399 65.2013 115.199 71.9013C117.299 75.6013 118.399 79.6013 117.699 83.9013C117.599 84.5013 117.499 85.1013 116.699 85.1013C115.899 85.1013 115.599 84.7013 115.499 83.8013C114.999 80.5013 114.899 77.1013 113.499 74.0013C112.699 72.0013 111.399 70.0013 110.399 68.0013C107.399 62.3013 103.899 57.0013 101.999 50.8013C101.099 47.8013 100.799 44.7013 101.199 41.6013C101.399 40.3013 102.299 39.3013 103.099 38.3013C104.799 36.2013 107.099 35.4013 109.599 35.1013C110.499 35.0013 110.999 34.6013 110.999 33.7013C111.199 31.9013 112.299 30.5013 113.699 29.5013C114.699 28.7013 115.999 28.8013 117.199 28.9013C117.299 28.9013 117.399 29.0013 117.499 29.0013C118.499 29.3013 119.499 29.4013 120.099 28.2013C120.499 27.5013 121.199 27.0013 121.699 26.3013C123.399 24.1013 126.799 24.2013 128.299 26.6013C128.599 27.0013 128.799 27.8013 129.299 27.6013C129.699 27.4013 129.399 26.7013 129.299 26.1013C128.799 22.1013 128.499 18.1013 128.699 14.1013C128.799 11.7013 128.799 9.30133 129.099 6.90133C129.399 4.80133 130.199 2.90133 130.999 1.00133C131.299 0.301327 131.999 0.201327 132.699 0.101327C134.399 0.00132674 135.399 0.901327 136.399 2.20133C138.299 4.70133 138.499 7.70133 138.899 10.6013C139.499 14.8013 139.999 18.9013 140.599 23.1013C140.999 25.9013 140.999 28.7013 141.399 31.5013C141.999 35.5013 141.699 39.6013 142.499 43.6013C142.799 44.8013 143.499 45.9013 144.099 46.9013C145.799 49.6013 147.099 52.5013 148.699 55.2013C149.499 56.5013 149.799 58.1013 149.299 59.6013C148.899 60.6013 148.199 61.5013 147.599 62.4013C144.799 66.7013 142.699 71.3013 140.599 75.9013C139.999 77.3013 140.299 78.8013 140.299 80.2013C140.299 80.9013 140.199 81.6013 139.899 82.2013C139.699 82.7013 139.299 83.0013 138.799 82.9013C138.299 82.8013 137.599 82.6013 137.599 81.8013C137.699 80.2013 137.599 78.7013 137.499 77.2013ZM131.499 16.9013C131.499 18.9013 131.499 20.4013 131.699 21.8013C131.899 23.3013 132.299 24.7013 132.399 26.2013C132.599 28.9013 132.899 31.6013 133.399 34.3013C133.599 35.1013 133.899 35.6013 134.499 36.1013C135.899 37.2013 137.299 38.3013 138.599 39.6013C138.899 39.9013 139.199 40.6013 139.699 40.4013C140.099 40.2013 139.899 39.5013 139.799 39.0013C139.399 32.8013 138.399 26.6013 137.899 20.4013C137.599 16.6013 136.999 12.8013 136.499 9.10133C136.299 7.60133 135.899 6.10133 135.199 4.70133C134.899 4.20133 134.599 3.70133 133.899 3.70133C133.199 3.70133 132.799 4.20133 132.599 4.70133C132.199 5.50133 131.899 6.40133 131.799 7.30133C131.099 10.8013 131.399 14.1013 131.499 16.9013ZM113.199 36.4013C113.099 40.1013 114.999 44.0013 117.299 47.8013C117.799 48.6013 118.599 49.2013 119.399 49.7013C120.099 50.1013 120.899 50.3013 121.599 49.9013C122.299 49.5013 122.599 48.4013 122.199 47.5013C121.999 47.0013 121.899 46.5013 121.699 46.0013C120.699 42.4013 119.999 38.6013 118.799 35.0013C118.499 34.0013 118.099 33.1013 117.499 32.2013C117.299 32.0013 117.199 31.7013 116.799 31.7013C114.499 31.9013 113.199 33.2013 113.199 36.4013ZM125.199 27.8013C124.799 27.8013 124.199 27.9013 123.699 28.3013C122.199 29.7013 121.199 31.3013 121.699 33.5013C121.799 34.1013 122.099 34.7013 122.199 35.3013C122.699 38.5013 123.899 41.4013 125.099 44.4013C125.599 45.7013 126.599 46.6013 127.899 47.0013C128.099 47.1013 128.399 47.1013 128.599 47.0013C128.799 46.8013 128.599 46.6013 128.499 46.4013C128.299 45.9013 128.099 45.4013 127.799 44.8013C126.899 42.8013 126.499 40.8013 126.899 38.6013C127.199 37.0013 127.799 35.5013 129.599 34.9013C129.999 34.8013 130.099 34.5013 129.899 34.1013C129.199 32.2013 128.499 30.4013 127.299 28.8013C126.799 28.2013 126.199 27.8013 125.199 27.8013Z" fill="#001064"/>
</g>
<defs>
<clipPath id="clip0">
<rect width="48.8" height="85.1" fill="white" transform="translate(101)"/>
</clipPath>
</defs>
</svg>
