<svg width="343" height="314" viewBox="0 0 343 314" fill="none" xmlns="http://www.w3.org/2000/svg">
<path d="M347.402 40.0892L332.905 77.8879C328.504 72.71 324.62 72.4511 318.666 72.1922C325.397 58.2118 329.539 49.1506 333.163 34.3936C339.636 34.3936 342.742 36.2058 347.402 40.0892Z" fill="#D3EDFF"/>
<path d="M127.094 183.258C130.718 189.471 138.226 188.177 143.921 190.766C143.662 185.329 145.215 178.857 149.358 175.232C143.403 175.491 138.743 170.831 136.414 165.394C130.2 173.679 127.87 177.303 127.094 183.258Z" fill="#BAF0DF"/>
<path d="M283.976 141.317C279.057 147.272 283.2 154.521 282.682 160.993C288.118 158.663 295.108 157.628 300.286 160.734C297.697 154.78 300.545 148.566 305.204 144.165C294.073 140.54 289.672 139.764 283.976 141.317Z" fill="#DED3FF"/>
<path d="M222.621 66.2371C227.798 63.1304 234.529 64.6837 237.636 69.8616C240.742 75.0395 239.189 81.7709 234.011 84.8776C228.834 87.9843 222.103 86.4309 218.996 81.253C215.89 76.0751 217.443 69.3438 222.621 66.2371Z" fill="#D3EDFF"/>
<path d="M305.465 239.18C303.911 246.429 304.688 254.196 308.83 261.445C311.16 258.079 315.82 258.597 319.185 260.668C316.338 254.454 314.784 248.241 315.043 237.885C315.302 236.591 310.642 237.367 308.053 238.144C307.277 238.403 306.241 238.662 305.465 239.18Z" fill="#FFD9D1"/>
<path d="M74.5419 -14.0205C62.1155 -8.8426 51.7602 0.477629 45.0293 14.1991C52.5369 14.1991 56.4201 21.7071 56.9379 28.6973C62.8922 17.8236 70.6586 9.02118 86.1916 -1.33464C88.2626 -2.37022 82.5672 -8.3248 78.684 -11.4316C77.3895 -12.2082 76.0952 -12.9849 74.5419 -14.0205Z" fill="#D3E1FF"/>
<path d="M278.539 34.1345C280.869 39.8302 287.341 39.5713 291.742 42.4191C292.26 37.759 294.072 32.5812 298.214 29.9922C293.036 29.4744 289.93 25.0732 288.377 20.4131C281.646 26.8855 279.575 29.7333 278.539 34.1345Z" fill="#FFE9BE"/>
<path d="M12.1514 204.487C8.52702 204.228 5.67935 201.122 5.93823 197.497C6.19711 193.872 9.30368 191.025 12.928 191.283C16.5524 191.542 19.4 194.649 19.1411 198.274C18.8823 201.898 15.7757 204.746 12.1514 204.487Z" fill="#D3EDFF"/>
<path d="M198.545 -3.40509C203.205 10.0574 212.783 21.4488 226.763 29.2156C227.281 21.4488 235.306 17.5654 242.555 17.3065C231.423 10.3163 222.621 2.03169 212.524 -15.0553C211.489 -17.1265 205.017 -11.6898 201.651 -7.80633C200.616 -6.51186 199.58 -4.95846 198.545 -3.40509Z" fill="#D3EDFF"/>
<path d="M147.804 28.6975C141.332 31.8043 133.307 28.9565 130.2 22.4841C127.093 16.0117 129.941 7.98595 136.413 4.87922C142.885 1.77248 150.91 4.62039 154.017 11.0928C157.124 17.824 154.276 25.5908 147.804 28.6975Z" fill="#DED3FF"/>
<path d="M18.3643 41.6426C23.8008 45.0082 25.3541 51.9984 21.9887 57.1763C18.6232 62.6131 11.6334 64.1665 6.45579 60.8008C1.01928 57.4352 -0.53403 50.445 2.83143 45.2671C6.19689 40.0892 13.1867 38.2769 18.3643 41.6426Z" fill="#D3EDFF"/>
<path d="M242.296 185.329V210.183C238.672 208.112 236.342 208.888 232.977 210.183C233.753 200.604 234.012 194.649 232.977 185.329C236.601 183.517 238.672 184.034 242.296 185.329Z" fill="#D3E1FF"/>
<path d="M190.52 136.657C184.048 132.256 182.236 123.454 186.637 116.981C191.038 110.509 199.84 108.697 206.312 113.098C212.784 117.499 214.596 126.301 210.195 132.774C205.794 139.246 196.992 141.058 190.52 136.657Z" fill="#BAF0DF"/>
<path d="M73.1246 178.927C66.3937 171.419 57.074 166.5 45.6832 165.206C47.4954 170.383 43.3532 175.303 38.6934 177.374C47.7542 178.927 56.0384 182.034 67.1703 190.318C68.4648 191.354 71.3125 185.917 72.348 182.552C72.6069 181.516 72.8658 180.222 73.1246 178.927Z" fill="#DED3FF"/>
</svg>
