<svg width="1440" height="615" viewBox="0 0 1440 615" fill="none" xmlns="http://www.w3.org/2000/svg">
<g clip-path="url(#clip0)">
<path d="M903.78 45.7707C904.222 33.3962 891.847 27.6509 886.101 19.2539C881.239 27.6509 873.284 35.6059 863.561 36.9318C872.842 42.2352 875.052 53.2838 873.726 63.4486C891.405 56.8194 897.592 53.2838 903.78 45.7707Z" fill="#FFD9D1"/>
<path d="M997.036 147.42L972.286 211.944C964.772 203.105 958.143 202.663 947.978 202.222C959.469 178.356 966.54 162.888 972.728 137.697C983.777 137.697 989.081 140.791 997.036 147.42Z" fill="#D3EDFF"/>
<path d="M400.818 27.2101C417.171 28.094 433.082 22.7906 447.667 11.3C439.711 7.32242 438.827 -2.84235 441.921 -10.3555C429.988 -1.51651 417.171 4.22882 394.63 7.32245C391.979 7.32245 395.072 17.0453 397.724 22.3487C398.608 23.6745 399.934 25.4423 400.818 27.2101Z" fill="#D3E1FF"/>
<path d="M620.919 391.817C627.107 402.423 639.924 400.214 649.647 404.633C649.205 395.352 651.857 384.304 658.928 378.116C648.763 378.558 640.808 370.603 636.83 361.322C626.223 375.465 622.245 381.652 620.919 391.817Z" fill="#BAF0DF"/>
<path d="M1277.25 -7.26172L1308.18 58.1465C1295.81 57.2626 1290.95 62.124 1283.43 69.1952C1273.71 43.5623 1267.08 26.7682 1252.5 3.78696C1260.01 -4.61004 1266.64 -5.93588 1277.25 -7.26172Z" fill="#FFE9BE"/>
<path d="M1201.67 305.637L1158.8 242.881C1171.61 241.555 1175.59 235.81 1182.66 226.971C1196.81 252.162 1206.53 268.072 1225.53 289.727C1218.9 300.334 1212.28 302.986 1201.67 305.637Z" fill="#FFD9D1"/>
<path d="M590.423 280.445C599.262 279.12 601.472 269.839 606.776 264.977C600.146 262.767 593.517 257.906 591.749 251.719C589.097 258.79 582.025 261.884 574.512 261.884C581.141 272.048 584.235 276.91 590.423 280.445Z" fill="#D3EDFF"/>
<path d="M888.753 320.221C880.356 330.385 887.427 342.76 886.543 353.809C895.825 349.831 907.758 348.063 916.597 353.367C912.177 343.202 917.039 332.595 924.995 325.082C905.99 318.895 898.476 317.569 888.753 320.221Z" fill="#DED3FF"/>
<path d="M784.006 192.057C792.846 186.754 804.337 189.405 809.641 198.244C814.944 207.083 812.292 218.574 803.453 223.877C794.614 229.181 783.123 226.529 777.819 217.69C772.515 208.851 775.167 197.36 784.006 192.057Z" fill="#D3EDFF"/>
<path d="M925.437 487.276C922.785 499.651 924.111 512.909 931.182 525.284C935.16 519.539 943.115 520.422 948.861 523.958C943.999 513.351 941.348 502.744 941.79 485.067C942.232 482.857 934.276 484.183 929.856 485.509C928.53 485.951 926.763 486.392 925.437 487.276Z" fill="#FFD9D1"/>
<path d="M531.199 55.0527C509.985 63.8917 492.306 79.8018 480.814 103.225C493.632 103.225 500.261 116.042 501.145 127.974C511.31 109.412 524.57 94.3861 551.088 76.7081C554.624 74.9404 544.9 64.7756 538.271 59.4722C536.061 58.1464 533.851 56.8205 531.199 55.0527Z" fill="#D3E1FF"/>
<path d="M1087.64 157.585L1096.04 209.735C1087.64 206.641 1083.22 209.293 1076.59 212.828C1074.82 192.941 1073.94 179.682 1068.19 160.678C1075.26 156.259 1080.13 156.259 1087.64 157.585Z" fill="#FFD9D1"/>
<path d="M498.051 276.468C502.029 268.071 495.399 261 494.074 253.045C488.328 257.022 480.372 260.116 473.743 258.348C478.163 264.536 476.837 272.933 472.417 279.12C487.002 280.446 491.864 280.004 498.051 276.468Z" fill="#DED3FF"/>
<path d="M124.586 134.161C120.167 146.978 131.216 156.7 134.752 167.749C142.265 160.678 153.756 154.491 163.922 156.259C155.966 147.862 156.85 135.487 161.712 125.322C140.939 126.648 133.426 127.974 124.586 134.161Z" fill="#DED3FF"/>
<path d="M151.105 5.99618C139.613 -13.0076 121.493 -28.0338 97.6261 -35.5469C99.394 -23.1723 87.9028 -14.7753 76.8535 -12.5655C95.8583 -5.49438 112.211 5.11228 132.984 28.0936C135.194 31.1872 143.591 20.5805 147.569 13.5093C148.895 11.2996 149.779 8.64786 151.105 5.99618Z" fill="#D3E1FF"/>
<path d="M1073.5 50.1907C1068.64 40.4679 1072.61 28.9773 1082.34 24.1158C1092.06 19.2544 1103.55 23.2319 1108.41 32.9548C1113.27 42.6777 1109.3 54.1683 1099.57 59.0297C1089.85 63.8911 1078.36 59.4717 1073.5 50.1907Z" fill="#D3E1FF"/>
<path d="M266.017 283.098C250.99 288.843 237.73 299.45 229.333 315.802C238.172 316.244 243.034 325.525 243.034 333.48C250.548 320.663 260.271 310.498 279.718 298.566C281.927 297.24 275.74 290.169 271.32 286.191C269.552 285.307 267.784 284.424 266.017 283.098Z" fill="#FFD9D1"/>
<path d="M611.638 43.1202C608.544 55.9367 595.727 64.3337 582.468 61.2401C569.651 58.1464 561.253 45.3299 564.347 32.0715C567.441 19.255 580.258 10.8581 593.517 13.9517C606.776 17.0453 614.732 29.8617 611.638 43.1202Z" fill="#FFE9BE"/>
<path d="M1159.68 115.6C1150.84 116.484 1148.19 125.322 1142.44 130.626C1148.63 133.277 1155.26 138.139 1157.03 144.768C1160.12 137.697 1167.19 135.045 1174.71 135.487C1168.08 123.113 1165.43 119.135 1159.68 115.6Z" fill="#FFD9D1"/>
<path d="M879.472 137.255C883.449 146.978 894.499 146.536 902.012 151.398C902.896 143.443 905.99 134.604 913.061 130.184C904.222 129.3 898.918 121.787 896.267 113.832C884.775 124.881 881.24 129.742 879.472 137.255Z" fill="#FFE9BE"/>
<path d="M1419.56 209.734C1432.82 206.199 1444.75 197.802 1453.59 184.543C1446.08 183.659 1442.54 175.263 1442.98 168.191C1435.47 178.356 1426.63 186.753 1408.95 195.15C1406.74 196.034 1411.6 202.663 1415.14 206.641C1416.47 207.525 1417.79 208.85 1419.56 209.734Z" fill="#FFE9BE"/>
<path d="M424.684 428.056C418.496 427.614 413.635 422.31 414.077 416.123C414.519 409.936 419.822 405.074 426.01 405.516C432.198 405.958 437.059 411.262 436.617 417.449C436.175 423.636 430.872 428.498 424.684 428.056Z" fill="#D3EDFF"/>
<path d="M1244.98 389.165C1247.19 396.236 1243.21 403.749 1236.14 405.958C1229.07 408.168 1221.56 404.191 1219.35 397.12C1217.14 390.048 1221.12 382.535 1228.19 380.326C1235.26 378.116 1242.77 382.093 1244.98 389.165Z" fill="#BAF0DF"/>
<path d="M-0.0501137 129.3C18.9546 126.207 36.6334 116.484 50.7765 99.6899C40.6111 97.0382 37.0754 85.1057 38.8432 75.3828C26.91 88.1993 13.209 97.922 -11.9833 107.203C-15.0771 108.087 -9.33151 118.252 -4.9118 123.555C-3.58589 125.765 -1.818 127.533 -0.0501137 129.3Z" fill="#DED3FF"/>
<path d="M83.4823 416.566C87.902 407.285 98.9513 403.308 108.233 407.727C117.514 412.147 121.492 423.196 117.072 432.476C112.652 441.757 101.603 445.735 92.3217 441.315C83.0403 436.896 79.0626 425.847 83.4823 416.566Z" fill="#FFD9D1"/>
<path d="M352.643 257.023C363.25 264.536 365.46 279.562 357.505 290.169C349.991 300.776 334.964 302.986 324.357 295.03C313.75 287.517 311.54 272.491 319.495 261.885C327.451 251.278 342.478 249.068 352.643 257.023Z" fill="#D3E1FF"/>
<path d="M358.388 495.675L340.267 544.289C334.522 537.66 329.66 537.66 322.146 537.218C330.544 519.54 335.848 507.607 340.267 488.604C348.665 488.604 352.642 490.813 358.388 495.675Z" fill="#D3E1FF"/>
<path d="M1317.02 259.674C1332.05 239.786 1339.56 215.037 1337.35 186.752C1325.42 193.823 1311.72 185.427 1304.65 175.262C1305.09 198.243 1301.55 219.457 1286.08 250.393C1283.87 253.928 1298.46 258.348 1307.3 259.674C1310.39 259.674 1313.49 259.674 1317.02 259.674Z" fill="#D3E1FF"/>
<path d="M742.902 73.1717C750.858 96.1529 767.211 115.599 791.077 128.857C791.961 115.599 805.662 108.969 818.037 108.527C799.033 96.5949 784.006 82.4526 766.769 53.2841C765.001 49.7485 753.952 59.0293 748.206 65.6585C746.438 67.8683 744.67 70.52 742.902 73.1717Z" fill="#D3EDFF"/>
<path d="M330.986 104.109C332.754 122.229 341.152 139.465 356.621 153.607C359.714 143.884 370.764 141.675 380.045 143.442C368.554 131.51 359.714 117.81 352.201 93.5025C351.759 90.4089 341.594 95.7122 336.29 99.2478C334.522 101.016 332.754 102.341 330.986 104.109Z" fill="#D3EDFF"/>
<path d="M253.199 117.809L214.748 119.577C217.399 113.831 216.074 110.296 214.306 104.992C228.891 105.434 238.614 105.876 252.757 103.225C255.409 108.97 254.525 112.506 253.199 117.809Z" fill="#FFD9D1"/>
<path d="M1177.36 7.32233C1183.99 5.55453 1190.18 9.53207 1191.95 16.1613C1193.71 22.7905 1189.74 28.9778 1183.11 30.7455C1176.48 32.5133 1170.29 28.5358 1168.52 21.9066C1166.75 15.2773 1170.73 9.09012 1177.36 7.32233Z" fill="#D3EDFF"/>
<path d="M213.454 426.754C218.204 440.685 227.405 453.112 242.072 461.585C242.669 453.221 251.332 449.635 259.049 449.486C247.817 441.958 238.656 432.897 228.46 414.795C227.504 412.484 220.374 418.141 216.879 421.955C215.217 423.658 214.539 425.291 213.454 426.754Z" fill="#DED3FF"/>
<path d="M656.276 127.973C645.227 133.276 631.526 128.415 626.222 117.366C620.919 106.318 625.78 92.6173 636.83 87.314C647.879 82.0106 661.58 86.8721 666.884 97.9208C672.187 109.411 667.326 122.67 656.276 127.973Z" fill="#DED3FF"/>
<path d="M435.292 150.072C444.573 155.817 447.225 167.75 441.479 176.589C435.734 185.869 423.8 188.521 414.961 182.776C405.68 177.03 403.028 165.098 408.773 156.259C414.519 147.42 426.452 144.326 435.292 150.072Z" fill="#D3EDFF"/>
<path d="M817.595 395.352V437.779C811.408 434.243 807.43 435.569 801.685 437.779C803.01 421.427 803.452 411.262 801.685 395.352C807.872 392.258 811.408 393.142 817.595 395.352Z" fill="#D3E1FF"/>
<path d="M1459.34 39.1426L1425.75 100.573C1419.56 90.4085 1412.93 89.5246 1402.76 87.7568C1417.35 65.6594 1426.63 51.0752 1436.35 26.3262C1447.4 27.652 1452.27 31.6295 1459.34 39.1426Z" fill="#DED3FF"/>
<path d="M705.747 191.335C694.698 183.822 691.604 168.796 699.118 157.747C706.631 146.698 721.658 143.605 732.708 151.118C743.757 158.631 746.851 173.657 739.337 184.706C731.824 195.754 716.797 198.848 705.747 191.335Z" fill="#BAF0DF"/>
<path d="M1045.65 336.131L1006.76 347.18C1008.08 340.551 1006.32 337.457 1002.78 332.596C1017.81 329.502 1027.53 327.734 1041.67 321.547C1046.09 326.408 1046.09 330.386 1045.65 336.131Z" fill="#DED3FF"/>
<path d="M528.782 384.423C517.291 371.607 501.38 363.21 481.933 361C485.027 369.839 477.955 378.236 470 381.772C485.469 384.423 499.612 389.727 518.617 403.869C520.827 405.637 525.688 396.356 527.456 390.611C527.898 388.843 528.34 386.633 528.782 384.423Z" fill="#DED3FF"/>
</g>
<defs>
<clipPath id="clip0">
<rect width="1440" height="615" fill="white"/>
</clipPath>
</defs>
</svg>
