<svg width="264" height="202" viewBox="0 0 264 202" fill="none" xmlns="http://www.w3.org/2000/svg">
<path d="M184.307 58.8281L172.115 62.5825L160.861 70.5604L154.296 86.9856V118.428L158.516 129.691L172.115 137.2L189.934 139.077L208.222 128.283L218.538 121.244L223.228 108.104L221.352 91.6785L208.222 67.7447L197.437 58.8281H184.307Z" fill="#FEF6E7"/>
<path fill-rule="evenodd" clip-rule="evenodd" d="M245.879 66.8206C246.597 67.624 247.041 68.618 247.632 69.5908C248.012 70.1406 247.781 70.6273 247.235 71.0084C245.66 72.5958 243.536 73.5067 241.602 74.6924C239.1 76.1112 236.261 77.2762 233.569 78.4201C232.581 78.8649 232.244 78.6112 231.821 77.7653C230.679 75.0581 230.679 75.0581 233.202 73.7875C237.134 71.8602 241.023 69.6368 244.765 67.4347C245.186 67.2229 245.606 67.0111 245.879 66.8206Z" fill="#001064"/>
<path fill-rule="evenodd" clip-rule="evenodd" d="M221.8 45.8286C222.109 45.4736 222.028 45.2788 221.614 45.1067C221.475 45.0494 221.256 44.7972 221.118 44.7399C218.802 43.2953 218.664 43.2379 217.141 45.3451C214.772 48.712 212.484 52.2738 210.115 55.6407C209.748 56.1331 209.772 56.4654 210.13 56.7748C211.259 57.5659 212.332 58.4943 213.461 59.2854C213.957 59.6522 214.152 59.5721 214.518 59.0797C216.954 54.7734 219.389 50.4671 221.767 46.2982C221.686 46.1034 221.743 45.966 221.8 45.8286Z" fill="#001064"/>
<path fill-rule="evenodd" clip-rule="evenodd" d="M182.471 40.2071C181.793 43.7925 181.724 47.4699 181.518 51.0899C181.461 51.2273 181.428 51.697 181.566 51.7544C182.867 52.133 184.038 51.6525 185.314 51.6989C186.119 51.7108 185.933 50.9889 185.966 50.5193C186.23 46.7618 186.493 43.0044 186.895 39.3042C186.904 38.5023 186.685 38.2502 185.88 38.2383C185.685 38.3184 185.408 38.2037 185.27 38.1464C183.051 38.0307 183.051 38.0307 182.471 40.2071Z" fill="#001064"/>
<path d="M175.741 137.205C175.741 137.205 156.061 135.874 155.426 119.253C154.792 102.633 148.232 68.3604 175.741 60.7158C203.25 53.0711 208.498 70.6796 212.434 77.3364C216.37 83.9933 235.711 107.915 210.487 127.542C210.487 127.542 184.459 138.494 185.094 143.175C185.729 147.813 207.059 139.524 207.059 139.524C207.059 139.524 214.762 136.518 215.1 140.684C215.439 144.85 198.552 149.66 198.552 149.66C198.552 149.66 186.448 151.979 187.083 156.961C187.718 161.943 207.567 153.525 207.567 153.525C207.567 153.525 213.45 151.077 213.788 153.525C214.127 155.973 206.086 159.796 206.086 159.796C206.086 159.796 191.485 164.133 192.162 167.612C192.797 171.091 201.684 168.943 201.684 168.943C201.684 168.943 209.895 167.097 208.244 170.447C206.594 173.754 165.753 198.749 192.627 198.749" stroke="#001064" stroke-width="4.5" stroke-miterlimit="10"/>
<path d="M188.504 124.674L175.973 94.5022C175.149 92.5021 173.501 90.9701 171.376 90.3744C169.165 89.7786 166.563 90.3318 165.696 95.3533C164.005 104.928 188.504 95.9916 188.504 95.9916C188.504 95.9916 202.249 93.0128 201.599 85.438C201.252 81.6506 199.257 81.1399 197.306 81.608C194.661 82.2038 192.883 84.5869 192.84 87.2253C192.797 89.6509 193.23 93.4383 194.878 99.2684C197.61 108.971 198.477 114.631 198.477 114.631" stroke="#001064" stroke-width="3" stroke-miterlimit="10"/>
<path d="M2.05437 197.37C23.6109 196.823 44.8556 196.41 66.0059 195.998L66.8782 195.981L66.88 195.981L99.164 195.467L99.1654 195.467L131.309 195.046L131.312 195.046L163.314 194.812C173.985 194.718 184.608 194.718 195.278 194.765C215.744 194.855 236.166 195.247 256.707 195.651C256.395 182.951 256.042 170.247 255.647 157.503C255.226 143.948 254.665 130.392 254.057 116.835L2.05437 197.37ZM2.05437 197.37L4.31636 157.376L4.31643 157.374L6.46869 117.399L6.4687 117.399L7.54483 97.5753L7.54494 97.573L8.5275 77.7958L8.52755 77.7947L8.99544 67.9295L8.99554 67.9271L9.41664 58.0619L9.41664 58.0619L10.1808 40.2025L31.9488 24.5023L31.9491 24.502L54.0726 8.51319L68.9934 8.51319L68.9949 8.51318L85.2304 8.46643L85.2326 8.46642L117.704 8.23265L182.011 7.77034C183.945 8.6136 185.876 9.46222 187.806 10.3106C191.443 11.9089 195.078 13.5063 198.728 15.0654L216.133 22.5457L216.133 22.5459L249.698 36.927L250.829 55.8251L250.829 55.8262L251.998 76.161L251.998 76.1633L253.074 96.497L253.074 96.4993L254.057 116.833L2.05437 197.37ZM0.556663 198.3L0.551996 198.791L1.04326 198.804C17.265 199.238 33.6553 199.589 50.1686 199.941C54.9949 200.044 59.8318 200.148 64.678 200.254L64.6809 200.254L96.8713 200.768L96.8728 200.768L129.204 201.189L129.207 201.189L161.677 201.423C172.488 201.516 183.345 201.516 194.201 201.469C215.916 201.376 237.629 200.955 259.245 200.534L259.246 200.534L261.305 200.487L261.83 200.475L261.793 199.952L261.652 197.991C260.763 184.433 259.921 170.922 259.126 157.365C258.378 143.808 257.676 130.251 257.068 116.695L256.226 96.3609L256.226 96.3586L255.477 76.025L255.477 76.0227L254.822 55.6879L254.822 55.6868L254.214 35.3497L254.214 35.3429L254.167 34.2675L254.154 33.9609L253.874 33.834L252.85 33.3688L252.845 33.3665L218.554 17.332L218.552 17.3311L201.381 9.3829C195.625 6.71738 189.916 4.09866 184.16 1.47998L184.159 1.47985L183.645 1.24608L183.546 1.20132H183.438H182.785H182.783L117.751 0.733785L117.75 0.733781L85.2319 0.546761L85.2304 0.546757L68.9949 0.5H68.9934H52.7578H51.5881H51.4306L51.3015 0.590287L50.3658 1.24485L50.3657 1.24472L50.3557 1.25212L27.3357 18.224L27.3343 18.2251L4.36187 35.29L4.36119 35.2905L3.09859 36.2251L2.89606 36.375V36.627V38.1641L2.42831 58.4031L2.92818 58.4146L2.42831 58.4031L2.19436 68.5488L2.19432 68.5511L2.00717 78.6501L2.00715 78.6512L1.67963 98.8492L1.67961 98.8503L1.39888 118.955L1.39887 118.956L0.930981 158.884L0.930971 158.885L0.556663 198.3Z" fill="#001064" stroke="#001064"/>
<path d="M1 197.719H114.686V70L98 57L81 43.5L7.17298 37.7363L1 197.719Z" fill="#FFEDE9"/>
<path d="M182.589 5.32812L115.2 69.5V197.719" stroke="#001064" stroke-width="4" stroke-miterlimit="10"/>
<path d="M145.601 66.4056L150.977 60.8844L151.636 63.181L155.52 71.5123L161.335 75.3116L152.478 79.098L147.53 85.2423L145.124 77.7295L137.698 70.9128L138.516 69.4347L145.601 66.4056Z" fill="white"/>
<path d="M80.0354 41.8537C80.4667 43.0966 80.8368 44.3427 81.2069 45.5887C81.5769 46.8348 81.9232 48.0947 82.2572 49.3552C82.9245 51.8637 83.5435 54.3872 84.1386 56.9246L84.5665 58.8254C84.7093 59.4632 84.8392 60.089 84.9821 60.7268C85.1127 61.3652 85.2548 61.9904 85.3854 62.6289L85.4832 63.1045L85.5134 63.2168L85.5431 63.3165L85.59 63.5165C85.6215 63.654 85.6524 63.7789 85.6962 63.9158L85.7554 64.1152C85.7709 64.1777 85.7985 64.2395 85.8146 64.3146C86.4847 66.3929 87.8404 68.1962 89.5837 69.4108C90.0166 69.7177 90.4843 69.985 90.9623 70.2138C91.4403 70.4425 91.9287 70.6329 92.4396 70.7841C93.4486 71.0746 94.5098 71.1854 95.5756 71.1441L95.979 71.1111L96.4429 71.0623L97.3837 70.9768C98.0068 70.9201 98.6422 70.8626 99.2653 70.8058L101.148 70.6475L103.029 70.4765C105.549 70.2985 108.057 70.1464 110.594 70.0688C111.856 70.0302 113.119 69.9917 114.395 69.9904C115.659 69.9772 116.936 69.9885 118.202 70.0257C116.981 70.3909 115.745 70.719 114.522 71.0338C113.298 71.3486 112.061 71.6388 110.823 71.9164C108.359 72.4709 105.881 72.9757 103.4 73.4299L101.539 73.7769L99.6778 74.0987C99.0573 74.2059 98.4367 74.3132 97.8155 74.4078L96.8779 74.5564L96.4153 74.6304L95.8785 74.6954C94.4376 74.8442 92.9473 74.7424 91.5292 74.3715C90.8198 74.1797 90.1201 73.9368 89.454 73.629C88.7878 73.3212 88.1429 72.949 87.5322 72.5246C85.1016 70.8262 83.2635 68.2252 82.4907 65.33C82.4617 65.2429 82.445 65.1552 82.4154 65.0556L82.3523 64.7805C82.306 64.5931 82.2726 64.4178 82.2385 64.2298L82.1877 63.9541L82.1684 63.8159L82.1497 63.6904L82.0764 63.2135C81.9826 62.5732 81.901 61.9323 81.8065 61.2794C81.7249 60.6385 81.631 59.9982 81.5488 59.3447L81.3033 57.4094C80.9885 54.8325 80.7097 52.2412 80.4922 49.6468C80.3895 48.3493 80.2869 47.0518 80.2081 45.7404C80.1312 44.4669 80.0524 43.1555 80.0354 41.8537Z" fill="#001064"/>
<path d="M131.431 69.2969C132.486 68.7727 134.005 69.0841 135.204 68.9758C136.524 68.8469 137.82 68.6125 139.068 68.2395C141.627 67.4762 143.981 66.2282 145.913 64.5557C147.898 62.8355 149.443 60.6298 150.398 58.271C150.43 58.1762 150.48 58.07 150.512 57.9752C150.512 55.4389 150.877 52.927 151.68 50.6697C152.153 49.3166 154.6 49.7864 154.447 51.2423C154.418 51.554 154.375 51.8631 154.304 52.1669C154.283 52.2783 154.251 52.3732 154.204 52.4654C153.813 54.4102 153.441 56.3297 153.403 58.3547C153.356 60.8247 153.656 63.3305 154.295 65.7553C154.846 67.861 155.738 69.9581 157.292 71.6597C159.006 73.5351 161.274 74.4905 163.818 74.9927C164.627 75.1577 164.795 76.1546 163.936 76.3405C163.169 76.5005 162.412 76.5324 161.704 76.4583C161.306 76.6149 160.925 76.7602 160.479 76.8644C159.631 77.0669 158.808 77.2886 158.011 77.6157C156.39 78.2508 154.901 79.1266 153.623 80.2146C150.871 82.5704 149.27 85.9474 149.024 89.4037C148.967 90.1857 148.324 90.556 147.66 90.5621C146.749 91.5744 144.816 90.7968 145.208 89.3275C146.293 85.235 145.925 80.9583 143.062 77.3414C141.75 75.6848 140.094 74.3679 138.184 73.3064C136.946 72.6002 135.598 72.1621 134.27 71.6987C133.195 71.7725 132.084 71.7243 131.283 71.2005C130.496 70.6793 130.654 69.6711 131.431 69.2969ZM139.349 71.0875C141.74 72.2531 143.875 74.005 145.412 76.035C146.773 77.8302 147.767 79.9319 148.305 82.1073C149.13 80.762 150.187 79.5175 151.462 78.4434C152.95 77.1783 154.746 76.1579 156.656 75.4756C157.082 75.3243 157.519 75.1896 157.971 75.0575C155.249 73.2971 153.221 70.1814 152.26 67.5816C151.682 66.0184 151.243 64.3371 150.943 62.624C150.131 63.8996 149.159 65.0877 148.017 66.1577C145.911 68.1294 143.227 69.6475 140.361 70.5554C139.938 70.6927 139.503 70.8135 139.071 70.9204C139.146 70.992 139.24 71.0384 139.349 71.0875Z" fill="#001064"/>
<path d="M6.14453 39.2793L81.0002 43L116 70.5" stroke="#001064" stroke-width="4" stroke-miterlimit="10"/>
<path d="M243.192 110.862L247.732 105.576L248.457 107.611L252.432 114.912L257.894 118.013L250.114 121.93L245.995 127.754L243.4 121.109L236.312 115.375L236.968 113.995L243.192 110.862Z" fill="white"/>
<path d="M230.565 114.27C231.488 113.738 232.877 113.933 233.953 113.768C235.137 113.577 236.294 113.292 237.399 112.885C239.665 112.052 241.72 110.793 243.369 109.175C245.064 107.51 246.334 105.432 247.063 103.25C247.087 103.162 247.125 103.064 247.149 102.976C247.006 100.687 247.194 98.3994 247.791 96.3168C248.142 95.0689 250.377 95.355 250.321 96.6776C250.312 96.9606 250.291 97.242 250.244 97.5202C250.232 97.6219 250.208 97.7093 250.171 97.7952C249.927 99.5725 249.7 101.326 249.78 103.156C249.876 105.388 250.288 107.632 251.002 109.785C251.618 111.654 252.541 113.497 254.04 114.945C255.692 116.541 257.793 117.275 260.118 117.585C260.857 117.689 261.065 118.579 260.3 118.795C259.617 118.983 258.935 119.054 258.292 119.027C257.942 119.191 257.607 119.344 257.209 119.463C256.455 119.693 255.726 119.94 255.024 120.28C253.597 120.945 252.302 121.819 251.21 122.873C248.859 125.154 247.605 128.293 247.578 131.426C247.571 132.135 247.011 132.505 246.412 132.548C245.647 133.513 243.859 132.92 244.129 131.572C244.878 127.817 244.305 123.978 241.517 120.875C240.239 119.454 238.67 118.359 236.887 117.508C235.729 116.941 234.488 116.621 233.263 116.278C232.297 116.405 231.292 116.424 230.539 115.997C229.799 115.571 229.885 114.652 230.565 114.27ZM237.813 115.44C240.037 116.357 242.062 117.818 243.564 119.564C244.893 121.107 245.909 122.948 246.517 124.881C247.186 123.62 248.07 122.438 249.16 121.396C250.432 120.171 251.995 119.148 253.681 118.425C254.056 118.264 254.444 118.118 254.844 117.973C252.288 116.538 250.282 113.84 249.269 111.548C248.658 110.17 248.168 108.677 247.8 107.148C247.139 108.345 246.329 109.472 245.358 110.502C243.569 112.4 241.232 113.922 238.697 114.903C238.322 115.05 237.937 115.184 237.552 115.305C237.624 115.365 237.712 115.402 237.813 115.44Z" fill="#001064"/>
<path d="M37.6675 159.224C33.6606 162.301 30.9414 166 29.0178 170.689C28.9607 170.828 27.0997 175.685 28.9839 174.251C30.0022 173.475 33.5557 170.105 33.8345 169.841C38.396 165.515 43.0037 161.184 47.2331 156.527C50.2747 153.178 54.2053 148.928 56.0524 144.706C57.6814 140.982 51.1995 151.27 49.3362 154.882C46.4774 160.424 44.0229 166.618 44.1463 172.962C44.2218 176.84 45.439 178.384 49.2174 176.218C54.9251 172.946 59.3224 167.364 63.1078 162.107C63.2764 161.873 66.3242 157.275 66.3472 157.528C66.4884 159.08 66.4489 160.411 67.314 161.802C67.7328 162.475 68.991 164.561 69.9598 163.718C70.9275 162.877 71.9775 161.983 73.1822 161.496C73.7908 161.25 73.5734 161.749 73.7249 162.09C73.9246 162.539 75.8718 162.279 76.2011 162.277C80.4523 162.242 84.5356 161.779 88.6499 160.75" stroke="#001064" stroke-width="4" stroke-linecap="round" stroke-linejoin="round"/>
<path d="M27.9025 105.078C26.5228 105.132 25.4481 106.294 25.5019 107.673C25.5557 109.053 26.7178 110.128 28.0975 110.074L27.9025 105.078ZM94.0975 107.498C95.4772 107.444 96.5519 106.282 96.4981 104.903C96.4443 103.523 95.2822 102.448 93.9025 102.502L94.0975 107.498ZM27.908 119.502C26.5282 119.553 25.4509 120.712 25.5017 122.092C25.5525 123.472 26.7122 124.549 28.092 124.498L27.908 119.502ZM70.0523 122.953C71.4321 122.902 72.5094 121.742 72.4586 120.363C72.4078 118.983 71.248 117.905 69.8683 117.956L70.0523 122.953ZM28.0975 110.074L94.0975 107.498L93.9025 102.502L27.9025 105.078L28.0975 110.074ZM28.092 124.498L70.0523 122.953L69.8683 117.956L27.908 119.502L28.092 124.498Z" fill="#001064"/>
</svg>
