<svg width="32" height="32" viewBox="0 0 32 32" fill="none" xmlns="http://www.w3.org/2000/svg">
<rect width="32" height="32" rx="4" fill="#E0F6EF"/>
<path d="M22.8318 7.79849C23.4211 7.04267 24.4146 6.95794 25.1105 7.58304C25.3005 7.75538 25.4176 7.99446 25.5 8.32645V8.32659V8.32739V8.32819V8.32899V8.32979V8.33059V8.33139V8.33219V8.33299V8.33379V8.3346V8.3354V8.3362V8.337V8.3378V8.3386V8.3394V8.3402V8.34101V8.34181V8.34261V8.34341V8.34421V8.34501V8.34582V8.34662V8.34742V8.34822V8.34902V8.34983V8.35063V8.35143V8.35223V8.35304V8.35384V8.35464V8.35544V8.35625V8.35705V8.35785V8.35865V8.35946V8.36026V8.36106V8.36186V8.36267V8.36347V8.36427V8.36508V8.36588V8.36668V8.36749V8.36829V8.36909V8.3699V8.3707V8.3715V8.37231V8.37311V8.37391V8.37472V8.37552V8.37633V8.37713V8.37793V8.37874V8.37954V8.38035V8.38115V8.38195V8.38276V8.38356V8.38437V8.38517V8.38598V8.38678V8.38758V8.38839V8.38919V8.39V8.3908V8.39161V8.39241V8.39322V8.39402V8.39482V8.39563V8.39643V8.39724V8.39804V8.39885V8.39965V8.40046V8.40126V8.40207V8.40287V8.40368V8.40448V8.40529V8.40609V8.4069V8.4077V8.40851V8.40932V8.41012V8.41093V8.41173V8.41254V8.41334V8.41415V8.41495V8.41576V8.41656V8.41737V8.41818V8.41898V8.41979V8.42059V8.4214V8.4222V8.42301V8.42382V8.42462V8.42543V8.42623V8.42704V8.42784V8.42865V8.42946V8.43026V8.43107V8.43187V8.43268V8.43349V8.43429V8.4351V8.4359V8.43671V8.43752V8.43832V8.43913V8.43994V8.44074V8.44155V8.44235V8.44316V8.44397V8.44477V8.44558V8.44638V8.44719V8.448V8.4488V8.44961V8.45042V8.45122V8.45203V8.45284V8.45364V8.45445V8.45525V8.45606V8.45687V8.45767V8.45848V8.45929V8.46009V8.4609V8.46171V8.46251V8.46332V8.46412V8.46493V8.46574V8.46654V8.46735V8.46816V8.46896V8.46977V8.47058V8.47138V8.47219V8.473V8.4738V8.47461V8.47542V8.47622V8.47703V8.47783V8.47864V8.47945V8.48025V8.48106V8.48187V8.48267V8.48348V8.48429V8.48509V8.4859V8.48671V8.48751V8.48832V8.48912V8.48993V8.49074V8.49154V8.49235V8.49316V8.49396V8.49477V8.49558V8.49638V8.49719V8.49799V8.4988V8.49961V8.50041V8.50122V8.50203V8.50283V8.50364V8.50444V8.50525V8.50606V8.50686V8.50767V8.50848V8.50928V8.51009V8.51089V8.5117V8.51251V8.51331V8.51412V8.51492V8.51573V8.51654V8.51734V8.51815V8.51895V8.51976V8.52056V8.52137V8.52218V8.52298V8.52379V8.52459V8.5254V8.5262V8.52701V8.52782V8.52862V8.52943V8.53023V8.53104V8.53184V8.53265V8.53345V8.53426V8.53507V8.53587V8.53668V8.53748V8.53829V8.53909V8.5399V8.5407V8.54151V8.54231V8.54312V8.54392V8.54473V8.54553V8.54634V8.54714V8.54795V8.54875V8.54956V8.55036V8.55117V8.55197V8.55278V8.55358V8.55439V8.55519V8.55599V8.5568V8.5576V8.55841V8.55921V8.56002V8.56082V8.56163V8.56243V8.56323V8.56404V8.56484V8.56565V8.56645V8.56725V8.56806V8.56886V8.56967V8.57047V8.57127V8.57208V8.57288V8.57368V8.57449V8.57529V8.57609V8.5769V8.5777V8.57851V8.57931V8.58011V8.58091V8.58172V8.58252V8.58332V8.58413V8.58493V8.58573V8.58654V8.58734V8.58814V8.58894V8.58975V8.59055V8.59135V8.59215V8.59296V8.59376V8.59456V8.59536V8.59617V8.59697V8.59777V8.59857V8.59937V8.60018V8.60098V8.60178V8.60258V8.60338V8.60418V8.60499V8.60579V8.60659V8.60739V8.60819V8.60899V8.60979V8.6106V8.6114V8.6122V8.613V8.6138V8.6146V8.6154V8.6162V8.617V8.6178V8.6186V8.6194V8.6202V8.621V8.6218V8.6226V8.6234V8.6242V8.625V8.6258V8.6266V8.6274V8.6282V8.629V8.6298V8.62993C25.4237 8.98791 25.2087 9.27293 24.9019 9.67012C20.8721 14.8443 16.846 20.0145 12.8199 25.1886C10.8404 22.8359 8.85741 20.4833 6.87447 18.1345C6.69963 17.9268 6.57864 17.6876 6.5 17.4089V17.0798C6.52317 17.0205 6.54561 16.9595 6.56507 16.9066C6.57848 16.8701 6.59049 16.8374 6.60035 16.8118C6.6414 16.7053 6.67416 16.6373 6.70779 16.5888L6.70889 16.5872C6.90874 16.2965 7.13294 16.1254 7.37052 16.0328C7.61125 15.939 7.89963 15.9128 8.24396 15.9675C8.59258 16.0256 8.88775 16.2151 9.16437 16.5437C9.59591 17.0569 10.0277 17.5696 10.4605 18.0835C11.0787 18.8175 11.6991 19.5541 12.3241 20.2985L12.7106 20.7588L13.0929 20.2949C13.1052 20.28 13.1234 20.2584 13.1434 20.2347C13.1756 20.1964 13.2126 20.1525 13.2372 20.1219L13.2373 20.1219L13.2423 20.1154C15.304 17.4645 17.3672 14.8155 19.4301 12.1668C20.5642 10.7107 21.6982 9.25463 22.8318 7.79849Z" fill="#00B67A" stroke="#E0F6EF"/>
</svg>
