<svg width="48" height="48" viewBox="0 0 48 48" fill="none" xmlns="http://www.w3.org/2000/svg">
<rect y="0.00012207" width="48" height="48" rx="4" fill="#E0F6EF"/>
<path d="M34.0506 11.544C35.0226 10.2973 36.6801 10.1529 37.833 11.1887C38.176 11.4995 38.3701 11.9219 38.5 12.4595V12.4599V12.4611V12.4623V12.4635V12.4647V12.4659V12.4671V12.4683V12.4695V12.4707V12.4719V12.4731V12.4743V12.4755V12.4767V12.4779V12.4791V12.4803V12.4815V12.4827V12.4839V12.4851V12.4863V12.4875V12.4887V12.4899V12.4911V12.4923V12.4935V12.4947V12.4959V12.4971V12.4983V12.4995V12.5007V12.5019V12.5031V12.5043V12.5055V12.5067V12.5079V12.5091V12.5103V12.5115V12.5127V12.5139V12.5151V12.5163V12.5175V12.5187V12.5199V12.5211V12.5223V12.5235V12.5247V12.5259V12.5271V12.5283V12.5296V12.5308V12.532V12.5332V12.5344V12.5356V12.5368V12.538V12.5392V12.5404V12.5416V12.5428V12.544V12.5452V12.5464V12.5476V12.5488V12.55V12.5512V12.5524V12.5536V12.5548V12.5561V12.5573V12.5585V12.5597V12.5609V12.5621V12.5633V12.5645V12.5657V12.5669V12.5681V12.5693V12.5705V12.5717V12.5729V12.5741V12.5753V12.5765V12.5778V12.579V12.5802V12.5814V12.5826V12.5838V12.585V12.5862V12.5874V12.5886V12.5898V12.591V12.5922V12.5934V12.5947V12.5959V12.5971V12.5983V12.5995V12.6007V12.6019V12.6031V12.6043V12.6055V12.6067V12.6079V12.6091V12.6103V12.6116V12.6128V12.614V12.6152V12.6164V12.6176V12.6188V12.62V12.6212V12.6224V12.6236V12.6248V12.6261V12.6273V12.6285V12.6297V12.6309V12.6321V12.6333V12.6345V12.6357V12.6369V12.6381V12.6393V12.6406V12.6418V12.643V12.6442V12.6454V12.6466V12.6478V12.649V12.6502V12.6514V12.6526V12.6539V12.6551V12.6563V12.6575V12.6587V12.6599V12.6611V12.6623V12.6635V12.6647V12.6659V12.6672V12.6684V12.6696V12.6708V12.672V12.6732V12.6744V12.6756V12.6768V12.678V12.6793V12.6805V12.6817V12.6829V12.6841V12.6853V12.6865V12.6877V12.6889V12.6901V12.6913V12.6926V12.6938V12.695V12.6962V12.6974V12.6986V12.6998V12.701V12.7022V12.7034V12.7047V12.7059V12.7071V12.7083V12.7095V12.7107V12.7119V12.7131V12.7143V12.7155V12.7168V12.718V12.7192V12.7204V12.7216V12.7228V12.724V12.7252V12.7264V12.7276V12.7288V12.7301V12.7313V12.7325V12.7337V12.7349V12.7361V12.7373V12.7385V12.7397V12.7409V12.7422V12.7434V12.7446V12.7458V12.747V12.7482V12.7494V12.7506V12.7518V12.753V12.7542V12.7555V12.7567V12.7579V12.7591V12.7603V12.7615V12.7627V12.7639V12.7651V12.7663V12.7675V12.7688V12.77V12.7712V12.7724V12.7736V12.7748V12.776V12.7772V12.7784V12.7796V12.7808V12.7821V12.7833V12.7845V12.7857V12.7869V12.7881V12.7893V12.7905V12.7917V12.7929V12.7941V12.7953V12.7966V12.7978V12.799V12.8002V12.8014V12.8026V12.8038V12.805V12.8062V12.8074V12.8086V12.8098V12.8111V12.8123V12.8135V12.8147V12.8159V12.8171V12.8183V12.8195V12.8207V12.8219V12.8231V12.8243V12.8255V12.8268V12.828V12.8292V12.8304V12.8316V12.8328V12.834V12.8352V12.8364V12.8376V12.8388V12.84V12.8412V12.8424V12.8436V12.8449V12.8461V12.8473V12.8485V12.8497V12.8509V12.8521V12.8533V12.8545V12.8557V12.8569V12.8581V12.8593V12.8605V12.8617V12.8629V12.8641V12.8653V12.8666V12.8678V12.869V12.8702V12.8714V12.8726V12.8738V12.875V12.8762V12.8774V12.8786V12.8798V12.881V12.8822V12.8834V12.8846V12.8858V12.887V12.8882V12.8894V12.8906V12.8918V12.893V12.8942V12.8955V12.8967V12.8979V12.8991V12.9003V12.9015V12.9027V12.9039V12.9051V12.9063V12.9075V12.9087V12.9099V12.9111V12.9123V12.9135V12.9147V12.9159V12.9171V12.9183V12.9195V12.9207V12.9219V12.9231V12.9243V12.9255V12.9267V12.9279V12.9291V12.9303V12.9315V12.9327V12.9339V12.9351V12.9363V12.9375V12.9387V12.9399V12.9411V12.9423V12.9435V12.9447V12.9459V12.9471V12.9483V12.9495V12.9507V12.9519V12.9531V12.9543V12.9555V12.9567V12.9579V12.9591V12.9603V12.9615V12.9627V12.9639V12.9651V12.9663V12.9675V12.9687V12.9699V12.9704C38.3763 13.5862 38.0107 14.0626 37.5503 14.6585C31.4422 22.5011 25.3398 30.3377 19.2375 38.1803C16.2021 34.5724 13.1614 30.9647 10.1206 27.3629C9.82516 27.012 9.62587 26.6091 9.5 26.1473V25.5722C9.5383 25.4766 9.57536 25.3758 9.60871 25.285C9.62993 25.2272 9.64966 25.1735 9.66724 25.1279C9.73076 24.9631 9.78842 24.8385 9.85623 24.7407L9.85732 24.7391C10.1822 24.2666 10.5568 23.9754 10.965 23.8163C11.3764 23.6559 11.8557 23.6169 12.4061 23.7045C13.0027 23.8037 13.495 24.1287 13.9376 24.6544C14.5846 25.4237 15.2321 26.1925 15.8812 26.9633C16.8089 28.0647 17.7399 29.1701 18.6776 30.2869L19.0642 30.7473L19.4464 30.2834C19.4696 30.2552 19.4991 30.2203 19.53 30.1837C19.5756 30.1296 19.6245 30.0717 19.6611 30.0261L19.6611 30.0262L19.6662 30.0197C22.7591 26.0428 25.8544 22.0685 28.9491 18.0951C30.6499 15.9113 32.3506 13.7277 34.0506 11.544Z" fill="#00B67A" stroke="#E0F6EF"/>
</svg>
