<svg width="251" height="237" viewBox="0 0 251 237" fill="none" xmlns="http://www.w3.org/2000/svg">
<path d="M43.5579 209.144C45.8299 209.144 47.5099 207.688 47.5099 205.768C47.5099 203.608 46.1659 202.84 43.6219 202.44C41.2859 202.088 40.8699 201.512 40.8699 200.392C40.8699 199.32 41.6859 198.536 43.2539 198.536C44.8379 198.536 45.6699 199.128 45.9419 200.568H47.1899C46.9659 198.536 45.5419 197.416 43.2539 197.416C41.0939 197.416 39.5739 198.76 39.5739 200.52C39.5739 202.552 40.9979 203.304 43.3979 203.672C45.5739 204.024 46.1659 204.568 46.1659 205.864C46.1659 207.16 45.0299 208.024 43.5579 208.024C41.2539 208.024 40.7099 206.872 40.5339 205.512H39.1899C39.3979 207.464 40.5019 209.144 43.5579 209.144ZM53.2211 209.144C55.1091 209.144 56.5011 208.264 56.7891 206.584H55.4611C55.2851 207.56 54.5331 208.04 53.2371 208.04C51.5251 208.04 50.6131 206.984 50.5491 205.08H56.8531V204.648C56.8531 201.656 55.0291 200.488 53.0931 200.488C50.7891 200.488 49.1731 202.248 49.1731 204.776V204.904C49.1731 207.48 50.8531 209.144 53.2211 209.144ZM50.5971 204.008C50.8211 202.52 51.7331 201.592 53.0931 201.592C54.4691 201.592 55.3651 202.28 55.4931 204.008H50.5971ZM58.9229 209H60.2669V196.632H58.9229V209ZM63.2726 209H64.6006V201.752H66.6486V200.632H64.6006V199.128C64.6006 198.28 64.9526 197.688 65.8166 197.688C66.1846 197.688 66.5206 197.768 66.7606 197.864V196.744C66.4246 196.632 66.2006 196.584 65.7686 196.584C64.1046 196.584 63.2726 197.576 63.2726 199.272V200.632H62.0726V201.752H63.2726V209ZM67.8975 205.224H71.3215V203.976H67.8975V205.224ZM76.2173 209.144C78.2493 209.144 79.2893 208.12 79.2893 206.6C79.2893 204.824 78.0733 204.44 76.3453 204.12C74.8093 203.848 74.3932 203.544 74.3932 202.792C74.3932 202.072 75.0173 201.592 75.9773 201.592C77.0333 201.592 77.5453 201.992 77.7373 202.904H79.0173C78.7933 201.096 77.4973 200.488 75.9933 200.488C74.6813 200.488 73.1613 201.288 73.1613 202.84C73.1613 204.296 73.8973 204.904 76.0733 205.304C77.3693 205.544 78.0253 205.832 78.0253 206.712C78.0253 207.608 77.4653 208.04 76.2013 208.04C74.8573 208.04 74.3293 207.416 74.2333 206.424H72.9373C73.0173 208.136 74.2173 209.144 76.2173 209.144ZM84.7368 209.144C86.6248 209.144 88.0168 208.264 88.3048 206.584H86.9768C86.8008 207.56 86.0488 208.04 84.7528 208.04C83.0408 208.04 82.1288 206.984 82.0648 205.08H88.3688V204.648C88.3688 201.656 86.5448 200.488 84.6088 200.488C82.3048 200.488 80.6888 202.248 80.6888 204.776V204.904C80.6888 207.48 82.3688 209.144 84.7368 209.144ZM82.1128 204.008C82.3368 202.52 83.2488 201.592 84.6088 201.592C85.9848 201.592 86.8808 202.28 87.0088 204.008H82.1128ZM90.4065 209H91.7345V204.408C91.7345 202.344 92.8065 201.816 94.4865 201.736V200.488C92.9825 200.536 92.2625 201.192 91.7345 202.136V200.632H90.4065V209ZM98.5963 209H100.292L103.3 200.632H101.924L99.4763 207.656L96.9963 200.632H95.5563L98.5963 209ZM105.719 198.888C106.199 198.888 106.599 198.488 106.599 198.008C106.599 197.528 106.199 197.128 105.719 197.128C105.239 197.128 104.839 197.528 104.839 198.008C104.839 198.488 105.239 198.888 105.719 198.888ZM105.079 209H106.407V200.632H105.079V209ZM112.597 209.144C114.613 209.144 116.069 207.8 116.245 205.992H115.013C114.869 207.352 113.797 208.04 112.613 208.04C110.997 208.04 109.877 206.952 109.877 204.904V204.776C109.877 202.808 111.045 201.592 112.565 201.592C113.717 201.592 114.677 202.088 114.885 203.416H116.197C115.941 201.288 114.309 200.488 112.565 200.488C110.325 200.488 108.501 202.216 108.501 204.776V204.904C108.501 207.496 110.261 209.144 112.597 209.144ZM121.674 209.144C123.562 209.144 124.954 208.264 125.242 206.584H123.914C123.738 207.56 122.986 208.04 121.69 208.04C119.978 208.04 119.066 206.984 119.002 205.08H125.306V204.648C125.306 201.656 123.482 200.488 121.546 200.488C119.242 200.488 117.626 202.248 117.626 204.776V204.904C117.626 207.48 119.306 209.144 121.674 209.144ZM119.05 204.008C119.274 202.52 120.186 201.592 121.546 201.592C122.922 201.592 123.818 202.28 123.946 204.008H119.05ZM133.754 209H135.018L137.69 199.96L140.282 209H141.562L144.538 197.56H143.242L140.89 206.824L138.202 197.56H137.21L134.522 206.792L132.202 197.56H130.778L133.754 209ZM146.938 198.888C147.418 198.888 147.818 198.488 147.818 198.008C147.818 197.528 147.418 197.128 146.938 197.128C146.458 197.128 146.058 197.528 146.058 198.008C146.058 198.488 146.458 198.888 146.938 198.888ZM146.298 209H147.626V200.632H146.298V209ZM150.376 209H151.72V196.632H150.376V209ZM154.47 209H155.814V196.632H154.47V209ZM164.446 209H165.902L167.854 202.728L169.598 209H171.07L173.678 200.632H172.318L170.35 207.368L168.446 200.632H167.294L165.262 207.368L163.31 200.632H161.87L164.446 209ZM175.469 209H176.797V204.408C176.797 202.344 177.869 201.816 179.549 201.736V200.488C178.045 200.536 177.325 201.192 176.797 202.136V200.632H175.469V209ZM182.157 198.888C182.637 198.888 183.037 198.488 183.037 198.008C183.037 197.528 182.637 197.128 182.157 197.128C181.677 197.128 181.277 197.528 181.277 198.008C181.277 198.488 181.677 198.888 182.157 198.888ZM181.517 209H182.845V200.632H181.517V209ZM188.107 209.112C188.651 209.112 188.971 209.032 189.243 208.936V207.816C188.955 207.928 188.635 207.992 188.219 207.992C187.547 207.992 187.179 207.592 187.179 206.776V201.752H189.131V200.632H187.179V198.728H185.851V200.632H184.651V201.752H185.851V206.904C185.851 208.216 186.587 209.112 188.107 209.112ZM191.922 198.888C192.402 198.888 192.802 198.488 192.802 198.008C192.802 197.528 192.402 197.128 191.922 197.128C191.442 197.128 191.042 197.528 191.042 198.008C191.042 198.488 191.442 198.888 191.922 198.888ZM191.282 209H192.61V200.632H191.282V209ZM195.328 209H196.656V203.928C196.656 202.424 197.76 201.64 198.992 201.64C200.336 201.64 200.96 202.296 200.96 203.768V209H202.288V203.864C202.288 201.432 201.072 200.488 199.344 200.488C197.968 200.488 197.04 201.176 196.656 201.96V200.632H195.328V209ZM208.235 212.056C210.571 212.056 212.219 210.872 212.235 208.44V200.632H210.907V201.976C210.427 201.16 209.563 200.488 208.171 200.488C205.867 200.488 204.267 202.376 204.267 204.648V204.76C204.267 207.064 205.883 208.728 208.075 208.728C209.291 208.728 210.427 207.96 210.907 207.144V208.36C210.907 210.152 209.867 210.936 208.219 210.936C206.795 210.936 205.995 210.44 205.803 209.48H204.443C204.667 210.888 205.755 212.056 208.235 212.056ZM208.219 207.624C206.811 207.624 205.643 206.536 205.643 204.712V204.584C205.643 202.824 206.635 201.592 208.299 201.592C209.931 201.592 210.955 202.68 210.955 204.552V204.664C210.955 206.536 209.771 207.624 208.219 207.624ZM31.1598 231.144C33.5438 231.144 35.2878 229.4 35.2878 226.872V226.744C35.2878 224.232 33.5438 222.488 31.1758 222.488C28.8078 222.488 27.0638 224.248 27.0638 226.76V226.888C27.0638 229.336 28.7758 231.144 31.1598 231.144ZM31.1758 230.04C29.4798 230.04 28.4398 228.792 28.4398 226.888V226.76C28.4398 224.84 29.4958 223.592 31.1758 223.592C32.8398 223.592 33.9118 224.84 33.9118 226.776V226.888C33.9118 228.776 32.8558 230.04 31.1758 230.04ZM37.344 231H38.672V225.928C38.672 224.424 39.776 223.64 41.008 223.64C42.352 223.64 42.976 224.296 42.976 225.768V231H44.304V225.864C44.304 223.432 43.088 222.488 41.36 222.488C39.984 222.488 39.056 223.176 38.672 223.96V222.632H37.344V231ZM46.5225 227.224H49.9465V225.976H46.5225V227.224ZM54.7943 231.112C55.3383 231.112 55.6583 231.032 55.9303 230.936V229.816C55.6423 229.928 55.3223 229.992 54.9062 229.992C54.2343 229.992 53.8663 229.592 53.8663 228.776V223.752H55.8183V222.632H53.8663V220.728H52.5383V222.632H51.3383V223.752H52.5383V228.904C52.5383 230.216 53.2743 231.112 54.7943 231.112ZM57.9378 231H59.2658V225.928C59.2658 224.424 60.3698 223.64 61.6018 223.64C62.9458 223.64 63.5698 224.296 63.5698 225.768V231H64.8978V225.864C64.8978 223.432 63.6818 222.488 61.9538 222.488C60.5778 222.488 59.6498 223.176 59.2658 223.96V218.632H57.9378V231ZM70.9243 231.144C72.8123 231.144 74.2043 230.264 74.4923 228.584H73.1643C72.9883 229.56 72.2363 230.04 70.9403 230.04C69.2283 230.04 68.3163 228.984 68.2523 227.08H74.5563V226.648C74.5563 223.656 72.7323 222.488 70.7963 222.488C68.4923 222.488 66.8763 224.248 66.8763 226.776V226.904C66.8763 229.48 68.5563 231.144 70.9243 231.144ZM68.3003 226.008C68.5243 224.52 69.4363 223.592 70.7963 223.592C72.1723 223.592 73.0683 224.28 73.1963 226.008H68.3003ZM76.21 227.224H79.634V225.976H76.21V227.224ZM85.2818 234.056C87.6178 234.056 89.2658 232.872 89.2818 230.44V222.632H87.9538V223.976C87.4738 223.16 86.6098 222.488 85.2178 222.488C82.9138 222.488 81.3138 224.376 81.3138 226.648V226.76C81.3138 229.064 82.9298 230.728 85.1218 230.728C86.3378 230.728 87.4738 229.96 87.9538 229.144V230.36C87.9538 232.152 86.9138 232.936 85.2658 232.936C83.8418 232.936 83.0418 232.44 82.8498 231.48H81.4898C81.7138 232.888 82.8018 234.056 85.2818 234.056ZM85.2658 229.624C83.8578 229.624 82.6898 228.536 82.6898 226.712V226.584C82.6898 224.824 83.6818 223.592 85.3458 223.592C86.9778 223.592 88.0018 224.68 88.0018 226.552V226.664C88.0018 228.536 86.8178 229.624 85.2658 229.624ZM95.441 231.144C97.825 231.144 99.569 229.4 99.569 226.872V226.744C99.569 224.232 97.825 222.488 95.457 222.488C93.089 222.488 91.345 224.248 91.345 226.76V226.888C91.345 229.336 93.057 231.144 95.441 231.144ZM95.457 230.04C93.761 230.04 92.721 228.792 92.721 226.888V226.76C92.721 224.84 93.777 223.592 95.457 223.592C97.121 223.592 98.193 224.84 98.193 226.776V226.888C98.193 228.776 97.137 230.04 95.457 230.04ZM106.148 231H107.476V223.752H109.524V222.632H107.476V221.128C107.476 220.28 107.828 219.688 108.692 219.688C109.06 219.688 109.396 219.768 109.636 219.864V218.744C109.3 218.632 109.076 218.584 108.644 218.584C106.98 218.584 106.148 219.576 106.148 221.272V222.632H104.948V223.752H106.148V231ZM114.457 231.144C116.841 231.144 118.585 229.4 118.585 226.872V226.744C118.585 224.232 116.841 222.488 114.473 222.488C112.105 222.488 110.361 224.248 110.361 226.76V226.888C110.361 229.336 112.073 231.144 114.457 231.144ZM114.473 230.04C112.777 230.04 111.737 228.792 111.737 226.888V226.76C111.737 224.84 112.793 223.592 114.473 223.592C116.137 223.592 117.209 224.84 117.209 226.776V226.888C117.209 228.776 116.153 230.04 114.473 230.04ZM120.641 231H121.969V226.408C121.969 224.344 123.041 223.816 124.721 223.736V222.488C123.217 222.536 122.497 223.192 121.969 224.136V222.632H120.641V231ZM134.363 231.144C136.379 231.144 137.835 229.8 138.011 227.992H136.779C136.635 229.352 135.563 230.04 134.379 230.04C132.763 230.04 131.643 228.952 131.643 226.904V226.776C131.643 224.808 132.811 223.592 134.331 223.592C135.483 223.592 136.443 224.088 136.651 225.416H137.963C137.707 223.288 136.075 222.488 134.331 222.488C132.091 222.488 130.267 224.216 130.267 226.776V226.904C130.267 229.496 132.027 231.144 134.363 231.144ZM143.488 231.144C145.872 231.144 147.616 229.4 147.616 226.872V226.744C147.616 224.232 145.872 222.488 143.504 222.488C141.136 222.488 139.392 224.248 139.392 226.76V226.888C139.392 229.336 141.104 231.144 143.488 231.144ZM143.504 230.04C141.808 230.04 140.768 228.792 140.768 226.888V226.76C140.768 224.84 141.824 223.592 143.504 223.592C145.168 223.592 146.24 224.84 146.24 226.776V226.888C146.24 228.776 145.184 230.04 143.504 230.04ZM149.672 231H151V225.928C151 224.424 152.104 223.64 153.336 223.64C154.68 223.64 155.304 224.296 155.304 225.768V231H156.632V225.864C156.632 223.432 155.416 222.488 153.688 222.488C152.312 222.488 151.384 223.176 151 223.96V222.632H149.672V231ZM161.174 231H162.87L165.878 222.632H164.502L162.054 229.656L159.574 222.632H158.134L161.174 231ZM170.815 231.144C172.703 231.144 174.095 230.264 174.383 228.584H173.055C172.879 229.56 172.127 230.04 170.831 230.04C169.119 230.04 168.207 228.984 168.143 227.08H174.447V226.648C174.447 223.656 172.623 222.488 170.687 222.488C168.383 222.488 166.767 224.248 166.767 226.776V226.904C166.767 229.48 168.447 231.144 170.815 231.144ZM168.191 226.008C168.415 224.52 169.327 223.592 170.687 223.592C172.063 223.592 172.959 224.28 173.087 226.008H168.191ZM176.485 231H177.813V225.928C177.813 224.424 178.917 223.64 180.149 223.64C181.493 223.64 182.117 224.296 182.117 225.768V231H183.445V225.864C183.445 223.432 182.229 222.488 180.501 222.488C179.125 222.488 178.197 223.176 177.813 223.96V222.632H176.485V231ZM186.719 220.888C187.199 220.888 187.599 220.488 187.599 220.008C187.599 219.528 187.199 219.128 186.719 219.128C186.239 219.128 185.839 219.528 185.839 220.008C185.839 220.488 186.239 220.888 186.719 220.888ZM186.079 231H187.407V222.632H186.079V231ZM193.549 231.144C195.437 231.144 196.829 230.264 197.117 228.584H195.789C195.613 229.56 194.861 230.04 193.565 230.04C191.853 230.04 190.941 228.984 190.877 227.08H197.181V226.648C197.181 223.656 195.357 222.488 193.421 222.488C191.117 222.488 189.501 224.248 189.501 226.776V226.904C189.501 229.48 191.181 231.144 193.549 231.144ZM190.925 226.008C191.149 224.52 192.061 223.592 193.421 223.592C194.797 223.592 195.693 224.28 195.821 226.008H190.925ZM199.219 231H200.547V225.928C200.547 224.424 201.651 223.64 202.883 223.64C204.227 223.64 204.851 224.296 204.851 225.768V231H206.179V225.864C206.179 223.432 204.963 222.488 203.235 222.488C201.859 222.488 200.931 223.176 200.547 223.96V222.632H199.219V231ZM212.254 231.144C214.27 231.144 215.726 229.8 215.902 227.992H214.67C214.526 229.352 213.454 230.04 212.27 230.04C210.654 230.04 209.534 228.952 209.534 226.904V226.776C209.534 224.808 210.702 223.592 212.222 223.592C213.374 223.592 214.334 224.088 214.542 225.416H215.854C215.598 223.288 213.966 222.488 212.222 222.488C209.982 222.488 208.158 224.216 208.158 226.776V226.904C208.158 229.496 209.918 231.144 212.254 231.144ZM221.331 231.144C223.219 231.144 224.611 230.264 224.899 228.584H223.571C223.395 229.56 222.643 230.04 221.347 230.04C219.635 230.04 218.723 228.984 218.659 227.08H224.963V226.648C224.963 223.656 223.139 222.488 221.203 222.488C218.899 222.488 217.283 224.248 217.283 226.776V226.904C217.283 229.48 218.963 231.144 221.331 231.144ZM218.707 226.008C218.931 224.52 219.843 223.592 221.203 223.592C222.579 223.592 223.475 224.28 223.603 226.008H218.707Z" fill="#001064"/>
<path d="M67.4781 166.22C71.2181 166.22 73.9021 164.306 74.3641 160.522H71.5041C71.1961 162.744 69.6561 163.844 67.4781 163.844C64.5741 163.844 62.8801 161.754 62.8801 158.212V158.036C62.8801 154.516 64.6841 152.36 67.4561 152.36C69.7221 152.36 70.8881 153.438 71.2181 155.528H74.1881C73.8361 151.832 71.0421 150.028 67.4341 150.028C63.0561 150.028 59.8001 153.328 59.8001 158.058V158.234C59.8001 163.074 62.5501 166.22 67.4781 166.22ZM81.3262 166.22C84.7142 166.22 87.2442 163.888 87.2442 160.302V160.126C87.2442 156.606 84.7142 154.252 81.3482 154.252C77.9602 154.252 75.4302 156.628 75.4302 160.192V160.368C75.4302 163.866 77.9382 166.22 81.3262 166.22ZM81.3482 164.152C79.3242 164.152 78.1582 162.678 78.1582 160.324V160.148C78.1582 157.772 79.3682 156.342 81.3482 156.342C83.3282 156.342 84.5162 157.794 84.5162 160.17V160.324C84.5162 162.678 83.3282 164.152 81.3482 164.152ZM89.1494 166H91.8114V159.224C91.8114 157.398 93.0214 156.474 94.5174 156.474C96.1014 156.474 96.8054 157.266 96.8054 159.004V166H99.4674V158.762C99.4674 155.594 97.8394 154.252 95.5294 154.252C93.6374 154.252 92.3614 155.198 91.8114 156.32V154.494H89.1494V166ZM104.812 166H107.914L112.072 154.494H109.454L106.484 163.272L103.47 154.494H100.61L104.812 166ZM118.174 166.22C121.122 166.22 123.08 164.9 123.454 162.48H120.88C120.682 163.602 119.846 164.24 118.24 164.24C116.26 164.24 115.16 163.008 115.072 160.83H123.498V160.06C123.498 155.946 120.924 154.252 118.064 154.252C114.786 154.252 112.344 156.628 112.344 160.192V160.368C112.344 163.998 114.786 166.22 118.174 166.22ZM115.116 159.048C115.38 157.266 116.458 156.188 118.064 156.188C119.714 156.188 120.726 157.068 120.858 159.048H115.116ZM125.376 166H128.038V159.224C128.038 157.398 129.248 156.474 130.744 156.474C132.328 156.474 133.032 157.266 133.032 159.004V166H135.694V158.762C135.694 155.594 134.066 154.252 131.756 154.252C129.864 154.252 128.588 155.198 128.038 156.32V154.494H125.376V166ZM139.625 152.602C140.505 152.602 141.209 151.942 141.209 151.084C141.209 150.204 140.505 149.544 139.625 149.544C138.745 149.544 138.041 150.204 138.041 151.084C138.041 151.942 138.745 152.602 139.625 152.602ZM138.327 166H140.989V154.494H138.327V166ZM148.793 166.22C151.741 166.22 153.699 164.9 154.073 162.48H151.499C151.301 163.602 150.465 164.24 148.859 164.24C146.879 164.24 145.779 163.008 145.691 160.83H154.117V160.06C154.117 155.946 151.543 154.252 148.683 154.252C145.405 154.252 142.963 156.628 142.963 160.192V160.368C142.963 163.998 145.405 166.22 148.793 166.22ZM145.735 159.048C145.999 157.266 147.077 156.188 148.683 156.188C150.333 156.188 151.345 157.068 151.477 159.048H145.735ZM155.995 166H158.657V159.224C158.657 157.398 159.867 156.474 161.363 156.474C162.947 156.474 163.651 157.266 163.651 159.004V166H166.313V158.762C166.313 155.594 164.685 154.252 162.375 154.252C160.483 154.252 159.207 155.198 158.657 156.32V154.494H155.995V166ZM173.918 166.22C177.042 166.22 179.044 164.35 179.242 161.71H176.8C176.646 163.338 175.436 164.174 174.028 164.174C172.07 164.174 170.838 162.854 170.838 160.346V160.17C170.838 157.794 172.136 156.386 173.962 156.386C175.37 156.386 176.382 157.024 176.602 158.564H179.176C178.868 155.396 176.47 154.252 173.918 154.252C170.706 154.252 168.11 156.562 168.11 160.214V160.39C168.11 164.064 170.618 166.22 173.918 166.22ZM186.094 166.22C189.042 166.22 191 164.9 191.374 162.48H188.8C188.602 163.602 187.766 164.24 186.16 164.24C184.18 164.24 183.08 163.008 182.992 160.83H191.418V160.06C191.418 155.946 188.844 154.252 185.984 154.252C182.706 154.252 180.264 156.628 180.264 160.192V160.368C180.264 163.998 182.706 166.22 186.094 166.22ZM183.036 159.048C183.3 157.266 184.378 156.188 185.984 156.188C187.634 156.188 188.646 157.068 188.778 159.048H183.036Z" fill="#001064"/>
<circle cx="126" cy="47" r="42" fill="#FFEDE9"/>
<g clip-path="url(#clip0)">
<path fill-rule="evenodd" clip-rule="evenodd" d="M114.901 20.599C116.101 18.799 117.301 16.999 118.601 15.299C121.701 10.999 125.001 6.79905 128.401 2.59905C129.301 1.49905 130.701 0.699046 132.001 0.199047C133.501 -0.400954 135.201 0.799047 135.501 2.59905C135.901 5.09905 135.301 7.59905 134.601 9.99905C134.401 10.599 134.101 11.199 134.201 11.899C135.401 11.599 136.301 10.799 137.301 10.299C139.901 8.99905 142.401 7.59905 145.001 6.19905C145.901 5.69905 146.901 5.49905 147.901 5.49905C149.001 5.29905 149.701 5.99905 150.001 7.19905C150.701 10.399 149.801 13.099 147.501 15.299C145.001 17.699 142.201 19.599 139.401 21.599C137.301 23.099 135.501 24.799 133.701 26.599C133.201 27.099 132.701 27.599 132.101 27.899C131.301 28.399 130.901 29.099 130.401 29.899C130.301 29.999 130.201 30.299 130.301 30.399C130.401 30.699 130.701 30.499 130.901 30.399C131.801 30.099 132.701 29.799 133.601 29.599C136.301 28.899 138.801 29.299 141.301 30.699C143.701 32.099 146.001 33.499 148.001 35.399C150.201 37.599 152.001 39.899 152.001 43.299C152.001 44.599 152.001 45.799 151.001 46.799C150.701 47.099 150.901 47.399 151.101 47.599C152.301 49.199 152.401 50.899 152.001 52.699C151.401 55.299 150.901 57.899 149.701 60.399C148.601 62.699 147.101 64.499 144.801 65.599C143.001 66.399 141.301 67.399 139.501 68.399C137.401 69.599 135.001 70.299 132.801 71.499C131.701 72.099 130.601 72.799 129.601 73.699C128.701 74.499 128.701 75.699 128.301 76.699C127.501 78.599 127.101 80.599 126.501 82.499C126.201 83.499 124.401 84.299 123.401 83.699C123.101 83.499 122.801 83.199 123.001 82.699C123.201 81.999 123.401 81.299 123.601 80.599C124.401 78.699 124.701 76.599 125.601 74.699C126.401 72.899 127.501 71.499 129.301 70.599C133.501 68.499 137.601 66.299 141.701 63.899C142.801 63.299 143.801 62.499 144.901 61.999C146.301 61.299 146.801 59.899 147.401 58.699C148.301 56.999 148.901 55.299 149.401 53.499C149.701 52.499 149.801 51.499 149.701 50.499C149.501 48.999 148.401 48.299 146.901 48.899C145.601 49.399 144.701 50.499 143.901 51.599C143.601 52.099 143.301 52.599 143.001 53.099C142.201 54.399 141.401 55.699 140.001 56.499C138.901 57.099 138.201 58.199 137.001 58.699C134.101 60.099 131.301 59.899 128.501 58.499C126.601 57.499 124.801 56.399 124.401 53.999C124.301 53.399 124.201 52.699 124.201 52.099C124.001 49.899 124.401 47.999 125.501 45.999C127.501 42.299 130.401 39.799 134.101 38.199C135.601 37.599 136.901 38.199 138.201 38.699C141.001 39.799 143.001 41.999 145.401 43.699C146.201 44.299 147.001 44.899 147.901 45.199C149.201 45.599 150.101 44.999 150.101 43.599C150.101 42.399 149.601 41.399 148.901 40.499C147.601 38.699 146.401 36.899 144.601 35.599C142.301 33.899 140.101 32.099 137.101 31.699C135.101 31.399 133.201 32.099 131.501 32.899C128.001 34.699 124.701 36.899 121.701 39.299C120.401 40.399 118.901 41.499 118.601 43.399C118.501 44.099 118.501 44.799 118.601 45.499C118.601 46.699 118.001 47.299 116.801 47.299C116.501 47.299 116.201 47.199 116.101 46.799C115.701 45.199 115.501 43.599 116.601 42.099C117.601 40.899 118.501 39.599 119.401 38.399C120.901 36.399 122.901 34.999 124.801 33.399C125.101 33.099 125.401 32.799 125.601 32.399C127.301 29.299 129.601 26.799 132.201 24.399C135.601 21.299 139.301 18.599 143.101 16.099C144.701 15.099 146.201 13.799 147.101 11.999C147.601 11.099 147.701 10.199 147.701 9.29905C147.701 8.49905 147.201 8.09905 146.401 8.09905C145.501 8.09905 144.801 8.59905 144.101 8.99905C140.801 11.099 137.501 12.999 134.401 15.299C131.201 17.599 127.801 19.799 125.301 22.899C122.601 26.399 120.001 30.099 117.801 33.899C117.401 34.499 116.901 34.699 116.301 34.899C115.901 34.999 115.601 34.699 115.501 34.499C115.301 33.899 115.201 33.299 115.501 32.699C116.301 31.399 117.101 30.099 118.001 28.899C119.501 26.699 120.901 24.399 122.501 22.199C123.901 20.299 125.601 18.699 127.201 16.899C129.201 14.799 130.601 12.299 131.601 9.59905C132.201 7.89905 133.101 6.39905 133.201 4.49905C133.201 4.09905 133.201 3.79905 133.101 3.39905C133.001 2.99905 132.901 2.49905 132.301 2.39905C131.801 2.29905 131.401 2.49905 131.001 2.89905C128.901 4.79905 127.301 7.19905 125.701 9.49905C120.901 16.499 116.201 23.599 111.801 30.899C111.401 31.499 110.901 31.999 110.301 32.399C109.601 32.899 109.301 32.499 109.001 31.899C108.801 31.399 108.701 30.899 108.901 30.299C110.301 26.499 111.101 22.499 112.101 18.599C112.701 16.399 113.301 14.099 113.601 11.799C113.601 11.499 113.701 11.199 113.701 10.999C113.701 10.399 113.801 9.69905 113.201 9.39905C112.501 8.99905 111.801 9.29905 111.201 9.79905C109.901 10.899 109.301 12.499 108.601 13.999C106.901 17.599 105.701 21.199 105.301 25.299C105.101 27.699 104.801 30.199 104.501 32.699C104.201 35.099 104.301 37.599 104.501 40.099C104.601 42.399 104.601 44.699 104.601 46.899C104.601 52.699 104.701 58.399 105.201 64.199C106.001 68.699 105.801 72.999 104.601 77.199C104.101 79.099 104.101 79.099 102.101 78.899C101.201 78.799 100.901 78.499 101.001 77.599C101.401 75.099 101.801 72.599 102.201 70.099C102.501 68.499 102.301 66.899 102.301 65.299C102.101 62.399 102.001 59.399 102.101 56.499C102.301 52.799 102.101 49.199 102.201 45.599C102.301 43.099 102.401 40.499 102.501 37.999C102.501 34.099 102.801 30.299 103.401 26.499C104.201 21.099 105.701 15.899 108.501 10.999C109.201 9.79905 109.901 8.59905 111.001 7.69905C112.601 6.29905 115.001 6.79905 116.001 8.59905C116.401 9.29905 116.301 10.199 116.101 10.999C115.601 13.999 115.201 16.999 114.701 20.099C114.701 20.199 114.601 20.399 114.901 20.599ZM126.901 50.599C126.901 50.899 126.901 51.199 126.901 51.599C127.001 52.599 127.501 53.399 127.901 54.299C128.901 56.699 131.201 57.999 133.701 57.499C134.601 57.299 135.401 56.999 136.201 56.599C138.401 55.499 140.001 53.799 141.401 51.899C142.501 50.299 143.601 48.699 145.301 47.699C146.001 47.299 146.001 46.899 145.401 46.499C143.401 44.899 141.601 43.099 139.301 41.899C137.501 40.999 135.701 40.699 133.701 41.399C132.101 41.999 130.901 42.899 129.901 44.199C128.401 46.099 127.301 48.099 126.901 50.599Z" fill="#001064"/>
</g>
<defs>
<clipPath id="clip0">
<rect width="51.3" height="84" fill="white" transform="translate(101)"/>
</clipPath>
</defs>
</svg>
