<svg width="291" height="282" viewBox="0 0 291 282" fill="none" xmlns="http://www.w3.org/2000/svg">
<rect y="125.924" width="230.14" height="52.4685" fill="#F5D8BE"/>
<rect x="146.453" width="142.966" height="52.4685" fill="#CDE5F2"/>
<rect y="27.8789" width="122.044" height="8.02508" rx="2" fill="#001064"/>
<rect y="89.6968" width="181.25" height="8.02508" rx="2" fill="#001064"/>
<rect x="212.705" y="90.9453" width="76.7133" height="8.02508" rx="2" fill="#001064"/>
<rect x="254.957" y="146.667" width="35.0417" height="8.02508" rx="2" fill="#001064"/>
<rect y="263.03" width="47.125" height="8.02508" rx="2" fill="#001064"/>
<rect y="206.376" width="289.418" height="8.02508" rx="2" fill="#001064"/>
<path d="M90 278.176C99.144 273.142 97.7897 274.081 107.763 267.601C111.683 265.053 115.537 262.372 119.445 259.797C123.813 256.919 127.87 251.782 132.896 251.909C134.797 251.957 130.868 255.663 129.579 257.282C126.174 261.557 122.632 265.67 119.113 269.818C118.51 270.529 109.507 280.653 115.207 279.966C127.519 278.482 140.253 268.926 149.7 260.181C152.561 257.533 152.421 257.048 150.584 260.437C150.261 261.035 147.334 265.351 147.857 266.108C148.182 266.578 151.492 264.025 151.764 263.848C154.617 261.991 157.403 259.873 160.424 258.39C162.597 257.323 161.387 259.257 161.124 260.778C160.779 262.773 171.131 256.984 171.885 256.599C177.819 253.569 183.707 250.42 189.574 247.218C190.767 246.567 193.316 243.823 193.185 245.342C193.01 247.374 189.195 251.428 188.284 252.676C183.607 259.088 178.52 265.124 173.433 271.097C171.696 273.136 169.723 275.005 168.679 277.664C168.385 278.412 177.006 276.385 177.339 276.299C198.852 270.779 219.736 263.455 240.65 255.491C243.134 254.545 239.166 256.928 238.845 257.196C236.34 259.285 234.195 261.71 232.396 264.616C230.64 267.45 232.29 266.944 234.533 266.108C240.963 263.712 247.156 260.254 253.327 257.111C253.358 257.095 259.351 253.161 259.74 254.51C260.098 255.753 259.825 257.058 260.993 257.879C261.895 258.513 267.467 258.73 268.584 258.817C274.92 259.31 282.852 259.485 289 257.452" stroke="#001066" stroke-width="3.625" stroke-linecap="round" stroke-linejoin="round"/>
<path d="M95.457 157.576L104.52 166.667L134.124 136.97" stroke="#001064" stroke-width="6.04167"/>
<path d="M198.168 27.879L207.23 36.9699L236.835 7.27295" stroke="#001064" stroke-width="6.04167"/>
</svg>
