<svg width="167" height="162" viewBox="0 0 167 162" fill="none" xmlns="http://www.w3.org/2000/svg">
<rect y="71.957" width="130.942" height="29.982" fill="#F5D8BE"/>
<rect x="83.3262" width="81.3427" height="29.982" fill="#CDE5F2"/>
<rect y="15.9307" width="69.4389" height="4.58576" rx="2" fill="#001064"/>
<rect y="51.2554" width="103.125" height="4.58576" rx="2" fill="#001064"/>
<rect x="121.021" y="51.9688" width="43.6473" height="4.58576" rx="2" fill="#001064"/>
<rect x="145.062" y="83.8096" width="19.9375" height="4.58576" rx="2" fill="#001064"/>
<rect y="150.303" width="26.8125" height="4.58576" rx="2" fill="#001064"/>
<rect y="117.93" width="164.669" height="4.58576" rx="2" fill="#001064"/>
<path d="M51.207 158.958C56.4097 156.082 55.6391 156.618 61.3134 152.915C63.544 151.459 65.737 149.927 67.96 148.456C70.4453 146.811 72.7538 143.876 75.6132 143.948C76.6951 143.976 74.4594 146.093 73.7261 147.018C71.7889 149.462 69.7737 151.812 67.7713 154.182C67.428 154.588 62.3059 160.374 65.5488 159.981C72.5542 159.133 79.7992 153.672 85.1743 148.675C86.8023 147.162 86.7222 146.885 85.6776 148.821C85.4933 149.163 83.8282 151.63 84.126 152.062C84.3108 152.331 86.1937 150.872 86.3485 150.771C87.9721 149.709 89.557 148.499 91.2759 147.652C92.5124 147.042 91.8238 148.147 91.6743 149.016C91.4781 150.156 97.3678 146.848 97.7968 146.628C101.173 144.897 104.523 143.098 107.861 141.268C108.54 140.896 109.991 139.328 109.916 140.196C109.816 141.357 107.645 143.673 107.127 144.387C104.466 148.05 101.572 151.5 98.6774 154.913C97.689 156.078 96.5669 157.146 95.9726 158.665C95.8054 159.093 100.711 157.934 100.9 157.886C113.14 154.731 125.023 150.546 136.922 145.995C138.335 145.454 136.078 146.816 135.895 146.97C134.47 148.163 133.249 149.549 132.225 151.209C131.227 152.829 132.166 152.54 133.441 152.062C137.1 150.693 140.624 148.717 144.135 146.921C144.152 146.912 147.562 144.664 147.783 145.435C147.987 146.145 147.832 146.891 148.496 147.359C149.01 147.722 152.18 147.846 152.815 147.895C156.421 148.177 160.933 148.277 164.431 147.116" stroke="#001066" stroke-width="3.625" stroke-linecap="round" stroke-linejoin="round"/>
<path d="M54.3125 90.0435L59.4688 95.2383L76.3125 78.2686" stroke="#001064" stroke-width="6.04167"/>
<path d="M112.75 15.9312L117.906 21.126L134.75 4.15625" stroke="#001064" stroke-width="6.04167"/>
</svg>
