<svg width="126" height="122" viewBox="0 0 126 122" fill="none" xmlns="http://www.w3.org/2000/svg">
<ellipse rx="43.9651" ry="44.0707" transform="matrix(0.989798 -0.142475 0.141778 0.989898 63.9846 72.1097)" fill="#FEF6E7"/>
<path d="M58.3628 99.006L58.3611 99.0054C55.6502 98.0409 54.4306 95.0783 54.3692 92.5759C54.3694 90.563 54.9178 88.6697 55.4714 86.8232C55.4715 86.8227 55.4717 86.8222 55.4718 86.8217L55.4722 86.8207C55.5936 86.4562 55.718 86.0828 55.7811 85.7079C57.8752 78.6164 58.0597 71.0931 56.2107 63.9392C55.6578 61.7872 54.6675 58.7377 52.4215 57.1145L52.4206 57.1139C51.3552 56.3613 49.7902 55.9838 48.4684 56.2977C47.7745 56.4245 46.8863 56.8047 46.3141 57.6953L46.3139 57.6952L46.3108 57.7008C46.0339 58.1995 45.3595 58.3781 44.7847 58.0916C44.2879 57.814 44.1102 57.1404 44.3958 56.5658C45.1172 55.3042 46.3812 54.4576 48.0186 54.0935C49.9581 53.669 52.1417 54.1551 53.6552 55.3061L53.6552 55.3061L53.6563 55.3069C56.4543 57.3764 57.6162 60.8522 58.2305 63.3726L58.2307 63.3733C60.1325 70.9244 60.0098 78.8433 57.8018 86.2707C57.8016 86.2712 57.8015 86.2717 57.8013 86.2722L57.801 86.2731C57.6797 86.6372 57.5555 87.0102 57.4923 87.3847C56.94 89.1044 56.4444 90.7774 56.4444 92.5156C56.4444 93.361 56.6475 94.2998 57.0627 95.1073C57.4779 95.9148 58.1093 96.598 58.9693 96.9167L58.9698 96.9169C59.6834 97.1766 60.7081 96.9821 61.35 96.3398L61.3519 96.3378C61.4745 96.2152 61.6661 96.0235 61.8108 95.7821C61.9568 95.5387 62.06 95.2365 61.9924 94.8966C61.8794 94.2724 62.2762 93.7107 62.8353 93.5983C63.4591 93.4854 64.0205 93.8825 64.1327 94.4423C64.3713 95.6971 63.894 97.0749 62.7545 97.9751L62.7469 97.9811L62.7406 97.9885C62.0254 98.8235 60.8873 99.2458 59.8034 99.2458C59.32 99.2458 58.8406 99.1853 58.3628 99.006Z" fill="#001064" stroke="white" stroke-width="0.2"/>
<path d="M68.8697 58.1671L68.8697 58.1671L68.8712 58.1642C70.0248 55.9163 72.3323 54.2766 74.8794 54.0338L74.8797 54.0338C77.3678 53.7909 80.0398 54.8851 81.6169 56.8882L81.6168 56.8883L81.6202 56.8922C82.0098 57.3377 81.8996 58.0711 81.451 58.4078L81.4508 58.4075L81.4452 58.4125C81 58.8023 80.2672 58.692 79.9308 58.2432L79.9308 58.2432L79.9295 58.2415C78.801 56.7986 76.9838 56.0465 75.1671 56.2346L75.1667 56.2346C73.4142 56.4226 71.7255 57.5476 70.9094 59.1757C70.6798 59.5167 70.2813 59.7415 69.8891 59.7415C69.7258 59.7415 69.5593 59.6875 69.3742 59.6258C68.8097 59.3392 68.5936 58.6644 68.8697 58.1671Z" fill="#001064" stroke="white" stroke-width="0.2"/>
<path d="M46.0898 80.5407C40.1189 80.5407 35.3058 75.7244 35.3058 69.7493C35.3058 63.7742 40.1189 58.9579 46.0898 58.9579C52.0607 58.9579 56.8738 63.7742 56.8738 69.7493C56.8738 75.724 51.9996 80.5407 46.0898 80.5407ZM46.0898 61.1577C41.3612 61.1577 37.504 65.0176 37.504 69.7493C37.504 74.481 41.3612 78.3409 46.0898 78.3409C50.8185 78.3409 54.6757 74.481 54.6757 69.7493C54.6757 65.0176 50.8185 61.1577 46.0898 61.1577Z" fill="#001064" stroke="white" stroke-width="0.2"/>
<path d="M76.0991 80.5402C70.1282 80.5402 65.3151 75.7239 65.3151 69.7488C65.3151 63.7737 70.1282 58.9574 76.0991 58.9574C82.07 58.9574 86.8831 63.7737 86.8831 69.7488C86.8831 75.7235 82.0089 80.5402 76.0991 80.5402ZM76.0991 61.1572C71.3705 61.1572 67.5133 65.0171 67.5133 69.7488C67.5133 74.4805 71.3705 78.3404 76.0991 78.3404C80.8278 78.3404 84.685 74.4805 84.685 69.7488C84.685 65.0171 80.8278 61.1572 76.0991 61.1572Z" fill="#001064" stroke="white" stroke-width="0.2"/>
<path d="M66.4429 72.025C66.074 72.025 65.705 71.8404 65.459 71.4712C64.8441 70.6097 62.1385 69.6252 60.4167 69.5021C59.0639 69.3791 57.7111 69.9329 56.7887 70.9174C56.3583 71.4097 55.5589 71.4097 55.067 70.9789C54.575 70.5482 54.575 69.7483 55.0055 69.256C56.4198 67.7177 58.5105 66.9177 60.5397 67.1023C62.1385 67.2254 66.074 68.1484 67.3653 70.1175C67.7342 70.6713 67.6113 71.4097 67.0578 71.7789C66.8734 71.9635 66.6274 72.025 66.4429 72.025Z" fill="#001064"/>
<path d="M48.205 73.933C48.205 75.0672 47.2862 75.9866 46.153 75.9866C45.0198 75.9866 44.101 75.0672 44.101 73.933C44.101 72.7987 45.0198 71.8793 46.153 71.8793C47.2862 71.8793 48.205 72.7987 48.205 73.933Z" fill="#001064" stroke="white" stroke-width="0.2"/>
<path d="M77.415 73.933C77.415 75.0672 76.4962 75.9866 75.363 75.9866C74.2297 75.9866 73.3109 75.0672 73.3109 73.933C73.3109 72.7987 74.2297 71.8793 75.363 71.8793C76.4962 71.8793 77.415 72.7987 77.415 73.933Z" fill="#001064" stroke="white" stroke-width="0.2"/>
<path d="M99.2794 73.9943C98.6644 73.9943 98.111 73.502 98.111 72.8867C98.0495 72.2098 98.5415 71.656 99.2179 71.5945C99.7713 71.5329 100.14 71.1637 100.325 70.9176C100.694 70.4253 100.878 69.7485 100.755 69.1947C100.509 68.0255 99.4023 67.041 98.0495 66.7333C96.4507 66.3641 94.7905 66.9179 93.6836 67.4717C91.3469 68.5178 89.3177 70.3023 87.4115 72.0867C86.9195 72.5175 86.1816 72.4559 85.6897 71.9637C85.2593 71.4714 85.3208 70.733 85.8127 70.2407C87.9034 68.3947 90.0556 66.4872 92.6997 65.2565C94.7905 64.272 96.7582 63.9643 98.5415 64.3951C100.878 64.8873 102.723 66.6103 103.092 68.7639C103.338 69.9946 102.969 71.3483 102.169 72.3944C101.432 73.3789 100.386 73.9327 99.2794 73.9943C99.3408 73.9943 99.2794 73.9943 99.2794 73.9943Z" fill="#001064"/>
<path d="M56.5275 106.211L56.5275 106.211L56.5255 106.21C55.9646 105.93 55.7947 105.255 56.0763 104.748L56.0763 104.748L56.0783 104.744C56.3587 104.183 57.0323 104.013 57.539 104.295L57.539 104.295L57.5414 104.296C61.9402 106.59 67.576 106.157 71.5425 103.182C72.061 102.837 72.731 102.905 73.0618 103.401C73.4077 103.921 73.3405 104.593 72.8435 104.924L72.8434 104.924L72.8381 104.928C70.2136 106.944 66.9152 107.923 63.6138 107.923C61.169 107.923 58.7256 107.372 56.5275 106.211Z" fill="#001064" stroke="white" stroke-width="0.2"/>
<path d="M118.832 87.5579C118.832 87.5579 135.619 51.5609 108.686 35.5623C106.776 34.4278 105.003 33.4959 103.359 32.7437C85.3828 24.5191 90.5719 66.0538 107.339 55.5811C108.528 54.8379 109.7 53.8215 110.838 52.4839C132.667 29.1013 104.812 8.67233 91.0375 4.36501C70.4993 -1.97291 41.2293 3.68814 36.2485 30.3935C31.2677 57.0989 56.9712 54.453 55.9873 37.2853C55.4339 27.0707 46.5176 20.3636 34.0963 20.1175C20.9986 19.8714 6.24061 34.0855 5.99464 54.8837C5.81017 69.1594 12.6357 76.2973 12.6357 76.2973" stroke="#001064" stroke-width="3.5" stroke-miterlimit="10" stroke-linecap="round" stroke-linejoin="bevel"/>
<path d="M2 71.3782C2.74294 71.6331 3.4139 72.0288 4.09669 72.4123C5.54172 73.2237 6.99589 74.0239 8.41392 74.8821C9.6094 75.6056 10.7932 76.3655 11.9283 77.1811C12.2477 77.4105 12.563 77.6247 12.9148 77.8007C13.1247 77.9057 13.4055 78.0662 13.6407 78.0998C13.7427 78.1144 13.732 74.9169 13.7218 74.6685C13.6385 72.6327 13.7061 70.6077 13.8201 68.575C13.8774 67.5533 14.0898 66.5419 14.2044 65.524C14.254 65.0837 14.2983 64.5823 14.2983 64.148" stroke="#001064" stroke-width="3" stroke-linecap="round" stroke-linejoin="round"/>
</svg>
