<svg width="202" height="197" viewBox="0 0 202 197" fill="none" xmlns="http://www.w3.org/2000/svg">
<ellipse rx="71.6585" ry="71.7006" transform="matrix(0.989836 -0.142211 0.142041 0.989861 102.949 115.838)" fill="#FEF6E7"/>
<path d="M93.4488 159.48L93.4472 159.48C89.0126 157.902 87.0269 153.061 86.9272 148.988C86.9274 145.71 87.8206 142.629 88.7189 139.633C88.719 139.632 88.7192 139.632 88.7193 139.631L88.7197 139.63C88.9177 139.036 89.1187 138.432 89.2201 137.828C92.6165 126.329 92.9159 114.13 89.9179 102.531C89.0201 99.0374 87.4171 94.11 83.7921 91.4904L83.7912 91.4898C82.0747 90.2773 79.552 89.6698 77.4258 90.1754C76.3106 90.3788 74.8861 90.9889 73.9692 92.4161L73.969 92.416L73.9659 92.4216C73.4975 93.2652 72.3635 93.5588 71.4056 93.0807C70.5641 92.6115 70.2714 91.4779 70.7485 90.5202C71.9296 88.4537 73.998 87.0706 76.6696 86.4765C79.8349 85.7838 83.3974 86.5764 85.8685 88.4556L85.8685 88.4556L85.8696 88.4564C90.4296 91.8289 92.3192 97.4892 93.3165 101.581L93.3167 101.582C96.406 113.846 96.2067 126.709 92.6197 138.774C92.6196 138.774 92.6194 138.775 92.6193 138.775L92.6189 138.776C92.4211 139.37 92.2202 139.973 92.1187 140.577C91.2217 143.37 90.4196 146.078 90.4196 148.889C90.4196 150.252 90.7472 151.766 91.4162 153.066C92.0852 154.367 93.0997 155.463 94.4767 155.973L94.4773 155.973C95.6122 156.386 97.2497 156.077 98.2746 155.051L98.2766 155.049C98.4758 154.85 98.7823 154.543 99.0132 154.158C99.2453 153.771 99.406 153.296 99.3001 152.765C99.1105 151.719 99.7753 150.774 100.717 150.585C101.763 150.395 102.707 151.061 102.896 152.004C103.288 154.064 102.504 156.323 100.637 157.798L100.629 157.804L100.623 157.811C99.448 159.183 97.5821 159.873 95.8088 159.873C95.0189 159.873 94.2331 159.774 93.4488 159.48Z" fill="#001064" stroke="white" stroke-width="0.2"/>
<path d="M110.466 93.1204L110.466 93.1204L110.468 93.1175C112.349 89.4517 116.112 86.7772 120.268 86.3811L120.268 86.3811C124.327 85.9849 128.684 87.7689 131.257 91.0367L131.257 91.0368L131.261 91.0407C131.918 91.7928 131.732 93.0244 130.977 93.591L130.976 93.5908L130.971 93.5957C130.219 94.2538 128.988 94.0669 128.422 93.3114L128.422 93.3114L128.421 93.3098C126.603 90.9854 123.675 89.7735 120.747 90.0765L120.747 90.0765C117.922 90.3794 115.199 92.1943 113.885 94.8189C113.502 95.3898 112.836 95.7678 112.175 95.7678C111.897 95.7678 111.616 95.6756 111.316 95.5755C110.368 95.0973 109.999 93.9626 110.466 93.1204Z" fill="#001064" stroke="white" stroke-width="0.2"/>
<path d="M73.5545 129.519C63.8298 129.519 55.9906 121.675 55.9906 111.944C55.9906 102.213 63.8298 94.3695 73.5545 94.3695C83.2791 94.3695 91.1183 102.213 91.1183 111.944C91.1183 121.675 83.1797 129.519 73.5545 129.519ZM73.5545 98.0639C65.9147 98.0639 59.6827 104.3 59.6827 111.944C59.6827 119.588 65.9147 125.824 73.5545 125.824C81.1942 125.824 87.4263 119.588 87.4263 111.944C87.4263 104.3 81.1942 98.0639 73.5545 98.0639Z" fill="#001064" stroke="white" stroke-width="0.2"/>
<path d="M122.256 129.519C112.531 129.519 104.692 121.675 104.692 111.944C104.692 102.213 112.531 94.3695 122.256 94.3695C131.98 94.3695 139.819 102.213 139.819 111.944C139.819 121.675 131.881 129.519 122.256 129.519ZM122.256 98.0639C114.616 98.0639 108.384 104.3 108.384 111.944C108.384 119.588 114.616 125.824 122.256 125.824C129.895 125.824 136.127 119.588 136.127 111.944C136.127 104.3 129.895 98.0639 122.256 98.0639Z" fill="#001064" stroke="white" stroke-width="0.2"/>
<path d="M106.588 115.636C105.989 115.636 105.39 115.337 104.991 114.738C103.993 113.34 99.602 111.742 96.8078 111.542C94.6123 111.343 92.4168 112.241 90.9198 113.839C90.2213 114.638 88.9239 114.638 88.1255 113.939C87.3272 113.24 87.3272 111.942 88.0257 111.143C90.321 108.646 93.7141 107.348 97.0074 107.648C99.602 107.848 105.989 109.345 108.085 112.541C108.683 113.44 108.484 114.638 107.586 115.237C107.286 115.537 106.887 115.636 106.588 115.636Z" fill="#001064"/>
<path d="M77.0478 118.733C77.0478 120.608 75.5287 122.128 73.655 122.128C71.7812 122.128 70.2621 120.608 70.2621 118.733C70.2621 116.858 71.7812 115.338 73.655 115.338C75.5287 115.338 77.0478 116.858 77.0478 118.733Z" fill="#001064" stroke="white" stroke-width="0.2"/>
<path d="M124.45 118.733C124.45 120.608 122.931 122.128 121.057 122.128C119.184 122.128 117.664 120.608 117.664 118.733C117.664 116.858 119.184 115.338 121.057 115.338C122.931 115.338 124.45 116.858 124.45 118.733Z" fill="#001064" stroke="white" stroke-width="0.2"/>
<path d="M159.877 118.831C158.88 118.831 157.981 118.032 157.981 117.034C157.882 115.935 158.68 115.037 159.778 114.937C160.676 114.837 161.275 114.238 161.574 113.838C162.173 113.04 162.472 111.941 162.273 111.042C161.873 109.145 160.077 107.547 157.882 107.048C155.287 106.449 152.592 107.348 150.796 108.246C147.004 109.944 143.711 112.84 140.617 115.736C139.819 116.435 138.621 116.335 137.823 115.536C137.124 114.737 137.224 113.539 138.022 112.74C141.415 109.744 144.908 106.649 149.199 104.652C152.592 103.054 155.786 102.555 158.68 103.254C162.472 104.053 165.466 106.848 166.065 110.343C166.464 112.341 165.865 114.537 164.568 116.235C163.37 117.833 161.674 118.731 159.877 118.831C159.977 118.831 159.877 118.831 159.877 118.831Z" fill="#001064"/>
<path d="M90.4669 171.169L90.4669 171.169L90.4649 171.168C89.521 170.696 89.2361 169.562 89.7092 168.71L89.7093 168.71L89.7113 168.706C90.1832 167.762 91.3164 167.477 92.1679 167.95L92.1703 167.951C99.2887 171.663 108.41 170.962 114.828 166.147C115.691 165.572 116.821 165.679 117.382 166.52C117.957 167.384 117.852 168.516 117.01 169.078L117.01 169.077L117.005 169.081C112.733 172.362 107.366 173.954 101.996 173.954C98.0195 173.954 94.0439 173.058 90.4669 171.169Z" fill="#001064" stroke="white" stroke-width="0.2"/>
<path d="M191.611 140.844C191.611 140.844 218.856 82.428 175.145 56.4653C163.164 49.3492 154.528 47.1467 148.301 47.6989C128.609 49.4456 136.694 81.8798 154.86 89.6781C162.516 92.9647 171.046 92.8514 178.638 83.9259C214.065 45.9803 168.858 12.8279 146.504 5.83796C113.172 -4.44728 65.6693 4.73954 57.5859 48.0773C49.5024 91.4152 91.217 87.1213 89.6203 59.2613C88.7221 42.6851 74.2518 31.8007 54.093 31.4013C32.8366 31.0019 8.88561 54.0688 8.48643 87.8203C8.18704 110.987 19.2644 122.57 19.2644 122.57" stroke="#001064" stroke-width="3.5" stroke-miterlimit="10" stroke-linecap="round" stroke-linejoin="bevel"/>
<path d="M2 114.589C3.20572 115.002 4.29464 115.645 5.40275 116.267C7.74791 117.584 10.1079 118.882 12.4092 120.275C14.3494 121.449 16.2706 122.682 18.1128 124.006C18.6311 124.378 19.1428 124.726 19.7137 125.011C20.0544 125.182 20.5101 125.442 20.8919 125.497C21.0573 125.52 21.0401 120.331 21.0235 119.928C20.8882 116.624 20.9979 113.338 21.1829 110.04C21.2759 108.382 21.6206 106.74 21.8067 105.088C21.8871 104.374 21.9591 103.56 21.9591 102.855" stroke="#001064" stroke-width="3" stroke-linecap="round" stroke-linejoin="round"/>
</svg>
