<svg width="380" height="169" viewBox="0 0 380 169" fill="none" xmlns="http://www.w3.org/2000/svg">
<path d="M0 0H191C220.271 0 244 23.7289 244 53V53C244 82.2711 220.271 106 191 106H53C23.7289 106 0 82.2711 0 53V0Z" fill="#001066"/>
<path d="M180 117C180 88.2812 203.281 65 232 65H327C356.271 65 380 88.7289 380 118V169H232C203.281 169 180 145.719 180 117V117Z" fill="#FFF3DF"/>
<g clip-path="url(#clip0)">
<path fill-rule="evenodd" clip-rule="evenodd" d="M269.8 153C273.4 153.2 277.3 152.4 281.1 151.9C284 151.5 286.8 151.2 289.7 150.9C291 150.8 292.3 150.6 293.6 150.2C297.8 148.9 302.1 148.7 306.4 148.6C308.9 148.5 311.4 148.3 313.8 148.9C314.1 149 314.3 149 314.6 149C315.5 149.2 316.1 149.6 315.8 150.6C315.6 151.3 314.9 151.9 314.1 151.9C312.2 151.7 310.2 151.7 308.3 151.8C302.7 151.9 297.1 152.6 291.6 153.7C287.6 154.5 283.6 155.1 279.6 155.6C275 156.1 270.3 156.2 265.7 156.2C263.3 156.2 260.9 155.7 258.5 155.7C257.1 155.7 255.9 154.8 254.8 154C251 151.2 250.3 145 252.1 141.9C252.4 141.3 252.5 141 252 140.6C249.7 139.2 250 136.9 250.4 134.8C250.6 133.6 251.3 132.5 252 131.6C252.3 131.2 252.4 130.9 251.8 130.6C250.4 130 250 128.7 250 127.3C250 125.2 250.7 123.3 252.4 121.9C253 121.4 253.6 120.9 254.2 120.5C254.7 120.1 254.6 119.8 254.3 119.4C253.7 118.4 253 117.5 252.5 116.4C251.3 113.9 252 112.9 254 111.2C255.7 109.8 257.7 109.5 259.8 109.4C264.4 109.1 269 109.6 273.6 109.7C275.9 109.7 278.2 110 280.6 109.7C281.6 109.6 281.5 109.2 281.3 108.5C280.6 105.8 279.8 103 279.1 100.3C278.1 96.6 277.8 92.8 277.3 89C277 86.8 277.4 84.7 277.8 82.7C278.2 80.9 279.4 79.4 280.5 78C281.1 77.3 282 76.9 283.1 77.2C284.1 77.5 285.1 77.9 285.9 78.4C286.8 78.9 287 80 287.3 80.8C289.5 86.5 291.2 92.2 293.2 97.9C294.9 102.8 296.8 107.7 299.4 112.1C300.7 114.3 302 116.6 303.7 118.6C304.4 119.4 305.2 119.7 306.1 120C309 120.8 311.8 121.7 314.7 122.2C315.9 122.4 316.5 123.2 316.4 124C316.2 124.7 314.9 125.6 314 125.4C311.5 124.9 308.9 124.3 306.4 124C303.4 123.6 301.7 121.7 300.2 119.4C298.1 116.3 296.6 112.8 294.8 109.6C292.5 105.5 291.2 100.9 289.7 96.4C288.6 93.1 287.1 89.9 286.3 86.4C285.9 84.5 285.3 82.8 284.5 81C283.9 79.7 282.8 79.6 281.9 80.8C280.7 82.4 280.5 84.4 280.4 86.3C280.3 90.6 281 94.9 281.9 99.1C282.5 101.9 283.4 104.7 284.4 107.4C284.7 108.2 284.9 109.1 285.1 110C285.3 111.1 284.8 112 283.7 112.3C281.1 113 278.5 113.1 275.8 113.1C275.5 113.1 275.1 112.9 274.8 113.3C274.6 113.7 274.9 114 275.1 114.3C275.4 114.8 275.7 115.2 276 115.7C277.1 117.2 277.1 118.9 275.9 120.3C275.7 120.6 275.4 120.9 275.2 121.2C274.7 121.7 274.8 122.1 275.2 122.7C276.3 124.2 277 125.8 277.4 127.7C277.8 129.6 277.2 131 275.5 132C274.9 132.3 275 132.5 275.4 132.9C276.3 133.9 277 134.9 277.2 136.3C277.4 137.9 276.9 139.2 276 140.4C275.5 141.1 275 141.8 275.2 142.8C275.4 143.9 275.4 145 275.1 146.1C274.8 147.2 274.2 147.9 273.1 148.1C269.2 148.8 265.3 149.2 261.4 149.5C260.8 149.5 260.2 149.4 259.7 149.3C259.3 149.2 259 149.1 258.9 148.6C258.8 148.2 259.1 148 259.4 147.8C260.7 147.2 262.2 147.2 263.6 147C266 146.7 268.4 146.4 270.8 146.1C271.5 146 272.2 145.9 272.4 145C272.6 144.2 272.2 143.7 271.7 143.2C271 142.6 270.3 142.2 269.4 141.9C265.2 140.6 260.9 141 256.7 141.8C257 141.9 256.9 142 256.8 142C254.6 142.3 253.8 143.6 253.8 145.8C253.8 148 254.9 149.7 256.1 151.3C256.6 152 257.4 152 258.1 152.2C261.9 152.8 265.6 153.1 269.8 153ZM269 129.8C269 129.9 269 130 269 130.1C270.5 130.2 272 130.3 273.4 130.3C274.3 130.3 275.2 130.1 275.6 129.1C276.1 127.5 274 123.4 272 123C270.3 122.7 268.7 122.3 267 122.2C264.3 122.1 261.6 122 259 121.8C256.4 121.6 253.5 123.3 252.6 125.6C252.3 126.4 252.4 127.1 252.9 127.7C254.1 129.1 255.7 129.8 257.5 129.8C261.4 129.8 265.2 129.8 269 129.8ZM274.6 136.6C274.6 134.6 273.9 133.7 271.5 133.1C268.1 132.3 264.6 132.6 261.1 132.6C259.5 132.6 257.9 132.7 256.3 133.1C255 133.4 253.9 134 253 135C252.8 135.3 252.6 135.6 252.6 135.9C252.5 137.7 254.5 139.8 256.3 139.2C257 139 257.8 139 258.5 139C263.3 138.6 268.1 138.8 272.9 140C273.3 140.1 273.7 140.2 273.9 139.7C274.3 138.7 274.6 137.9 274.6 136.6ZM262.2 112.8C262.2 112.7 262.2 112.7 262.2 112.6C261.2 112.6 260.3 112.6 259.3 112.6C258.2 112.6 257.3 112.9 256.4 113.6C254.7 114.9 254.9 116.8 256.9 117.7C258.8 118.6 260.9 119.1 262.9 119.6C266.1 120.2 269.3 120.1 272.5 119.2C273.9 118.8 274.3 117.6 273.4 116.4C273.1 116 272.6 115.6 272.3 115.2C271.3 113.7 269.8 113.1 268.1 113C266.1 112.7 264.2 112.8 262.2 112.8Z" fill="#001066"/>
</g>
<path fill-rule="evenodd" clip-rule="evenodd" d="M314.014 62.4583C314.707 62.8901 315.242 63.5188 315.879 64.1007C316.273 64.4198 316.207 64.823 315.889 65.2166C315.073 66.7071 313.715 67.8221 312.553 69.0967C311.026 70.6617 309.199 72.114 307.475 73.5195C306.847 74.0536 306.547 73.9408 306.06 73.4153C304.654 71.6888 304.654 71.6888 306.228 70.227C308.692 67.9874 311.063 65.5415 313.33 63.1424C313.592 62.8987 313.855 62.6551 314.014 62.4583Z" fill="#001066"/>
<path fill-rule="evenodd" clip-rule="evenodd" d="M257.581 60.2875C256.834 60.617 256.216 61.1638 255.503 61.6498C255.068 61.91 255.076 62.3184 255.335 62.7532C255.932 64.3439 257.119 65.6398 258.089 67.0658C259.38 68.831 260.983 70.527 262.491 72.162C263.037 72.7795 263.35 72.7103 263.907 72.259C265.543 70.7485 265.543 70.7485 264.191 69.0789C262.068 66.5134 260.067 63.757 258.162 61.0614C257.936 60.7831 257.711 60.5049 257.581 60.2875Z" fill="#001066"/>
<path fill-rule="evenodd" clip-rule="evenodd" d="M289.465 56.0631C288.686 55.818 287.861 55.8219 287.004 55.7171C286.506 55.6261 286.242 55.9384 286.151 56.4365C285.55 58.0256 285.589 59.7828 285.378 61.4945C285.185 63.6726 285.272 66.005 285.328 68.2286C285.331 69.0528 285.612 69.207 286.328 69.2347C288.554 69.1775 288.554 69.1775 288.639 67.031C288.734 63.7025 289.047 60.3107 289.391 57.0277C289.405 56.6699 289.419 56.3122 289.465 56.0631Z" fill="#001066"/>
<path fill-rule="evenodd" clip-rule="evenodd" d="M329.994 80.3953C330.26 80.1565 330.409 80.2156 330.544 80.5277C330.589 80.6318 330.783 80.7949 330.828 80.8989C331.949 82.6368 331.994 82.7408 330.407 83.9205C327.871 85.7573 325.187 87.5351 322.651 89.372C322.28 89.6557 322.027 89.6415 321.788 89.3743C321.176 88.5278 320.459 87.7263 319.847 86.8798C319.563 86.5086 319.622 86.3597 319.993 86.076C323.242 84.1777 326.492 82.2794 329.637 80.426C329.786 80.4851 329.89 80.4402 329.994 80.3953Z" fill="#001066"/>
<path fill-rule="evenodd" clip-rule="evenodd" d="M237.09 75.3272C236.841 75.0695 236.688 75.1176 236.531 75.419C236.478 75.5195 236.273 75.668 236.221 75.7685C234.976 77.4198 234.923 77.5203 236.42 78.8127C238.815 80.8299 241.362 82.7991 243.757 84.8163C244.106 85.1263 244.359 85.1306 244.617 84.8816C245.29 84.0822 246.063 83.3351 246.736 82.5356C247.046 82.1862 246.998 82.0333 246.649 81.7233C243.547 79.5927 240.445 77.4621 237.443 75.3838C237.29 75.4319 237.19 75.3795 237.09 75.3272Z" fill="#001066"/>
<path fill-rule="evenodd" clip-rule="evenodd" d="M335.983 104.167C333.284 104.811 330.493 104.996 327.751 105.284C327.649 105.332 327.293 105.374 327.245 105.272C326.913 104.3 327.238 103.396 327.16 102.431C327.124 101.822 327.678 101.937 328.034 101.895C330.878 101.559 333.723 101.223 336.519 100.784C337.127 100.748 337.326 100.905 337.363 101.514C337.308 101.665 337.405 101.87 337.453 101.973C337.616 103.649 337.616 103.649 335.983 104.167Z" fill="#001066"/>
<path fill-rule="evenodd" clip-rule="evenodd" d="M229.019 100.573C231.632 101.508 234.386 101.998 237.08 102.584C237.176 102.643 237.525 102.724 237.584 102.627C238.02 101.698 237.796 100.764 237.98 99.8131C238.082 99.2116 237.519 99.2651 237.17 99.1845C234.379 98.5391 231.589 97.8938 228.857 97.1518C228.256 97.0496 228.041 97.1838 227.938 97.7853C227.976 97.9411 227.857 98.1344 227.798 98.2311C227.453 99.8798 227.453 99.8798 229.019 100.573Z" fill="#001066"/>
<path d="M182.425 47.8016C182.225 46.4016 181.925 44.8016 181.125 43.3016C180.425 41.8016 179.225 40.4016 177.725 39.3016C176.225 38.2016 174.425 37.6016 172.525 37.4016C170.625 37.3016 168.725 37.6016 166.925 38.3016C165.125 39.0016 163.525 40.2016 162.325 41.7016C159.825 44.6016 158.825 48.4016 159.025 51.9016C159.225 55.4016 160.925 58.8016 163.425 60.9016C166.025 63.1016 169.325 64.1016 172.425 63.8016C174.025 63.7016 175.525 63.1016 176.725 62.3016C178.025 61.5016 179.025 60.4016 179.825 59.3016C181.325 57.0016 182.125 54.5016 182.325 51.9016C182.625 50.6016 182.625 49.3016 182.425 47.8016Z" fill="white"/>
<path opacity="0.5" d="M108.692 58.5908C109.528 59.7311 110.547 61.0007 111.96 61.9463C113.284 62.9391 115.003 63.6079 116.844 63.8708C118.686 64.1336 120.556 63.814 122.326 63.0946C124.048 62.287 125.583 61.1266 126.84 59.6606C128.097 58.1946 128.942 56.382 129.293 54.4934C130.131 50.7572 129.221 46.9346 127.394 43.9424C125.568 40.9501 122.466 38.7533 119.271 38.08C115.941 37.3658 112.559 38.0398 109.967 39.766C108.603 40.6085 107.563 41.8449 106.882 43.1162C106.113 44.4346 105.749 45.8762 105.562 47.2234C105.324 49.9589 105.797 52.5408 106.847 54.928C107.195 56.2159 107.808 57.3623 108.692 58.5908Z" fill="white"/>
<path opacity="0.2" d="M75.574 49.6973C75.6001 48.2833 75.5594 46.6559 75.0092 45.0474C74.5577 43.4549 73.5966 41.8813 72.2915 40.5559C70.9864 39.2305 69.3053 38.3507 67.4616 37.8499C65.6019 37.4478 63.6784 37.4406 61.7897 37.8442C59.9011 38.2478 58.13 39.177 56.7059 40.4661C53.7749 42.9297 52.181 46.5213 51.8195 50.0083C51.4581 53.4953 52.5934 57.1232 54.726 59.5954C56.9414 62.1823 60.0394 63.6964 63.1475 63.8953C64.743 64.052 66.3195 63.6992 67.6319 63.1011C69.0429 62.5189 70.2057 61.5927 71.1711 60.6346C73.0191 58.6036 74.208 56.2634 74.8206 53.7287C75.3243 52.4933 75.5319 51.21 75.574 49.6973Z" fill="white"/>
<defs>
<clipPath id="clip0">
<rect width="66.7" height="79.1" fill="white" transform="translate(250 77)"/>
</clipPath>
</defs>
</svg>
