<svg width="287" height="128" viewBox="0 0 287 128" fill="none" xmlns="http://www.w3.org/2000/svg">
<path d="M0.207031 0.544922H144.254C166.33 0.544922 184.225 18.4406 184.225 40.5161C184.225 62.5916 166.33 80.4873 144.254 80.4873H48.0466C21.6255 80.4873 0.207031 59.0688 0.207031 32.6478V0.544922Z" fill="#001066"/>
<path d="M135.959 88.7834C135.959 67.1245 153.517 49.5664 175.176 49.5664H238.954C265.375 49.5664 286.794 70.9849 286.794 97.4059V128H175.176C153.517 128 135.959 110.442 135.959 88.7834Z" fill="#FFF3DF"/>
<g clip-path="url(#clip0)">
<path fill-rule="evenodd" clip-rule="evenodd" d="M203.684 115.934C206.399 116.085 209.34 115.481 212.206 115.104C214.393 114.802 216.505 114.576 218.692 114.35C219.672 114.275 220.652 114.124 221.633 113.822C224.8 112.842 228.043 112.691 231.286 112.615C233.172 112.54 235.057 112.389 236.867 112.842C237.093 112.917 237.244 112.917 237.471 112.917C238.149 113.068 238.602 113.37 238.376 114.124C238.225 114.652 237.697 115.104 237.093 115.104C235.661 114.953 234.152 114.953 232.719 115.029C228.496 115.104 224.273 115.632 220.125 116.462C217.108 117.065 214.091 117.517 211.075 117.895C207.605 118.272 204.061 118.347 200.591 118.347C198.781 118.347 196.971 117.97 195.161 117.97C194.106 117.97 193.201 117.291 192.371 116.688C189.505 114.576 188.977 109.9 190.335 107.562C190.561 107.11 190.636 106.884 190.259 106.582C188.525 105.526 188.751 103.792 189.053 102.208C189.203 101.303 189.731 100.473 190.259 99.7944C190.486 99.4928 190.561 99.2665 190.108 99.0403C189.053 98.5877 188.751 97.6073 188.751 96.5515C188.751 94.9677 189.279 93.5348 190.561 92.4789C191.013 92.1019 191.466 91.7248 191.919 91.4231C192.296 91.1214 192.22 90.8952 191.994 90.5935C191.541 89.8393 191.013 89.1606 190.636 88.331C189.731 86.4456 190.259 85.6914 191.768 84.4093C193.05 83.3535 194.558 83.1272 196.142 83.0518C199.611 82.8255 203.08 83.2026 206.549 83.278C208.284 83.278 210.019 83.5043 211.829 83.278C212.583 83.2026 212.507 82.9009 212.357 82.373C211.829 80.3368 211.225 78.2251 210.697 76.1888C209.943 73.3984 209.717 70.5325 209.34 67.6667C209.114 66.0075 209.415 64.4237 209.717 62.9154C210.019 61.5579 210.924 60.4266 211.753 59.3707C212.206 58.8428 212.885 58.5412 213.714 58.7674C214.468 58.9937 215.222 59.2953 215.826 59.6724C216.505 60.0495 216.655 60.8791 216.882 61.4824C218.541 65.7812 219.823 70.08 221.331 74.3788C222.613 78.0742 224.046 81.7697 226.007 85.088C226.988 86.7472 227.968 88.4818 229.25 89.9902C229.778 90.5935 230.381 90.8198 231.06 91.046C233.247 91.6494 235.359 92.3281 237.546 92.7052C238.451 92.856 238.903 93.4594 238.828 94.0627C238.677 94.5906 237.697 95.2694 237.018 95.1186C235.133 94.7415 233.172 94.289 231.286 94.0627C229.024 93.761 227.742 92.3281 226.61 90.5935C225.027 88.2556 223.895 85.616 222.538 83.2026C220.803 80.1105 219.823 76.6413 218.692 73.2475C217.862 70.7588 216.731 68.3454 216.127 65.7058C215.826 64.2729 215.373 62.9908 214.77 61.6333C214.317 60.6528 213.488 60.5774 212.809 61.4824C211.904 62.6891 211.753 64.1975 211.678 65.6304C211.602 68.8733 212.13 72.1163 212.809 75.2838C213.262 77.3955 213.94 79.5072 214.695 81.5434C214.921 82.1468 215.072 82.8255 215.222 83.5043C215.373 84.3339 214.996 85.0126 214.167 85.2389C212.206 85.7668 210.245 85.8422 208.209 85.8422C207.982 85.8422 207.681 85.6914 207.454 85.9931C207.304 86.2947 207.53 86.521 207.681 86.7472C207.907 87.1243 208.133 87.426 208.359 87.8031C209.189 88.9343 209.189 90.2164 208.284 91.2723C208.133 91.4985 207.907 91.7248 207.756 91.951C207.379 92.3281 207.454 92.6298 207.756 93.0823C208.586 94.2135 209.114 95.4202 209.415 96.8531C209.717 98.2861 209.264 99.3419 207.982 100.096C207.53 100.322 207.605 100.473 207.907 100.775C208.586 101.529 209.114 102.283 209.264 103.339C209.415 104.546 209.038 105.526 208.359 106.431C207.982 106.959 207.605 107.487 207.756 108.241C207.907 109.071 207.907 109.9 207.681 110.73C207.454 111.56 207.002 112.087 206.172 112.238C203.231 112.766 200.29 113.068 197.349 113.294C196.896 113.294 196.444 113.219 196.066 113.143C195.765 113.068 195.539 112.992 195.463 112.615C195.388 112.314 195.614 112.163 195.84 112.012C196.821 111.56 197.952 111.56 199.008 111.409C200.818 111.182 202.628 110.956 204.438 110.73C204.966 110.655 205.494 110.579 205.644 109.9C205.795 109.297 205.494 108.92 205.117 108.543C204.589 108.09 204.061 107.789 203.382 107.562C200.214 106.582 196.971 106.884 193.804 107.487C194.03 107.562 193.955 107.638 193.879 107.638C192.22 107.864 191.617 108.845 191.617 110.504C191.617 112.163 192.446 113.445 193.351 114.652C193.729 115.18 194.332 115.18 194.86 115.33C197.726 115.783 200.516 116.009 203.684 115.934ZM203.08 98.4369C203.08 98.5123 203.08 98.5877 203.08 98.6632C204.212 98.7386 205.343 98.814 206.399 98.814C207.077 98.814 207.756 98.6632 208.058 97.909C208.435 96.7023 206.851 93.6102 205.343 93.3085C204.061 93.0823 202.854 92.7806 201.572 92.7052C199.536 92.6298 197.499 92.5544 195.539 92.4035C193.578 92.2527 191.391 93.5348 190.712 95.2694C190.486 95.8727 190.561 96.4006 190.938 96.8531C191.843 97.909 193.05 98.4369 194.407 98.4369C197.349 98.4369 200.214 98.4369 203.08 98.4369ZM207.304 103.565C207.304 102.057 206.776 101.378 204.966 100.926C202.402 100.322 199.762 100.549 197.122 100.549C195.916 100.549 194.709 100.624 193.502 100.926C192.522 101.152 191.692 101.604 191.013 102.359C190.863 102.585 190.712 102.811 190.712 103.037C190.636 104.395 192.145 105.979 193.502 105.526C194.03 105.375 194.634 105.375 195.161 105.375C198.781 105.074 202.402 105.224 206.022 106.129C206.323 106.205 206.625 106.28 206.776 105.903C207.077 105.149 207.304 104.546 207.304 103.565ZM197.952 85.616C197.952 85.5406 197.952 85.5406 197.952 85.4651C197.198 85.4651 196.519 85.4651 195.765 85.4651C194.935 85.4651 194.256 85.6914 193.578 86.2193C192.296 87.1997 192.446 88.6327 193.955 89.3114C195.388 89.9902 196.971 90.3673 198.48 90.7443C200.893 91.1968 203.307 91.1214 205.72 90.4427C206.776 90.141 207.077 89.236 206.399 88.331C206.172 88.0293 205.795 87.7277 205.569 87.426C204.815 86.2947 203.684 85.8422 202.402 85.7668C200.893 85.5406 199.46 85.616 197.952 85.616Z" fill="#001066"/>
</g>
<path fill-rule="evenodd" clip-rule="evenodd" d="M237.028 47.649C237.551 47.9747 237.954 48.4488 238.435 48.8877C238.732 49.1283 238.682 49.4324 238.442 49.7293C237.827 50.8534 236.803 51.6943 235.926 52.6555C234.775 53.8358 233.397 54.9311 232.096 55.9911C231.623 56.3939 231.397 56.3088 231.029 55.9125C229.969 54.6104 229.969 54.6104 231.156 53.508C233.015 51.8189 234.802 49.9743 236.512 48.1649C236.71 47.9812 236.908 47.7974 237.028 47.649Z" fill="#001066"/>
<path fill-rule="evenodd" clip-rule="evenodd" d="M194.469 46.0117C193.905 46.2602 193.439 46.6726 192.901 47.0391C192.573 47.2354 192.579 47.5434 192.775 47.8712C193.224 49.0709 194.12 50.0482 194.852 51.1237C195.825 52.455 197.034 53.734 198.172 54.9671C198.583 55.4328 198.819 55.3806 199.239 55.0403C200.473 53.9011 200.473 53.9011 199.453 52.6419C197.852 50.7071 196.343 48.6283 194.906 46.5954C194.736 46.3855 194.566 46.1756 194.469 46.0117Z" fill="#001066"/>
<path fill-rule="evenodd" clip-rule="evenodd" d="M218.513 42.826C217.926 42.6411 217.303 42.6441 216.657 42.565C216.281 42.4965 216.083 42.732 216.014 43.1076C215.561 44.3061 215.59 45.6313 215.431 46.9222C215.285 48.5649 215.351 50.3239 215.393 52.0009C215.396 52.6225 215.608 52.7388 216.148 52.7597C217.827 52.7166 217.826 52.7166 217.89 51.0977C217.962 48.5874 218.198 46.0294 218.458 43.5535C218.468 43.2836 218.479 43.0138 218.513 42.826Z" fill="#001066"/>
<path fill-rule="evenodd" clip-rule="evenodd" d="M249.079 61.1766C249.28 60.9965 249.393 61.0411 249.494 61.2764C249.528 61.3549 249.675 61.4779 249.708 61.5564C250.554 62.867 250.588 62.9455 249.391 63.8352C247.479 65.2205 245.454 66.5612 243.541 67.9465C243.262 68.1605 243.071 68.1498 242.891 67.9483C242.429 67.3099 241.889 66.7054 241.427 66.067C241.213 65.7871 241.257 65.6747 241.537 65.4608C243.987 64.0291 246.438 62.5975 248.81 61.1997C248.922 61.2443 249.001 61.2104 249.079 61.1766Z" fill="#001066"/>
<path fill-rule="evenodd" clip-rule="evenodd" d="M179.015 57.3536C178.828 57.1593 178.713 57.1956 178.594 57.4229C178.554 57.4987 178.4 57.6107 178.36 57.6865C177.421 58.9318 177.381 59.0076 178.51 59.9823C180.316 61.5037 182.238 62.9887 184.044 64.5101C184.307 64.7439 184.498 64.7471 184.692 64.5593C185.2 63.9564 185.783 63.393 186.29 62.7901C186.524 62.5265 186.488 62.4112 186.225 62.1774C183.885 60.5706 181.546 58.9637 179.282 57.3964C179.167 57.4326 179.091 57.3931 179.015 57.3536Z" fill="#001066"/>
<path fill-rule="evenodd" clip-rule="evenodd" d="M253.597 79.1054C251.56 79.5909 249.456 79.7306 247.388 79.9478C247.311 79.9841 247.043 80.0158 247.006 79.9384C246.756 79.206 247.001 78.5239 246.942 77.7961C246.915 77.3367 247.333 77.4234 247.601 77.3917C249.746 77.1382 251.892 76.8848 254 76.554C254.459 76.527 254.609 76.6453 254.637 77.1047C254.596 77.2184 254.669 77.3731 254.705 77.4504C254.828 78.715 254.828 78.715 253.597 79.1054Z" fill="#001066"/>
<path fill-rule="evenodd" clip-rule="evenodd" d="M172.928 76.3946C174.899 77.1 176.975 77.4692 179.007 77.9113C179.08 77.9559 179.343 78.0167 179.387 77.9438C179.716 77.2432 179.547 76.5383 179.686 75.8214C179.763 75.3678 179.338 75.4081 179.075 75.3473C176.97 74.8606 174.866 74.3739 172.806 73.8143C172.352 73.7372 172.19 73.8384 172.113 74.2921C172.141 74.4096 172.052 74.5554 172.007 74.6282C171.746 75.8717 171.746 75.8717 172.928 76.3946Z" fill="#001066"/>
<path d="M137.786 36.5929C137.636 35.5371 137.409 34.3304 136.806 33.1991C136.278 32.0679 135.373 31.012 134.242 30.1824C133.111 29.3528 131.753 28.9003 130.32 28.7495C128.887 28.6741 127.454 28.9003 126.097 29.4282C124.739 29.9562 123.533 30.8612 122.628 31.9924C120.742 34.1795 119.988 37.0454 120.139 39.685C120.29 42.3246 121.572 44.8888 123.457 46.4726C125.418 48.1317 127.907 48.8859 130.245 48.6597C131.451 48.5842 132.583 48.1317 133.488 47.5284C134.468 46.9251 135.222 46.0955 135.826 45.2659C136.957 43.5313 137.56 41.6459 137.711 39.685C137.937 38.7046 137.937 37.7242 137.786 36.5929Z" fill="white"/>
<path opacity="0.5" d="M82.1796 44.7331C82.8105 45.5931 83.5789 46.5506 84.6444 47.2637C85.6433 48.0124 86.9392 48.5169 88.328 48.7151C89.7167 48.9133 91.1273 48.6723 92.462 48.1297C93.7613 47.5206 94.9182 46.6455 95.8665 45.5399C96.8147 44.4343 97.4522 43.0672 97.7169 41.6429C98.3484 38.8252 97.6623 35.9423 96.2848 33.6856C94.9072 31.4289 92.5676 29.7721 90.1581 29.2644C87.6466 28.7257 85.0963 29.2341 83.1412 30.5359C82.1126 31.1713 81.3283 32.1038 80.8147 33.0625C80.2345 34.0569 79.9606 35.144 79.8197 36.1601C79.6399 38.2232 79.9968 40.1703 80.7883 41.9707C81.051 42.942 81.5132 43.8066 82.1796 44.7331Z" fill="white"/>
<path opacity="0.2" d="M57.2027 38.0239C57.2223 36.9575 57.1917 35.7302 56.7767 34.5171C56.4362 33.316 55.7114 32.1292 54.7271 31.1297C53.7428 30.1301 52.475 29.4666 51.0845 29.0889C49.682 28.7857 48.2313 28.7802 46.807 29.0846C45.3826 29.389 44.0469 30.0897 42.9728 31.062C40.7624 32.92 39.5603 35.6286 39.2877 38.2584C39.0151 40.8883 39.8713 43.6243 41.4797 45.4888C43.1505 47.4398 45.4869 48.5816 47.831 48.7316C49.0342 48.8498 50.2232 48.5838 51.2129 48.1327C52.2771 47.6936 53.1541 46.9951 53.8821 46.2725C55.2758 44.7408 56.1725 42.9759 56.6345 41.0643C57.0144 40.1325 57.1709 39.1647 57.2027 38.0239Z" fill="white"/>
<defs>
<clipPath id="clip0">
<rect width="50.3033" height="59.6551" fill="white" transform="translate(188.751 58.6152)"/>
</clipPath>
</defs>
</svg>
