<svg width="50" height="50" viewBox="0 0 50 50" fill="none" xmlns="http://www.w3.org/2000/svg">
<path d="M8 7.5L2.5 8.5L1 11L2 41L4 43.1875H39.5L48 27L48.5 23.5L41 22L39.5 13H20L15.5 7.5H8Z" fill="white"/>
<path d="M11.3502 18H40.5V23L11 23.5L2 40V30L5.8958 21.5001C6.87329 19.3674 9.00414 18 11.3502 18Z" fill="#001064"/>
<path d="M49.4179 23.1926C48.6588 21.9666 47.316 21.2349 45.826 21.2349H42.1066V14.4123C42.1066 12.7655 40.7173 11.4262 39.0099 11.4262H20.8027C20.776 11.4262 20.7581 11.4185 20.7508 11.414L17.4923 6.85654C16.9144 6.04858 15.9615 5.56641 14.9429 5.56641H3.09677C1.38893 5.56641 0 6.90613 0 8.55255V41.2819C0 42.9672 1.42288 44.3386 3.1723 44.3386H40.0242C40.5983 44.3386 41.0942 44.0071 41.3342 43.5261L41.3353 43.5265L49.5934 26.9405C50.1923 25.7385 50.1263 24.3374 49.4179 23.1926ZM3.09677 8.49609H14.9429C15.0307 8.49609 15.0902 8.53462 15.1089 8.56094L18.3723 13.1248C18.9232 13.8954 19.8318 14.3559 20.8027 14.3559H39.0099C39.1121 14.3559 39.164 14.4039 39.1769 14.4211V21.2349H12.6659C11.0218 21.2349 9.52644 22.1615 8.8562 23.5958L2.92969 36.2785V8.56133C2.94266 8.54416 2.99454 8.49609 3.09677 8.49609ZM46.9707 25.6348L39.1171 41.4085H3.76625L11.5105 24.8364C11.6982 24.4347 12.1628 24.1646 12.6659 24.1646H45.826C46.294 24.1646 46.7056 24.3778 46.9269 24.7349C47.0512 24.9359 47.1596 25.2552 46.9707 25.6348Z" fill="#001064"/>
</svg>
