<svg width="34" height="40" viewBox="0 0 34 40" fill="none" xmlns="http://www.w3.org/2000/svg">
<path d="M24.5655 4.7998H7.65108C6.96668 4.7998 6.39961 5.34574 6.39961 6.01299V38.7866C6.39961 39.4539 6.94713 39.9998 7.65108 39.9998H32.3481C33.0325 39.9998 33.5996 39.4539 33.5996 38.7866V11.6948C33.5996 11.3712 33.4627 11.0679 33.2281 10.8455L27.3813 5.16376C27.1467 4.94134 26.8338 4.82002 26.5014 4.82002L24.5655 4.7998Z" fill="#001064"/>
<path d="M18.9659 0.799805H2.05148C1.36707 0.799805 0.800001 1.33333 0.800001 1.98542V34.0142C0.800001 34.6663 1.34752 35.1998 2.05148 35.1998H26.7485C27.4329 35.1998 28 34.6663 28 34.0142V7.53805C28 7.22189 27.8631 6.92548 27.6285 6.70812L21.7817 1.15549C21.5471 0.938126 21.2342 0.819565 20.9018 0.819565L18.9659 0.799805Z" fill="white"/>
<path fill-rule="evenodd" clip-rule="evenodd" d="M19.4891 0H2.12846C1.01362 0 -0.000391006 0.853065 -0.000391006 2.0139V33.9861C-0.000391006 35.1388 0.984705 36 2.12846 36H27.4708C28.5856 36 29.5996 35.1469 29.5996 33.9861V7.55673C29.5996 6.9943 29.3491 6.48289 28.9488 6.12009L22.9488 0.576805L22.945 0.573318C22.5405 0.208785 22.0141 0.0208319 21.476 0.0197307L19.4891 0ZM19.4806 1.66076L21.467 1.68049H21.4713C21.6121 1.68049 21.7248 1.72802 21.8006 1.79506L27.799 7.33689L27.8029 7.34038C27.8816 7.4113 27.9102 7.48999 27.9102 7.55673V33.9861C27.9102 34.1271 27.7605 34.3392 27.4708 34.3392H2.12846C1.82753 34.3392 1.68898 34.1353 1.68898 33.9861V2.0139C1.68898 1.87286 1.83874 1.66076 2.12846 1.66076H19.4806Z" fill="#001066"/>
<path d="M22.4179 0.799805L22.3988 5.9198C22.3988 6.6198 22.9703 7.1998 23.6941 7.1998H28.7988" fill="#001C63"/>
</svg>
