<svg width="40" height="48" viewBox="0 0 40 48" fill="none" xmlns="http://www.w3.org/2000/svg">
<path d="M29.2451 5.75977H9.1089C8.29414 5.75977 7.61905 6.41489 7.61905 7.21559V46.5439C7.61905 47.3446 8.27086 47.9998 9.1089 47.9998H38.5102C39.3249 47.9998 40 47.3446 40 46.5439V14.0337C40 13.6455 39.837 13.2815 39.5577 13.0146L32.5973 6.19651C32.318 5.92961 31.9455 5.78403 31.5498 5.78403L29.2451 5.75977Z" fill="#001064"/>
<path d="M22.9756 1H2.83937C2.02461 1 1.34952 1.64023 1.34952 2.42274V40.8573C1.34952 41.6398 2.00133 42.28 2.83937 42.28H32.2406C33.0554 42.28 33.7305 41.6398 33.7305 40.8573V9.0859C33.7305 8.7065 33.5675 8.35081 33.2882 8.08998L26.3278 1.42682C26.0484 1.16599 25.676 1.02371 25.2802 1.02371L22.9756 1Z" fill="white"/>
<path fill-rule="evenodd" clip-rule="evenodd" d="M23.2019 0H2.53453C1.20734 0 0.00018692 1.02368 0.00018692 2.41668V40.7833C0.00018692 42.1665 1.17292 43.2 2.53453 43.2H32.7039C34.0311 43.2 35.2383 42.1763 35.2383 40.7833V9.06807C35.2383 8.39316 34.9401 7.77947 34.4635 7.34411L27.3207 0.692165L27.3161 0.687982C26.8345 0.250542 26.2079 0.0249982 25.5674 0.0236768L23.2019 0ZM23.1918 1.99291L25.5566 2.01658H25.5617C25.7293 2.01658 25.8635 2.07362 25.9538 2.15407L33.0948 8.80427L33.0994 8.80846C33.193 8.89356 33.2271 8.98799 33.2271 9.06807V40.7833C33.2271 40.9526 33.0488 41.2071 32.7039 41.2071H2.53453C2.17628 41.2071 2.01134 40.9624 2.01134 40.7833V2.41668C2.01134 2.24744 2.18963 1.99291 2.53453 1.99291H23.1918Z" fill="#001066"/>
<path d="M26.6888 0.960938L26.6661 7.10494C26.6661 7.94494 27.3464 8.64094 28.2081 8.64094H34.2852" fill="#001C63"/>
<path d="M23.75 17.3333H22.625V15.2381C22.625 12.3467 20.105 10 17 10C13.895 10 11.375 12.3467 11.375 15.2381V17.3333H10.25C9.0125 17.3333 8 18.2762 8 19.4286V29.9048C8 31.0571 9.0125 32 10.25 32H23.75C24.9875 32 26 31.0571 26 29.9048V19.4286C26 18.2762 24.9875 17.3333 23.75 17.3333ZM17 26.7619C15.7625 26.7619 14.75 25.819 14.75 24.6667C14.75 23.5143 15.7625 22.5714 17 22.5714C18.2375 22.5714 19.25 23.5143 19.25 24.6667C19.25 25.819 18.2375 26.7619 17 26.7619ZM20.4875 17.3333H13.5125V15.2381C13.5125 13.4467 15.0763 11.9905 17 11.9905C18.9237 11.9905 20.4875 13.4467 20.4875 15.2381V17.3333Z" fill="#55DBA4"/>
</svg>
