<svg width="432" height="400" viewBox="0 0 432 400" fill="none" xmlns="http://www.w3.org/2000/svg">
<rect x="193.557" y="113.309" width="117.555" height="155.904" rx="40.6363" transform="rotate(6.07133 193.557 113.309)" fill="#D3ECFF"/>
<path d="M243.908 177.537C243.464 177.481 243.034 177.314 242.729 177.05C241.815 176.258 241.761 174.898 242.554 173.984C248.223 167.486 256.677 163.933 265.194 164.333C273.822 164.748 281.834 169.143 286.818 176.087C287.483 177.073 287.315 178.404 286.315 179.18C285.329 179.844 283.997 179.676 283.222 178.676C279.11 172.857 272.04 169.032 264.98 168.703C257.808 168.36 250.534 171.498 245.796 176.874C245.282 177.373 244.574 177.621 243.908 177.537Z" fill="#001064"/>
<path d="M222.828 230.11C221.386 229.928 219.985 229.412 218.849 228.592C216.063 226.549 214.39 222.842 214.451 218.792C214.428 215.407 215.515 212.162 216.56 209.25L223.04 189.214C224.489 184.887 226.105 180.131 225.098 175.607C224.065 170.404 219.285 166.304 213.931 165.853C208.674 165.526 203.383 169.028 201.628 173.992C201.252 175.185 199.947 175.696 198.865 175.334C197.673 174.957 197.162 173.653 197.524 172.571C199.85 165.763 207.099 161.043 214.256 161.497C221.414 161.951 227.912 167.621 229.386 174.684C230.585 180.36 228.635 185.975 227.158 190.524L220.581 210.435C219.676 213.139 218.756 215.954 218.752 218.659C218.748 221.364 219.688 223.738 221.337 224.961C222.155 225.628 223.361 225.894 224.513 225.701C224.971 225.646 225.901 225.426 226.457 224.594C227.138 223.665 228.526 223.39 229.565 224.085C230.494 224.766 230.769 226.154 230.074 227.193C228.976 228.746 227.282 229.659 225.325 229.975C224.396 230.196 223.605 230.208 222.828 230.11Z" fill="#001064"/>
<path d="M228.379 257.53C218.948 256.337 209.964 252.496 202.62 246.381C201.705 245.589 201.541 244.215 202.333 243.301C203.125 242.386 204.499 242.222 205.413 243.014C212.868 249.143 222.31 252.93 231.937 253.471C241.564 254.012 251.361 251.418 259.471 246.13C260.457 245.466 261.885 245.759 262.439 246.731C263.103 247.717 262.81 249.145 261.838 249.699C252.993 255.457 242.265 258.272 231.625 257.715C230.599 257.811 229.489 257.671 228.379 257.53Z" fill="#001064"/>
<path d="M248.224 194.725C248.578 193.593 249.069 192.507 249.791 191.575C250.532 190.619 251.387 189.579 252.316 188.83C253.069 188.224 253.635 187.752 254.596 187.595C255.927 187.379 257.266 187.38 258.503 187.932C259.88 188.547 261.781 190.179 262.201 191.756C262.628 193.356 262.764 194.75 262.764 196.409" stroke="#001064" stroke-width="3.53359" stroke-linecap="round" stroke-linejoin="round"/>
<path d="M210.195 189.695C209.802 187.584 209.377 185.068 207.205 183.719C206.02 182.984 204.108 182.723 202.776 183.296C202.12 183.578 201.553 183.822 201.004 184.269C200.425 184.741 200.206 185.186 199.872 185.792C199.483 186.498 199.011 187.486 199.011 188.267" stroke="#001064" stroke-width="3.53359" stroke-linecap="round" stroke-linejoin="round"/>
<rect x="172.704" y="38.2344" width="117.336" height="117.336" rx="36.2193" transform="rotate(-10.9297 172.704 38.2344)" fill="#FFD9D1"/>
<path d="M231.333 104.709C227.723 105.406 223.952 105.27 220.391 104.23C219.468 103.928 218.919 103.073 219.111 102.076C222.094 87.1946 221.957 71.5711 218.691 56.6478C212.432 61.025 204.689 63.1922 197.002 62.6605C196.022 62.5616 195.271 61.6507 195.277 60.6893C195.376 59.7101 196.287 58.9581 197.248 58.9645C204.954 59.5888 212.717 57.0334 218.666 52.0441C219.168 51.6592 219.816 51.534 220.425 51.7045C221.034 51.8749 221.512 52.3588 221.637 53.0067C225.526 68.6736 226.027 85.187 223.13 101.012C227.414 101.817 232.096 101.201 235.936 99.2114C236.808 98.755 237.933 99.1138 238.39 99.9857C238.846 100.858 238.487 101.983 237.615 102.44C235.629 103.591 233.462 104.298 231.333 104.709Z" fill="#001064"/>
<path d="M253.102 53.3648L233.037 56.8554C232.019 57.052 231.118 56.362 230.921 55.3438C230.724 54.3256 231.397 53.3317 232.433 53.2277L252.405 49.755C253.423 49.5584 254.324 50.2484 254.521 51.2666C254.792 52.1743 254.12 53.1682 253.102 53.3648Z" fill="#001064"/>
<path d="M244.093 69.253C244.379 70.734 243.408 72.1696 241.927 72.4556C240.446 72.7416 239.01 71.7707 238.724 70.2897C238.438 68.8088 239.409 67.3731 240.89 67.0871C242.371 66.8011 243.807 67.7721 244.093 69.253Z" fill="#001064"/>
<path d="M215.028 74.8663C215.314 76.3473 214.344 77.7829 212.863 78.0689C211.382 78.3549 209.946 77.384 209.66 75.903C209.374 74.422 210.345 72.9864 211.826 72.7004C213.307 72.4144 214.742 73.3853 215.028 74.8663Z" fill="#001064"/>
<path d="M240.528 134.426C236.826 135.141 233.019 134.82 229.589 133.466C222.231 130.662 216.642 123.101 215.681 114.645C215.595 113.702 216.193 112.818 217.118 112.639L254.328 105.454C254.883 105.347 255.399 105.535 255.841 105.834C256.301 106.225 256.483 106.67 256.497 107.243C256.495 113.196 256.423 121.275 252.112 127.292C249.462 130.972 245.341 133.497 240.528 134.426ZM219.574 115.91C220.9 122.278 225.337 127.854 230.943 130.036C233.654 131.145 236.869 131.388 239.831 130.816C243.718 130.065 246.985 128.09 249.112 125.183C252.153 121.044 252.744 115.649 252.803 109.493L219.574 115.91Z" fill="#001064"/>
<circle cx="117.829" cy="54.854" r="48.4369" transform="rotate(-8.17089 117.829 54.854)" fill="#FFE9BE"/>
<path d="M129.116 66.7202C131.293 66.3356 133.763 65.981 135.869 64.5984C137.914 63.2965 139.817 60.5027 139.11 57.5797C138.432 54.8684 136.002 53.489 133.884 52.2808C133.491 52.0492 133.097 51.8176 132.785 51.6464C128.357 48.8975 125.319 43.7885 125.144 38.5566C124.938 33.113 127.929 27.8586 132.373 25.7082C137.019 23.4568 143.24 25.1561 145.703 29.2674C146.086 29.9325 146.913 30.1738 147.578 29.7903C148.243 29.4067 148.485 28.5799 148.101 27.9148C144.942 22.4632 137.148 20.3417 131.162 23.2896C125.71 25.9448 122.135 32.1472 122.362 38.74C122.608 44.97 125.979 50.8952 131.274 54.1678C131.668 54.3994 132.061 54.631 132.454 54.8625C134.26 55.8996 135.984 56.8762 136.348 58.4083C136.712 59.9404 135.584 61.6146 134.264 62.4523C132.612 63.4817 130.576 63.8461 128.6 64.1298C127.824 64.2412 127.35 64.9573 127.462 65.7335C127.694 66.3482 128.34 66.8317 129.116 66.7202Z" fill="#001064"/>
<path d="M91.0507 40.3557C91.6152 40.2746 92.0584 39.8509 92.1992 39.3266C93.2949 34.9204 97.1735 31.3389 101.599 30.5595C106.094 29.77 110.924 31.813 113.478 35.5512C113.932 36.2062 114.748 36.377 115.403 35.9229C116.058 35.4687 116.229 34.6521 115.775 33.9971C112.596 29.4125 106.616 26.8864 101.143 27.8883C95.6697 28.8903 90.9045 33.3192 89.5273 38.7741C89.3464 39.5202 89.8106 40.2457 90.5568 40.4266C90.6877 40.3358 90.839 40.3861 91.0507 40.3557Z" fill="#001064"/>
<path d="M107.96 49.0362C108.182 50.5886 109.645 51.7468 111.268 51.5138C112.82 51.2909 113.978 49.8284 113.745 48.2055C113.512 46.5826 112.06 45.4949 110.437 45.7279C108.814 45.9609 107.727 47.4133 107.96 49.0362Z" fill="#001064"/>
<path d="M140.832 47.2716C139.235 47.501 137.753 46.3918 137.524 44.794C137.295 43.1963 138.404 41.7151 140.002 41.4857C141.599 41.2563 143.081 42.3655 143.31 43.9633C143.539 45.561 142.43 47.0422 140.832 47.2716Z" fill="#001064"/>
<path d="M129.494 88.4144C138.526 87.1176 146.213 79.9646 148.253 71.102C148.394 70.5776 148.182 70.104 147.839 69.7211C147.435 69.419 146.911 69.2782 146.437 69.4903C134.172 73.8439 120.826 75.6882 107.881 74.8103C107.377 74.8106 106.903 75.0227 106.601 75.4261C106.299 75.8296 106.31 76.4042 106.522 76.8779C110.832 84.8287 120.392 89.7213 129.363 88.5052L129.494 88.4144ZM144.776 72.9694C142.261 79.5239 136.014 84.6697 129.099 85.6625L128.958 85.6828C121.963 86.6152 114.51 83.3644 110.313 77.7018C116.331 77.9899 122.329 77.6328 128.327 76.7716C133.982 76.0317 139.415 74.7475 144.776 72.9694Z" fill="#001064"/>
<circle cx="354.087" cy="147.086" r="69.2583" transform="rotate(6.90868 354.087 147.086)" fill="#E9FAF4"/>
<path d="M340.479 149.148C338.861 148.952 337.671 148.296 336.846 147.098C335.762 145.577 335.73 143.379 336.718 141.377C337.326 140.06 338.266 139.077 339.132 138.085C339.306 137.886 339.479 137.688 339.652 137.489C344.059 132.537 347.03 125.874 348.532 117.789C349.786 111.138 349.88 104.199 349.949 97.4771C345.079 98.8623 340.067 99.5718 334.914 99.6058C334.096 99.5798 333.495 98.995 333.444 98.1841C333.466 97.3821 334.06 96.7956 334.887 96.7494C340.334 96.7511 345.74 95.8699 350.874 94.151C351.342 93.9881 351.783 94.0416 352.198 94.3114C352.613 94.5811 352.781 95.0405 352.803 95.4819C352.785 103.015 352.742 110.764 351.383 118.281C349.82 126.87 346.576 133.939 341.896 139.297C341.723 139.496 341.549 139.694 341.376 139.893C340.601 140.75 339.825 141.607 339.344 142.5C338.945 143.329 338.723 144.546 339.297 145.347C340.317 146.787 342.996 146.234 345.087 145.61C345.866 145.338 346.631 145.797 346.921 146.49C347.201 147.256 346.737 148.004 346.031 148.285C343.776 149.036 342.023 149.335 340.479 149.148Z" fill="#001064"/>
<path d="M345.714 161.999C342.845 161.651 340.116 160.15 338.302 157.882C337.783 157.233 337.888 156.368 338.546 155.863C339.204 155.357 340.087 155.464 340.606 156.112C341.902 157.733 344.004 158.865 346.063 159.115C348.196 159.373 350.434 158.766 352.089 157.431C352.747 156.925 353.629 157.032 354.148 157.68C354.666 158.328 354.562 159.193 353.903 159.699C351.591 161.54 348.656 162.355 345.714 161.999Z" fill="#001064"/>
<path d="M361.466 133.621C360.216 133.47 358.762 133.147 357.608 132.203C355.04 129.989 356.044 126.014 356.448 124.527L359.291 113.386C359.982 110.763 360.928 107.878 363.556 106.514C365.223 105.692 367.153 105.78 368.551 105.949C368.845 105.985 369.065 106.011 369.36 106.047C372.955 106.556 376.515 107.353 380.05 108.366C382.424 109.093 385.223 110.017 387.566 111.618C390.252 113.48 392.049 115.892 392.617 118.595C393.233 121.522 392.424 124.497 391.695 126.823C391.047 129.085 390.031 132.547 387.277 134.334C384.77 135.933 381.875 135.801 378.786 135.427L361.99 133.611C361.76 133.657 361.613 133.639 361.466 133.621ZM368.21 108.761C367.107 108.627 365.847 108.548 364.886 109.089C363.293 109.921 362.663 112.039 362.116 114.094L359.273 125.235C358.591 127.786 358.701 129.336 359.579 130.1C360.124 130.532 360.998 130.711 361.88 130.818L362.395 130.881L379.191 132.696C381.692 132.999 384.063 133.14 385.765 132.03C387.54 130.928 388.27 128.602 389.017 126.132C389.656 123.942 390.329 121.463 389.856 119.211C389.421 117.256 388.077 115.411 386.01 113.99C383.944 112.569 381.577 111.77 379.268 111.125C375.954 110.138 372.467 109.35 369.019 108.859C368.725 108.823 368.431 108.787 368.21 108.761Z" fill="#001064"/>
<path d="M328.281 130.329C326.148 130.071 324.097 129.749 321.973 129.418C320.069 129.115 318.183 128.667 316.631 127.308C313.527 124.591 314.186 119.769 314.465 117.462C315.037 113.362 315.812 109.432 318.744 106.788C321.43 104.333 325.156 103.761 328.121 103.315C332.453 102.67 336.763 102.826 340.99 103.046L341.587 103.045C345.217 103.265 348.046 104.559 349.779 106.891C351.39 108.988 351.967 111.618 351.453 114.628C351.547 119.395 349.198 127.084 345.132 129.225C341.542 131.131 337.289 131.128 333.226 130.782C331.664 130.739 329.972 130.534 328.281 130.329ZM342.35 105.99C342.056 105.955 341.761 105.919 341.467 105.883L340.87 105.884C336.643 105.665 332.636 105.472 328.607 106.081C326.018 106.499 322.751 106.981 320.659 108.849C318.393 110.915 317.762 114.277 317.252 117.873C316.829 120.748 316.7 123.659 318.455 125.188C319.397 126.034 320.851 126.356 322.387 126.616C324.429 127.009 326.488 127.259 328.548 127.508C330.166 127.704 331.866 127.837 333.493 127.961C337.18 128.335 340.91 128.348 343.932 126.812C346.56 125.448 348.778 118.84 348.688 114.659C348.697 114.587 348.705 114.515 348.723 114.371C349.076 112.073 348.715 110.127 347.548 108.669C346.455 107.219 344.63 106.267 342.35 105.99Z" fill="#001064"/>
<path d="M349.796 118.451C349.134 118.371 348.671 117.876 348.521 117.273C348.387 116.525 348.925 115.785 349.76 115.667C352.798 115.231 355.978 115.47 358.933 116.34C359.724 116.582 360.152 117.365 359.909 118.141C359.666 118.916 358.869 119.331 358.077 119.089C355.555 118.345 352.743 118.15 350.164 118.496C350.025 118.406 349.943 118.469 349.796 118.451Z" fill="#001064"/>
<path d="M363.613 140.535C363.545 139.869 362.862 139.347 362.174 139.483C362.1 139.474 362.018 139.537 361.944 139.528C361.256 139.664 360.81 140.269 360.878 140.935C360.947 141.602 361.63 142.124 362.318 141.988C362.391 141.997 362.474 141.933 362.547 141.942C363.235 141.806 363.682 141.202 363.613 140.535Z" fill="#001064"/>
<path d="M361.998 142.169C361.409 142.098 360.8 141.585 360.722 140.991C360.589 140.243 361.118 139.576 361.888 139.376L362.118 139.331C362.274 139.277 362.421 139.295 362.494 139.303C363.083 139.375 363.692 139.888 363.769 140.482C363.903 141.23 363.374 141.897 362.604 142.097L362.374 142.142C362.218 142.196 362.071 142.178 361.998 142.169ZM362.45 139.664C362.377 139.655 362.23 139.637 362.148 139.7L361.918 139.746C361.304 139.891 360.948 140.36 361.025 140.954C361.12 141.405 361.518 141.819 361.959 141.872C362.033 141.881 362.18 141.899 362.262 141.836L362.491 141.79C363.106 141.645 363.461 141.176 363.384 140.582C363.363 140.14 362.892 139.717 362.45 139.664Z" fill="#001064"/>
<path d="M372.113 139.374C371.451 139.294 370.792 139.799 370.714 140.448L370.705 140.52C370.626 141.169 371.145 141.817 371.807 141.898C372.469 141.978 373.127 141.472 373.206 140.823L373.215 140.751C373.302 140.03 372.848 139.463 372.113 139.374Z" fill="#001064"/>
<path d="M371.79 142.04C370.981 141.942 370.397 141.213 370.493 140.42L370.502 140.348C370.598 139.555 371.339 138.986 372.148 139.084C372.957 139.183 373.54 139.912 373.444 140.705L373.435 140.777C373.331 141.642 372.599 142.138 371.79 142.04ZM372.095 139.517C371.507 139.446 370.931 139.888 370.861 140.465L370.852 140.537C370.782 141.114 371.236 141.681 371.825 141.752C372.413 141.823 372.989 141.381 373.059 140.804L373.068 140.732C373.138 140.155 372.684 139.588 372.095 139.517Z" fill="#001064"/>
<path d="M366.904 146.643C365.286 146.447 364.989 148.898 366.607 149.094C368.225 149.29 368.522 146.839 366.904 146.643Z" fill="#001064"/>
<path d="M366.59 149.239C365.707 149.132 365.28 148.349 365.367 147.628C365.411 147.267 365.602 146.925 365.849 146.735C366.104 146.473 366.489 146.374 366.931 146.427C367.813 146.534 368.241 147.317 368.153 148.038C368.11 148.399 367.919 148.742 367.672 148.931C367.417 149.193 367.031 149.292 366.59 149.239ZM366.887 146.788C366.593 146.752 366.281 146.861 366.043 146.978C365.87 147.176 365.696 147.375 365.661 147.663C365.6 148.168 365.825 148.78 366.56 148.87C366.854 148.905 367.166 148.797 367.404 148.679C367.577 148.481 367.751 148.282 367.786 147.994C367.847 147.489 367.549 146.868 366.887 146.788Z" fill="#001064"/>
<path d="M332.168 143.823C331.506 143.743 330.848 144.249 330.769 144.898L330.761 144.97C330.682 145.619 331.201 146.267 331.863 146.347C332.525 146.427 333.183 145.922 333.261 145.273L333.27 145.201C333.422 144.561 332.904 143.913 332.168 143.823Z" fill="#001064"/>
<path d="M331.837 146.564C331.027 146.466 330.444 145.737 330.54 144.944L330.549 144.872C330.645 144.079 331.386 143.51 332.195 143.608C333.004 143.706 333.587 144.435 333.491 145.228L333.482 145.3C333.386 146.093 332.646 146.662 331.837 146.564ZM332.142 144.041C331.554 143.969 330.978 144.412 330.908 144.988C330.838 145.565 331.292 146.132 331.88 146.203C332.469 146.275 333.045 145.832 333.115 145.256L333.123 145.184C333.193 144.607 332.731 144.112 332.142 144.041Z" fill="#001064"/>
<path d="M323.285 143.844L323.211 143.835C322.549 143.755 321.891 144.26 321.812 144.909C321.734 145.558 322.252 146.206 322.914 146.286L322.988 146.295C323.65 146.376 324.308 145.87 324.387 145.221C324.465 144.572 323.947 143.924 323.285 143.844Z" fill="#001064"/>
<path d="M322.971 146.438L322.897 146.429C322.088 146.331 321.505 145.602 321.601 144.809C321.697 144.016 322.437 143.447 323.246 143.545L323.32 143.554C324.129 143.652 324.712 144.381 324.616 145.175C324.447 145.959 323.78 146.536 322.971 146.438ZM323.194 143.978C322.606 143.907 322.03 144.349 321.96 144.926C321.89 145.503 322.344 146.07 322.932 146.141L323.005 146.15C323.594 146.221 324.17 145.779 324.24 145.202C324.31 144.625 323.856 144.058 323.268 143.987L323.194 143.978Z" fill="#001064"/>
<path d="M334.201 133.832C333.747 133.265 332.938 133.167 332.435 133.618L332.353 133.681C331.777 134.123 331.681 134.916 332.143 135.411C332.597 135.978 333.406 136.076 333.909 135.625L333.991 135.562C334.558 135.192 334.654 134.399 334.201 133.832Z" fill="#001064"/>
<path d="M332.956 136.093C332.588 136.048 332.238 135.86 331.979 135.536C331.525 134.969 331.638 134.031 332.223 133.517L332.305 133.454C332.881 133.011 333.838 133.127 334.365 133.703C334.624 134.027 334.728 134.406 334.684 134.766C334.64 135.127 334.449 135.469 334.12 135.722L334.038 135.785C333.709 136.038 333.324 136.138 332.956 136.093ZM333.335 133.579C333.041 133.543 332.738 133.579 332.565 133.778L332.482 133.841C331.989 134.22 331.91 134.869 332.299 135.355C332.623 135.76 333.359 135.849 333.844 135.542L333.926 135.479C334.173 135.289 334.272 135.082 334.307 134.794C334.342 134.505 334.23 134.199 334.101 134.037C333.915 133.722 333.629 133.614 333.335 133.579Z" fill="#001064"/>
<path d="M326.952 138.214C326.961 138.142 326.896 138.061 326.896 138.061C326.671 137.448 325.815 137.125 325.257 137.423C324.624 137.713 324.39 138.416 324.614 139.028C324.606 139.1 324.67 139.181 324.67 139.181C324.895 139.794 325.751 140.117 326.31 139.819C326.942 139.53 327.176 138.826 326.952 138.214Z" fill="#001064"/>
<path d="M325.604 140.101C325.089 140.038 324.609 139.687 324.441 139.228L324.385 139.075C324.104 138.309 324.421 137.543 325.136 137.191C325.374 137.073 325.603 137.028 325.897 137.064C326.412 137.126 326.892 137.477 327.06 137.936L327.116 138.089C327.397 138.855 327.08 139.621 326.366 139.973C326.128 140.091 325.898 140.136 325.604 140.101ZM325.845 137.496C325.624 137.469 325.468 137.524 325.313 137.578C324.763 137.804 324.537 138.435 324.77 138.975L324.826 139.128C324.938 139.435 325.28 139.696 325.721 139.749C325.942 139.776 326.098 139.721 326.253 139.667C326.803 139.441 327.029 138.81 326.796 138.27L326.74 138.117C326.563 137.729 326.286 137.55 325.845 137.496Z" fill="#001064"/>
<path d="M374.065 147.292C372.447 147.096 372.15 149.547 373.768 149.743C375.386 149.939 375.683 147.488 374.065 147.292Z" fill="#001064"/>
<path d="M373.75 149.887C372.868 149.78 372.44 148.997 372.527 148.276C372.571 147.916 372.762 147.573 373.009 147.383C373.264 147.122 373.65 147.022 374.091 147.076C374.973 147.183 375.401 147.966 375.314 148.687C375.27 149.047 375.079 149.39 374.832 149.58C374.577 149.841 374.191 149.941 373.75 149.887ZM374.047 147.436C373.753 147.4 373.441 147.509 373.203 147.626C373.03 147.825 372.857 148.023 372.822 148.312C372.76 148.816 372.985 149.429 373.72 149.518C374.014 149.554 374.326 149.445 374.564 149.328C374.738 149.129 374.911 148.931 374.946 148.642C375.007 148.138 374.783 147.525 374.047 147.436Z" fill="#001064"/>
<path d="M327.339 122.954C327.61 121.871 327.788 120.689 328.29 119.682C328.608 119.045 329.078 118.514 329.548 118C330.667 116.774 332.356 116.799 333.787 117.232C334.358 117.405 334.963 117.764 335.393 118.192C335.588 118.387 335.801 118.52 335.926 118.782C336.064 119.073 336.165 119.366 336.282 119.665C336.709 120.751 336.924 121.878 336.783 123.042" stroke="#001064" stroke-width="3.53359" stroke-linecap="round" stroke-linejoin="round"/>
<path d="M363.278 127.31C363.548 126.226 363.726 125.044 364.229 124.037C364.547 123.4 365.016 122.87 365.486 122.355C366.605 121.129 368.295 121.154 369.725 121.588C370.297 121.761 370.902 122.12 371.331 122.548C371.527 122.743 371.74 122.876 371.864 123.138C372.003 123.429 372.103 123.722 372.221 124.021C372.648 125.107 372.862 126.234 372.721 127.398" stroke="#001064" stroke-width="3.53359" stroke-linecap="round" stroke-linejoin="round"/>
<rect y="254" width="157.301" height="153.57" rx="26.5019" transform="rotate(-81.9715 0 254)" fill="#F3EEFF"/>
<g clip-path="url(#clip0)">
<path d="M101.467 146.626C101.093 146.706 100.605 146.712 100.262 146.489C90.4807 141.566 77.951 142.477 69.1252 148.726C68.2718 149.305 67.1403 149.054 66.4879 148.303C65.9086 147.439 66.1507 146.298 66.89 145.645C76.9228 138.641 90.9903 137.598 101.892 143.171C102.784 143.672 103.217 144.766 102.726 145.663C102.548 146.196 102.028 146.505 101.467 146.626Z" fill="#001064"/>
<path d="M109.756 210.083C106.697 210.229 103.756 208.819 102.289 206.178C101.765 205.235 102.097 204.154 103.03 203.625C103.963 203.097 105.033 203.433 105.557 204.377C106.504 206.171 109.217 206.817 111.374 205.843C113.436 204.873 115.055 202.666 115.778 199.727C116.505 196.885 116.358 193.793 116.215 190.799L114.997 165.199C114.768 160.369 114.487 154.476 116.925 149.325C119.098 144.671 123.435 141.173 128.455 139.966C133.475 138.759 138.892 139.857 142.971 143.051C143.768 143.691 143.919 144.846 143.287 145.651C142.654 146.455 141.512 146.606 140.715 145.967C137.532 143.504 133.18 142.646 129.394 143.6C125.512 144.56 122.099 147.336 120.453 150.997C118.452 155.255 118.7 160.472 118.921 165.109L120.139 190.709C120.286 193.8 120.456 197.374 119.561 200.709C118.506 204.729 116.164 207.842 113.069 209.248C111.945 209.785 110.807 210.033 109.756 210.083Z" fill="#001064"/>
<path d="M90.4786 177.403C88.2802 177.508 86.0771 177.516 84.0652 177.515L82.818 177.477C82.1489 177.509 81.4798 177.541 80.7106 177.481C76.8872 177.663 72.1989 177.789 69.3167 175.602C65.9381 173.052 65.9041 168.309 65.8802 165.793C65.8609 163.374 65.8361 158.824 68.9711 156.254C70.8138 154.714 73.1033 154.509 74.6326 154.436C75.3017 154.404 75.9708 154.372 76.6445 154.437C78.1785 154.461 79.808 154.48 81.4329 154.403C84.6874 154.345 88.0421 154.379 91.3104 154.611C92.0796 154.671 92.9399 154.63 93.9913 154.58C96.959 154.536 100.687 154.358 103 156.669C104.813 158.519 105.137 161.311 105.32 163.142C105.334 163.432 105.352 163.819 105.466 164.2C105.786 166.896 106.252 170.65 104.446 172.963C103.905 173.666 103.167 174.282 102.139 174.815C99.2448 176.406 95.5446 177.162 90.4786 177.403ZM74.9075 158.199C73.2825 158.276 72.1493 158.621 71.4122 159.237C69.847 160.57 69.6889 163.288 69.7128 165.804C69.7505 168.611 69.9793 171.407 71.5684 172.591C73.4535 173.953 77.5682 173.854 80.6269 173.709C81.4872 173.668 82.2519 173.631 82.9256 173.696L84.1728 173.734C86.1846 173.735 88.1965 173.736 90.395 173.631C94.8874 173.418 98.1144 172.78 100.544 171.503C101.104 171.185 101.382 170.979 101.564 170.776C102.373 169.673 102.035 166.591 101.852 164.76C101.834 164.373 101.72 163.991 101.702 163.605C101.523 161.871 101.354 160.33 100.448 159.404C99.3367 158.199 96.4692 158.335 94.1751 158.444C93.1237 158.494 92.0723 158.544 91.1072 158.396C87.9346 158.16 84.6755 158.122 81.5166 158.175C79.887 158.156 78.2621 158.233 76.6326 158.214C76.0591 158.241 75.481 158.172 74.9075 158.199Z" fill="#001064"/>
<path d="M117.002 167.042C116.811 167.051 116.524 167.065 116.328 166.977C112.245 165.719 110.16 166.206 105.991 167.178L104.667 167.532C103.625 167.775 102.637 167.144 102.395 166.091C102.153 165.037 102.777 164.039 103.819 163.796L105.143 163.443C109.503 162.461 112.343 161.745 117.497 163.339C118.471 163.68 118.999 164.72 118.758 165.7C118.413 166.491 117.767 167.006 117.002 167.042Z" fill="#001064"/>
<path d="M125.162 175.464C123.25 175.555 121.042 175.466 119.076 174.398C114.054 171.539 115.205 161.511 115.755 158.968C116.237 157.008 117.25 154.152 120.841 153.11C121.788 152.871 122.739 152.729 123.886 152.675C124.651 152.638 125.516 152.694 126.185 152.662C128.87 152.728 131.742 152.688 135.375 152.516C137 152.438 138.625 152.361 140.249 152.284L140.536 152.27C145.602 152.029 149.212 153.406 150.884 156.328C153.18 160.286 151.858 166.739 151.377 168.698C150.096 173.988 146.086 174.275 142.936 174.522L126.309 175.41C125.926 175.428 125.544 175.446 125.162 175.464ZM124.156 156.341C123.296 156.382 122.632 156.511 122.063 156.634C120.552 157.094 119.919 157.898 119.529 159.756C118.652 163.477 118.955 169.853 121.022 171.014C122.402 171.819 124.309 171.632 126.125 171.545L142.834 170.363C146.653 170.085 147.399 169.662 147.867 167.413C148.585 164.377 149.047 159.998 147.794 157.831C146.546 155.76 142.991 155.542 140.888 155.642L140.601 155.656C138.977 155.733 137.352 155.81 135.727 155.888C131.999 156.065 129.031 156.109 126.25 156.048C125.499 156.374 124.825 156.309 124.156 156.341Z" fill="#001064"/>
<path d="M49.067 168.82C48.9714 168.825 48.8758 168.829 48.7802 168.834C45.8943 168.584 43.467 165.891 43.3245 162.897C43.1049 160.293 44.5102 157.612 46.8262 155.953C48.6782 154.606 51.1404 154.005 53.8214 153.974C60.4397 154.143 67.6794 159.318 69.6894 165.322C70.0221 166.274 69.4991 167.364 68.5571 167.699C67.615 168.035 66.536 167.505 66.2033 166.553C64.7401 161.975 58.8938 157.896 53.814 157.847C52.4713 157.814 50.6597 157.997 49.0854 159.137C47.7885 160.07 47.0882 161.459 47.1479 162.715C47.2077 163.971 48.2187 165.084 49.2793 165.228C50.3399 165.371 51.0504 166.208 51.0053 167.276C50.7553 168.062 50.0228 168.775 49.067 168.82Z" fill="#001064"/>
<path d="M106.529 230.86C106.146 230.878 105.668 230.901 105.286 230.919C99.5325 230.806 94.0373 228.066 90.371 223.496C89.7562 222.654 89.8922 221.485 90.6293 220.869C91.462 220.249 92.6182 220.387 93.2285 221.133C96.0841 224.773 100.6 227.076 105.298 227.143C109.9 227.214 114.496 225.156 117.49 221.625C118.122 220.82 119.364 220.761 120.161 221.401C120.958 222.041 121.018 223.297 120.386 224.101C116.937 228.138 111.786 230.61 106.529 230.86Z" fill="#001064"/>
<path d="M129.304 163.746C130.477 161.215 132.361 157.552 135.235 158.763C135.653 158.939 136.048 159.152 136.475 159.304C136.758 159.405 137.03 159.557 137.256 159.794C137.688 160.245 138.234 160.643 138.599 161.176C138.947 161.686 139.301 162.517 139.333 163.196" stroke="#001064" stroke-width="3.97529" stroke-linecap="round" stroke-linejoin="round"/>
<path d="M85.8318 165.812C87.0039 163.281 88.8886 159.618 91.7626 160.83C92.1804 161.006 92.5758 161.218 93.0019 161.37C93.2852 161.471 93.5569 161.623 93.7833 161.86C94.2152 162.312 94.7616 162.709 95.1259 163.243C95.4744 163.753 95.8281 164.583 95.8604 165.262" stroke="#001064" stroke-width="3.97529" stroke-linecap="round" stroke-linejoin="round"/>
</g>
<path d="M307.662 366.877C307.75 366.824 307.857 366.753 307.928 366.7C309.293 366.381 310.64 366.079 312.006 365.76C316.757 364.661 323.672 362.427 323.264 356.31C323.069 353.526 321.066 351.239 318.583 350.104C315.303 348.597 311.74 349.271 308.371 350.051C300.907 351.789 293.389 352.799 285.712 352.835C279.932 352.87 274.187 352.374 268.514 351.399C273.443 349.679 278.177 347.427 282.609 344.626C287.503 341.541 297.024 335.318 293.176 328.243C289.134 320.814 279.967 325.938 274.595 328.403C266.617 332.055 258.319 335.034 249.862 337.357C217.061 346.381 181.583 345.388 149.474 334.059C131.798 327.836 115.309 318.545 100.77 306.719C99.5111 305.708 97.7204 307.481 98.9792 308.51C122.897 327.676 151.939 340.548 182.275 345.051C214.331 349.803 247.397 344.892 276.865 331.47C280.021 330.034 286.155 325.956 289.293 329.449C292.272 332.782 285.606 337.339 283.389 338.881C275.925 344.094 267.468 347.64 258.567 349.502C256.351 349.963 256.493 353.296 258.567 353.845C274.524 358.065 291.368 358.473 307.484 354.856C310.374 354.218 317.059 351.807 318.708 355.92C319.913 358.934 315.037 360.423 313.034 360.973C309.984 361.806 306.917 362.551 303.832 363.26C303.868 363.313 303.903 363.367 303.956 363.42C301.722 363.934 299.541 364.608 297.325 365.175C295.552 365.405 293.797 365.654 292.024 365.884C288.513 366.363 284.985 366.824 281.492 367.356C279.311 367.675 280.251 370.955 282.396 370.654C283.779 370.459 285.162 370.264 286.545 370.051C291.705 370.423 297.077 370.033 302.148 370.051C305.357 370.068 308.566 370.068 311.775 370.086C313.53 370.086 320.977 369.678 319.027 373.295C317.786 375.618 312.839 375.636 310.587 375.99C307.236 376.522 303.885 377.019 300.534 377.391C297.307 377.746 294.063 378.065 290.818 378.331C289.347 378.455 287.875 378.579 286.386 378.668C284.772 378.756 283.372 378.49 282.006 379.501C281.067 380.21 280.836 381.682 282.006 382.338C282.042 382.355 282.06 382.373 282.095 382.373C282.219 382.675 282.485 382.923 282.893 382.94C285.818 383.136 288.921 382.479 291.829 382.178C294.807 381.877 297.786 381.558 300.765 381.221C303.619 380.902 306.492 380.494 309.364 380.263C311.314 380.121 315.623 380.441 313.708 383.455C312.538 385.299 309.399 386.026 307.023 386.593C306.598 386.611 306.19 386.717 305.8 386.894C305.765 386.894 305.729 386.912 305.711 386.912C303.034 387.657 300.322 388.277 297.573 388.774C294.542 389.323 291.474 389.784 288.389 389.962C285.322 390.139 282.219 389.784 279.17 390.05C276.953 390.228 276.989 393.224 279.17 393.472C282.875 393.88 286.864 393.153 290.57 392.781C294.205 392.408 297.804 391.859 301.368 391.079C302.431 390.848 303.513 390.6 304.594 390.352C305.215 390.759 306.226 390.653 306.509 389.873C306.616 389.837 306.74 389.82 306.846 389.784C306.935 390.05 306.953 390.511 306.616 390.884C306.084 391.522 304.843 391.717 304.098 391.912C302.29 392.355 300.481 392.781 298.673 393.171C294.825 393.986 290.96 394.642 287.042 395.032C279.347 395.795 271.634 395.759 263.922 395.352C248.763 394.554 233.657 392.32 218.746 389.447C190.076 383.916 161.903 375.618 134.918 364.448C119.652 358.136 104.724 350.92 90.256 342.942C87.2774 341.293 84.6711 345.016 86.7455 347.48C87.5433 348.438 88.5717 348.934 89.6355 349.519C90.0256 349.732 90.4156 349.803 90.7879 349.768C118.996 364.661 148.783 376.611 179.456 385.387C211.973 394.678 246.139 401.77 280.092 399.004C284.719 398.632 289.347 398.029 293.939 397.32C298.123 396.664 303.016 396.185 306.864 394.359C308.814 393.437 310.658 390.99 309.984 388.845C310.676 388.614 311.367 388.366 312.059 388.1C314.452 387.16 316.722 385.547 316.952 382.781C317.094 381.026 316.562 379.855 315.64 379.093C316.225 378.969 316.81 378.827 317.396 378.668C320.108 377.905 322.715 375.973 322.963 372.941C323.583 365.352 312.183 366.842 307.662 366.877Z" fill="#1A2B78"/>
<path d="M131.443 288.459C131.354 288.406 131.248 288.335 131.177 288.282C129.83 287.963 128.482 287.661 127.135 287.342C122.401 286.243 115.539 284.009 115.947 277.892C116.142 275.108 118.146 272.821 120.592 271.686C123.855 270.179 127.383 270.853 130.752 271.633C138.163 273.371 145.663 274.381 153.287 274.417C159.031 274.452 164.758 273.956 170.396 272.981C165.485 271.261 160.786 269.009 156.389 266.208C151.531 263.123 142.046 256.9 145.893 249.825C149.918 242.396 159.031 247.52 164.368 249.985C172.311 253.637 180.555 256.616 188.959 258.939C221.583 267.963 256.848 266.97 288.779 255.641C306.35 249.418 322.768 240.109 337.218 228.301C338.459 227.29 340.25 229.063 338.991 230.092C315.215 249.258 286.333 262.13 256.174 266.633C224.242 271.385 191.371 266.474 162.063 253.052C158.925 251.616 152.826 247.538 149.705 251.031C146.744 254.364 153.375 258.921 155.574 260.463C163.003 265.676 171.407 269.222 180.254 271.084C182.452 271.545 182.311 274.878 180.254 275.428C164.386 279.647 147.648 280.055 131.62 276.438C128.748 275.8 122.099 273.389 120.468 277.502C119.263 280.516 124.121 282.005 126.106 282.555C129.138 283.388 132.188 284.133 135.255 284.842C135.22 284.895 135.184 284.949 135.131 285.002C137.347 285.516 139.528 286.19 141.727 286.757C143.482 286.988 145.237 287.236 146.992 287.466C150.485 287.945 153.978 288.406 157.471 288.938C159.634 289.257 158.694 292.537 156.567 292.236C155.184 292.041 153.818 291.846 152.453 291.633C147.329 292.005 141.992 291.615 136.939 291.633C133.748 291.651 130.557 291.651 127.365 291.668C125.628 291.668 118.217 291.26 120.149 294.877C121.39 297.2 126.301 297.218 128.535 297.572C131.851 298.104 135.184 298.601 138.535 298.973C141.744 299.328 144.971 299.647 148.198 299.913C149.67 300.037 151.123 300.161 152.595 300.25C154.208 300.356 155.591 300.072 156.939 301.083C157.861 301.792 158.109 303.264 156.939 303.92C156.903 303.937 156.886 303.955 156.85 303.955C156.726 304.257 156.46 304.505 156.052 304.523C153.145 304.718 150.06 304.062 147.17 303.76C144.209 303.459 141.248 303.14 138.287 302.803C135.45 302.484 132.596 302.076 129.741 301.845C127.808 301.703 123.518 302.023 125.433 305.037C126.603 306.881 129.723 307.608 132.081 308.175C132.507 308.193 132.915 308.299 133.287 308.476C133.322 308.476 133.358 308.494 133.376 308.494C136.035 309.239 138.748 309.859 141.461 310.356C144.475 310.905 147.524 311.366 150.592 311.544C153.641 311.721 156.726 311.366 159.758 311.632C161.957 311.81 161.921 314.806 159.758 315.054C156.07 315.462 152.099 314.735 148.428 314.363C144.829 313.99 141.23 313.441 137.684 312.661C136.62 312.43 135.556 312.182 134.475 311.934C133.854 312.341 132.862 312.235 132.578 311.455C132.471 311.42 132.347 311.402 132.241 311.366C132.152 311.632 132.135 312.093 132.471 312.466C133.003 313.104 134.227 313.299 134.971 313.494C136.762 313.937 138.571 314.363 140.379 314.753C144.191 315.568 148.056 316.224 151.939 316.614C159.581 317.377 167.258 317.341 174.935 316.934C190.005 316.136 205.04 313.902 219.845 311.029C248.355 305.498 276.368 297.2 303.194 286.03C318.371 279.7 333.211 272.502 347.59 264.506C350.569 262.857 353.139 266.598 351.083 269.062C350.285 270.02 349.274 270.516 348.211 271.101C347.82 271.314 347.43 271.385 347.058 271.35C319.009 286.243 289.4 298.193 258.887 306.969C226.565 316.26 192.576 323.352 158.836 320.586C154.226 320.214 149.634 319.611 145.06 318.902C140.911 318.246 136.035 317.767 132.206 315.941C130.273 315.019 128.429 312.572 129.103 310.427C128.411 310.196 127.72 309.948 127.046 309.682C124.67 308.742 122.419 307.129 122.188 304.363C122.046 302.608 122.578 301.437 123.482 300.675C122.897 300.551 122.312 300.409 121.745 300.25C119.05 299.487 116.461 297.555 116.213 294.523C115.61 286.934 126.957 288.424 131.443 288.459Z" fill="#1A2B78"/>
<defs>
<clipPath id="clip0">
<rect width="108.803" height="126.403" fill="white" transform="translate(42 135.172) rotate(-2.72357)"/>
</clipPath>
</defs>
</svg>
