<svg width="398" height="316" viewBox="0 0 398 316" fill="none" xmlns="http://www.w3.org/2000/svg">
<rect width="82.5645" height="81.5316" rx="16" transform="matrix(0.117814 -0.993036 0.993007 0.11806 151.74 304.124)" fill="#F3EEFF"/>
<rect width="250.316" height="67.6497" rx="5.11771" transform="matrix(-0.999979 0.00644348 0.00642987 0.999979 299.576 17.1901)" fill="#001064"/>
<rect width="148.796" height="57.7382" rx="5.11771" transform="matrix(-0.999979 0.00644348 0.00642987 0.999979 148.793 115.205)" fill="#001064"/>
<rect x="-2" y="2" width="246.316" height="66.7747" rx="3.11771" transform="matrix(-1 0 0 1 314.02 0)" fill="#D3E1FF" stroke="#001064" stroke-width="4"/>
<path d="M68.1278 157.095C67.9589 172.167 72.3186 191.841 79.1088 204.123C88.7687 221.597 96.1632 228.036 108.805 240.923C116.595 248.865 125.075 256.765 134.084 261.158" stroke="#001064" stroke-width="3" stroke-linecap="round" stroke-linejoin="round"/>
<path d="M127.082 249.218C128.845 251.508 132.436 257.359 133.817 260.262L109.097 261.737C112.731 252.495 114.638 246.608 118.199 238.261C118.427 237.728 118.954 237.132 119.833 238.726C121.878 242.44 124.498 245.861 127.082 249.218Z" stroke="#001064" stroke-width="3" stroke-linecap="round" stroke-linejoin="round"/>
<path d="M200.699 55.5905C196.283 67.4435 190.676 78.8449 186.628 90.8302C179.434 112.129 176.111 135.652 173.534 157.902C171.675 173.949 170.797 222.437 170.797 206.284" stroke="#001064" stroke-width="3" stroke-linecap="round" stroke-linejoin="round"/>
<path d="M161.603 190.115H185.23L170.476 211.311C169.736 212.783 168.528 208.628 167.824 207.139C165.396 202.01 163.124 197.217 160.157 192.369C158.839 190.215 159.463 190.115 161.603 190.115Z" stroke="#001064" stroke-width="3" stroke-linecap="round" stroke-linejoin="round"/>
<rect x="263.707" y="4.27618" width="50.1922" height="62.0049" fill="#FFE2DC"/>
<path d="M265.025 2.00116C264.903 5.67953 264.025 9.31805 264.025 13.0078" stroke="#001064" stroke-width="3.20521" stroke-linecap="round" stroke-linejoin="round"/>
<path d="M264.025 23.0139C264.025 25.6919 264.025 28.3393 264.025 31.0188" stroke="#001064" stroke-width="3.20521" stroke-linecap="round" stroke-linejoin="round"/>
<path d="M264.025 39.0236C264.025 43.7051 263.025 48.4102 263.025 53.032" stroke="#001064" stroke-width="3.20521" stroke-linecap="round" stroke-linejoin="round"/>
<path d="M263.025 60.0362C263.025 62.6684 263.025 65.3893 263.025 68.041" stroke="#001064" stroke-width="3.20521" stroke-linecap="round" stroke-linejoin="round"/>
<path d="M303.119 101.43C299.739 98.7601 296.276 96.0506 292.549 93.8819L294.8 113.3C296.175 112.898 297.657 112.881 299.055 112.449C302.369 111.425 305.658 110.175 308.919 108.991C310.479 108.425 311.676 108.22 310.072 107.163C307.58 105.522 305.459 103.279 303.119 101.43Z" stroke="#001064" stroke-width="3" stroke-linecap="round" stroke-linejoin="round"/>
<ellipse cx="253.572" cy="153.239" rx="49.1243" ry="49.1763" fill="#E9FAF4"/>
<path d="M246.979 173.451C245.509 173.451 244.373 172.992 243.505 172.009C242.369 170.763 242.102 168.796 242.77 166.895C243.171 165.649 243.906 164.666 244.574 163.682C244.707 163.486 244.841 163.289 244.975 163.092C248.382 158.175 250.32 151.881 250.787 144.473C251.188 138.375 250.52 132.147 249.852 126.115C245.643 127.885 241.233 129.065 236.623 129.656C235.888 129.721 235.286 129.262 235.153 128.541C235.086 127.82 235.554 127.23 236.289 127.099C241.166 126.509 245.91 125.132 250.32 123.034C250.721 122.837 251.122 122.837 251.522 123.034C251.923 123.23 252.124 123.624 252.191 124.017C252.992 130.77 253.794 137.72 253.393 144.604C252.926 152.471 250.787 159.159 247.179 164.469C247.046 164.666 246.912 164.862 246.779 165.059C246.177 165.911 245.576 166.764 245.242 167.616C244.975 168.403 244.908 169.517 245.509 170.173C246.578 171.353 248.917 170.566 250.721 169.78C251.389 169.452 252.124 169.78 252.458 170.37C252.792 171.025 252.458 171.747 251.856 172.074C249.919 172.992 248.382 173.451 246.979 173.451Z" fill="#001064"/>
<path d="M253.059 184.4C250.454 184.4 247.848 183.351 245.977 181.515C245.443 180.991 245.443 180.204 245.977 179.68C246.512 179.155 247.313 179.155 247.848 179.68C249.184 180.991 251.189 181.778 253.059 181.778C254.997 181.778 256.935 180.991 258.271 179.614C258.805 179.089 259.607 179.089 260.142 179.614C260.676 180.138 260.676 180.925 260.142 181.45C258.271 183.351 255.732 184.4 253.059 184.4Z" fill="#001064"/>
<path d="M264.085 157.257C262.949 157.257 261.613 157.126 260.477 156.405C257.938 154.7 258.406 151.029 258.606 149.652L259.942 139.359C260.276 136.933 260.811 134.245 263.016 132.737C264.419 131.819 266.156 131.688 267.426 131.688C267.693 131.688 267.893 131.688 268.16 131.688C271.434 131.754 274.708 132.081 277.982 132.606C280.187 132.999 282.793 133.524 285.065 134.704C287.67 136.081 289.541 138.048 290.343 140.408C291.211 142.965 290.811 145.718 290.41 147.882C290.076 149.98 289.541 153.192 287.269 155.094C285.198 156.798 282.592 156.995 279.786 156.995L264.552 157.192C264.352 157.257 264.218 157.257 264.085 157.257ZM267.426 134.245C266.423 134.245 265.287 134.31 264.486 134.901C263.149 135.818 262.815 137.785 262.548 139.687L261.212 149.98C260.878 152.34 261.145 153.717 262.014 154.307C262.548 154.635 263.35 154.7 264.152 154.7H264.619L279.853 154.504C282.125 154.504 284.263 154.373 285.666 153.192C287.136 152.012 287.537 149.849 287.938 147.554C288.272 145.522 288.606 143.227 287.938 141.26C287.336 139.555 285.933 138.048 283.929 136.999C281.924 135.95 279.719 135.491 277.581 135.163C274.508 134.638 271.301 134.31 268.16 134.245C267.893 134.245 267.626 134.245 267.426 134.245Z" fill="#001064"/>
<path d="M234.018 157.913C232.08 157.913 230.209 157.847 228.272 157.782C226.535 157.716 224.797 157.519 223.261 156.47C220.187 154.372 220.254 149.98 220.254 147.882C220.321 144.145 220.588 140.539 222.927 137.851C225.065 135.359 228.339 134.442 230.944 133.72C234.753 132.671 238.628 132.344 242.436 132.081L242.971 132.016C246.245 131.819 248.918 132.671 250.722 134.573C252.392 136.277 253.194 138.572 253.06 141.326C253.661 145.587 252.392 152.733 248.984 155.094C245.978 157.192 242.169 157.651 238.494 157.782C237.091 157.913 235.555 157.913 234.018 157.913ZM243.973 134.573C243.706 134.573 243.439 134.573 243.171 134.573L242.637 134.638C238.828 134.9 235.221 135.163 231.679 136.146C229.408 136.802 226.535 137.589 224.864 139.49C223.06 141.588 222.86 144.669 222.793 147.947C222.726 150.57 222.927 153.192 224.664 154.372C225.599 155.028 226.935 155.159 228.339 155.225C230.209 155.356 232.08 155.356 233.951 155.356C235.421 155.356 236.958 155.29 238.428 155.225C241.768 155.159 245.109 154.766 247.648 153.061C249.853 151.553 251.122 145.39 250.588 141.653C250.588 141.588 250.588 141.522 250.588 141.391C250.655 139.293 250.12 137.589 248.918 136.408C247.782 135.228 246.044 134.573 243.973 134.573Z" fill="#001064"/>
<path d="M251.991 144.932C251.389 144.932 250.922 144.538 250.721 144.014C250.521 143.358 250.922 142.637 251.657 142.44C254.329 141.719 257.202 141.588 259.942 142.047C260.677 142.178 261.144 142.834 261.011 143.555C260.877 144.276 260.209 144.735 259.474 144.604C257.136 144.21 254.597 144.341 252.325 144.932C252.191 144.866 252.124 144.932 251.991 144.932Z" fill="#001064"/>
<path d="M266.757 163.223C266.623 162.633 265.955 162.239 265.354 162.436C265.287 162.436 265.22 162.502 265.153 162.502C264.552 162.698 264.218 163.288 264.352 163.878C264.485 164.469 265.153 164.862 265.755 164.665C265.821 164.665 265.888 164.6 265.955 164.6C266.556 164.403 266.89 163.813 266.757 163.223Z" fill="#001064"/>
<path d="M265.487 164.862C264.953 164.862 264.351 164.469 264.218 163.945C264.017 163.289 264.418 162.633 265.086 162.371L265.287 162.305C265.42 162.24 265.554 162.24 265.621 162.24C266.155 162.24 266.757 162.633 266.89 163.158C267.091 163.813 266.69 164.469 266.022 164.731L265.821 164.797C265.688 164.862 265.554 164.862 265.487 164.862ZM265.621 162.568C265.554 162.568 265.42 162.568 265.354 162.633L265.153 162.699C264.619 162.896 264.351 163.354 264.485 163.879C264.619 164.272 265.02 164.6 265.42 164.6C265.487 164.6 265.621 164.6 265.688 164.535L265.888 164.469C266.423 164.272 266.69 163.813 266.556 163.289C266.489 162.896 266.022 162.568 265.621 162.568Z" fill="#001064"/>
<path d="M274.241 161.256C273.64 161.256 273.105 161.781 273.105 162.371V162.436C273.105 163.027 273.64 163.551 274.241 163.551C274.843 163.551 275.377 163.027 275.377 162.436V162.371C275.377 161.715 274.909 161.256 274.241 161.256Z" fill="#001064"/>
<path d="M274.241 163.682C273.506 163.682 272.904 163.092 272.904 162.371V162.305C272.904 161.584 273.506 160.994 274.241 160.994C274.976 160.994 275.577 161.584 275.577 162.305V162.371C275.577 163.158 274.976 163.682 274.241 163.682ZM274.241 161.388C273.706 161.388 273.238 161.847 273.238 162.371V162.437C273.238 162.961 273.706 163.42 274.241 163.42C274.775 163.42 275.243 162.961 275.243 162.437V162.371C275.243 161.847 274.775 161.388 274.241 161.388Z" fill="#001064"/>
<path d="M270.365 168.337C268.894 168.337 268.894 170.566 270.365 170.566C271.835 170.566 271.835 168.337 270.365 168.337Z" fill="#001064"/>
<path d="M270.365 170.697C269.563 170.697 269.096 170.042 269.096 169.386C269.096 169.058 269.229 168.731 269.43 168.534C269.63 168.272 269.964 168.141 270.365 168.141C271.167 168.141 271.635 168.796 271.635 169.452C271.635 169.78 271.501 170.107 271.301 170.304C271.1 170.566 270.766 170.697 270.365 170.697ZM270.365 168.468C270.098 168.468 269.831 168.6 269.63 168.731C269.497 168.927 269.363 169.124 269.363 169.386C269.363 169.845 269.63 170.37 270.298 170.37C270.566 170.37 270.833 170.239 271.033 170.107C271.167 169.911 271.301 169.714 271.301 169.452C271.301 168.993 270.967 168.468 270.365 168.468Z" fill="#001064"/>
<path d="M238.962 169.582C238.361 169.582 237.826 170.107 237.826 170.697V170.762C237.826 171.352 238.361 171.877 238.962 171.877C239.563 171.877 240.098 171.352 240.098 170.762V170.697C240.165 170.107 239.63 169.582 238.962 169.582Z" fill="#001064"/>
<path d="M238.963 172.074C238.228 172.074 237.627 171.484 237.627 170.763V170.697C237.627 169.976 238.228 169.386 238.963 169.386C239.698 169.386 240.3 169.976 240.3 170.697V170.763C240.3 171.484 239.698 172.074 238.963 172.074ZM238.963 169.78C238.429 169.78 237.961 170.239 237.961 170.763C237.961 171.288 238.429 171.746 238.963 171.746C239.498 171.746 239.965 171.288 239.965 170.763V170.697C239.965 170.173 239.498 169.78 238.963 169.78Z" fill="#001064"/>
<path d="M231.009 170.565H230.942C230.341 170.565 229.807 171.09 229.807 171.68C229.807 172.27 230.341 172.794 230.942 172.794H231.009C231.611 172.794 232.145 172.27 232.145 171.68C232.145 171.09 231.611 170.565 231.009 170.565Z" fill="#001064"/>
<path d="M231.011 172.927H230.944C230.209 172.927 229.607 172.337 229.607 171.615C229.607 170.894 230.209 170.304 230.944 170.304H231.011C231.745 170.304 232.347 170.894 232.347 171.615C232.28 172.337 231.745 172.927 231.011 172.927ZM230.944 170.697C230.409 170.697 229.941 171.156 229.941 171.681C229.941 172.205 230.409 172.664 230.944 172.664H231.011C231.545 172.664 232.013 172.205 232.013 171.681C232.013 171.156 231.545 170.697 231.011 170.697H230.944Z" fill="#001064"/>
<path d="M239.697 160.404C239.229 159.945 238.494 159.945 238.093 160.404L238.027 160.469C237.559 160.928 237.559 161.649 238.027 162.043C238.494 162.502 239.229 162.502 239.63 162.043L239.697 161.977C240.165 161.584 240.165 160.863 239.697 160.404Z" fill="#001064"/>
<path d="M238.829 162.568C238.495 162.568 238.161 162.437 237.894 162.174C237.426 161.715 237.426 160.863 237.894 160.339L237.961 160.273C238.428 159.814 239.297 159.814 239.831 160.273C240.099 160.535 240.232 160.863 240.232 161.191C240.232 161.519 240.099 161.847 239.831 162.109L239.765 162.174C239.497 162.437 239.163 162.568 238.829 162.568ZM238.896 160.273C238.629 160.273 238.361 160.339 238.228 160.535L238.161 160.601C237.76 160.994 237.76 161.584 238.161 161.978C238.495 162.306 239.163 162.306 239.564 161.978L239.631 161.912C239.831 161.715 239.898 161.519 239.898 161.257C239.898 160.994 239.765 160.732 239.631 160.601C239.43 160.339 239.163 160.273 238.896 160.273Z" fill="#001064"/>
<path d="M233.685 165.124C233.685 165.058 233.618 164.993 233.618 164.993C233.351 164.468 232.549 164.272 232.081 164.599C231.547 164.927 231.413 165.583 231.681 166.107C231.681 166.173 231.747 166.238 231.747 166.238C232.015 166.763 232.816 166.96 233.284 166.632C233.819 166.304 233.952 165.648 233.685 165.124Z" fill="#001064"/>
<path d="M232.682 166.96C232.214 166.96 231.747 166.698 231.546 166.305L231.479 166.174C231.145 165.518 231.346 164.797 231.947 164.404C232.147 164.272 232.348 164.207 232.615 164.207C233.083 164.207 233.551 164.469 233.751 164.862L233.818 164.994C234.152 165.649 233.951 166.37 233.35 166.764C233.15 166.895 232.949 166.96 232.682 166.96ZM232.615 164.6C232.415 164.6 232.281 164.666 232.147 164.731C231.68 164.994 231.546 165.584 231.813 166.043L231.88 166.174C232.014 166.436 232.348 166.633 232.749 166.633C232.949 166.633 233.083 166.567 233.216 166.502C233.684 166.239 233.818 165.649 233.551 165.19L233.484 165.059C233.283 164.731 233.016 164.6 232.615 164.6Z" fill="#001064"/>
<path d="M276.845 168.14C275.375 168.14 275.375 170.369 276.845 170.369C278.315 170.369 278.315 168.14 276.845 168.14Z" fill="#001064"/>
<path d="M276.846 170.501C276.044 170.501 275.576 169.845 275.576 169.19C275.576 168.862 275.71 168.534 275.91 168.337C276.111 168.075 276.445 167.944 276.846 167.944C277.647 167.944 278.115 168.599 278.115 169.255C278.115 169.583 277.981 169.911 277.781 170.107C277.581 170.37 277.247 170.501 276.846 170.501ZM276.846 168.272C276.578 168.272 276.311 168.403 276.111 168.534C275.977 168.731 275.843 168.927 275.843 169.19C275.843 169.648 276.111 170.173 276.779 170.173C277.046 170.173 277.313 170.042 277.514 169.911C277.647 169.714 277.781 169.517 277.781 169.255C277.781 168.796 277.514 168.272 276.846 168.272Z" fill="#001064"/>
<path d="M235.184 147.399C235.308 146.399 235.339 145.32 235.68 144.363C235.896 143.757 236.259 143.231 236.623 142.719C237.492 141.498 239.007 141.337 240.335 141.57C240.865 141.664 241.446 141.92 241.877 142.257C242.073 142.41 242.278 142.506 242.418 142.727C242.574 142.973 242.696 143.225 242.833 143.48C243.333 144.407 243.647 145.394 243.647 146.452" stroke="#001064" stroke-width="2.13681" stroke-linecap="round" stroke-linejoin="round"/>
<path d="M267.83 147.399C267.955 146.399 267.986 145.32 268.327 144.363C268.542 143.757 268.905 143.231 269.27 142.719C270.139 141.498 271.654 141.337 272.981 141.57C273.512 141.664 274.093 141.92 274.523 142.257C274.719 142.41 274.925 142.506 275.065 142.727C275.22 142.973 275.342 143.225 275.48 143.48C275.98 144.407 276.294 145.394 276.294 146.452" stroke="#001064" stroke-width="2.13681" stroke-linecap="round" stroke-linejoin="round"/>
<rect x="320.305" y="146.46" width="46.0668" height="8.5524" rx="2.13681" fill="#001064"/>
<rect x="320.305" y="163.565" width="28.0589" height="6.4143" rx="2.13681" fill="#B7BACB"/>
<rect x="249.426" y="262.986" width="41.8571" height="8.5524" rx="2.13681" fill="#001064"/>
<rect x="249.426" y="280.091" width="25.4948" height="6.4143" rx="2.13681" fill="#B7BACB"/>
<g clip-path="url(#clip0)">
<path d="M203.747 241.078C203.495 241.12 203.169 241.108 202.948 240.949C196.583 237.352 188.2 237.562 182.118 241.452C181.531 241.811 180.785 241.607 180.373 241.086C180.015 240.49 180.212 239.737 180.726 239.324C187.636 234.969 197.048 234.72 204.14 238.786C204.719 239.149 204.973 239.893 204.617 240.476C204.482 240.826 204.125 241.016 203.747 241.078Z" fill="#001064"/>
<path d="M207.259 283.691C205.215 283.691 203.299 282.657 202.405 280.847C202.086 280.201 202.341 279.491 202.98 279.167C203.619 278.844 204.321 279.103 204.64 279.749C205.215 280.977 207.004 281.494 208.473 280.912C209.878 280.331 211.027 278.909 211.602 276.97C212.177 275.097 212.177 273.029 212.177 271.026V253.902C212.177 250.671 212.177 246.729 213.965 243.369C215.562 240.332 218.564 238.135 221.949 237.489C225.334 236.843 228.911 237.748 231.529 240.009C232.04 240.462 232.104 241.237 231.657 241.754C231.21 242.271 230.443 242.335 229.932 241.883C227.889 240.138 225.015 239.428 222.46 239.945C219.841 240.462 217.478 242.206 216.265 244.597C214.796 247.376 214.796 250.865 214.796 253.967V271.09C214.796 273.158 214.796 275.549 214.093 277.746C213.263 280.395 211.602 282.398 209.494 283.238C208.728 283.561 207.962 283.691 207.259 283.691Z" fill="#001064"/>
<path d="M195.445 261.268C193.976 261.268 192.507 261.204 191.166 261.139L190.335 261.075C189.888 261.075 189.441 261.075 188.93 261.01C186.376 261.01 183.246 260.945 181.394 259.394C179.222 257.585 179.35 254.419 179.414 252.739C179.478 251.123 179.605 248.086 181.777 246.471C183.054 245.502 184.587 245.437 185.609 245.437C186.056 245.437 186.503 245.437 186.95 245.502C187.972 245.566 189.058 245.631 190.144 245.631C192.315 245.696 194.551 245.825 196.722 246.083C197.233 246.148 197.808 246.148 198.511 246.148C200.49 246.213 202.981 246.213 204.45 247.828C205.6 249.12 205.728 250.994 205.792 252.222C205.792 252.416 205.792 252.674 205.855 252.933C205.983 254.742 206.175 257.262 204.897 258.748C204.514 259.201 204.003 259.588 203.301 259.911C201.321 260.881 198.83 261.268 195.445 261.268ZM185.673 247.957C184.587 247.957 183.821 248.151 183.31 248.539C182.224 249.379 182.032 251.188 181.969 252.868C181.905 254.742 181.969 256.616 182.99 257.456C184.204 258.425 186.95 258.49 188.994 258.49C189.569 258.49 190.08 258.49 190.527 258.554L191.357 258.619C192.699 258.684 194.04 258.748 195.509 258.748C198.511 258.748 200.682 258.425 202.343 257.65C202.726 257.456 202.917 257.327 203.045 257.198C203.62 256.487 203.492 254.419 203.428 253.191C203.428 252.933 203.365 252.674 203.365 252.416C203.301 251.253 203.237 250.219 202.662 249.573C201.959 248.733 200.043 248.733 198.511 248.733C197.808 248.733 197.105 248.733 196.467 248.603C194.359 248.345 192.188 248.216 190.08 248.151C188.994 248.086 187.908 248.086 186.823 248.022C186.439 248.022 186.056 247.957 185.673 247.957Z" fill="#001064"/>
<path d="M213.454 255.194C213.327 255.194 213.135 255.194 213.007 255.13C210.325 254.161 208.92 254.419 206.109 254.936L205.215 255.13C204.513 255.259 203.874 254.807 203.746 254.096C203.619 253.385 204.066 252.739 204.768 252.61L205.662 252.416C208.6 251.899 210.516 251.511 213.901 252.739C214.54 252.997 214.859 253.708 214.668 254.354C214.412 254.871 213.965 255.194 213.454 255.194Z" fill="#001064"/>
<path d="M218.628 261.075C217.35 261.075 215.881 260.945 214.604 260.17C211.347 258.102 212.432 251.447 212.879 249.766C213.263 248.474 214.029 246.6 216.456 246.019C217.095 245.889 217.733 245.825 218.5 245.825C219.011 245.825 219.586 245.889 220.033 245.889C221.821 246.019 223.737 246.083 226.164 246.083C227.25 246.083 228.336 246.083 229.421 246.083H229.613C232.998 246.083 235.361 247.117 236.383 249.12C237.788 251.834 236.702 256.099 236.319 257.391C235.297 260.881 232.615 260.945 230.507 261.01L219.394 261.075C219.139 261.075 218.883 261.075 218.628 261.075ZM218.564 248.28C217.989 248.28 217.542 248.345 217.159 248.41C216.137 248.668 215.69 249.185 215.37 250.413C214.668 252.868 214.668 257.133 216.009 257.973C216.903 258.554 218.181 258.49 219.394 258.49L230.571 258.231C233.126 258.167 233.637 257.908 234.02 256.422C234.595 254.419 235.042 251.511 234.275 250.025C233.509 248.603 231.146 248.345 229.741 248.345H229.549C228.463 248.345 227.378 248.345 226.292 248.345C223.801 248.345 221.821 248.28 219.969 248.151C219.458 248.345 219.011 248.28 218.564 248.28Z" fill="#001064"/>
<path d="M168.108 254.225C168.044 254.225 167.98 254.225 167.917 254.225C166.001 253.967 164.468 252.093 164.468 250.09C164.404 248.345 165.426 246.6 167.022 245.566C168.3 244.726 169.96 244.403 171.749 244.468C176.156 244.791 180.818 248.474 181.968 252.545C182.159 253.191 181.776 253.902 181.137 254.096C180.499 254.29 179.796 253.902 179.605 253.256C178.774 250.154 175.006 247.246 171.621 247.053C170.727 246.988 169.513 247.053 168.428 247.763C167.533 248.345 167.022 249.25 167.022 250.09C167.022 250.93 167.661 251.705 168.364 251.834C169.066 251.964 169.513 252.545 169.449 253.256C169.258 253.773 168.747 254.225 168.108 254.225Z" fill="#001064"/>
<path d="M204.449 297.454C204.193 297.454 203.874 297.454 203.618 297.454C199.786 297.196 196.21 295.193 193.91 292.026C193.527 291.445 193.655 290.669 194.166 290.282C194.741 289.894 195.507 290.023 195.89 290.54C197.679 293.06 200.617 294.74 203.746 294.934C206.812 295.128 209.941 293.9 212.049 291.639C212.496 291.122 213.326 291.122 213.837 291.574C214.348 292.026 214.348 292.866 213.901 293.383C211.474 295.968 207.961 297.454 204.449 297.454Z" fill="#001064"/>
<path d="M219.209 254.881C220.071 253.229 221.443 250.844 223.321 251.744C223.594 251.875 223.851 252.03 224.13 252.145C224.316 252.221 224.492 252.331 224.635 252.496C224.909 252.811 225.261 253.094 225.487 253.462C225.703 253.813 225.912 254.379 225.912 254.833" stroke="#001064" stroke-width="2.13681" stroke-linecap="round" stroke-linejoin="round"/>
<path d="M190.16 254.881C191.022 253.229 192.394 250.844 194.272 251.744C194.545 251.875 194.802 252.03 195.081 252.145C195.267 252.221 195.443 252.331 195.587 252.496C195.86 252.811 196.212 253.094 196.438 253.462C196.654 253.813 196.863 254.379 196.863 254.833" stroke="#001064" stroke-width="2.13681" stroke-linecap="round" stroke-linejoin="round"/>
</g>
<ellipse cx="308.639" cy="265.735" rx="8.69592" ry="8.70512" fill="white"/>
<path d="M309.097 255.503C303.202 255.503 298.418 260.292 298.418 266.193C298.418 272.095 303.202 276.884 309.097 276.884C314.992 276.884 319.776 272.095 319.776 266.193C319.776 260.292 314.992 255.503 309.097 255.503ZM306.203 270.78L302.369 266.942C301.953 266.525 301.953 265.851 302.369 265.434C302.786 265.017 303.459 265.017 303.875 265.434L306.961 268.513L314.309 261.158C314.725 260.741 315.398 260.741 315.814 261.158C316.231 261.575 316.231 262.249 315.814 262.666L307.709 270.78C307.303 271.197 306.62 271.197 306.203 270.78Z" fill="#001064"/>
<ellipse cx="384.727" cy="148.14" rx="8.69592" ry="8.70512" fill="white"/>
<path d="M385.185 137.907C379.29 137.907 374.506 142.697 374.506 148.598C374.506 154.499 379.29 159.288 385.185 159.288C391.08 159.288 395.864 154.499 395.864 148.598C395.864 142.697 391.08 137.907 385.185 137.907ZM382.291 153.184L378.457 149.346C378.041 148.929 378.041 148.256 378.457 147.839C378.874 147.422 379.546 147.422 379.963 147.839L383.049 150.918L390.397 143.563C390.813 143.146 391.486 143.146 391.902 143.563C392.319 143.98 392.319 144.653 391.902 145.07L383.797 153.184C383.391 153.601 382.707 153.601 382.291 153.184Z" fill="#001064"/>
<rect x="2.04329" y="1.95565" width="152.686" height="55.2977" rx="3.11771" transform="matrix(0.999759 -0.0219333 0.021887 0.99976 6.8405 106.049)" fill="#FEF6E7" stroke="#001064" stroke-width="4"/>
<defs>
<clipPath id="clip0">
<rect width="72.6185" height="84.4549" fill="white" transform="translate(164.465 231.545)"/>
</clipPath>
</defs>
</svg>
