<svg width="202" height="161" viewBox="0 0 202 161" fill="none" xmlns="http://www.w3.org/2000/svg">
<rect width="41.8062" height="41.379" rx="16" transform="matrix(0.118091 -0.993003 0.993039 0.117783 77.0137 154.988)" fill="#F3EEFF"/>
<rect width="127.045" height="34.253" rx="5.11771" transform="matrix(-0.999979 0.00642814 0.00644521 0.999979 152.046 9.7041)" fill="#001064"/>
<rect width="75.5197" height="29.2345" rx="5.11771" transform="matrix(-0.999979 0.00642815 0.0064452 0.999979 75.5181 59.3311)" fill="#001064"/>
<rect x="-2" y="2" width="123.045" height="31.8353" rx="3.11771" transform="matrix(-1 0 0 1 157.407 1)" fill="#D3E1FF" stroke="#001064" stroke-width="4"/>
<path d="M34.5781 80.541C34.4924 88.1725 36.7051 98.1339 40.1514 104.353C45.0541 113.2 48.8071 116.46 55.2232 122.986C59.1771 127.007 63.4808 131.007 68.0533 133.231" stroke="#001064" stroke-width="3" stroke-linecap="round" stroke-linejoin="round"/>
<path d="M64.4981 127.186C65.3929 128.346 67.2155 131.308 67.9166 132.778L55.3701 133.525C57.2148 128.845 58.1824 125.865 59.99 121.638C60.1055 121.368 60.3731 121.066 60.8189 121.874C61.857 123.754 63.1867 125.486 64.4981 127.186Z" stroke="#001064" stroke-width="3" stroke-linecap="round" stroke-linejoin="round"/>
<path d="M101.863 29.1465C99.6216 35.148 96.7757 40.9209 94.721 46.9894C91.0698 57.7734 89.3832 69.6839 88.0752 80.95C87.1319 89.0747 86.6865 113.626 86.6865 105.447" stroke="#001064" stroke-width="3" stroke-linecap="round" stroke-linejoin="round"/>
<path d="M82.0191 97.2607H94.0107L86.5221 107.993C86.1466 108.738 85.5336 106.634 85.1761 105.881C83.9442 103.284 82.7908 100.857 81.2849 98.402C80.616 97.3117 80.9329 97.2607 82.0191 97.2607Z" stroke="#001064" stroke-width="3" stroke-linecap="round" stroke-linejoin="round"/>
<rect x="133.841" y="3.16504" width="25.4744" height="31.3949" fill="#FFE2DC"/>
<path d="M134.51 2.01367C134.448 3.87614 134.002 5.71843 134.002 7.58666" stroke="#001064" stroke-width="3.20521" stroke-linecap="round" stroke-linejoin="round"/>
<path d="M134.002 12.6523C134.002 14.0083 134.002 15.3487 134.002 16.7054" stroke="#001064" stroke-width="3.20521" stroke-linecap="round" stroke-linejoin="round"/>
<path d="M134.003 20.7588C134.003 23.1292 133.496 25.5115 133.496 27.8517" stroke="#001064" stroke-width="3.20521" stroke-linecap="round" stroke-linejoin="round"/>
<path d="M133.496 31.3984C133.496 32.7312 133.496 34.1089 133.496 35.4515" stroke="#001064" stroke-width="3.20521" stroke-linecap="round" stroke-linejoin="round"/>
<path d="M153.844 52.3572C152.128 51.0052 150.371 49.6333 148.479 48.5353L149.622 58.367C150.32 58.1638 151.072 58.155 151.781 57.9363C153.463 57.4178 155.133 56.7851 156.788 56.1856C157.579 55.8988 158.187 55.795 157.373 55.26C156.108 54.4292 155.031 53.2933 153.844 52.3572Z" stroke="#001064" stroke-width="3" stroke-linecap="round" stroke-linejoin="round"/>
<ellipse cx="128.697" cy="78.5889" rx="24.9324" ry="24.8994" fill="#E9FAF4"/>
<path d="M125.352 88.8236C124.606 88.8236 124.029 88.5912 123.588 88.0933C123.012 87.4626 122.876 86.4667 123.215 85.504C123.419 84.8733 123.792 84.3753 124.131 83.8774C124.199 83.7778 124.266 83.6782 124.334 83.5786C126.064 81.0889 127.047 77.9021 127.285 74.1509C127.488 71.0637 127.149 67.9101 126.81 64.856C124.673 65.7523 122.435 66.3499 120.095 66.6486C119.722 66.6818 119.417 66.4494 119.349 66.0843C119.315 65.7191 119.553 65.4204 119.926 65.354C122.401 65.0552 124.809 64.3581 127.047 63.2958C127.251 63.1962 127.454 63.1962 127.658 63.2958C127.861 63.3954 127.963 63.5946 127.997 63.7938C128.404 67.213 128.811 70.7317 128.607 74.2173C128.37 78.2009 127.285 81.5869 125.453 84.2757C125.386 84.3753 125.318 84.4749 125.25 84.5745C124.945 85.0061 124.64 85.4376 124.47 85.8692C124.334 86.2675 124.3 86.8318 124.606 87.1638C125.148 87.7613 126.335 87.363 127.251 86.9646C127.59 86.7987 127.963 86.9646 128.132 87.2634C128.302 87.5954 128.132 87.9605 127.827 88.1265C126.844 88.5912 126.064 88.8236 125.352 88.8236Z" fill="#001064"/>
<path d="M128.438 94.3674C127.115 94.3674 125.793 93.8363 124.843 92.9068C124.572 92.6412 124.572 92.2429 124.843 91.9773C125.114 91.7117 125.521 91.7117 125.793 91.9773C126.471 92.6412 127.488 93.0396 128.438 93.0396C129.421 93.0396 130.405 92.6412 131.083 91.9441C131.354 91.6785 131.761 91.6785 132.032 91.9441C132.304 92.2097 132.304 92.608 132.032 92.8736C131.083 93.8363 129.794 94.3674 128.438 94.3674Z" fill="#001064"/>
<path d="M134.033 80.6243C133.456 80.6243 132.778 80.5579 132.202 80.1927C130.913 79.3296 131.15 77.4706 131.252 76.7735L131.93 71.5617C132.1 70.3335 132.371 68.9724 133.49 68.2089C134.202 67.7442 135.084 67.6778 135.728 67.6778C135.864 67.6778 135.966 67.6778 136.101 67.6778C137.763 67.711 139.425 67.877 141.086 68.1425C142.205 68.3417 143.528 68.6073 144.681 69.2048C146.003 69.9019 146.953 70.8978 147.36 72.0929C147.801 73.3875 147.597 74.7818 147.394 75.8772C147.224 76.9395 146.953 78.5661 145.8 79.5288C144.749 80.3919 143.426 80.4915 142.002 80.4915L134.27 80.5911C134.168 80.6243 134.101 80.6243 134.033 80.6243ZM135.728 68.9724C135.22 68.9724 134.643 69.0056 134.236 69.3044C133.558 69.7691 133.388 70.765 133.253 71.7277L132.575 76.9395C132.405 78.1346 132.541 78.8317 132.981 79.1304C133.253 79.2964 133.66 79.3296 134.067 79.3296H134.304L142.036 79.23C143.189 79.23 144.274 79.1636 144.986 78.5661C145.732 77.9686 145.935 76.8731 146.139 75.7112C146.308 74.6822 146.478 73.5203 146.139 72.5244C145.834 71.6613 145.122 70.8978 144.104 70.3667C143.087 69.8355 141.968 69.6032 140.883 69.4372C139.323 69.1716 137.695 69.0056 136.101 68.9724C135.966 68.9724 135.83 68.9724 135.728 68.9724Z" fill="#001064"/>
<path d="M118.772 80.9561C117.789 80.9561 116.839 80.9229 115.856 80.8897C114.974 80.8565 114.093 80.7569 113.313 80.2258C111.753 79.1635 111.787 76.9394 111.787 75.8771C111.821 73.9849 111.956 72.1591 113.143 70.7981C114.228 69.5367 115.89 69.0719 117.212 68.7068C119.145 68.1756 121.112 68.0096 123.045 67.8769L123.316 67.8437C124.978 67.7441 126.334 68.1756 127.25 69.1383C128.098 70.0014 128.505 71.1633 128.437 72.5575C128.742 74.7152 128.098 78.3336 126.368 79.5287C124.842 80.5909 122.909 80.8233 121.044 80.8897C120.332 80.9561 119.552 80.9561 118.772 80.9561ZM123.825 69.1383C123.689 69.1383 123.554 69.1383 123.418 69.1383L123.147 69.1715C121.214 69.3043 119.383 69.4371 117.585 69.935C116.432 70.267 114.974 70.6653 114.127 71.628C113.211 72.6903 113.109 74.2505 113.075 75.9103C113.041 77.2381 113.143 78.566 114.025 79.1635C114.5 79.4955 115.178 79.5619 115.89 79.5951C116.839 79.6615 117.789 79.6615 118.738 79.6615C119.484 79.6615 120.264 79.6283 121.01 79.5951C122.706 79.5619 124.402 79.3627 125.69 78.4996C126.809 77.7361 127.454 74.6157 127.182 72.7235C127.182 72.6903 127.182 72.6571 127.182 72.5907C127.216 71.5284 126.945 70.6653 126.334 70.0678C125.758 69.4703 124.876 69.1383 123.825 69.1383Z" fill="#001064"/>
<path d="M127.895 74.3834C127.59 74.3834 127.352 74.1842 127.251 73.9187C127.149 73.5867 127.352 73.2215 127.725 73.122C129.082 72.7568 130.54 72.6904 131.93 72.9228C132.303 72.9892 132.541 73.3211 132.473 73.6863C132.405 74.0515 132.066 74.2838 131.693 74.2174C130.506 74.0183 129.218 74.0846 128.065 74.3834C127.997 74.3502 127.963 74.3834 127.895 74.3834Z" fill="#001064"/>
<path d="M135.388 83.6448C135.321 83.346 134.982 83.1468 134.677 83.2464C134.643 83.2464 134.609 83.2796 134.575 83.2796C134.27 83.3792 134.1 83.678 134.168 83.9767C134.236 84.2755 134.575 84.4747 134.88 84.3751C134.914 84.3751 134.948 84.3419 134.982 84.3419C135.287 84.2423 135.456 83.9435 135.388 83.6448Z" fill="#001064"/>
<path d="M134.745 84.4749C134.473 84.4749 134.168 84.2758 134.1 84.0102C133.999 83.6782 134.202 83.3463 134.541 83.2135L134.643 83.1803C134.711 83.1471 134.778 83.1471 134.812 83.1471C135.084 83.1471 135.389 83.3463 135.456 83.6118C135.558 83.9438 135.355 84.2758 135.016 84.4085L134.914 84.4417C134.846 84.4749 134.778 84.4749 134.745 84.4749ZM134.812 83.3131C134.778 83.3131 134.711 83.3131 134.677 83.3463L134.575 83.3795C134.304 83.4791 134.168 83.7114 134.236 83.977C134.304 84.1762 134.507 84.3422 134.711 84.3422C134.745 84.3422 134.812 84.3422 134.846 84.309L134.948 84.2758C135.219 84.1762 135.355 83.9438 135.287 83.6782C135.253 83.4791 135.016 83.3131 134.812 83.3131Z" fill="#001064"/>
<path d="M139.187 82.649C138.882 82.649 138.611 82.9146 138.611 83.2134V83.2466C138.611 83.5453 138.882 83.8109 139.187 83.8109C139.492 83.8109 139.763 83.5453 139.763 83.2466V83.2134C139.763 82.8814 139.526 82.649 139.187 82.649Z" fill="#001064"/>
<path d="M139.187 83.8774C138.814 83.8774 138.509 83.5786 138.509 83.2135V83.1803C138.509 82.8151 138.814 82.5164 139.187 82.5164C139.56 82.5164 139.865 82.8151 139.865 83.1803V83.2135C139.865 83.6118 139.56 83.8774 139.187 83.8774ZM139.187 82.7155C138.916 82.7155 138.679 82.9479 138.679 83.2135V83.2467C138.679 83.5122 138.916 83.7446 139.187 83.7446C139.458 83.7446 139.696 83.5122 139.696 83.2467V83.2135C139.696 82.9479 139.458 82.7155 139.187 82.7155Z" fill="#001064"/>
<path d="M137.22 86.234C136.474 86.234 136.474 87.3627 137.22 87.3627C137.966 87.3627 137.966 86.234 137.22 86.234Z" fill="#001064"/>
<path d="M137.22 87.4295C136.813 87.4295 136.576 87.0975 136.576 86.7656C136.576 86.5996 136.644 86.4336 136.746 86.334C136.847 86.2012 137.017 86.1348 137.22 86.1348C137.627 86.1348 137.864 86.4668 137.864 86.7987C137.864 86.9647 137.796 87.1307 137.695 87.2303C137.593 87.3631 137.424 87.4295 137.22 87.4295ZM137.22 86.3008C137.085 86.3008 136.949 86.3672 136.847 86.4336C136.78 86.5332 136.712 86.6328 136.712 86.7656C136.712 86.9979 136.847 87.2635 137.186 87.2635C137.322 87.2635 137.458 87.1971 137.559 87.1307C137.627 87.0311 137.695 86.9315 137.695 86.7987C137.695 86.5664 137.525 86.3008 137.22 86.3008Z" fill="#001064"/>
<path d="M121.282 86.8646C120.977 86.8646 120.706 87.1302 120.706 87.429V87.4622C120.706 87.7609 120.977 88.0265 121.282 88.0265C121.587 88.0265 121.858 87.7609 121.858 87.4622V87.429C121.892 87.1302 121.621 86.8646 121.282 86.8646Z" fill="#001064"/>
<path d="M121.282 88.1264C120.91 88.1264 120.604 87.8277 120.604 87.4625V87.4293C120.604 87.0641 120.91 86.7654 121.282 86.7654C121.655 86.7654 121.96 87.0641 121.96 87.4293V87.4625C121.96 87.8277 121.655 88.1264 121.282 88.1264ZM121.282 86.9646C121.011 86.9646 120.774 87.1969 120.774 87.4625C120.774 87.7281 121.011 87.9604 121.282 87.9604C121.554 87.9604 121.791 87.7281 121.791 87.4625V87.4293C121.791 87.1637 121.554 86.9646 121.282 86.9646Z" fill="#001064"/>
<path d="M117.246 87.3624H117.212C116.907 87.3624 116.636 87.628 116.636 87.9268C116.636 88.2255 116.907 88.4911 117.212 88.4911H117.246C117.551 88.4911 117.823 88.2255 117.823 87.9268C117.823 87.628 117.551 87.3624 117.246 87.3624Z" fill="#001064"/>
<path d="M117.247 88.558H117.213C116.84 88.558 116.535 88.2592 116.535 87.894C116.535 87.5289 116.84 87.2301 117.213 87.2301H117.247C117.62 87.2301 117.925 87.5289 117.925 87.894C117.891 88.2592 117.62 88.558 117.247 88.558ZM117.213 87.4293C116.942 87.4293 116.705 87.6617 116.705 87.9272C116.705 88.1928 116.942 88.4252 117.213 88.4252H117.247C117.518 88.4252 117.755 88.1928 117.755 87.9272C117.755 87.6617 117.518 87.4293 117.247 87.4293H117.213Z" fill="#001064"/>
<path d="M121.655 82.2174C121.418 81.985 121.045 81.985 120.842 82.2174L120.808 82.2506C120.571 82.4829 120.571 82.8481 120.808 83.0473C121.045 83.2797 121.418 83.2797 121.621 83.0473L121.655 83.0141C121.893 82.8149 121.893 82.4497 121.655 82.2174Z" fill="#001064"/>
<path d="M121.215 83.3131C121.045 83.3131 120.876 83.2467 120.74 83.114C120.503 82.8816 120.503 82.45 120.74 82.1845L120.774 82.1513C121.011 81.9189 121.452 81.9189 121.723 82.1513C121.859 82.2841 121.926 82.45 121.926 82.616C121.926 82.782 121.859 82.948 121.723 83.0808L121.689 83.114C121.554 83.2467 121.384 83.3131 121.215 83.3131ZM121.248 82.1513C121.113 82.1513 120.977 82.1845 120.909 82.2841L120.876 82.3172C120.672 82.5164 120.672 82.8152 120.876 83.0144C121.045 83.1803 121.384 83.1803 121.587 83.0144L121.621 82.9812C121.723 82.8816 121.757 82.782 121.757 82.6492C121.757 82.5164 121.689 82.3836 121.621 82.3172C121.52 82.1845 121.384 82.1513 121.248 82.1513Z" fill="#001064"/>
<path d="M118.603 84.6072C118.603 84.574 118.569 84.5408 118.569 84.5408C118.433 84.2752 118.027 84.1756 117.789 84.3416C117.518 84.5076 117.45 84.8395 117.586 85.1051C117.586 85.1383 117.62 85.1715 117.62 85.1715C117.755 85.437 118.162 85.5366 118.399 85.3707C118.671 85.2047 118.738 84.8727 118.603 84.6072Z" fill="#001064"/>
<path d="M118.095 85.5372C117.857 85.5372 117.62 85.4044 117.518 85.2052L117.484 85.1388C117.315 84.8069 117.417 84.4417 117.722 84.2425C117.823 84.1761 117.925 84.1429 118.061 84.1429C118.298 84.1429 118.535 84.2757 118.637 84.4749L118.671 84.5413C118.84 84.8733 118.739 85.2384 118.434 85.4376C118.332 85.504 118.23 85.5372 118.095 85.5372ZM118.061 84.3421C117.959 84.3421 117.891 84.3753 117.823 84.4085C117.586 84.5413 117.518 84.8401 117.654 85.0724L117.688 85.1388C117.756 85.2716 117.925 85.3712 118.129 85.3712C118.23 85.3712 118.298 85.338 118.366 85.3048C118.603 85.172 118.671 84.8733 118.535 84.6409L118.501 84.5745C118.4 84.4085 118.264 84.3421 118.061 84.3421Z" fill="#001064"/>
<path d="M140.509 86.1343C139.763 86.1343 139.763 87.263 140.509 87.263C141.255 87.263 141.255 86.1343 140.509 86.1343Z" fill="#001064"/>
<path d="M140.509 87.3298C140.103 87.3298 139.865 86.9978 139.865 86.6658C139.865 86.4998 139.933 86.3339 140.035 86.2343C140.136 86.1015 140.306 86.0351 140.509 86.0351C140.916 86.0351 141.153 86.3671 141.153 86.699C141.153 86.865 141.086 87.031 140.984 87.1306C140.882 87.2634 140.713 87.3298 140.509 87.3298ZM140.509 86.2011C140.374 86.2011 140.238 86.2675 140.136 86.3339C140.069 86.4335 140.001 86.533 140.001 86.6658C140.001 86.8982 140.136 87.1638 140.475 87.1638C140.611 87.1638 140.747 87.0974 140.848 87.031C140.916 86.9314 140.984 86.8318 140.984 86.699C140.984 86.4666 140.848 86.2011 140.509 86.2011Z" fill="#001064"/>
<path d="M119.365 75.6325C119.428 75.126 119.444 74.5799 119.617 74.0953C119.726 73.7885 119.91 73.5222 120.095 73.2629C120.536 72.6449 121.305 72.5633 121.979 72.6814C122.248 72.7285 122.543 72.8582 122.762 73.0289C122.861 73.1066 122.965 73.1551 123.037 73.2671C123.115 73.3916 123.177 73.5191 123.247 73.6483C123.501 74.1177 123.66 74.6171 123.66 75.1533" stroke="#001064" stroke-width="2.13681" stroke-linecap="round" stroke-linejoin="round"/>
<path d="M135.934 75.6325C135.997 75.126 136.013 74.5799 136.186 74.0953C136.296 73.7885 136.48 73.5222 136.665 73.2629C137.106 72.6449 137.875 72.5633 138.549 72.6814C138.818 72.7285 139.113 72.8582 139.331 73.0289C139.431 73.1066 139.535 73.1551 139.606 73.2671C139.685 73.3916 139.747 73.5191 139.817 73.6483C140.07 74.1177 140.23 74.6171 140.23 75.1533" stroke="#001064" stroke-width="2.13681" stroke-linecap="round" stroke-linejoin="round"/>
<rect x="162.568" y="75.1572" width="23.3806" height="4.33033" rx="2.13681" fill="#001064"/>
<rect x="162.567" y="83.818" width="14.2409" height="3.24775" rx="1.62387" fill="#B7BACB"/>
<rect x="126.594" y="134.158" width="21.244" height="4.33033" rx="2.13681" fill="#001064"/>
<rect x="126.593" y="142.819" width="12.9395" height="3.24775" rx="1.62387" fill="#B7BACB"/>
<g clip-path="url(#clip0)">
<path d="M103.407 123.06C103.279 123.081 103.114 123.076 103.002 122.995C99.7719 121.175 95.518 121.282 92.4308 123.253C92.1327 123.435 91.754 123.332 91.5454 123.068C91.3635 122.767 91.4638 122.385 91.7245 122.176C95.2323 119.97 100.009 119.842 103.607 121.899C103.9 122.083 104.029 122.46 103.849 122.755C103.78 122.932 103.599 123.029 103.407 123.06Z" fill="#001064"/>
<path d="M105.192 144.64C104.155 144.64 103.182 144.117 102.728 143.201C102.566 142.873 102.696 142.514 103.02 142.35C103.344 142.186 103.701 142.317 103.863 142.644C104.155 143.266 105.062 143.528 105.808 143.233C106.521 142.939 107.105 142.219 107.396 141.238C107.688 140.289 107.688 139.242 107.688 138.228V129.557C107.688 127.921 107.688 125.926 108.596 124.224C109.406 122.687 110.93 121.574 112.648 121.247C114.366 120.92 116.181 121.378 117.51 122.523C117.769 122.752 117.802 123.145 117.575 123.406C117.348 123.668 116.959 123.701 116.7 123.472C115.662 122.588 114.204 122.229 112.907 122.49C111.578 122.752 110.379 123.635 109.763 124.846C109.017 126.253 109.017 128.02 109.017 129.59V138.26C109.017 139.307 109.017 140.518 108.661 141.63C108.239 142.972 107.396 143.986 106.327 144.411C105.938 144.575 105.549 144.64 105.192 144.64Z" fill="#001064"/>
<path d="M99.195 133.287C98.4495 133.287 97.7039 133.255 97.0232 133.222L96.6018 133.189C96.3749 133.189 96.148 133.189 95.8886 133.157C94.592 133.157 93.0036 133.124 92.0636 132.339C90.9614 131.422 91.0263 129.819 91.0587 128.969C91.0911 128.151 91.1559 126.613 92.2581 125.795C92.9064 125.304 93.6844 125.272 94.203 125.272C94.4299 125.272 94.6568 125.272 94.8837 125.304C95.4024 125.337 95.9535 125.37 96.5045 125.37C97.6067 125.402 98.7412 125.468 99.8433 125.599C100.103 125.631 100.394 125.631 100.751 125.631C101.756 125.664 103.02 125.664 103.766 126.482C104.349 127.136 104.414 128.085 104.446 128.707C104.446 128.805 104.446 128.936 104.479 129.067C104.544 129.983 104.641 131.259 103.993 132.011C103.798 132.24 103.539 132.437 103.182 132.6C102.177 133.091 100.913 133.287 99.195 133.287ZM94.2354 126.548C93.6844 126.548 93.2954 126.646 93.036 126.842C92.485 127.267 92.3877 128.183 92.3553 129.034C92.3229 129.983 92.3553 130.932 92.874 131.357C93.4899 131.848 94.8837 131.881 95.921 131.881C96.2128 131.881 96.4721 131.881 96.699 131.913L97.1204 131.946C97.8012 131.979 98.4819 132.011 99.2274 132.011C100.751 132.011 101.853 131.848 102.696 131.455C102.89 131.357 102.988 131.292 103.052 131.226C103.344 130.866 103.279 129.819 103.247 129.198C103.247 129.067 103.215 128.936 103.215 128.805C103.182 128.216 103.15 127.693 102.858 127.365C102.501 126.94 101.529 126.94 100.751 126.94C100.394 126.94 100.038 126.94 99.7137 126.875C98.644 126.744 97.5418 126.678 96.4721 126.646C95.921 126.613 95.37 126.613 94.8189 126.58C94.6244 126.58 94.4299 126.548 94.2354 126.548Z" fill="#001064"/>
<path d="M108.337 130.212C108.272 130.212 108.175 130.212 108.11 130.179C106.748 129.688 106.035 129.819 104.609 130.081L104.155 130.179C103.798 130.245 103.474 130.016 103.409 129.656C103.345 129.296 103.572 128.969 103.928 128.903L104.382 128.805C105.873 128.543 106.846 128.347 108.564 128.969C108.888 129.099 109.05 129.459 108.953 129.787C108.823 130.048 108.596 130.212 108.337 130.212Z" fill="#001064"/>
<path d="M110.962 133.189C110.314 133.189 109.568 133.124 108.92 132.731C107.267 131.684 107.818 128.314 108.045 127.463C108.239 126.809 108.628 125.86 109.86 125.566C110.184 125.5 110.508 125.468 110.897 125.468C111.157 125.468 111.449 125.5 111.675 125.5C112.583 125.566 113.556 125.599 114.787 125.599C115.338 125.599 115.889 125.599 116.441 125.599H116.538C118.256 125.599 119.455 126.122 119.974 127.136C120.687 128.51 120.136 130.67 119.941 131.324C119.423 133.091 118.061 133.124 116.992 133.156L111.351 133.189C111.222 133.189 111.092 133.189 110.962 133.189ZM110.93 126.711C110.638 126.711 110.411 126.744 110.217 126.776C109.698 126.907 109.471 127.169 109.309 127.791C108.953 129.034 108.953 131.193 109.633 131.619C110.087 131.913 110.735 131.88 111.351 131.88L117.024 131.75C118.321 131.717 118.58 131.586 118.774 130.833C119.066 129.819 119.293 128.347 118.904 127.594C118.515 126.875 117.316 126.744 116.603 126.744H116.505C115.954 126.744 115.403 126.744 114.852 126.744C113.588 126.744 112.583 126.711 111.643 126.646C111.384 126.744 111.157 126.711 110.93 126.711Z" fill="#001064"/>
<path d="M85.3213 129.721C85.2889 129.721 85.2565 129.721 85.2241 129.721C84.2516 129.59 83.4736 128.641 83.4736 127.627C83.4412 126.744 83.9598 125.86 84.7702 125.337C85.4185 124.911 86.2614 124.748 87.169 124.781C89.4057 124.944 91.772 126.809 92.3555 128.87C92.4527 129.197 92.2583 129.557 91.9341 129.655C91.6099 129.754 91.2534 129.557 91.1561 129.23C90.7347 127.66 88.8222 126.187 87.1042 126.089C86.6503 126.057 86.0344 126.089 85.4834 126.449C85.0296 126.744 84.7702 127.202 84.7702 127.627C84.7702 128.052 85.0944 128.445 85.451 128.51C85.8075 128.576 86.0344 128.87 86.002 129.23C85.9048 129.492 85.6455 129.721 85.3213 129.721Z" fill="#001064"/>
<path d="M103.766 151.609C103.636 151.609 103.474 151.609 103.344 151.609C101.4 151.478 99.5843 150.464 98.4173 148.861C98.2228 148.567 98.2876 148.174 98.5469 147.978C98.8387 147.781 99.2277 147.847 99.4222 148.108C100.33 149.384 101.821 150.235 103.409 150.333C104.965 150.431 106.554 149.81 107.623 148.665C107.85 148.403 108.272 148.403 108.531 148.632C108.79 148.861 108.79 149.286 108.563 149.548C107.332 150.857 105.549 151.609 103.766 151.609Z" fill="#001064"/>
<path d="M111.256 130.053C111.694 129.217 112.39 128.009 113.343 128.465C113.482 128.531 113.612 128.609 113.754 128.667C113.848 128.706 113.938 128.762 114.01 128.845C114.149 129.005 114.328 129.148 114.442 129.334C114.552 129.512 114.659 129.799 114.659 130.028" stroke="#001064" stroke-width="2.13681" stroke-linecap="round" stroke-linejoin="round"/>
<path d="M96.5137 130.053C96.951 129.217 97.6477 128.009 98.6006 128.465C98.7392 128.531 98.8695 128.609 99.0113 128.667C99.1055 128.706 99.195 128.762 99.2678 128.845C99.4066 129.005 99.5851 129.148 99.6998 129.334C99.8095 129.512 99.9158 129.799 99.9158 130.028" stroke="#001064" stroke-width="2.13681" stroke-linecap="round" stroke-linejoin="round"/>
</g>
<ellipse cx="156.645" cy="135.549" rx="4.4135" ry="4.40766" fill="white"/>
<path d="M156.878 130.369C153.886 130.369 151.458 132.794 151.458 135.782C151.458 138.77 153.886 141.195 156.878 141.195C159.87 141.195 162.298 138.77 162.298 135.782C162.298 132.794 159.87 130.369 156.878 130.369ZM155.409 138.104L153.463 136.161C153.252 135.95 153.252 135.609 153.463 135.398C153.675 135.187 154.016 135.187 154.228 135.398L155.794 136.957L159.523 133.233C159.734 133.021 160.076 133.021 160.287 133.233C160.499 133.444 160.499 133.785 160.287 133.996L156.173 138.104C155.968 138.315 155.621 138.315 155.409 138.104Z" fill="#001064"/>
<ellipse cx="195.263" cy="76.0076" rx="4.4135" ry="4.40766" fill="white"/>
<path d="M195.496 70.8262C192.504 70.8262 190.076 73.2512 190.076 76.2391C190.076 79.227 192.504 81.652 195.496 81.652C198.488 81.652 200.916 79.227 200.916 76.2391C200.916 73.2512 198.488 70.8262 195.496 70.8262ZM194.027 78.5612L192.081 76.618C191.87 76.4069 191.87 76.0659 192.081 75.8548C192.293 75.6437 192.634 75.6437 192.845 75.8548L194.412 77.4137L198.141 73.6896C198.352 73.4785 198.694 73.4785 198.905 73.6896C199.116 73.9007 199.116 74.2417 198.905 74.4528L194.791 78.5612C194.585 78.7723 194.238 78.7723 194.027 78.5612Z" fill="#001064"/>
<rect x="2.0434" y="1.95576" width="75.5241" height="26.0242" rx="3.11771" transform="matrix(0.999761 -0.0218811 0.0219392 0.999759 3.45123 54.718)" fill="#FEF6E7" stroke="#001064" stroke-width="4"/>
<defs>
<clipPath id="clip0">
<rect width="36.8566" height="42.762" fill="white" transform="translate(83.4722 118.237)"/>
</clipPath>
</defs>
</svg>
