<svg width="544" height="98" viewBox="0 0 544 98" fill="none" xmlns="http://www.w3.org/2000/svg">
<g filter="url(#filter0_d)">
<rect x="12" width="520" height="75" rx="10" fill="#EEF3FF"/>
<rect x="12.625" y="0.625" width="518.75" height="73.75" rx="9.375" stroke="#BCC5D9" stroke-opacity="0.6" stroke-width="1.25"/>
<path d="M33.8 44.5H37.54C42.54 44.5 44.82 41.36 44.82 37.4V37.22C44.82 33.24 42.5 30.2 37.58 30.2H33.8V44.5ZM35.54 43.08V31.6H37.48C41.42 31.6 43.02 33.92 43.02 37.22V37.38C43.02 40.88 41.18 43.08 37.5 43.08H35.54ZM51.3208 44.68C54.3008 44.68 56.4808 42.5 56.4808 39.34V39.18C56.4808 36.04 54.3008 33.86 51.3408 33.86C48.3808 33.86 46.2008 36.06 46.2008 39.2V39.36C46.2008 42.42 48.3408 44.68 51.3208 44.68ZM51.3408 43.3C49.2208 43.3 47.9208 41.74 47.9208 39.36V39.2C47.9208 36.8 49.2408 35.24 51.3408 35.24C53.4208 35.24 54.7608 36.8 54.7608 39.22V39.36C54.7608 41.72 53.4408 43.3 51.3408 43.3ZM64.0341 48.14H65.7141L71.4941 34.04H69.7941L66.8941 41.54L63.6941 34.04H61.9141L66.0141 43.42L64.0341 48.14ZM77.102 44.68C80.082 44.68 82.262 42.5 82.262 39.34V39.18C82.262 36.04 80.082 33.86 77.122 33.86C74.162 33.86 71.982 36.06 71.982 39.2V39.36C71.982 42.42 74.122 44.68 77.102 44.68ZM77.122 43.3C75.002 43.3 73.702 41.74 73.702 39.36V39.2C73.702 36.8 75.022 35.24 77.122 35.24C79.202 35.24 80.542 36.8 80.542 39.22V39.36C80.542 41.72 79.222 43.3 77.122 43.3ZM87.7473 44.68C89.4273 44.68 90.5873 43.82 91.0673 42.84V44.5H92.7273V34.04H91.0673V40.38C91.0673 42.26 89.6673 43.24 88.1873 43.24C86.5473 43.24 85.7673 42.42 85.7673 40.58V34.04H84.1073V40.66C84.1073 43.54 85.6673 44.68 87.7473 44.68ZM102.225 44.5H104.045L106.485 36.66L108.665 44.5H110.505L113.765 34.04H112.065L109.605 42.46L107.225 34.04H105.785L103.245 42.46L100.805 34.04H99.0053L102.225 44.5ZM117.804 44.68C119.344 44.68 120.284 44.16 121.064 43.18V44.5H122.724V37.6C122.724 34.68 120.904 33.86 118.904 33.86C116.884 33.86 114.984 34.74 114.764 37.12H116.424C116.584 35.84 117.384 35.24 118.824 35.24C120.424 35.24 121.064 35.94 121.064 37.6V38.36H119.564C116.884 38.36 114.324 39.18 114.324 41.6C114.324 43.74 115.864 44.68 117.804 44.68ZM117.964 43.36C116.504 43.36 115.984 42.68 115.984 41.6C115.984 40.06 117.524 39.54 119.624 39.54H121.064V40.84C121.064 42.46 119.724 43.36 117.964 43.36ZM125.36 44.5H127.02V38.16C127.02 36.28 128.4 35.3 129.94 35.3C131.62 35.3 132.4 36.12 132.4 37.96V44.5H134.06V38.08C134.06 35.04 132.54 33.86 130.38 33.86C128.66 33.86 127.5 34.72 127.02 35.7V34.04H125.36V44.5ZM139.868 44.64C140.548 44.64 140.948 44.54 141.288 44.42V43.02C140.928 43.16 140.528 43.24 140.008 43.24C139.168 43.24 138.708 42.74 138.708 41.72V35.44H141.148V34.04H138.708V31.66H137.048V34.04H135.548V35.44H137.048V41.88C137.048 43.52 137.968 44.64 139.868 44.64ZM151.02 44.64C151.7 44.64 152.1 44.54 152.44 44.42V43.02C152.08 43.16 151.68 43.24 151.16 43.24C150.32 43.24 149.86 42.74 149.86 41.72V35.44H152.3V34.04H149.86V31.66H148.2V34.04H146.7V35.44H148.2V41.88C148.2 43.52 149.12 44.64 151.02 44.64ZM158.665 44.68C161.645 44.68 163.825 42.5 163.825 39.34V39.18C163.825 36.04 161.645 33.86 158.685 33.86C155.725 33.86 153.545 36.06 153.545 39.2V39.36C153.545 42.42 155.685 44.68 158.665 44.68ZM158.685 43.3C156.565 43.3 155.265 41.74 155.265 39.36V39.2C155.265 36.8 156.585 35.24 158.685 35.24C160.765 35.24 162.105 36.8 162.105 39.22V39.36C162.105 41.72 160.785 43.3 158.685 43.3ZM171.278 31.86C171.878 31.86 172.378 31.36 172.378 30.76C172.378 30.16 171.878 29.66 171.278 29.66C170.678 29.66 170.178 30.16 170.178 30.76C170.178 31.36 170.678 31.86 171.278 31.86ZM170.478 44.5H172.138V34.04H170.478V44.5ZM174.91 44.5H176.57V38.16C176.57 36.28 177.95 35.3 179.49 35.3C181.17 35.3 181.95 36.12 181.95 37.96V44.5H183.61V38.08C183.61 35.04 182.09 33.86 179.93 33.86C178.21 33.86 177.05 34.72 176.57 35.7V34.04H174.91V44.5ZM190.579 44.68C193.099 44.68 194.919 43 195.139 40.74H193.599C193.419 42.44 192.079 43.3 190.599 43.3C188.579 43.3 187.179 41.94 187.179 39.38V39.22C187.179 36.76 188.639 35.24 190.539 35.24C191.979 35.24 193.179 35.86 193.439 37.52H195.079C194.759 34.86 192.719 33.86 190.539 33.86C187.739 33.86 185.459 36.02 185.459 39.22V39.38C185.459 42.62 187.659 44.68 190.579 44.68ZM197.06 44.5H198.74V29.04H197.06V44.5ZM205.052 44.68C206.732 44.68 207.892 43.82 208.372 42.84V44.5H210.032V34.04H208.372V40.38C208.372 42.26 206.972 43.24 205.492 43.24C203.852 43.24 203.072 42.42 203.072 40.58V34.04H201.412V40.66C201.412 43.54 202.972 44.68 205.052 44.68ZM216.702 44.68C218.222 44.68 219.682 43.72 220.282 42.7V44.5H221.942V29.04H220.282V35.72C219.682 34.7 218.602 33.86 216.862 33.86C213.982 33.86 211.982 36.12 211.982 39.32V39.48C211.982 42.74 213.962 44.68 216.702 44.68ZM216.882 43.3C215.122 43.3 213.702 42.04 213.702 39.4V39.24C213.702 36.7 214.942 35.24 217.022 35.24C219.062 35.24 220.342 36.5 220.342 39.18V39.34C220.342 42.02 218.822 43.3 216.882 43.3ZM228.956 44.68C231.316 44.68 233.056 43.58 233.416 41.48H231.756C231.536 42.7 230.596 43.3 228.976 43.3C226.836 43.3 225.696 41.98 225.616 39.6H233.496V39.06C233.496 35.32 231.216 33.86 228.796 33.86C225.916 33.86 223.896 36.06 223.896 39.22V39.38C223.896 42.6 225.996 44.68 228.956 44.68ZM225.676 38.26C225.956 36.4 227.096 35.24 228.796 35.24C230.516 35.24 231.636 36.1 231.796 38.26H225.676ZM240.086 44.5H241.746V38.1C241.746 36.22 243.146 35.3 244.506 35.3C245.946 35.3 246.726 36.06 246.726 37.9V44.5H248.386V38.1C248.386 36.22 249.786 35.3 251.146 35.3C252.586 35.3 253.366 36.06 253.366 37.9V44.5H255.026V38.02C255.026 34.98 253.386 33.86 251.506 33.86C250.206 33.86 248.646 34.46 247.926 35.82C247.386 34.42 246.206 33.86 244.866 33.86C243.366 33.86 242.226 34.66 241.746 35.64V34.04H240.086V44.5ZM262.004 44.68C264.984 44.68 267.164 42.5 267.164 39.34V39.18C267.164 36.04 264.984 33.86 262.024 33.86C259.064 33.86 256.884 36.06 256.884 39.2V39.36C256.884 42.42 259.024 44.68 262.004 44.68ZM262.024 43.3C259.904 43.3 258.604 41.74 258.604 39.36V39.2C258.604 36.8 259.924 35.24 262.024 35.24C264.104 35.24 265.444 36.8 265.444 39.22V39.36C265.444 41.72 264.124 43.3 262.024 43.3ZM269.11 44.5H270.77V38.76C270.77 36.18 272.11 35.52 274.21 35.42V33.86C272.33 33.92 271.43 34.74 270.77 35.92V34.04H269.11V44.5ZM279.991 44.68C282.351 44.68 284.091 43.58 284.451 41.48H282.791C282.571 42.7 281.631 43.3 280.011 43.3C277.871 43.3 276.731 41.98 276.651 39.6H284.531V39.06C284.531 35.32 282.251 33.86 279.831 33.86C276.951 33.86 274.931 36.06 274.931 39.22V39.38C274.931 42.6 277.031 44.68 279.991 44.68ZM276.711 38.26C276.991 36.4 278.131 35.24 279.831 35.24C281.551 35.24 282.671 36.1 282.831 38.26H276.711ZM295.061 44.68C296.581 44.68 298.041 43.72 298.641 42.7V44.5H300.301V29.04H298.641V35.72C298.041 34.7 296.961 33.86 295.221 33.86C292.341 33.86 290.341 36.12 290.341 39.32V39.48C290.341 42.74 292.321 44.68 295.061 44.68ZM295.241 43.3C293.481 43.3 292.061 42.04 292.061 39.4V39.24C292.061 36.7 293.301 35.24 295.381 35.24C297.421 35.24 298.701 36.5 298.701 39.18V39.34C298.701 42.02 297.181 43.3 295.241 43.3ZM307.315 44.68C309.675 44.68 311.415 43.58 311.775 41.48H310.115C309.895 42.7 308.955 43.3 307.335 43.3C305.195 43.3 304.055 41.98 303.975 39.6H311.855V39.06C311.855 35.32 309.575 33.86 307.155 33.86C304.275 33.86 302.255 36.06 302.255 39.22V39.38C302.255 42.6 304.355 44.68 307.315 44.68ZM304.035 38.26C304.315 36.4 305.455 35.24 307.155 35.24C308.875 35.24 309.995 36.1 310.155 38.26H304.035ZM316.958 44.64C317.638 44.64 318.038 44.54 318.378 44.42V43.02C318.018 43.16 317.618 43.24 317.098 43.24C316.258 43.24 315.798 42.74 315.798 41.72V35.44H318.238V34.04H315.798V31.66H314.138V34.04H312.638V35.44H314.138V41.88C314.138 43.52 315.058 44.64 316.958 44.64ZM322.98 44.68C324.52 44.68 325.46 44.16 326.24 43.18V44.5H327.9V37.6C327.9 34.68 326.08 33.86 324.08 33.86C322.06 33.86 320.16 34.74 319.94 37.12H321.6C321.76 35.84 322.56 35.24 324 35.24C325.6 35.24 326.24 35.94 326.24 37.6V38.36H324.74C322.06 38.36 319.5 39.18 319.5 41.6C319.5 43.74 321.04 44.68 322.98 44.68ZM323.14 43.36C321.68 43.36 321.16 42.68 321.16 41.6C321.16 40.06 322.7 39.54 324.8 39.54H326.24V40.84C326.24 42.46 324.9 43.36 323.14 43.36ZM331.375 31.86C331.975 31.86 332.475 31.36 332.475 30.76C332.475 30.16 331.975 29.66 331.375 29.66C330.775 29.66 330.275 30.16 330.275 30.76C330.275 31.36 330.775 31.86 331.375 31.86ZM330.575 44.5H332.235V34.04H330.575V44.5ZM335.048 44.5H336.728V29.04H335.048V44.5ZM342.74 44.68C345.28 44.68 346.58 43.4 346.58 41.5C346.58 39.28 345.06 38.8 342.9 38.4C340.98 38.06 340.46 37.68 340.46 36.74C340.46 35.84 341.24 35.24 342.44 35.24C343.76 35.24 344.4 35.74 344.64 36.88H346.24C345.96 34.62 344.34 33.86 342.46 33.86C340.82 33.86 338.92 34.86 338.92 36.8C338.92 38.62 339.84 39.38 342.56 39.88C344.18 40.18 345 40.54 345 41.64C345 42.76 344.3 43.3 342.72 43.3C341.04 43.3 340.38 42.52 340.26 41.28H338.64C338.74 43.42 340.24 44.68 342.74 44.68ZM349.994 40.46H351.474V39.6C351.474 38.38 352.334 37.54 353.234 36.68C354.194 35.76 355.194 34.82 355.194 33.34C355.194 31.66 354.114 30.02 351.394 30.02C348.954 30.02 347.294 31.66 347.154 34H348.714C348.854 32.42 349.874 31.4 351.374 31.4C352.854 31.4 353.514 32.22 353.514 33.4C353.514 34.36 352.834 35.08 352.054 35.86C351.054 36.84 349.994 37.84 349.994 39.46V40.46ZM350.694 44.6C351.394 44.6 351.974 44.04 351.974 43.32C351.974 42.6 351.394 42.04 350.694 42.04C349.994 42.04 349.414 42.6 349.414 43.32C349.414 44.04 349.994 44.6 350.694 44.6Z" fill="#001064"/>
<path d="M378.25 46.875C383.428 46.875 387.625 42.6777 387.625 37.5C387.625 32.3223 383.428 28.125 378.25 28.125C373.072 28.125 368.875 32.3223 368.875 37.5C368.875 42.6777 373.072 46.875 378.25 46.875Z" stroke="#001064" stroke-width="1.875" stroke-linecap="round" stroke-linejoin="round"/>
<path d="M378.25 41.25V37.5" stroke="#001064" stroke-width="1.875" stroke-linecap="round" stroke-linejoin="round"/>
<path d="M378.25 33.75H378.26" stroke="#001064" stroke-width="1.875" stroke-linecap="round" stroke-linejoin="round"/>
<rect x="447" y="20" width="65" height="35" rx="17.5" fill="#00199E"/>
<rect x="482" y="25" width="25" height="25" rx="12.5" fill="white"/>
</g>
<defs>
<filter id="filter0_d" x="0.8125" y="0" width="542.375" height="97.8411" filterUnits="userSpaceOnUse" color-interpolation-filters="sRGB">
<feFlood flood-opacity="0" result="BackgroundImageFix"/>
<feColorMatrix in="SourceAlpha" type="matrix" values="0 0 0 0 0 0 0 0 0 0 0 0 0 0 0 0 0 0 127 0"/>
<feOffset dy="11.6536"/>
<feGaussianBlur stdDeviation="5.59375"/>
<feColorMatrix type="matrix" values="0 0 0 0 0.736667 0 0 0 0 0.774444 0 0 0 0 0.85 0 0 0 0.8 0"/>
<feBlend mode="normal" in2="BackgroundImageFix" result="effect1_dropShadow"/>
<feBlend mode="normal" in="SourceGraphic" in2="effect1_dropShadow" result="shape"/>
</filter>
</defs>
</svg>
