<svg width="57" height="68" viewBox="0 0 57 68" fill="none" xmlns="http://www.w3.org/2000/svg">
<path d="M41.6743 8.14453H12.9802C11.8191 8.14453 10.8571 9.07067 10.8571 10.2026V65.8007C10.8571 66.9327 11.786 67.8588 12.9802 67.8588H54.877C56.038 67.8588 57 66.9327 57 65.8007V19.8413C57 19.2925 56.7678 18.778 56.3697 18.4007L46.4512 8.76196C46.0531 8.38464 45.5223 8.17883 44.9584 8.17883L41.6743 8.14453Z" fill="#001064"/>
<path d="M32.1743 1.35547H3.48018C2.31914 1.35547 1.35714 2.26056 1.35714 3.36678V57.7013C1.35714 58.8075 2.28597 59.7126 3.48018 59.7126H45.377C46.538 59.7126 47.5 58.8075 47.5 57.7013V12.7864C47.5 12.2501 47.2678 11.7472 46.8697 11.3785L36.9512 1.95886C36.5531 1.59012 36.0223 1.38899 35.4584 1.38899L32.1743 1.35547Z" fill="white"/>
<path fill-rule="evenodd" clip-rule="evenodd" d="M33.0631 0H3.61201C1.72076 0 0.000556946 1.44716 0.000556946 3.41644V57.655C0.000556946 59.6104 1.6717 61.0714 3.61201 61.0714H46.6034C48.4946 61.0714 50.2148 59.6243 50.2148 57.655V12.8194C50.2148 11.8653 49.79 10.9978 49.1108 10.3823L38.9323 0.978508L38.9257 0.972593C38.2395 0.354189 37.3465 0.0353397 36.4338 0.0334717L33.0631 0ZM33.0486 2.81736L36.4185 2.85083H36.4257C36.6645 2.85083 36.8558 2.93146 36.9844 3.04518L47.1603 12.4465L47.1669 12.4524C47.3004 12.5727 47.3489 12.7062 47.3489 12.8194V57.655C47.3489 57.8942 47.0949 58.2541 46.6034 58.2541H3.61201C3.10149 58.2541 2.86645 57.9081 2.86645 57.655V3.41644C2.86645 3.17718 3.12052 2.81736 3.61201 2.81736H33.0486Z" fill="#001066"/>
<path d="M38.0326 1.35547L38.0003 10.0412C38.0003 11.2287 38.9697 12.2126 40.1976 12.2126H48.8574" fill="#001C63"/>
<path d="M23.1925 35.6981H26.8447L27.5528 17H22.5217L23.1925 35.6981ZM24.9814 44C26.6584 44 28 42.7285 28 41.1205C28 39.4751 26.6584 38.2036 24.9814 38.2036C23.3416 38.2036 22 39.4751 22 41.1205C22 42.7285 23.3416 44 24.9814 44Z" fill="#001064"/>
</svg>
