<svg width="126" height="94" viewBox="0 0 126 94" fill="none" xmlns="http://www.w3.org/2000/svg">
<rect y="22.9297" width="94.8837" height="48.1395" rx="24.0698" fill="#001064"/>
<circle cx="68.0235" cy="46.3009" r="18.4884" fill="white"/>
<path d="M85.8145 18.7442C89.2446 13.6799 93.866 9.43739 98.1904 5.26906C99.1822 4.31301 101.667 1.00893 101.072 2.292" stroke="#F5D8BE" stroke-width="3.48837" stroke-linecap="round" stroke-linejoin="round"/>
<path d="M99.7676 29.9072C104.858 29.3154 109.4 25.83 114.049 23.6692C115.522 22.9849 117.062 21.9637 118.605 21.5352" stroke="#F5D8BE" stroke-width="3.48837" stroke-linecap="round" stroke-linejoin="round"/>
<path d="M106.746 46.6523C112.56 46.6523 118.374 46.6523 124.188 46.6523" stroke="#F5D8BE" stroke-width="3.48837" stroke-linecap="round" stroke-linejoin="round"/>
<path d="M102.559 64.0938C106.918 66.5814 110.645 70.2532 114.409 73.5694C115.575 74.5972 116.831 75.5626 117.907 76.6519" stroke="#F5D8BE" stroke-width="3.48837" stroke-linecap="round" stroke-linejoin="round"/>
<path d="M85.1172 76.6523C85.8511 80.6857 88.0079 83.826 89.4933 87.4804C90.1399 89.0714 91.5837 90.344 92.0939 92.0012" stroke="#F5D8BE" stroke-width="3.48837" stroke-linecap="round" stroke-linejoin="round"/>
</svg>
