<svg width="143" height="163" viewBox="0 0 143 163" fill="none" xmlns="http://www.w3.org/2000/svg">
<g clip-path="url(#clip0)">
<path d="M0.0394794 34.0609C7.46014 32.6793 14.698 31.6249 21.7897 30.0252C35.7902 26.862 49.1328 21.8446 61.8539 15.2275C62.9506 14.6457 63.7548 14.6821 64.8514 15.2275C81.228 23.6625 98.5185 29.4798 116.723 32.4248C119.94 32.9702 123.23 33.261 126.666 33.6973C126.666 34.4609 126.666 35.1517 126.666 35.8788C126.666 53.4034 126.922 70.8916 126.629 88.4162C126.154 116.63 111.386 148.552 73.4418 160.66C73.0397 160.805 72.6011 160.878 72.2355 161.06C66.0943 163.786 60.0993 163.132 53.8849 160.95C41.31 156.66 29.978 150.479 20.7661 140.772C10.0921 129.501 3.87775 116.012 1.28235 100.851C0.441584 95.9787 0.112589 90.9976 0.0760343 86.0165C-0.0701855 69.3646 0.0394794 52.6762 0.0394794 36.0243C0.0394794 35.3335 0.0394794 34.6063 0.0394794 34.0609Z" fill="#001064"/>
<path d="M38.2903 18.6347L38.2915 18.6344C52.5624 15.4102 66.1489 10.3047 79.0837 3.58803C95.7395 12.1538 113.342 18.0724 131.881 21.0731C134.129 21.4536 136.481 21.7237 138.779 21.9875C138.818 21.992 138.857 21.9965 138.897 22.001C138.899 27.3026 138.924 32.5865 138.948 37.8608C139.004 49.7766 139.059 61.6429 138.86 73.5526C138.404 100.632 124.301 130.972 88.1084 142.521L88.0447 142.541L87.9819 142.564H87.9803C87.9775 142.565 87.9711 142.567 87.9604 142.571C87.9438 142.576 87.9206 142.583 87.8869 142.593C87.8522 142.603 87.8142 142.614 87.7628 142.628L87.7403 142.634C87.6966 142.647 87.6427 142.662 87.5889 142.677C87.3714 142.74 86.9507 142.862 86.4972 143.077C81.4858 145.286 76.4978 144.852 70.7747 142.843L70.7601 142.838L70.7455 142.833C58.5373 138.668 47.7523 132.743 39.0379 123.56C28.8899 112.845 22.9543 100.011 20.4626 85.4554L20.4618 85.4507C19.6622 80.8174 19.342 76.0355 19.3064 71.1862V71.1811C19.2042 59.543 19.2272 47.8981 19.2502 36.2383C19.2594 31.5541 19.2687 26.8675 19.2698 22.178C20.7658 21.9122 22.2695 21.6526 23.7759 21.3924C28.6425 20.5521 33.5374 19.7069 38.2903 18.6347Z" fill="#55DBA4" stroke="#001064" stroke-width="7"/>
<path d="M50.8926 73.8663L67.401 90.6821L109.188 48.1172" stroke="#001064" stroke-width="6"/>
</g>
<defs>
<clipPath id="clip0">
<rect width="143" height="163" fill="white"/>
</clipPath>
</defs>
</svg>
