<svg width="366" height="223" viewBox="0 0 366 223" fill="none" xmlns="http://www.w3.org/2000/svg">
<g clip-path="url(#clip0)">
<g filter="url(#filter0_d)">
<path d="M338.184 1.99512H27.3933C25.519 1.99512 23.9995 3.51458 23.9995 5.38893V217.502C23.9995 219.377 25.519 220.896 27.3933 220.896H338.184C340.058 220.896 341.578 219.377 341.578 217.502V5.38893C341.578 3.51458 340.058 1.99512 338.184 1.99512Z" fill="#FAFAFA"/>
<path d="M338.184 1.82543H27.3933C25.4252 1.82543 23.8298 3.42087 23.8298 5.38893V217.502C23.8298 219.47 25.4252 221.065 27.3933 221.065H338.184C340.152 221.065 341.748 219.47 341.748 217.502V5.38893C341.748 3.42087 340.152 1.82543 338.184 1.82543Z" stroke="#BCC5D9" stroke-opacity="0.6" stroke-width="0.339381"/>
</g>
<path d="M23.9995 5.38892C23.9995 3.51457 25.519 1.99512 27.3933 1.99512H338.184C340.058 1.99512 341.578 3.51458 341.578 5.38893V26.7276H23.9995V5.38892Z" fill="white"/>
<path d="M341.999 26.7275H23.999V31.5263H341.999V26.7275Z" fill="url(#paint0_linear)" fill-opacity="0.4"/>
<path d="M178.566 44.7173H43.1335C41.2592 44.7173 39.7397 46.2368 39.7397 48.1111V153.187C39.7397 155.062 41.2592 156.581 43.1335 156.581H178.566C180.44 156.581 181.96 155.062 181.96 153.187V48.1111C181.96 46.2368 180.44 44.7173 178.566 44.7173Z" fill="white"/>
<path d="M178.565 44.887H43.1335C41.3529 44.887 39.9094 46.3305 39.9094 48.1111V153.188C39.9094 154.969 41.3529 156.412 43.1335 156.412H178.565C180.346 156.412 181.789 154.969 181.789 153.188V48.1111C181.789 46.3305 180.346 44.887 178.565 44.887Z" stroke="#BCC5D9" stroke-opacity="0.6" stroke-width="0.339381"/>
<path d="M325.844 44.7173H190.412C188.537 44.7173 187.018 46.2368 187.018 48.1111V200.407C187.018 202.282 188.537 203.801 190.412 203.801H325.844C327.719 203.801 329.238 202.282 329.238 200.407V48.1111C329.238 46.2368 327.719 44.7173 325.844 44.7173Z" fill="white"/>
<path d="M325.844 44.887H190.412C188.631 44.887 187.188 46.3305 187.188 48.1111V200.407C187.188 202.188 188.631 203.631 190.412 203.631H325.844C327.625 203.631 329.068 202.188 329.068 200.407V48.1111C329.068 46.3305 327.625 44.887 325.844 44.887Z" stroke="#BCC5D9" stroke-opacity="0.6" stroke-width="0.339381"/>
<path d="M167.744 58.771H53.9552C52.6237 58.771 51.5444 59.8503 51.5444 61.1818V97.3959C51.5444 98.7274 52.6237 99.8067 53.9552 99.8067H167.744C169.075 99.8067 170.154 98.7274 170.154 97.3959V61.1818C170.154 59.8503 169.075 58.771 167.744 58.771Z" fill="#E9ECF2"/>
<path fill-rule="evenodd" clip-rule="evenodd" d="M115.203 77.3051C115.98 77.3051 116.609 76.6704 116.609 75.8874C116.609 75.1045 115.98 74.4697 115.203 74.4697C114.427 74.4697 113.798 75.1045 113.798 75.8874C113.798 76.6704 114.427 77.3051 115.203 77.3051ZM111.287 85.8899H103.223C102.75 85.8899 102.462 85.3701 102.712 84.9686L108.106 76.307C108.338 75.9342 108.877 75.9245 109.119 76.2911C109.962 77.5704 111.693 80.1991 113.181 82.4899L114.744 79.9666C114.97 79.6002 115.497 79.5834 115.747 79.9347L119.311 84.9472C119.593 85.344 119.314 85.8943 118.827 85.8991L115.374 85.933L111.287 85.8899Z" fill="#94A2AB"/>
<path d="M51.5449 118.957C51.5449 118.582 51.8488 118.278 52.2237 118.278H154.54C154.915 118.278 155.219 118.582 155.219 118.957V121.702C155.219 122.077 154.915 122.381 154.54 122.381H52.2237C51.8488 122.381 51.5449 122.077 51.5449 121.702V118.957Z" fill="#D3D9E6"/>
<path d="M173.583 111.611H52.2242C51.8493 111.611 51.5454 111.915 51.5454 112.29V115.035C51.5454 115.41 51.8493 115.714 52.2242 115.714H173.583C173.958 115.714 174.261 115.41 174.261 115.035V112.29C174.261 111.915 173.958 111.611 173.583 111.611Z" fill="#BCC5D9"/>
<path d="M147.995 132.634H52.2237C51.8488 132.634 51.5449 132.938 51.5449 133.313V135.778C51.5449 136.153 51.8488 136.457 52.2237 136.457H147.995C148.37 136.457 148.674 136.153 148.674 135.778V133.313C148.674 132.938 148.37 132.634 147.995 132.634Z" fill="#E0E7EC"/>
<path d="M169.405 126.264H52.2237C51.8488 126.264 51.5449 126.568 51.5449 126.943V129.408C51.5449 129.783 51.8488 130.087 52.2237 130.087H169.405C169.78 130.087 170.084 129.783 170.084 129.408V126.943C170.084 126.568 169.78 126.264 169.405 126.264Z" fill="#E0E7EC"/>
<path d="M319.683 64.1107H196.575C195.799 64.1107 195.17 64.7399 195.17 65.516V77.883C195.17 78.6591 195.799 79.2883 196.575 79.2883H319.683C320.459 79.2883 321.088 78.6591 321.088 77.883V65.516C321.088 64.7399 320.459 64.1107 319.683 64.1107Z" stroke="#D7DCE8" stroke-width="0.562133"/>
<path d="M319.683 101.212H196.575C195.799 101.212 195.17 101.841 195.17 102.617V114.984C195.17 115.76 195.799 116.39 196.575 116.39H319.683C320.459 116.39 321.088 115.76 321.088 114.984V102.617C321.088 101.841 320.459 101.212 319.683 101.212Z" stroke="#D7DCE8" stroke-width="0.562133"/>
<path d="M319.683 138.312H196.575C195.799 138.312 195.17 138.941 195.17 139.717V152.084C195.17 152.86 195.799 153.49 196.575 153.49H319.683C320.459 153.49 321.088 152.86 321.088 152.084V139.717C321.088 138.941 320.459 138.312 319.683 138.312Z" stroke="#D7DCE8" stroke-width="0.562133"/>
<path d="M319.683 175.413H196.575C195.799 175.413 195.17 176.042 195.17 176.818V189.185C195.17 189.961 195.799 190.591 196.575 190.591H319.683C320.459 190.591 321.088 189.961 321.088 189.185V176.818C321.088 176.042 320.459 175.413 319.683 175.413Z" stroke="#D7DCE8" stroke-width="0.562133"/>
<path d="M258.41 52.5869H196.013C195.392 52.5869 194.889 53.0903 194.889 53.7112V57.6461C194.889 58.267 195.392 58.7704 196.013 58.7704H258.41C259.031 58.7704 259.534 58.267 259.534 57.6461V53.7112C259.534 53.0903 259.031 52.5869 258.41 52.5869Z" fill="#E0E7EC"/>
<path d="M258.41 89.688H196.013C195.392 89.688 194.889 90.1914 194.889 90.8123V94.7472C194.889 95.3681 195.392 95.8715 196.013 95.8715H258.41C259.031 95.8715 259.534 95.3681 259.534 94.7472V90.8123C259.534 90.1914 259.031 89.688 258.41 89.688Z" fill="#E0E7EC"/>
<path d="M258.41 126.789H196.013C195.392 126.789 194.889 127.292 194.889 127.913V131.848C194.889 132.469 195.392 132.972 196.013 132.972H258.41C259.031 132.972 259.534 132.469 259.534 131.848V127.913C259.534 127.292 259.031 126.789 258.41 126.789Z" fill="#E0E7EC"/>
<path d="M258.41 163.889H196.013C195.392 163.889 194.889 164.392 194.889 165.013V168.948C194.889 169.569 195.392 170.072 196.013 170.072H258.41C259.031 170.072 259.534 169.569 259.534 168.948V165.013C259.534 164.392 259.031 163.889 258.41 163.889Z" fill="#E0E7EC"/>
<path d="M24 147.026H341.605V217.271C341.605 219.146 340.086 220.665 338.211 220.665H27.3938C25.5195 220.665 24 219.146 24 217.271V147.026Z" fill="url(#paint1_linear)"/>
<path d="M37.9073 11.1839H34.0494C33.8933 11.1839 33.764 11.3083 33.764 11.4603V18.9269C33.764 19.0789 33.8889 19.2033 34.0494 19.2033H39.6823C39.8384 19.2033 39.9678 19.0789 39.9678 18.9269V12.7548C39.9678 12.681 39.9366 12.5336 39.883 12.483L38.5495 11.1885C38.496 11.1378 38.4246 11.1885 38.3488 11.1885L37.9073 11.1839Z" fill="#001064"/>
<path d="M36.6931 10.3843H32.725C32.5645 10.3843 32.4314 10.4989 32.4314 10.6389V17.5186C32.4314 17.6587 32.5599 17.7733 32.725 17.7733H38.5189C38.6795 17.7733 38.8125 17.6587 38.8125 17.5186V11.8316C38.8125 11.7637 38.7804 11.7001 38.7253 11.6534L37.3537 10.4607C37.2987 10.414 37.2253 10.3885 37.1473 10.3885L36.6931 10.3843Z" fill="white"/>
<path fill-rule="evenodd" clip-rule="evenodd" d="M36.7099 10.0288H32.8992C32.6545 10.0288 32.4319 10.2166 32.4319 10.4721V17.5098C32.4319 17.7635 32.6481 17.9531 32.8992 17.9531H38.4619C38.7066 17.9531 38.9292 17.7653 38.9292 17.5098V11.6922C38.9292 11.5684 38.8742 11.4558 38.7864 11.376L37.4693 10.1558L37.4685 10.155C37.3797 10.0748 37.2641 10.0334 37.146 10.0332L36.7099 10.0288ZM36.708 10.3944L37.1441 10.3987H37.145C37.1759 10.3987 37.2006 10.4092 37.2173 10.4239L38.534 11.6438L38.5348 11.6446C38.5521 11.6602 38.5584 11.6775 38.5584 11.6922V17.5098C38.5584 17.5408 38.5255 17.5875 38.4619 17.5875H32.8992C32.8331 17.5875 32.8027 17.5426 32.8027 17.5098V10.4721C32.8027 10.4411 32.8356 10.3944 32.8992 10.3944H36.708Z" fill="#001066"/>
<path d="M37.3781 10.2773L37.3738 11.4438C37.3738 11.6033 37.5041 11.7354 37.6692 11.7354H38.8335" fill="#001C63"/>
<path d="M36.478 15.2558L36.119 14.2857C36.0946 14.2195 36.1119 14.146 36.1664 14.0971C36.3258 13.9532 36.422 13.7473 36.4149 13.5228C36.4005 13.1183 36.0501 12.7915 35.6222 12.7815C35.1641 12.7714 34.7893 13.1183 34.7893 13.5472C34.7893 13.7632 34.8841 13.9575 35.0363 14.0971C35.0894 14.146 35.1066 14.2209 35.0822 14.2871L34.7132 15.2558C34.6873 15.3221 34.7404 15.3926 34.8151 15.3926H36.3746C36.4493 15.3912 36.5025 15.3221 36.478 15.2558Z" fill="#001064"/>
<path d="M43.0701 13.6319C43.3176 13.6319 43.4792 13.472 43.4792 13.245C43.4792 13.0232 43.3176 12.8581 43.0701 12.8581C42.8176 12.8581 42.6509 13.0232 42.6509 13.245C42.6509 13.472 42.8176 13.6319 43.0701 13.6319ZM42.6964 16.5361H43.464C43.5297 16.5361 43.5752 16.5052 43.5752 16.4587V16.4381C43.5752 16.3246 43.3681 16.304 43.3681 16.1028V14.1168C43.3681 14.0343 43.3024 13.9724 43.1863 14.0291L42.6812 14.287C42.6257 14.318 42.5903 14.3386 42.5903 14.3799V14.3954C42.5903 14.4882 42.7772 14.5398 42.7772 14.7513V16.1028C42.7772 16.304 42.5903 16.3246 42.5903 16.4381V16.4587C42.5903 16.5052 42.6307 16.5361 42.6964 16.5361Z" fill="#001064"/>
<path d="M48.569 12.8736H47.9782C47.9175 12.8736 47.8771 12.8994 47.8771 12.951V12.9665C47.8771 13.08 48.1246 13.1006 48.059 13.3018L47.3065 15.7572L46.5439 13.3018C46.4782 13.0696 46.7408 13.0696 46.7408 12.9561V12.9458C46.7408 12.8994 46.7055 12.8736 46.6449 12.8736H45.756C45.6954 12.8736 45.66 12.8994 45.66 12.9458V12.9561C45.66 13.0696 45.8722 13.0954 45.9378 13.3018L46.1095 13.8279L45.4479 15.7623L44.5591 13.3069C44.4833 13.0954 44.7308 13.08 44.7308 12.9613V12.9458C44.7308 12.9046 44.6904 12.8736 44.6247 12.8736H43.7359C43.6753 12.8736 43.6349 12.8994 43.6349 12.9458V12.9561C43.6349 13.08 43.8217 13.0696 43.9177 13.3069L45.1146 16.371C45.1601 16.4845 45.2207 16.5361 45.3419 16.5361C45.4328 16.5361 45.5186 16.4845 45.559 16.3607L46.2661 14.2973L46.9529 16.371C46.9933 16.4845 47.0741 16.5361 47.1802 16.5361C47.2812 16.5361 47.3822 16.4897 47.4226 16.3607L48.4074 13.3018C48.4832 13.0748 48.67 13.0748 48.67 12.9613V12.9458C48.67 12.9046 48.6347 12.8736 48.569 12.8736Z" fill="#001064"/>
<path d="M49.303 13.6319C49.5505 13.6319 49.7121 13.472 49.7121 13.245C49.7121 13.0232 49.5505 12.8581 49.303 12.8581C49.0505 12.8581 48.8839 13.0232 48.8839 13.245C48.8839 13.472 49.0505 13.6319 49.303 13.6319ZM48.9293 16.5361H49.697C49.7626 16.5361 49.8081 16.5052 49.8081 16.4587V16.4381C49.8081 16.3246 49.601 16.304 49.601 16.1028V14.1168C49.601 14.0343 49.5354 13.9724 49.4192 14.0291L48.9142 14.287C48.8586 14.318 48.8233 14.3386 48.8233 14.3799V14.3954C48.8233 14.4882 49.0101 14.5398 49.0101 14.7513V16.1028C49.0101 16.304 48.8233 16.3246 48.8233 16.4381V16.4587C48.8233 16.5052 48.8637 16.5361 48.9293 16.5361Z" fill="#001064"/>
<path d="M50.2005 16.5361H50.9682C51.0338 16.5361 51.0793 16.5052 51.0793 16.4587V16.4433C51.0793 16.3246 50.8722 16.3091 50.8722 16.108V12.755C50.8722 12.6776 50.8066 12.6157 50.6904 12.6724L50.1803 12.9304C50.1298 12.9561 50.0945 12.9768 50.0945 13.0232V13.0387C50.0945 13.1315 50.2813 13.1728 50.2813 13.3895V16.108C50.2813 16.3091 50.0945 16.3246 50.0945 16.4433V16.4587C50.0945 16.5052 50.1349 16.5361 50.2005 16.5361Z" fill="#001064"/>
<path d="M51.4625 16.5361H52.2302C52.2959 16.5361 52.3413 16.5052 52.3413 16.4587V16.4433C52.3413 16.3246 52.1342 16.3091 52.1342 16.108V12.755C52.1342 12.6776 52.0686 12.6157 51.9524 12.6724L51.4423 12.9304C51.3918 12.9561 51.3565 12.9768 51.3565 13.0232V13.0387C51.3565 13.1315 51.5434 13.1728 51.5434 13.3895V16.108C51.5434 16.3091 51.3565 16.3246 51.3565 16.4433V16.4587C51.3565 16.5052 51.3969 16.5361 51.4625 16.5361Z" fill="#001064"/>
<path d="M53.6539 16.5825C54.3053 16.5825 54.7144 16.2679 54.7144 15.8655C54.7144 14.8441 53.2448 15.2929 53.2448 14.5914C53.2448 14.3696 53.4215 14.1942 53.669 14.1942C54.1993 14.1942 54.0629 14.8441 54.4165 14.8441C54.5478 14.8441 54.6488 14.7513 54.6488 14.6223C54.6488 14.3231 54.27 14.0085 53.6387 14.0085C53.0579 14.0085 52.6488 14.3231 52.6488 14.741C52.6488 15.7727 54.1185 15.3136 54.1185 16.0099C54.1185 16.273 53.9215 16.4071 53.6539 16.4071C53.063 16.4071 53.2296 15.752 52.8508 15.752C52.7044 15.752 52.5983 15.8294 52.5983 15.9893C52.5983 16.273 52.9923 16.5825 53.6539 16.5825Z" fill="#001064"/>
<path d="M334.142 13.5986H319.888V15.6349H334.142V13.5986Z" fill="#E9ECF3"/>
<path d="M338.627 1.43298H27.3728C25.1996 1.43298 23.4379 3.19471 23.4379 5.36791V217.523C23.4379 219.696 25.1996 221.458 27.3728 221.458H338.627C340.8 221.458 342.562 219.696 342.562 217.523V5.36791C342.562 3.19471 340.8 1.43298 338.627 1.43298Z" stroke="#001064" stroke-width="1.12427"/>
<g filter="url(#filter1_d)">
<path d="M320.846 155H13.1538C9.75517 155 7 157.755 7 161.154V195C7 198.399 9.75517 201.154 13.1538 201.154H320.846C324.245 201.154 327 198.399 327 195V161.154C327 157.755 324.245 155 320.846 155Z" fill="#EEF3FF"/>
<path d="M320.846 155.385H13.1539C9.96759 155.385 7.38462 157.968 7.38462 161.154V195C7.38462 198.187 9.96759 200.77 13.1539 200.77H320.846C324.033 200.77 326.616 198.187 326.616 195V161.154C326.616 157.968 324.033 155.385 320.846 155.385Z" stroke="#BCC5D9" stroke-opacity="0.6" stroke-width="0.769231"/>
<path d="M20.4153 181.846H22.7168C25.7938 181.846 27.1968 179.914 27.1968 177.477V177.366C27.1968 174.917 25.7692 173.046 22.7415 173.046H20.4153V181.846ZM21.4861 180.972V173.908H22.6799C25.1045 173.908 26.0892 175.335 26.0892 177.366V177.465C26.0892 179.618 24.9568 180.972 22.6922 180.972H21.4861ZM31.1973 181.957C33.0312 181.957 34.3727 180.615 34.3727 178.671V178.572C34.3727 176.64 33.0312 175.298 31.2096 175.298C29.3881 175.298 28.0466 176.652 28.0466 178.585V178.683C28.0466 180.566 29.3635 181.957 31.1973 181.957ZM31.2096 181.108C29.905 181.108 29.105 180.148 29.105 178.683V178.585C29.105 177.108 29.9173 176.148 31.2096 176.148C32.4896 176.148 33.3143 177.108 33.3143 178.597V178.683C33.3143 180.135 32.5019 181.108 31.2096 181.108ZM39.0209 184.086H40.0547L43.6117 175.409H42.5655L40.7809 180.025L38.8117 175.409H37.7163L40.2393 181.182L39.0209 184.086ZM47.0627 181.957C48.8966 181.957 50.2381 180.615 50.2381 178.671V178.572C50.2381 176.64 48.8966 175.298 47.075 175.298C45.2535 175.298 43.9119 176.652 43.9119 178.585V178.683C43.9119 180.566 45.2289 181.957 47.0627 181.957ZM47.075 181.108C45.7704 181.108 44.9704 180.148 44.9704 178.683V178.585C44.9704 177.108 45.7827 176.148 47.075 176.148C48.355 176.148 49.1796 177.108 49.1796 178.597V178.683C49.1796 180.135 48.3673 181.108 47.075 181.108ZM53.6137 181.957C54.6475 181.957 55.3614 181.428 55.6568 180.825V181.846H56.6783V175.409H55.6568V179.311C55.6568 180.468 54.7952 181.071 53.8844 181.071C52.8752 181.071 52.3952 180.566 52.3952 179.434V175.409H51.3737V179.483C51.3737 181.255 52.3337 181.957 53.6137 181.957ZM62.5232 181.846H63.6432L65.1447 177.022L66.4863 181.846H67.6186L69.6247 175.409H68.5786L67.0647 180.591L65.6001 175.409H64.714L63.1509 180.591L61.6493 175.409H60.5417L62.5232 181.846ZM72.11 181.957C73.0577 181.957 73.6362 181.637 74.1162 181.034V181.846H75.1377V177.6C75.1377 175.803 74.0177 175.298 72.7869 175.298C71.5439 175.298 70.3746 175.84 70.2393 177.305H71.2608C71.3593 176.517 71.8516 176.148 72.7377 176.148C73.7223 176.148 74.1162 176.578 74.1162 177.6V178.068H73.1931C71.5439 178.068 69.9685 178.572 69.9685 180.062C69.9685 181.378 70.9162 181.957 72.11 181.957ZM72.2085 181.145C71.31 181.145 70.99 180.726 70.99 180.062C70.99 179.114 71.9377 178.794 73.23 178.794H74.1162V179.594C74.1162 180.591 73.2916 181.145 72.2085 181.145ZM76.7597 181.846H77.7813V177.945C77.7813 176.788 78.6305 176.185 79.5782 176.185C80.612 176.185 81.092 176.689 81.092 177.822V181.846H82.1136V177.895C82.1136 176.025 81.1782 175.298 79.849 175.298C78.7905 175.298 78.0767 175.828 77.7813 176.431V175.409H76.7597V181.846ZM85.6878 181.932C86.1063 181.932 86.3524 181.871 86.5617 181.797V180.935C86.3401 181.022 86.094 181.071 85.774 181.071C85.257 181.071 84.974 180.763 84.974 180.135V176.271H86.4755V175.409H84.974V173.945H83.9524V175.409H83.0293V176.271H83.9524V180.234C83.9524 181.243 84.5186 181.932 85.6878 181.932ZM92.5508 181.932C92.9693 181.932 93.2154 181.871 93.4246 181.797V180.935C93.2031 181.022 92.9569 181.071 92.6369 181.071C92.12 181.071 91.8369 180.763 91.8369 180.135V176.271H93.3385V175.409H91.8369V173.945H90.8154V175.409H89.8923V176.271H90.8154V180.234C90.8154 181.243 91.3816 181.932 92.5508 181.932ZM97.255 181.957C99.0889 181.957 100.43 180.615 100.43 178.671V178.572C100.43 176.64 99.0889 175.298 97.2673 175.298C95.4458 175.298 94.1043 176.652 94.1043 178.585V178.683C94.1043 180.566 95.4212 181.957 97.255 181.957ZM97.2673 181.108C95.9627 181.108 95.1627 180.148 95.1627 178.683V178.585C95.1627 177.108 95.975 176.148 97.2673 176.148C98.5473 176.148 99.3719 177.108 99.3719 178.597V178.683C99.3719 180.135 98.5596 181.108 97.2673 181.108ZM105.017 174.068C105.386 174.068 105.694 173.76 105.694 173.391C105.694 173.022 105.386 172.714 105.017 172.714C104.648 172.714 104.34 173.022 104.34 173.391C104.34 173.76 104.648 174.068 105.017 174.068ZM104.525 181.846H105.546V175.409H104.525V181.846ZM107.253 181.846H108.274V177.945C108.274 176.788 109.123 176.185 110.071 176.185C111.105 176.185 111.585 176.689 111.585 177.822V181.846H112.606V177.895C112.606 176.025 111.671 175.298 110.342 175.298C109.283 175.298 108.569 175.828 108.274 176.431V175.409H107.253V181.846ZM116.894 181.957C118.445 181.957 119.565 180.923 119.701 179.532H118.753C118.642 180.578 117.818 181.108 116.907 181.108C115.664 181.108 114.802 180.271 114.802 178.695V178.597C114.802 177.083 115.701 176.148 116.87 176.148C117.756 176.148 118.494 176.529 118.654 177.551H119.664C119.467 175.914 118.211 175.298 116.87 175.298C115.147 175.298 113.744 176.628 113.744 178.597V178.695C113.744 180.689 115.098 181.957 116.894 181.957ZM120.883 181.846H121.917V172.332H120.883V181.846ZM125.801 181.957C126.835 181.957 127.549 181.428 127.844 180.825V181.846H128.866V175.409H127.844V179.311C127.844 180.468 126.983 181.071 126.072 181.071C125.063 181.071 124.583 180.566 124.583 179.434V175.409H123.561V179.483C123.561 181.255 124.521 181.957 125.801 181.957ZM132.97 181.957C133.906 181.957 134.804 181.366 135.173 180.738V181.846H136.195V172.332H135.173V176.443C134.804 175.815 134.14 175.298 133.069 175.298C131.297 175.298 130.066 176.689 130.066 178.658V178.757C130.066 180.763 131.284 181.957 132.97 181.957ZM133.081 181.108C131.998 181.108 131.124 180.332 131.124 178.708V178.609C131.124 177.046 131.887 176.148 133.167 176.148C134.423 176.148 135.21 176.923 135.21 178.572V178.671C135.21 180.32 134.275 181.108 133.081 181.108ZM140.511 181.957C141.964 181.957 143.034 181.28 143.256 179.988H142.234C142.099 180.738 141.521 181.108 140.524 181.108C139.207 181.108 138.505 180.295 138.456 178.831H143.305V178.498C143.305 176.197 141.902 175.298 140.413 175.298C138.641 175.298 137.398 176.652 137.398 178.597V178.695C137.398 180.677 138.69 181.957 140.511 181.957ZM138.493 178.006C138.665 176.862 139.367 176.148 140.413 176.148C141.471 176.148 142.161 176.677 142.259 178.006H138.493ZM147.361 181.846H148.382V177.908C148.382 176.751 149.244 176.185 150.081 176.185C150.967 176.185 151.447 176.652 151.447 177.785V181.846H152.468V177.908C152.468 176.751 153.33 176.185 154.167 176.185C155.053 176.185 155.533 176.652 155.533 177.785V181.846H156.555V177.858C156.555 175.988 155.545 175.298 154.388 175.298C153.588 175.298 152.628 175.668 152.185 176.505C151.853 175.643 151.127 175.298 150.302 175.298C149.379 175.298 148.678 175.791 148.382 176.394V175.409H147.361V181.846ZM160.849 181.957C162.683 181.957 164.024 180.615 164.024 178.671V178.572C164.024 176.64 162.683 175.298 160.861 175.298C159.04 175.298 157.698 176.652 157.698 178.585V178.683C157.698 180.566 159.015 181.957 160.849 181.957ZM160.861 181.108C159.556 181.108 158.756 180.148 158.756 178.683V178.585C158.756 177.108 159.569 176.148 160.861 176.148C162.141 176.148 162.966 177.108 162.966 178.597V178.683C162.966 180.135 162.153 181.108 160.861 181.108ZM165.221 181.846H166.243V178.314C166.243 176.726 167.067 176.32 168.36 176.258V175.298C167.203 175.335 166.649 175.84 166.243 176.566V175.409H165.221V181.846ZM171.918 181.957C173.37 181.957 174.441 181.28 174.662 179.988H173.641C173.505 180.738 172.927 181.108 171.93 181.108C170.613 181.108 169.911 180.295 169.862 178.831H174.711V178.498C174.711 176.197 173.308 175.298 171.819 175.298C170.047 175.298 168.804 176.652 168.804 178.597V178.695C168.804 180.677 170.096 181.957 171.918 181.957ZM169.899 178.006C170.071 176.862 170.773 176.148 171.819 176.148C172.878 176.148 173.567 176.677 173.665 178.006H169.899ZM181.192 181.957C182.127 181.957 183.025 181.366 183.395 180.738V181.846H184.416V172.332H183.395V176.443C183.025 175.815 182.361 175.298 181.29 175.298C179.518 175.298 178.287 176.689 178.287 178.658V178.757C178.287 180.763 179.505 181.957 181.192 181.957ZM181.302 181.108C180.219 181.108 179.345 180.332 179.345 178.708V178.609C179.345 177.046 180.108 176.148 181.388 176.148C182.644 176.148 183.432 176.923 183.432 178.572V178.671C183.432 180.32 182.496 181.108 181.302 181.108ZM188.733 181.957C190.185 181.957 191.256 181.28 191.477 179.988H190.456C190.32 180.738 189.742 181.108 188.745 181.108C187.428 181.108 186.726 180.295 186.677 178.831H191.526V178.498C191.526 176.197 190.123 175.298 188.634 175.298C186.862 175.298 185.619 176.652 185.619 178.597V178.695C185.619 180.677 186.911 181.957 188.733 181.957ZM186.714 178.006C186.886 176.862 187.588 176.148 188.634 176.148C189.693 176.148 190.382 176.677 190.48 178.006H186.714ZM194.666 181.932C195.085 181.932 195.331 181.871 195.54 181.797V180.935C195.318 181.022 195.072 181.071 194.752 181.071C194.235 181.071 193.952 180.763 193.952 180.135V176.271H195.454V175.409H193.952V173.945H192.931V175.409H192.008V176.271H192.931V180.234C192.931 181.243 193.497 181.932 194.666 181.932ZM198.372 181.957C199.32 181.957 199.898 181.637 200.378 181.034V181.846H201.4V177.6C201.4 175.803 200.28 175.298 199.049 175.298C197.806 175.298 196.637 175.84 196.501 177.305H197.523C197.621 176.517 198.114 176.148 199 176.148C199.984 176.148 200.378 176.578 200.378 177.6V178.068H199.455C197.806 178.068 196.231 178.572 196.231 180.062C196.231 181.378 197.178 181.957 198.372 181.957ZM198.471 181.145C197.572 181.145 197.252 180.726 197.252 180.062C197.252 179.114 198.2 178.794 199.492 178.794H200.378V179.594C200.378 180.591 199.554 181.145 198.471 181.145ZM203.539 174.068C203.908 174.068 204.216 173.76 204.216 173.391C204.216 173.022 203.908 172.714 203.539 172.714C203.169 172.714 202.862 173.022 202.862 173.391C202.862 173.76 203.169 174.068 203.539 174.068ZM203.046 181.846H204.068V175.409H203.046V181.846ZM205.799 181.846H206.833V172.332H205.799V181.846ZM210.532 181.957C212.095 181.957 212.895 181.169 212.895 180C212.895 178.634 211.96 178.338 210.631 178.092C209.449 177.883 209.129 177.649 209.129 177.071C209.129 176.517 209.609 176.148 210.348 176.148C211.16 176.148 211.554 176.455 211.702 177.157H212.686C212.514 175.766 211.517 175.298 210.36 175.298C209.351 175.298 208.182 175.914 208.182 177.108C208.182 178.228 208.748 178.695 210.422 179.003C211.419 179.188 211.923 179.409 211.923 180.086C211.923 180.775 211.492 181.108 210.52 181.108C209.486 181.108 209.08 180.628 209.006 179.865H208.009C208.071 181.182 208.994 181.957 210.532 181.957ZM214.996 179.36H215.907V178.831C215.907 178.08 216.436 177.563 216.99 177.034C217.581 176.468 218.196 175.889 218.196 174.978C218.196 173.945 217.532 172.935 215.858 172.935C214.356 172.935 213.335 173.945 213.249 175.385H214.209C214.295 174.412 214.922 173.785 215.846 173.785C216.756 173.785 217.162 174.289 217.162 175.015C217.162 175.606 216.744 176.049 216.264 176.529C215.649 177.132 214.996 177.748 214.996 178.745V179.36ZM215.427 181.908C215.858 181.908 216.215 181.563 216.215 181.12C216.215 180.677 215.858 180.332 215.427 180.332C214.996 180.332 214.639 180.677 214.639 181.12C214.639 181.563 214.996 181.908 215.427 181.908Z" fill="#001064"/>
<path d="M232.384 183.846C235.571 183.846 238.154 181.263 238.154 178.077C238.154 174.891 235.571 172.308 232.384 172.308C229.198 172.308 226.615 174.891 226.615 178.077C226.615 181.263 229.198 183.846 232.384 183.846Z" stroke="#001064" stroke-width="1.15385" stroke-linecap="round" stroke-linejoin="round"/>
<path d="M232.385 180.385V178.077" stroke="#001064" stroke-width="1.15385" stroke-linecap="round" stroke-linejoin="round"/>
<path d="M232.385 175.769H232.391" stroke="#001064" stroke-width="1.15385" stroke-linecap="round" stroke-linejoin="round"/>
<path d="M303.923 167.308H285.461C279.514 167.308 274.692 172.13 274.692 178.077V178.077C274.692 184.025 279.514 188.846 285.461 188.846H303.923C309.87 188.846 314.692 184.025 314.692 178.077V178.077C314.692 172.13 309.87 167.308 303.923 167.308Z" fill="#00199E"/>
<path d="M311.616 178.077C311.616 173.829 308.172 170.385 303.923 170.385C299.675 170.385 296.231 173.829 296.231 178.077C296.231 182.326 299.675 185.77 303.923 185.77C308.172 185.77 311.616 182.326 311.616 178.077Z" fill="white"/>
</g>
<path d="M352.342 73.5854H233.756C231.682 73.5854 230 75.2671 230 77.3415V120.805C230 122.879 231.682 124.561 233.756 124.561H352.342C354.416 124.561 356.098 122.879 356.098 120.805V77.3415C356.098 75.2671 354.416 73.5854 352.342 73.5854Z" fill="#001064"/>
<path d="M358.244 66.0732H239.659C238.177 66.0732 236.976 67.2744 236.976 68.7561V112.22C236.976 113.701 238.177 114.902 239.659 114.902H358.244C359.726 114.902 360.927 113.701 360.927 112.22V68.7561C360.927 67.2744 359.726 66.0732 358.244 66.0732Z" fill="white" stroke="#001064" stroke-width="2.14634"/>
<path d="M256.548 86.2686H261.03V85.2544H257.833V83.2358H260.267V82.2699H257.833V80.3768H260.866V79.3627H256.548V86.2686ZM261.369 86.2686H262.586L263.793 84.4431L264.972 86.2686H266.334L264.527 83.5931L266.16 81.2171H264.933L263.89 82.8494L262.837 81.2171H261.485L263.127 83.6801L261.369 86.2686ZM266.96 87.9974H268.129V85.4766C268.399 85.9691 268.979 86.3651 269.781 86.3651C271.084 86.3651 272.021 85.38 272.021 83.7573V83.6801C272.021 82.0478 271.046 81.1109 269.781 81.1109C269.037 81.1109 268.409 81.5455 268.129 82.0285V81.2171H266.96V87.9974ZM269.491 85.4379C268.641 85.4379 268.09 84.9067 268.09 83.7767V83.6994C268.09 82.579 268.67 82.0285 269.481 82.0285C270.244 82.0285 270.824 82.579 270.824 83.6994V83.7767C270.824 84.8584 270.35 85.4379 269.491 85.4379ZM272.804 86.2686H273.973V83.6414C273.973 82.5693 274.591 82.2409 275.615 82.2313V81.1399C274.765 81.1495 274.291 81.5262 273.973 82.1637V81.2171H272.804V86.2686ZM278.492 86.3651C279.787 86.3651 280.646 85.7856 280.81 84.7232H279.68C279.593 85.2158 279.226 85.4959 278.521 85.4959C277.652 85.4959 277.169 84.955 277.13 83.9988H280.83V83.6607C280.83 81.8546 279.7 81.1109 278.444 81.1109C277.005 81.1109 275.933 82.154 275.933 83.7187V83.796C275.933 85.3896 277.005 86.3651 278.492 86.3651ZM277.15 83.2165C277.266 82.4341 277.739 81.9608 278.444 81.9608C279.168 81.9608 279.613 82.3472 279.671 83.2165H277.15ZM283.381 86.3651C284.676 86.3651 285.4 85.776 285.4 84.7522C285.4 83.6801 284.695 83.3903 283.507 83.2068C282.705 83.0716 282.464 82.9267 282.464 82.5597C282.464 82.2023 282.763 81.9608 283.265 81.9608C283.806 81.9608 284.067 82.1733 284.164 82.6369H285.245C285.12 81.4972 284.299 81.1109 283.265 81.1109C282.319 81.1109 281.372 81.6131 281.372 82.6273C281.372 83.5738 281.865 83.9505 283.198 84.163C283.941 84.2886 284.28 84.4431 284.28 84.8584C284.28 85.2834 283.999 85.5055 283.372 85.5055C282.686 85.5055 282.425 85.2061 282.367 84.6942H281.266C281.314 85.7663 282.077 86.3651 283.381 86.3651ZM287.895 86.3651C289.189 86.3651 289.914 85.776 289.914 84.7522C289.914 83.6801 289.209 83.3903 288.021 83.2068C287.219 83.0716 286.978 82.9267 286.978 82.5597C286.978 82.2023 287.277 81.9608 287.779 81.9608C288.32 81.9608 288.581 82.1733 288.677 82.6369H289.759C289.634 81.4972 288.813 81.1109 287.779 81.1109C286.833 81.1109 285.886 81.6131 285.886 82.6273C285.886 83.5738 286.379 83.9505 287.712 84.163C288.455 84.2886 288.793 84.4431 288.793 84.8584C288.793 85.2834 288.513 85.5055 287.885 85.5055C287.2 85.5055 286.939 85.2061 286.881 84.6942H285.78C285.828 85.7663 286.591 86.3651 287.895 86.3651ZM294.597 86.3651C295.341 86.3651 295.988 85.9208 296.258 85.4186V86.2686H297.427V78.8798H296.258V81.9898C295.978 81.4876 295.466 81.1109 294.645 81.1109C293.332 81.1109 292.375 82.1347 292.375 83.7477V83.8249C292.375 85.4669 293.332 86.3651 294.597 86.3651ZM294.887 85.4379C294.133 85.4379 293.573 84.9067 293.573 83.796V83.7187C293.573 82.6273 294.075 82.0285 294.935 82.0285C295.785 82.0285 296.297 82.579 296.297 83.6897V83.767C296.297 84.897 295.698 85.4379 294.887 85.4379ZM300.798 86.3651C302.285 86.3651 303.396 85.3413 303.396 83.767V83.6897C303.396 82.1444 302.285 81.1109 300.808 81.1109C299.32 81.1109 298.209 82.154 298.209 83.7187V83.796C298.209 85.3317 299.311 86.3651 300.798 86.3651ZM300.808 85.4572C299.919 85.4572 299.407 84.8101 299.407 83.7767V83.6994C299.407 82.6563 299.938 82.0285 300.808 82.0285C301.677 82.0285 302.198 82.6659 302.198 83.709V83.7767C302.198 84.8101 301.677 85.4572 300.808 85.4572ZM306.396 86.3651C307.767 86.3651 308.646 85.5442 308.733 84.3851H307.661C307.593 85.0999 307.062 85.4669 306.444 85.4669C305.584 85.4669 305.043 84.8874 305.043 83.7863V83.709C305.043 82.6659 305.613 82.0478 306.415 82.0478C307.033 82.0478 307.477 82.3279 307.574 83.004H308.704C308.569 81.6131 307.516 81.1109 306.396 81.1109C304.985 81.1109 303.846 82.125 303.846 83.7284V83.8056C303.846 85.4186 304.947 86.3651 306.396 86.3651ZM311.161 86.3651C311.982 86.3651 312.513 85.9691 312.765 85.4766V86.2686H313.933V81.2171H312.765V84.2209C312.765 85.0226 312.214 85.4283 311.586 85.4283C310.91 85.4283 310.591 85.0806 310.591 84.3175V81.2171H309.423V84.4527C309.423 85.7953 310.166 86.3651 311.161 86.3651ZM315.051 86.2686H316.219V83.2454C316.219 82.4727 316.751 82.0864 317.33 82.0864C317.9 82.0864 318.228 82.4051 318.228 83.1488V86.2686H319.397V83.2454C319.397 82.4727 319.928 82.0864 320.508 82.0864C321.087 82.0864 321.406 82.4051 321.406 83.1488V86.2686H322.575V83.0716C322.575 81.6807 321.821 81.1109 320.894 81.1109C320.266 81.1109 319.571 81.391 319.185 82.0188C318.933 81.391 318.412 81.1109 317.755 81.1109C317.011 81.1109 316.461 81.5166 316.219 81.9898V81.2171H315.051V86.2686ZM325.87 86.3651C327.164 86.3651 328.024 85.7856 328.188 84.7232H327.058C326.971 85.2158 326.604 85.4959 325.899 85.4959C325.03 85.4959 324.547 84.955 324.508 83.9988H328.207V83.6607C328.207 81.8546 327.077 81.1109 325.822 81.1109C324.383 81.1109 323.311 82.154 323.311 83.7187V83.796C323.311 85.3896 324.383 86.3651 325.87 86.3651ZM324.528 83.2165C324.643 82.4341 325.117 81.9608 325.822 81.9608C326.546 81.9608 326.99 82.3472 327.048 83.2165H324.528ZM328.983 86.2686H330.152V83.2937C330.152 82.4921 330.683 82.0864 331.34 82.0864C332.035 82.0864 332.344 82.4341 332.344 83.1971V86.2686H333.513V83.0909C333.513 81.7001 332.798 81.1109 331.784 81.1109C330.953 81.1109 330.393 81.5262 330.152 82.0188V81.2171H328.983V86.2686ZM336.31 86.3555C336.668 86.3555 336.919 86.2975 337.102 86.2299V85.3027C336.938 85.3703 336.764 85.3993 336.532 85.3993C336.165 85.3993 335.953 85.1965 335.953 84.7522V82.0961H337.064V81.2171H335.953V80.1064H334.784V81.2171H334.108V82.0961H334.784V84.8584C334.784 85.8146 335.306 86.3555 336.31 86.3555ZM258.171 101.355C258.528 101.355 258.779 101.298 258.963 101.23V100.303C258.799 100.37 258.625 100.399 258.393 100.399C258.026 100.399 257.814 100.196 257.814 99.7522V97.0961H258.924V96.2171H257.814V95.1064H256.645V96.2171H255.969V97.0961H256.645V99.8584C256.645 100.815 257.166 101.355 258.171 101.355ZM261.999 101.365C263.487 101.365 264.597 100.341 264.597 98.767V98.6897C264.597 97.1444 263.487 96.1109 262.009 96.1109C260.522 96.1109 259.411 97.154 259.411 98.7187V98.796C259.411 100.332 260.512 101.365 261.999 101.365ZM262.009 100.457C261.12 100.457 260.608 99.8101 260.608 98.7767V98.6994C260.608 97.6563 261.14 97.0285 262.009 97.0285C262.878 97.0285 263.4 97.6659 263.4 98.709V98.7767C263.4 99.8101 262.878 100.457 262.009 100.457ZM267.539 103.123C269.104 103.123 270.098 102.379 270.108 100.892V96.2171H268.939V96.9898C268.65 96.4876 268.147 96.1109 267.317 96.1109C266.013 96.1109 265.047 97.1733 265.047 98.5931V98.6607C265.047 100.119 266.023 101.066 267.288 101.066C268.032 101.066 268.659 100.612 268.939 100.129V100.873C268.939 101.78 268.437 102.234 267.529 102.234C266.766 102.234 266.38 101.945 266.283 101.442H265.105C265.24 102.408 265.955 103.123 267.539 103.123ZM267.578 100.167C266.824 100.167 266.245 99.588 266.245 98.6511V98.5738C266.245 97.6563 266.747 97.0285 267.616 97.0285C268.456 97.0285 268.978 97.5983 268.978 98.5545V98.6221C268.978 99.588 268.389 100.167 267.578 100.167ZM273.383 103.123C274.947 103.123 275.942 102.379 275.952 100.892V96.2171H274.783V96.9898C274.493 96.4876 273.991 96.1109 273.161 96.1109C271.857 96.1109 270.891 97.1733 270.891 98.5931V98.6607C270.891 100.119 271.866 101.066 273.132 101.066C273.875 101.066 274.503 100.612 274.783 100.129V100.873C274.783 101.78 274.281 102.234 273.373 102.234C272.61 102.234 272.224 101.945 272.127 101.442H270.949C271.084 102.408 271.799 103.123 273.383 103.123ZM273.421 100.167C272.668 100.167 272.088 99.588 272.088 98.6511V98.5738C272.088 97.6563 272.591 97.0285 273.46 97.0285C274.3 97.0285 274.822 97.5983 274.822 98.5545V98.6221C274.822 99.588 274.233 100.167 273.421 100.167ZM277.102 101.269H278.27V93.8798H277.102V101.269ZM281.648 101.365C282.942 101.365 283.802 100.786 283.966 99.7232H282.836C282.749 100.216 282.382 100.496 281.677 100.496C280.808 100.496 280.325 99.955 280.286 98.9988H283.985V98.6607C283.985 96.8546 282.855 96.1109 281.6 96.1109C280.16 96.1109 279.088 97.154 279.088 98.7187V98.796C279.088 100.39 280.16 101.365 281.648 101.365ZM280.305 98.2165C280.421 97.4341 280.895 96.9608 281.6 96.9608C282.324 96.9608 282.768 97.3472 282.826 98.2165H280.305ZM287.338 101.269H288.14V96.8932H289.376V96.2171H288.14V95.3092C288.14 94.7973 288.353 94.44 288.874 94.44C289.096 94.44 289.299 94.4883 289.444 94.5462V93.8701C289.241 93.8025 289.106 93.7735 288.845 93.7735C287.841 93.7735 287.338 94.3724 287.338 95.3962V96.2171H286.614V96.8932H287.338V101.269ZM292.086 101.355C293.525 101.355 294.578 100.303 294.578 98.7767V98.6994C294.578 97.183 293.525 96.1302 292.096 96.1302C290.666 96.1302 289.613 97.1927 289.613 98.709V98.7863C289.613 100.264 290.647 101.355 292.086 101.355ZM292.096 100.689C291.072 100.689 290.444 99.9357 290.444 98.7863V98.709C290.444 97.55 291.081 96.7967 292.096 96.7967C293.1 96.7967 293.747 97.55 293.747 98.7187V98.7863C293.747 99.926 293.11 100.689 292.096 100.689ZM295.551 101.269H296.352V98.4966C296.352 97.2506 297 96.9319 298.014 96.8836V96.1302C297.106 96.1592 296.671 96.5552 296.352 97.125V96.2171H295.551V101.269ZM304.833 103.026H305.635V96.2171H304.833V97.0285C304.544 96.5359 304.022 96.1302 303.182 96.1302C301.791 96.1302 300.825 97.2216 300.825 98.767V98.8443C300.825 100.419 301.781 101.355 303.104 101.355C303.838 101.355 304.544 100.892 304.833 100.399V103.026ZM303.191 100.689C302.341 100.689 301.656 100.081 301.656 98.8056V98.7284C301.656 97.5017 302.254 96.7967 303.259 96.7967C304.244 96.7967 304.862 97.4051 304.862 98.6994V98.7767C304.862 100.071 304.128 100.689 303.191 100.689ZM308.698 101.355C309.51 101.355 310.07 100.94 310.302 100.467V101.269H311.103V96.2171H310.302V99.2789C310.302 100.187 309.626 100.66 308.911 100.66C308.119 100.66 307.742 100.264 307.742 99.3755V96.2171H306.941V99.4141C306.941 100.805 307.694 101.355 308.698 101.355ZM312.861 95.1644C313.151 95.1644 313.392 94.9229 313.392 94.6331C313.392 94.3434 313.151 94.1019 312.861 94.1019C312.571 94.1019 312.33 94.3434 312.33 94.6331C312.33 94.9229 312.571 95.1644 312.861 95.1644ZM312.475 101.269H313.276V96.2171H312.475V101.269ZM316.745 101.355C317.962 101.355 318.841 100.544 318.947 99.4527H318.203C318.116 100.274 317.469 100.689 316.754 100.689C315.779 100.689 315.103 100.032 315.103 98.796V98.7187C315.103 97.5307 315.808 96.7967 316.725 96.7967C317.421 96.7967 318 97.0961 318.126 97.8977H318.918C318.763 96.6131 317.778 96.1302 316.725 96.1302C315.373 96.1302 314.272 97.1733 314.272 98.7187V98.796C314.272 100.361 315.335 101.355 316.745 101.355ZM319.889 101.269H320.691V98.6511L322.931 101.269H323.907L321.56 98.5642L323.723 96.2171H322.786L320.691 98.5448V93.8025H319.889V101.269ZM328.202 101.269H328.965L330.578 95.8115L332.143 101.269H332.916L334.712 94.3627H333.93L332.51 99.955L330.887 94.3627H330.288L328.666 99.9357L327.265 94.3627H326.406L328.202 101.269ZM335.892 95.1644C336.182 95.1644 336.423 94.9229 336.423 94.6331C336.423 94.3434 336.182 94.1019 335.892 94.1019C335.602 94.1019 335.361 94.3434 335.361 94.6331C335.361 94.9229 335.602 95.1644 335.892 95.1644ZM335.506 101.269H336.308V96.2171H335.506V101.269ZM337.699 101.269H338.511V93.8025H337.699V101.269ZM339.902 101.269H340.714V93.8025H339.902V101.269Z" fill="#001064"/>
<path d="M333.915 16.0928H306.907C299.226 16.0928 293 22.3192 293 29.9998C293 37.6804 299.226 43.9068 306.907 43.9068H333.915C341.595 43.9068 347.822 37.6804 347.822 29.9998C347.822 22.3192 341.595 16.0928 333.915 16.0928Z" fill="#001064"/>
<path d="M332.302 40.2789C338.202 40.2789 342.984 35.4963 342.984 29.5967C342.984 23.6971 338.202 18.9145 332.302 18.9145C326.402 18.9145 321.62 23.6971 321.62 29.5967C321.62 35.4963 326.402 40.2789 332.302 40.2789Z" fill="white"/>
<path d="M342.582 13.6744C344.563 10.7484 347.234 8.29716 349.732 5.88879C350.305 5.33641 351.741 3.42738 351.397 4.16871" stroke="#F5D8BE" stroke-width="2.0155" stroke-linecap="round" stroke-linejoin="round"/>
<path d="M350.644 20.1238C353.584 19.7819 356.209 17.7681 358.895 16.5196C359.746 16.1243 360.636 15.5342 361.527 15.2866" stroke="#F5D8BE" stroke-width="2.0155" stroke-linecap="round" stroke-linejoin="round"/>
<path d="M354.674 29.7983C358.033 29.7983 361.393 29.7983 364.752 29.7983" stroke="#F5D8BE" stroke-width="2.0155" stroke-linecap="round" stroke-linejoin="round"/>
<path d="M352.256 39.876C354.775 41.3133 356.928 43.4348 359.103 45.3508C359.777 45.9446 360.502 46.5024 361.124 47.1318" stroke="#F5D8BE" stroke-width="2.0155" stroke-linecap="round" stroke-linejoin="round"/>
<path d="M342.178 47.1318C342.602 49.4622 343.848 51.2766 344.707 53.3881C345.08 54.3073 345.914 55.0426 346.209 56.0001" stroke="#F5D8BE" stroke-width="2.0155" stroke-linecap="round" stroke-linejoin="round"/>
</g>
<defs>
<filter id="filter0_d" x="18.5694" y="-2.07746" width="328.439" height="229.761" filterUnits="userSpaceOnUse" color-interpolation-filters="sRGB">
<feFlood flood-opacity="0" result="BackgroundImageFix"/>
<feColorMatrix in="SourceAlpha" type="matrix" values="0 0 0 0 0 0 0 0 0 0 0 0 0 0 0 0 0 0 127 0"/>
<feOffset dy="1.35752"/>
<feGaussianBlur stdDeviation="2.54536"/>
<feColorMatrix type="matrix" values="0 0 0 0 0.736667 0 0 0 0 0.774444 0 0 0 0 0.85 0 0 0 0.6 0"/>
<feBlend mode="normal" in2="BackgroundImageFix" result="effect1_dropShadow"/>
<feBlend mode="normal" in="SourceGraphic" in2="effect1_dropShadow" result="shape"/>
</filter>
<filter id="filter1_d" x="0.11538" y="155" width="333.769" height="60.2103" filterUnits="userSpaceOnUse" color-interpolation-filters="sRGB">
<feFlood flood-opacity="0" result="BackgroundImageFix"/>
<feColorMatrix in="SourceAlpha" type="matrix" values="0 0 0 0 0 0 0 0 0 0 0 0 0 0 0 0 0 0 127 0"/>
<feOffset dy="7.17147"/>
<feGaussianBlur stdDeviation="3.44231"/>
<feColorMatrix type="matrix" values="0 0 0 0 0.736667 0 0 0 0 0.774444 0 0 0 0 0.85 0 0 0 0.8 0"/>
<feBlend mode="normal" in2="BackgroundImageFix" result="effect1_dropShadow"/>
<feBlend mode="normal" in="SourceGraphic" in2="effect1_dropShadow" result="shape"/>
</filter>
<linearGradient id="paint0_linear" x1="182.999" y1="26.7275" x2="182.999" y2="31.5264" gradientUnits="userSpaceOnUse">
<stop stop-color="#BCC5D9" stop-opacity="0.6"/>
<stop offset="1" stop-color="#C4C4C4" stop-opacity="0"/>
</linearGradient>
<linearGradient id="paint1_linear" x1="182.802" y1="196.571" x2="182.802" y2="137.694" gradientUnits="userSpaceOnUse">
<stop stop-color="#FAFAFA"/>
<stop offset="1" stop-color="#F6F7FB" stop-opacity="0"/>
</linearGradient>
<clipPath id="clip0">
<rect width="366" height="223" fill="white"/>
</clipPath>
</defs>
</svg>
