<svg width="182" height="83" viewBox="0 0 182 83" fill="none" xmlns="http://www.w3.org/2000/svg">
<rect y="11.8359" width="173.862" height="70.2846" rx="5.17886" fill="#001064"/>
<rect x="9.61835" y="1.47967" width="170.902" height="67.3252" rx="3.69919" fill="white" stroke="#001064" stroke-width="2.95935"/>
<path d="M36.6037 29.5352H42.7828V28.1369H38.3749V25.3536H41.7308V24.0219H38.3749V21.4117H42.5565V20.0134H36.6037V29.5352ZM43.2504 29.5352H44.9284L46.593 27.0182L48.2177 29.5352H50.0954L47.6051 25.8463L49.8557 22.5703H48.1644L46.7262 24.8209L45.2746 22.5703H43.4102L45.6741 25.9662L43.2504 29.5352ZM50.9595 31.9189H52.5709V28.4432C52.9438 29.1223 53.7428 29.6683 54.8481 29.6683C56.6459 29.6683 57.9377 28.31 57.9377 26.0727V25.9662C57.9377 23.7156 56.5926 22.4238 54.8481 22.4238C53.8227 22.4238 52.9571 23.0231 52.5709 23.689V22.5703H50.9595V31.9189ZM54.4486 28.3899C53.2767 28.3899 52.5176 27.6574 52.5176 26.0994V25.9928C52.5176 24.448 53.3166 23.689 54.4353 23.689C55.4873 23.689 56.2863 24.448 56.2863 25.9928V26.0994C56.2863 27.5909 55.6338 28.3899 54.4486 28.3899ZM59.0168 29.5352H60.6282V25.9129C60.6282 24.4347 61.4805 23.9819 62.8921 23.9686V22.4638C61.7202 22.4771 61.0676 22.9965 60.6282 23.8754V22.5703H59.0168V29.5352ZM66.8598 29.6683C68.6443 29.6683 69.8295 28.8693 70.0559 27.4044H68.4978C68.3779 28.0836 67.8719 28.4698 66.8997 28.4698C65.7012 28.4698 65.0353 27.724 64.9821 26.4056H70.0825V25.9395C70.0825 23.4493 68.5244 22.4238 66.7932 22.4238C64.8089 22.4238 63.3308 23.8621 63.3308 26.0194V26.126C63.3308 28.3233 64.8089 29.6683 66.8598 29.6683ZM65.0087 25.327C65.1685 24.2483 65.821 23.5957 66.7932 23.5957C67.792 23.5957 68.4046 24.1284 68.4845 25.327H65.0087ZM73.6007 29.6683C75.3851 29.6683 76.3839 28.856 76.3839 27.4444C76.3839 25.9662 75.4118 25.5667 73.7738 25.3136C72.6685 25.1272 72.3355 24.9274 72.3355 24.4214C72.3355 23.9287 72.7484 23.5957 73.4408 23.5957C74.1866 23.5957 74.5462 23.8887 74.6793 24.5279H76.1708C75.9977 22.9565 74.8658 22.4238 73.4408 22.4238C72.1358 22.4238 70.8307 23.1163 70.8307 24.5146C70.8307 25.8197 71.5099 26.3391 73.3476 26.632C74.373 26.8052 74.8391 27.0182 74.8391 27.5909C74.8391 28.1768 74.4529 28.4831 73.5873 28.4831C72.6418 28.4831 72.2823 28.0703 72.2024 27.3645H70.6842C70.7508 28.8427 71.8028 29.6683 73.6007 29.6683ZM79.8242 29.6683C81.6087 29.6683 82.6075 28.856 82.6075 27.4444C82.6075 25.9662 81.6354 25.5667 79.9974 25.3136C78.8921 25.1272 78.5591 24.9274 78.5591 24.4214C78.5591 23.9287 78.972 23.5957 79.6644 23.5957C80.4102 23.5957 80.7698 23.8887 80.9029 24.5279H82.3944C82.2213 22.9565 81.0894 22.4238 79.6644 22.4238C78.3594 22.4238 77.0543 23.1163 77.0543 24.5146C77.0543 25.8197 77.7335 26.3391 79.5712 26.632C80.5966 26.8052 81.0627 27.0182 81.0627 27.5909C81.0627 28.1768 80.6765 28.4831 79.8109 28.4831C78.8654 28.4831 78.5059 28.0703 78.426 27.3645H76.9078C76.9744 28.8427 78.0264 29.6683 79.8242 29.6683ZM89.0645 29.6683C90.0899 29.6683 90.9822 29.0557 91.3551 28.3633V29.5352H92.9664V19.3476H91.3551V23.6357C90.9689 22.9432 90.2631 22.4238 89.1311 22.4238C87.32 22.4238 86.0016 23.8354 86.0016 26.0594V26.1659C86.0016 28.4298 87.32 29.6683 89.0645 29.6683ZM89.464 28.3899C88.4253 28.3899 87.6529 27.6574 87.6529 26.126V26.0194C87.6529 24.5146 88.3454 23.689 89.5306 23.689C90.7025 23.689 91.4083 24.448 91.4083 25.9795V26.086C91.4083 27.6441 90.5827 28.3899 89.464 28.3899ZM97.6145 29.6683C99.6654 29.6683 101.197 28.2567 101.197 26.086V25.9795C101.197 23.8488 99.6654 22.4238 97.6279 22.4238C95.577 22.4238 94.0456 23.8621 94.0456 26.0194V26.126C94.0456 28.2434 95.5637 29.6683 97.6145 29.6683ZM97.6279 28.4165C96.4027 28.4165 95.6969 27.5243 95.6969 26.0994V25.9928C95.6969 24.5546 96.4293 23.689 97.6279 23.689C98.8264 23.689 99.5455 24.5679 99.5455 26.0061V26.0994C99.5455 27.5243 98.8264 28.4165 97.6279 28.4165ZM105.332 29.6683C107.223 29.6683 108.435 28.5364 108.555 26.9383H107.077C106.984 27.9238 106.251 28.4298 105.399 28.4298C104.214 28.4298 103.468 27.6308 103.468 26.1127V26.0061C103.468 24.5679 104.254 23.7156 105.359 23.7156C106.211 23.7156 106.824 24.1018 106.957 25.034H108.515C108.329 23.1163 106.877 22.4238 105.332 22.4238C103.388 22.4238 101.817 23.8221 101.817 26.0328V26.1393C101.817 28.3633 103.335 29.6683 105.332 29.6683ZM111.903 29.6683C113.035 29.6683 113.768 29.1223 114.114 28.4432V29.5352H115.725V22.5703H114.114V26.7119C114.114 27.8173 113.355 28.3766 112.489 28.3766C111.557 28.3766 111.118 27.8972 111.118 26.8451V22.5703H109.506V27.0315C109.506 28.8826 110.532 29.6683 111.903 29.6683ZM117.266 29.5352H118.877V25.3669C118.877 24.3015 119.61 23.7689 120.409 23.7689C121.195 23.7689 121.647 24.2083 121.647 25.2337V29.5352H123.259V25.3669C123.259 24.3015 123.991 23.7689 124.79 23.7689C125.589 23.7689 126.029 24.2083 126.029 25.2337V29.5352H127.64V25.1272C127.64 23.2095 126.601 22.4238 125.323 22.4238C124.457 22.4238 123.498 22.81 122.966 23.6756C122.619 22.81 121.9 22.4238 120.995 22.4238C119.969 22.4238 119.21 22.9832 118.877 23.6357V22.5703H117.266V29.5352ZM132.184 29.6683C133.968 29.6683 135.153 28.8693 135.38 27.4044H133.822C133.702 28.0836 133.196 28.4698 132.224 28.4698C131.025 28.4698 130.359 27.724 130.306 26.4056H135.406V25.9395C135.406 23.4493 133.848 22.4238 132.117 22.4238C130.133 22.4238 128.655 23.8621 128.655 26.0194V26.126C128.655 28.3233 130.133 29.6683 132.184 29.6683ZM130.333 25.327C130.492 24.2483 131.145 23.5957 132.117 23.5957C133.116 23.5957 133.728 24.1284 133.808 25.327H130.333ZM136.476 29.5352H138.087V25.4335C138.087 24.3282 138.82 23.7689 139.725 23.7689C140.684 23.7689 141.11 24.2483 141.11 25.3003V29.5352H142.721V25.1538C142.721 23.2362 141.736 22.4238 140.338 22.4238C139.192 22.4238 138.42 22.9965 138.087 23.6756V22.5703H136.476V29.5352ZM146.578 29.655C147.071 29.655 147.417 29.5751 147.67 29.4819V28.2034C147.444 28.2967 147.204 28.3366 146.885 28.3366C146.379 28.3366 146.086 28.057 146.086 27.4444V23.7822H147.617V22.5703H146.086V21.0389H144.474V22.5703H143.542V23.7822H144.474V27.5909C144.474 28.9093 145.193 29.655 146.578 29.655ZM38.841 49.655C39.3337 49.655 39.68 49.5751 39.933 49.4819V48.2034C39.7066 48.2967 39.4669 48.3366 39.1473 48.3366C38.6412 48.3366 38.3483 48.057 38.3483 47.4444V43.7822H39.8797V42.5703H38.3483V41.0389H36.7369V42.5703H35.8047V43.7822H36.7369V47.5909C36.7369 48.9093 37.456 49.655 38.841 49.655ZM44.1194 49.6683C46.1702 49.6683 47.7017 48.2567 47.7017 46.086V45.9795C47.7017 43.8488 46.1702 42.4238 44.1327 42.4238C42.0819 42.4238 40.5504 43.8621 40.5504 46.0194V46.126C40.5504 48.2434 42.0686 49.6683 44.1194 49.6683ZM44.1327 48.4165C42.9075 48.4165 42.2017 47.5243 42.2017 46.0994V45.9928C42.2017 44.5546 42.9342 43.689 44.1327 43.689C45.3312 43.689 46.0504 44.5679 46.0504 46.0061V46.0994C46.0504 47.5243 45.3312 48.4165 44.1327 48.4165ZM51.7574 52.092C53.9148 52.092 55.2864 51.0666 55.2997 49.0158V42.5703H53.6884V43.6357C53.2889 42.9432 52.5964 42.4238 51.4511 42.4238C49.6533 42.4238 48.3216 43.8887 48.3216 45.8463V45.9395C48.3216 47.9504 49.6666 49.2555 51.4111 49.2555C52.4366 49.2555 53.3022 48.6296 53.6884 47.9637V48.9892C53.6884 50.241 52.9959 50.8669 51.7441 50.8669C50.692 50.8669 50.1593 50.4674 50.0262 49.7749H48.4015C48.5879 51.1066 49.5734 52.092 51.7574 52.092ZM51.8107 48.017C50.7719 48.017 49.9729 47.218 49.9729 45.9262V45.8197C49.9729 44.5546 50.6654 43.689 51.8639 43.689C53.0225 43.689 53.7416 44.4747 53.7416 45.7931V45.8863C53.7416 47.218 52.9293 48.017 51.8107 48.017ZM59.8147 52.092C61.9721 52.092 63.3437 51.0666 63.357 49.0158V42.5703H61.7457V43.6357C61.3461 42.9432 60.6537 42.4238 59.5084 42.4238C57.7106 42.4238 56.3789 43.8887 56.3789 45.8463V45.9395C56.3789 47.9504 57.7239 49.2555 59.4684 49.2555C60.4939 49.2555 61.3595 48.6296 61.7457 47.9637V48.9892C61.7457 50.241 61.0532 50.8669 59.8014 50.8669C58.7493 50.8669 58.2166 50.4674 58.0835 49.7749H56.4588C56.6452 51.1066 57.6307 52.092 59.8147 52.092ZM59.868 48.017C58.8292 48.017 58.0302 47.218 58.0302 45.9262V45.8197C58.0302 44.5546 58.7227 43.689 59.9212 43.689C61.0798 43.689 61.7989 44.4747 61.7989 45.7931V45.8863C61.7989 47.218 60.9866 48.017 59.868 48.017ZM64.9422 49.5352H66.5536V39.3476H64.9422V49.5352ZM71.2107 49.6683C72.9951 49.6683 74.1804 48.8693 74.4068 47.4044H72.8487C72.7288 48.0836 72.2228 48.4698 71.2506 48.4698C70.0521 48.4698 69.3862 47.724 69.3329 46.4056H74.4334V45.9395C74.4334 43.4493 72.8753 42.4238 71.1441 42.4238C69.1598 42.4238 67.6816 43.8621 67.6816 46.0194V46.126C67.6816 48.3233 69.1598 49.6683 71.2107 49.6683ZM69.3596 45.327C69.5194 44.2483 70.1719 43.5957 71.1441 43.5957C72.1429 43.5957 72.7554 44.1284 72.8353 45.327H69.3596ZM79.0567 49.5352H80.162V43.5025H81.8666V42.5703H80.162V41.3185C80.162 40.6127 80.455 40.12 81.1741 40.12C81.4804 40.12 81.7601 40.1866 81.9598 40.2665V39.3343C81.6802 39.2411 81.4937 39.2011 81.1342 39.2011C79.7492 39.2011 79.0567 40.0268 79.0567 41.4384V42.5703H78.0579V43.5025H79.0567V49.5352ZM85.6025 49.655C87.5867 49.655 89.0383 48.2034 89.0383 46.0994V45.9928C89.0383 43.902 87.5867 42.4505 85.6158 42.4505C83.6449 42.4505 82.1933 43.9154 82.1933 46.0061V46.1127C82.1933 48.1502 83.6183 49.655 85.6025 49.655ZM85.6158 48.7361C84.2042 48.7361 83.3386 47.6974 83.3386 46.1127V46.0061C83.3386 44.4081 84.2175 43.3694 85.6158 43.3694C87.0008 43.3694 87.893 44.4081 87.893 46.0194V46.1127C87.893 47.6841 87.0141 48.7361 85.6158 48.7361ZM90.3798 49.5352H91.4851V45.7132C91.4851 43.9953 92.3774 43.5558 93.7757 43.4892V42.4505C92.5239 42.4904 91.9246 43.0364 91.4851 43.8221V42.5703H90.3798V49.5352ZM103.178 51.9589H104.284V42.5703H103.178V43.689C102.779 43.0098 102.06 42.4505 100.901 42.4505C98.9836 42.4505 97.6519 43.9553 97.6519 46.086V46.1926C97.6519 48.3633 98.9703 49.655 100.795 49.655C101.807 49.655 102.779 49.0158 103.178 48.3366V51.9589ZM100.915 48.7361C99.7427 48.7361 98.7971 47.8972 98.7971 46.1393V46.0328C98.7971 44.3415 99.6228 43.3694 101.008 43.3694C102.366 43.3694 103.218 44.2083 103.218 45.9928V46.0994C103.218 47.8838 102.206 48.7361 100.915 48.7361ZM108.508 49.655C109.626 49.655 110.399 49.0824 110.718 48.4298V49.5352H111.824V42.5703H110.718V46.7918C110.718 48.0436 109.786 48.6962 108.801 48.6962C107.709 48.6962 107.189 48.1502 107.189 46.925V42.5703H106.084V46.9783C106.084 48.8959 107.123 49.655 108.508 49.655ZM114.247 41.1188C114.646 41.1188 114.979 40.7858 114.979 40.3863C114.979 39.9868 114.646 39.6539 114.247 39.6539C113.847 39.6539 113.514 39.9868 113.514 40.3863C113.514 40.7858 113.847 41.1188 114.247 41.1188ZM113.714 49.5352H114.82V42.5703H113.714V49.5352ZM119.602 49.655C121.28 49.655 122.492 48.5364 122.638 47.0315H121.613C121.493 48.1635 120.601 48.7361 119.615 48.7361C118.27 48.7361 117.338 47.8306 117.338 46.126V46.0194C117.338 44.3814 118.31 43.3694 119.575 43.3694C120.534 43.3694 121.333 43.7822 121.506 44.8875H122.598C122.385 43.1163 121.027 42.4505 119.575 42.4505C117.711 42.4505 116.193 43.8887 116.193 46.0194V46.126C116.193 48.2834 117.657 49.655 119.602 49.655ZM123.937 49.5352H125.042V45.9262L128.132 49.5352H129.477L126.241 45.8064L129.224 42.5703H127.932L125.042 45.7797V39.2411H123.937V49.5352ZM135.399 49.5352H136.451L138.675 42.011L140.833 49.5352H141.898L144.375 40.0134H143.296L141.339 47.724L139.101 40.0134H138.276L136.038 47.6974L134.107 40.0134H132.922L135.399 49.5352ZM146.002 41.1188C146.402 41.1188 146.735 40.7858 146.735 40.3863C146.735 39.9868 146.402 39.6539 146.002 39.6539C145.603 39.6539 145.27 39.9868 145.27 40.3863C145.27 40.7858 145.603 41.1188 146.002 41.1188ZM145.469 49.5352H146.575V42.5703H145.469V49.5352ZM148.494 49.5352H149.612V39.2411H148.494V49.5352ZM151.531 49.5352H152.65V39.2411H151.531V49.5352Z" fill="#001064"/>
</svg>
