<svg width="188" height="63" viewBox="0 0 188 63" fill="none" xmlns="http://www.w3.org/2000/svg">
<rect x="1" y="1" width="128" height="62" fill="#FFE2DC"/>
<path d="M17.64 56.56C25.48 56.56 31.976 52.416 31.976 45.696C31.976 28.784 8.008 38.528 8.008 25.48C8.008 21.224 11.032 17.92 16.688 17.92C26.992 17.92 24.864 27.104 29.064 27.104C30.576 27.104 31.36 26.208 31.36 24.864C31.36 21 26.376 15.736 16.856 15.736C7.952 15.736 2.912 20.44 2.912 26.656C2.912 43.456 26.824 32.928 26.824 46.872C26.824 51.296 23.184 54.376 17.864 54.376C6.608 54.376 8.008 44.632 3.976 44.464C2.576 44.464 1.848 45.416 1.848 46.704C1.848 50.12 6.664 56.56 17.64 56.56ZM62.4649 45.472C62.4649 37.744 56.1929 35.784 50.5369 33.712V18.256C56.6409 19.208 55.8009 26.712 59.1609 26.712C60.7289 26.712 61.5689 25.648 61.5689 24.024C61.5689 21 57.7049 16.856 50.5369 16.352V12.656C50.5369 12.152 50.2569 11.872 49.9209 11.872H48.9129C48.5209 11.872 48.2969 12.152 48.2969 12.656V16.296C41.1849 16.576 36.5369 20.944 36.5369 26.656C36.5369 34.104 42.5289 36.232 48.0729 38.304V54.32C41.7449 53.256 41.6329 45.192 38.0489 45.192C36.7049 45.192 35.7529 46.088 35.7529 47.768C35.7529 50.232 39.8409 55.72 48.0729 56.168V61.432C48.0729 61.936 48.2969 62.272 48.6329 62.272H49.6969C50.0889 62.272 50.3129 61.936 50.3129 61.432V56.112C57.4809 55.664 62.4649 50.736 62.4649 45.472ZM41.6329 25.032C41.6329 21.336 44.3209 18.536 48.2969 18.2V32.872C44.6009 31.36 41.6329 29.4 41.6329 25.032ZM50.3129 54.376V39.2C54.1769 40.768 57.3129 42.672 57.3129 46.984C57.3129 50.68 54.1209 53.984 50.3129 54.376ZM79.9886 32.984L92.0286 19.376C92.7006 18.648 92.8686 18.312 92.8686 17.696V17.192C92.8686 16.576 92.4766 16.24 91.7486 16.24H67.9486C67.2766 16.24 66.8846 16.52 66.8846 17.248V19.432C66.8846 20.216 67.3326 20.552 68.0046 20.552H87.2126L76.7406 33.432C76.0126 34.328 76.4606 35.448 77.6926 35.448H78.3086C83.8526 35.448 88.2766 38.92 88.2766 45.472C88.2766 50.736 84.6926 54.264 79.2606 54.264C71.5886 54.264 72.2046 46.984 68.7886 46.984C67.3326 46.984 66.4366 47.992 66.4366 49.616C66.4366 52.192 70.1326 56.56 79.0926 56.56C88.1086 56.56 93.2606 51.24 93.2606 44.576C93.2606 37.632 87.7726 33.152 79.9886 32.984ZM111.835 31.248C107.971 31.248 104.443 32.368 101.867 34.216L104.331 20.272H122.923C123.371 20.272 123.651 19.992 123.651 19.488V17.024C123.651 16.52 123.371 16.24 122.923 16.24H102.707C102.203 16.24 101.811 16.464 101.811 16.968L99.3471 35.056C99.1791 36.568 101.027 37.464 102.203 36.568C105.003 34.72 107.299 33.656 110.491 33.656C116.427 33.656 119.843 37.856 119.843 44.128C119.843 50.176 115.979 54.152 110.659 54.152C102.371 54.152 103.099 47.04 99.9631 47.04C98.6751 47.04 97.4431 47.712 97.4431 49.504C97.4431 52.36 101.363 56.56 110.603 56.56C119.283 56.56 124.883 50.904 124.883 43.232C124.883 36.12 119.115 31.248 111.835 31.248Z" fill="#001064"/>
<path d="M147.002 42.842L141.692 56.288H142.988L148.316 42.842H147.002ZM159.716 50.744L164.63 43.148H162.686L158.924 49.268L155.072 43.148H153.038L158.006 50.744V56H159.716V50.744ZM170.284 50.456H164.938C164.962 50.096 165.04 49.76 165.172 49.448C165.304 49.124 165.484 48.842 165.712 48.602C165.94 48.362 166.21 48.176 166.522 48.044C166.846 47.9 167.206 47.828 167.602 47.828C167.986 47.828 168.334 47.9 168.646 48.044C168.97 48.176 169.246 48.362 169.474 48.602C169.714 48.83 169.9 49.106 170.032 49.43C170.176 49.754 170.26 50.096 170.284 50.456ZM171.76 53.048H170.248C170.116 53.66 169.84 54.116 169.42 54.416C169.012 54.716 168.484 54.866 167.836 54.866C167.332 54.866 166.894 54.782 166.522 54.614C166.15 54.446 165.844 54.224 165.604 53.948C165.364 53.66 165.19 53.336 165.082 52.976C164.974 52.604 164.926 52.214 164.938 51.806H171.904C171.928 51.242 171.874 50.648 171.742 50.024C171.622 49.4 171.394 48.824 171.058 48.296C170.734 47.768 170.296 47.336 169.744 47C169.204 46.652 168.52 46.478 167.692 46.478C167.056 46.478 166.468 46.598 165.928 46.838C165.4 47.078 164.938 47.414 164.542 47.846C164.158 48.278 163.858 48.788 163.642 49.376C163.426 49.964 163.318 50.612 163.318 51.32C163.342 52.028 163.444 52.682 163.624 53.282C163.816 53.882 164.098 54.398 164.47 54.83C164.842 55.262 165.298 55.598 165.838 55.838C166.39 56.078 167.038 56.198 167.782 56.198C168.838 56.198 169.714 55.934 170.41 55.406C171.106 54.878 171.556 54.092 171.76 53.048ZM181.734 55.964C181.47 56.12 181.104 56.198 180.636 56.198C180.24 56.198 179.922 56.09 179.682 55.874C179.454 55.646 179.34 55.28 179.34 54.776C178.92 55.28 178.428 55.646 177.864 55.874C177.312 56.09 176.712 56.198 176.064 56.198C175.644 56.198 175.242 56.15 174.858 56.054C174.486 55.958 174.162 55.808 173.886 55.604C173.61 55.4 173.388 55.136 173.22 54.812C173.064 54.476 172.986 54.074 172.986 53.606C172.986 53.078 173.076 52.646 173.256 52.31C173.436 51.974 173.67 51.704 173.958 51.5C174.258 51.284 174.594 51.122 174.966 51.014C175.35 50.906 175.74 50.816 176.136 50.744C176.556 50.66 176.952 50.6 177.324 50.564C177.708 50.516 178.044 50.456 178.332 50.384C178.62 50.3 178.848 50.186 179.016 50.042C179.184 49.886 179.268 49.664 179.268 49.376C179.268 49.04 179.202 48.77 179.07 48.566C178.95 48.362 178.788 48.206 178.584 48.098C178.392 47.99 178.17 47.918 177.918 47.882C177.678 47.846 177.438 47.828 177.198 47.828C176.55 47.828 176.01 47.954 175.578 48.206C175.146 48.446 174.912 48.908 174.876 49.592H173.346C173.37 49.016 173.49 48.53 173.706 48.134C173.922 47.738 174.21 47.42 174.57 47.18C174.93 46.928 175.338 46.748 175.794 46.64C176.262 46.532 176.76 46.478 177.288 46.478C177.708 46.478 178.122 46.508 178.53 46.568C178.95 46.628 179.328 46.754 179.664 46.946C180 47.126 180.27 47.384 180.474 47.72C180.678 48.056 180.78 48.494 180.78 49.034V53.822C180.78 54.182 180.798 54.446 180.834 54.614C180.882 54.782 181.026 54.866 181.266 54.866C181.398 54.866 181.554 54.836 181.734 54.776V55.964ZM179.25 51.194C179.058 51.338 178.806 51.446 178.494 51.518C178.182 51.578 177.852 51.632 177.504 51.68C177.168 51.716 176.826 51.764 176.478 51.824C176.13 51.872 175.818 51.956 175.542 52.076C175.266 52.196 175.038 52.37 174.858 52.598C174.69 52.814 174.606 53.114 174.606 53.498C174.606 53.75 174.654 53.966 174.75 54.146C174.858 54.314 174.99 54.452 175.146 54.56C175.314 54.668 175.506 54.746 175.722 54.794C175.938 54.842 176.166 54.866 176.406 54.866C176.91 54.866 177.342 54.8 177.702 54.668C178.062 54.524 178.356 54.35 178.584 54.146C178.812 53.93 178.98 53.702 179.088 53.462C179.196 53.21 179.25 52.976 179.25 52.76V51.194ZM183.104 46.694V56H184.634V51.86C184.634 51.26 184.694 50.732 184.814 50.276C184.934 49.808 185.126 49.412 185.39 49.088C185.654 48.764 186.002 48.518 186.434 48.35C186.866 48.182 187.388 48.098 188 48.098V46.478C187.172 46.454 186.488 46.622 185.948 46.982C185.408 47.342 184.952 47.9 184.58 48.656H184.544V46.694H183.104Z" fill="#001064"/>
</svg>
