<svg width="419" height="309" viewBox="0 0 419 309" fill="none" xmlns="http://www.w3.org/2000/svg">
<path d="M7.42 166.18C10.26 166.18 12.36 164.36 12.36 161.96C12.36 159.26 10.68 158.3 7.5 157.8C4.58 157.36 4.06 156.64 4.06 155.24C4.06 153.9 5.08 152.92 7.04 152.92C9.02 152.92 10.06 153.66 10.4 155.46H11.96C11.68 152.92 9.9 151.52 7.04 151.52C4.34 151.52 2.44 153.2 2.44 155.4C2.44 157.94 4.22 158.88 7.22 159.34C9.94 159.78 10.68 160.46 10.68 162.08C10.68 163.7 9.26 164.78 7.42 164.78C4.54 164.78 3.86 163.34 3.64 161.64H1.96C2.22 164.08 3.6 166.18 7.42 166.18ZM18.9991 166.18C21.3591 166.18 23.0991 165.08 23.4591 162.98H21.7991C21.5791 164.2 20.6391 164.8 19.0191 164.8C16.8791 164.8 15.7391 163.48 15.6591 161.1H23.5391V160.56C23.5391 156.82 21.2591 155.36 18.8391 155.36C15.9591 155.36 13.9391 157.56 13.9391 160.72V160.88C13.9391 164.1 16.0391 166.18 18.9991 166.18ZM15.7191 159.76C15.9991 157.9 17.1391 156.74 18.8391 156.74C20.5591 156.74 21.6791 157.6 21.8391 159.76H15.7191ZM28.3039 166.18C29.8439 166.18 30.7839 165.66 31.5639 164.68V166H33.2239V159.1C33.2239 156.18 31.4039 155.36 29.4039 155.36C27.3839 155.36 25.4839 156.24 25.2639 158.62H26.9239C27.0839 157.34 27.8839 156.74 29.3239 156.74C30.9239 156.74 31.5639 157.44 31.5639 159.1V159.86H30.0639C27.3839 159.86 24.8239 160.68 24.8239 163.1C24.8239 165.24 26.3639 166.18 28.3039 166.18ZM28.4639 164.86C27.0039 164.86 26.4839 164.18 26.4839 163.1C26.4839 161.56 28.0239 161.04 30.1239 161.04H31.5639V162.34C31.5639 163.96 30.2239 164.86 28.4639 164.86ZM35.9847 166H37.6447V159.6C37.6447 157.72 39.0447 156.8 40.4047 156.8C41.8447 156.8 42.6247 157.56 42.6247 159.4V166H44.2847V159.6C44.2847 157.72 45.6847 156.8 47.0447 156.8C48.4847 156.8 49.2647 157.56 49.2647 159.4V166H50.9247V159.52C50.9247 156.48 49.2847 155.36 47.4047 155.36C46.1047 155.36 44.5447 155.96 43.8247 157.32C43.2847 155.92 42.1047 155.36 40.7647 155.36C39.2647 155.36 38.1247 156.16 37.6447 157.14V155.54H35.9847V166ZM53.7278 166H55.4078V150.54H53.7278V166ZM62.585 166.18C64.945 166.18 66.685 165.08 67.045 162.98H65.385C65.165 164.2 64.225 164.8 62.605 164.8C60.465 164.8 59.325 163.48 59.245 161.1H67.125V160.56C67.125 156.82 64.845 155.36 62.425 155.36C59.545 155.36 57.525 157.56 57.525 160.72V160.88C57.525 164.1 59.625 166.18 62.585 166.18ZM59.305 159.76C59.585 157.9 60.725 156.74 62.425 156.74C64.145 156.74 65.265 157.6 65.425 159.76H59.305ZM72.5098 166.18C75.0498 166.18 76.3498 164.9 76.3498 163C76.3498 160.78 74.8298 160.3 72.6698 159.9C70.7498 159.56 70.2298 159.18 70.2298 158.24C70.2298 157.34 71.0098 156.74 72.2098 156.74C73.5298 156.74 74.1698 157.24 74.4098 158.38H76.0098C75.7298 156.12 74.1098 155.36 72.2298 155.36C70.5898 155.36 68.6898 156.36 68.6898 158.3C68.6898 160.12 69.6098 160.88 72.3298 161.38C73.9498 161.68 74.7698 162.04 74.7698 163.14C74.7698 164.26 74.0698 164.8 72.4898 164.8C70.8098 164.8 70.1498 164.02 70.0298 162.78H68.4098C68.5098 164.92 70.0098 166.18 72.5098 166.18ZM81.6192 166.18C84.1592 166.18 85.4592 164.9 85.4592 163C85.4592 160.78 83.9392 160.3 81.7792 159.9C79.8592 159.56 79.3392 159.18 79.3392 158.24C79.3392 157.34 80.1192 156.74 81.3192 156.74C82.6392 156.74 83.2792 157.24 83.5192 158.38H85.1192C84.8392 156.12 83.2192 155.36 81.3392 155.36C79.6992 155.36 77.7992 156.36 77.7992 158.3C77.7992 160.12 78.7192 160.88 81.4392 161.38C83.0592 161.68 83.8792 162.04 83.8792 163.14C83.8792 164.26 83.1792 164.8 81.5992 164.8C79.9192 164.8 79.2592 164.02 79.1392 162.78H77.5192C77.6192 164.92 79.1192 166.18 81.6192 166.18ZM94.9016 166.18C96.4416 166.18 97.3816 165.66 98.1616 164.68V166H99.8216V159.1C99.8216 156.18 98.0016 155.36 96.0016 155.36C93.9816 155.36 92.0816 156.24 91.8616 158.62H93.5216C93.6816 157.34 94.4816 156.74 95.9216 156.74C97.5216 156.74 98.1616 157.44 98.1616 159.1V159.86H96.6616C93.9816 159.86 91.4216 160.68 91.4216 163.1C91.4216 165.24 92.9616 166.18 94.9016 166.18ZM95.0616 164.86C93.6016 164.86 93.0816 164.18 93.0816 163.1C93.0816 161.56 94.6216 161.04 96.7216 161.04H98.1616V162.34C98.1616 163.96 96.8216 164.86 95.0616 164.86ZM102.582 166H104.242V159.66C104.242 157.78 105.622 156.8 107.162 156.8C108.842 156.8 109.622 157.62 109.622 159.46V166H111.282V159.58C111.282 156.54 109.762 155.36 107.602 155.36C105.882 155.36 104.722 156.22 104.242 157.2V155.54H102.582V166ZM117.975 166.18C119.495 166.18 120.955 165.22 121.555 164.2V166H123.215V150.54H121.555V157.22C120.955 156.2 119.875 155.36 118.135 155.36C115.255 155.36 113.255 157.62 113.255 160.82V160.98C113.255 164.24 115.235 166.18 117.975 166.18ZM118.155 164.8C116.395 164.8 114.975 163.54 114.975 160.9V160.74C114.975 158.2 116.215 156.74 118.295 156.74C120.335 156.74 121.615 158 121.615 160.68V160.84C121.615 163.52 120.095 164.8 118.155 164.8ZM134.108 166.18C136.648 166.18 137.948 164.9 137.948 163C137.948 160.78 136.428 160.3 134.268 159.9C132.348 159.56 131.827 159.18 131.827 158.24C131.827 157.34 132.608 156.74 133.808 156.74C135.128 156.74 135.768 157.24 136.008 158.38H137.608C137.328 156.12 135.708 155.36 133.828 155.36C132.188 155.36 130.288 156.36 130.288 158.3C130.288 160.12 131.208 160.88 133.928 161.38C135.548 161.68 136.368 162.04 136.368 163.14C136.368 164.26 135.668 164.8 134.088 164.8C132.408 164.8 131.748 164.02 131.628 162.78H130.008C130.108 164.92 131.608 166.18 134.108 166.18ZM140.817 153.36C141.417 153.36 141.917 152.86 141.917 152.26C141.917 151.66 141.417 151.16 140.817 151.16C140.217 151.16 139.717 151.66 139.717 152.26C139.717 152.86 140.217 153.36 140.817 153.36ZM140.017 166H141.677V155.54H140.017V166ZM144.575 166H146.235V159.6C146.235 157.72 147.635 156.8 148.995 156.8C150.435 156.8 151.215 157.56 151.215 159.4V166H152.875V159.6C152.875 157.72 154.275 156.8 155.635 156.8C157.075 156.8 157.855 157.56 157.855 159.4V166H159.515V159.52C159.515 156.48 157.875 155.36 155.995 155.36C154.695 155.36 153.135 155.96 152.415 157.32C151.875 155.92 150.695 155.36 149.355 155.36C147.855 155.36 146.715 156.16 146.235 157.14V155.54H144.575V166ZM162.278 169.64H163.938V164.28C164.538 165.32 165.758 166.18 167.478 166.18C170.358 166.18 172.238 163.98 172.238 160.78V160.62C172.238 157.36 170.218 155.36 167.478 155.36C165.958 155.36 164.538 156.28 163.938 157.3V155.54H162.278V169.64ZM167.318 164.8C165.278 164.8 163.878 163.54 163.878 160.86V160.7C163.878 158.02 165.358 156.74 167.298 156.74C169.058 156.74 170.518 158.06 170.518 160.7V160.86C170.518 163.4 169.398 164.8 167.318 164.8ZM174.357 166H176.037V150.54H174.357V166ZM183.214 166.18C185.574 166.18 187.314 165.08 187.674 162.98H186.014C185.794 164.2 184.854 164.8 183.234 164.8C181.094 164.8 179.954 163.48 179.874 161.1H187.754V160.56C187.754 156.82 185.474 155.36 183.054 155.36C180.174 155.36 178.154 157.56 178.154 160.72V160.88C178.154 164.1 180.254 166.18 183.214 166.18ZM179.934 159.76C180.214 157.9 181.354 156.74 183.054 156.74C184.774 156.74 185.894 157.6 186.054 159.76H179.934ZM197.314 166H198.894L202.234 154.7L205.474 166H207.074L210.794 151.7H209.174L206.234 163.28L202.874 151.7H201.634L198.274 163.24L195.374 151.7H193.594L197.314 166ZM213.293 153.36C213.893 153.36 214.393 152.86 214.393 152.26C214.393 151.66 213.893 151.16 213.293 151.16C212.693 151.16 212.193 151.66 212.193 152.26C212.193 152.86 212.693 153.36 213.293 153.36ZM212.493 166H214.153V155.54H212.493V166ZM217.091 166H218.771V150.54H217.091V166ZM221.708 166H223.388V150.54H221.708V166ZM233.178 166H234.998L237.438 158.16L239.618 166H241.458L244.718 155.54H243.018L240.558 163.96L238.178 155.54H236.738L234.198 163.96L231.758 155.54H229.958L233.178 166ZM246.457 166H248.117V160.26C248.117 157.68 249.457 157.02 251.557 156.92V155.36C249.677 155.42 248.777 156.24 248.117 157.42V155.54H246.457V166ZM254.317 153.36C254.917 153.36 255.417 152.86 255.417 152.26C255.417 151.66 254.917 151.16 254.317 151.16C253.717 151.16 253.217 151.66 253.217 152.26C253.217 152.86 253.717 153.36 254.317 153.36ZM253.517 166H255.177V155.54H253.517V166ZM261.255 166.14C261.935 166.14 262.335 166.04 262.675 165.92V164.52C262.315 164.66 261.915 164.74 261.395 164.74C260.555 164.74 260.095 164.24 260.095 163.22V156.94H262.535V155.54H260.095V153.16H258.435V155.54H256.935V156.94H258.435V163.38C258.435 165.02 259.355 166.14 261.255 166.14ZM265.524 153.36C266.124 153.36 266.624 152.86 266.624 152.26C266.624 151.66 266.124 151.16 265.524 151.16C264.924 151.16 264.424 151.66 264.424 152.26C264.424 152.86 264.924 153.36 265.524 153.36ZM264.724 166H266.384V155.54H264.724V166ZM269.282 166H270.942V159.66C270.942 157.78 272.322 156.8 273.862 156.8C275.542 156.8 276.322 157.62 276.322 159.46V166H277.982V159.58C277.982 156.54 276.462 155.36 274.302 155.36C272.582 155.36 271.422 156.22 270.942 157.2V155.54H269.282V166ZM284.915 169.82C287.835 169.82 289.895 168.34 289.915 165.3V155.54H288.255V157.22C287.655 156.2 286.575 155.36 284.835 155.36C281.955 155.36 279.955 157.72 279.955 160.56V160.7C279.955 163.58 281.975 165.66 284.715 165.66C286.235 165.66 287.655 164.7 288.255 163.68V165.2C288.255 167.44 286.955 168.42 284.895 168.42C283.115 168.42 282.115 167.8 281.875 166.6H280.175C280.455 168.36 281.815 169.82 284.915 169.82ZM284.895 164.28C283.135 164.28 281.675 162.92 281.675 160.64V160.48C281.675 158.28 282.915 156.74 284.995 156.74C287.035 156.74 288.315 158.1 288.315 160.44V160.58C288.315 162.92 286.835 164.28 284.895 164.28ZM6.96 196.18C9.32 196.18 11.06 195.08 11.42 192.98H9.76C9.54 194.2 8.6 194.8 6.98 194.8C4.84 194.8 3.7 193.48 3.62 191.1H11.5V190.56C11.5 186.82 9.22 185.36 6.8 185.36C3.92 185.36 1.9 187.56 1.9 190.72V190.88C1.9 194.1 4 196.18 6.96 196.18ZM3.68 189.76C3.96 187.9 5.1 186.74 6.8 186.74C8.52 186.74 9.64 187.6 9.8 189.76H3.68ZM12.1342 196H13.9142L16.7942 191.78L19.6142 196H21.5742L17.7542 190.5L21.2142 185.54H19.4142L16.8742 189.34L14.3142 185.54H12.3742L15.8742 190.62L12.1342 196ZM23.3206 199.64H24.9806V194.28C25.5806 195.32 26.8006 196.18 28.5206 196.18C31.4006 196.18 33.2806 193.98 33.2806 190.78V190.62C33.2806 187.36 31.2606 185.36 28.5206 185.36C27.0006 185.36 25.5806 186.28 24.9806 187.3V185.54H23.3206V199.64ZM28.3606 194.8C26.3206 194.8 24.9206 193.54 24.9206 190.86V190.7C24.9206 188.02 26.4006 186.74 28.3406 186.74C30.1006 186.74 31.5606 188.06 31.5606 190.7V190.86C31.5606 193.4 30.4406 194.8 28.3606 194.8ZM39.6397 196.18C41.9997 196.18 43.7397 195.08 44.0997 192.98H42.4397C42.2197 194.2 41.2797 194.8 39.6597 194.8C37.5197 194.8 36.3797 193.48 36.2997 191.1H44.1797V190.56C44.1797 186.82 41.8997 185.36 39.4797 185.36C36.5997 185.36 34.5797 187.56 34.5797 190.72V190.88C34.5797 194.1 36.6797 196.18 39.6397 196.18ZM36.3597 189.76C36.6397 187.9 37.7797 186.74 39.4797 186.74C41.1997 186.74 42.3197 187.6 42.4797 189.76H36.3597ZM46.2269 196H47.8869V190.26C47.8869 187.68 49.2269 187.02 51.3269 186.92V185.36C49.4469 185.42 48.5469 186.24 47.8869 187.42V185.54H46.2269V196ZM54.0864 183.36C54.6864 183.36 55.1864 182.86 55.1864 182.26C55.1864 181.66 54.6864 181.16 54.0864 181.16C53.4864 181.16 52.9864 181.66 52.9864 182.26C52.9864 182.86 53.4864 183.36 54.0864 183.36ZM53.2864 196H54.9464V185.54H53.2864V196ZM62.1241 196.18C64.4841 196.18 66.2241 195.08 66.5841 192.98H64.9241C64.7041 194.2 63.7641 194.8 62.1441 194.8C60.0041 194.8 58.8641 193.48 58.7841 191.1H66.6641V190.56C66.6641 186.82 64.3841 185.36 61.9641 185.36C59.0841 185.36 57.0641 187.56 57.0641 190.72V190.88C57.0641 194.1 59.1641 196.18 62.1241 196.18ZM58.8441 189.76C59.1241 187.9 60.2641 186.74 61.9641 186.74C63.6841 186.74 64.8041 187.6 64.9641 189.76H58.8441ZM68.7113 196H70.3713V189.66C70.3713 187.78 71.7513 186.8 73.2913 186.8C74.9713 186.8 75.7513 187.62 75.7513 189.46V196H77.4113V189.58C77.4113 186.54 75.8913 185.36 73.7313 185.36C72.0113 185.36 70.8513 186.22 70.3713 187.2V185.54H68.7113V196ZM84.5044 196.18C87.0244 196.18 88.8444 194.5 89.0644 192.24H87.5244C87.3444 193.94 86.0044 194.8 84.5244 194.8C82.5044 194.8 81.1044 193.44 81.1044 190.88V190.72C81.1044 188.26 82.5644 186.74 84.4644 186.74C85.9044 186.74 87.1044 187.36 87.3644 189.02H89.0044C88.6844 186.36 86.6444 185.36 84.4644 185.36C81.6644 185.36 79.3844 187.52 79.3844 190.72V190.88C79.3844 194.12 81.5844 196.18 84.5044 196.18ZM95.3506 196.18C97.7106 196.18 99.4506 195.08 99.8106 192.98H98.1506C97.9306 194.2 96.9906 194.8 95.3706 194.8C93.2306 194.8 92.0906 193.48 92.0106 191.1H99.8906V190.56C99.8906 186.82 97.6106 185.36 95.1906 185.36C92.3106 185.36 90.2906 187.56 90.2906 190.72V190.88C90.2906 194.1 92.3906 196.18 95.3506 196.18ZM92.0706 189.76C92.3506 187.9 93.4906 186.74 95.1906 186.74C96.9106 186.74 98.0306 187.6 98.1906 189.76H92.0706ZM108.831 196H110.651L113.091 188.16L115.271 196H117.111L120.371 185.54H118.671L116.211 193.96L113.831 185.54H112.391L109.851 193.96L107.411 185.54H105.611L108.831 196ZM122.95 183.36C123.55 183.36 124.05 182.86 124.05 182.26C124.05 181.66 123.55 181.16 122.95 181.16C122.35 181.16 121.85 181.66 121.85 182.26C121.85 182.86 122.35 183.36 122.95 183.36ZM122.15 196H123.81V185.54H122.15V196ZM129.887 196.14C130.567 196.14 130.967 196.04 131.307 195.92V194.52C130.947 194.66 130.547 194.74 130.027 194.74C129.187 194.74 128.727 194.24 128.727 193.22V186.94H131.167V185.54H128.727V183.16H127.067V185.54H125.567V186.94H127.067V193.38C127.067 195.02 127.987 196.14 129.887 196.14ZM133.317 196H134.977V189.66C134.977 187.78 136.357 186.8 137.897 186.8C139.577 186.8 140.357 187.62 140.357 189.46V196H142.017V189.58C142.017 186.54 140.497 185.36 138.337 185.36C136.617 185.36 135.457 186.22 134.977 187.2V180.54H133.317V196ZM149.563 196H151.223V190.26C151.223 187.68 152.563 187.02 154.663 186.92V185.36C152.783 185.42 151.883 186.24 151.223 187.42V185.54H149.563V196ZM160.569 196.18C162.929 196.18 164.669 195.08 165.029 192.98H163.369C163.149 194.2 162.209 194.8 160.589 194.8C158.449 194.8 157.309 193.48 157.229 191.1H165.109V190.56C165.109 186.82 162.829 185.36 160.409 185.36C157.529 185.36 155.509 187.56 155.509 190.72V190.88C155.509 194.1 157.609 196.18 160.569 196.18ZM157.289 189.76C157.569 187.9 158.709 186.74 160.409 186.74C162.129 186.74 163.249 187.6 163.409 189.76H157.289ZM167.197 196H168.877V180.54H167.197V196ZM176.054 196.18C178.414 196.18 180.154 195.08 180.514 192.98H178.854C178.634 194.2 177.694 194.8 176.074 194.8C173.934 194.8 172.794 193.48 172.714 191.1H180.594V190.56C180.594 186.82 178.314 185.36 175.894 185.36C173.014 185.36 170.994 187.56 170.994 190.72V190.88C170.994 194.1 173.094 196.18 176.054 196.18ZM172.774 189.76C173.054 187.9 174.194 186.74 175.894 186.74C177.614 186.74 178.734 187.6 178.894 189.76H172.774ZM185.163 196H187.283L191.043 185.54H189.323L186.263 194.32L183.163 185.54H181.363L185.163 196ZM195.249 196.18C196.789 196.18 197.729 195.66 198.509 194.68V196H200.169V189.1C200.169 186.18 198.349 185.36 196.349 185.36C194.329 185.36 192.429 186.24 192.209 188.62H193.869C194.029 187.34 194.829 186.74 196.269 186.74C197.869 186.74 198.509 187.44 198.509 189.1V189.86H197.009C194.329 189.86 191.769 190.68 191.769 193.1C191.769 195.24 193.309 196.18 195.249 196.18ZM195.409 194.86C193.949 194.86 193.429 194.18 193.429 193.1C193.429 191.56 194.969 191.04 197.069 191.04H198.509V192.34C198.509 193.96 197.169 194.86 195.409 194.86ZM202.93 196H204.59V189.66C204.59 187.78 205.97 186.8 207.51 186.8C209.19 186.8 209.97 187.62 209.97 189.46V196H211.63V189.58C211.63 186.54 210.11 185.36 207.95 185.36C206.23 185.36 205.07 186.22 204.59 187.2V185.54H202.93V196ZM217.563 196.14C218.243 196.14 218.643 196.04 218.983 195.92V194.52C218.623 194.66 218.223 194.74 217.703 194.74C216.863 194.74 216.403 194.24 216.403 193.22V186.94H218.843V185.54H216.403V183.16H214.743V185.54H213.243V186.94H214.743V193.38C214.743 195.02 215.663 196.14 217.563 196.14ZM226.625 183.36C227.225 183.36 227.725 182.86 227.725 182.26C227.725 181.66 227.225 181.16 226.625 181.16C226.025 181.16 225.525 181.66 225.525 182.26C225.525 182.86 226.025 183.36 226.625 183.36ZM225.825 196H227.485V185.54H225.825V196ZM230.383 196H232.043V189.66C232.043 187.78 233.423 186.8 234.963 186.8C236.643 186.8 237.423 187.62 237.423 189.46V196H239.083V189.58C239.083 186.54 237.563 185.36 235.403 185.36C233.683 185.36 232.523 186.22 232.043 187.2V185.54H230.383V196ZM245.076 196.18C247.616 196.18 248.916 194.9 248.916 193C248.916 190.78 247.396 190.3 245.236 189.9C243.316 189.56 242.796 189.18 242.796 188.24C242.796 187.34 243.576 186.74 244.776 186.74C246.096 186.74 246.736 187.24 246.976 188.38H248.576C248.296 186.12 246.676 185.36 244.796 185.36C243.156 185.36 241.256 186.36 241.256 188.3C241.256 190.12 242.176 190.88 244.896 191.38C246.516 191.68 247.336 192.04 247.336 193.14C247.336 194.26 246.636 194.8 245.056 194.8C243.376 194.8 242.716 194.02 242.596 192.78H240.976C241.076 194.92 242.576 196.18 245.076 196.18ZM251.786 183.36C252.386 183.36 252.886 182.86 252.886 182.26C252.886 181.66 252.386 181.16 251.786 181.16C251.186 181.16 250.686 181.66 250.686 182.26C250.686 182.86 251.186 183.36 251.786 183.36ZM250.986 196H252.646V185.54H250.986V196ZM259.723 199.82C262.643 199.82 264.703 198.34 264.723 195.3V185.54H263.063V187.22C262.463 186.2 261.383 185.36 259.643 185.36C256.763 185.36 254.763 187.72 254.763 190.56V190.7C254.763 193.58 256.783 195.66 259.523 195.66C261.043 195.66 262.463 194.7 263.063 193.68V195.2C263.063 197.44 261.763 198.42 259.703 198.42C257.923 198.42 256.923 197.8 256.683 196.6H254.983C255.263 198.36 256.623 199.82 259.723 199.82ZM259.703 194.28C257.943 194.28 256.483 192.92 256.483 190.64V190.48C256.483 188.28 257.723 186.74 259.803 186.74C261.843 186.74 263.123 188.1 263.123 190.44V190.58C263.123 192.92 261.643 194.28 259.703 194.28ZM267.582 196H269.242V189.66C269.242 187.78 270.622 186.8 272.162 186.8C273.842 186.8 274.622 187.62 274.622 189.46V196H276.282V189.58C276.282 186.54 274.762 185.36 272.602 185.36C270.882 185.36 269.722 186.22 269.242 187.2V180.54H267.582V196ZM282.215 196.14C282.895 196.14 283.295 196.04 283.635 195.92V194.52C283.275 194.66 282.875 194.74 282.355 194.74C281.515 194.74 281.055 194.24 281.055 193.22V186.94H283.495V185.54H281.055V183.16H279.395V185.54H277.895V186.94H279.395V193.38C279.395 195.02 280.315 196.14 282.215 196.14ZM288.885 196.18C291.425 196.18 292.725 194.9 292.725 193C292.725 190.78 291.205 190.3 289.045 189.9C287.125 189.56 286.605 189.18 286.605 188.24C286.605 187.34 287.385 186.74 288.585 186.74C289.905 186.74 290.545 187.24 290.785 188.38H292.385C292.105 186.12 290.485 185.36 288.605 185.36C286.965 185.36 285.065 186.36 285.065 188.3C285.065 190.12 285.985 190.88 288.705 191.38C290.325 191.68 291.145 192.04 291.145 193.14C291.145 194.26 290.445 194.8 288.865 194.8C287.185 194.8 286.525 194.02 286.405 192.78H284.785C284.885 194.92 286.385 196.18 288.885 196.18ZM5.86 226.14C6.54 226.14 6.94 226.04 7.28 225.92V224.52C6.92 224.66 6.52 224.74 6 224.74C5.16 224.74 4.7 224.24 4.7 223.22V216.94H7.14V215.54H4.7V213.16H3.04V215.54H1.54V216.94H3.04V223.38C3.04 225.02 3.96 226.14 5.86 226.14ZM13.6294 226.18C16.6094 226.18 18.7894 224 18.7894 220.84V220.68C18.7894 217.54 16.6094 215.36 13.6494 215.36C10.6894 215.36 8.50938 217.56 8.50938 220.7V220.86C8.50938 223.92 10.6494 226.18 13.6294 226.18ZM13.6494 224.8C11.5294 224.8 10.2294 223.24 10.2294 220.86V220.7C10.2294 218.3 11.5494 216.74 13.6494 216.74C15.7294 216.74 17.0694 218.3 17.0694 220.72V220.86C17.0694 223.22 15.7494 224.8 13.6494 224.8ZM29.8327 229.82C32.7527 229.82 34.8127 228.34 34.8327 225.3V215.54H33.1727V217.22C32.5727 216.2 31.4927 215.36 29.7527 215.36C26.8727 215.36 24.8727 217.72 24.8727 220.56V220.7C24.8727 223.58 26.8927 225.66 29.6327 225.66C31.1527 225.66 32.5727 224.7 33.1727 223.68V225.2C33.1727 227.44 31.8727 228.42 29.8127 228.42C28.0327 228.42 27.0327 227.8 26.7927 226.6H25.0927C25.3727 228.36 26.7327 229.82 29.8327 229.82ZM29.8127 224.28C28.0527 224.28 26.5927 222.92 26.5927 220.64V220.48C26.5927 218.28 27.8327 216.74 29.9127 216.74C31.9527 216.74 33.2327 218.1 33.2327 220.44V220.58C33.2327 222.92 31.7527 224.28 29.8127 224.28ZM41.2317 226.18C42.9117 226.18 44.0717 225.32 44.5517 224.34V226H46.2117V215.54H44.5517V221.88C44.5517 223.76 43.1517 224.74 41.6717 224.74C40.0317 224.74 39.2517 223.92 39.2517 222.08V215.54H37.5917V222.16C37.5917 225.04 39.1517 226.18 41.2317 226.18ZM49.9067 213.36C50.5067 213.36 51.0067 212.86 51.0067 212.26C51.0067 211.66 50.5067 211.16 49.9067 211.16C49.3067 211.16 48.8067 211.66 48.8067 212.26C48.8067 212.86 49.3067 213.36 49.9067 213.36ZM49.1067 226H50.7667V215.54H49.1067V226ZM57.6044 226.18C59.1244 226.18 60.5844 225.22 61.1844 224.2V226H62.8444V210.54H61.1844V217.22C60.5844 216.2 59.5044 215.36 57.7644 215.36C54.8844 215.36 52.8844 217.62 52.8844 220.82V220.98C52.8844 224.24 54.8644 226.18 57.6044 226.18ZM57.7844 224.8C56.0244 224.8 54.6044 223.54 54.6044 220.9V220.74C54.6044 218.2 55.8444 216.74 57.9244 216.74C59.9644 216.74 61.2444 218 61.2444 220.68V220.84C61.2444 223.52 59.7244 224.8 57.7844 224.8ZM69.9834 226.18C72.3434 226.18 74.0834 225.08 74.4434 222.98H72.7834C72.5634 224.2 71.6234 224.8 70.0034 224.8C67.8634 224.8 66.7234 223.48 66.6434 221.1H74.5234V220.56C74.5234 216.82 72.2434 215.36 69.8234 215.36C66.9434 215.36 64.9234 217.56 64.9234 220.72V220.88C64.9234 224.1 67.0234 226.18 69.9834 226.18ZM66.7034 219.76C66.9834 217.9 68.1234 216.74 69.8234 216.74C71.5434 216.74 72.6634 217.6 72.8234 219.76H66.7034ZM82.3036 229.64H83.9836L89.7636 215.54H88.0636L85.1636 223.04L81.9636 215.54H80.1836L84.2836 224.92L82.3036 229.64ZM95.4966 226.18C98.4766 226.18 100.657 224 100.657 220.84V220.68C100.657 217.54 98.4766 215.36 95.5166 215.36C92.5566 215.36 90.3766 217.56 90.3766 220.7V220.86C90.3766 223.92 92.5166 226.18 95.4966 226.18ZM95.5166 224.8C93.3966 224.8 92.0966 223.24 92.0966 220.86V220.7C92.0966 218.3 93.4166 216.74 95.5166 216.74C97.5966 216.74 98.9366 218.3 98.9366 220.72V220.86C98.9366 223.22 97.6166 224.8 95.5166 224.8ZM106.267 226.18C107.947 226.18 109.107 225.32 109.587 224.34V226H111.247V215.54H109.587V221.88C109.587 223.76 108.187 224.74 106.707 224.74C105.067 224.74 104.287 223.92 104.287 222.08V215.54H102.627V222.16C102.627 225.04 104.187 226.18 106.267 226.18ZM115.242 226.1C115.942 226.1 116.522 225.54 116.522 224.82C116.522 224.1 115.942 223.54 115.242 223.54C114.542 223.54 113.962 224.1 113.962 224.82C113.962 225.54 114.542 226.1 115.242 226.1Z" fill="#001064"/>
<path d="M41.698 62.18H36.784C36.28 62.18 35.944 62.39 35.944 62.81V62.936C35.944 63.86 38.002 64.028 37.456 65.666L31.198 85.658L24.856 65.666C24.31 63.776 26.494 63.776 26.494 62.852V62.768C26.494 62.39 26.2 62.18 25.696 62.18H18.304C17.8 62.18 17.506 62.39 17.506 62.768V62.852C17.506 63.776 19.27 63.986 19.816 65.666L21.244 69.95L15.742 85.7L8.35 65.708C7.72 63.986 9.778 63.86 9.778 62.894V62.768C9.778 62.432 9.442 62.18 8.896 62.18H1.504C1 62.18 0.664 62.39 0.664 62.768V62.852C0.664 63.86 2.218 63.776 3.016 65.708L12.97 90.656C13.348 91.58 13.852 92 14.86 92C15.616 92 16.33 91.58 16.666 90.572L22.546 73.772L28.258 90.656C28.594 91.58 29.266 92 30.148 92C30.988 92 31.828 91.622 32.164 90.572L40.354 65.666C40.984 63.818 42.538 63.818 42.538 62.894V62.768C42.538 62.432 42.244 62.18 41.698 62.18ZM47.5938 68.354C49.6518 68.354 50.9958 67.052 50.9958 65.204C50.9958 63.398 49.6518 62.054 47.5938 62.054C45.4938 62.054 44.1078 63.398 44.1078 65.204C44.1078 67.052 45.4938 68.354 47.5938 68.354ZM44.4858 92H50.8698C51.4158 92 51.7938 91.748 51.7938 91.37V91.202C51.7938 90.278 50.0718 90.11 50.0718 88.472V72.302C50.0718 71.63 49.5258 71.126 48.5598 71.588L44.3598 73.688C43.8978 73.94 43.6038 74.108 43.6038 74.444V74.57C43.6038 75.326 45.1578 75.746 45.1578 77.468V88.472C45.1578 90.11 43.6038 90.278 43.6038 91.202V91.37C43.6038 91.748 43.9398 92 44.4858 92ZM54.849 92H61.233C61.779 92 62.157 91.748 62.157 91.37V91.244C62.157 90.278 60.435 90.152 60.435 88.514V61.214C60.435 60.584 59.889 60.08 58.923 60.542L54.681 62.642C54.261 62.852 53.967 63.02 53.967 63.398V63.524C53.967 64.28 55.521 64.616 55.521 66.38V88.514C55.521 90.152 53.967 90.278 53.967 91.244V91.37C53.967 91.748 54.303 92 54.849 92ZM65.1362 92H71.5202C72.0662 92 72.4442 91.748 72.4442 91.37V91.244C72.4442 90.278 70.7222 90.152 70.7222 88.514V61.214C70.7222 60.584 70.1762 60.08 69.2102 60.542L64.9682 62.642C64.5482 62.852 64.2542 63.02 64.2542 63.398V63.524C64.2542 64.28 65.8082 64.616 65.8082 66.38V88.514C65.8082 90.152 64.2542 90.278 64.2542 91.244V91.37C64.2542 91.748 64.5902 92 65.1362 92ZM97.0927 92.42C104.233 92.42 108.223 87.632 108.937 82.382C109.105 81.122 107.719 80.912 107.131 81.794C105.871 84.44 103.015 87.926 98.3947 87.926C93.0607 87.926 87.8527 82.214 87.8527 73.814C87.8527 67.85 91.5067 63.944 95.6647 63.944C102.469 63.944 102.259 71.966 106.123 71.966C107.635 71.966 108.517 71.042 108.517 69.656C108.517 66.17 103.435 61.802 96.7987 61.802C88.6087 61.802 82.8547 68.06 82.8547 76.754C82.8547 84.776 89.5327 92.42 97.0927 92.42ZM122.296 71.42C119.608 71.42 117.634 72.89 116.71 75.578V72.302C116.71 71.588 116.374 71.168 115.492 71.588L111.376 73.478C110.914 73.73 110.62 74.024 110.62 74.36V74.486C110.62 75.41 112.426 75.494 112.426 77.216V88.514C112.426 90.152 110.83 90.32 110.83 91.244V91.412C110.83 91.79 111.166 92 111.712 92H118.222C118.768 92 119.104 91.79 119.104 91.412V91.244C119.104 90.32 117.172 90.152 117.172 88.514V79.526C117.172 76.796 118.096 74.318 120.07 74.318C122.506 74.318 121.246 77.594 123.976 77.594C125.572 77.594 126.16 76.376 126.16 74.948C126.16 73.016 124.774 71.42 122.296 71.42ZM143.824 85.826C142.984 87.506 141.094 88.892 138.448 88.892C135.466 88.892 133.324 87.128 132.274 84.272L142.438 80.534C143.74 80.072 144.58 79.19 144.58 77.594C144.58 74.654 142.144 71.42 136.726 71.42C131.182 71.42 126.688 75.746 126.688 81.752C126.688 88.262 131.014 92.42 136.642 92.42C141.976 92.42 144.79 88.724 145.168 86.246C145.252 85.406 144.286 85.238 143.824 85.826ZM135.886 73.016C138.322 73.016 139.876 76.04 139.876 77.762C139.876 78.602 139.54 79.19 138.784 79.526L131.812 82.55C131.644 81.71 131.56 80.828 131.56 79.862C131.56 75.83 133.24 73.016 135.886 73.016ZM165.171 88.22L164.331 80.156C163.743 74.738 160.341 71.42 155.049 71.42C150.555 71.42 147.279 73.478 147.279 76.124C147.279 77.3 148.077 78.056 149.337 78.056C151.983 78.056 151.143 72.974 155.049 72.974C157.989 72.974 158.997 75.494 159.459 80.366L159.543 81.206C158.409 80.324 156.729 79.778 154.671 79.778C150.429 79.778 146.985 81.962 147.027 86.078C147.027 90.194 150.303 92.42 154.881 92.42C157.863 92.42 159.753 91.286 160.719 89.732C160.887 91.79 161.937 92.252 164.079 92.252C165.885 92.252 167.481 92 167.481 91.202C167.481 90.11 165.465 90.95 165.171 88.22ZM156.267 90.824C153.663 90.824 151.983 88.346 151.983 85.49C151.983 82.97 153.621 81.374 155.931 81.374C158.157 81.374 159.753 82.886 159.921 85.28L160.047 86.582C160.173 88.85 158.619 90.824 156.267 90.824ZM176.203 92.42C179.983 92.42 182.125 89.606 182.125 86.792C182.125 86.036 181.117 85.91 180.739 86.582C180.487 87.8 179.521 88.766 177.757 88.766C176.371 88.766 175.363 87.674 175.363 85.658V73.898H180.655C181.075 73.898 181.411 73.604 181.411 73.184V72.596C181.411 72.176 181.075 71.84 180.655 71.84H175.363L175.321 67.766C175.321 67.178 175.069 66.842 174.523 66.842H173.893C173.473 66.842 173.137 67.178 173.053 67.766C172.717 70.202 171.415 71.84 169.231 71.84H167.929C167.467 71.84 167.215 72.134 167.215 72.596V73.184C167.215 73.604 167.509 73.898 167.929 73.898H170.323V85.616C170.323 90.152 172.675 92.42 176.203 92.42ZM187.592 68.354C189.65 68.354 190.994 67.052 190.994 65.204C190.994 63.398 189.65 62.054 187.592 62.054C185.492 62.054 184.106 63.398 184.106 65.204C184.106 67.052 185.492 68.354 187.592 68.354ZM184.484 92H190.868C191.414 92 191.792 91.748 191.792 91.37V91.202C191.792 90.278 190.07 90.11 190.07 88.472V72.302C190.07 71.63 189.524 71.126 188.558 71.588L184.358 73.688C183.896 73.94 183.602 74.108 183.602 74.444V74.57C183.602 75.326 185.156 75.746 185.156 77.468V88.472C185.156 90.11 183.602 90.278 183.602 91.202V91.37C183.602 91.748 183.938 92 184.484 92ZM205.221 92.42C211.311 92.42 215.343 87.8 215.343 82.046C215.343 76.25 210.891 71.42 204.255 71.42C198.501 71.42 193.839 75.746 193.839 81.71C193.839 87.296 198.081 92.42 205.221 92.42ZM205.851 90.824C201.609 90.824 198.795 85.28 198.795 80.072C198.795 75.452 200.727 73.016 203.709 73.016C207.573 73.016 210.387 77.888 210.387 83.768C210.387 88.304 208.455 90.824 205.851 90.824ZM238.5 88.472L237.996 80.534C237.576 73.94 233.964 71.42 230.016 71.42C227.118 71.42 224.808 72.806 223.632 75.074V72.344C223.632 71.63 223.212 71.126 222.33 71.588L218.256 73.562C217.794 73.772 217.5 73.982 217.5 74.318V74.444C217.5 75.368 219.39 75.41 219.39 77.258V88.514C219.39 90.152 217.71 90.32 217.71 91.244V91.412C217.71 91.79 218.046 92.042 218.592 92.042H225.102C225.69 92.042 226.026 91.79 226.026 91.412V91.244C226.026 90.32 224.304 90.152 224.304 88.514V78.644C224.304 75.62 226.026 73.436 228.714 73.436C231.276 73.436 232.914 75.578 233.124 80.366L233.544 88.472C233.628 90.152 232.032 90.32 232.032 91.244V91.412C232.032 91.79 232.368 92.042 232.956 92.042H239.088C239.634 92.042 240.012 91.79 240.012 91.412V91.244C240.012 90.32 238.584 90.152 238.5 88.472Z" fill="#001064"/>
<path d="M8.704 29.216C12.112 29.216 14.632 27.032 14.632 24.152C14.632 20.912 12.616 19.76 8.8 19.16C5.296 18.632 4.672 17.768 4.672 16.088C4.672 14.48 5.896 13.304 8.248 13.304C10.624 13.304 11.872 14.192 12.28 16.352H14.152C13.816 13.304 11.68 11.624 8.248 11.624C5.008 11.624 2.728 13.64 2.728 16.28C2.728 19.328 4.864 20.456 8.464 21.008C11.728 21.536 12.616 22.352 12.616 24.296C12.616 26.24 10.912 27.536 8.704 27.536C5.248 27.536 4.432 25.808 4.168 23.768H2.152C2.464 26.696 4.12 29.216 8.704 29.216ZM21.3789 29.168C22.1949 29.168 22.6749 29.048 23.0829 28.904V27.224C22.6509 27.392 22.1709 27.488 21.5469 27.488C20.5389 27.488 19.9869 26.888 19.9869 25.664V18.128H22.9149V16.448H19.9869V13.592H17.9949V16.448H16.1949V18.128H17.9949V25.856C17.9949 27.824 19.0989 29.168 21.3789 29.168ZM30.7301 29.216C33.5621 29.216 35.6501 27.896 36.0821 25.376H34.0901C33.8261 26.84 32.6981 27.56 30.7541 27.56C28.1861 27.56 26.8181 25.976 26.7221 23.12H36.1781V22.472C36.1781 17.984 33.4421 16.232 30.5381 16.232C27.0821 16.232 24.6581 18.872 24.6581 22.664V22.856C24.6581 26.72 27.1781 29.216 30.7301 29.216ZM26.7941 21.512C27.1301 19.28 28.4981 17.888 30.5381 17.888C32.6021 17.888 33.9461 18.92 34.1381 21.512H26.7941ZM38.7348 33.368H40.7268V26.936C41.4468 28.184 42.9108 29.216 44.9748 29.216C48.4308 29.216 50.6868 26.576 50.6868 22.736V22.544C50.6868 18.632 48.2628 16.232 44.9748 16.232C43.1508 16.232 41.4468 17.336 40.7268 18.56V16.448H38.7348V33.368ZM44.7828 27.56C42.3348 27.56 40.6548 26.048 40.6548 22.832V22.64C40.6548 19.424 42.4308 17.888 44.7588 17.888C46.8708 17.888 48.6228 19.472 48.6228 22.64V22.832C48.6228 25.88 47.2788 27.56 44.7828 27.56ZM61.7492 29H63.8372V11.84H61.8932L57.9092 14.72V16.664L61.7492 13.904V29Z" fill="#001064"/>
<rect x="1" y="282" width="187" height="27" fill="#F5D8BE"/>
<rect x="1" y="251" width="303" height="27" fill="#F5D8BE"/>
<path d="M2.476 273H10.828V271.11H4.87V267.348H9.406V265.548H4.87V262.02H10.522V260.13H2.476V273ZM11.46 273H13.728L15.978 269.598L18.174 273H20.712L17.346 268.014L20.388 263.586H18.102L16.158 266.628L14.196 263.586H11.676L14.736 268.176L11.46 273ZM21.88 276.222H24.058V271.524C24.562 272.442 25.642 273.18 27.136 273.18C29.566 273.18 31.312 271.344 31.312 268.32V268.176C31.312 265.134 29.494 263.388 27.136 263.388C25.75 263.388 24.58 264.198 24.058 265.098V263.586H21.88V276.222ZM26.596 271.452C25.012 271.452 23.986 270.462 23.986 268.356V268.212C23.986 266.124 25.066 265.098 26.578 265.098C28 265.098 29.08 266.124 29.08 268.212V268.356C29.08 270.372 28.198 271.452 26.596 271.452ZM32.7706 273H34.9486V268.104C34.9486 266.106 36.1006 265.494 38.0086 265.476V263.442C36.4246 263.46 35.5426 264.162 34.9486 265.35V263.586H32.7706V273ZM43.3715 273.18C45.7835 273.18 47.3855 272.1 47.6915 270.12H45.5855C45.4235 271.038 44.7395 271.56 43.4255 271.56C41.8055 271.56 40.9055 270.552 40.8335 268.77H47.7275V268.14C47.7275 264.774 45.6215 263.388 43.2815 263.388C40.5995 263.388 38.6015 265.332 38.6015 268.248V268.392C38.6015 271.362 40.5995 273.18 43.3715 273.18ZM40.8695 267.312C41.0855 265.854 41.9675 264.972 43.2815 264.972C44.6315 264.972 45.4595 265.692 45.5675 267.312H40.8695ZM52.4828 273.18C54.8948 273.18 56.2448 272.082 56.2448 270.174C56.2448 268.176 54.9308 267.636 52.7168 267.294C51.2228 267.042 50.7728 266.772 50.7728 266.088C50.7728 265.422 51.3308 264.972 52.2668 264.972C53.2748 264.972 53.7608 265.368 53.9408 266.232H55.9568C55.7228 264.108 54.1928 263.388 52.2668 263.388C50.5028 263.388 48.7388 264.324 48.7388 266.214C48.7388 267.978 49.6568 268.68 52.1408 269.076C53.5268 269.31 54.1568 269.598 54.1568 270.372C54.1568 271.164 53.6348 271.578 52.4648 271.578C51.1868 271.578 50.7008 271.02 50.5928 270.066H48.5408C48.6308 272.064 50.0528 273.18 52.4828 273.18ZM60.895 273.18C63.307 273.18 64.657 272.082 64.657 270.174C64.657 268.176 63.343 267.636 61.129 267.294C59.635 267.042 59.185 266.772 59.185 266.088C59.185 265.422 59.743 264.972 60.679 264.972C61.687 264.972 62.173 265.368 62.353 266.232H64.369C64.135 264.108 62.605 263.388 60.679 263.388C58.915 263.388 57.151 264.324 57.151 266.214C57.151 267.978 58.069 268.68 60.553 269.076C61.939 269.31 62.569 269.598 62.569 270.372C62.569 271.164 62.047 271.578 60.877 271.578C59.599 271.578 59.113 271.02 59.005 270.066H56.953C57.043 272.064 58.465 273.18 60.895 273.18ZM73.3845 273.18C74.7705 273.18 75.9765 272.352 76.4805 271.416V273H78.6585V259.23H76.4805V265.026C75.9585 264.09 75.0045 263.388 73.4745 263.388C71.0265 263.388 69.2445 265.296 69.2445 268.302V268.446C69.2445 271.506 71.0265 273.18 73.3845 273.18ZM73.9245 271.452C72.5205 271.452 71.4765 270.462 71.4765 268.392V268.248C71.4765 266.214 72.4125 265.098 74.0145 265.098C75.5985 265.098 76.5525 266.124 76.5525 268.194V268.338C76.5525 270.444 75.4365 271.452 73.9245 271.452ZM84.9412 273.18C87.7132 273.18 89.7832 271.272 89.7832 268.338V268.194C89.7832 265.314 87.7132 263.388 84.9592 263.388C82.1872 263.388 80.1172 265.332 80.1172 268.248V268.392C80.1172 271.254 82.1692 273.18 84.9412 273.18ZM84.9592 271.488C83.3032 271.488 82.3492 270.282 82.3492 268.356V268.212C82.3492 266.268 83.3392 265.098 84.9592 265.098C86.5792 265.098 87.5512 266.286 87.5512 268.23V268.356C87.5512 270.282 86.5792 271.488 84.9592 271.488ZM95.3731 273.18C97.9291 273.18 99.5671 271.65 99.7291 269.49H97.7311C97.6051 270.822 96.6151 271.506 95.4631 271.506C93.8611 271.506 92.8531 270.426 92.8531 268.374V268.23C92.8531 266.286 93.9151 265.134 95.4091 265.134C96.5611 265.134 97.3891 265.656 97.5691 266.916H99.6751C99.4231 264.324 97.4611 263.388 95.3731 263.388C92.7451 263.388 90.6211 265.278 90.6211 268.266V268.41C90.6211 271.416 92.6731 273.18 95.3731 273.18ZM104.255 273.18C105.785 273.18 106.775 272.442 107.243 271.524V273H109.421V263.586H107.243V269.184C107.243 270.678 106.217 271.434 105.047 271.434C103.787 271.434 103.193 270.786 103.193 269.364V263.586H101.015V269.616C101.015 272.118 102.401 273.18 104.255 273.18ZM111.503 273H113.681V267.366C113.681 265.926 114.671 265.206 115.751 265.206C116.813 265.206 117.425 265.8 117.425 267.186V273H119.603V267.366C119.603 265.926 120.593 265.206 121.673 265.206C122.753 265.206 123.347 265.8 123.347 267.186V273H125.525V267.042C125.525 264.45 124.121 263.388 122.393 263.388C121.223 263.388 119.927 263.91 119.207 265.08C118.739 263.91 117.767 263.388 116.543 263.388C115.157 263.388 114.131 264.144 113.681 265.026V263.586H111.503V273ZM131.666 273.18C134.078 273.18 135.68 272.1 135.986 270.12H133.88C133.718 271.038 133.034 271.56 131.72 271.56C130.1 271.56 129.2 270.552 129.128 268.77H136.022V268.14C136.022 264.774 133.916 263.388 131.576 263.388C128.894 263.388 126.896 265.332 126.896 268.248V268.392C126.896 271.362 128.894 273.18 131.666 273.18ZM129.164 267.312C129.38 265.854 130.262 264.972 131.576 264.972C132.926 264.972 133.754 265.692 133.862 267.312H129.164ZM137.468 273H139.646V267.456C139.646 265.962 140.636 265.206 141.86 265.206C143.156 265.206 143.732 265.854 143.732 267.276V273H145.91V267.078C145.91 264.486 144.578 263.388 142.688 263.388C141.14 263.388 140.096 264.162 139.646 265.08V263.586H137.468V273ZM151.123 273.162C151.789 273.162 152.257 273.054 152.599 272.928V271.2C152.293 271.326 151.969 271.38 151.537 271.38C150.853 271.38 150.457 271.002 150.457 270.174V265.224H152.527V263.586H150.457V261.516H148.279V263.586H147.019V265.224H148.279V270.372C148.279 272.154 149.251 273.162 151.123 273.162ZM161.057 273.162C161.723 273.162 162.191 273.054 162.533 272.928V271.2C162.227 271.326 161.903 271.38 161.471 271.38C160.787 271.38 160.391 271.002 160.391 270.174V265.224H162.461V263.586H160.391V261.516H158.213V263.586H156.953V265.224H158.213V270.372C158.213 272.154 159.185 273.162 161.057 273.162ZM168.191 273.18C170.963 273.18 173.033 271.272 173.033 268.338V268.194C173.033 265.314 170.963 263.388 168.209 263.388C165.437 263.388 163.367 265.332 163.367 268.248V268.392C163.367 271.254 165.419 273.18 168.191 273.18ZM168.209 271.488C166.553 271.488 165.599 270.282 165.599 268.356V268.212C165.599 266.268 166.589 265.098 168.209 265.098C169.829 265.098 170.801 266.286 170.801 268.23V268.356C170.801 270.282 169.829 271.488 168.209 271.488ZM178.515 276.456C181.431 276.456 183.285 275.07 183.303 272.298V263.586H181.125V265.026C180.585 264.09 179.649 263.388 178.101 263.388C175.671 263.388 173.871 265.368 173.871 268.014V268.14C173.871 270.858 175.689 272.622 178.047 272.622C179.433 272.622 180.603 271.776 181.125 270.876V272.262C181.125 273.954 180.189 274.8 178.497 274.8C177.075 274.8 176.355 274.26 176.175 273.324H173.979C174.231 275.124 175.563 276.456 178.515 276.456ZM178.587 270.948C177.183 270.948 176.103 269.868 176.103 268.122V267.978C176.103 266.268 177.039 265.098 178.659 265.098C180.225 265.098 181.197 266.16 181.197 267.942V268.068C181.197 269.868 180.099 270.948 178.587 270.948ZM189.406 276.456C192.322 276.456 194.176 275.07 194.194 272.298V263.586H192.016V265.026C191.476 264.09 190.54 263.388 188.992 263.388C186.562 263.388 184.762 265.368 184.762 268.014V268.14C184.762 270.858 186.58 272.622 188.938 272.622C190.324 272.622 191.494 271.776 192.016 270.876V272.262C192.016 273.954 191.08 274.8 189.388 274.8C187.966 274.8 187.246 274.26 187.066 273.324H184.87C185.122 275.124 186.454 276.456 189.406 276.456ZM189.478 270.948C188.074 270.948 186.994 269.868 186.994 268.122V267.978C186.994 266.268 187.93 265.098 189.55 265.098C191.116 265.098 192.088 266.16 192.088 267.942V268.068C192.088 269.868 190.99 270.948 189.478 270.948ZM196.336 273H198.514V259.23H196.336V273ZM204.809 273.18C207.221 273.18 208.823 272.1 209.129 270.12H207.023C206.861 271.038 206.177 271.56 204.863 271.56C203.243 271.56 202.343 270.552 202.271 268.77H209.165V268.14C209.165 264.774 207.059 263.388 204.719 263.388C202.037 263.388 200.039 265.332 200.039 268.248V268.392C200.039 271.362 202.037 273.18 204.809 273.18ZM202.307 267.312C202.523 265.854 203.405 264.972 204.719 264.972C206.069 264.972 206.897 265.692 207.005 267.312H202.307ZM215.414 273H216.908V264.846H219.212V263.586H216.908V261.894C216.908 260.94 217.304 260.274 218.276 260.274C218.69 260.274 219.068 260.364 219.338 260.472V259.212C218.96 259.086 218.708 259.032 218.222 259.032C216.35 259.032 215.414 260.148 215.414 262.056V263.586H214.064V264.846H215.414V273ZM224.262 273.162C226.944 273.162 228.906 271.2 228.906 268.356V268.212C228.906 265.386 226.944 263.424 224.28 263.424C221.616 263.424 219.654 265.404 219.654 268.23V268.374C219.654 271.128 221.58 273.162 224.262 273.162ZM224.28 271.92C222.372 271.92 221.202 270.516 221.202 268.374V268.23C221.202 266.07 222.39 264.666 224.28 264.666C226.152 264.666 227.358 266.07 227.358 268.248V268.374C227.358 270.498 226.17 271.92 224.28 271.92ZM230.719 273H232.213V267.834C232.213 265.512 233.419 264.918 235.309 264.828V263.424C233.617 263.478 232.807 264.216 232.213 265.278V263.586H230.719V273ZM244.796 273.162C246.164 273.162 247.478 272.298 248.018 271.38V273H249.512V259.086H248.018V265.098C247.478 264.18 246.506 263.424 244.94 263.424C242.348 263.424 240.548 265.458 240.548 268.338V268.482C240.548 271.416 242.33 273.162 244.796 273.162ZM244.958 271.92C243.374 271.92 242.096 270.786 242.096 268.41V268.266C242.096 265.98 243.212 264.666 245.084 264.666C246.92 264.666 248.072 265.8 248.072 268.212V268.356C248.072 270.768 246.704 271.92 244.958 271.92ZM252.035 273H253.529V267.834C253.529 265.512 254.735 264.918 256.625 264.828V263.424C254.933 263.478 254.123 264.216 253.529 265.278V263.586H252.035V273ZM260.573 273.162C261.959 273.162 262.805 272.694 263.507 271.812V273H265.001V266.79C265.001 264.162 263.363 263.424 261.563 263.424C259.745 263.424 258.035 264.216 257.837 266.358H259.331C259.475 265.206 260.195 264.666 261.491 264.666C262.931 264.666 263.507 265.296 263.507 266.79V267.474H262.157C259.745 267.474 257.441 268.212 257.441 270.39C257.441 272.316 258.827 273.162 260.573 273.162ZM260.717 271.974C259.403 271.974 258.935 271.362 258.935 270.39C258.935 269.004 260.321 268.536 262.211 268.536H263.507V269.706C263.507 271.164 262.301 271.974 260.717 271.974ZM267.76 273H269.254V264.846H271.558V263.586H269.254V261.894C269.254 260.94 269.65 260.274 270.622 260.274C271.036 260.274 271.414 260.364 271.684 260.472V259.212C271.306 259.086 271.054 259.032 270.568 259.032C268.696 259.032 267.76 260.148 267.76 262.056V263.586H266.41V264.846H267.76V273ZM276.108 273.126C276.72 273.126 277.08 273.036 277.386 272.928V271.668C277.062 271.794 276.702 271.866 276.234 271.866C275.478 271.866 275.064 271.416 275.064 270.498V264.846H277.26V263.586H275.064V261.444H273.57V263.586H272.22V264.846H273.57V270.642C273.57 272.118 274.398 273.126 276.108 273.126ZM279.901 261.624C280.441 261.624 280.891 261.174 280.891 260.634C280.891 260.094 280.441 259.644 279.901 259.644C279.361 259.644 278.911 260.094 278.911 260.634C278.911 261.174 279.361 261.624 279.901 261.624ZM279.181 273H280.675V263.586H279.181V273ZM283.233 273H284.727V267.294C284.727 265.602 285.969 264.72 287.355 264.72C288.867 264.72 289.569 265.458 289.569 267.114V273H291.063V267.222C291.063 264.486 289.695 263.424 287.751 263.424C286.203 263.424 285.159 264.198 284.727 265.08V263.586H283.233V273ZM297.253 276.438C299.881 276.438 301.735 275.106 301.753 272.37V263.586H300.259V265.098C299.719 264.18 298.747 263.424 297.181 263.424C294.589 263.424 292.789 265.548 292.789 268.104V268.23C292.789 270.822 294.607 272.694 297.073 272.694C298.441 272.694 299.719 271.83 300.259 270.912V272.28C300.259 274.296 299.089 275.178 297.235 275.178C295.633 275.178 294.733 274.62 294.517 273.54H292.987C293.239 275.124 294.463 276.438 297.253 276.438ZM297.235 271.452C295.651 271.452 294.337 270.228 294.337 268.176V268.032C294.337 266.052 295.453 264.666 297.325 264.666C299.161 264.666 300.313 265.89 300.313 267.996V268.122C300.313 270.228 298.981 271.452 297.235 271.452ZM6.418 300.162C9.1 300.162 11.062 298.2 11.062 295.356V295.212C11.062 292.386 9.1 290.424 6.436 290.424C3.772 290.424 1.81 292.404 1.81 295.23V295.374C1.81 298.128 3.736 300.162 6.418 300.162ZM6.436 298.92C4.528 298.92 3.358 297.516 3.358 295.374V295.23C3.358 293.07 4.546 291.666 6.436 291.666C8.308 291.666 9.514 293.07 9.514 295.248V295.374C9.514 297.498 8.326 298.92 6.436 298.92ZM13.1993 300H14.6933V291.846H16.9973V290.586H14.6933V288.894C14.6933 287.94 15.0893 287.274 16.0613 287.274C16.4753 287.274 16.8533 287.364 17.1233 287.472V286.212C16.7453 286.086 16.4933 286.032 16.0073 286.032C14.1353 286.032 13.1993 287.148 13.1993 289.056V290.586H11.8493V291.846H13.1993V300ZM22.9696 300H27.3796C29.9536 300 31.6096 298.83 31.6096 296.4V296.328C31.6096 294.654 30.9076 293.7 29.0356 293.25C30.5116 292.746 30.9796 291.702 30.9796 290.532V290.46C30.9796 287.922 29.2336 287.13 26.8396 287.13H22.9696V300ZM24.4996 292.746V288.354H26.8036C28.6036 288.354 29.4496 288.948 29.4496 290.406V290.478C29.4496 292.062 28.7296 292.746 26.8396 292.746H24.4996ZM24.4996 298.776V293.97H27.1276C29.1976 293.97 30.0796 294.726 30.0796 296.31V296.382C30.0796 297.948 29.2156 298.776 27.3436 298.776H24.4996ZM35.9169 300.162C37.3029 300.162 38.1489 299.694 38.8509 298.812V300H40.3449V293.79C40.3449 291.162 38.7069 290.424 36.9069 290.424C35.0889 290.424 33.3789 291.216 33.1809 293.358H34.6749C34.8189 292.206 35.5389 291.666 36.8349 291.666C38.2749 291.666 38.8509 292.296 38.8509 293.79V294.474H37.5009C35.0889 294.474 32.7849 295.212 32.7849 297.39C32.7849 299.316 34.1709 300.162 35.9169 300.162ZM36.0609 298.974C34.7469 298.974 34.2789 298.362 34.2789 297.39C34.2789 296.004 35.6649 295.536 37.5549 295.536H38.8509V296.706C38.8509 298.164 37.6449 298.974 36.0609 298.974ZM45.6956 300.162C47.9816 300.162 49.1516 299.01 49.1516 297.3C49.1516 295.302 47.7836 294.87 45.8396 294.51C44.1116 294.204 43.6436 293.862 43.6436 293.016C43.6436 292.206 44.3456 291.666 45.4256 291.666C46.6136 291.666 47.1896 292.116 47.4056 293.142H48.8456C48.5936 291.108 47.1356 290.424 45.4436 290.424C43.9676 290.424 42.2576 291.324 42.2576 293.07C42.2576 294.708 43.0856 295.392 45.5336 295.842C46.9916 296.112 47.7296 296.436 47.7296 297.426C47.7296 298.434 47.0996 298.92 45.6776 298.92C44.1656 298.92 43.5716 298.218 43.4636 297.102H42.0056C42.0956 299.028 43.4456 300.162 45.6956 300.162ZM51.684 288.624C52.224 288.624 52.674 288.174 52.674 287.634C52.674 287.094 52.224 286.644 51.684 286.644C51.144 286.644 50.694 287.094 50.694 287.634C50.694 288.174 51.144 288.624 51.684 288.624ZM50.964 300H52.458V290.586H50.964V300ZM58.9219 300.162C61.1899 300.162 62.8279 298.65 63.0259 296.616H61.6399C61.4779 298.146 60.2719 298.92 58.9399 298.92C57.1219 298.92 55.8619 297.696 55.8619 295.392V295.248C55.8619 293.034 57.1759 291.666 58.8859 291.666C60.1819 291.666 61.2619 292.224 61.4959 293.718H62.9719C62.6839 291.324 60.8479 290.424 58.8859 290.424C56.3659 290.424 54.3139 292.368 54.3139 295.248V295.392C54.3139 298.308 56.2939 300.162 58.9219 300.162ZM71.4932 300H72.9152L75.9212 289.83L78.8372 300H80.2772L83.6252 287.13H82.1672L79.5212 297.552L76.4972 287.13H75.3812L72.3572 297.516L69.7472 287.13H68.1452L71.4932 300ZM85.8246 288.624C86.3646 288.624 86.8146 288.174 86.8146 287.634C86.8146 287.094 86.3646 286.644 85.8246 286.644C85.2846 286.644 84.8346 287.094 84.8346 287.634C84.8346 288.174 85.2846 288.624 85.8246 288.624ZM85.1046 300H86.5986V290.586H85.1046V300ZM89.1925 300H90.7045V286.086H89.1925V300ZM93.298 300H94.81V286.086H93.298V300ZM102.387 288.624C102.927 288.624 103.377 288.174 103.377 287.634C103.377 287.094 102.927 286.644 102.387 286.644C101.847 286.644 101.397 287.094 101.397 287.634C101.397 288.174 101.847 288.624 102.387 288.624ZM101.667 300H103.161V290.586H101.667V300ZM105.719 300H107.213V294.294C107.213 292.602 108.455 291.72 109.841 291.72C111.353 291.72 112.055 292.458 112.055 294.114V300H113.549V294.222C113.549 291.486 112.181 290.424 110.237 290.424C108.689 290.424 107.645 291.198 107.213 292.08V290.586H105.719V300ZM120.241 300H121.735V294.24C121.735 292.548 122.995 291.72 124.219 291.72C125.515 291.72 126.217 292.404 126.217 294.06V300H127.711V294.24C127.711 292.548 128.971 291.72 130.195 291.72C131.491 291.72 132.193 292.404 132.193 294.06V300H133.687V294.168C133.687 291.432 132.211 290.424 130.519 290.424C129.349 290.424 127.945 290.964 127.297 292.188C126.811 290.928 125.749 290.424 124.543 290.424C123.193 290.424 122.167 291.144 121.735 292.026V290.586H120.241V300ZM136.879 288.624C137.419 288.624 137.869 288.174 137.869 287.634C137.869 287.094 137.419 286.644 136.879 286.644C136.339 286.644 135.889 287.094 135.889 287.634C135.889 288.174 136.339 288.624 136.879 288.624ZM136.159 300H137.653V290.586H136.159V300ZM140.211 300H141.705V294.294C141.705 292.602 142.947 291.72 144.333 291.72C145.845 291.72 146.547 292.458 146.547 294.114V300H148.041V294.222C148.041 291.486 146.673 290.424 144.729 290.424C143.181 290.424 142.137 291.198 141.705 292.08V290.586H140.211V300ZM153.655 300.162C155.167 300.162 156.211 299.388 156.643 298.506V300H158.137V290.586H156.643V296.292C156.643 297.984 155.383 298.866 154.051 298.866C152.575 298.866 151.873 298.128 151.873 296.472V290.586H150.379V296.544C150.379 299.136 151.783 300.162 153.655 300.162ZM163.519 300.126C164.131 300.126 164.491 300.036 164.797 299.928V298.668C164.473 298.794 164.113 298.866 163.645 298.866C162.889 298.866 162.475 298.416 162.475 297.498V291.846H164.671V290.586H162.475V288.444H160.981V290.586H159.631V291.846H160.981V297.642C160.981 299.118 161.809 300.126 163.519 300.126ZM170.407 300.162C172.531 300.162 174.097 299.172 174.421 297.282H172.927C172.729 298.38 171.883 298.92 170.425 298.92C168.499 298.92 167.473 297.732 167.401 295.59H174.493V295.104C174.493 291.738 172.441 290.424 170.263 290.424C167.671 290.424 165.853 292.404 165.853 295.248V295.392C165.853 298.29 167.743 300.162 170.407 300.162ZM167.455 294.384C167.707 292.71 168.733 291.666 170.263 291.666C171.811 291.666 172.819 292.44 172.963 294.384H167.455ZM179.289 300.162C181.575 300.162 182.745 299.01 182.745 297.3C182.745 295.302 181.377 294.87 179.433 294.51C177.705 294.204 177.237 293.862 177.237 293.016C177.237 292.206 177.939 291.666 179.019 291.666C180.207 291.666 180.783 292.116 180.999 293.142H182.439C182.187 291.108 180.729 290.424 179.037 290.424C177.561 290.424 175.851 291.324 175.851 293.07C175.851 294.708 176.679 295.392 179.127 295.842C180.585 296.112 181.323 296.436 181.323 297.426C181.323 298.434 180.693 298.92 179.271 298.92C177.759 298.92 177.165 298.218 177.057 297.102H175.599C175.689 299.028 177.039 300.162 179.289 300.162ZM185.548 300.09C186.178 300.09 186.7 299.586 186.7 298.938C186.7 298.29 186.178 297.786 185.548 297.786C184.918 297.786 184.396 298.29 184.396 298.938C184.396 299.586 184.918 300.09 185.548 300.09Z" fill="#001064"/>
</svg>
