<svg width="220" height="194" viewBox="0 0 220 194" fill="none" xmlns="http://www.w3.org/2000/svg">
<path d="M118.5 91.5V69H141L118.5 91.5Z" fill="#001064"/>
<rect x="83.5" y="13.5" width="129" height="59" rx="4.5" fill="#001064" stroke="#001064" stroke-width="3"/>
<rect x="88" y="2" width="130" height="58" rx="5" fill="white" stroke="#001064" stroke-width="4"/>
<g clip-path="url(#clip0)">
<path d="M37.5046 182.772C82.7903 182.772 107.554 145.255 107.554 112.722C107.554 111.657 107.533 110.595 107.485 109.54C112.291 106.064 116.47 101.728 119.766 96.7911C115.355 98.7521 110.607 100.071 105.627 100.667C110.71 97.6187 114.613 92.7975 116.453 87.0498C111.696 89.8697 106.428 91.9186 100.82 93.0255C96.3273 88.24 89.9305 85.2472 82.848 85.2472C69.2524 85.2472 58.2267 96.2729 58.2267 109.864C58.2267 111.797 58.4428 113.675 58.8648 115.478C38.4027 114.448 20.2579 104.652 8.11612 89.7543C6.00216 93.3926 4.78268 97.6196 4.78268 102.13C4.78268 110.67 9.12961 118.212 15.7388 122.623C11.6995 122.498 7.90555 121.39 4.58859 119.544C4.58492 119.647 4.58492 119.748 4.58492 119.858C4.58492 131.782 13.071 141.737 24.3375 143.993C22.2684 144.556 20.0912 144.859 17.8454 144.859C16.2616 144.859 14.718 144.703 13.2174 144.415C16.3522 154.197 25.4416 161.316 36.2174 161.515C27.7908 168.12 17.1753 172.054 5.6387 172.054C3.65383 172.054 1.69277 171.94 -0.234421 171.713C10.6613 178.697 23.6005 182.773 37.5055 182.773" fill="#1BD4FF"/>
</g>
<defs>
<clipPath id="clip0">
<rect width="120" height="120" fill="white" transform="translate(0 74)"/>
</clipPath>
</defs>
</svg>
