<svg width="153" height="176" viewBox="0 0 153 176" fill="none" xmlns="http://www.w3.org/2000/svg">
<path d="M86.4143 50.6289H148.412C150.92 50.6289 152.999 52.5641 152.999 54.9293V171.102C152.999 173.468 150.992 175.403 148.412 175.403H57.8884C55.3798 175.403 53.3013 173.468 53.3013 171.102V75.0695C53.3013 73.9227 53.803 72.8476 54.6631 72.0592L76.0934 51.919C76.9535 51.1306 78.1002 50.7006 79.3187 50.7006L86.4143 50.6289Z" fill="#DEEAFF"/>
<path d="M60.8479 25.9111H122.845C125.354 25.9111 127.432 27.8463 127.432 30.2115V146.385C127.432 148.75 125.426 150.685 122.845 150.685H32.322C29.8134 150.685 27.7349 148.75 27.7349 146.385V50.3517C27.7349 49.205 28.2366 48.1299 29.0967 47.3415L50.527 27.2013C51.3871 26.4128 52.5338 25.9828 53.7523 25.9828L60.8479 25.9111Z" fill="#F5D8BE"/>
<path d="M36.2049 2.90137H98.2023C100.711 2.90137 102.789 4.83655 102.789 7.20177V123.375C102.789 125.74 100.783 127.675 98.2023 127.675H7.67889C5.17032 127.675 3.0918 125.74 3.0918 123.375V27.342C3.0918 26.1952 3.59351 25.1201 4.45359 24.3317L25.8839 4.19149C26.744 3.40308 27.8908 2.97304 29.1092 2.97304L36.2049 2.90137Z" fill="white" stroke="#001066" stroke-width="4.30508"/>
<path d="M27.0296 2.90039L27.1013 21.2488C27.1013 23.7573 24.9511 25.8359 22.2275 25.8359H3.01904" fill="#001C63"/>
<rect x="19.0405" y="71.207" width="55.6555" height="12.649" fill="#F5D8BE"/>
<rect x="66.7808" y="100.417" width="22.4669" height="12.4285" fill="#00B478" fill-opacity="0.25"/>
<rect x="54.458" y="40.8491" width="34.5739" height="12.649" fill="#CDE5F2"/>
<rect x="19.0405" y="46.752" width="29.5143" height="3.37306" fill="#001066"/>
<rect x="19.0405" y="62.7729" width="43.8498" height="3.37306" fill="#001066"/>
<rect x="70.479" y="62.7729" width="18.5518" height="3.37306" fill="#001066"/>
<rect x="80.5986" y="76.2656" width="8.43265" height="3.37306" fill="#001066"/>
<rect x="19.0405" y="90.6011" width="69.991" height="3.37306" fill="#001066"/>
<path d="M65.8837 29.4106C61.2735 32.7748 49.6597 37.1955 51.6613 44.9795C54.2976 55.2317 64.9211 55.9198 73.7943 55.9198C82.1624 55.9198 88.7093 48.9793 84.0193 40.7717C80.9185 35.3453 73.9892 33.6341 68.3663 32.1457C66.2624 31.5888 60.2031 31.4467 57.5522 32.4403" stroke="#001064" stroke-width="3.02962" stroke-linecap="round" stroke-linejoin="round"/>
<path d="M25.7397 108.663C33.605 108.663 41.4718 108.712 49.3368 108.655C51.6134 108.638 53.9176 108.623 56.1823 108.342C56.3831 108.317 56.9122 108.33 56.7691 108.188C56.3635 107.784 55.7402 107.484 55.2821 107.153C53.8763 106.139 52.4851 105.105 51.0798 104.09C51.0554 104.073 50.357 103.585 50.3348 103.641C50.2439 103.867 50.3935 104.331 50.4355 104.526C50.8765 106.576 51.509 108.586 52.1268 110.589C52.3387 111.276 52.4746 111.995 52.702 112.674C52.7503 112.819 52.7646 112.613 52.7711 112.571C52.8607 111.991 53.3217 111.429 53.6627 110.981C54.1681 110.317 54.8112 109.561 55.5093 109.076C55.7668 108.897 56.0464 108.573 56.1823 108.302" stroke="#001064" stroke-width="2.27221" stroke-linecap="round" stroke-linejoin="round"/>
</svg>
