<svg width="780" height="445" viewBox="0 0 780 445" fill="none" xmlns="http://www.w3.org/2000/svg">
<path d="M88.407 435H90.375L92.031 430.056H99.111L100.791 435H102.855L97.047 417.84H94.311L88.407 435ZM95.583 419.568L98.559 428.4H92.607L95.583 419.568ZM105.279 435H107.295V416.448H105.279V435ZM110.919 435H112.935V416.448H110.919V435ZM123.492 439.368H125.508L132.444 422.448H130.404L126.924 431.448L123.084 422.448H120.948L125.868 433.704L123.492 439.368ZM139.423 435.216C142.999 435.216 145.615 432.6 145.615 428.808V428.616C145.615 424.848 142.999 422.232 139.447 422.232C135.895 422.232 133.279 424.872 133.279 428.64V428.832C133.279 432.504 135.847 435.216 139.423 435.216ZM139.447 433.56C136.903 433.56 135.343 431.688 135.343 428.832V428.64C135.343 425.76 136.927 423.888 139.447 423.888C141.943 423.888 143.551 425.76 143.551 428.664V428.832C143.551 431.664 141.967 433.56 139.447 433.56ZM152.448 435.216C154.464 435.216 155.856 434.184 156.432 433.008V435H158.424V422.448H156.432V430.056C156.432 432.312 154.752 433.488 152.976 433.488C151.008 433.488 150.072 432.504 150.072 430.296V422.448H148.08V430.392C148.08 433.848 149.952 435.216 152.448 435.216ZM167.801 435H169.793V427.392C169.793 425.136 171.449 423.96 173.297 423.96C175.313 423.96 176.249 424.944 176.249 427.152V435H178.241V427.296C178.241 423.648 176.417 422.232 173.825 422.232C171.761 422.232 170.369 423.264 169.793 424.44V422.448H167.801V435ZM186.781 435.216C189.613 435.216 191.701 433.896 192.133 431.376H190.141C189.877 432.84 188.749 433.56 186.805 433.56C184.237 433.56 182.869 431.976 182.773 429.12H192.229V428.472C192.229 423.984 189.493 422.232 186.589 422.232C183.133 422.232 180.709 424.872 180.709 428.664V428.856C180.709 432.72 183.229 435.216 186.781 435.216ZM182.845 427.512C183.181 425.28 184.549 423.888 186.589 423.888C188.653 423.888 189.997 424.92 190.189 427.512H182.845ZM199.922 435.216C202.754 435.216 204.842 433.896 205.274 431.376H203.282C203.018 432.84 201.89 433.56 199.946 433.56C197.378 433.56 196.01 431.976 195.914 429.12H205.37V428.472C205.37 423.984 202.634 422.232 199.73 422.232C196.274 422.232 193.85 424.872 193.85 428.664V428.856C193.85 432.72 196.37 435.216 199.922 435.216ZM195.986 427.512C196.322 425.28 197.69 423.888 199.73 423.888C201.794 423.888 203.138 424.92 203.33 427.512H195.986ZM212.654 435.216C214.478 435.216 216.23 434.064 216.95 432.84V435H218.942V416.448H216.95V424.464C216.23 423.24 214.934 422.232 212.846 422.232C209.39 422.232 206.99 424.944 206.99 428.784V428.976C206.99 432.888 209.366 435.216 212.654 435.216ZM212.87 433.56C210.758 433.56 209.054 432.048 209.054 428.88V428.688C209.054 425.64 210.542 423.888 213.038 423.888C215.486 423.888 217.022 425.4 217.022 428.616V428.808C217.022 432.024 215.198 433.56 212.87 433.56ZM232.141 435.168C232.957 435.168 233.437 435.048 233.845 434.904V433.224C233.413 433.392 232.933 433.488 232.309 433.488C231.301 433.488 230.749 432.888 230.749 431.664V424.128H233.677V422.448H230.749V419.592H228.757V422.448H226.957V424.128H228.757V431.856C228.757 433.824 229.861 435.168 232.141 435.168ZM241.564 435.216C245.14 435.216 247.756 432.6 247.756 428.808V428.616C247.756 424.848 245.14 422.232 241.588 422.232C238.036 422.232 235.42 424.872 235.42 428.64V428.832C235.42 432.504 237.988 435.216 241.564 435.216ZM241.588 433.56C239.044 433.56 237.484 431.688 237.484 428.832V428.64C237.484 425.76 239.068 423.888 241.588 423.888C244.084 423.888 245.692 425.76 245.692 428.664V428.832C245.692 431.664 244.108 433.56 241.588 433.56ZM260.92 435.216C262.744 435.216 264.496 434.064 265.216 432.84V435H267.208V416.448H265.216V424.464C264.496 423.24 263.2 422.232 261.112 422.232C257.656 422.232 255.256 424.944 255.256 428.784V428.976C255.256 432.888 257.632 435.216 260.92 435.216ZM261.136 433.56C259.024 433.56 257.32 432.048 257.32 428.88V428.688C257.32 425.64 258.808 423.888 261.304 423.888C263.752 423.888 265.288 425.4 265.288 428.616V428.808C265.288 432.024 263.464 433.56 261.136 433.56ZM275.947 435.216C279.523 435.216 282.139 432.6 282.139 428.808V428.616C282.139 424.848 279.523 422.232 275.971 422.232C272.419 422.232 269.803 424.872 269.803 428.64V428.832C269.803 432.504 272.371 435.216 275.947 435.216ZM275.971 433.56C273.427 433.56 271.867 431.688 271.867 428.832V428.64C271.867 425.76 273.451 423.888 275.971 423.888C278.467 423.888 280.075 425.76 280.075 428.664V428.832C280.075 431.664 278.491 433.56 275.971 433.56ZM291.583 419.832C292.303 419.832 292.903 419.232 292.903 418.512C292.903 417.792 292.303 417.192 291.583 417.192C290.863 417.192 290.263 417.792 290.263 418.512C290.263 419.232 290.863 419.832 291.583 419.832ZM290.623 435H292.615V422.448H290.623V435ZM300.08 435.216C303.128 435.216 304.688 433.68 304.688 431.4C304.688 428.736 302.864 428.16 300.272 427.68C297.968 427.272 297.344 426.816 297.344 425.688C297.344 424.608 298.28 423.888 299.72 423.888C301.304 423.888 302.072 424.488 302.36 425.856H304.28C303.944 423.144 302 422.232 299.744 422.232C297.776 422.232 295.496 423.432 295.496 425.76C295.496 427.944 296.6 428.856 299.864 429.456C301.808 429.816 302.792 430.248 302.792 431.568C302.792 432.912 301.952 433.56 300.056 433.56C298.04 433.56 297.248 432.624 297.104 431.136H295.16C295.28 433.704 297.08 435.216 300.08 435.216ZM316.963 435.216C320.011 435.216 321.571 433.68 321.571 431.4C321.571 428.736 319.747 428.16 317.155 427.68C314.851 427.272 314.227 426.816 314.227 425.688C314.227 424.608 315.163 423.888 316.603 423.888C318.187 423.888 318.955 424.488 319.243 425.856H321.163C320.827 423.144 318.883 422.232 316.627 422.232C314.659 422.232 312.379 423.432 312.379 425.76C312.379 427.944 313.483 428.856 316.747 429.456C318.691 429.816 319.675 430.248 319.675 431.568C319.675 432.912 318.835 433.56 316.939 433.56C314.923 433.56 314.131 432.624 313.987 431.136H312.043C312.163 433.704 313.963 435.216 316.963 435.216ZM325.114 419.832C325.834 419.832 326.434 419.232 326.434 418.512C326.434 417.792 325.834 417.192 325.114 417.192C324.394 417.192 323.794 417.792 323.794 418.512C323.794 419.232 324.394 419.832 325.114 419.832ZM324.154 435H326.146V422.448H324.154V435ZM329.723 435H331.715V427.32C331.715 425.064 333.395 423.96 335.027 423.96C336.755 423.96 337.691 424.872 337.691 427.08V435H339.683V427.32C339.683 425.064 341.363 423.96 342.995 423.96C344.723 423.96 345.659 424.872 345.659 427.08V435H347.651V427.224C347.651 423.576 345.683 422.232 343.427 422.232C341.867 422.232 339.995 422.952 339.131 424.584C338.483 422.904 337.067 422.232 335.459 422.232C333.659 422.232 332.291 423.192 331.715 424.368V422.448H329.723V435ZM351.067 439.368H353.059V432.936C353.779 434.184 355.243 435.216 357.307 435.216C360.763 435.216 363.019 432.576 363.019 428.736V428.544C363.019 424.632 360.595 422.232 357.307 422.232C355.483 422.232 353.779 423.336 353.059 424.56V422.448H351.067V439.368ZM357.115 433.56C354.667 433.56 352.987 432.048 352.987 428.832V428.64C352.987 425.424 354.763 423.888 357.091 423.888C359.203 423.888 360.955 425.472 360.955 428.64V428.832C360.955 431.88 359.611 433.56 357.115 433.56ZM365.662 435H367.678V416.448H365.662V435ZM372.382 439.368H374.398L381.334 422.448H379.294L375.814 431.448L371.974 422.448H369.838L374.758 433.704L372.382 439.368ZM393.125 435.168C393.941 435.168 394.421 435.048 394.829 434.904V433.224C394.397 433.392 393.917 433.488 393.293 433.488C392.285 433.488 391.733 432.888 391.733 431.664V424.128H394.661V422.448H391.733V419.592H389.741V422.448H387.941V424.128H389.741V431.856C389.741 433.824 390.845 435.168 393.125 435.168ZM402.548 435.216C406.124 435.216 408.74 432.6 408.74 428.808V428.616C408.74 424.848 406.124 422.232 402.572 422.232C399.02 422.232 396.404 424.872 396.404 428.64V428.832C396.404 432.504 398.972 435.216 402.548 435.216ZM402.572 433.56C400.028 433.56 398.468 431.688 398.468 428.832V428.64C398.468 425.76 400.052 423.888 402.572 423.888C405.068 423.888 406.676 425.76 406.676 428.664V428.832C406.676 431.664 405.092 433.56 402.572 433.56ZM422.384 435.216C425.408 435.216 427.592 433.2 427.856 430.488H426.008C425.792 432.528 424.184 433.56 422.408 433.56C419.984 433.56 418.304 431.928 418.304 428.856V428.664C418.304 425.712 420.056 423.888 422.336 423.888C424.064 423.888 425.504 424.632 425.816 426.624H427.784C427.4 423.432 424.952 422.232 422.336 422.232C418.976 422.232 416.24 424.824 416.24 428.664V428.856C416.24 432.744 418.88 435.216 422.384 435.216ZM430.364 435H432.356V428.112C432.356 425.016 433.964 424.224 436.484 424.104V422.232C434.228 422.304 433.148 423.288 432.356 424.704V422.448H430.364V435ZM443.672 435.216C446.504 435.216 448.592 433.896 449.024 431.376H447.032C446.768 432.84 445.64 433.56 443.696 433.56C441.128 433.56 439.76 431.976 439.664 429.12H449.12V428.472C449.12 423.984 446.384 422.232 443.48 422.232C440.024 422.232 437.6 424.872 437.6 428.664V428.856C437.6 432.72 440.12 435.216 443.672 435.216ZM439.736 427.512C440.072 425.28 441.44 423.888 443.48 423.888C445.544 423.888 446.888 424.92 447.08 427.512H439.736ZM454.937 435.216C456.785 435.216 457.913 434.592 458.849 433.416V435H460.841V426.72C460.841 423.216 458.657 422.232 456.257 422.232C453.833 422.232 451.553 423.288 451.289 426.144H453.281C453.473 424.608 454.433 423.888 456.161 423.888C458.081 423.888 458.849 424.728 458.849 426.72V427.632H457.049C453.833 427.632 450.761 428.616 450.761 431.52C450.761 434.088 452.609 435.216 454.937 435.216ZM455.129 433.632C453.377 433.632 452.753 432.816 452.753 431.52C452.753 429.672 454.601 429.048 457.121 429.048H458.849V430.608C458.849 432.552 457.241 433.632 455.129 433.632ZM468.07 435.168C468.886 435.168 469.366 435.048 469.774 434.904V433.224C469.342 433.392 468.862 433.488 468.238 433.488C467.23 433.488 466.678 432.888 466.678 431.664V424.128H469.606V422.448H466.678V419.592H464.686V422.448H462.886V424.128H464.686V431.856C464.686 433.824 465.79 435.168 468.07 435.168ZM477.422 435.216C480.254 435.216 482.342 433.896 482.774 431.376H480.782C480.518 432.84 479.39 433.56 477.446 433.56C474.878 433.56 473.51 431.976 473.414 429.12H482.87V428.472C482.87 423.984 480.134 422.232 477.23 422.232C473.774 422.232 471.35 424.872 471.35 428.664V428.856C471.35 432.72 473.87 435.216 477.422 435.216ZM473.486 427.512C473.822 425.28 475.19 423.888 477.23 423.888C479.294 423.888 480.638 424.92 480.83 427.512H473.486ZM485.453 437.952L488.405 432.936L486.461 432.024L484.157 437.28L485.453 437.952ZM501.682 435.216C503.698 435.216 505.09 434.184 505.666 433.008V435H507.658V422.448H505.666V430.056C505.666 432.312 503.986 433.488 502.21 433.488C500.242 433.488 499.306 432.504 499.306 430.296V422.448H497.314V430.392C497.314 433.848 499.186 435.216 501.682 435.216ZM511.184 439.368H513.176V432.936C513.896 434.184 515.36 435.216 517.424 435.216C520.88 435.216 523.136 432.576 523.136 428.736V428.544C523.136 424.632 520.712 422.232 517.424 422.232C515.6 422.232 513.896 423.336 513.176 424.56V422.448H511.184V439.368ZM517.232 433.56C514.784 433.56 513.104 432.048 513.104 428.832V428.64C513.104 425.424 514.88 423.888 517.208 423.888C519.32 423.888 521.072 425.472 521.072 428.64V428.832C521.072 431.88 519.728 433.56 517.232 433.56ZM525.779 435H527.795V416.448H525.779V435ZM536.579 435.216C540.155 435.216 542.771 432.6 542.771 428.808V428.616C542.771 424.848 540.155 422.232 536.603 422.232C533.051 422.232 530.435 424.872 530.435 428.64V428.832C530.435 432.504 533.003 435.216 536.579 435.216ZM536.603 433.56C534.059 433.56 532.499 431.688 532.499 428.832V428.64C532.499 425.76 534.083 423.888 536.603 423.888C539.099 423.888 540.707 425.76 540.707 428.664V428.832C540.707 431.664 539.123 433.56 536.603 433.56ZM548.5 435.216C550.348 435.216 551.476 434.592 552.412 433.416V435H554.404V426.72C554.404 423.216 552.22 422.232 549.82 422.232C547.396 422.232 545.116 423.288 544.852 426.144H546.844C547.036 424.608 547.996 423.888 549.724 423.888C551.644 423.888 552.412 424.728 552.412 426.72V427.632H550.612C547.396 427.632 544.324 428.616 544.324 431.52C544.324 434.088 546.172 435.216 548.5 435.216ZM548.692 433.632C546.94 433.632 546.316 432.816 546.316 431.52C546.316 429.672 548.164 429.048 550.684 429.048H552.412V430.608C552.412 432.552 550.804 433.632 548.692 433.632ZM562.545 435.216C564.369 435.216 566.121 434.064 566.841 432.84V435H568.833V416.448H566.841V424.464C566.121 423.24 564.825 422.232 562.737 422.232C559.281 422.232 556.881 424.944 556.881 428.784V428.976C556.881 432.888 559.257 435.216 562.545 435.216ZM562.761 433.56C560.649 433.56 558.945 432.048 558.945 428.88V428.688C558.945 425.64 560.433 423.888 562.929 423.888C565.377 423.888 566.913 425.4 566.913 428.616V428.808C566.913 432.024 565.089 433.56 562.761 433.56ZM591.655 426.144H589.807L587.719 430.104L584.119 425.712C586.303 424.776 587.791 423.36 587.791 421.272C587.791 419.208 586.159 417.744 584.047 417.744C581.887 417.744 579.847 419.088 579.847 421.68C579.847 422.832 580.351 424.008 581.359 425.304C579.151 426.384 577.423 427.752 577.423 430.464C577.423 433.296 579.703 435.168 582.847 435.168C585.007 435.168 586.519 434.184 587.599 432.936L589.303 435H591.727L588.847 431.496L591.655 426.144ZM581.767 421.704C581.767 420.024 582.775 419.304 583.975 419.304C585.127 419.304 585.919 420.12 585.919 421.224C585.919 422.88 585.175 423.744 583.255 424.608C582.319 423.432 581.767 422.568 581.767 421.704ZM582.919 433.536C580.759 433.536 579.439 432.336 579.439 430.272C579.439 428.256 580.615 427.272 582.295 426.456L586.567 431.664C585.535 432.912 584.287 433.536 582.919 433.536ZM600.02 435H602.012V427.32C602.012 425.064 603.692 423.96 605.324 423.96C607.052 423.96 607.988 424.872 607.988 427.08V435H609.98V427.32C609.98 425.064 611.66 423.96 613.292 423.96C615.02 423.96 615.956 424.872 615.956 427.08V435H617.948V427.224C617.948 423.576 615.98 422.232 613.724 422.232C612.164 422.232 610.292 422.952 609.428 424.584C608.78 422.904 607.364 422.232 605.756 422.232C603.956 422.232 602.588 423.192 602.012 424.368V422.448H600.02V435ZM624.508 435.216C626.356 435.216 627.484 434.592 628.42 433.416V435H630.412V426.72C630.412 423.216 628.228 422.232 625.828 422.232C623.404 422.232 621.124 423.288 620.86 426.144H622.852C623.044 424.608 624.004 423.888 625.732 423.888C627.652 423.888 628.42 424.728 628.42 426.72V427.632H626.62C623.404 427.632 620.332 428.616 620.332 431.52C620.332 434.088 622.18 435.216 624.508 435.216ZM624.7 433.632C622.948 433.632 622.324 432.816 622.324 431.52C622.324 429.672 624.172 429.048 626.692 429.048H628.42V430.608C628.42 432.552 626.812 433.632 624.7 433.632ZM633.825 435H635.817V427.392C635.817 425.136 637.473 423.96 639.321 423.96C641.337 423.96 642.273 424.944 642.273 427.152V435H644.265V427.296C644.265 423.648 642.441 422.232 639.849 422.232C637.785 422.232 636.393 423.264 635.817 424.44V422.448H633.825V435ZM650.812 435.216C652.66 435.216 653.788 434.592 654.724 433.416V435H656.716V426.72C656.716 423.216 654.532 422.232 652.132 422.232C649.708 422.232 647.428 423.288 647.164 426.144H649.156C649.348 424.608 650.308 423.888 652.036 423.888C653.956 423.888 654.724 424.728 654.724 426.72V427.632H652.924C649.708 427.632 646.636 428.616 646.636 431.52C646.636 434.088 648.484 435.216 650.812 435.216ZM651.004 433.632C649.252 433.632 648.628 432.816 648.628 431.52C648.628 429.672 650.476 429.048 652.996 429.048H654.724V430.608C654.724 432.552 653.116 433.632 651.004 433.632ZM665.145 439.584C668.649 439.584 671.121 437.808 671.145 434.16V422.448H669.153V424.464C668.433 423.24 667.137 422.232 665.049 422.232C661.593 422.232 659.193 425.064 659.193 428.472V428.64C659.193 432.096 661.617 434.592 664.905 434.592C666.729 434.592 668.433 433.44 669.153 432.216V434.04C669.153 436.728 667.593 437.904 665.121 437.904C662.985 437.904 661.785 437.16 661.497 435.72H659.457C659.793 437.832 661.425 439.584 665.145 439.584ZM665.121 432.936C663.009 432.936 661.257 431.304 661.257 428.568V428.376C661.257 425.736 662.745 423.888 665.241 423.888C667.689 423.888 669.225 425.52 669.225 428.328V428.496C669.225 431.304 667.449 432.936 665.121 432.936ZM679.812 435.216C682.644 435.216 684.732 433.896 685.164 431.376H683.172C682.908 432.84 681.78 433.56 679.836 433.56C677.268 433.56 675.9 431.976 675.804 429.12H685.26V428.472C685.26 423.984 682.524 422.232 679.62 422.232C676.164 422.232 673.74 424.872 673.74 428.664V428.856C673.74 432.72 676.26 435.216 679.812 435.216ZM675.876 427.512C676.212 425.28 677.58 423.888 679.62 423.888C681.684 423.888 683.028 424.92 683.22 427.512H675.876ZM689.068 435.12C689.908 435.12 690.604 434.448 690.604 433.584C690.604 432.72 689.908 432.048 689.068 432.048C688.228 432.048 687.532 432.72 687.532 433.584C687.532 434.448 688.228 435.12 689.068 435.12Z" fill="#001064"/>
<rect x="473" y="325" width="298" height="62" fill="#FFE2DC"/>
<path d="M61.3991 311.48C68.1671 311.48 74.0711 307.928 74.0711 301.832C74.0711 287.672 54.1031 294.872 54.1031 284.504C54.1031 281.432 56.2631 278.792 60.4871 278.792C68.5511 278.792 66.4871 287 70.9991 287C72.6791 287 73.4951 286.04 73.4951 284.552C73.5431 280.904 68.8391 276.488 60.6311 276.488C52.7111 276.488 48.2471 280.712 48.2471 286.088C48.2471 300.488 68.2151 292.376 68.2151 303.416C68.2151 306.872 65.5271 309.176 61.6391 309.176C52.6631 309.176 54.2471 300.68 49.8791 300.536C48.3431 300.488 47.5271 301.592 47.5271 302.936C47.5271 306.344 51.9431 311.48 61.3991 311.48ZM115.496 306.968L114.92 298.088C114.392 290.216 110.552 287.48 105.944 287.48C102.584 287.48 99.7044 289.208 98.4564 292.232C96.8244 289.16 93.8004 287.48 90.3444 287.48C87.3684 287.48 84.8724 289.016 83.4804 291.368V288.536C83.4804 287.72 82.9524 287.144 81.9444 287.672L77.0484 289.928C76.5204 290.168 76.1844 290.408 76.1844 290.792V290.936C76.1844 291.992 78.2964 292.136 78.2964 294.152V307.016C78.2964 308.888 76.3764 309.128 76.3764 310.184V310.376C76.3764 310.808 76.8084 311.048 77.4324 311.048H84.8724C85.4964 311.048 85.8804 310.808 85.8804 310.376V310.184C85.8804 309.128 83.9604 308.888 83.9604 307.016L83.9124 295.496C84.0564 292.28 85.9764 289.784 88.9524 289.784C91.8324 289.784 93.9924 292.52 93.9924 297.416V307.016C93.9924 308.888 92.3124 309.128 92.3124 310.184V310.376C92.3124 310.808 92.7444 311.048 93.3684 311.048H100.328C100.952 311.048 101.336 310.808 101.336 310.376V310.184C101.336 309.128 99.6564 308.888 99.6564 307.016V297.752C99.6564 296.936 99.6084 296.168 99.4644 295.448C99.6084 292.184 101.624 289.784 104.264 289.784C107.288 289.784 109.064 291.992 109.352 297.944L109.832 307.016C109.928 308.888 108.152 309.128 108.152 310.184V310.376C108.152 310.808 108.536 311.048 109.16 311.048H116.216C116.792 311.048 117.224 310.808 117.224 310.376V310.184C117.224 309.128 115.592 308.888 115.496 306.968ZM140.015 306.68L139.055 297.464C138.383 291.272 134.495 287.48 128.447 287.48C123.311 287.48 119.567 289.832 119.567 292.856C119.567 294.2 120.479 295.064 121.919 295.064C124.943 295.064 123.983 289.256 128.447 289.256C131.807 289.256 132.959 292.136 133.487 297.704L133.583 298.664C132.287 297.656 130.367 297.032 128.015 297.032C123.167 297.032 119.231 299.528 119.279 304.232C119.279 308.936 123.023 311.48 128.255 311.48C131.663 311.48 133.823 310.184 134.927 308.408C135.119 310.76 136.319 311.288 138.767 311.288C140.831 311.288 142.655 311 142.655 310.088C142.655 308.84 140.351 309.8 140.015 306.68ZM129.839 309.656C126.863 309.656 124.943 306.824 124.943 303.56C124.943 300.68 126.815 298.856 129.455 298.856C131.999 298.856 133.823 300.584 134.015 303.32L134.159 304.808C134.303 307.4 132.527 309.656 129.839 309.656ZM157.155 287.48C154.083 287.48 151.827 289.16 150.771 292.232V288.488C150.771 287.672 150.387 287.192 149.379 287.672L144.675 289.832C144.147 290.12 143.811 290.456 143.811 290.84V290.984C143.811 292.04 145.875 292.136 145.875 294.104V307.016C145.875 308.888 144.051 309.08 144.051 310.136V310.328C144.051 310.76 144.435 311 145.059 311H152.499C153.123 311 153.507 310.76 153.507 310.328V310.136C153.507 309.08 151.299 308.888 151.299 307.016V296.744C151.299 293.624 152.355 290.792 154.611 290.792C157.395 290.792 155.955 294.536 159.075 294.536C160.899 294.536 161.571 293.144 161.571 291.512C161.571 289.304 159.987 287.48 157.155 287.48ZM171.836 311.48C176.156 311.48 178.604 308.264 178.604 305.048C178.604 304.184 177.452 304.04 177.02 304.808C176.732 306.2 175.628 307.304 173.612 307.304C172.028 307.304 170.876 306.056 170.876 303.752V290.312H176.924C177.404 290.312 177.788 289.976 177.788 289.496V288.824C177.788 288.344 177.404 287.96 176.924 287.96H170.876L170.828 283.304C170.828 282.632 170.54 282.248 169.916 282.248H169.196C168.716 282.248 168.332 282.632 168.236 283.304C167.852 286.088 166.364 287.96 163.868 287.96H162.38C161.852 287.96 161.564 288.296 161.564 288.824V289.496C161.564 289.976 161.9 290.312 162.38 290.312H165.116V303.704C165.116 308.888 167.804 311.48 171.836 311.48ZM182.043 317.768C185.835 315.272 187.707 312.056 187.707 308.6C187.707 305.864 185.979 304.28 183.963 304.28C181.803 304.28 180.411 305.864 180.411 308.072C180.411 310.088 181.611 311.48 183.147 311.48C183.627 311.48 183.723 311.816 183.627 312.296C183.387 313.736 182.715 314.792 180.939 316.52C180.219 317.24 181.227 318.248 182.043 317.768ZM210.196 311.432C216.388 311.432 220.276 308.504 220.276 304.76C220.276 295.256 206.308 299.432 206.308 292.904C206.308 290.84 207.988 289.208 210.34 289.208C215.38 289.208 214.084 295.256 217.444 295.256C218.692 295.256 219.652 294.392 219.652 293.192C219.652 290.408 216.052 287.48 210.052 287.48C204.532 287.48 200.644 290.408 200.644 294.296C200.644 303.896 214.612 299.624 214.612 306.104C214.612 308.552 212.74 309.8 210.196 309.8C204.58 309.8 206.164 303.704 202.564 303.704C201.172 303.704 200.164 304.424 200.164 305.912C200.164 308.552 203.908 311.432 210.196 311.432ZM243.328 306.68L242.368 297.464C241.696 291.272 237.808 287.48 231.76 287.48C226.624 287.48 222.88 289.832 222.88 292.856C222.88 294.2 223.792 295.064 225.232 295.064C228.256 295.064 227.296 289.256 231.76 289.256C235.12 289.256 236.272 292.136 236.8 297.704L236.896 298.664C235.6 297.656 233.68 297.032 231.328 297.032C226.48 297.032 222.544 299.528 222.592 304.232C222.592 308.936 226.336 311.48 231.568 311.48C234.976 311.48 237.136 310.184 238.24 308.408C238.432 310.76 239.632 311.288 242.08 311.288C244.144 311.288 245.968 311 245.968 310.088C245.968 308.84 243.664 309.8 243.328 306.68ZM233.152 309.656C230.176 309.656 228.256 306.824 228.256 303.56C228.256 300.68 230.128 298.856 232.768 298.856C235.312 298.856 237.136 300.584 237.328 303.32L237.472 304.808C237.616 307.4 235.84 309.656 233.152 309.656ZM268.943 287.96H263.615C263.087 287.96 262.751 288.2 262.751 288.68V288.824C262.751 289.832 265.439 289.976 264.431 292.712L258.815 306.968L252.911 292.04C252.191 290.168 254.063 289.736 254.063 288.824V288.68C254.063 288.248 253.679 287.96 253.247 287.96H245.231C244.703 287.96 244.367 288.2 244.367 288.632V288.776C244.367 289.832 245.759 290.264 246.575 291.944L255.119 309.944C255.455 310.664 255.791 311 256.559 311H258.575C259.295 311 259.727 310.664 259.967 309.944L267.119 291.944C267.791 290.168 269.807 289.832 269.807 288.776V288.632C269.807 288.2 269.471 287.96 268.943 287.96ZM294.365 287.96H289.037C288.509 287.96 288.173 288.2 288.173 288.68V288.824C288.173 289.832 290.861 289.976 289.853 292.712L284.237 306.968L278.333 292.04C277.613 290.168 279.485 289.736 279.485 288.824V288.68C279.485 288.248 279.101 287.96 278.669 287.96H270.653C270.125 287.96 269.789 288.2 269.789 288.632V288.776C269.789 289.832 271.181 290.264 271.997 291.944L280.541 309.944C280.877 310.664 281.213 311 281.981 311H283.997C284.717 311 285.149 310.664 285.389 309.944L292.541 291.944C293.213 290.168 295.229 289.832 295.229 288.776V288.632C295.229 288.2 294.893 287.96 294.365 287.96ZM320.217 287.96H314.889C314.361 287.96 314.025 288.248 314.025 288.68V288.824C314.025 289.928 317.145 290.024 315.993 292.76L310.041 306.776L303.705 292.232C302.697 289.976 304.473 289.928 304.473 288.824V288.68C304.473 288.248 304.137 287.96 303.657 287.96H296.073C295.593 287.96 295.209 288.2 295.209 288.632V288.824C295.209 289.928 296.649 290.072 297.657 292.184L307.017 312.104C305.529 315.8 303.513 319.256 301.641 319.256C298.905 319.256 299.865 314.12 296.649 314.12C295.161 314.12 294.297 315.128 294.297 316.52C294.297 318.68 296.793 321.224 300.777 321.224C305.577 321.224 307.977 315.848 309.657 312.056L318.729 292.184C319.641 290.12 321.033 289.928 321.033 288.824V288.632C321.033 288.2 320.697 287.96 320.217 287.96ZM363.138 287.96H357.954C357.474 287.96 357.09 288.248 357.09 288.68V288.824C357.09 289.88 359.778 289.976 358.914 292.52L354.498 305.192L349.602 288.872C349.458 288.344 349.218 288.056 348.642 288.056L346.338 288.104C345.81 288.104 345.57 288.392 345.378 288.968L340.386 305.144L335.874 292.04C335.106 289.88 337.266 289.832 337.266 288.824V288.68C337.266 288.248 336.978 287.96 336.45 287.96H329.058C328.53 287.96 328.194 288.2 328.194 288.632V288.824C328.194 289.832 329.538 290.072 330.258 291.992L337.458 309.944C337.746 310.664 338.13 311 338.898 311H339.762C340.482 311 340.914 310.664 341.154 309.944L346.098 294.392L351.042 309.944C351.234 310.664 351.714 311 352.482 311H353.73C354.498 311 354.834 310.664 355.074 309.944L361.554 291.992C362.274 289.976 363.954 289.88 363.954 288.824V288.632C363.954 288.2 363.666 287.96 363.138 287.96ZM385.265 306.68L384.305 297.464C383.633 291.272 379.745 287.48 373.697 287.48C368.561 287.48 364.817 289.832 364.817 292.856C364.817 294.2 365.729 295.064 367.169 295.064C370.193 295.064 369.233 289.256 373.697 289.256C377.057 289.256 378.209 292.136 378.737 297.704L378.833 298.664C377.537 297.656 375.617 297.032 373.265 297.032C368.417 297.032 364.481 299.528 364.529 304.232C364.529 308.936 368.273 311.48 373.505 311.48C376.913 311.48 379.073 310.184 380.177 308.408C380.369 310.76 381.569 311.288 384.017 311.288C386.081 311.288 387.905 311 387.905 310.088C387.905 308.84 385.601 309.8 385.265 306.68ZM375.089 309.656C372.113 309.656 370.193 306.824 370.193 303.56C370.193 300.68 372.065 298.856 374.705 298.856C377.249 298.856 379.073 300.584 379.265 303.32L379.409 304.808C379.553 307.4 377.777 309.656 375.089 309.656ZM411.123 287.96H405.795C405.267 287.96 404.931 288.248 404.931 288.68V288.824C404.931 289.928 408.051 290.024 406.899 292.76L400.947 306.776L394.611 292.232C393.603 289.976 395.379 289.928 395.379 288.824V288.68C395.379 288.248 395.043 287.96 394.563 287.96H386.979C386.499 287.96 386.115 288.2 386.115 288.632V288.824C386.115 289.928 387.555 290.072 388.563 292.184L397.923 312.104C396.435 315.8 394.419 319.256 392.547 319.256C389.811 319.256 390.771 314.12 387.555 314.12C386.067 314.12 385.203 315.128 385.203 316.52C385.203 318.68 387.699 321.224 391.683 321.224C396.483 321.224 398.883 315.848 400.563 312.056L409.635 292.184C410.547 290.12 411.939 289.928 411.939 288.824V288.632C411.939 288.2 411.603 287.96 411.123 287.96ZM434.486 311.48C441.446 311.48 446.054 306.2 446.054 299.624C446.054 293 440.966 287.48 433.382 287.48C426.806 287.48 421.478 292.424 421.478 299.24C421.478 305.624 426.326 311.48 434.486 311.48ZM435.206 309.656C430.358 309.656 427.142 303.32 427.142 297.368C427.142 292.088 429.35 289.304 432.758 289.304C437.174 289.304 440.39 294.872 440.39 301.592C440.39 306.776 438.182 309.656 435.206 309.656ZM459.788 275.72C454.076 275.72 451.244 279.464 451.244 284.36V287.96H447.548C447.068 287.96 446.684 288.344 446.684 288.776V289.544C446.684 289.976 447.068 290.312 447.548 290.312H451.244V306.968C451.244 308.888 449.372 309.08 449.372 310.136V310.328C449.372 310.712 449.708 311 450.236 311H458.348C458.828 311 459.164 310.712 459.164 310.328V310.136C459.164 309.08 456.86 308.888 456.86 306.968V290.312H463.004C463.484 290.312 463.82 289.976 463.82 289.544V288.776C463.82 288.344 463.484 287.96 463.004 287.96H456.668C455.42 282.68 455.42 277.448 458.732 277.496C462.812 277.544 459.548 282.968 464.348 282.968C465.788 282.968 466.556 281.864 466.556 280.904C466.556 278.072 463.436 275.72 459.788 275.72ZM485.744 311.48C491.648 311.48 494.864 307.736 495.344 303.992C495.488 302.984 494.288 302.84 493.808 303.56C492.752 305.624 490.736 307.496 487.616 307.496C482.48 307.496 479.072 303.272 479.072 296.696C479.072 292.568 481.232 289.304 484.592 289.304C489.392 289.304 489.248 295.688 492.704 295.88C494.48 295.928 495.152 294.92 495.152 293.816C495.152 290.6 490.88 287.432 485.504 287.48C478.976 287.528 473.408 292.088 473.408 299.384C473.408 306.104 478.784 311.48 485.744 311.48ZM510.967 287.48C507.895 287.48 505.639 289.16 504.583 292.232V288.488C504.583 287.672 504.199 287.192 503.191 287.672L498.487 289.832C497.959 290.12 497.623 290.456 497.623 290.84V290.984C497.623 292.04 499.687 292.136 499.687 294.104V307.016C499.687 308.888 497.863 309.08 497.863 310.136V310.328C497.863 310.76 498.247 311 498.871 311H506.311C506.935 311 507.319 310.76 507.319 310.328V310.136C507.319 309.08 505.111 308.888 505.111 307.016V296.744C505.111 293.624 506.167 290.792 508.423 290.792C511.207 290.792 509.767 294.536 512.887 294.536C514.711 294.536 515.383 293.144 515.383 291.512C515.383 289.304 513.799 287.48 510.967 287.48ZM535.641 303.944C534.681 305.864 532.521 307.448 529.497 307.448C526.089 307.448 523.641 305.432 522.441 302.168L534.057 297.896C535.545 297.368 536.505 296.36 536.505 294.536C536.505 291.176 533.721 287.48 527.529 287.48C521.193 287.48 516.057 292.424 516.057 299.288C516.057 306.728 521.001 311.48 527.433 311.48C533.529 311.48 536.745 307.256 537.177 304.424C537.273 303.464 536.169 303.272 535.641 303.944ZM526.569 289.304C529.353 289.304 531.129 292.76 531.129 294.728C531.129 295.688 530.745 296.36 529.881 296.744L521.913 300.2C521.721 299.24 521.625 298.232 521.625 297.128C521.625 292.52 523.545 289.304 526.569 289.304ZM560.109 306.68L559.149 297.464C558.477 291.272 554.589 287.48 548.541 287.48C543.405 287.48 539.661 289.832 539.661 292.856C539.661 294.2 540.573 295.064 542.013 295.064C545.037 295.064 544.077 289.256 548.541 289.256C551.901 289.256 553.053 292.136 553.581 297.704L553.677 298.664C552.381 297.656 550.461 297.032 548.109 297.032C543.261 297.032 539.325 299.528 539.373 304.232C539.373 308.936 543.117 311.48 548.349 311.48C551.757 311.48 553.917 310.184 555.021 308.408C555.213 310.76 556.413 311.288 558.861 311.288C560.925 311.288 562.749 311 562.749 310.088C562.749 308.84 560.445 309.8 560.109 306.68ZM549.933 309.656C546.957 309.656 545.037 306.824 545.037 303.56C545.037 300.68 546.909 298.856 549.549 298.856C552.093 298.856 553.917 300.584 554.109 303.32L554.253 304.808C554.397 307.4 552.621 309.656 549.933 309.656ZM572.789 311.48C577.109 311.48 579.557 308.264 579.557 305.048C579.557 304.184 578.405 304.04 577.973 304.808C577.685 306.2 576.581 307.304 574.565 307.304C572.981 307.304 571.829 306.056 571.829 303.752V290.312H577.877C578.357 290.312 578.741 289.976 578.741 289.496V288.824C578.741 288.344 578.357 287.96 577.877 287.96H571.829L571.781 283.304C571.781 282.632 571.493 282.248 570.869 282.248H570.149C569.669 282.248 569.285 282.632 569.189 283.304C568.805 286.088 567.317 287.96 564.821 287.96H563.333C562.805 287.96 562.517 288.296 562.517 288.824V289.496C562.517 289.976 562.853 290.312 563.333 290.312H566.069V303.704C566.069 308.888 568.757 311.48 572.789 311.48ZM585.876 283.976C588.228 283.976 589.764 282.488 589.764 280.376C589.764 278.312 588.228 276.776 585.876 276.776C583.476 276.776 581.892 278.312 581.892 280.376C581.892 282.488 583.476 283.976 585.876 283.976ZM582.324 311H589.62C590.244 311 590.676 310.712 590.676 310.28V310.088C590.676 309.032 588.708 308.84 588.708 306.968V288.488C588.708 287.72 588.084 287.144 586.98 287.672L582.18 290.072C581.652 290.36 581.316 290.552 581.316 290.936V291.08C581.316 291.944 583.092 292.424 583.092 294.392V306.968C583.092 308.84 581.316 309.032 581.316 310.088V310.28C581.316 310.712 581.7 311 582.324 311ZM617.231 306.968L616.655 297.896C616.175 290.36 612.047 287.48 607.535 287.48C604.223 287.48 601.583 289.064 600.239 291.656V288.536C600.239 287.72 599.759 287.144 598.751 287.672L594.095 289.928C593.567 290.168 593.231 290.408 593.231 290.792V290.936C593.231 291.992 595.391 292.04 595.391 294.152V307.016C595.391 308.888 593.471 309.08 593.471 310.136V310.328C593.471 310.76 593.855 311.048 594.479 311.048H601.919C602.591 311.048 602.975 310.76 602.975 310.328V310.136C602.975 309.08 601.007 308.888 601.007 307.016V295.736C601.007 292.28 602.975 289.784 606.047 289.784C608.975 289.784 610.847 292.232 611.087 297.704L611.567 306.968C611.663 308.888 609.839 309.08 609.839 310.136V310.328C609.839 310.76 610.223 311.048 610.895 311.048H617.903C618.527 311.048 618.959 310.76 618.959 310.328V310.136C618.959 309.08 617.327 308.888 617.231 306.968ZM641.686 287.96C636.214 287.96 635.158 287.48 631.99 287.48C625.414 287.48 620.95 291.56 620.95 297.368C620.95 302.696 625.654 306.776 631.75 306.776C632.374 306.776 632.95 306.728 633.526 306.68C636.166 306.968 637.75 308.888 637.75 311.624C637.75 314.552 635.494 316.568 632.038 316.568C625.222 316.52 626.614 309.128 623.062 309.128C621.478 309.128 620.758 310.232 620.758 311.384C620.758 314.792 624.598 318.344 631.846 318.344C638.47 318.344 643.414 315.656 643.414 311.384C643.414 308.744 641.638 306.584 637.462 305.624C640.87 304.04 643.03 300.968 643.03 297.128C643.03 294.776 641.782 292.328 640.006 290.744C641.446 290.36 643.174 290.552 643.75 289.304C644.182 288.584 643.798 287.96 641.686 287.96ZM626.518 294.92C626.518 291.656 628.246 289.304 631.078 289.304C634.918 289.304 637.462 294.008 637.462 299.24C637.462 302.504 635.638 304.904 632.662 304.904C629.302 304.904 626.518 300.344 626.518 294.92ZM676.922 306.68L675.962 297.464C675.29 291.272 671.402 287.48 665.354 287.48C660.218 287.48 656.474 289.832 656.474 292.856C656.474 294.2 657.386 295.064 658.826 295.064C661.85 295.064 660.89 289.256 665.354 289.256C668.714 289.256 669.866 292.136 670.394 297.704L670.49 298.664C669.194 297.656 667.274 297.032 664.922 297.032C660.074 297.032 656.138 299.528 656.186 304.232C656.186 308.936 659.93 311.48 665.162 311.48C668.57 311.48 670.73 310.184 671.834 308.408C672.026 310.76 673.226 311.288 675.674 311.288C677.738 311.288 679.562 311 679.562 310.088C679.562 308.84 677.258 309.8 676.922 306.68ZM666.746 309.656C663.77 309.656 661.85 306.824 661.85 303.56C661.85 300.68 663.722 298.856 666.362 298.856C668.906 298.856 670.73 300.584 670.922 303.32L671.066 304.808C671.21 307.4 669.434 309.656 666.746 309.656ZM704.669 306.968L704.093 297.896C703.613 290.36 699.485 287.48 694.973 287.48C691.661 287.48 689.021 289.064 687.677 291.656V288.536C687.677 287.72 687.197 287.144 686.189 287.672L681.533 289.928C681.005 290.168 680.669 290.408 680.669 290.792V290.936C680.669 291.992 682.829 292.04 682.829 294.152V307.016C682.829 308.888 680.909 309.08 680.909 310.136V310.328C680.909 310.76 681.293 311.048 681.917 311.048H689.357C690.029 311.048 690.413 310.76 690.413 310.328V310.136C690.413 309.08 688.445 308.888 688.445 307.016V295.736C688.445 292.28 690.413 289.784 693.485 289.784C696.413 289.784 698.285 292.232 698.525 297.704L699.005 306.968C699.101 308.888 697.277 309.08 697.277 310.136V310.328C697.277 310.76 697.661 311.048 698.333 311.048H705.341C705.965 311.048 706.397 310.76 706.397 310.328V310.136C706.397 309.08 704.765 308.888 704.669 306.968ZM731.284 307.016V275.864C731.284 274.904 730.756 274.616 729.604 275L724.516 276.632C723.988 276.824 723.652 277.16 723.652 277.592V277.688C723.652 278.744 725.86 278.792 725.86 280.904V289.928C724.324 288.44 722.164 287.48 719.572 287.48C713.284 287.48 708.292 292.376 708.292 299.432C708.292 306.92 713.62 311.48 719.476 311.48C722.116 311.48 724.612 310.424 726.196 308.408L726.34 310.088C726.388 310.616 726.724 311 727.3 311H732.292C732.82 311 733.108 310.76 733.108 310.328V310.184C733.108 309.176 731.284 308.888 731.284 307.016ZM720.772 309.656C716.404 309.56 713.62 303.992 713.764 297.464C713.86 292.376 716.212 289.304 719.764 289.304C723.124 289.304 725.86 292.712 725.86 295.784V303.464C725.86 307.64 723.124 309.656 720.772 309.656ZM48.5199 366.968L47.9439 358.088C47.4159 350.216 43.5759 347.48 38.9679 347.48C35.6079 347.48 32.7279 349.208 31.4799 352.232C29.8479 349.16 26.8239 347.48 23.3679 347.48C20.3919 347.48 17.8959 349.016 16.5039 351.368V348.536C16.5039 347.72 15.9759 347.144 14.9679 347.672L10.0719 349.928C9.54388 350.168 9.20788 350.408 9.20788 350.792V350.936C9.20788 351.992 11.3199 352.136 11.3199 354.152V367.016C11.3199 368.888 9.39988 369.128 9.39988 370.184V370.376C9.39988 370.808 9.83188 371.048 10.4559 371.048H17.8959C18.5199 371.048 18.9039 370.808 18.9039 370.376V370.184C18.9039 369.128 16.9839 368.888 16.9839 367.016L16.9359 355.496C17.0799 352.28 18.9999 349.784 21.9759 349.784C24.8559 349.784 27.0159 352.52 27.0159 357.416V367.016C27.0159 368.888 25.3359 369.128 25.3359 370.184V370.376C25.3359 370.808 25.7679 371.048 26.3919 371.048H33.3519C33.9759 371.048 34.3599 370.808 34.3599 370.376V370.184C34.3599 369.128 32.6799 368.888 32.6799 367.016V357.752C32.6799 356.936 32.6319 356.168 32.4879 355.448C32.6319 352.184 34.6479 349.784 37.2879 349.784C40.3119 349.784 42.0879 351.992 42.3759 357.944L42.8559 367.016C42.9519 368.888 41.1759 369.128 41.1759 370.184V370.376C41.1759 370.808 41.5599 371.048 42.1839 371.048H49.2399C49.8159 371.048 50.2479 370.808 50.2479 370.376V370.184C50.2479 369.128 48.6159 368.888 48.5199 366.968ZM73.0388 366.68L72.0788 357.464C71.4068 351.272 67.5188 347.48 61.4708 347.48C56.3348 347.48 52.5908 349.832 52.5908 352.856C52.5908 354.2 53.5028 355.064 54.9428 355.064C57.9668 355.064 57.0068 349.256 61.4708 349.256C64.8307 349.256 65.9828 352.136 66.5108 357.704L66.6068 358.664C65.3108 357.656 63.3907 357.032 61.0388 357.032C56.1908 357.032 52.2548 359.528 52.3027 364.232C52.3027 368.936 56.0468 371.48 61.2788 371.48C64.6868 371.48 66.8468 370.184 67.9508 368.408C68.1428 370.76 69.3428 371.288 71.7908 371.288C73.8548 371.288 75.6788 371 75.6788 370.088C75.6788 368.84 73.3748 369.8 73.0388 366.68ZM62.8628 369.656C59.8868 369.656 57.9668 366.824 57.9668 363.56C57.9668 360.68 59.8388 358.856 62.4788 358.856C65.0228 358.856 66.8468 360.584 67.0388 363.32L67.1828 364.808C67.3268 367.4 65.5508 369.656 62.8628 369.656ZM100.786 366.968L100.21 357.896C99.73 350.36 95.602 347.48 91.09 347.48C87.778 347.48 85.138 349.064 83.794 351.656V348.536C83.794 347.72 83.314 347.144 82.306 347.672L77.65 349.928C77.122 350.168 76.786 350.408 76.786 350.792V350.936C76.786 351.992 78.946 352.04 78.946 354.152V367.016C78.946 368.888 77.026 369.08 77.026 370.136V370.328C77.026 370.76 77.41 371.048 78.034 371.048H85.474C86.146 371.048 86.53 370.76 86.53 370.328V370.136C86.53 369.08 84.562 368.888 84.562 367.016V355.736C84.562 352.28 86.53 349.784 89.602 349.784C92.53 349.784 94.402 352.232 94.642 357.704L95.122 366.968C95.218 368.888 93.394 369.08 93.394 370.136V370.328C93.394 370.76 93.778 371.048 94.45 371.048H101.458C102.082 371.048 102.514 370.76 102.514 370.328V370.136C102.514 369.08 100.882 368.888 100.786 366.968ZM125.289 366.68L124.329 357.464C123.657 351.272 119.769 347.48 113.721 347.48C108.585 347.48 104.841 349.832 104.841 352.856C104.841 354.2 105.753 355.064 107.193 355.064C110.217 355.064 109.257 349.256 113.721 349.256C117.081 349.256 118.233 352.136 118.761 357.704L118.857 358.664C117.561 357.656 115.641 357.032 113.289 357.032C108.441 357.032 104.505 359.528 104.553 364.232C104.553 368.936 108.297 371.48 113.529 371.48C116.937 371.48 119.097 370.184 120.201 368.408C120.393 370.76 121.593 371.288 124.041 371.288C126.105 371.288 127.929 371 127.929 370.088C127.929 368.84 125.625 369.8 125.289 366.68ZM115.113 369.656C112.137 369.656 110.217 366.824 110.217 363.56C110.217 360.68 112.089 358.856 114.729 358.856C117.273 358.856 119.097 360.584 119.289 363.32L119.433 364.808C119.577 367.4 117.801 369.656 115.113 369.656ZM149.772 347.96C144.3 347.96 143.244 347.48 140.076 347.48C133.5 347.48 129.036 351.56 129.036 357.368C129.036 362.696 133.74 366.776 139.836 366.776C140.46 366.776 141.036 366.728 141.612 366.68C144.252 366.968 145.836 368.888 145.836 371.624C145.836 374.552 143.58 376.568 140.124 376.568C133.308 376.52 134.7 369.128 131.148 369.128C129.564 369.128 128.844 370.232 128.844 371.384C128.844 374.792 132.684 378.344 139.932 378.344C146.556 378.344 151.5 375.656 151.5 371.384C151.5 368.744 149.724 366.584 145.548 365.624C148.956 364.04 151.116 360.968 151.116 357.128C151.116 354.776 149.868 352.328 148.092 350.744C149.532 350.36 151.26 350.552 151.836 349.304C152.268 348.584 151.884 347.96 149.772 347.96ZM134.604 354.92C134.604 351.656 136.332 349.304 139.164 349.304C143.004 349.304 145.548 354.008 145.548 359.24C145.548 362.504 143.724 364.904 140.748 364.904C137.388 364.904 134.604 360.344 134.604 354.92ZM159.259 343.976C161.611 343.976 163.147 342.488 163.147 340.376C163.147 338.312 161.611 336.776 159.259 336.776C156.859 336.776 155.275 338.312 155.275 340.376C155.275 342.488 156.859 343.976 159.259 343.976ZM155.707 371H163.003C163.627 371 164.059 370.712 164.059 370.28V370.088C164.059 369.032 162.091 368.84 162.091 366.968V348.488C162.091 347.72 161.467 347.144 160.363 347.672L155.563 350.072C155.035 350.36 154.699 350.552 154.699 350.936V351.08C154.699 351.944 156.475 352.424 156.475 354.392V366.968C156.475 368.84 154.699 369.032 154.699 370.088V370.28C154.699 370.712 155.083 371 155.707 371ZM190.614 366.968L190.038 357.896C189.558 350.36 185.43 347.48 180.918 347.48C177.606 347.48 174.966 349.064 173.622 351.656V348.536C173.622 347.72 173.142 347.144 172.134 347.672L167.478 349.928C166.95 350.168 166.614 350.408 166.614 350.792V350.936C166.614 351.992 168.774 352.04 168.774 354.152V367.016C168.774 368.888 166.854 369.08 166.854 370.136V370.328C166.854 370.76 167.238 371.048 167.862 371.048H175.302C175.974 371.048 176.358 370.76 176.358 370.328V370.136C176.358 369.08 174.39 368.888 174.39 367.016V355.736C174.39 352.28 176.358 349.784 179.43 349.784C182.358 349.784 184.23 352.232 184.47 357.704L184.95 366.968C185.046 368.888 183.222 369.08 183.222 370.136V370.328C183.222 370.76 183.606 371.048 184.278 371.048H191.286C191.91 371.048 192.342 370.76 192.342 370.328V370.136C192.342 369.08 190.71 368.888 190.614 366.968ZM215.069 347.96C209.597 347.96 208.541 347.48 205.373 347.48C198.797 347.48 194.333 351.56 194.333 357.368C194.333 362.696 199.037 366.776 205.133 366.776C205.757 366.776 206.333 366.728 206.909 366.68C209.549 366.968 211.133 368.888 211.133 371.624C211.133 374.552 208.877 376.568 205.421 376.568C198.605 376.52 199.997 369.128 196.445 369.128C194.861 369.128 194.141 370.232 194.141 371.384C194.141 374.792 197.981 378.344 205.229 378.344C211.853 378.344 216.797 375.656 216.797 371.384C216.797 368.744 215.021 366.584 210.845 365.624C214.253 364.04 216.413 360.968 216.413 357.128C216.413 354.776 215.165 352.328 213.389 350.744C214.829 350.36 216.557 350.552 217.133 349.304C217.565 348.584 217.181 347.96 215.069 347.96ZM199.901 354.92C199.901 351.656 201.629 349.304 204.461 349.304C208.301 349.304 210.845 354.008 210.845 359.24C210.845 362.504 209.021 364.904 206.045 364.904C202.685 364.904 199.901 360.344 199.901 354.92ZM251.725 347.96H246.397C245.869 347.96 245.533 348.248 245.533 348.68V348.824C245.533 349.928 248.653 350.024 247.501 352.76L241.549 366.776L235.213 352.232C234.205 349.976 235.981 349.928 235.981 348.824V348.68C235.981 348.248 235.645 347.96 235.165 347.96H227.581C227.101 347.96 226.716 348.2 226.716 348.632V348.824C226.716 349.928 228.157 350.072 229.165 352.184L238.525 372.104C237.037 375.8 235.021 379.256 233.148 379.256C230.413 379.256 231.373 374.12 228.157 374.12C226.668 374.12 225.804 375.128 225.804 376.52C225.804 378.68 228.301 381.224 232.285 381.224C237.085 381.224 239.484 375.848 241.165 372.056L250.237 352.184C251.149 350.12 252.541 349.928 252.541 348.824V348.632C252.541 348.2 252.205 347.96 251.725 347.96ZM265.603 371.48C272.563 371.48 277.171 366.2 277.171 359.624C277.171 353 272.083 347.48 264.499 347.48C257.923 347.48 252.595 352.424 252.595 359.24C252.595 365.624 257.443 371.48 265.603 371.48ZM266.323 369.656C261.475 369.656 258.259 363.32 258.259 357.368C258.259 352.088 260.467 349.304 263.875 349.304C268.291 349.304 271.507 354.872 271.507 361.592C271.507 366.776 269.299 369.656 266.323 369.656ZM302.316 366.488V348.392C302.316 347.672 301.788 347.528 300.78 347.672L295.644 348.488C295.116 348.584 294.828 348.92 294.828 349.352V349.496C294.828 350.456 296.7 350.744 296.7 352.712V362.696C296.7 366.632 294.444 369.176 291.564 369.176C288.444 369.176 286.764 366.584 286.764 361.544L286.86 348.392C286.86 347.672 286.236 347.528 285.228 347.672L280.188 348.488C279.66 348.584 279.324 348.92 279.324 349.352V349.496C279.324 350.456 281.148 350.744 281.148 352.712V361.016C281.148 368.024 284.94 371.48 290.076 371.48C293.484 371.48 295.932 370.136 297.276 367.736C297.228 370.424 298.62 371.288 301.164 371.288C303.516 371.288 304.764 371.048 304.764 370.088C304.764 368.504 302.316 370.136 302.316 366.488ZM320.209 347.48C317.137 347.48 314.881 349.16 313.825 352.232V348.488C313.825 347.672 313.441 347.192 312.433 347.672L307.729 349.832C307.201 350.12 306.865 350.456 306.865 350.84V350.984C306.865 352.04 308.929 352.136 308.929 354.104V367.016C308.929 368.888 307.105 369.08 307.105 370.136V370.328C307.105 370.76 307.489 371 308.113 371H315.553C316.177 371 316.561 370.76 316.561 370.328V370.136C316.561 369.08 314.353 368.888 314.353 367.016V356.744C314.353 353.624 315.409 350.792 317.665 350.792C320.449 350.792 319.009 354.536 322.129 354.536C323.953 354.536 324.625 353.144 324.625 351.512C324.625 349.304 323.041 347.48 320.209 347.48ZM377.934 336.92H372.318C371.742 336.92 371.358 337.16 371.358 337.64V337.784C371.358 338.84 373.71 339.032 373.086 340.904L365.934 363.752L358.686 340.904C358.062 338.744 360.558 338.744 360.558 337.688V337.592C360.558 337.16 360.222 336.92 359.646 336.92H351.198C350.622 336.92 350.286 337.16 350.286 337.592V337.688C350.286 338.744 352.302 338.984 352.926 340.904L354.558 345.8L348.27 363.8L339.822 340.952C339.102 338.984 341.454 338.84 341.454 337.736V337.592C341.454 337.208 341.07 336.92 340.446 336.92H331.998C331.422 336.92 331.038 337.16 331.038 337.592V337.688C331.038 338.84 332.814 338.744 333.726 340.952L345.102 369.464C345.534 370.52 346.11 371 347.262 371C348.126 371 348.942 370.52 349.326 369.368L356.046 350.168L362.574 369.464C362.958 370.52 363.726 371 364.734 371C365.694 371 366.654 370.568 367.038 369.368L376.398 340.904C377.118 338.792 378.894 338.792 378.894 337.736V337.592C378.894 337.208 378.558 336.92 377.934 336.92ZM384.743 343.976C387.095 343.976 388.631 342.488 388.631 340.376C388.631 338.312 387.095 336.776 384.743 336.776C382.343 336.776 380.759 338.312 380.759 340.376C380.759 342.488 382.343 343.976 384.743 343.976ZM381.191 371H388.487C389.111 371 389.543 370.712 389.543 370.28V370.088C389.543 369.032 387.575 368.84 387.575 366.968V348.488C387.575 347.72 386.951 347.144 385.847 347.672L381.047 350.072C380.519 350.36 380.183 350.552 380.183 350.936V351.08C380.183 351.944 381.959 352.424 381.959 354.392V366.968C381.959 368.84 380.183 369.032 380.183 370.088V370.28C380.183 370.712 380.567 371 381.191 371ZM393.107 371H400.403C401.027 371 401.459 370.712 401.459 370.28V370.136C401.459 369.032 399.491 368.888 399.491 367.016V335.816C399.491 335.096 398.867 334.52 397.763 335.048L392.915 337.448C392.435 337.688 392.099 337.88 392.099 338.312V338.456C392.099 339.32 393.875 339.704 393.875 341.72V367.016C393.875 368.888 392.099 369.032 392.099 370.136V370.28C392.099 370.712 392.483 371 393.107 371ZM404.935 371H412.231C412.855 371 413.287 370.712 413.287 370.28V370.136C413.287 369.032 411.319 368.888 411.319 367.016V335.816C411.319 335.096 410.695 334.52 409.591 335.048L404.743 337.448C404.263 337.688 403.927 337.88 403.927 338.312V338.456C403.927 339.32 405.703 339.704 405.703 341.72V367.016C405.703 368.888 403.927 369.032 403.927 370.136V370.28C403.927 370.712 404.311 371 404.935 371ZM430.415 343.976C432.767 343.976 434.303 342.488 434.303 340.376C434.303 338.312 432.767 336.776 430.415 336.776C428.015 336.776 426.431 338.312 426.431 340.376C426.431 342.488 428.015 343.976 430.415 343.976ZM426.863 371H434.159C434.783 371 435.215 370.712 435.215 370.28V370.088C435.215 369.032 433.247 368.84 433.247 366.968V348.488C433.247 347.72 432.623 347.144 431.519 347.672L426.719 350.072C426.191 350.36 425.855 350.552 425.855 350.936V351.08C425.855 351.944 427.631 352.424 427.631 354.392V366.968C427.631 368.84 425.855 369.032 425.855 370.088V370.28C425.855 370.712 426.239 371 426.863 371ZM461.77 366.968L461.194 357.896C460.714 350.36 456.586 347.48 452.074 347.48C448.762 347.48 446.122 349.064 444.778 351.656V348.536C444.778 347.72 444.298 347.144 443.29 347.672L438.634 349.928C438.106 350.168 437.77 350.408 437.77 350.792V350.936C437.77 351.992 439.93 352.04 439.93 354.152V367.016C439.93 368.888 438.01 369.08 438.01 370.136V370.328C438.01 370.76 438.394 371.048 439.018 371.048H446.458C447.13 371.048 447.514 370.76 447.514 370.328V370.136C447.514 369.08 445.546 368.888 445.546 367.016V355.736C445.546 352.28 447.514 349.784 450.586 349.784C453.514 349.784 455.386 352.232 455.626 357.704L456.106 366.968C456.202 368.888 454.378 369.08 454.378 370.136V370.328C454.378 370.76 454.762 371.048 455.434 371.048H462.442C463.066 371.048 463.498 370.76 463.498 370.328V370.136C463.498 369.08 461.866 368.888 461.77 366.968ZM487.974 351.368L498.102 340.136C498.774 339.368 498.966 338.984 498.966 338.36V337.832C498.966 337.256 498.582 336.92 497.91 336.92H476.982C476.262 336.92 475.83 337.256 475.83 337.976V340.712C475.83 341.48 476.31 341.864 477.03 341.864H492.486L484.47 351.992C483.702 352.952 484.23 354.008 485.43 354.008H486.102C490.278 354.008 493.494 356.84 493.494 362.168C493.494 366.392 490.758 369.08 486.822 369.08C480.966 369.08 481.494 362.216 477.894 362.216C476.262 362.216 475.302 363.368 475.302 365.144C475.302 367.784 478.71 371.48 486.582 371.48C494.598 371.48 499.206 366.776 499.206 361.016C499.206 355.352 494.694 351.464 487.974 351.368ZM521.689 371.432C527.881 371.432 531.769 368.504 531.769 364.76C531.769 355.256 517.801 359.432 517.801 352.904C517.801 350.84 519.481 349.208 521.833 349.208C526.873 349.208 525.577 355.256 528.937 355.256C530.185 355.256 531.145 354.392 531.145 353.192C531.145 350.408 527.545 347.48 521.545 347.48C516.025 347.48 512.137 350.408 512.137 354.296C512.137 363.896 526.105 359.624 526.105 366.104C526.105 368.552 524.233 369.8 521.689 369.8C516.073 369.8 517.657 363.704 514.057 363.704C512.665 363.704 511.657 364.424 511.657 365.912C511.657 368.552 515.401 371.432 521.689 371.432ZM538.884 343.976C541.236 343.976 542.772 342.488 542.772 340.376C542.772 338.312 541.236 336.776 538.884 336.776C536.484 336.776 534.9 338.312 534.9 340.376C534.9 342.488 536.484 343.976 538.884 343.976ZM535.332 371H542.628C543.252 371 543.684 370.712 543.684 370.28V370.088C543.684 369.032 541.716 368.84 541.716 366.968V348.488C541.716 347.72 541.092 347.144 539.988 347.672L535.188 350.072C534.66 350.36 534.324 350.552 534.324 350.936V351.08C534.324 351.944 536.1 352.424 536.1 354.392V366.968C536.1 368.84 534.324 369.032 534.324 370.088V370.28C534.324 370.712 534.708 371 535.332 371ZM585.551 366.968L584.975 358.088C584.447 350.216 580.607 347.48 575.999 347.48C572.639 347.48 569.759 349.208 568.511 352.232C566.879 349.16 563.855 347.48 560.399 347.48C557.423 347.48 554.927 349.016 553.535 351.368V348.536C553.535 347.72 553.007 347.144 551.999 347.672L547.103 349.928C546.575 350.168 546.239 350.408 546.239 350.792V350.936C546.239 351.992 548.351 352.136 548.351 354.152V367.016C548.351 368.888 546.431 369.128 546.431 370.184V370.376C546.431 370.808 546.863 371.048 547.487 371.048H554.927C555.551 371.048 555.935 370.808 555.935 370.376V370.184C555.935 369.128 554.015 368.888 554.015 367.016L553.967 355.496C554.111 352.28 556.031 349.784 559.007 349.784C561.887 349.784 564.047 352.52 564.047 357.416V367.016C564.047 368.888 562.367 369.128 562.367 370.184V370.376C562.367 370.808 562.799 371.048 563.423 371.048H570.383C571.007 371.048 571.391 370.808 571.391 370.376V370.184C571.391 369.128 569.711 368.888 569.711 367.016V357.752C569.711 356.936 569.663 356.168 569.519 355.448C569.663 352.184 571.679 349.784 574.319 349.784C577.343 349.784 579.119 351.992 579.407 357.944L579.887 367.016C579.983 368.888 578.207 369.128 578.207 370.184V370.376C578.207 370.808 578.591 371.048 579.215 371.048H586.271C586.847 371.048 587.279 370.808 587.279 370.376V370.184C587.279 369.128 585.647 368.888 585.551 366.968ZM602.918 347.48C599.75 347.48 597.11 348.824 595.766 351.128L595.814 348.488C595.814 347.672 595.382 347.144 594.23 347.72L589.814 349.88C589.286 350.12 588.95 350.456 588.95 350.888V351.08C588.95 352.184 591.014 352.28 591.014 354.104V377.624C591.014 379.544 589.19 379.736 589.19 380.792V380.936C589.19 381.416 589.622 381.656 590.246 381.656H597.542C598.166 381.656 598.598 381.416 598.598 380.936V380.792C598.598 379.736 596.63 379.544 596.63 377.624V368.936C598.214 370.568 600.326 371.48 602.966 371.48C609.014 371.48 614.054 366.392 614.054 359.096C614.054 351.8 608.678 347.48 602.918 347.48ZM602.294 369.656C599.366 369.656 596.63 366.344 596.63 362.84V353.96C596.966 351.272 599.078 349.304 601.526 349.304C605.654 349.304 608.39 354.008 608.39 360.872C608.39 366.488 606.086 369.656 602.294 369.656ZM617.638 371H624.934C625.558 371 625.99 370.712 625.99 370.28V370.136C625.99 369.032 624.022 368.888 624.022 367.016V335.816C624.022 335.096 623.398 334.52 622.294 335.048L617.446 337.448C616.966 337.688 616.63 337.88 616.63 338.312V338.456C616.63 339.32 618.406 339.704 618.406 341.72V367.016C618.406 368.888 616.63 369.032 616.63 370.136V370.28C616.63 370.712 617.014 371 617.638 371ZM647.946 363.944C646.986 365.864 644.826 367.448 641.802 367.448C638.394 367.448 635.946 365.432 634.746 362.168L646.362 357.896C647.85 357.368 648.81 356.36 648.81 354.536C648.81 351.176 646.026 347.48 639.834 347.48C633.498 347.48 628.362 352.424 628.362 359.288C628.362 366.728 633.306 371.48 639.738 371.48C645.834 371.48 649.05 367.256 649.482 364.424C649.578 363.464 648.474 363.272 647.946 363.944ZM638.874 349.304C641.658 349.304 643.434 352.76 643.434 354.728C643.434 355.688 643.05 356.36 642.186 356.744L634.218 360.2C634.026 359.24 633.93 358.232 633.93 357.128C633.93 352.52 635.85 349.304 638.874 349.304ZM671.282 371.432C677.474 371.432 681.362 368.504 681.362 364.76C681.362 355.256 667.394 359.432 667.394 352.904C667.394 350.84 669.074 349.208 671.426 349.208C676.466 349.208 675.17 355.256 678.53 355.256C679.778 355.256 680.738 354.392 680.738 353.192C680.738 350.408 677.138 347.48 671.138 347.48C665.618 347.48 661.73 350.408 661.73 354.296C661.73 363.896 675.698 359.624 675.698 366.104C675.698 368.552 673.826 369.8 671.282 369.8C665.666 369.8 667.25 363.704 663.65 363.704C662.258 363.704 661.25 364.424 661.25 365.912C661.25 368.552 664.994 371.432 671.282 371.432ZM692.609 371.48C696.929 371.48 699.377 368.264 699.377 365.048C699.377 364.184 698.225 364.04 697.793 364.808C697.505 366.2 696.401 367.304 694.385 367.304C692.801 367.304 691.649 366.056 691.649 363.752V350.312H697.697C698.177 350.312 698.561 349.976 698.561 349.496V348.824C698.561 348.344 698.177 347.96 697.697 347.96H691.649L691.601 343.304C691.601 342.632 691.313 342.248 690.689 342.248H689.969C689.489 342.248 689.105 342.632 689.009 343.304C688.625 346.088 687.137 347.96 684.641 347.96H683.153C682.625 347.96 682.337 348.296 682.337 348.824V349.496C682.337 349.976 682.673 350.312 683.153 350.312H685.889V363.704C685.889 368.888 688.577 371.48 692.609 371.48ZM720.149 363.944C719.189 365.864 717.029 367.448 714.005 367.448C710.597 367.448 708.149 365.432 706.949 362.168L718.565 357.896C720.053 357.368 721.013 356.36 721.013 354.536C721.013 351.176 718.229 347.48 712.037 347.48C705.701 347.48 700.565 352.424 700.565 359.288C700.565 366.728 705.509 371.48 711.941 371.48C718.037 371.48 721.253 367.256 721.685 364.424C721.781 363.464 720.677 363.272 720.149 363.944ZM711.077 349.304C713.861 349.304 715.637 352.76 715.637 354.728C715.637 355.688 715.253 356.36 714.389 356.744L706.421 360.2C706.229 359.24 706.133 358.232 706.133 357.128C706.133 352.52 708.053 349.304 711.077 349.304ZM737.465 347.48C734.297 347.48 731.657 348.824 730.313 351.128L730.361 348.488C730.361 347.672 729.929 347.144 728.777 347.72L724.361 349.88C723.833 350.12 723.497 350.456 723.497 350.888V351.08C723.497 352.184 725.561 352.28 725.561 354.104V377.624C725.561 379.544 723.737 379.736 723.737 380.792V380.936C723.737 381.416 724.169 381.656 724.793 381.656H732.089C732.713 381.656 733.145 381.416 733.145 380.936V380.792C733.145 379.736 731.177 379.544 731.177 377.624V368.936C732.761 370.568 734.873 371.48 737.513 371.48C743.561 371.48 748.601 366.392 748.601 359.096C748.601 351.8 743.225 347.48 737.465 347.48ZM736.841 369.656C733.913 369.656 731.177 366.344 731.177 362.84V353.96C731.513 351.272 733.625 349.304 736.073 349.304C740.201 349.304 742.937 354.008 742.937 360.872C742.937 366.488 740.633 369.656 736.841 369.656ZM761.017 371.432C767.209 371.432 771.097 368.504 771.097 364.76C771.097 355.256 757.129 359.432 757.129 352.904C757.129 350.84 758.809 349.208 761.161 349.208C766.201 349.208 764.905 355.256 768.265 355.256C769.513 355.256 770.473 354.392 770.473 353.192C770.473 350.408 766.873 347.48 760.873 347.48C755.353 347.48 751.465 350.408 751.465 354.296C751.465 363.896 765.433 359.624 765.433 366.104C765.433 368.552 763.561 369.8 761.017 369.8C755.401 369.8 756.985 363.704 753.385 363.704C751.993 363.704 750.985 364.424 750.985 365.912C750.985 368.552 754.729 371.432 761.017 371.432Z" fill="#001064"/>
<path d="M414.108 66.0117H495.963C499.275 66.0117 502.019 68.5667 502.019 71.6895V225.073C502.019 228.195 499.37 230.75 495.963 230.75H376.445C373.133 230.75 370.389 228.195 370.389 225.073V98.2806C370.389 96.7665 371.051 95.3471 372.187 94.3062L400.481 67.7151C401.617 66.6741 403.131 66.1064 404.739 66.1064L414.108 66.0117Z" fill="#DEEAFF"/>
<path d="M380.352 33.3828H462.207C465.519 33.3828 468.263 35.9378 468.263 39.0606V192.444C468.263 195.567 465.614 198.122 462.207 198.122H342.689C339.377 198.122 336.633 195.567 336.633 192.444V65.6517C336.633 64.1376 337.295 62.7182 338.431 61.6772L366.725 35.0862C367.861 34.0452 369.375 33.4774 370.984 33.4774L380.352 33.3828Z" fill="#F5D8BE"/>
<path d="M347.815 3H429.67C432.982 3 435.726 5.55502 435.726 8.67781V162.061C435.726 165.184 433.077 167.739 429.67 167.739H310.152C306.84 167.739 304.096 165.184 304.096 162.061V35.2689C304.096 33.7548 304.758 32.3354 305.894 31.2944L334.188 4.70334C335.324 3.66241 336.838 3.09463 338.446 3.09463L347.815 3Z" fill="white" stroke="#001066" stroke-width="5.68399"/>
<path d="M335.701 3L335.796 27.2253C335.796 30.5374 332.957 33.2817 329.361 33.2817H304" fill="#001C63"/>
<rect x="325.154" y="93.1836" width="73.4819" height="16.7004" fill="#F5D8BE"/>
<rect x="388.186" y="131.75" width="29.6631" height="16.4094" fill="#00B478" fill-opacity="0.25"/>
<rect x="371.916" y="53.1016" width="45.6479" height="16.7004" fill="#CDE5F2"/>
<rect x="325.154" y="60.8945" width="38.9677" height="4.45345" fill="#001066"/>
<rect x="325.154" y="82.0469" width="57.8948" height="4.45345" fill="#001066"/>
<rect x="393.068" y="82.0469" width="24.494" height="4.45345" fill="#001066"/>
<rect x="406.43" y="99.8633" width="11.1336" height="4.45345" fill="#001066"/>
<rect x="325.154" y="118.789" width="92.4091" height="4.45345" fill="#001066"/>
<path d="M387.001 38C380.914 42.4417 365.58 48.2783 368.223 58.5556C371.704 72.0915 385.73 73 397.445 73C408.494 73 417.138 63.8365 410.945 53C406.851 45.8355 397.703 43.5763 390.279 41.6111C387.501 40.8758 379.501 40.6882 376.001 42" stroke="#001064" stroke-width="4" stroke-linecap="round" stroke-linejoin="round"/>
<path d="M334 142.637C344.385 142.637 354.771 142.702 365.155 142.626C368.161 142.604 371.203 142.584 374.193 142.213C374.458 142.181 375.157 142.197 374.968 142.009C374.433 141.476 373.61 141.08 373.005 140.644C371.149 139.305 369.312 137.94 367.456 136.6C367.424 136.576 366.502 135.933 366.473 136.006C366.353 136.305 366.55 136.917 366.606 137.175C367.188 139.881 368.023 142.535 368.839 145.179C369.119 146.086 369.298 147.036 369.598 147.933C369.662 148.124 369.681 147.852 369.689 147.797C369.808 147.031 370.416 146.289 370.867 145.697C371.534 144.82 372.383 143.823 373.305 143.182C373.645 142.945 374.014 142.518 374.193 142.16" stroke="#001064" stroke-width="3" stroke-linecap="round" stroke-linejoin="round"/>
</svg>
