<svg width="773" height="394" viewBox="0 0 773 394" fill="none" xmlns="http://www.w3.org/2000/svg">
<g clip-path="url(#clip0)">
<g filter="url(#filter0_d)">
<path d="M695.916 2H143.037C139.703 2 137 4.70303 137 8.03738V385.374C137 388.708 139.703 391.411 143.037 391.411H695.916C699.25 391.411 701.953 388.708 701.953 385.374V8.03738C701.953 4.70303 699.25 2 695.916 2Z" fill="#FAFAFA"/>
<path d="M695.915 1.69813H143.037C139.536 1.69813 136.698 4.53631 136.698 8.03738V385.374C136.698 388.875 139.536 391.713 143.037 391.713H695.915C699.416 391.713 702.254 388.875 702.254 385.374V8.03738C702.254 4.53631 699.416 1.69813 695.915 1.69813Z" stroke="#BCC5D9" stroke-opacity="0.6" stroke-width="0.603738"/>
</g>
<path d="M137 8.03738C137 4.70303 139.703 2 143.037 2H695.915C699.25 2 701.953 4.70303 701.953 8.03738V45.9976H137V8.03738Z" fill="white"/>
<path d="M702.703 45.9961H137V54.5329H702.703V45.9961Z" fill="url(#paint0_linear)" fill-opacity="0.4"/>
<path d="M411.963 78H171.037C167.703 78 165 80.703 165 84.0374V270.963C165 274.297 167.703 277 171.037 277H411.963C415.297 277 418 274.297 418 270.963V84.0374C418 80.703 415.297 78 411.963 78Z" fill="white"/>
<path d="M411.962 78.3019H171.038C167.87 78.3019 165.302 80.8698 165.302 84.0374V270.962C165.302 274.13 167.87 276.698 171.038 276.698H411.962C415.13 276.698 417.698 274.13 417.698 270.962V84.0374C417.698 80.8698 415.13 78.3019 411.962 78.3019Z" stroke="#BCC5D9" stroke-opacity="0.6" stroke-width="0.603738"/>
<path d="M673.963 78H433.037C429.703 78 427 80.703 427 84.0374V354.963C427 358.297 429.703 361 433.037 361H673.963C677.297 361 680 358.297 680 354.963V84.0374C680 80.703 677.297 78 673.963 78Z" fill="white"/>
<path d="M673.962 78.3019H433.038C429.87 78.3019 427.302 80.8698 427.302 84.0374V354.962C427.302 358.13 429.87 360.698 433.038 360.698H673.962C677.13 360.698 679.698 358.13 679.698 354.962V84.0374C679.698 80.8698 677.13 78.3019 673.962 78.3019Z" stroke="#BCC5D9" stroke-opacity="0.6" stroke-width="0.603738"/>
<path d="M392.711 103H190.289C187.92 103 186 104.92 186 107.289V171.711C186 174.08 187.92 176 190.289 176H392.711C395.08 176 397 174.08 397 171.711V107.289C397 104.92 395.08 103 392.711 103Z" fill="#E9ECF2"/>
<path fill-rule="evenodd" clip-rule="evenodd" d="M299.244 135.974C300.625 135.974 301.745 134.845 301.745 133.452C301.745 132.059 300.625 130.93 299.244 130.93C297.863 130.93 296.744 132.059 296.744 133.452C296.744 134.845 297.863 135.974 299.244 135.974ZM292.301 151.245H277.933C277.092 151.245 276.578 150.321 277.023 149.606L286.62 134.198C287.033 133.535 287.99 133.518 288.42 134.17C289.921 136.446 293 141.122 295.648 145.197L298.427 140.708C298.831 140.056 299.768 140.026 300.213 140.651L306.552 149.568C307.054 150.274 306.558 151.253 305.692 151.261L299.548 151.322L292.301 151.245Z" fill="#94A2AB"/>
<path d="M186 210.067C186 209.4 186.541 208.859 187.207 208.859H369.223C369.889 208.859 370.43 209.4 370.43 210.067V214.95C370.43 215.617 369.889 216.158 369.223 216.158H187.207C186.541 216.158 186 215.617 186 214.95V210.067Z" fill="#D3D9E6"/>
<path d="M403.1 197H187.209C186.543 197 186.002 197.541 186.002 198.207V203.091C186.002 203.758 186.543 204.299 187.209 204.299H403.1C403.766 204.299 404.307 203.758 404.307 203.091V198.207C404.307 197.541 403.766 197 403.1 197Z" fill="#BCC5D9"/>
<path d="M357.58 234.398H187.207C186.541 234.398 186 234.939 186 235.605V239.991C186 240.657 186.541 241.198 187.207 241.198H357.58C358.246 241.198 358.787 240.657 358.787 239.991V235.605C358.787 234.939 358.246 234.398 357.58 234.398Z" fill="#E0E7EC"/>
<path d="M395.667 223.066H187.207C186.541 223.066 186 223.607 186 224.273V228.659C186 229.325 186.541 229.866 187.207 229.866H395.667C396.333 229.866 396.874 229.325 396.874 228.659V224.273C396.874 223.607 396.333 223.066 395.667 223.066Z" fill="#E0E7EC"/>
<path d="M663 112.5H444C442.619 112.5 441.5 113.619 441.5 115V137C441.5 138.381 442.619 139.5 444 139.5H663C664.381 139.5 665.5 138.381 665.5 137V115C665.5 113.619 664.381 112.5 663 112.5Z" stroke="#D7DCE8"/>
<path d="M663 178.5H444C442.619 178.5 441.5 179.619 441.5 181V203C441.5 204.381 442.619 205.5 444 205.5H663C664.381 205.5 665.5 204.381 665.5 203V181C665.5 179.619 664.381 178.5 663 178.5Z" stroke="#D7DCE8"/>
<path d="M663 244.5H444C442.619 244.5 441.5 245.619 441.5 247V269C441.5 270.381 442.619 271.5 444 271.5H663C664.381 271.5 665.5 270.381 665.5 269V247C665.5 245.619 664.381 244.5 663 244.5Z" stroke="#D7DCE8"/>
<path d="M663 310.5H444C442.619 310.5 441.5 311.619 441.5 313V335C441.5 336.381 442.619 337.5 444 337.5H663C664.381 337.5 665.5 336.381 665.5 335V313C665.5 311.619 664.381 310.5 663 310.5Z" stroke="#D7DCE8"/>
<path d="M554 92H443C441.895 92 441 92.8954 441 94V101C441 102.105 441.895 103 443 103H554C555.105 103 556 102.105 556 101V94C556 92.8954 555.105 92 554 92Z" fill="#E0E7EC"/>
<path d="M554 158H443C441.895 158 441 158.895 441 160V167C441 168.105 441.895 169 443 169H554C555.105 169 556 168.105 556 167V160C556 158.895 555.105 158 554 158Z" fill="#E0E7EC"/>
<path d="M554 224H443C441.895 224 441 224.895 441 226V233C441 234.105 441.895 235 443 235H554C555.105 235 556 234.105 556 233V226C556 224.895 555.105 224 554 224Z" fill="#E0E7EC"/>
<path d="M554 290H443C441.895 290 441 290.895 441 292V299C441 300.105 441.895 301 443 301H554C555.105 301 556 300.105 556 299V292C556 290.895 555.105 290 554 290Z" fill="#E0E7EC"/>
<path d="M137 260H702V384.963C702 388.297 699.297 391 695.963 391H143.037C139.703 391 137 388.297 137 384.963V260Z" fill="url(#paint1_linear)"/>
<path d="M161.739 18.3444H154.876C154.598 18.3444 154.368 18.5656 154.368 18.836V32.1187C154.368 32.3891 154.59 32.6103 154.876 32.6103H164.897C165.174 32.6103 165.404 32.3891 165.404 32.1187V21.1388C165.404 21.0077 165.349 20.7454 165.254 20.6553L162.881 18.3525C162.786 18.2624 162.659 18.3526 162.524 18.3526L161.739 18.3444Z" fill="#001064"/>
<path d="M159.579 16.9219H152.52C152.235 16.9219 151.998 17.1257 151.998 17.3749V29.6135C151.998 29.8626 152.227 30.0665 152.52 30.0665H162.827C163.113 30.0665 163.35 29.8626 163.35 29.6135V19.4966C163.35 19.3758 163.292 19.2626 163.195 19.1795L160.755 17.0578C160.657 16.9747 160.526 16.9294 160.387 16.9294L159.579 16.9219Z" fill="white"/>
<path fill-rule="evenodd" clip-rule="evenodd" d="M159.609 16.2891H152.83C152.394 16.2891 151.998 16.6231 151.998 17.0777V29.5973C151.998 30.0486 152.383 30.3859 152.83 30.3859H162.725C163.161 30.3859 163.557 30.0518 163.557 29.5973V19.2481C163.557 19.0279 163.459 18.8276 163.303 18.6856L160.96 16.5149L160.958 16.5136C160.8 16.3708 160.595 16.2972 160.385 16.2968L159.609 16.2891ZM159.605 16.9394L160.381 16.9471H160.383C160.438 16.9471 160.482 16.9657 160.511 16.992L162.854 19.162L162.855 19.1634C162.886 19.1912 162.897 19.222 162.897 19.2481V29.5973C162.897 29.6525 162.838 29.7356 162.725 29.7356H152.83C152.712 29.7356 152.658 29.6557 152.658 29.5973V17.0777C152.658 17.0224 152.716 16.9394 152.83 16.9394H159.605Z" fill="#001066"/>
<path d="M160.798 16.7305L160.79 18.8055C160.79 19.0892 161.022 19.3243 161.316 19.3243H163.387" fill="#001C63"/>
<path d="M159.196 25.5858L158.558 23.8599C158.514 23.7421 158.545 23.6115 158.642 23.5244C158.926 23.2684 159.097 22.9022 159.084 22.5027C159.058 21.7832 158.435 21.2019 157.674 21.184C156.859 21.166 156.192 21.7832 156.192 22.5462C156.192 22.9303 156.361 23.276 156.631 23.5244C156.726 23.6115 156.757 23.7446 156.713 23.8624L156.057 25.5858C156.011 25.7035 156.105 25.829 156.238 25.829H159.012C159.145 25.8265 159.24 25.7035 159.196 25.5858Z" fill="#001064"/>
<path d="M170.924 22.6992C171.364 22.6992 171.652 22.4147 171.652 22.0109C171.652 21.6163 171.364 21.3227 170.924 21.3227C170.475 21.3227 170.178 21.6163 170.178 22.0109C170.178 22.4147 170.475 22.6992 170.924 22.6992ZM170.259 27.8656H171.625C171.741 27.8656 171.822 27.8105 171.822 27.7279V27.6912C171.822 27.4893 171.454 27.4526 171.454 27.0947V23.5618C171.454 23.4149 171.337 23.3048 171.13 23.4058L170.232 23.8646C170.133 23.9197 170.07 23.9564 170.07 24.0298V24.0573C170.07 24.2225 170.403 24.3143 170.403 24.6905V27.0947C170.403 27.4526 170.07 27.4893 170.07 27.6912V27.7279C170.07 27.8105 170.142 27.8656 170.259 27.8656Z" fill="#001064"/>
<path d="M180.706 21.3502H179.655C179.547 21.3502 179.475 21.3961 179.475 21.4879V21.5154C179.475 21.7173 179.915 21.754 179.799 22.1119L178.46 26.4799L177.103 22.1119C176.987 21.6989 177.454 21.6989 177.454 21.4971V21.4787C177.454 21.3961 177.391 21.3502 177.283 21.3502H175.702C175.594 21.3502 175.531 21.3961 175.531 21.4787V21.4971C175.531 21.6989 175.908 21.7448 176.025 22.1119L176.331 23.0479L175.154 26.4891L173.573 22.1211C173.438 21.7448 173.878 21.7173 173.878 21.5062V21.4787C173.878 21.4053 173.806 21.3502 173.689 21.3502H172.108C172 21.3502 171.928 21.3961 171.928 21.4787V21.4971C171.928 21.7173 172.261 21.6989 172.432 22.1211L174.561 27.5719C174.642 27.7738 174.75 27.8656 174.965 27.8656C175.127 27.8656 175.28 27.7738 175.351 27.5536L176.609 23.883L177.831 27.5719C177.903 27.7738 178.047 27.8656 178.235 27.8656C178.415 27.8656 178.595 27.783 178.667 27.5536L180.419 22.1119C180.553 21.7081 180.886 21.7081 180.886 21.5062V21.4787C180.886 21.4053 180.823 21.3502 180.706 21.3502Z" fill="#001064"/>
<path d="M182.012 22.6992C182.452 22.6992 182.74 22.4147 182.74 22.0109C182.74 21.6163 182.452 21.3227 182.012 21.3227C181.563 21.3227 181.266 21.6163 181.266 22.0109C181.266 22.4147 181.563 22.6992 182.012 22.6992ZM181.347 27.8656H182.713C182.829 27.8656 182.91 27.8105 182.91 27.7279V27.6912C182.91 27.4893 182.542 27.4526 182.542 27.0947V23.5618C182.542 23.4149 182.425 23.3048 182.218 23.4058L181.32 23.8646C181.221 23.9197 181.158 23.9564 181.158 24.0298V24.0573C181.158 24.2225 181.491 24.3143 181.491 24.6905V27.0947C181.491 27.4526 181.158 27.4893 181.158 27.6912V27.7279C181.158 27.8105 181.23 27.8656 181.347 27.8656Z" fill="#001064"/>
<path d="M183.608 27.8656H184.974C185.091 27.8656 185.172 27.8105 185.172 27.7279V27.7004C185.172 27.4893 184.803 27.4618 184.803 27.1039V21.1392C184.803 21.0015 184.686 20.8914 184.48 20.9923L183.572 21.4512C183.483 21.4971 183.42 21.5338 183.42 21.6163V21.6439C183.42 21.8091 183.752 21.8825 183.752 22.2679V27.1039C183.752 27.4618 183.42 27.4893 183.42 27.7004V27.7279C183.42 27.8105 183.492 27.8656 183.608 27.8656Z" fill="#001064"/>
<path d="M185.853 27.8656H187.219C187.336 27.8656 187.417 27.8105 187.417 27.7279V27.7004C187.417 27.4893 187.048 27.4618 187.048 27.1039V21.1392C187.048 21.0015 186.932 20.8914 186.725 20.9923L185.818 21.4512C185.728 21.4971 185.665 21.5338 185.665 21.6163V21.6439C185.665 21.8091 185.997 21.8825 185.997 22.2679V27.1039C185.997 27.4618 185.665 27.4893 185.665 27.7004V27.7279C185.665 27.8105 185.737 27.8656 185.853 27.8656Z" fill="#001064"/>
<path d="M189.752 27.9482C190.911 27.9482 191.638 27.3884 191.638 26.6726C191.638 24.8557 189.024 25.654 189.024 24.406C189.024 24.0114 189.338 23.6994 189.779 23.6994C190.722 23.6994 190.479 24.8557 191.108 24.8557C191.342 24.8557 191.522 24.6905 191.522 24.4611C191.522 23.9288 190.848 23.3691 189.725 23.3691C188.692 23.3691 187.964 23.9288 187.964 24.6721C187.964 26.5074 190.578 25.6907 190.578 26.9296C190.578 27.3976 190.228 27.6362 189.752 27.6362C188.7 27.6362 188.997 26.4707 188.323 26.4707C188.063 26.4707 187.874 26.6084 187.874 26.8929C187.874 27.3976 188.575 27.9482 189.752 27.9482Z" fill="#001064"/>
<path d="M688.724 22.6406H663.367V26.263H688.724V22.6406Z" fill="#E9ECF3"/>
<path d="M696.703 1H143C139.134 1 136 4.13401 136 8V385.411C136 389.277 139.134 392.411 143 392.411H696.703C700.569 392.411 703.703 389.277 703.703 385.411V8C703.703 4.13401 700.569 1 696.703 1Z" stroke="#001064" stroke-width="2"/>
<path d="M710.814 49.9297H664.07C650.776 49.9297 640 60.7061 640 73.9995C640 87.2928 650.776 98.0692 664.07 98.0692H710.814C724.107 98.0692 734.884 87.2928 734.884 73.9995C734.884 60.7061 724.107 49.9297 710.814 49.9297Z" fill="#001064"/>
<path d="M708.024 91.7893C718.235 91.7893 726.512 83.5118 726.512 73.3009C726.512 63.09 718.235 54.8125 708.024 54.8125C697.813 54.8125 689.536 63.09 689.536 73.3009C689.536 83.5118 697.813 91.7893 708.024 91.7893Z" fill="white"/>
<path d="M725.814 45.7442C729.245 40.6799 733.866 36.4374 738.19 32.2691C739.182 31.313 741.667 28.0089 741.072 29.292" stroke="#F5D8BE" stroke-width="3.48837" stroke-linecap="round" stroke-linejoin="round"/>
<path d="M739.768 56.9072C744.858 56.3154 749.4 52.83 754.049 50.6692C755.522 49.9849 757.062 48.9637 758.605 48.5352" stroke="#F5D8BE" stroke-width="3.48837" stroke-linecap="round" stroke-linejoin="round"/>
<path d="M746.746 73.6523C752.56 73.6523 758.374 73.6523 764.188 73.6523" stroke="#F5D8BE" stroke-width="3.48837" stroke-linecap="round" stroke-linejoin="round"/>
<path d="M742.559 91.0938C746.918 93.5814 750.645 97.2532 754.409 100.569C755.575 101.597 756.831 102.563 757.907 103.652" stroke="#F5D8BE" stroke-width="3.48837" stroke-linecap="round" stroke-linejoin="round"/>
<path d="M725.117 103.652C725.851 107.686 728.008 110.826 729.493 114.48C730.14 116.071 731.584 117.344 732.094 119.001" stroke="#F5D8BE" stroke-width="3.48837" stroke-linecap="round" stroke-linejoin="round"/>
<g filter="url(#filter1_d)">
<path d="M522 265H22C16.4772 265 12 269.477 12 275V330C12 335.523 16.4772 340 22 340H522C527.523 340 532 335.523 532 330V275C532 269.477 527.523 265 522 265Z" fill="#EEF3FF"/>
<path d="M522 265.625H22C16.8223 265.625 12.625 269.822 12.625 275V330C12.625 335.178 16.8223 339.375 22 339.375H522C527.178 339.375 531.375 335.178 531.375 330V275C531.375 269.822 527.178 265.625 522 265.625Z" stroke="#BCC5D9" stroke-opacity="0.6" stroke-width="1.25"/>
<path d="M33.8 309.5H37.54C42.54 309.5 44.82 306.36 44.82 302.4V302.22C44.82 298.24 42.5 295.2 37.58 295.2H33.8V309.5ZM35.54 308.08V296.6H37.48C41.42 296.6 43.02 298.92 43.02 302.22V302.38C43.02 305.88 41.18 308.08 37.5 308.08H35.54ZM51.3208 309.68C54.3008 309.68 56.4808 307.5 56.4808 304.34V304.18C56.4808 301.04 54.3008 298.86 51.3408 298.86C48.3808 298.86 46.2008 301.06 46.2008 304.2V304.36C46.2008 307.42 48.3408 309.68 51.3208 309.68ZM51.3408 308.3C49.2208 308.3 47.9208 306.74 47.9208 304.36V304.2C47.9208 301.8 49.2408 300.24 51.3408 300.24C53.4208 300.24 54.7608 301.8 54.7608 304.22V304.36C54.7608 306.72 53.4408 308.3 51.3408 308.3ZM64.0341 313.14H65.7141L71.4941 299.04H69.7941L66.8941 306.54L63.6941 299.04H61.9141L66.0141 308.42L64.0341 313.14ZM77.102 309.68C80.082 309.68 82.262 307.5 82.262 304.34V304.18C82.262 301.04 80.082 298.86 77.122 298.86C74.162 298.86 71.982 301.06 71.982 304.2V304.36C71.982 307.42 74.122 309.68 77.102 309.68ZM77.122 308.3C75.002 308.3 73.702 306.74 73.702 304.36V304.2C73.702 301.8 75.022 300.24 77.122 300.24C79.202 300.24 80.542 301.8 80.542 304.22V304.36C80.542 306.72 79.222 308.3 77.122 308.3ZM87.7473 309.68C89.4273 309.68 90.5873 308.82 91.0673 307.84V309.5H92.7273V299.04H91.0673V305.38C91.0673 307.26 89.6673 308.24 88.1873 308.24C86.5473 308.24 85.7673 307.42 85.7673 305.58V299.04H84.1073V305.66C84.1073 308.54 85.6673 309.68 87.7473 309.68ZM102.225 309.5H104.045L106.485 301.66L108.665 309.5H110.505L113.765 299.04H112.065L109.605 307.46L107.225 299.04H105.785L103.245 307.46L100.805 299.04H99.0053L102.225 309.5ZM117.804 309.68C119.344 309.68 120.284 309.16 121.064 308.18V309.5H122.724V302.6C122.724 299.68 120.904 298.86 118.904 298.86C116.884 298.86 114.984 299.74 114.764 302.12H116.424C116.584 300.84 117.384 300.24 118.824 300.24C120.424 300.24 121.064 300.94 121.064 302.6V303.36H119.564C116.884 303.36 114.324 304.18 114.324 306.6C114.324 308.74 115.864 309.68 117.804 309.68ZM117.964 308.36C116.504 308.36 115.984 307.68 115.984 306.6C115.984 305.06 117.524 304.54 119.624 304.54H121.064V305.84C121.064 307.46 119.724 308.36 117.964 308.36ZM125.36 309.5H127.02V303.16C127.02 301.28 128.4 300.3 129.94 300.3C131.62 300.3 132.4 301.12 132.4 302.96V309.5H134.06V303.08C134.06 300.04 132.54 298.86 130.38 298.86C128.66 298.86 127.5 299.72 127.02 300.7V299.04H125.36V309.5ZM139.868 309.64C140.548 309.64 140.948 309.54 141.288 309.42V308.02C140.928 308.16 140.528 308.24 140.008 308.24C139.168 308.24 138.708 307.74 138.708 306.72V300.44H141.148V299.04H138.708V296.66H137.048V299.04H135.548V300.44H137.048V306.88C137.048 308.52 137.968 309.64 139.868 309.64ZM151.02 309.64C151.7 309.64 152.1 309.54 152.44 309.42V308.02C152.08 308.16 151.68 308.24 151.16 308.24C150.32 308.24 149.86 307.74 149.86 306.72V300.44H152.3V299.04H149.86V296.66H148.2V299.04H146.7V300.44H148.2V306.88C148.2 308.52 149.12 309.64 151.02 309.64ZM158.665 309.68C161.645 309.68 163.825 307.5 163.825 304.34V304.18C163.825 301.04 161.645 298.86 158.685 298.86C155.725 298.86 153.545 301.06 153.545 304.2V304.36C153.545 307.42 155.685 309.68 158.665 309.68ZM158.685 308.3C156.565 308.3 155.265 306.74 155.265 304.36V304.2C155.265 301.8 156.585 300.24 158.685 300.24C160.765 300.24 162.105 301.8 162.105 304.22V304.36C162.105 306.72 160.785 308.3 158.685 308.3ZM171.278 296.86C171.878 296.86 172.378 296.36 172.378 295.76C172.378 295.16 171.878 294.66 171.278 294.66C170.678 294.66 170.178 295.16 170.178 295.76C170.178 296.36 170.678 296.86 171.278 296.86ZM170.478 309.5H172.138V299.04H170.478V309.5ZM174.91 309.5H176.57V303.16C176.57 301.28 177.95 300.3 179.49 300.3C181.17 300.3 181.95 301.12 181.95 302.96V309.5H183.61V303.08C183.61 300.04 182.09 298.86 179.93 298.86C178.21 298.86 177.05 299.72 176.57 300.7V299.04H174.91V309.5ZM190.579 309.68C193.099 309.68 194.919 308 195.139 305.74H193.599C193.419 307.44 192.079 308.3 190.599 308.3C188.579 308.3 187.179 306.94 187.179 304.38V304.22C187.179 301.76 188.639 300.24 190.539 300.24C191.979 300.24 193.179 300.86 193.439 302.52H195.079C194.759 299.86 192.719 298.86 190.539 298.86C187.739 298.86 185.459 301.02 185.459 304.22V304.38C185.459 307.62 187.659 309.68 190.579 309.68ZM197.06 309.5H198.74V294.04H197.06V309.5ZM205.052 309.68C206.732 309.68 207.892 308.82 208.372 307.84V309.5H210.032V299.04H208.372V305.38C208.372 307.26 206.972 308.24 205.492 308.24C203.852 308.24 203.072 307.42 203.072 305.58V299.04H201.412V305.66C201.412 308.54 202.972 309.68 205.052 309.68ZM216.702 309.68C218.222 309.68 219.682 308.72 220.282 307.7V309.5H221.942V294.04H220.282V300.72C219.682 299.7 218.602 298.86 216.862 298.86C213.982 298.86 211.982 301.12 211.982 304.32V304.48C211.982 307.74 213.962 309.68 216.702 309.68ZM216.882 308.3C215.122 308.3 213.702 307.04 213.702 304.4V304.24C213.702 301.7 214.942 300.24 217.022 300.24C219.062 300.24 220.342 301.5 220.342 304.18V304.34C220.342 307.02 218.822 308.3 216.882 308.3ZM228.956 309.68C231.316 309.68 233.056 308.58 233.416 306.48H231.756C231.536 307.7 230.596 308.3 228.976 308.3C226.836 308.3 225.696 306.98 225.616 304.6H233.496V304.06C233.496 300.32 231.216 298.86 228.796 298.86C225.916 298.86 223.896 301.06 223.896 304.22V304.38C223.896 307.6 225.996 309.68 228.956 309.68ZM225.676 303.26C225.956 301.4 227.096 300.24 228.796 300.24C230.516 300.24 231.636 301.1 231.796 303.26H225.676ZM240.086 309.5H241.746V303.1C241.746 301.22 243.146 300.3 244.506 300.3C245.946 300.3 246.726 301.06 246.726 302.9V309.5H248.386V303.1C248.386 301.22 249.786 300.3 251.146 300.3C252.586 300.3 253.366 301.06 253.366 302.9V309.5H255.026V303.02C255.026 299.98 253.386 298.86 251.506 298.86C250.206 298.86 248.646 299.46 247.926 300.82C247.386 299.42 246.206 298.86 244.866 298.86C243.366 298.86 242.226 299.66 241.746 300.64V299.04H240.086V309.5ZM262.004 309.68C264.984 309.68 267.164 307.5 267.164 304.34V304.18C267.164 301.04 264.984 298.86 262.024 298.86C259.064 298.86 256.884 301.06 256.884 304.2V304.36C256.884 307.42 259.024 309.68 262.004 309.68ZM262.024 308.3C259.904 308.3 258.604 306.74 258.604 304.36V304.2C258.604 301.8 259.924 300.24 262.024 300.24C264.104 300.24 265.444 301.8 265.444 304.22V304.36C265.444 306.72 264.124 308.3 262.024 308.3ZM269.11 309.5H270.77V303.76C270.77 301.18 272.11 300.52 274.21 300.42V298.86C272.33 298.92 271.43 299.74 270.77 300.92V299.04H269.11V309.5ZM279.991 309.68C282.351 309.68 284.091 308.58 284.451 306.48H282.791C282.571 307.7 281.631 308.3 280.011 308.3C277.871 308.3 276.731 306.98 276.651 304.6H284.531V304.06C284.531 300.32 282.251 298.86 279.831 298.86C276.951 298.86 274.931 301.06 274.931 304.22V304.38C274.931 307.6 277.031 309.68 279.991 309.68ZM276.711 303.26C276.991 301.4 278.131 300.24 279.831 300.24C281.551 300.24 282.671 301.1 282.831 303.26H276.711ZM295.061 309.68C296.581 309.68 298.041 308.72 298.641 307.7V309.5H300.301V294.04H298.641V300.72C298.041 299.7 296.961 298.86 295.221 298.86C292.341 298.86 290.341 301.12 290.341 304.32V304.48C290.341 307.74 292.321 309.68 295.061 309.68ZM295.241 308.3C293.481 308.3 292.061 307.04 292.061 304.4V304.24C292.061 301.7 293.301 300.24 295.381 300.24C297.421 300.24 298.701 301.5 298.701 304.18V304.34C298.701 307.02 297.181 308.3 295.241 308.3ZM307.315 309.68C309.675 309.68 311.415 308.58 311.775 306.48H310.115C309.895 307.7 308.955 308.3 307.335 308.3C305.195 308.3 304.055 306.98 303.975 304.6H311.855V304.06C311.855 300.32 309.575 298.86 307.155 298.86C304.275 298.86 302.255 301.06 302.255 304.22V304.38C302.255 307.6 304.355 309.68 307.315 309.68ZM304.035 303.26C304.315 301.4 305.455 300.24 307.155 300.24C308.875 300.24 309.995 301.1 310.155 303.26H304.035ZM316.958 309.64C317.638 309.64 318.038 309.54 318.378 309.42V308.02C318.018 308.16 317.618 308.24 317.098 308.24C316.258 308.24 315.798 307.74 315.798 306.72V300.44H318.238V299.04H315.798V296.66H314.138V299.04H312.638V300.44H314.138V306.88C314.138 308.52 315.058 309.64 316.958 309.64ZM322.98 309.68C324.52 309.68 325.46 309.16 326.24 308.18V309.5H327.9V302.6C327.9 299.68 326.08 298.86 324.08 298.86C322.06 298.86 320.16 299.74 319.94 302.12H321.6C321.76 300.84 322.56 300.24 324 300.24C325.6 300.24 326.24 300.94 326.24 302.6V303.36H324.74C322.06 303.36 319.5 304.18 319.5 306.6C319.5 308.74 321.04 309.68 322.98 309.68ZM323.14 308.36C321.68 308.36 321.16 307.68 321.16 306.6C321.16 305.06 322.7 304.54 324.8 304.54H326.24V305.84C326.24 307.46 324.9 308.36 323.14 308.36ZM331.375 296.86C331.975 296.86 332.475 296.36 332.475 295.76C332.475 295.16 331.975 294.66 331.375 294.66C330.775 294.66 330.275 295.16 330.275 295.76C330.275 296.36 330.775 296.86 331.375 296.86ZM330.575 309.5H332.235V299.04H330.575V309.5ZM335.048 309.5H336.728V294.04H335.048V309.5ZM342.74 309.68C345.28 309.68 346.58 308.4 346.58 306.5C346.58 304.28 345.06 303.8 342.9 303.4C340.98 303.06 340.46 302.68 340.46 301.74C340.46 300.84 341.24 300.24 342.44 300.24C343.76 300.24 344.4 300.74 344.64 301.88H346.24C345.96 299.62 344.34 298.86 342.46 298.86C340.82 298.86 338.92 299.86 338.92 301.8C338.92 303.62 339.84 304.38 342.56 304.88C344.18 305.18 345 305.54 345 306.64C345 307.76 344.3 308.3 342.72 308.3C341.04 308.3 340.38 307.52 340.26 306.28H338.64C338.74 308.42 340.24 309.68 342.74 309.68ZM349.994 305.46H351.474V304.6C351.474 303.38 352.334 302.54 353.234 301.68C354.194 300.76 355.194 299.82 355.194 298.34C355.194 296.66 354.114 295.02 351.394 295.02C348.954 295.02 347.294 296.66 347.154 299H348.714C348.854 297.42 349.874 296.4 351.374 296.4C352.854 296.4 353.514 297.22 353.514 298.4C353.514 299.36 352.834 300.08 352.054 300.86C351.054 301.84 349.994 302.84 349.994 304.46V305.46ZM350.694 309.6C351.394 309.6 351.974 309.04 351.974 308.32C351.974 307.6 351.394 307.04 350.694 307.04C349.994 307.04 349.414 307.6 349.414 308.32C349.414 309.04 349.994 309.6 350.694 309.6Z" fill="#001064"/>
<path d="M378.25 311.875C383.428 311.875 387.625 307.678 387.625 302.5C387.625 297.322 383.428 293.125 378.25 293.125C373.072 293.125 368.875 297.322 368.875 302.5C368.875 307.678 373.072 311.875 378.25 311.875Z" stroke="#001064" stroke-width="1.875" stroke-linecap="round" stroke-linejoin="round"/>
<path d="M378.25 306.25V302.5" stroke="#001064" stroke-width="1.875" stroke-linecap="round" stroke-linejoin="round"/>
<path d="M378.25 298.75H378.26" stroke="#001064" stroke-width="1.875" stroke-linecap="round" stroke-linejoin="round"/>
<path d="M494.5 285H464.5C454.835 285 447 292.835 447 302.5C447 312.165 454.835 320 464.5 320H494.5C504.165 320 512 312.165 512 302.5C512 292.835 504.165 285 494.5 285Z" fill="#00199E"/>
<path d="M507 302.5C507 295.596 501.404 290 494.5 290C487.596 290 482 295.596 482 302.5C482 309.404 487.596 315 494.5 315C501.404 315 507 309.404 507 302.5Z" fill="white"/>
</g>
<path d="M759.683 211.836H596.179C593.319 211.836 591 214.155 591 217.015V276.942C591 279.802 593.319 282.121 596.179 282.121H759.683C762.543 282.121 764.862 279.802 764.862 276.942V217.015C764.862 214.155 762.543 211.836 759.683 211.836Z" fill="#001064"/>
<path d="M767.821 201.48H604.317C602.274 201.48 600.618 203.136 600.618 205.179V265.106C600.618 267.149 602.274 268.805 604.317 268.805H767.821C769.864 268.805 771.52 267.149 771.52 265.106V205.179C771.52 203.136 769.864 201.48 767.821 201.48Z" fill="white" stroke="#001064" stroke-width="2.95935"/>
<path d="M627.604 229.535H633.783V228.137H629.375V225.354H632.731V224.022H629.375V221.412H633.556V220.013H627.604V229.535ZM634.25 229.535H635.928L637.593 227.018L639.218 229.535H641.095L638.605 225.846L640.856 222.57H639.164L637.726 224.821L636.275 222.57H634.41L636.674 225.966L634.25 229.535ZM641.96 231.919H643.571V228.443C643.944 229.122 644.743 229.668 645.848 229.668C647.646 229.668 648.938 228.31 648.938 226.073V225.966C648.938 223.716 647.593 222.424 645.848 222.424C644.823 222.424 643.957 223.023 643.571 223.689V222.57H641.96V231.919ZM645.449 228.39C644.277 228.39 643.518 227.657 643.518 226.099V225.993C643.518 224.448 644.317 223.689 645.435 223.689C646.487 223.689 647.286 224.448 647.286 225.993V226.099C647.286 227.591 646.634 228.39 645.449 228.39ZM650.017 229.535H651.628V225.913C651.628 224.435 652.48 223.982 653.892 223.969V222.464C652.72 222.477 652.068 222.996 651.628 223.875V222.57H650.017V229.535ZM657.86 229.668C659.644 229.668 660.829 228.869 661.056 227.404H659.498C659.378 228.084 658.872 228.47 657.9 228.47C656.701 228.47 656.035 227.724 655.982 226.406H661.083V225.94C661.083 223.449 659.524 222.424 657.793 222.424C655.809 222.424 654.331 223.862 654.331 226.019V226.126C654.331 228.323 655.809 229.668 657.86 229.668ZM656.009 225.327C656.169 224.248 656.821 223.596 657.793 223.596C658.792 223.596 659.405 224.128 659.484 225.327H656.009ZM664.601 229.668C666.385 229.668 667.384 228.856 667.384 227.444C667.384 225.966 666.412 225.567 664.774 225.314C663.668 225.127 663.336 224.927 663.336 224.421C663.336 223.929 663.748 223.596 664.441 223.596C665.187 223.596 665.546 223.889 665.679 224.528H667.171C666.998 222.957 665.866 222.424 664.441 222.424C663.136 222.424 661.831 223.116 661.831 224.515C661.831 225.82 662.51 226.339 664.348 226.632C665.373 226.805 665.839 227.018 665.839 227.591C665.839 228.177 665.453 228.483 664.587 228.483C663.642 228.483 663.282 228.07 663.202 227.364H661.684C661.751 228.843 662.803 229.668 664.601 229.668ZM670.824 229.668C672.609 229.668 673.608 228.856 673.608 227.444C673.608 225.966 672.635 225.567 670.997 225.314C669.892 225.127 669.559 224.927 669.559 224.421C669.559 223.929 669.972 223.596 670.664 223.596C671.41 223.596 671.77 223.889 671.903 224.528H673.394C673.221 222.957 672.089 222.424 670.664 222.424C669.359 222.424 668.054 223.116 668.054 224.515C668.054 225.82 668.733 226.339 670.571 226.632C671.597 226.805 672.063 227.018 672.063 227.591C672.063 228.177 671.677 228.483 670.811 228.483C669.865 228.483 669.506 228.07 669.426 227.364H667.908C667.974 228.843 669.026 229.668 670.824 229.668ZM680.065 229.668C681.09 229.668 681.982 229.056 682.355 228.363V229.535H683.966V219.348H682.355V223.636C681.969 222.943 681.263 222.424 680.131 222.424C678.32 222.424 677.002 223.835 677.002 226.059V226.166C677.002 228.43 678.32 229.668 680.065 229.668ZM680.464 228.39C679.425 228.39 678.653 227.657 678.653 226.126V226.019C678.653 224.515 679.345 223.689 680.531 223.689C681.703 223.689 682.408 224.448 682.408 225.979V226.086C682.408 227.644 681.583 228.39 680.464 228.39ZM688.615 229.668C690.665 229.668 692.197 228.257 692.197 226.086V225.979C692.197 223.849 690.665 222.424 688.628 222.424C686.577 222.424 685.046 223.862 685.046 226.019V226.126C685.046 228.243 686.564 229.668 688.615 229.668ZM688.628 228.417C687.403 228.417 686.697 227.524 686.697 226.099V225.993C686.697 224.555 687.429 223.689 688.628 223.689C689.826 223.689 690.546 224.568 690.546 226.006V226.099C690.546 227.524 689.826 228.417 688.628 228.417ZM696.332 229.668C698.223 229.668 699.435 228.536 699.555 226.938H698.077C697.984 227.924 697.251 228.43 696.399 228.43C695.214 228.43 694.468 227.631 694.468 226.113V226.006C694.468 224.568 695.254 223.716 696.359 223.716C697.211 223.716 697.824 224.102 697.957 225.034H699.515C699.329 223.116 697.877 222.424 696.332 222.424C694.388 222.424 692.817 223.822 692.817 226.033V226.139C692.817 228.363 694.335 229.668 696.332 229.668ZM702.903 229.668C704.035 229.668 704.768 229.122 705.114 228.443V229.535H706.725V222.57H705.114V226.712C705.114 227.817 704.355 228.377 703.489 228.377C702.557 228.377 702.118 227.897 702.118 226.845V222.57H700.506V227.032C700.506 228.883 701.532 229.668 702.903 229.668ZM708.266 229.535H709.877V225.367C709.877 224.302 710.61 223.769 711.409 223.769C712.195 223.769 712.647 224.208 712.647 225.234V229.535H714.259V225.367C714.259 224.302 714.991 223.769 715.79 223.769C716.589 223.769 717.029 224.208 717.029 225.234V229.535H718.64V225.127C718.64 223.21 717.601 222.424 716.323 222.424C715.457 222.424 714.498 222.81 713.966 223.676C713.619 222.81 712.9 222.424 711.995 222.424C710.969 222.424 710.21 222.983 709.877 223.636V222.57H708.266V229.535ZM723.184 229.668C724.968 229.668 726.153 228.869 726.38 227.404H724.822C724.702 228.084 724.196 228.47 723.224 228.47C722.025 228.47 721.359 227.724 721.306 226.406H726.406V225.94C726.406 223.449 724.848 222.424 723.117 222.424C721.133 222.424 719.655 223.862 719.655 226.019V226.126C719.655 228.323 721.133 229.668 723.184 229.668ZM721.333 225.327C721.492 224.248 722.145 223.596 723.117 223.596C724.116 223.596 724.728 224.128 724.808 225.327H721.333ZM727.476 229.535H729.087V225.433C729.087 224.328 729.82 223.769 730.725 223.769C731.684 223.769 732.11 224.248 732.11 225.3V229.535H733.721V225.154C733.721 223.236 732.736 222.424 731.338 222.424C730.192 222.424 729.42 222.996 729.087 223.676V222.57H727.476V229.535ZM737.578 229.655C738.071 229.655 738.417 229.575 738.67 229.482V228.203C738.444 228.297 738.204 228.337 737.885 228.337C737.379 228.337 737.086 228.057 737.086 227.444V223.782H738.617V222.57H737.086V221.039H735.474V222.57H734.542V223.782H735.474V227.591C735.474 228.909 736.193 229.655 737.578 229.655ZM629.841 249.655C630.334 249.655 630.68 249.575 630.933 249.482V248.203C630.707 248.297 630.467 248.337 630.147 248.337C629.641 248.337 629.348 248.057 629.348 247.444V243.782H630.88V242.57H629.348V241.039H627.737V242.57H626.805V243.782H627.737V247.591C627.737 248.909 628.456 249.655 629.841 249.655ZM635.119 249.668C637.17 249.668 638.702 248.257 638.702 246.086V245.979C638.702 243.849 637.17 242.424 635.133 242.424C633.082 242.424 631.55 243.862 631.55 246.019V246.126C631.55 248.243 633.069 249.668 635.119 249.668ZM635.133 248.417C633.908 248.417 633.202 247.524 633.202 246.099V245.993C633.202 244.555 633.934 243.689 635.133 243.689C636.331 243.689 637.05 244.568 637.05 246.006V246.099C637.05 247.524 636.331 248.417 635.133 248.417ZM642.757 252.092C644.915 252.092 646.286 251.067 646.3 249.016V242.57H644.688V243.636C644.289 242.943 643.596 242.424 642.451 242.424C640.653 242.424 639.322 243.889 639.322 245.846V245.94C639.322 247.95 640.667 249.255 642.411 249.255C643.437 249.255 644.302 248.63 644.688 247.964V248.989C644.688 250.241 643.996 250.867 642.744 250.867C641.692 250.867 641.159 250.467 641.026 249.775H639.401C639.588 251.107 640.573 252.092 642.757 252.092ZM642.811 248.017C641.772 248.017 640.973 247.218 640.973 245.926V245.82C640.973 244.555 641.665 243.689 642.864 243.689C644.023 243.689 644.742 244.475 644.742 245.793V245.886C644.742 247.218 643.929 248.017 642.811 248.017ZM650.815 252.092C652.972 252.092 654.344 251.067 654.357 249.016V242.57H652.746V243.636C652.346 242.943 651.654 242.424 650.508 242.424C648.711 242.424 647.379 243.889 647.379 245.846V245.94C647.379 247.95 648.724 249.255 650.468 249.255C651.494 249.255 652.359 248.63 652.746 247.964V248.989C652.746 250.241 652.053 250.867 650.801 250.867C649.749 250.867 649.217 250.467 649.083 249.775H647.459C647.645 251.107 648.631 252.092 650.815 252.092ZM650.868 248.017C649.829 248.017 649.03 247.218 649.03 245.926V245.82C649.03 244.555 649.723 243.689 650.921 243.689C652.08 243.689 652.799 244.475 652.799 245.793V245.886C652.799 247.218 651.987 248.017 650.868 248.017ZM655.942 249.535H657.554V239.348H655.942V249.535ZM662.211 249.668C663.995 249.668 665.18 248.869 665.407 247.404H663.849C663.729 248.084 663.223 248.47 662.251 248.47C661.052 248.47 660.386 247.724 660.333 246.406H665.433V245.94C665.433 243.449 663.875 242.424 662.144 242.424C660.16 242.424 658.682 243.862 658.682 246.019V246.126C658.682 248.323 660.16 249.668 662.211 249.668ZM660.36 245.327C660.519 244.248 661.172 243.596 662.144 243.596C663.143 243.596 663.755 244.128 663.835 245.327H660.36ZM670.057 249.535H671.162V243.503H672.867V242.57H671.162V241.319C671.162 240.613 671.455 240.12 672.174 240.12C672.48 240.12 672.76 240.187 672.96 240.266V239.334C672.68 239.241 672.494 239.201 672.134 239.201C670.749 239.201 670.057 240.027 670.057 241.438V242.57H669.058V243.503H670.057V249.535ZM676.602 249.655C678.587 249.655 680.038 248.203 680.038 246.099V245.993C680.038 243.902 678.587 242.45 676.616 242.45C674.645 242.45 673.193 243.915 673.193 246.006V246.113C673.193 248.15 674.618 249.655 676.602 249.655ZM676.616 248.736C675.204 248.736 674.339 247.697 674.339 246.113V246.006C674.339 244.408 675.218 243.369 676.616 243.369C678.001 243.369 678.893 244.408 678.893 246.019V246.113C678.893 247.684 678.014 248.736 676.616 248.736ZM681.38 249.535H682.485V245.713C682.485 243.995 683.377 243.556 684.776 243.489V242.45C683.524 242.49 682.925 243.036 682.485 243.822V242.57H681.38V249.535ZM694.178 251.959H695.284V242.57H694.178V243.689C693.779 243.01 693.06 242.45 691.901 242.45C689.984 242.45 688.652 243.955 688.652 246.086V246.193C688.652 248.363 689.97 249.655 691.795 249.655C692.807 249.655 693.779 249.016 694.178 248.337V251.959ZM691.915 248.736C690.743 248.736 689.797 247.897 689.797 246.139V246.033C689.797 244.341 690.623 243.369 692.008 243.369C693.366 243.369 694.218 244.208 694.218 245.993V246.099C694.218 247.884 693.206 248.736 691.915 248.736ZM699.508 249.655C700.626 249.655 701.399 249.082 701.718 248.43V249.535H702.824V242.57H701.718V246.792C701.718 248.044 700.786 248.696 699.801 248.696C698.709 248.696 698.189 248.15 698.189 246.925V242.57H697.084V246.978C697.084 248.896 698.123 249.655 699.508 249.655ZM705.247 241.119C705.646 241.119 705.979 240.786 705.979 240.386C705.979 239.987 705.646 239.654 705.247 239.654C704.847 239.654 704.514 239.987 704.514 240.386C704.514 240.786 704.847 241.119 705.247 241.119ZM704.714 249.535H705.82V242.57H704.714V249.535ZM710.602 249.655C712.28 249.655 713.492 248.536 713.638 247.032H712.613C712.493 248.163 711.601 248.736 710.615 248.736C709.27 248.736 708.338 247.831 708.338 246.126V246.019C708.338 244.381 709.31 243.369 710.575 243.369C711.534 243.369 712.333 243.782 712.506 244.887H713.598C713.385 243.116 712.027 242.45 710.575 242.45C708.711 242.45 707.193 243.889 707.193 246.019V246.126C707.193 248.283 708.657 249.655 710.602 249.655ZM714.937 249.535H716.042V245.926L719.132 249.535H720.477L717.241 245.806L720.224 242.57H718.932L716.042 245.78V239.241H714.937V249.535ZM726.399 249.535H727.451L729.675 242.011L731.833 249.535H732.898L735.375 240.013H734.296L732.339 247.724L730.101 240.013H729.276L727.038 247.697L725.107 240.013H723.922L726.399 249.535ZM737.002 241.119C737.402 241.119 737.735 240.786 737.735 240.386C737.735 239.987 737.402 239.654 737.002 239.654C736.603 239.654 736.27 239.987 736.27 240.386C736.27 240.786 736.603 241.119 737.002 241.119ZM736.469 249.535H737.575V242.57H736.469V249.535ZM739.494 249.535H740.612V239.241H739.494V249.535ZM742.531 249.535H743.65V239.241H742.531V249.535Z" fill="#001064"/>
</g>
<defs>
<filter id="filter0_d" x="127.34" y="-5.24487" width="584.272" height="408.731" filterUnits="userSpaceOnUse" color-interpolation-filters="sRGB">
<feFlood flood-opacity="0" result="BackgroundImageFix"/>
<feColorMatrix in="SourceAlpha" type="matrix" values="0 0 0 0 0 0 0 0 0 0 0 0 0 0 0 0 0 0 127 0"/>
<feOffset dy="2.41495"/>
<feGaussianBlur stdDeviation="4.52804"/>
<feColorMatrix type="matrix" values="0 0 0 0 0.736667 0 0 0 0 0.774444 0 0 0 0 0.85 0 0 0 0.6 0"/>
<feBlend mode="normal" in2="BackgroundImageFix" result="effect1_dropShadow"/>
<feBlend mode="normal" in="SourceGraphic" in2="effect1_dropShadow" result="shape"/>
</filter>
<filter id="filter1_d" x="0.8125" y="265" width="542.375" height="97.8411" filterUnits="userSpaceOnUse" color-interpolation-filters="sRGB">
<feFlood flood-opacity="0" result="BackgroundImageFix"/>
<feColorMatrix in="SourceAlpha" type="matrix" values="0 0 0 0 0 0 0 0 0 0 0 0 0 0 0 0 0 0 127 0"/>
<feOffset dy="11.6536"/>
<feGaussianBlur stdDeviation="5.59375"/>
<feColorMatrix type="matrix" values="0 0 0 0 0.736667 0 0 0 0 0.774444 0 0 0 0 0.85 0 0 0 0.8 0"/>
<feBlend mode="normal" in2="BackgroundImageFix" result="effect1_dropShadow"/>
<feBlend mode="normal" in="SourceGraphic" in2="effect1_dropShadow" result="shape"/>
</filter>
<linearGradient id="paint0_linear" x1="419.851" y1="45.9961" x2="419.851" y2="54.5329" gradientUnits="userSpaceOnUse">
<stop stop-color="#BCC5D9" stop-opacity="0.6"/>
<stop offset="1" stop-color="#C4C4C4" stop-opacity="0"/>
</linearGradient>
<linearGradient id="paint1_linear" x1="419.5" y1="348.138" x2="419.5" y2="243.399" gradientUnits="userSpaceOnUse">
<stop stop-color="#FAFAFA"/>
<stop offset="1" stop-color="#F6F7FB" stop-opacity="0"/>
</linearGradient>
<clipPath id="clip0">
<rect width="773" height="394" fill="white"/>
</clipPath>
</defs>
</svg>
