<svg width="156" height="121" viewBox="0 0 156 121" fill="none" xmlns="http://www.w3.org/2000/svg">
<path d="M38.8143 40.3298L40.1612 31.7173L45.7144 29.1336L97.7536 25.9757L107.241 33.1529L121.042 44.9232L121.492 89.7141L108.579 93.6765L78.2584 102.174L60.5477 98.2946L41.9927 93.8561L38.8143 40.3298Z" fill="#D3E1FF"/>
<g clip-path="url(#clip0)">
<path d="M37.491 92.6363C39.331 92.6937 41.1711 92.8659 42.9537 93.0956C44.7362 93.3253 46.5763 93.6124 48.3589 93.8994C50.1414 94.2439 51.924 94.5884 53.7065 94.9903C55.4891 95.3923 57.2142 95.8516 58.9392 96.4258C62.3893 97.5741 65.7245 99.0669 69.2321 100.043C70.0946 100.273 70.9571 100.502 71.8772 100.732C72.7397 100.962 73.6597 101.191 74.4648 101.249C76.1898 101.478 77.9149 101.306 79.5249 100.847C79.9275 100.732 80.33 100.617 80.7325 100.445L81.9975 99.9282C82.8601 99.5837 83.6651 99.2392 84.5276 98.9521C86.2527 98.3205 87.9777 97.7463 89.6453 97.1722C93.0954 96.0238 96.5455 94.8755 99.9957 93.9569C101.721 93.4975 103.503 93.0382 105.286 92.6937L107.931 92.1195L110.576 91.6028C114.141 90.9138 117.706 90.2822 121.386 89.9951L121.501 90.397C118.224 92.0621 114.831 93.3827 111.439 94.7033L108.908 95.6219L106.321 96.4832C104.596 97.0573 102.871 97.6315 101.146 98.1482C97.6956 99.1817 94.1304 100.043 90.6228 100.847C88.8403 101.249 87.1152 101.708 85.3326 102.053C84.4701 102.225 83.5501 102.397 82.63 102.569L81.3075 102.799C80.8475 102.914 80.33 102.971 79.87 102.971C77.9149 103.143 76.0173 102.971 74.1773 102.569C73.2572 102.34 72.3947 102.053 71.5322 101.88C70.6696 101.651 69.7496 101.421 68.8871 101.249C65.3219 100.56 61.6418 100.33 58.0767 99.6985C56.2941 99.4114 54.5116 98.9521 52.7865 98.4927C51.0615 98.0334 49.2789 97.5167 47.5538 96.9425C45.8288 96.3683 44.1037 95.7942 42.4362 95.1626C40.7111 94.531 39.0435 93.842 37.376 93.0382L37.491 92.6363Z" fill="#001064"/>
</g>
<path d="M113.199 104.349L87.978 108.004L89.2882 120.999L113.854 117.344L113.199 104.349Z" fill="white"/>
<path d="M35.5116 71.6222C35.5116 71.6222 17.7239 39.8555 39.8542 26.6497C43.1947 24.6563 46.0218 23.4499 48.4143 22.8383C62.0051 19.3639 58.3212 51.9957 45.7686 45.7338C44.5607 45.1312 43.3257 44.1425 42.08 42.6711C24.1433 23.3703 47.0315 6.50756 58.3493 2.95216C75.2249 -2.27937 99.2752 2.39345 103.368 24.4369C107.46 46.4804 86.3406 44.2964 87.149 30.1256C87.6037 21.6942 94.93 16.1579 105.136 15.9548C115.898 15.7516 128.024 27.4844 128.226 44.652C128.378 56.4356 122.77 62.3274 122.77 62.3274" stroke="#001064" stroke-width="2" stroke-miterlimit="10" stroke-linecap="round" stroke-linejoin="bevel"/>
<mask id="path-5-outside-1" maskUnits="userSpaceOnUse" x="36.9404" y="24.1475" width="87" height="87" fill="black">
<rect fill="white" x="36.9404" y="24.1475" width="87" height="87"/>
<path d="M41.4249 102.806C41.0201 98.536 40.7026 94.2655 40.4089 89.995C40.1152 85.7245 39.1548 62.3913 38.9247 58.1208C38.6865 53.8424 38.4802 49.5719 38.2897 45.2934C38.1944 43.1582 38.0992 41.015 38.0277 38.8797L37.9722 37.2763L37.9484 36.4746L37.9404 36.0698V35.9666V35.8555V35.6253C37.9484 34.3949 38.2579 33.1725 38.8135 32.085C39.0913 31.5453 39.4326 31.0293 39.8295 30.5689C40.2264 30.1085 40.6708 29.6878 41.155 29.3306C41.6392 28.9734 42.171 28.6718 42.7266 28.4337C43.2822 28.1955 43.8616 28.0209 44.449 27.9177C44.7427 27.8701 45.0443 27.8304 45.338 27.8145L45.5602 27.8066L45.7666 27.7987L46.1714 27.7907L47.7747 27.751L50.9893 27.6796C55.2675 27.5843 59.5536 27.4653 63.8318 27.2827C65.9669 27.1954 68.11 27.0922 70.2451 26.9731L71.8484 26.8858L73.4517 26.7906C74.5233 26.7271 75.5869 26.6636 76.6584 26.5921C80.9286 26.3222 85.1989 25.9968 89.4691 25.6714L95.8745 25.1713L95.9777 25.1633L96.0888 25.1554L96.3111 25.1475C96.4619 25.1475 96.6127 25.1475 96.7635 25.1475C96.9143 25.1554 97.0651 25.1554 97.2159 25.1713L97.4381 25.1951L97.6604 25.2268C97.962 25.2665 98.2557 25.33 98.5414 25.4015C98.8272 25.4808 99.1208 25.5682 99.3986 25.6793C99.9622 25.9015 100.502 26.1794 100.994 26.5286C101.121 26.6159 101.24 26.7033 101.359 26.7985L101.534 26.9335L101.693 27.0605L102.312 27.5685C105.629 30.2752 108.915 33.0217 112.201 35.7602L117.138 39.872L118.369 40.9039L118.448 40.9674L118.535 41.0388L118.71 41.1976C118.829 41.3007 118.94 41.4119 119.051 41.523C119.162 41.6341 119.266 41.7532 119.369 41.8643C119.472 41.9834 119.567 42.1025 119.67 42.2295C120.44 43.2217 120.98 44.3965 121.242 45.6268C121.274 45.7776 121.298 45.9364 121.321 46.0951C121.337 46.2539 121.361 46.4047 121.377 46.5635L121.393 46.8016L121.401 46.9207V46.9762V47.0239L121.417 47.4287L121.48 49.0321L121.599 52.2389C121.679 54.3742 121.75 56.5174 121.813 58.6606C121.877 60.8038 121.94 62.939 121.988 65.0822C122.044 67.2254 122.091 69.3606 122.139 71.5038C122.234 75.7823 122.306 80.0686 122.361 84.3471C122.417 88.6255 122.456 92.9119 122.472 97.1982C122.488 101.485 122.48 105.763 122.417 110.049L122.179 110.057C121.821 105.787 121.528 101.508 121.25 97.2379C120.972 92.9674 120.718 88.689 120.48 84.4106C120.242 80.1321 120.028 75.8616 119.821 71.5832C119.718 69.4479 119.623 67.3048 119.528 65.1695C119.432 63.0343 119.345 60.8911 119.266 58.7558C119.186 56.6206 119.107 54.4774 119.043 52.3342L118.948 49.1273L118.901 47.5239L118.893 47.1191V47.0715V47.0318L118.885 46.9524L118.877 46.7857L118.845 46.4603C118.829 46.3491 118.813 46.246 118.789 46.1348C118.623 45.2696 118.258 44.4441 117.726 43.7376L117.519 43.4757C117.448 43.3963 117.377 43.309 117.297 43.2296C117.218 43.1502 117.146 43.0709 117.059 42.9915L116.94 42.8804C116.916 42.8645 116.9 42.8407 116.877 42.8248L116.797 42.7613L115.583 41.7135L110.733 37.5065C107.518 34.6807 104.28 31.8787 101.073 29.0369L100.47 28.5051L100.319 28.3702L100.184 28.2591C100.097 28.1797 100.002 28.1162 99.9146 28.0447C99.5415 27.759 99.1367 27.5288 98.716 27.3383C98.5017 27.243 98.2795 27.1636 98.0573 27.0843C97.835 27.0208 97.6048 26.9573 97.3746 26.9096L97.2 26.8779L97.0254 26.8541C96.9064 26.8382 96.7952 26.8303 96.6762 26.8144C96.5571 26.8064 96.4381 26.7985 96.319 26.7985H96.1444H96.0571C96.0253 26.7985 95.9936 26.7985 95.9618 26.7985L89.5406 26.9731C85.2624 27.0922 80.9763 27.2113 76.706 27.3938C75.6345 27.4415 74.5709 27.4812 73.4994 27.5367L71.8881 27.6082L70.2848 27.6875C68.1497 27.7907 66.0066 27.9177 63.8715 28.0447C59.6012 28.3067 55.331 28.6401 51.0607 28.9893L47.862 29.2513L46.2587 29.3783L45.8618 29.41L45.6634 29.4338L45.4888 29.4497C45.2506 29.4735 45.0205 29.5212 44.7903 29.5688C43.8775 29.7831 43.0123 30.2038 42.298 30.7912C41.9408 31.0849 41.6074 31.4183 41.3217 31.7834C41.036 32.1485 40.7978 32.5454 40.5994 32.9582C40.401 33.371 40.2581 33.8155 40.1629 34.26C40.0676 34.7045 40.02 35.1649 40.0279 35.6173L40.1708 38.7845C40.266 40.9197 40.3375 43.0629 40.4089 45.1982C40.5597 49.4766 40.6788 53.755 40.774 58.0335C40.8693 62.3119 41.6471 85.653 41.6868 89.9314C41.7186 94.2178 41.7344 98.4963 41.6709 102.783L41.4249 102.806Z"/>
</mask>
<path d="M41.4249 102.806C41.0201 98.536 40.7026 94.2655 40.4089 89.995C40.1152 85.7245 39.1548 62.3913 38.9247 58.1208C38.6865 53.8424 38.4802 49.5719 38.2897 45.2934C38.1944 43.1582 38.0992 41.015 38.0277 38.8797L37.9722 37.2763L37.9484 36.4746L37.9404 36.0698V35.9666V35.8555V35.6253C37.9484 34.3949 38.2579 33.1725 38.8135 32.085C39.0913 31.5453 39.4326 31.0293 39.8295 30.5689C40.2264 30.1085 40.6708 29.6878 41.155 29.3306C41.6392 28.9734 42.171 28.6718 42.7266 28.4337C43.2822 28.1955 43.8616 28.0209 44.449 27.9177C44.7427 27.8701 45.0443 27.8304 45.338 27.8145L45.5602 27.8066L45.7666 27.7987L46.1714 27.7907L47.7747 27.751L50.9893 27.6796C55.2675 27.5843 59.5536 27.4653 63.8318 27.2827C65.9669 27.1954 68.11 27.0922 70.2451 26.9731L71.8484 26.8858L73.4517 26.7906C74.5233 26.7271 75.5869 26.6636 76.6584 26.5921C80.9286 26.3222 85.1989 25.9968 89.4691 25.6714L95.8745 25.1713L95.9777 25.1633L96.0888 25.1554L96.3111 25.1475C96.4619 25.1475 96.6127 25.1475 96.7635 25.1475C96.9143 25.1554 97.0651 25.1554 97.2159 25.1713L97.4381 25.1951L97.6604 25.2268C97.962 25.2665 98.2557 25.33 98.5414 25.4015C98.8272 25.4808 99.1208 25.5682 99.3986 25.6793C99.9622 25.9015 100.502 26.1794 100.994 26.5286C101.121 26.6159 101.24 26.7033 101.359 26.7985L101.534 26.9335L101.693 27.0605L102.312 27.5685C105.629 30.2752 108.915 33.0217 112.201 35.7602L117.138 39.872L118.369 40.9039L118.448 40.9674L118.535 41.0388L118.71 41.1976C118.829 41.3007 118.94 41.4119 119.051 41.523C119.162 41.6341 119.266 41.7532 119.369 41.8643C119.472 41.9834 119.567 42.1025 119.67 42.2295C120.44 43.2217 120.98 44.3965 121.242 45.6268C121.274 45.7776 121.298 45.9364 121.321 46.0951C121.337 46.2539 121.361 46.4047 121.377 46.5635L121.393 46.8016L121.401 46.9207V46.9762V47.0239L121.417 47.4287L121.48 49.0321L121.599 52.2389C121.679 54.3742 121.75 56.5174 121.813 58.6606C121.877 60.8038 121.94 62.939 121.988 65.0822C122.044 67.2254 122.091 69.3606 122.139 71.5038C122.234 75.7823 122.306 80.0686 122.361 84.3471C122.417 88.6255 122.456 92.9119 122.472 97.1982C122.488 101.485 122.48 105.763 122.417 110.049L122.179 110.057C121.821 105.787 121.528 101.508 121.25 97.2379C120.972 92.9674 120.718 88.689 120.48 84.4106C120.242 80.1321 120.028 75.8616 119.821 71.5832C119.718 69.4479 119.623 67.3048 119.528 65.1695C119.432 63.0343 119.345 60.8911 119.266 58.7558C119.186 56.6206 119.107 54.4774 119.043 52.3342L118.948 49.1273L118.901 47.5239L118.893 47.1191V47.0715V47.0318L118.885 46.9524L118.877 46.7857L118.845 46.4603C118.829 46.3491 118.813 46.246 118.789 46.1348C118.623 45.2696 118.258 44.4441 117.726 43.7376L117.519 43.4757C117.448 43.3963 117.377 43.309 117.297 43.2296C117.218 43.1502 117.146 43.0709 117.059 42.9915L116.94 42.8804C116.916 42.8645 116.9 42.8407 116.877 42.8248L116.797 42.7613L115.583 41.7135L110.733 37.5065C107.518 34.6807 104.28 31.8787 101.073 29.0369L100.47 28.5051L100.319 28.3702L100.184 28.2591C100.097 28.1797 100.002 28.1162 99.9146 28.0447C99.5415 27.759 99.1367 27.5288 98.716 27.3383C98.5017 27.243 98.2795 27.1636 98.0573 27.0843C97.835 27.0208 97.6048 26.9573 97.3746 26.9096L97.2 26.8779L97.0254 26.8541C96.9064 26.8382 96.7952 26.8303 96.6762 26.8144C96.5571 26.8064 96.4381 26.7985 96.319 26.7985H96.1444H96.0571C96.0253 26.7985 95.9936 26.7985 95.9618 26.7985L89.5406 26.9731C85.2624 27.0922 80.9763 27.2113 76.706 27.3938C75.6345 27.4415 74.5709 27.4812 73.4994 27.5367L71.8881 27.6082L70.2848 27.6875C68.1497 27.7907 66.0066 27.9177 63.8715 28.0447C59.6012 28.3067 55.331 28.6401 51.0607 28.9893L47.862 29.2513L46.2587 29.3783L45.8618 29.41L45.6634 29.4338L45.4888 29.4497C45.2506 29.4735 45.0205 29.5212 44.7903 29.5688C43.8775 29.7831 43.0123 30.2038 42.298 30.7912C41.9408 31.0849 41.6074 31.4183 41.3217 31.7834C41.036 32.1485 40.7978 32.5454 40.5994 32.9582C40.401 33.371 40.2581 33.8155 40.1629 34.26C40.0676 34.7045 40.02 35.1649 40.0279 35.6173L40.1708 38.7845C40.266 40.9197 40.3375 43.0629 40.4089 45.1982C40.5597 49.4766 40.6788 53.755 40.774 58.0335C40.8693 62.3119 41.6471 85.653 41.6868 89.9314C41.7186 94.2178 41.7344 98.4963 41.6709 102.783L41.4249 102.806Z" fill="#001064"/>
<path d="M41.4249 102.806C41.0201 98.536 40.7026 94.2655 40.4089 89.995C40.1152 85.7245 39.1548 62.3913 38.9247 58.1208C38.6865 53.8424 38.4802 49.5719 38.2897 45.2934C38.1944 43.1582 38.0992 41.015 38.0277 38.8797L37.9722 37.2763L37.9484 36.4746L37.9404 36.0698V35.9666V35.8555V35.6253C37.9484 34.3949 38.2579 33.1725 38.8135 32.085C39.0913 31.5453 39.4326 31.0293 39.8295 30.5689C40.2264 30.1085 40.6708 29.6878 41.155 29.3306C41.6392 28.9734 42.171 28.6718 42.7266 28.4337C43.2822 28.1955 43.8616 28.0209 44.449 27.9177C44.7427 27.8701 45.0443 27.8304 45.338 27.8145L45.5602 27.8066L45.7666 27.7987L46.1714 27.7907L47.7747 27.751L50.9893 27.6796C55.2675 27.5843 59.5536 27.4653 63.8318 27.2827C65.9669 27.1954 68.11 27.0922 70.2451 26.9731L71.8484 26.8858L73.4517 26.7906C74.5233 26.7271 75.5869 26.6636 76.6584 26.5921C80.9286 26.3222 85.1989 25.9968 89.4691 25.6714L95.8745 25.1713L95.9777 25.1633L96.0888 25.1554L96.3111 25.1475C96.4619 25.1475 96.6127 25.1475 96.7635 25.1475C96.9143 25.1554 97.0651 25.1554 97.2159 25.1713L97.4381 25.1951L97.6604 25.2268C97.962 25.2665 98.2557 25.33 98.5414 25.4015C98.8272 25.4808 99.1208 25.5682 99.3986 25.6793C99.9622 25.9015 100.502 26.1794 100.994 26.5286C101.121 26.6159 101.24 26.7033 101.359 26.7985L101.534 26.9335L101.693 27.0605L102.312 27.5685C105.629 30.2752 108.915 33.0217 112.201 35.7602L117.138 39.872L118.369 40.9039L118.448 40.9674L118.535 41.0388L118.71 41.1976C118.829 41.3007 118.94 41.4119 119.051 41.523C119.162 41.6341 119.266 41.7532 119.369 41.8643C119.472 41.9834 119.567 42.1025 119.67 42.2295C120.44 43.2217 120.98 44.3965 121.242 45.6268C121.274 45.7776 121.298 45.9364 121.321 46.0951C121.337 46.2539 121.361 46.4047 121.377 46.5635L121.393 46.8016L121.401 46.9207V46.9762V47.0239L121.417 47.4287L121.48 49.0321L121.599 52.2389C121.679 54.3742 121.75 56.5174 121.813 58.6606C121.877 60.8038 121.94 62.939 121.988 65.0822C122.044 67.2254 122.091 69.3606 122.139 71.5038C122.234 75.7823 122.306 80.0686 122.361 84.3471C122.417 88.6255 122.456 92.9119 122.472 97.1982C122.488 101.485 122.48 105.763 122.417 110.049L122.179 110.057C121.821 105.787 121.528 101.508 121.25 97.2379C120.972 92.9674 120.718 88.689 120.48 84.4106C120.242 80.1321 120.028 75.8616 119.821 71.5832C119.718 69.4479 119.623 67.3048 119.528 65.1695C119.432 63.0343 119.345 60.8911 119.266 58.7558C119.186 56.6206 119.107 54.4774 119.043 52.3342L118.948 49.1273L118.901 47.5239L118.893 47.1191V47.0715V47.0318L118.885 46.9524L118.877 46.7857L118.845 46.4603C118.829 46.3491 118.813 46.246 118.789 46.1348C118.623 45.2696 118.258 44.4441 117.726 43.7376L117.519 43.4757C117.448 43.3963 117.377 43.309 117.297 43.2296C117.218 43.1502 117.146 43.0709 117.059 42.9915L116.94 42.8804C116.916 42.8645 116.9 42.8407 116.877 42.8248L116.797 42.7613L115.583 41.7135L110.733 37.5065C107.518 34.6807 104.28 31.8787 101.073 29.0369L100.47 28.5051L100.319 28.3702L100.184 28.2591C100.097 28.1797 100.002 28.1162 99.9146 28.0447C99.5415 27.759 99.1367 27.5288 98.716 27.3383C98.5017 27.243 98.2795 27.1636 98.0573 27.0843C97.835 27.0208 97.6048 26.9573 97.3746 26.9096L97.2 26.8779L97.0254 26.8541C96.9064 26.8382 96.7952 26.8303 96.6762 26.8144C96.5571 26.8064 96.4381 26.7985 96.319 26.7985H96.1444H96.0571C96.0253 26.7985 95.9936 26.7985 95.9618 26.7985L89.5406 26.9731C85.2624 27.0922 80.9763 27.2113 76.706 27.3938C75.6345 27.4415 74.5709 27.4812 73.4994 27.5367L71.8881 27.6082L70.2848 27.6875C68.1497 27.7907 66.0066 27.9177 63.8715 28.0447C59.6012 28.3067 55.331 28.6401 51.0607 28.9893L47.862 29.2513L46.2587 29.3783L45.8618 29.41L45.6634 29.4338L45.4888 29.4497C45.2506 29.4735 45.0205 29.5212 44.7903 29.5688C43.8775 29.7831 43.0123 30.2038 42.298 30.7912C41.9408 31.0849 41.6074 31.4183 41.3217 31.7834C41.036 32.1485 40.7978 32.5454 40.5994 32.9582C40.401 33.371 40.2581 33.8155 40.1629 34.26C40.0676 34.7045 40.02 35.1649 40.0279 35.6173L40.1708 38.7845C40.266 40.9197 40.3375 43.0629 40.4089 45.1982C40.5597 49.4766 40.6788 53.755 40.774 58.0335C40.8693 62.3119 41.6471 85.653 41.6868 89.9314C41.7186 94.2178 41.7344 98.4963 41.6709 102.783L41.4249 102.806Z" stroke="#001064" stroke-width="2" mask="url(#path-5-outside-1)"/>
<path fill-rule="evenodd" clip-rule="evenodd" d="M155.267 49.4093C155.394 49.974 155.342 50.5567 155.366 51.1679C155.4 51.5253 155.164 51.6935 154.808 51.7295C153.652 52.0628 152.415 51.935 151.195 51.986C149.647 51.9978 148.008 51.8024 146.443 51.6355C145.861 51.5859 145.769 51.3787 145.792 50.871C145.964 49.3017 145.964 49.3017 147.483 49.3649C149.836 49.4883 152.247 49.4615 154.582 49.4062C154.836 49.4167 155.089 49.4273 155.267 49.4093Z" fill="#001064"/>
<path fill-rule="evenodd" clip-rule="evenodd" d="M155.298 71.26C155.552 71.2706 155.598 71.3742 155.511 71.5995C155.483 71.6745 155.5 71.8533 155.471 71.9283C155.178 73.3655 155.15 73.4406 153.763 73.2558C151.571 72.9357 149.333 72.5119 147.141 72.1918C146.813 72.1527 146.692 72.0206 146.703 71.7668C146.812 71.0339 146.847 70.2725 146.956 69.5396C146.996 69.2107 147.099 69.1642 147.427 69.2032C150.011 69.8448 152.594 70.4863 155.103 71.0993C155.149 71.2029 155.224 71.2315 155.298 71.26Z" fill="#001064"/>
<path fill-rule="evenodd" clip-rule="evenodd" d="M140.117 87.4298C138.466 86.3692 137.004 85.0367 135.513 83.7793C135.438 83.7508 135.243 83.59 135.271 83.5149C135.605 82.8677 136.226 82.5884 136.68 82.0734C136.973 81.755 137.186 82.0945 137.382 82.2552C138.947 83.5412 140.513 84.8271 142.107 86.0379C142.423 86.3309 142.441 86.5096 142.148 86.828C142.044 86.8745 141.987 87.0247 141.958 87.0998C141.182 88.0083 141.182 88.0083 140.117 87.4298Z" fill="#001064"/>
<path fill-rule="evenodd" clip-rule="evenodd" d="M0.731897 49.4093C0.605097 49.974 0.656641 50.5567 0.63338 51.1679C0.598717 51.5253 0.834533 51.6935 1.19122 51.7295C2.34749 52.0628 3.58448 51.935 4.80415 51.9859C6.35176 51.9978 7.99152 51.8024 9.55647 51.6355C10.1376 51.5859 10.2297 51.3787 10.2069 50.871C10.0349 49.3017 10.0349 49.3017 8.51604 49.3649C6.16292 49.4883 3.75233 49.4615 1.41654 49.4062C1.16339 49.4167 0.91024 49.4273 0.731897 49.4093Z" fill="#001064"/>
<path fill-rule="evenodd" clip-rule="evenodd" d="M0.700587 71.26C0.44744 71.2706 0.401371 71.3742 0.487579 71.5995C0.516314 71.6746 0.498984 71.8533 0.527719 71.9284C0.820555 73.3656 0.849285 73.4407 2.23589 73.2558C4.42801 72.9357 6.6662 72.5119 8.85831 72.1918C9.18626 72.1527 9.30713 72.0206 9.29573 71.7668C9.18671 71.0339 9.1525 70.2725 9.04349 69.5396C9.00335 69.2107 8.89981 69.1642 8.57186 69.2032C5.98839 69.8448 3.40492 70.4863 0.896258 71.0993C0.850191 71.203 0.775391 71.2315 0.700587 71.26Z" fill="#001064"/>
<path fill-rule="evenodd" clip-rule="evenodd" d="M15.8815 87.4298C17.533 86.3692 18.9949 85.0367 20.4855 83.7793C20.5603 83.7508 20.756 83.59 20.7272 83.5149C20.3939 82.8677 19.7727 82.5884 19.3185 82.0734C19.0253 81.755 18.8122 82.0945 18.6166 82.2552C17.0512 83.5412 15.4858 84.8271 13.8917 86.0379C13.5751 86.3309 13.5578 86.5096 13.851 86.828C13.9545 86.8745 14.012 87.0247 14.0407 87.0998C14.8169 88.0083 14.8169 88.0083 15.8815 87.4298Z" fill="#001064"/>
<path d="M79.2542 49.7934C79.0425 49.7934 78.8307 49.7405 78.6719 49.6348C78.1954 49.3176 78.0895 48.6833 78.4072 48.2075C80.6837 44.8242 84.4426 42.6568 88.4662 42.3396C92.5428 42.0225 96.5664 43.6084 99.3194 46.5687C99.69 46.9916 99.69 47.626 99.2665 48.0489C98.8429 48.419 98.2076 48.419 97.7841 47.996C95.5076 45.5115 91.9604 44.137 88.625 44.4013C85.2367 44.6656 82.0072 46.5687 80.1013 49.3705C79.8895 49.6348 79.5719 49.7934 79.2542 49.7934Z" fill="#001064"/>
<path d="M72.4768 75.6968C71.7885 75.6968 71.1003 75.5382 70.5179 75.221C69.0885 74.428 68.0826 72.7892 67.8708 70.8862C67.659 69.3003 67.9767 67.7143 68.2943 66.287L70.1473 56.5073C70.5709 54.3927 71.0473 52.0667 70.3061 50.005C69.512 47.6262 67.0237 45.9874 64.4825 46.0931C61.9942 46.2517 59.7177 48.2077 59.1882 50.6394C59.0824 51.2209 58.5 51.5381 57.9706 51.4323C57.3882 51.3266 57.0705 50.7451 57.1764 50.2165C57.8647 46.8861 60.9883 44.2429 64.3766 44.0314C67.7649 43.82 71.1532 46.0931 72.265 49.3178C73.165 51.9081 72.5827 54.657 72.1591 56.8773L70.2532 66.6042C69.9885 67.9258 69.7238 69.3002 69.8826 70.569C70.0414 71.8377 70.6238 72.895 71.4709 73.3708C71.8944 73.6351 72.4768 73.6879 73.0062 73.5293C73.218 73.4765 73.6415 73.3179 73.8533 72.895C74.118 72.4192 74.7533 72.2077 75.2827 72.4721C75.7592 72.7364 75.971 73.3708 75.7063 73.8994C75.2827 74.6923 74.5415 75.221 73.6415 75.4853C73.218 75.6439 72.8474 75.6968 72.4768 75.6968Z" fill="#001064"/>
<path d="M76.7127 88.2252C72.2126 88.2252 67.7655 86.9565 63.9536 84.5248C63.4771 84.2076 63.3183 83.5732 63.636 83.0975C63.9536 82.6217 64.5889 82.4631 65.0654 82.7803C68.9302 85.212 73.5891 86.4279 78.1422 86.1107C82.6952 85.7935 87.1424 83.9962 90.6366 81.0358C91.0601 80.6657 91.7484 80.7186 92.066 81.1415C92.4366 81.5644 92.3837 82.2517 91.9601 82.5688C88.1483 85.7935 83.2776 87.7495 78.2481 88.1195C77.7716 88.2252 77.2422 88.2252 76.7127 88.2252Z" fill="#001064"/>
<path d="M85.7661 58.1553C85.9265 57.094 85.7637 55.8514 86.2294 54.855C86.525 54.2223 86.9394 53.4795 87.5897 53.1333C88.4227 52.6896 89.6068 52.6451 90.3324 53.3315C91.6141 54.5439 91.9868 56.4644 91.9868 58.1553" stroke="#001064" stroke-width="2" stroke-linecap="round" stroke-linejoin="round"/>
<path d="M60.354 58.1553C60.5144 57.094 60.3516 55.8514 60.8172 54.855C61.1129 54.2223 61.5273 53.4795 62.1776 53.1333C63.0106 52.6896 64.1947 52.6451 64.9203 53.3315C66.2019 54.5439 66.5747 56.4644 66.5747 58.1553" stroke="#001064" stroke-width="2" stroke-linecap="round" stroke-linejoin="round"/>
<defs>
<clipPath id="clip0">
<rect width="84.1254" height="25.4929" fill="white" transform="translate(37.376 89.9951)"/>
</clipPath>
</defs>
</svg>
