<svg width="202" height="197" viewBox="0 0 202 197" fill="none" xmlns="http://www.w3.org/2000/svg">
<ellipse rx="71.6585" ry="71.7006" transform="matrix(0.989836 -0.142211 0.142041 0.989861 102.949 115.838)" fill="#FEF6E7"/>
<path d="M93.4479 159.48L93.4462 159.48C89.0116 157.902 87.0259 153.061 86.9262 148.988C86.9264 145.71 87.8196 142.629 88.7179 139.633C88.718 139.632 88.7182 139.632 88.7183 139.631L88.7187 139.63C88.9167 139.036 89.1177 138.432 89.2191 137.828C92.6156 126.329 92.9149 114.13 89.9169 102.531C89.0192 99.0374 87.4161 94.11 83.7911 91.4904L83.7902 91.4898C82.0737 90.2773 79.5511 89.6698 77.4249 90.1754C76.3097 90.3788 74.8851 90.9889 73.9682 92.4161L73.9681 92.416L73.9649 92.4216C73.4966 93.2652 72.3625 93.5588 71.4046 93.0807C70.5631 92.6115 70.2704 91.4779 70.7475 90.5202C71.9287 88.4537 73.997 87.0706 76.6686 86.4765C79.8339 85.7838 83.3964 86.5764 85.8675 88.4556L85.8675 88.4556L85.8686 88.4564C90.4286 91.8289 92.3182 97.4892 93.3156 101.581L93.3158 101.582C96.405 113.846 96.2057 126.709 92.6188 138.774C92.6186 138.774 92.6185 138.775 92.6183 138.775L92.618 138.776C92.4201 139.37 92.2192 139.973 92.1178 140.577C91.2207 143.37 90.4187 146.078 90.4187 148.889C90.4187 150.252 90.7462 151.766 91.4152 153.066C92.0842 154.367 93.0987 155.463 94.4757 155.973L94.4763 155.973C95.6112 156.386 97.2487 156.077 98.2737 155.051L98.2757 155.049C98.4748 154.85 98.7813 154.543 99.0122 154.158C99.2444 153.771 99.4051 153.296 99.2991 152.765C99.1096 151.719 99.7743 150.774 100.716 150.585C101.762 150.395 102.706 151.061 102.895 152.004C103.287 154.064 102.503 156.323 100.636 157.798L100.628 157.804L100.622 157.811C99.447 159.183 97.5811 159.873 95.8078 159.873C95.0179 159.873 94.2321 159.774 93.4479 159.48Z" fill="#001064" stroke="white" stroke-width="0.2"/>
<path d="M110.466 93.1204L110.466 93.1204L110.467 93.1175C112.348 89.4517 116.112 86.7772 120.267 86.3811L120.268 86.3811C124.326 85.9849 128.684 87.7689 131.257 91.0367L131.257 91.0368L131.26 91.0407C131.918 91.7928 131.731 93.0244 130.976 93.591L130.976 93.5908L130.97 93.5957C130.218 94.2538 128.988 94.0669 128.421 93.3114L128.421 93.3114L128.42 93.3098C126.602 90.9854 123.674 89.7735 120.747 90.0765L120.746 90.0765C117.921 90.3794 115.198 92.1943 113.884 94.8189C113.501 95.3898 112.835 95.7678 112.174 95.7678C111.896 95.7678 111.615 95.6756 111.315 95.5755C110.367 95.0973 109.998 93.9626 110.466 93.1204Z" fill="#001064" stroke="white" stroke-width="0.2"/>
<path d="M73.5535 129.519C63.8288 129.519 55.9896 121.675 55.9896 111.944C55.9896 102.213 63.8288 94.3695 73.5535 94.3695C83.2782 94.3695 91.1173 102.213 91.1173 111.944C91.1173 121.675 83.1787 129.519 73.5535 129.519ZM73.5535 98.0639C65.9137 98.0639 59.6817 104.3 59.6817 111.944C59.6817 119.588 65.9137 125.824 73.5535 125.824C81.1932 125.824 87.4253 119.588 87.4253 111.944C87.4253 104.3 81.1932 98.0639 73.5535 98.0639Z" fill="#001064" stroke="white" stroke-width="0.2"/>
<path d="M122.254 129.519C112.529 129.519 104.69 121.675 104.69 111.944C104.69 102.213 112.529 94.3695 122.254 94.3695C131.978 94.3695 139.818 102.213 139.818 111.944C139.818 121.675 131.879 129.519 122.254 129.519ZM122.254 98.0639C114.614 98.0639 108.382 104.3 108.382 111.944C108.382 119.588 114.614 125.824 122.254 125.824C129.893 125.824 136.125 119.588 136.125 111.944C136.125 104.3 129.893 98.0639 122.254 98.0639Z" fill="#001064" stroke="white" stroke-width="0.2"/>
<path d="M106.586 115.636C105.987 115.636 105.388 115.337 104.989 114.738C103.991 113.34 99.6001 111.742 96.8058 111.542C94.6103 111.343 92.4148 112.241 90.9179 113.839C90.2193 114.638 88.922 114.638 88.1236 113.939C87.3252 113.24 87.3252 111.942 88.0238 111.143C90.3191 108.646 93.7121 107.348 97.0054 107.648C99.6001 107.848 105.987 109.345 108.083 112.541C108.681 113.44 108.482 114.638 107.584 115.237C107.284 115.537 106.885 115.636 106.586 115.636Z" fill="#001064"/>
<path d="M77.0461 118.733C77.0461 120.608 75.527 122.128 73.6532 122.128C71.7795 122.128 70.2604 120.608 70.2604 118.733C70.2604 116.858 71.7795 115.338 73.6532 115.338C75.527 115.338 77.0461 116.858 77.0461 118.733Z" fill="#001064" stroke="white" stroke-width="0.2"/>
<path d="M124.449 118.733C124.449 120.608 122.93 122.128 121.056 122.128C119.183 122.128 117.663 120.608 117.663 118.733C117.663 116.858 119.183 115.338 121.056 115.338C122.93 115.338 124.449 116.858 124.449 118.733Z" fill="#001064" stroke="white" stroke-width="0.2"/>
<path d="M159.877 118.831C158.879 118.831 157.981 118.032 157.981 117.034C157.881 115.935 158.679 115.037 159.777 114.937C160.675 114.837 161.274 114.238 161.573 113.838C162.172 113.04 162.471 111.941 162.272 111.042C161.873 109.145 160.076 107.547 157.881 107.048C155.286 106.449 152.592 107.348 150.795 108.246C147.003 109.944 143.71 112.84 140.616 115.736C139.818 116.435 138.62 116.335 137.822 115.536C137.123 114.737 137.223 113.539 138.021 112.74C141.415 109.744 144.907 106.649 149.199 104.652C152.592 103.054 155.785 102.555 158.679 103.254C162.471 104.053 165.465 106.848 166.064 110.343C166.463 112.341 165.864 114.537 164.567 116.235C163.37 117.833 161.673 118.731 159.877 118.831C159.977 118.831 159.877 118.831 159.877 118.831Z" fill="#001064"/>
<path d="M90.4656 171.169L90.4657 171.169L90.4637 171.168C89.5198 170.696 89.2349 169.562 89.708 168.71L89.7081 168.71L89.71 168.706C90.182 167.762 91.3152 167.477 92.1667 167.95L92.169 167.951C99.2874 171.663 108.409 170.962 114.827 166.147C115.69 165.572 116.82 165.679 117.38 166.52C117.956 167.384 117.851 168.516 117.009 169.078L117.009 169.077L117.003 169.081C112.732 172.362 107.365 173.954 101.995 173.954C98.0183 173.954 94.0427 173.058 90.4656 171.169Z" fill="#001064" stroke="white" stroke-width="0.2"/>
<path d="M191.612 140.844C191.612 140.844 218.856 82.428 175.146 56.4653C163.165 49.3492 154.528 47.1467 148.302 47.6989C128.61 49.4456 136.694 81.8798 154.861 89.6781C162.517 92.9647 171.047 92.8514 178.638 83.9259C214.066 45.9803 168.859 12.8279 146.504 5.83796C113.173 -4.44728 65.6698 4.73954 57.5864 48.0773C49.5029 91.4152 91.2175 87.1213 89.6208 59.2613C88.7226 42.6851 74.2523 31.8007 54.0935 31.4013C32.8371 31.0019 8.8861 54.0688 8.48692 87.8203C8.18753 110.987 19.2648 122.57 19.2648 122.57" stroke="#001064" stroke-width="3.5" stroke-miterlimit="10" stroke-linecap="round" stroke-linejoin="bevel"/>
<path d="M2 114.589C3.20572 115.002 4.29464 115.645 5.40275 116.267C7.74791 117.584 10.1079 118.882 12.4092 120.275C14.3494 121.449 16.2706 122.682 18.1128 124.006C18.6311 124.378 19.1428 124.726 19.7137 125.011C20.0544 125.182 20.5101 125.442 20.8919 125.497C21.0573 125.52 21.0401 120.331 21.0235 119.928C20.8882 116.624 20.9979 113.338 21.1829 110.04C21.2759 108.382 21.6206 106.74 21.8067 105.088C21.8871 104.374 21.9591 103.56 21.9591 102.855" stroke="#001064" stroke-width="3" stroke-linecap="round" stroke-linejoin="round"/>
</svg>
