<svg width="222" height="200" viewBox="0 0 222 200" fill="none" xmlns="http://www.w3.org/2000/svg">
<path d="M64.849 10.7324C32.9902 27.5302 11.2773 61.0258 11.2773 99.5882C11.2773 155.048 56.1739 200 111.565 200C152.872 200 188.371 174.966 203.727 139.224L108.3 99.5882L64.849 10.7324Z" fill="#E9F7FF"/>
<path d="M111.143 0C94.2908 0 78.3863 4.16823 64.4512 11.5313L107.902 100.387L194.03 43.8538C175.982 17.3968 145.594 0 111.143 0Z" fill="#FFD9D1"/>
<path d="M211.429 100.411C211.429 79.4452 204.998 59.9768 194.029 43.8779L107.9 100.411L203.302 140.047C208.537 127.892 211.429 114.488 211.429 100.411Z" fill="#BAF0DF"/>
<path d="M118.221 26.3068C117.922 26.3068 117.622 26.157 117.448 25.8825C115.728 23.2617 112.886 21.3149 109.795 20.6909C106.729 20.0669 103.338 20.7658 100.746 22.5379C100.322 22.8374 99.7486 22.7126 99.4495 22.2883C99.1503 21.864 99.275 21.2899 99.6988 20.9904C102.74 18.9188 106.554 18.145 110.169 18.8439C113.783 19.5677 116.999 21.7392 119.019 24.8342C119.293 25.2585 119.168 25.8326 118.744 26.1321C118.57 26.2569 118.395 26.3068 118.221 26.3068Z" fill="#001064"/>
<path d="M120.215 48.5213C120.165 48.5213 120.091 48.5213 120.041 48.5213C118.919 48.4714 117.972 47.9722 117.373 47.1235C117.074 46.6992 117.199 46.1252 117.623 45.8257C118.046 45.5261 118.62 45.6509 118.919 46.0752C119.218 46.5245 119.742 46.6493 120.115 46.6743C120.938 46.6992 121.836 46.2999 122.334 45.6759C123.306 44.4529 123.481 42.7307 123.605 40.7589L124.104 32.2976C124.229 30.2509 124.378 27.7051 125.65 25.6085C127.046 23.2872 129.713 21.8396 132.43 21.9394C135.147 22.0393 137.69 23.6616 138.912 26.0827C139.136 26.532 138.962 27.106 138.513 27.3307C138.064 27.5553 137.491 27.3806 137.266 26.9313C136.344 25.1342 134.375 23.8863 132.38 23.8114C130.361 23.7365 128.317 24.8597 127.27 26.5819C126.248 28.2791 126.123 30.4756 125.999 32.4224L125.5 40.8837C125.4 42.6558 125.251 45.0769 123.83 46.849C122.957 47.8723 121.561 48.5213 120.215 48.5213Z" fill="#001064"/>
<path d="M118.594 60.2016C114.107 60.2016 109.545 58.9786 105.756 56.6074C105.308 56.3329 105.183 55.7588 105.457 55.3095C105.731 54.8602 106.305 54.7354 106.753 55.01C112.462 58.5792 120.065 59.328 126.123 56.9568C126.597 56.7572 127.145 57.0068 127.32 57.481C127.519 57.9552 127.27 58.5043 126.796 58.679C124.228 59.7024 121.411 60.2016 118.594 60.2016Z" fill="#001064"/>
<path d="M124.303 58.4783C124.228 58.4783 124.154 58.4783 124.104 58.4534C123.605 58.3286 123.281 57.8294 123.406 57.3302C123.655 56.2819 122.608 55.2586 121.511 54.9341C121.013 54.7843 120.489 54.7594 119.99 54.8342C119.741 54.9091 119.043 55.2086 118.744 55.3833C118.694 55.4333 118.644 55.4832 118.594 55.5331C118.196 55.8825 117.622 55.8326 117.273 55.4333C116.127 54.1104 114.282 53.4365 112.587 53.7111C110.867 53.9856 109.321 55.1837 108.623 56.7811C108.424 57.2553 107.875 57.4799 107.401 57.2803C106.928 57.0806 106.703 56.5315 106.903 56.0573C107.825 53.8858 109.944 52.2385 112.288 51.889C114.332 51.5645 116.525 52.2385 118.071 53.6112C118.769 53.2368 119.542 53.0372 119.542 53.0122C120.339 52.8375 121.212 52.8874 122.01 53.137C123.929 53.736 125.649 55.608 125.176 57.7295C125.101 58.1788 124.727 58.4783 124.303 58.4783Z" fill="#001064"/>
<path d="M115.453 67.2917C113.533 67.2917 111.638 66.7426 110.093 65.6444C107.251 63.6476 105.88 59.8538 106.827 56.6589C106.977 56.1598 107.5 55.8852 107.974 56.035C108.473 56.1847 108.747 56.7089 108.597 57.1831C107.874 59.6541 108.946 62.5494 111.165 64.1218C113.309 65.6444 116.325 65.844 118.843 64.6709C121.236 63.5478 123.131 61.2515 123.903 58.5059C124.053 58.0068 124.552 57.7072 125.05 57.857C125.549 58.0068 125.823 58.5059 125.698 59.0051C124.776 62.2748 122.507 65.0204 119.616 66.3682C118.319 66.9922 116.874 67.2917 115.453 67.2917Z" fill="#001064"/>
<path d="M162.67 100.038C162.396 100.014 162.121 99.9636 161.847 99.9137C159.878 99.4395 158.008 97.5675 158.407 95.3461C158.607 94.198 159.429 93.1746 160.676 92.4009C161.199 92.0764 161.748 91.8518 162.271 91.6022C162.695 91.4275 163.069 91.2527 163.443 91.0281C166.833 89.1562 168.229 84.3889 166.384 80.9944C164.54 77.5999 159.778 76.1772 156.363 77.9993C155.914 78.2489 155.366 78.0741 155.141 77.6249C154.892 77.1756 155.067 76.6265 155.515 76.4019C159.753 74.1305 165.686 75.9027 167.98 80.1208C170.273 84.339 168.528 90.3043 164.315 92.6255C163.867 92.8751 163.443 93.0748 162.994 93.2495C162.495 93.4741 162.022 93.6738 161.598 93.9484C161.124 94.2229 160.327 94.822 160.177 95.6456C159.978 96.7688 161.099 97.842 162.246 98.1166C163.642 98.4411 165.238 98.0168 166.634 97.6174C167.107 97.4926 167.631 97.7672 167.755 98.2414C167.88 98.7156 167.606 99.2398 167.132 99.3646C165.836 99.7639 164.265 100.188 162.67 100.038Z" fill="#001064"/>
<path d="M175.557 82.3417C175.383 82.3168 175.208 82.2668 175.083 82.1421C174.685 81.8176 174.635 81.2435 174.959 80.8691C176.629 78.8224 179.296 77.6743 181.939 77.8989C184.581 78.1236 187.024 79.696 188.346 81.9923C188.595 82.4416 188.445 82.9907 187.997 83.2403C187.573 83.4899 186.999 83.3401 186.75 82.8908C185.753 81.1437 183.808 79.9206 181.789 79.721C179.77 79.5463 177.651 80.4448 176.355 82.0173C176.155 82.2669 175.856 82.3667 175.557 82.3417Z" fill="#001064"/>
<path d="M164.106 107C164.081 107 164.056 107 164.056 107C161.413 106.725 158.945 105.377 157.275 103.281C156.951 102.881 157.026 102.307 157.425 102.008C157.823 101.683 158.397 101.758 158.696 102.157C160.042 103.83 162.111 104.978 164.255 105.203C164.28 105.203 164.28 105.203 164.305 105.203C166.424 105.402 168.667 104.728 170.313 103.381C170.712 103.056 171.285 103.106 171.584 103.505C171.908 103.905 171.858 104.479 171.46 104.778C169.39 106.451 166.723 107.274 164.106 107Z" fill="#001064"/>
<path fill-rule="evenodd" clip-rule="evenodd" d="M177.785 89.9952C177.785 89.995 177.785 89.9949 176.979 89.9782C176.172 89.9616 176.172 89.9614 176.172 89.9612L176.172 89.9594L176.172 89.9554L176.172 89.9423C176.173 89.9312 176.173 89.9157 176.174 89.896C176.175 89.8565 176.177 89.8002 176.181 89.7295C176.188 89.5881 176.201 89.3882 176.222 89.1491C176.265 88.6739 176.345 88.0296 176.494 87.3765C176.641 86.7359 176.869 86.024 177.237 85.4538C177.61 84.8763 178.213 84.3281 179.098 84.3281C180.611 84.3281 181.572 85.5892 182.063 86.6957C182.324 87.284 182.498 87.9186 182.579 88.5117C182.658 89.0926 182.658 89.6948 182.517 90.1966L180.963 89.7599C181.022 89.5503 181.043 89.1916 180.98 88.7312C180.919 88.2831 180.785 87.796 180.588 87.3516C180.163 86.3927 179.604 85.9441 179.098 85.9441C178.973 85.9441 178.806 86.0012 178.592 86.3315C178.374 86.6692 178.198 87.1679 178.067 87.7378C177.94 88.2952 177.869 88.8615 177.83 89.2942C177.81 89.5091 177.799 89.6874 177.793 89.8109C177.79 89.8725 177.788 89.9203 177.787 89.9517L177.786 89.9864L177.785 89.9941L177.785 89.9952Z" fill="#001064"/>
<path fill-rule="evenodd" clip-rule="evenodd" d="M95.348 122.803C95.348 122.803 95.348 122.803 94.5412 122.786C93.7344 122.769 93.7344 122.769 93.7344 122.769L93.7344 122.767L93.7345 122.763L93.7348 122.75C93.7351 122.739 93.7356 122.723 93.7363 122.704C93.7376 122.664 93.7399 122.608 93.7434 122.537C93.7506 122.396 93.763 122.196 93.7846 121.957C93.8274 121.482 93.9073 120.837 94.0569 120.184C94.2036 119.544 94.4312 118.832 94.7996 118.261C95.1727 117.684 95.7752 117.136 96.6601 117.136C98.1731 117.136 99.1348 118.397 99.6256 119.503C99.8866 120.092 100.06 120.726 100.141 121.319C100.221 121.9 100.22 122.502 100.079 123.004L98.5256 122.567C98.5843 122.358 98.6054 121.999 98.5424 121.539C98.481 121.091 98.3477 120.604 98.1506 120.159C97.7252 119.2 97.1663 118.752 96.6601 118.752C96.5354 118.752 96.3682 118.809 96.1547 119.139C95.9365 119.477 95.7605 119.976 95.63 120.545C95.5023 121.103 95.431 121.669 95.392 122.102C95.3727 122.317 95.3616 122.495 95.3554 122.618C95.3522 122.68 95.3504 122.728 95.3493 122.759L95.3482 122.794L95.348 122.802L95.348 122.803Z" fill="#001064"/>
<path fill-rule="evenodd" clip-rule="evenodd" d="M71.387 121.392C71.387 121.392 71.387 121.391 70.5802 121.375C69.7734 121.358 69.7734 121.358 69.7734 121.358L69.7735 121.356L69.7736 121.352L69.7739 121.339C69.7742 121.328 69.7747 121.312 69.7754 121.292C69.7767 121.253 69.7789 121.197 69.7825 121.126C69.7896 120.985 69.8021 120.785 69.8237 120.546C69.8665 120.07 69.9463 119.426 70.0959 118.773C70.2427 118.132 70.4702 117.421 70.8387 116.85C71.2118 116.273 71.8142 115.725 72.6992 115.725C74.2122 115.725 75.1739 116.986 75.6647 118.092C75.9256 118.681 76.0992 119.315 76.1804 119.908C76.26 120.489 76.2592 121.091 76.1185 121.593L74.5646 121.156C74.6234 120.947 74.6445 120.588 74.5814 120.128C74.5201 119.68 74.3867 119.192 74.1896 118.748C73.7643 117.789 73.2054 117.341 72.6992 117.341C72.5745 117.341 72.4072 117.398 72.1938 117.728C71.9756 118.066 71.7996 118.564 71.669 119.134C71.5413 119.692 71.4701 120.258 71.4311 120.691C71.4117 120.906 71.4006 121.084 71.3944 121.207C71.3913 121.269 71.3894 121.317 71.3883 121.348L71.3873 121.383L71.3871 121.391L71.387 121.392Z" fill="#001064"/>
<path fill-rule="evenodd" clip-rule="evenodd" d="M157.466 88.0992C157.466 88.0991 157.466 88.0989 156.662 88.0322C155.857 87.9654 155.857 87.9652 155.857 87.965L155.858 87.9632L155.858 87.9592L155.859 87.9461C155.86 87.9352 155.861 87.9197 155.863 87.9001C155.867 87.8609 155.873 87.8049 155.881 87.7346C155.897 87.5942 155.922 87.3958 155.958 87.1588C156.03 86.688 156.15 86.051 156.34 85.4094C156.526 84.7801 156.798 84.0847 157.202 83.5392C157.611 82.9863 158.247 82.4788 159.129 82.5333C160.644 82.6269 161.523 83.953 161.94 85.0889C162.162 85.6933 162.294 86.3379 162.335 86.9342C162.376 87.5171 162.334 88.1182 162.156 88.6078L160.64 88.0555C160.711 87.8587 160.757 87.5082 160.725 87.046C160.694 86.5971 160.593 86.1029 160.426 85.6465C160.064 84.6609 159.535 84.1774 159.03 84.1462C158.903 84.1384 158.732 84.1862 158.498 84.5014C158.259 84.824 158.053 85.3095 157.887 85.8689C157.725 86.416 157.619 86.9755 157.553 87.404C157.52 87.6167 157.498 87.7937 157.485 87.9162C157.478 87.9774 157.473 88.0248 157.47 88.0561L157.467 88.0905L157.466 88.0981L157.466 88.0992Z" fill="#001064"/>
<path fill-rule="evenodd" clip-rule="evenodd" d="M129.901 37.0806C129.901 37.0805 129.901 37.0804 129.097 37.0136C128.293 36.9468 128.293 36.9467 128.293 36.9465L128.293 36.9446L128.293 36.9407L128.295 36.9276C128.296 36.9166 128.297 36.9012 128.299 36.8815C128.303 36.8423 128.308 36.7864 128.316 36.7161C128.332 36.5756 128.357 36.3772 128.393 36.1403C128.466 35.6695 128.585 35.0324 128.775 34.3909C128.962 33.7615 129.233 33.0661 129.637 32.5206C130.047 31.9677 130.682 31.4602 131.565 31.5148C133.08 31.6084 133.959 32.9344 134.376 34.0704C134.598 34.6748 134.729 35.3194 134.771 35.9156C134.811 36.4986 134.77 37.0996 134.592 37.5892L133.075 37.037C133.147 36.8402 133.193 36.4897 133.161 36.0275C133.129 35.5785 133.029 35.0844 132.861 34.628C132.499 33.6423 131.97 33.1588 131.466 33.1277C131.339 33.1198 131.167 33.1677 130.934 33.4829C130.695 33.8055 130.488 34.291 130.323 34.8504C130.161 35.3975 130.054 35.9569 129.989 36.3855C129.956 36.5982 129.934 36.7751 129.92 36.8976C129.913 36.9588 129.908 37.0062 129.905 37.0375L129.902 37.072L129.901 37.0795L129.901 37.0806Z" fill="#001064"/>
<path fill-rule="evenodd" clip-rule="evenodd" d="M108.919 34.3873C108.919 34.3871 108.919 34.387 108.115 34.3202C107.311 34.2535 107.311 34.2533 107.311 34.2531L107.311 34.2513L107.311 34.2473L107.312 34.2342C107.313 34.2233 107.315 34.2078 107.316 34.1882C107.32 34.149 107.326 34.093 107.334 34.0227C107.35 33.8823 107.375 33.6838 107.411 33.4469C107.483 32.9761 107.603 32.3391 107.793 31.6975C107.979 31.0682 108.251 30.3728 108.655 29.8273C109.064 29.2744 109.7 28.7669 110.583 28.8214C112.097 28.915 112.976 30.2411 113.394 31.377C113.616 31.9814 113.747 32.626 113.788 33.2222C113.829 33.8052 113.787 34.4063 113.61 34.8959L112.093 34.3436C112.164 34.1468 112.21 33.7963 112.178 33.3341C112.147 32.8852 112.046 32.391 111.879 31.9346C111.517 30.949 110.988 30.4655 110.483 30.4343C110.356 30.4264 110.185 30.4743 109.951 30.7895C109.713 31.1121 109.506 31.5976 109.34 32.157C109.178 32.7041 109.072 33.2636 109.006 33.6921C108.974 33.9048 108.952 34.0818 108.938 34.2043C108.931 34.2655 108.926 34.3129 108.923 34.3442L108.92 34.3786L108.919 34.3862L108.919 34.3873Z" fill="#001064"/>
<path d="M80.2555 115.638C80.4798 115.638 80.6792 115.588 80.8787 115.438C81.4022 115.089 81.5268 114.39 81.1778 113.866C78.7099 110.197 74.5966 107.801 70.1843 107.451C65.7719 107.102 61.3595 108.849 58.3432 112.094C57.9194 112.543 57.9443 113.267 58.4179 113.691C58.8667 114.115 59.5896 114.09 60.0134 113.616C62.5062 110.896 66.3453 109.398 70.0347 109.673C73.6992 109.947 77.264 112.044 79.3331 115.089C79.5325 115.463 79.8815 115.638 80.2555 115.638Z" fill="#001064"/>
<path d="M87.6598 143.942C88.4076 143.942 89.1804 143.768 89.8036 143.393C91.3741 142.52 92.4461 140.747 92.6954 138.651C92.8948 136.904 92.5707 135.157 92.2466 133.634L90.1526 123.001C89.7039 120.705 89.1804 118.134 89.9532 115.888C90.8257 113.292 93.5429 111.47 96.2851 111.645C99.0023 111.819 101.495 113.941 102.069 116.612C102.193 117.211 102.791 117.61 103.415 117.485C104.013 117.36 104.412 116.761 104.287 116.137C103.514 112.518 100.149 109.598 96.4347 109.373C92.7452 109.149 89.0308 111.645 87.8343 115.139C86.862 117.959 87.4853 120.98 87.9589 123.426L90.0529 134.058C90.3271 135.506 90.6263 136.979 90.4518 138.376C90.2773 139.774 89.6291 140.897 88.7068 141.421C88.2331 141.696 87.585 141.746 87.0365 141.596C86.7873 141.521 86.3385 141.346 86.1142 140.922C85.815 140.373 85.117 140.173 84.5935 140.473C84.0451 140.772 83.8457 141.471 84.1448 141.995C84.6185 142.844 85.4162 143.468 86.4133 143.743C86.8371 143.892 87.236 143.942 87.6598 143.942Z" fill="#001064"/>
<path d="M83.2702 154.147C88.1562 154.147 93.0173 152.749 97.1555 150.129C97.679 149.804 97.8286 149.105 97.5045 148.581C97.1804 148.057 96.4824 147.907 95.9589 148.232C91.746 150.902 86.6854 152.2 81.7246 151.851C76.7389 151.501 71.9027 149.555 68.1136 146.335C67.6399 145.936 66.917 145.985 66.5181 146.46C66.1193 146.934 66.1691 147.658 66.6428 148.057C70.8059 151.576 76.1157 153.723 81.5751 154.097C82.1235 154.122 82.6968 154.147 83.2702 154.147Z" fill="#001064"/>
<path fill-rule="evenodd" clip-rule="evenodd" d="M70.8936 22.8865C71.6975 22.5009 72.6614 22.8408 73.0464 23.6457L75.4375 28.6432C75.8226 29.4481 75.4831 30.4131 74.6792 30.7987C73.8753 31.1842 72.9115 30.8443 72.5264 30.0395L70.1353 25.042C69.7502 24.2371 70.0897 23.2721 70.8936 22.8865ZM78.0667 37.8789C78.8706 37.4933 79.8345 37.8332 80.2196 38.6381L82.6106 43.6356C82.9957 44.4405 82.6562 45.4055 81.8523 45.7911C81.0484 46.1766 80.0846 45.8367 79.6995 45.0318L77.3084 40.0344C76.9234 39.2295 77.2629 38.2645 78.0667 37.8789ZM85.2399 52.8713C86.0437 52.4857 87.0076 52.8256 87.3927 53.6305L89.7837 58.628C90.1688 59.4328 89.8293 60.3979 89.0254 60.7835C88.2216 61.169 87.2577 60.8291 86.8726 60.0242L84.4816 55.0268C84.0965 54.2219 84.436 53.2569 85.2399 52.8713ZM92.413 67.8637C93.2169 67.4781 94.1807 67.818 94.5658 68.6229L96.9568 73.6204C97.3419 74.4252 97.0024 75.3903 96.1986 75.7759C95.3947 76.1614 94.4308 75.8215 94.0457 75.0166L91.6547 70.0192C91.2696 69.2143 91.6091 68.2493 92.413 67.8637ZM99.5861 82.8561C100.39 82.4705 101.354 82.8104 101.739 83.6153L104.13 88.6128C104.515 89.4176 104.176 90.3827 103.372 90.7683C102.568 91.1538 101.604 90.8139 101.219 90.009L98.8278 85.0116C98.4427 84.2067 98.7822 83.2416 99.5861 82.8561ZM106.759 97.8485C107.563 97.4629 108.527 97.8028 108.912 98.6077L109.837 100.54L111.721 101.301C112.548 101.634 112.948 102.576 112.615 103.404C112.282 104.231 111.341 104.632 110.514 104.298L107.467 103.069L106.001 100.004C105.616 99.1991 105.955 98.234 106.759 97.8485ZM119.484 106.176C119.817 105.348 120.757 104.947 121.584 105.281L126.516 107.271C127.342 107.604 127.742 108.546 127.409 109.374C127.076 110.201 126.136 110.602 125.309 110.268L120.377 108.278C119.551 107.945 119.151 107.003 119.484 106.176ZM134.278 112.146C134.612 111.318 135.552 110.917 136.379 111.251L141.31 113.241C142.137 113.574 142.537 114.516 142.204 115.344C141.871 116.171 140.93 116.572 140.104 116.238L135.172 114.248C134.345 113.915 133.945 112.973 134.278 112.146ZM149.073 118.116C149.406 117.288 150.346 116.887 151.173 117.221L156.105 119.211C156.931 119.544 157.332 120.486 156.998 121.314C156.665 122.141 155.725 122.542 154.898 122.208L149.967 120.218C149.14 119.885 148.74 118.943 149.073 118.116ZM163.868 124.086C164.201 123.258 165.141 122.857 165.968 123.191L170.899 125.181C171.726 125.514 172.126 126.456 171.793 127.284C171.46 128.111 170.519 128.512 169.693 128.178L164.761 126.188C163.934 125.855 163.534 124.913 163.868 124.086ZM178.662 130.056C178.995 129.228 179.936 128.827 180.762 129.161L185.694 131.151C186.521 131.485 186.921 132.426 186.588 133.254C186.254 134.082 185.314 134.482 184.487 134.148L179.556 132.158C178.729 131.825 178.329 130.883 178.662 130.056Z" fill="#001064"/>
<path d="M133.239 187.962C154.605 183.141 172.788 172.282 185.831 156.641C197.234 142.921 204.596 125.517 206.594 107.563C208.668 88.6685 205.027 70.1661 196.027 54.0941C188.049 39.8644 176.043 27.83 162.168 20.2252C145.626 11.1308 128.078 6.85798 108.542 7.09318C106.232 7.28918 103.923 7.48518 101.613 7.68118C96.6026 8.07318 91.4356 8.50438 86.3862 9.05319C68.1851 11.0132 53.7169 19.402 43.373 34.0628C30.765 51.8597 22.5802 69.2253 18.3116 87.1397C15.3627 99.6446 12.8884 114.384 17.0696 129.045C25.3921 158.013 43.9911 177.457 72.278 186.747C90.4569 192.706 110.386 193.098 133.239 187.962ZM70.1558 182.945C45.4676 172.165 29.5317 153.113 22.8191 126.34C21.042 119.166 19.4922 108.386 23.7954 88.3549C27.7107 70.0093 35.5422 52.2125 47.7578 33.9844C52.5191 26.85 58.5356 20.8524 65.612 16.1484C74.3304 10.3468 84.0378 9.36679 94.4602 13.2084L94.6561 13.2868C95.91 13.7572 97.203 14.2276 97.5944 14.1884C97.9852 13.8748 98.7651 12.3852 99.5449 10.8956L100.052 9.95479L101.109 9.87639C122.638 8.15158 143.83 13.4828 160.807 24.89C178.137 36.4932 190.192 53.3493 195.716 73.6157C200.609 91.6085 200.92 108.661 196.568 124.301C192.139 140.295 182.93 154.838 169.136 167.539C157.883 177.888 143.881 184.552 126.27 187.962C118.952 189.374 111.906 190.079 105.133 190.079C92.7221 190.118 81.1675 187.727 70.1558 182.945Z" fill="#001064"/>
<path d="M204.732 31.4013L207.904 23.9922L212.485 31.4013L218.475 37.0464L210.37 41.2802L206.846 48.3365L204.732 41.2802L199.799 35.2823L204.732 31.4013Z" fill="white"/>
<path d="M221.126 35.8043C219.314 35.076 217.594 34.4555 215.982 33.2956C214.409 32.1761 213.049 30.7464 211.97 29.1279C210.784 27.3475 209.957 25.3378 209.518 23.2337C209.384 22.5863 209.278 21.9119 209.224 21.251C209.238 21.1835 209.251 21.1296 209.251 21.0486C209.251 20.8194 209.251 20.5766 209.238 20.3338C209.291 19.3896 209.291 18.4455 209.238 17.5148C209.144 15.9233 206.679 15.7344 206.745 17.38C206.972 23.409 205.159 33.8216 197.842 34.5634C197.549 34.55 197.256 34.5634 196.949 34.6039C196.803 34.6039 196.656 34.6039 196.509 34.5904C195.87 34.55 195.683 35.5076 196.31 35.7099C196.669 35.8313 197.016 35.9122 197.376 35.9662C198.522 36.3438 199.615 36.708 200.601 37.5038C201.761 38.421 202.707 39.6753 203.387 40.9836C204.999 44.0858 205.186 47.741 205.373 51.1804C205.413 51.9627 206.172 52.2999 206.732 52.1381C206.785 52.165 206.852 52.192 206.919 52.2055C207.292 52.2729 207.732 52.0571 207.838 51.666C207.985 51.1265 208.025 50.533 208.051 49.953C208.118 49.8182 208.171 49.6698 208.185 49.5079C208.611 46.3653 209.904 43.4789 212.263 41.3074C213.396 40.2688 214.729 39.446 216.155 38.8795C217.088 38.5154 218.047 38.2996 219.007 38.0973C219.54 38.2726 220.073 38.4075 220.62 38.5019C222.232 38.7851 222.472 36.3573 221.126 35.8043ZM210.65 39.5135C208.931 41.0376 207.572 42.9933 206.705 45.1379C206.345 43.1282 205.759 41.186 204.693 39.4325C203.827 38.0163 202.48 36.5192 200.908 35.5615C203.067 34.7388 204.919 32.9584 206.146 30.9217C206.892 29.6809 207.505 28.3321 207.985 26.9293C208.478 28.3186 209.118 29.6404 209.931 30.8543C211.37 33.0258 213.409 35.049 215.728 36.4922C213.809 37.1801 212.023 38.2996 210.65 39.5135Z" fill="#001064"/>
<path d="M8.80947 136.541L4.22852 130.543L10.219 125.603L13.038 118.9L17.619 128.779L26.7809 134.071L16.5618 137.246L11.2761 144.655L8.80947 136.541Z" fill="white"/>
<path d="M29.0969 133.262C20.4855 131.89 14.4932 124.125 15.2337 115.96C15.4668 114.855 15.6725 113.749 15.8782 112.657C16.0976 111.485 14.123 110.992 13.7665 112.151C13.3414 113.523 13.0809 114.921 12.9574 116.32C12.3541 119.183 11.4902 122.02 9.83103 124.458C8.83003 125.936 7.54108 127.255 6.00529 128.214C5.41566 128.574 4.82603 128.867 4.20898 129.093C4.16784 129.053 4.11299 129.026 4.07186 128.986C3.11199 128.28 2.05614 128.906 1.75447 129.759C1.3431 129.839 0.931734 129.919 0.506652 129.985C-0.0418414 130.079 -0.233814 130.958 0.383241 131.131C0.986583 131.291 1.60364 131.357 2.20698 131.344C2.22069 131.357 2.24812 131.371 2.26183 131.397C7.08857 134.914 9.85846 140.774 9.37853 146.621C9.22769 148.499 12.0113 148.779 12.3404 146.941C13.6979 139.442 21.1437 134.687 28.7678 136.019C30.6052 136.339 30.8932 133.595 29.0969 133.262ZM11.833 140.534C10.8869 136.712 8.81632 133.182 5.84075 130.438C7.8976 129.466 9.73505 127.841 11.0103 126.203C12.0113 124.924 12.7792 123.539 13.3962 122.074C13.8762 124.085 14.6989 126.03 15.8782 127.814C17.4002 130.132 19.4708 132.037 21.843 133.448C17.7293 134.501 14.1367 137.045 11.833 140.534Z" fill="#001064"/>
</svg>
