<svg width="90" height="121" viewBox="0 0 90 121" fill="none" xmlns="http://www.w3.org/2000/svg">
<path d="M64.7434 103.414H58.0767L57.3624 118.33L67.1243 118.57L80.934 117.849L80.4578 112.315L78.7911 111.834L78.3149 106.542L65.4577 107.023L64.7434 103.414Z" fill="#FEF6E7"/>
<path d="M82.9599 57.4256L80.7938 54.1426L80.2522 55.2369L77.5445 59.0671L74.2952 60.435L78.3568 63.1709L80.2522 66.7275L82.1476 63.1709L86.48 60.435L86.2092 59.6143L82.9599 57.4256Z" fill="white"/>
<path d="M89.7523 60.2093C89.2751 59.8465 88.4896 59.861 87.9023 59.6942C87.2562 59.5056 86.6322 59.2661 86.0449 58.9614C84.8409 58.3375 83.7838 57.4887 82.9763 56.4657C82.1467 55.4138 81.5814 54.1586 81.3245 52.8818C81.3171 52.831 81.3024 52.7729 81.2951 52.7222C81.53 51.4453 81.5814 50.1467 81.3905 48.9351C81.2804 48.2096 80.0177 48.2168 79.959 48.9641C79.9443 49.1237 79.9369 49.2833 79.9443 49.4429C79.9443 49.501 79.9516 49.5517 79.9663 49.6025C79.981 50.6182 79.9883 51.6194 79.8195 52.6424C79.6139 53.8902 79.2322 55.1236 78.6889 56.2844C78.2191 57.2928 77.5804 58.265 76.648 58.9759C75.6202 59.7595 74.4016 60.0279 73.0875 60.0424C72.669 60.0497 72.4928 60.5358 72.904 60.7099C73.271 60.8622 73.6454 60.9493 74.0052 60.9783C74.1887 61.0944 74.3649 61.2032 74.5778 61.2975C74.9816 61.4789 75.3706 61.6675 75.7377 61.9069C76.4865 62.3785 77.1472 62.9589 77.6832 63.6264C78.8357 65.0701 79.3203 66.9201 79.1221 68.6831C79.078 69.0821 79.3643 69.3288 79.6947 69.3941C80.0544 69.989 81.0895 69.7786 81.0308 69.0023C80.8693 66.8403 81.4493 64.7219 83.2112 63.1693C84.0187 62.4583 84.9658 61.9505 86.0156 61.595C86.6983 61.3556 87.4104 61.2613 88.1152 61.1524C88.6438 61.2903 89.2017 61.3701 89.6495 61.1815C90.09 60.9928 90.1047 60.4705 89.7523 60.2093ZM85.6412 60.3689C84.3417 60.7316 83.1157 61.4136 82.1614 62.2915C81.3171 63.0677 80.627 64.0327 80.1572 65.0774C79.8709 64.3228 79.4598 63.5974 78.9238 62.9372C78.2998 62.1609 77.4996 61.4789 76.6113 60.9565C76.4131 60.8405 76.2076 60.7316 75.9947 60.6228C77.5143 59.9916 78.8137 58.6132 79.5332 57.3944C79.9663 56.6616 80.3407 55.8563 80.6491 55.022C80.9354 55.7402 81.3098 56.4295 81.7796 57.0751C82.6459 58.265 83.8425 59.2807 85.186 60.0061C85.3842 60.115 85.5898 60.2165 85.7953 60.3109C85.7513 60.3399 85.6999 60.3544 85.6412 60.3689Z" fill="#001064"/>
<path fill-rule="evenodd" clip-rule="evenodd" d="M43.7405 0.641995C43.1954 0.61337 42.6618 0.754922 42.0897 0.83087C41.7519 0.855524 41.6328 1.10364 41.6557 1.44399C41.5286 2.58196 41.8429 3.72191 41.9884 4.87418C42.222 6.32785 42.6629 7.8348 43.0654 9.27614C43.2034 9.81331 43.4106 9.86659 43.879 9.764C45.3111 9.35167 45.3111 9.35167 45.0122 7.93697C44.5255 5.74931 44.1694 3.48373 43.8516 1.28374C43.8018 1.04796 43.752 0.812173 43.7405 0.641995Z" fill="#001064"/>
<path fill-rule="evenodd" clip-rule="evenodd" d="M59.6769 3.52023C59.7189 3.28291 59.8217 3.25282 60.0212 3.36311C60.0877 3.39987 60.2569 3.40655 60.3235 3.44331C61.6293 3.90448 61.6958 3.94123 61.3466 5.22478C60.7685 7.25037 60.0876 9.30606 59.5095 11.3317C59.4313 11.6358 59.2924 11.7328 59.0566 11.6893C58.3856 11.4922 57.6784 11.3619 57.0074 11.1647C56.7051 11.0845 56.6748 10.9809 56.753 10.6767C57.6814 8.32354 58.6097 5.97036 59.5018 3.68403C59.6045 3.65394 59.6407 3.58709 59.6769 3.52023Z" fill="#001064"/>
<path fill-rule="evenodd" clip-rule="evenodd" d="M74.3815 17.4172C73.1803 18.8378 71.7492 20.0446 70.3846 21.2881C70.3484 21.3549 70.1733 21.5187 70.1068 21.482C69.5444 21.0842 69.3624 20.4626 68.9389 19.9679C68.6787 19.6504 69.023 19.4933 69.1981 19.3295C70.5989 18.0191 71.9996 16.7087 73.3339 15.3616C73.6479 15.1009 73.8171 15.1076 74.0773 15.4251C74.1076 15.5287 74.2406 15.6022 74.3071 15.639C75.0574 16.4879 75.0574 16.4879 74.3815 17.4172Z" fill="#001064"/>
<path d="M52.2948 113.767C57.628 112.71 63.1156 113.012 68.5407 113.012C69.0623 113.012 70.4518 112.756 70.7114 113.404C71.058 114.269 70.9002 115.686 70.822 116.575C70.7485 117.41 70.7016 118.544 69.7505 118.544C65.6118 118.544 61.4731 118.544 57.3345 118.544C56.0714 118.544 54.7318 118.417 53.47 118.551C53.1925 118.581 51.4388 119.016 51.327 118.866C51.1709 118.655 51.376 118.022 51.3961 117.804C51.4806 116.886 51.4737 115.946 51.5205 115.024C51.5924 113.608 51.5482 112.181 51.5482 110.763C51.5482 109.923 51.5067 109.073 51.5482 108.235C51.5623 107.949 55.9866 107.936 56.3805 107.92C59.6175 107.792 62.9109 107.773 66.1349 108.116C66.6898 108.175 66.696 108.819 66.7847 109.254C66.9924 110.274 67.1027 111.343 67.1027 112.384" stroke="#001064" stroke-width="2.5" stroke-linecap="round" stroke-linejoin="round"/>
<path d="M53.1355 103.246C56.0741 103.246 59.0108 103.234 61.9498 103.246C62.4879 103.248 63.026 103.246 63.564 103.246C64.0813 103.246 64.6856 103.169 65.2024 103.253C65.345 103.276 65.3756 103.924 65.3925 104.035C65.4966 104.718 65.5858 105.427 65.6345 106.117C65.6457 106.275 65.5782 106.606 65.6552 106.752C65.7272 106.889 65.7805 107.388 65.6414 107.458" stroke="#001064" stroke-width="2.5" stroke-linecap="round" stroke-linejoin="round"/>
<path d="M67.632 112.55C69.8216 112.522 71.9999 112.153 74.1926 112.096C75.1045 112.072 75.9703 112.003 76.868 111.89C78.0424 111.742 79.2622 111.973 80.4144 112.187C80.5959 112.22 80.6974 112.274 80.7462 112.459C80.9392 113.191 81.0408 113.955 81.0954 114.708C81.1469 115.421 81.1334 116.136 81.1334 116.849C81.1334 117.064 81.1631 117.187 80.964 117.314C79.8943 117.995 78.6309 118.334 77.3726 118.334C75.8327 118.334 74.3097 118.082 72.7719 118.082C72.2171 118.082 71.6692 118.145 71.1162 118.145" stroke="#001064" stroke-width="2.5" stroke-linecap="round" stroke-linejoin="round"/>
<path d="M66.0767 107.018C68.9958 106.986 71.9027 106.566 74.8184 106.518C75.7518 106.503 76.6905 106.487 77.6217 106.564C77.8835 106.585 78.057 106.625 78.2715 106.752C78.426 106.844 78.4092 107.288 78.4305 107.451C78.5549 108.402 78.6521 109.359 78.7381 110.315C78.7881 110.87 78.8937 111.364 78.8937 111.921" stroke="#001064" stroke-width="2.5" stroke-linecap="round" stroke-linejoin="round"/>
<path d="M15.6767 65.9421H61.9337C63.4573 65.9421 64.6361 67.2783 64.4636 68.8178L59.03 116.078C58.8863 117.385 57.7938 118.344 56.5001 118.344H22.9214C21.6565 118.344 20.5928 117.414 20.4203 116.165L13.1756 68.905C12.9456 67.3364 14.1243 65.9421 15.6767 65.9421Z" fill="#E3F8F0"/>
<path d="M15.6769 65.7683C19.6442 65.7683 23.6115 65.7102 27.5789 65.5069L30.54 65.3617L33.5012 65.2164L39.4522 64.8969C43.4195 64.6936 47.3869 64.5483 51.3542 64.4902C53.3379 64.4902 55.3216 64.4902 57.3052 64.4902C58.2827 64.4902 59.2889 64.5193 60.2664 64.5193L61.7613 64.5483H61.9625L62.25 64.5774C62.4513 64.5774 62.6238 64.6355 62.7963 64.6645C63.17 64.7517 63.515 64.8969 63.8312 65.1002C64.4924 65.4778 65.0099 66.0588 65.3262 66.7269C65.6711 67.395 65.7574 68.1793 65.6711 68.9055C65.5274 69.8931 65.3837 70.8807 65.2112 71.8683L64.32 77.8521C63.7162 81.8026 63.0837 85.7821 62.595 89.7325C61.5888 97.6915 60.8413 105.651 60.2089 113.639L60.0939 115.149L60.0364 115.904L60.0076 116.079V116.166L59.9789 116.282C59.9501 116.456 59.9214 116.631 59.8926 116.776C59.6914 117.444 59.3176 118.054 58.8002 118.519C58.2827 118.983 57.5927 119.274 56.9027 119.361C56.5003 119.39 56.299 119.39 56.0403 119.419L55.2928 119.448L53.7979 119.506L50.8367 119.593C46.8694 119.71 42.902 119.768 38.9347 119.826L27.0327 119.971L24.0715 120H23.3241H22.9503H22.8353H22.6916C22.5766 120 22.4903 120 22.3753 119.971C21.5416 119.884 20.7654 119.506 20.1329 118.983C19.5005 118.431 19.0405 117.705 18.8105 116.892C18.7817 116.805 18.753 116.689 18.7242 116.601C18.6955 116.514 18.6667 116.369 18.6667 116.34L18.6092 115.962L18.4942 115.207L18.063 112.244C17.488 108.294 16.9131 104.314 16.3956 100.335L16.0218 97.343L15.7344 94.4092C15.5044 92.4339 15.3031 90.4297 15.1019 88.4254L14.5269 82.4416L14.2394 79.4497L13.8944 76.4578C13.6932 74.4535 13.4344 72.4783 13.1757 70.5031L12.9745 69.0216C12.8882 68.4988 12.9745 67.9469 13.1757 67.4531C13.4057 66.9593 13.7507 66.5236 14.1819 66.2331C14.6419 65.9136 15.1594 65.7683 15.6769 65.7683ZM15.6769 66.0878C14.7281 66.0878 13.8369 66.6978 13.4919 67.5693C13.3195 68.005 13.262 68.4697 13.3769 68.9345L13.6357 70.4159C13.9807 72.3912 14.3544 74.3664 14.7569 76.3126L15.3319 79.2464L15.9356 82.2092L17.1718 88.1059C17.5743 90.0811 17.9768 92.0273 18.3505 94.0025L18.9255 96.9654L19.4717 99.9282C20.1617 103.879 20.8229 107.829 21.4554 111.78L21.9154 114.742L22.0304 115.498L22.0879 115.875C22.0879 115.962 22.1166 115.962 22.1166 115.962C22.1166 115.991 22.1166 115.991 22.1454 116.021C22.1741 116.195 22.2891 116.311 22.4041 116.427C22.5191 116.543 22.6916 116.601 22.8353 116.631C22.8641 116.631 22.8641 116.631 22.8928 116.631H22.9216H22.9503H23.0078H23.3816H24.129L27.0902 116.66L38.9922 116.805C42.9595 116.863 46.9269 116.921 50.8942 117.037L53.8554 117.124L56.7302 117.211C57.3052 117.182 57.8802 116.805 58.0814 116.224C58.1102 116.137 58.1389 116.079 58.1389 115.991V115.933V115.846L58.1677 115.672L58.2827 114.917L58.5127 113.435C59.7201 105.505 60.7838 97.5753 61.6176 89.6163C62.02 85.6368 62.3363 81.6283 62.6238 77.6488L63.055 71.665C63.1125 70.6774 63.2275 69.6607 63.285 68.6731C63.3137 68.1502 62.9975 67.6564 62.5663 67.4531C62.4513 67.395 62.3363 67.3659 62.2213 67.3369C62.1638 67.3369 62.1063 67.3078 62.0488 67.3369C62.02 67.3369 61.9913 67.3369 61.9625 67.3369H61.79L60.2951 67.3659C59.3176 67.395 58.3114 67.395 57.334 67.395C55.3503 67.424 53.3666 67.395 51.383 67.3659C47.3869 67.3078 43.4195 67.1336 39.4809 66.9593L33.5299 66.6398L30.54 66.4655L27.5789 66.3493C23.6115 66.175 19.6442 66.0878 15.6769 66.0878Z" fill="#001064"/>
<path d="M41.1833 102.903C41.0521 103.515 40.9368 104.15 40.7643 104.777C40.6597 105.154 40.4991 105.531 40.3056 105.897C40.1412 106.208 39.8396 106.477 39.3071 106.455C38.7806 106.431 38.5965 106.162 38.6331 105.829C38.6874 105.325 38.7848 104.819 38.8823 104.313C38.9367 104.015 39.0221 103.716 39.1012 103.376C38.8154 103.421 38.6147 103.452 38.3957 103.486C38.3063 104.045 38.2308 104.573 38.1426 105.099C38.1157 105.25 38.137 105.431 38.0175 105.547C37.8386 105.721 37.5783 105.934 37.3186 105.986C36.944 106.061 36.7242 105.844 36.7118 105.598C36.6834 105.124 36.7103 104.645 36.7124 104.166C36.7135 103.969 36.7214 103.775 36.7287 103.618C35.895 103.416 35.1179 103.259 34.3875 103.041C32.5698 102.508 31.5665 101.476 31.0643 100.177C30.9611 99.9074 30.9855 99.5762 31.1105 99.2924C31.1884 99.1082 31.5181 98.9018 31.7971 98.8124C32.1534 98.6984 32.3974 98.8705 32.5423 99.0873C32.8762 99.5644 33.2156 100.037 33.5549 100.509C34.219 101.438 35.4435 101.836 36.9779 102.102C37.108 100.991 37.256 99.956 37.342 98.9227C37.5371 96.7224 37.689 94.5246 37.8842 92.3242C37.9357 91.7202 37.7697 91.2422 37.1384 90.8154C35.9026 89.9743 34.9737 88.9808 34.6809 87.7081C34.1996 85.6042 35.4105 83.6159 38.1383 82.2697C38.7118 81.9877 38.964 81.722 38.9868 81.2567C39.0246 80.3988 39.1738 79.5362 39.2859 78.6751C39.3137 78.4483 39.347 78.2165 39.4187 77.9913C39.4933 77.7447 39.5525 77.4375 40.0618 77.4299C40.4908 77.4264 40.5191 77.6949 40.5095 77.9188C40.4731 78.8269 40.4056 79.7356 40.3509 80.6466C40.3383 80.892 40.3319 81.1364 40.3182 81.4156C40.9021 81.3251 41.4069 81.2469 41.9969 81.1554C42.1482 80.5527 42.2964 79.9295 42.4695 79.3067C42.5627 78.9774 42.6815 78.6526 42.8252 78.3281C42.9376 78.084 43.2216 77.8637 43.57 77.944C43.802 77.9962 44.0608 78.2247 44.062 78.3967C44.0645 78.9461 43.9569 79.5085 43.8797 80.0661C43.8311 80.443 43.7636 80.8187 43.6986 81.2107C43.8551 81.2578 43.974 81.3024 44.1031 81.3327C46.01 81.7969 46.8584 82.7106 46.6236 84.1574C46.5437 84.6567 46.2965 85.1609 46.0664 85.6541C45.9395 85.9256 45.7245 86.2317 45.2096 86.2024C44.7385 86.1747 44.7843 85.8612 44.7664 85.6205C44.7357 85.1719 44.7901 84.7102 44.7168 84.2682C44.6217 83.6827 44.5471 83.0688 43.4879 82.7754C43.3396 83.8898 43.1873 84.9375 43.0668 85.9888C42.8505 87.886 42.672 89.7857 42.4369 91.6816C42.3878 92.0964 42.5239 92.3775 42.9271 92.655C43.559 93.086 44.1478 93.5614 44.6547 94.0705C46.1312 95.5542 46.3707 97.2549 45.5854 99.1353C44.9149 100.788 43.4197 102.01 41.1833 102.903ZM39.4086 101.793C39.4575 101.663 39.5113 101.567 39.5213 101.469C39.8315 98.9189 40.0985 96.3716 40.4652 93.8257C40.5789 93.0567 40.0033 92.7514 39.1855 92.408C38.9464 95.6309 38.7131 98.769 38.478 101.937C38.8491 101.879 39.1228 101.837 39.4086 101.793ZM40.1786 82.9567C40.1293 83.2875 40.0863 83.5377 40.0622 83.789C39.8642 85.6834 39.7344 87.5756 39.4493 89.4708C39.3309 90.2489 39.7595 90.6526 40.5943 90.985C40.9675 88.1946 41.3349 85.4471 41.7134 82.6097C41.1777 82.7305 40.7259 82.8299 40.1786 82.9567ZM41.3954 101.061C44.4014 99.7427 44.8445 95.485 42.1745 94.5052C41.913 96.6781 41.6569 98.8459 41.3954 101.061ZM38.6862 83.7462C36.2224 85.232 35.9675 87.9411 38.0952 89.0805C38.2955 87.3243 38.4855 85.5822 38.6862 83.7462Z" fill="#001066"/>
<path d="M77.9437 33.3351C77.5743 32.3423 76.7331 31.639 75.6456 31.3908C72.9576 30.791 70.4338 33.0662 69.49 34.0797C67.9921 35.6517 66.0428 38.1131 65.3041 40.8434V41.0089L65.1605 41.1123C62.4315 42.8498 59.9693 44.9802 57.8559 47.483L57.3019 48.1449V47.2968C57.3224 46.0972 57.1993 44.7527 56.9325 43.1807L56.912 43.0773L56.953 42.9946C56.9941 42.9325 57.0146 42.8498 57.0146 42.767C57.3429 40.6366 59.2511 39.5196 60.9337 38.5268C61.5903 38.1545 62.1853 37.7822 62.7188 37.3892C63.7858 36.5618 64.9553 35.0105 64.9553 33.604C64.9553 32.8801 64.6476 32.2802 64.0525 31.7838C62.1648 30.2739 59.5794 32.3836 58.4919 33.7074C57.7533 34.5968 57.1172 35.6931 56.5222 37.0582L56.3785 37.3685C56.2964 37.5753 56.1939 37.7822 56.1118 37.989L55.804 38.6923L55.5373 37.9683C55.4141 37.6581 55.3115 37.3685 55.1884 37.0789L55.1679 37.0169V36.9548C55.1679 36.9134 55.1474 36.8721 55.1269 36.8307L55.0448 36.748L54.9012 36.417L55.0038 36.2722C55.0448 36.2102 55.0653 36.1481 55.0858 36.0654C55.4552 33.8729 56.7684 32.3009 58.0405 30.7496C58.7176 29.9222 59.4358 29.0742 59.9898 28.1227C60.5643 27.1299 61.2209 25.6406 60.9542 24.2134C60.749 23.0965 59.8872 22.0002 58.574 22.0623C57.3634 22.1244 56.6453 23.324 55.9887 24.3789C55.9271 24.4823 55.8656 24.5858 55.804 24.6892C55.0038 25.9923 54.2856 27.4195 53.7111 28.9294C53.3623 29.8602 52.5826 32.2182 52.9929 34.2659L53.1366 34.9898L52.521 34.5762C51.1463 33.6661 49.5868 32.9628 47.9043 32.4664C46.6527 32.1147 42.5284 31.184 41.4409 34.39C41.4204 34.452 41.3999 34.5141 41.3794 34.5762L41.2973 34.8864L41.2768 35.1553C41.2152 35.7965 41.3999 36.3757 41.8103 36.8514C42.6926 37.8649 44.3751 38.2993 45.6678 38.3613C46.2628 38.382 46.8784 38.3613 47.4734 38.32C48.4173 38.2786 49.3816 38.2165 50.3665 38.4027C51.0847 38.5268 51.7823 38.7336 52.4594 39.0025C52.7877 39.1266 53.116 39.3128 53.4238 39.4783C53.8342 39.7058 54.2241 39.9126 54.6549 40.0367C54.737 40.0574 54.8191 40.0781 54.9012 40.0574L55.1474 40.0367L55.2295 40.2849C55.4141 40.8848 55.5578 41.4639 55.7014 42.0224L55.7219 42.0845L55.5988 42.5602L55.25 42.4154C53.6906 41.7535 51.5977 41.6087 49.3201 41.981C47.3093 42.312 44.8265 43.1393 44.3956 45.2284C44.2315 46.0144 44.3751 46.6763 44.8265 47.1934C45.4831 47.9174 46.7758 48.3104 48.1505 48.1656C49.0944 48.0622 50.0382 47.7726 50.9616 47.483C52.6031 46.9659 54.3061 46.4488 56.1323 47.0073L56.3375 47.0693V47.2968C56.3375 47.3382 56.3375 47.3589 56.3375 47.4003C56.3375 47.4416 56.3375 47.483 56.3375 47.5244C56.358 48.1242 56.3375 48.7034 56.3375 49.2825V49.3859L56.2759 49.4687C55.9476 49.9237 55.6604 50.3581 55.4141 50.7511C54.7575 51.7646 54.1625 52.8815 53.629 54.0605L53.4443 54.4949L53.1366 54.1433C52.3158 53.2125 51.1257 52.4058 49.8125 51.8473C49.3201 51.6405 48.2326 51.2268 47.1246 51.2268C46.1807 51.2268 45.2574 51.5164 44.7034 52.4885C44.3956 53.0263 44.334 53.5848 44.4982 54.1433C44.847 55.2188 46.0166 56.0462 46.9194 56.4392C47.4119 56.646 47.9248 56.8322 48.4378 57.0183C48.8687 57.1631 49.3201 57.3286 49.751 57.5148C50.305 57.7423 50.7154 57.9698 51.0847 58.1973C51.372 58.3835 51.5977 58.6317 51.8234 58.8592L51.9465 58.9833L51.9054 59.1488C51.3309 61.4034 51.1257 63.3477 51.2899 65.0438C51.3309 65.3747 51.6387 65.6022 51.926 65.6022C52.1722 65.6229 52.2953 65.4988 52.3569 65.2299C52.521 64.3819 52.6646 63.5131 52.7877 62.6651C53.034 61.1138 53.2802 59.5004 53.7316 57.9284L53.7932 57.7009H54.0189C54.2241 57.7009 54.4087 57.6802 54.6344 57.6802C54.9627 57.6596 55.3115 57.6389 55.6604 57.6802C56.2144 57.7216 56.7479 57.8043 57.2813 57.9078C57.5276 57.9491 57.7533 57.9905 57.9995 58.0319C59.4768 58.2594 60.8516 58.2801 62.1853 58.0939C63.7037 57.8871 65.7556 57.2252 66.4942 55.9841C66.8225 55.4257 66.8636 54.8258 66.6173 54.1019C66.0223 52.4058 64.1141 51.806 60.9952 52.2817L60.5233 52.3438C59.1075 52.5506 57.507 52.7988 56.1323 53.3366L55.3731 53.6469L55.763 52.9022C56.0297 52.3851 56.317 51.868 56.6042 51.3716C56.8915 50.8959 57.1787 50.4201 57.5276 49.9237L57.6096 49.7996L57.7533 49.7789C57.8148 49.7789 57.8764 49.7582 57.9379 49.7376C60.5233 48.4965 62.8829 49.0757 65.3862 49.6962C66.0428 49.8617 66.7199 50.0271 67.4176 50.1512C68.7308 50.3995 70.1055 50.6063 71.193 49.9651C72.1574 49.4066 72.5883 48.3517 72.26 47.3382C71.4187 44.7734 67.8895 44.339 66.4327 44.2563C65.6735 44.2149 64.9143 44.2563 64.1961 44.339L62.6572 44.5459L64.0115 43.7806C64.2372 43.6564 64.4629 43.5323 64.6681 43.3876C65.3042 43.0152 65.9402 42.6429 66.5968 42.312C67.91 41.6501 69.2437 41.0916 70.4954 40.5745C70.8852 40.4091 71.2956 40.2436 71.7265 40.0781C73.8194 39.2714 76.1996 38.3613 77.4717 36.6032C78.1488 35.6517 78.3335 34.4107 77.9437 33.3351ZM53.8137 37.989C53.3828 37.7822 52.9109 37.6167 52.5005 37.4719L52.4594 37.4512C51.4335 37.0789 50.3255 36.8721 49.1559 36.7893C48.5609 36.748 47.9659 36.7893 47.3913 36.8307C46.8784 36.8721 46.3449 36.8928 45.8114 36.8928C43.9852 36.8514 42.9593 36.3963 42.7541 35.5483C42.672 35.1553 42.7336 34.7623 42.9798 34.4314C43.4107 33.8315 44.3135 33.5006 44.9496 33.4385C46.1807 33.3351 47.4529 33.6661 48.5404 33.9763C50.1819 34.452 51.7823 35.176 53.6085 36.2929L53.6906 36.3343L53.7316 36.417C53.8958 36.7893 54.0599 37.1823 54.2241 37.5753L54.5113 38.2993L53.8137 37.989ZM54.2446 33.8522L53.6906 35.3621L53.6495 33.7488C53.6495 33.5006 53.6495 33.2731 53.6701 33.0662C53.7932 31.8872 54.0804 30.7496 54.5318 29.612C54.5524 29.5499 56.8504 24.0687 58.4304 23.4688C58.7382 23.3654 58.9639 23.4274 59.087 23.4895C59.3742 23.6343 59.5589 23.8825 59.641 24.1928C59.9488 25.2683 59.0459 26.9644 58.9434 27.1506C58.3893 28.1434 57.6302 29.0121 56.912 29.8395L56.7479 30.0257C55.845 31.1219 54.7781 32.4043 54.2446 33.8522ZM53.0545 55.405C52.8493 55.9428 52.6441 56.5012 52.4594 57.0804L52.3363 57.4734L51.9875 57.2459C51.2694 56.7495 50.305 56.4392 49.3816 56.1289C48.1916 55.7566 46.981 55.3429 46.1397 54.5363C45.5857 53.9778 45.6472 53.4814 45.7293 53.2332C45.8935 52.7574 46.4064 52.4058 47.0836 52.3438C47.9864 52.261 48.9508 52.5713 49.7715 52.9229C51.0642 53.44 52.0696 54.2674 52.9519 55.0947L53.116 55.2395L53.0545 55.405ZM59.8872 53.3159C60.0719 53.2952 60.2976 53.2539 60.5438 53.2332C62.1853 52.985 64.9143 52.5713 65.6324 54.4122C65.7761 54.7845 65.7556 55.1568 65.5914 55.4877C65.1605 56.3151 63.8678 56.7288 63.1497 56.8942C62.3495 57.0804 61.5287 57.1631 60.6874 57.1631C60.2771 57.1631 59.8667 57.1425 59.4563 57.1011C58.8818 57.039 58.2662 56.8942 57.6096 56.7495C56.6247 56.5219 55.6193 56.2944 54.696 56.3358L54.2241 56.3565L54.3882 55.9221C54.5729 55.405 54.7781 54.9293 55.0038 54.4535L55.0653 54.3294L55.1884 54.2881C56.5222 53.833 57.9585 53.5434 59.8872 53.3159ZM55.7835 45.2698C54.6549 45.0009 53.3418 45.0837 51.6592 45.5801C51.3309 45.6835 51.0026 45.7869 50.6948 45.8903C50.0588 46.0972 49.3816 46.3247 48.7045 46.4488H48.6635C48.3557 46.5109 47.8427 46.6143 47.3503 46.6143C46.7553 46.6143 46.2013 46.4695 46.0166 45.9731C45.914 45.6835 45.9345 45.3732 46.0987 45.0836C46.7758 43.8426 49.8946 43.1807 50.264 43.098C51.9465 42.7464 53.4854 42.9532 55.1269 43.1807C55.3321 43.2014 55.5373 43.2428 55.7424 43.2635L55.9681 43.2841L56.0092 43.5117C56.0913 43.9667 56.1528 44.4424 56.2144 44.9389L56.2759 45.3732L55.7835 45.2698ZM56.3375 40.4504L56.0913 39.6231L56.1323 39.5196C56.2349 39.2921 56.3375 39.0646 56.4196 38.8371C56.5837 38.4648 56.7479 38.0718 56.9325 37.7201C57.507 36.6239 58.0611 35.7758 58.6561 35.0519C59.2306 34.3693 59.9898 33.5213 60.9542 32.9628C61.4261 32.6939 62.4726 32.3009 63.1087 32.7353C63.3344 32.9007 63.6011 33.2317 63.4985 33.9349C63.2318 35.6517 61.4261 36.6446 59.9693 37.4512C59.6 37.6581 59.2717 37.8442 58.9844 38.0304C57.9995 38.6509 57.2403 39.2921 56.6863 39.9954L56.3375 40.4504ZM66.0633 45.0836C67.3971 45.1871 68.423 45.4146 69.3053 45.8076C69.7977 46.0351 71.2135 46.8832 71.3366 47.8967C71.3777 48.1863 71.3161 48.6206 70.8032 49.0136C70.3928 49.3446 69.8593 49.448 69.3053 49.448C68.5051 49.448 67.6638 49.2205 67.0277 49.0343C66.9251 49.0136 66.8225 48.9723 66.7405 48.9516C66.3096 48.8481 65.8787 48.724 65.4683 48.5999C64.6476 48.3724 63.8063 48.1242 62.965 47.9587C61.7544 47.7312 60.6669 47.7105 59.7231 47.8553L58.9023 48.0001L59.4563 47.3589C59.9488 46.7797 60.4617 46.2006 60.9952 45.6421L61.0568 45.5801L61.1183 45.5594C62.5341 45.0837 64.1551 44.9389 66.0633 45.0836ZM76.7536 34.6796C76.4868 36.2722 74.8043 37.0376 73.5732 37.6167L73.4295 37.6788C72.3831 38.1752 71.2751 38.6095 70.2286 39.0232C69.9824 39.1266 69.7157 39.2301 69.4694 39.3335C69.2643 39.4162 69.0385 39.499 68.8334 39.5817C68.1562 39.8506 67.4586 40.1195 66.7815 40.4297L66.6173 40.4918L66.4737 40.3884C66.4532 40.3677 66.4327 40.3677 66.3916 40.347L65.9197 40.2436L66.207 39.8506C66.3916 39.6024 66.5558 39.3542 66.7405 39.1266C67.7459 37.7408 68.7923 36.3136 70.044 35.0519C71.1315 33.9556 72.1369 33.2731 73.2038 32.8594C73.9425 32.5905 75.4199 32.4043 76.2611 33.1076C76.5689 33.3972 76.8972 33.8729 76.7536 34.6796Z" fill="#001064"/>
<path d="M35.7773 55.9853C36.9674 55.675 38.2191 55.3441 39.3476 54.827C40.4966 54.3099 41.9535 53.3584 42.4664 51.7243C42.8768 50.4006 42.6306 49.0147 41.7893 48.146C39.8195 46.119 36.0236 47.6082 33.192 49.2216C31.7557 50.0283 30.504 51.0004 29.4576 52.0967C28.9446 52.6344 28.3085 53.3584 28.0418 54.0823L27.8161 54.6822L27.4878 54.1444C27.0569 53.4204 26.585 52.7172 26.0515 51.9519C25.5795 51.29 25.0666 50.6074 24.4921 49.9248L24.3279 49.7387L24.4921 49.5318C24.5331 49.4698 24.5947 49.3871 24.6152 49.3043C25.1487 47.8978 26.7696 47.4634 28.0623 47.0911C28.247 47.0498 28.4316 46.9877 28.5958 46.9463C29.4165 46.6981 30.2578 46.5533 31.058 46.4085C31.8993 46.2638 32.7816 46.0983 33.6024 45.8501C34.2179 45.6639 35.7158 45.0434 36.1056 43.5955C36.3929 42.5406 35.8594 41.341 34.8335 40.6791C32.3097 39.0243 28.3085 41.3616 27.139 42.1063C26.0515 42.8095 25.1281 43.6989 24.451 44.6711L23.3635 46.2638L23.9175 44.4022C24.0612 43.9058 24.2458 43.368 24.4715 42.7475C24.8409 41.734 25.2923 40.6791 25.7847 39.6242L25.8258 39.5414L25.8873 39.5001C26.0925 39.3553 26.2977 39.1691 26.5029 39.0037C26.7696 38.7555 27.0569 38.5279 27.3852 38.3211C27.9392 37.9695 28.5753 37.7212 29.396 37.5351C30.6887 37.2248 32.0019 37.2041 33.2946 37.1628C33.5613 37.1628 33.8281 37.1421 34.1153 37.1421H34.2179C35.9415 37.08 39.9426 36.9766 40.6403 35.053L40.7223 34.8048L40.7429 34.5152C40.7429 34.3704 40.7429 34.2256 40.7223 34.1015C40.6403 33.419 40.3325 32.9019 39.799 32.5089C38.2191 31.3299 35.1823 31.7436 34.2795 31.909C32.8637 32.1572 31.4479 32.6537 30.1757 33.3362L28.9857 33.9981L29.7859 32.8812C30.3604 32.0952 30.976 31.2885 31.6531 30.4818L31.6941 30.4405L31.7557 30.4198C32.8226 29.882 33.9307 29.882 35.0797 29.9027C35.3464 29.9027 35.6132 29.9027 35.8799 29.9027C36.3519 29.9027 36.8238 29.9027 37.2957 29.882C38.4653 29.882 39.6964 29.882 40.866 29.7786C43.4308 29.5717 46.1598 28.3927 46.1393 25.6831C46.1393 24.8144 45.852 24.1732 45.2775 23.7595C44.1284 22.9322 42.0766 23.1597 40.6813 23.6147C40.4351 23.6975 40.1478 23.8009 39.84 23.9043L38.137 24.5248L39.5528 23.3665C40.5172 22.5805 41.1738 21.898 41.7072 21.174C42.4664 20.1191 43.2051 18.361 42.9794 16.9545C42.8768 16.2719 42.569 15.7548 42.0561 15.3618C41.5636 15.0102 41.0301 14.9067 40.4556 15.0308C38.9988 15.3618 37.583 17.0786 37.0085 18.1335C36.2082 19.602 35.1823 23.6561 34.9976 25.497L34.1769 26.1175L34.5052 24.6696C34.813 23.2631 34.854 21.8359 34.6078 20.4294C34.4847 19.7468 34.3205 19.0849 34.1358 18.4437C33.3151 15.8582 32.3507 14.2655 31.2427 13.7071C30.7092 13.4382 30.1757 13.3968 29.5602 13.6037C27.5699 14.2862 27.0979 16.5822 28.1444 20.6155C28.6574 22.6012 29.1703 24.318 29.7448 25.89C29.8269 26.1175 29.909 26.3657 30.0116 26.6139C30.2578 27.3379 30.5246 28.1032 30.8734 28.7857L30.9554 28.9719L30.8118 29.1374C29.396 30.73 28.0623 32.5502 26.8722 34.5566L26.5234 35.1564L26.3182 34.4945C26.1951 34.1015 26.0515 33.6879 25.8873 33.2742L25.8668 33.1914C25.8463 33.0053 25.7642 32.8398 25.6616 32.7157L25.6411 32.6743L25.6206 32.633C25.518 32.4054 25.4154 32.1779 25.2923 31.9711L25.2512 31.8677L25.2718 31.7642C25.7232 29.7372 25.7027 27.2758 25.2102 24.2353C24.9435 22.6219 24.5741 21.1326 24.0817 19.8089C23.6918 18.7747 23.2199 17.7198 22.3581 17.0993C21.5989 16.5615 20.7371 16.458 19.9164 16.8304C18.911 17.2854 18.1723 18.361 18.0697 19.5193C17.9466 20.8431 18.4801 22.1255 18.9931 23.3458L19.0956 23.594C19.1777 23.8009 19.2598 24.0077 19.3624 24.2353L19.7522 25.2074L18.8905 24.5869C18.3365 24.1939 17.7619 23.8216 17.1874 23.5113L17.0027 23.4079L17.0438 23.1804C17.249 22.0634 17.0438 20.7603 16.8591 19.6227C16.8386 19.4779 16.8181 19.3331 16.777 19.1677C16.5103 17.4509 16.1204 15.8375 15.628 14.369C14.9303 12.4867 13.453 9.26 10.7856 9.71505C9.8212 9.88052 9.00045 10.6458 8.65163 11.7214C8.30282 12.797 8.52852 14.1001 9.34927 15.5686C9.8212 16.396 10.3752 17.2027 10.9292 17.9887C11.6884 19.0642 12.4681 20.2019 13.0221 21.4222L13.2683 21.9807L12.6733 21.8566C12.3245 21.7738 12.0372 21.7325 11.75 21.6911C11.6474 21.6704 11.5653 21.6911 11.4832 21.7118L11.4011 21.7325L11.3191 21.7118C9.34927 21.1326 7.17429 21.0292 5.18398 21.4222C3.58352 21.7532 1.51113 22.8701 0.834014 24.318C0.485196 25.0626 0.526234 25.8279 0.936607 26.5932C2.2498 29.0133 5.30709 28.2893 7.74881 27.6895C8.15918 27.5861 8.54904 27.5033 8.91838 27.4206C9.32875 27.3379 9.75964 27.2344 10.1905 27.1517C15.2997 26.0968 16.9412 26.3037 18.6442 26.7173C18.8289 26.7587 18.8494 26.9862 18.6648 27.0276L16.8591 26.9862C16.0794 26.9655 15.2997 27.069 14.561 27.2965C12.5091 27.9584 11.5242 29.3442 11.3191 30.5853C11.1549 31.516 11.3806 32.3848 11.9757 33.1087C12.7554 34.0602 14.1096 34.6393 15.4638 34.6393C15.4844 34.6393 15.4844 34.6393 15.5049 34.6393C16.4282 34.6393 17.29 34.4325 18.2339 34.205C18.8494 34.0602 19.506 33.9154 20.1626 33.8326C21.3117 33.6879 22.3992 33.7913 23.4661 33.8947C23.9791 33.9361 24.4921 33.9981 25.0255 34.0188H25.2102L25.2923 34.1843C25.5385 34.7014 25.7642 35.2392 26.0104 35.8183L26.072 35.9631L26.0104 36.0872C25.8053 36.4595 25.6411 36.7698 25.4975 37.0594C23.856 40.3274 22.3992 43.8024 22.6659 47.1118L22.7275 47.8978L22.1529 47.3807C21.722 46.9877 21.2706 46.6154 20.8397 46.2638L20.5525 46.0362L20.7987 45.788C20.8808 45.7053 20.9423 45.5812 20.9423 45.4571C20.9834 44.2988 21.3322 43.2232 21.64 42.1683C21.9888 41.0514 22.3171 39.9965 22.3171 38.8796C22.3171 37.9901 21.9888 37.2869 21.3732 36.8732C20.7371 36.4388 19.8959 36.3975 19.0136 36.7491C17.4336 37.3903 16.4282 39.1484 16.5513 41.01C16.5924 41.7546 16.777 42.4786 17.1053 43.2439L17.4541 44.0299L16.695 43.6576C16.3051 43.4714 15.9152 43.2853 15.4638 43.0991L15.4023 43.0784L15.3612 43.0164C14.0686 41.4651 12.6528 39.9551 11.278 38.5072C10.5394 37.7212 9.78016 36.9146 9.06201 36.1079C5.61487 32.3227 3.62456 32.2813 2.12669 32.7364C0.957126 33.1087 0.136379 33.9981 0.0132664 35.0323C-0.089327 36.0872 0.403121 37.2869 1.49061 38.6107C3.25522 40.7204 6.02524 41.7546 8.75423 42.5613C9.98535 42.9336 11.237 43.2853 12.4476 43.6162L14.8688 44.2781L12.3655 44.2367C8.93889 44.1747 5.69694 45.0227 3.48092 46.574C2.53706 47.2359 1.3675 48.3528 1.18283 49.9455C1.01868 51.2693 1.65476 52.6551 2.80381 53.5032C4.99931 55.1165 7.15377 53.6893 9.26719 52.3035C9.86224 51.9105 10.4368 51.5382 11.0113 51.2279C14.7252 49.2423 18.6442 48.8906 22.3786 50.1937C22.3992 50.1937 22.4402 50.2144 22.4607 50.2144L22.5428 50.2351L22.6043 50.2971C23.384 51.1245 24.1022 51.9726 24.7383 52.862C25.3128 53.6686 25.8258 54.4133 26.2567 55.1165L26.9543 56.2128L25.8463 55.5509C23.7739 54.3099 21.5168 53.5032 19.3624 53.2136C17.29 52.9447 14.561 53.0481 13.1863 54.2064C12.5912 54.7029 12.2629 55.3441 12.2219 56.1714C12.1398 57.4331 12.8169 58.6535 13.9455 59.3568C15.3612 60.2462 17.1258 60.1428 18.6648 59.9359C22.3376 59.4395 26.0925 59.2947 28.6779 61.6113C28.7805 61.6941 28.8831 61.7561 28.9857 61.7975L29.1088 61.8388L29.1908 62.025V62.0664C29.314 62.7283 29.3755 63.3901 29.4371 64.0314C29.4986 64.6312 29.5602 65.2517 29.6628 65.8516C29.7038 66.0584 29.8885 66.0791 29.9706 66.0791C30.1142 66.0791 30.3194 66.017 30.3604 65.8309C30.8323 63.9073 30.7092 61.7561 29.9706 59.4188L29.9295 59.274L30.0116 59.1499C30.0321 59.1292 30.0321 59.1086 30.0526 59.0879C31.017 57.309 32.8842 56.7713 34.3821 56.3369C34.854 56.2128 35.3259 56.0887 35.7773 55.9853ZM36.0236 24.0905C36.0646 23.9043 36.1056 23.7388 36.1262 23.5527C36.3313 22.4771 36.557 21.3602 36.9674 20.3053C37.3778 19.209 37.9318 18.2369 38.5474 17.4923C38.9167 17.0372 40.0863 15.8996 40.9891 16.0237C41.2353 16.0444 41.5431 16.1685 41.7688 16.6028C42.8563 18.7747 40.3325 21.2981 39.5323 22.0221C39.0603 22.4357 38.5268 22.8287 38.0139 23.2217C37.5009 23.594 36.9674 23.987 36.516 24.4007L35.8184 25.0212L36.0236 24.0905ZM34.0127 27.7515C35.7158 26.7173 37.7061 25.559 39.9426 24.8144C40.0657 24.773 40.2094 24.7317 40.3325 24.6903C41.3789 24.3387 42.569 23.925 43.6975 24.1111C44.3541 24.2146 44.8261 24.5869 45.0107 25.1453C45.2364 25.8279 44.9902 26.6967 44.3952 27.3172C43.4924 28.2686 42.0561 28.4755 40.907 28.5375C40.4556 28.5582 39.9837 28.5789 39.5117 28.5789C38.9372 28.5789 38.3422 28.5582 37.7677 28.5582C37.3778 28.5582 37.0085 28.5375 36.6186 28.5375C36.3108 28.5375 35.962 28.5168 35.6132 28.4962C35.1413 28.4755 34.6078 28.4341 34.0743 28.4341H33.3767L33.9307 27.8136L34.0127 27.7515ZM30.8118 26.8414C30.422 25.4556 30.0526 24.0698 29.7859 23.0149C29.4986 21.8359 29.1498 20.4708 28.9241 19.1263C28.7394 18.0507 28.4316 16.2512 29.4165 15.217C29.8064 14.8033 30.1757 14.8033 30.4425 14.8654C31.9814 15.2997 33.0689 19.933 33.0894 19.9743C33.3561 21.1326 33.4792 22.353 33.4382 23.5734C33.4177 24.2352 33.3151 24.8765 33.2125 25.497C33.1509 25.9107 33.0689 26.3243 33.0278 26.738L33.0073 26.8621L32.9252 26.9449C32.5149 27.3172 32.084 27.7309 31.6736 28.1445L31.3043 28.5168L31.1606 28.0204C31.1196 27.8756 31.0786 27.7515 31.0375 27.6067C30.976 27.3585 30.8939 27.0896 30.8118 26.8414ZM27.8161 35.8597C28.0008 35.5494 28.2059 35.2392 28.4111 34.8875L28.4522 34.8255L28.5137 34.7841C30.2373 33.7913 31.8788 33.2121 33.6434 32.9019C34.9566 32.6743 36.2287 32.633 37.4188 32.7364C37.9728 32.7984 39.4297 32.9225 39.6759 33.9981C39.7374 34.2463 39.6964 34.4945 39.5733 34.7014C39.2655 35.2185 38.4858 35.384 37.9728 35.5081L37.8497 35.5287C36.3929 35.8804 34.895 35.839 33.4382 35.7976C32.3097 35.7769 31.1196 35.7356 29.9911 35.9011C29.355 35.9838 28.7189 36.1286 28.1444 36.3147L27.3647 36.5629L27.8161 35.8597ZM12.3245 17.1199L12.0988 16.789C11.5653 16.0237 10.9908 15.217 10.5599 14.369C10.3342 13.9346 9.86224 12.6522 10.2931 11.8662C10.4573 11.5559 10.7651 11.3491 11.1344 11.3077C12.2014 11.1836 13.0632 12.3626 13.6172 13.3761C14.1301 14.3483 14.4789 15.4032 14.8072 16.4167L14.8688 16.5822C15.2586 17.7818 15.5869 19.0436 15.8537 20.3053C15.9152 20.6155 15.9768 20.9465 16.0384 21.2774C16.1204 21.6911 16.182 22.1255 16.2846 22.5392L16.4282 23.1597L15.8537 22.9115C15.669 22.8287 15.4844 22.746 15.2997 22.6633L15.1561 22.6012L15.115 22.4564C14.6226 20.5121 13.5556 18.8781 12.3245 17.1199ZM15.1766 24.7937C14.1917 24.8558 13.2068 25.0006 12.0372 25.2074C10.8061 25.4349 9.59549 25.6624 8.44645 25.89C8.03607 25.9727 7.60518 26.0761 7.19481 26.1796C6.27147 26.4071 5.32761 26.6553 4.38375 26.6967C4.34271 26.6967 4.30167 26.6967 4.26063 26.6967C3.52196 26.6967 2.66018 26.4071 2.3524 25.8072C2.20877 25.5177 2.12669 25.0626 2.5781 24.4628C3.41937 23.3665 4.89671 22.9528 5.92265 22.746C7.48207 22.4151 9.14408 22.4151 11.1344 22.7046H11.1754L11.2165 22.7253C11.2575 22.746 11.3191 22.7667 11.3601 22.7874C12.7349 23.1597 14.048 23.6354 15.2586 24.1732L16.4077 24.6903L15.1766 24.7937ZM23.5687 32.0538C22.194 31.8883 20.5525 32.0125 18.6853 32.4054C18.5006 32.4468 18.2749 32.5089 18.0492 32.5709C17.29 32.7571 16.2846 33.026 15.3407 33.026C14.3353 33.026 13.412 32.7157 13.0016 31.7229C12.6733 30.9369 13.0426 29.7372 14.5815 28.9926C15.6075 28.4962 16.7155 28.3721 17.4747 28.3514C19.2393 28.31 20.9834 28.8478 22.6864 29.944L22.7275 29.9647L22.7685 30.0061C23.1583 30.5232 23.5277 31.061 23.897 31.6195L24.2458 32.1779L23.5687 32.0538ZM24.1022 30.0061C23.6508 29.3442 23.1583 28.703 22.6043 28.0618L22.5223 27.9791V27.855C22.5223 27.7722 22.5017 27.6895 22.4812 27.6067C22.1324 26.5932 21.681 25.5797 21.2296 24.6076C20.7371 23.5527 20.2447 22.4357 19.8754 21.2981C19.2803 19.4366 19.8343 18.6919 20.3883 18.3817C20.6345 18.2369 20.9013 18.2162 21.1475 18.2989C21.7836 18.5058 22.1734 19.3124 22.3992 19.8089C23.2609 21.6084 23.897 23.6561 24.3074 25.9107C24.5536 27.2758 24.5947 28.5996 24.6357 29.8406L24.6562 30.8748L24.1022 30.0061ZM10.4573 41.4651C10.1085 41.341 9.73912 41.2375 9.36979 41.1134C6.86651 40.3068 4.03493 39.3967 2.43447 37.08L2.41395 37.0387C2.04462 36.5009 1.42906 35.6322 1.79839 34.9289C2.31136 33.9568 3.93234 34.3497 4.117 34.3911C5.57383 34.7634 6.62028 35.9424 7.54362 36.9559L7.72829 37.1628C8.508 38.0315 9.30823 38.9209 10.0674 39.7897C10.4573 40.224 10.8266 40.6584 11.2165 41.0927L11.9962 41.9615L10.4573 41.4651ZM19.5471 37.7833C20.1216 37.5971 20.5525 37.6592 20.8397 37.9488C21.4553 38.59 21.086 40.0792 20.6345 41.4651L20.5525 41.734C20.2242 42.7268 19.9164 43.6576 19.8959 44.6504L19.8754 45.1675L19.4239 44.9193C19.1572 44.7745 18.8905 44.6297 18.6237 44.5056L18.5416 44.4642L18.5006 44.3815C18.0287 43.5128 17.7414 42.7061 17.6183 41.9408C17.3105 40.2654 17.885 38.3004 19.5471 37.7833ZM18.952 47.8564C17.7414 47.7737 16.4693 47.8564 15.1766 48.1046C12.2424 48.6631 9.78016 50.111 7.58466 51.6002C6.98962 51.9932 5.9842 52.6758 4.93775 52.6758C4.4453 52.6758 3.95285 52.531 3.48092 52.1173C2.96796 51.6623 2.70121 51.1038 2.6807 50.4833C2.66018 49.7387 3.02951 48.9527 3.66559 48.3322C5.73798 46.3258 9.12356 45.6846 11.6063 45.5191C13.412 45.395 15.2792 45.5398 17.1053 45.9742L17.1464 45.9949L17.1874 46.0156C17.844 46.4292 18.5006 46.8429 19.1162 47.298L19.9779 47.9392L18.952 47.8564ZM24.4715 46.3465C25.2718 44.94 26.5029 43.761 28.0008 42.8923C29.0472 42.2924 30.1963 41.8581 31.4479 41.5478C31.53 41.5271 33.4792 41.0721 34.4231 41.8787C34.7514 42.1476 34.9156 42.5406 34.895 43.0164C34.813 44.4229 32.9868 44.6504 31.8993 44.7952C31.7762 44.8159 31.6531 44.8366 31.5505 44.8366C30.1552 45.0434 28.801 45.3537 27.5493 45.7467C26.8927 45.9535 25.8053 46.2844 24.9024 46.7809L23.9381 47.3186L24.4715 46.3465ZM27.693 58.881C26.3798 58.3432 24.8409 58.1571 23.5072 58.033C22.2145 57.9296 20.8603 57.9709 19.3419 58.1778C19.1777 58.1985 18.993 58.2398 18.8084 58.2605C17.4747 58.4673 15.9563 58.6949 14.7457 57.9296C14.1712 57.5779 13.6377 56.8333 13.8223 56.068C14.007 55.2406 14.9509 54.9924 15.3407 54.8683C16.5513 54.5167 17.9466 54.434 19.4445 54.5994C22.2555 54.889 24.6767 56.0266 27.5493 57.4538L27.6519 57.4952L27.693 57.5986C27.8366 57.8882 27.9597 58.1778 28.1033 58.4673L28.4111 59.1706L27.693 58.881ZM29.396 56.7919L29.0882 57.1022L28.9036 56.7092C28.7189 56.3369 28.5137 55.9439 28.3085 55.5509L28.247 55.4268L28.288 55.3027C28.7599 53.8962 30.1757 52.8413 31.0991 52.138C32.166 51.3314 33.3356 50.6695 34.6078 50.1317C37.6651 48.8286 39.5938 48.539 40.4761 49.2216C40.907 49.5525 41.0712 50.0696 40.9686 50.7522C40.6608 53.1309 37.4599 53.8134 35.3259 54.2892C34.9361 54.3719 34.5667 54.4546 34.259 54.5374C33.0278 54.8476 30.6887 55.4682 29.396 56.7919Z" fill="#001064"/>
<path d="M12.7775 69.9969L10.6113 66.7139L10.0698 67.8082L7.36205 71.6384L4.11279 73.0063L8.17437 75.7422L10.0698 79.2988L11.9652 75.7422L16.2975 73.0063L16.0268 72.1856L12.7775 69.9969Z" fill="white"/>
<path d="M19.5709 72.7811C19.0937 72.4183 18.3082 72.4328 17.7209 72.266C17.0749 72.0773 16.4509 71.8379 15.8636 71.5332C14.6596 70.9093 13.6024 70.0605 12.7949 69.0375C11.9653 67.9855 11.4 66.7304 11.1431 65.4536C11.1357 65.4028 11.1211 65.3447 11.1137 65.2939C11.3486 64.0171 11.4 62.7184 11.2092 61.5069C11.099 60.7814 9.83633 60.7886 9.7776 61.5359C9.76292 61.6955 9.75558 61.8551 9.76292 62.0147C9.76292 62.0727 9.77026 62.1235 9.78494 62.1743C9.79963 63.19 9.80697 64.1912 9.63812 65.2141C9.43256 66.462 9.05081 67.6953 8.50755 68.8561C8.03771 69.8646 7.39901 70.8367 6.46666 71.5477C5.43888 72.3313 4.22022 72.5997 2.90612 72.6142C2.48767 72.6215 2.31148 73.1075 2.72259 73.2817C3.08966 73.434 3.46406 73.5211 3.82379 73.5501C4.00732 73.6662 4.18351 73.775 4.39641 73.8693C4.80018 74.0507 5.18927 74.2393 5.55634 74.4787C6.30516 74.9503 6.96587 75.5307 7.50179 76.1982C8.65438 77.6419 9.13891 79.4919 8.94069 81.2549C8.89664 81.6539 9.18295 81.9006 9.51331 81.9658C9.87304 82.5608 10.9082 82.3504 10.8494 81.5741C10.6879 79.4121 11.2679 77.2936 13.0298 75.7411C13.8374 75.0301 14.7844 74.5223 15.8342 74.1668C16.5169 73.9273 17.229 73.833 17.9338 73.7242C18.4624 73.8621 19.0203 73.9419 19.4681 73.7532C19.9086 73.5646 19.9233 73.0422 19.5709 72.7811ZM15.4598 72.9407C14.1604 73.3034 12.9344 73.9854 11.98 74.8632C11.1357 75.6395 10.4457 76.6044 9.97582 77.6491C9.68951 76.8946 9.27839 76.1691 8.74247 75.5089C8.11846 74.7326 7.31826 74.0507 6.42996 73.5283C6.23174 73.4122 6.02619 73.3034 5.81329 73.1946C7.33294 72.5634 8.63236 71.185 9.35181 69.9661C9.78494 69.2334 10.1593 68.4281 10.4677 67.5938C10.754 68.312 11.1284 69.0012 11.5982 69.6469C12.4645 70.8367 13.6612 71.8524 15.0046 72.5779C15.2028 72.6867 15.4084 72.7883 15.614 72.8826C15.5699 72.9117 15.5185 72.9262 15.4598 72.9407Z" fill="#001064"/>
</svg>
