<svg width="117" height="153" viewBox="0 0 117 153" fill="none" xmlns="http://www.w3.org/2000/svg">
<path d="M12.6808 9.17947L10.4648 5.8412L9.91077 6.95396L7.14072 10.8486L3.81665 12.2395L7.97174 15.0214L9.91077 18.6379L11.8498 15.0214L16.2819 12.2395L16.0049 11.405L12.6808 9.17947Z" fill="white"/>
<path d="M19.6302 12.0108C19.142 11.642 18.3384 11.6567 17.7376 11.4871C17.0767 11.2953 16.4383 11.0518 15.8375 10.742C14.6058 10.1075 13.5243 9.24444 12.6982 8.20427C11.8495 7.1346 11.2712 5.85838 11.0084 4.56002C11.0009 4.50838 10.9859 4.44936 10.9783 4.39772C11.2187 3.09936 11.2712 1.77887 11.076 0.546908C10.9633 -0.190796 9.67155 -0.183419 9.61146 0.576416C9.59644 0.738711 9.58893 0.901006 9.59644 1.0633C9.59644 1.12232 9.60395 1.17396 9.61897 1.2256C9.63399 2.25838 9.6415 3.27641 9.46877 4.31657C9.25848 5.58542 8.86794 6.83952 8.31218 8.01985C7.83152 9.04526 7.17812 10.0338 6.22431 10.7567C5.17287 11.5534 3.92616 11.8264 2.58181 11.8412C2.15372 11.8485 1.97348 12.3428 2.39405 12.5198C2.76957 12.6748 3.15259 12.7633 3.5206 12.7928C3.70836 12.9108 3.88861 13.0215 4.10641 13.1174C4.51947 13.3018 4.91752 13.4936 5.29303 13.7371C6.05909 14.2166 6.73501 14.8067 7.28327 15.4854C8.46239 16.9534 8.95807 18.8346 8.75529 20.6272C8.71023 21.0329 9.00313 21.2838 9.34109 21.3502C9.7091 21.9551 10.7681 21.7411 10.708 20.9518C10.5427 18.7534 11.1361 16.5993 12.9385 15.0207C13.7647 14.2977 14.7335 13.7813 15.8075 13.4198C16.5059 13.1764 17.2344 13.0805 17.9554 12.9698C18.4962 13.11 19.0669 13.1912 19.5251 12.9993C19.9757 12.8075 19.9907 12.2764 19.6302 12.0108ZM15.4244 12.1731C14.0951 12.542 12.8409 13.2354 11.8646 14.128C11.0009 14.9174 10.2949 15.8985 9.81424 16.9608C9.52134 16.1936 9.10076 15.4559 8.55251 14.7846C7.91413 13.9952 7.09551 13.3018 6.18676 12.7707C5.98398 12.6526 5.77369 12.542 5.55589 12.4313C7.11053 11.7895 8.43986 10.3879 9.17587 9.14853C9.61897 8.40345 10.002 7.5846 10.3174 6.73624C10.6103 7.46657 10.9934 8.16739 11.474 8.82394C12.3602 10.0338 13.5844 11.0666 14.9588 11.8043C15.1616 11.9149 15.3719 12.0182 15.5822 12.1141C15.5371 12.1436 15.4845 12.1584 15.4244 12.1731Z" fill="#001064"/>
<path d="M108.294 30.6579L106.078 27.3197L105.524 28.4324L102.754 32.3271L99.4301 33.718L103.585 36.4999L105.524 40.1164L107.463 36.4999L111.895 33.718L111.618 32.8835L108.294 30.6579Z" fill="white"/>
<path d="M115.242 33.4882C114.754 33.1193 113.95 33.1341 113.349 32.9644C112.688 32.7726 112.05 32.5292 111.449 32.2193C110.217 31.5849 109.136 30.7218 108.31 29.6816C107.461 28.612 106.883 27.3357 106.62 26.0374C106.612 25.9857 106.597 25.9267 106.59 25.8751C106.83 24.5767 106.883 23.2562 106.688 22.0243C106.575 21.2866 105.283 21.294 105.223 22.0538C105.208 22.2161 105.2 22.3784 105.208 22.5407C105.208 22.5997 105.216 22.6513 105.231 22.703C105.246 23.7358 105.253 24.7538 105.08 25.7939C104.87 27.0628 104.48 28.3169 103.924 29.4972C103.443 30.5226 102.79 31.5111 101.836 32.2341C100.784 33.0308 99.5377 33.3038 98.1934 33.3185C97.7653 33.3259 97.585 33.8202 98.0056 33.9972C98.3811 34.1521 98.7642 34.2407 99.1322 34.2702C99.3199 34.3882 99.5002 34.4988 99.718 34.5948C100.131 34.7792 100.529 34.971 100.905 35.2144C101.671 35.6939 102.347 36.2841 102.895 36.9628C104.074 38.4308 104.57 40.312 104.367 42.1046C104.322 42.5103 104.615 42.7611 104.953 42.8275C105.321 43.4324 106.38 43.2185 106.32 42.4292C106.154 40.2308 106.748 38.0767 108.55 36.498C109.376 35.7751 110.345 35.2587 111.419 34.8972C112.117 34.6538 112.846 34.5579 113.567 34.4472C114.108 34.5874 114.679 34.6685 115.137 34.4767C115.587 34.2849 115.602 33.7538 115.242 33.4882ZM111.036 33.6505C109.707 34.0193 108.452 34.7128 107.476 35.6054C106.612 36.3947 105.906 37.3759 105.426 38.4382C105.133 37.671 104.712 36.9333 104.164 36.262C103.526 35.4726 102.707 34.7792 101.798 34.248C101.596 34.13 101.385 34.0193 101.167 33.9087C102.722 33.2669 104.051 31.8652 104.787 30.6259C105.231 29.8808 105.614 29.062 105.929 28.2136C106.222 28.9439 106.605 29.6448 107.086 30.3013C107.972 31.5111 109.196 32.5439 110.57 33.2816C110.773 33.3923 110.983 33.4956 111.194 33.5915C111.149 33.621 111.096 33.6357 111.036 33.6505Z" fill="#001064"/>
<path fill-rule="evenodd" clip-rule="evenodd" d="M50.8224 2.10686C50.2686 2.17911 49.7574 2.41944 49.1957 2.60126C48.8602 2.68844 48.7856 2.95864 48.8708 3.29482C48.9504 4.45654 49.4746 5.53853 49.8311 6.66412C50.3313 8.07484 51.0498 9.50049 51.7177 10.8676C51.9545 11.3794 52.1728 11.3943 52.6254 11.205C53.9913 10.5276 53.9913 10.5276 53.4325 9.16791C52.5438 7.0699 51.7722 4.86978 51.0512 2.72817C50.9581 2.50156 50.8649 2.27495 50.8224 2.10686Z" fill="#001064"/>
<path fill-rule="evenodd" clip-rule="evenodd" d="M67.3844 2.03703C67.3834 1.79188 67.4813 1.74278 67.7022 1.81616C67.7759 1.84062 67.9474 1.81598 68.021 1.84044C69.4192 2.06003 69.4928 2.08449 69.3755 3.43291C69.1632 5.56588 68.853 7.74797 68.6406 9.88094C68.6174 10.1997 68.4953 10.3223 68.2501 10.3225C67.5389 10.2495 66.8035 10.25 66.0923 10.177C65.7735 10.1527 65.7241 10.0547 65.7474 9.73601C66.2524 7.21057 66.7573 4.68513 67.2381 2.23326C67.3359 2.18416 67.3602 2.1106 67.3844 2.03703Z" fill="#001064"/>
<path fill-rule="evenodd" clip-rule="evenodd" d="M84.7151 13.214C83.7654 14.8573 82.5454 16.3291 81.3991 17.8254C81.3748 17.8989 81.2285 18.0952 81.1549 18.0707C80.5164 17.777 80.2199 17.1889 79.7035 16.7725C79.3838 16.5031 79.7016 16.2822 79.8479 16.0859C81.0185 14.5161 82.1891 12.9463 83.286 11.352C83.5544 11.0331 83.7259 11.0084 84.0456 11.2779C84.095 11.3759 84.2423 11.4248 84.316 11.4493C85.2258 12.1595 85.2258 12.1595 84.7151 13.214Z" fill="#001064"/>
<path d="M30.5526 17.8986L4.5832 35.5412L2.29178 76.9628V82.0766L44.3011 85.4006L51.4299 83.3551L53.976 40.3993L30.5526 17.8986Z" fill="#FFE2DC"/>
<path d="M4.2753 37.1224C3.93063 43.1133 3.74263 49.1042 3.67996 55.0951C3.64863 58.1064 3.64863 61.086 3.64863 64.0973V73.0995L3.61729 77.6007V78.7101V79.2806V79.4074C3.61729 79.4708 3.61729 79.4391 3.61729 79.4708C3.61729 79.5025 3.61729 79.5342 3.61729 79.5342C3.64863 79.7244 3.8053 79.8829 3.96196 79.978C4.05596 80.0097 4.11863 80.0097 4.21263 80.0097L5.24664 80.0414L7.47133 80.1365L11.9207 80.3584C17.8428 80.7071 23.7335 81.1508 29.6555 81.7214C41.4683 82.8625 53.2184 84.4474 65.0312 85.43C70.9219 85.9372 76.844 86.3176 82.766 86.6346L87.2154 86.8565L89.4401 86.9515H89.7221H89.9101C90.0354 86.9515 90.1294 86.9199 90.2548 86.8882C90.4741 86.8248 90.6621 86.698 90.8188 86.5395C90.9754 86.381 91.1008 86.1908 91.1634 86.0006C91.1948 85.9055 91.2261 85.7787 91.2261 85.6836C91.2261 85.6202 91.2261 85.5885 91.2261 85.5251C91.2261 85.4934 91.2261 85.4617 91.2261 85.3984V85.2716L91.2575 83.021L91.2888 78.5199L91.3514 69.5177L91.3828 65.0166L91.4454 60.5155C91.5394 54.5245 91.6961 48.5336 91.8528 42.5427L91.8841 41.5601C91.8841 41.5284 91.8528 41.4967 91.8528 41.465L91.8215 41.4333C91.8215 41.4333 91.8215 41.4333 91.7901 41.4333L91.6334 41.3065L90.7874 40.5774L87.4347 37.6295L80.7294 31.7337C78.5047 29.7684 76.28 27.7715 74.0866 25.7745C72.9899 24.7919 71.8933 23.7775 70.7966 22.7632L70.7339 22.7315L70.2326 22.6998L68.0079 22.5413C65.0625 22.3194 62.0858 22.0975 59.1405 21.8439C56.1951 21.5904 53.2184 21.3685 50.2731 21.0832C44.3823 20.5443 38.4916 19.847 32.6009 19.1179L30.4075 18.8326L30.2509 18.8009C30.2195 18.8009 30.1569 18.8009 30.1255 18.8009C30.0315 18.8009 29.9689 18.8009 29.8749 18.8326C29.7809 18.8643 29.7182 18.896 29.6555 18.9277C29.6242 18.9277 29.5302 18.9911 29.4675 19.0545L29.2482 19.213L25.5195 21.5904C23.0128 23.207 20.5375 24.8552 18.0621 26.5035C15.5867 28.1518 13.1114 29.8318 10.6674 31.5435C9.44535 32.3994 8.22334 33.2552 7.03266 34.1111L5.21531 35.4107C4.68264 35.791 4.30663 36.4567 4.2753 37.1224ZM3.8053 37.0907C3.83663 36.2665 4.2753 35.4741 4.93331 34.9986L6.71932 33.6673C7.91 32.7797 9.10068 31.8922 10.26 30.973C12.61 29.1662 14.9601 27.3277 17.2788 25.4575C19.5974 23.5873 21.9161 21.7171 24.2348 19.8153L27.6815 16.9942L27.9009 16.804C27.9635 16.7406 28.0262 16.7089 28.1515 16.5821C28.3709 16.4236 28.6529 16.2651 28.9035 16.17C29.1855 16.0432 29.4362 15.9798 29.7495 15.9164C29.9062 15.8847 30.0315 15.8847 30.1882 15.853C30.2509 15.853 30.3449 15.853 30.4075 15.853H30.5955L32.8202 15.8847C38.7423 15.9798 44.6957 16.1066 50.6177 16.3919C53.5631 16.5187 56.5398 16.7089 59.4852 16.8674C62.4305 17.0259 65.4072 17.216 68.3526 17.4062L70.5773 17.5647L71.1726 17.5964C71.5486 17.6281 71.9246 17.6915 72.2693 17.8183C72.6139 17.9451 72.9586 18.1036 73.3033 18.2938C73.46 18.3889 73.6166 18.484 73.7733 18.6107C73.836 18.6741 73.93 18.7375 73.9926 18.8009L74.1493 18.9277C75.246 19.9421 76.3426 20.9247 77.4393 21.939C79.6327 23.9677 81.826 25.9647 83.988 28.025L90.5054 34.1111L93.7641 37.1858L94.5788 37.9465L94.8295 38.2001C94.9548 38.3269 95.0802 38.4537 95.1742 38.6122C95.3935 38.8974 95.5815 39.1827 95.7382 39.5314C96.0515 40.1654 96.2082 40.8944 96.2395 41.5918V41.8454V41.9721V42.2574L96.2082 42.828C95.8635 48.8189 95.5502 54.8098 95.1428 60.769L94.8295 65.2701L94.4848 69.7713L93.7955 78.7418L93.4508 83.2429L93.2941 85.4934V85.6202C93.2941 85.6519 93.2941 85.7153 93.2941 85.7787C93.2628 85.9055 93.2628 86.0323 93.2315 86.1591C93.1688 86.4127 93.1061 86.6663 92.9808 86.9199C92.7615 87.3953 92.4481 87.8391 92.0408 88.1878C91.6335 88.5365 91.1634 88.7583 90.6621 88.8851C90.4114 88.9485 90.1608 88.9802 89.9101 88.9802C89.7848 88.9802 89.6594 88.9802 89.5341 88.9802L89.2521 88.9485L87.0274 88.7266L82.6094 88.3463C76.7186 87.8391 70.7966 87.3953 64.8745 87.0466C53.0304 86.3493 41.155 86.2859 29.3109 85.747C23.3888 85.4934 17.4668 85.1131 11.576 84.6059L7.15799 84.2255L4.93331 84.0036L4.3693 83.9402L4.0873 83.9085C3.9933 83.9085 3.93063 83.9085 3.74263 83.8768C3.08462 83.7818 2.45795 83.5599 1.92528 83.1795C0.8286 82.4504 0.107927 81.2142 0.0139261 79.9146C0.0139261 79.7561 -0.0174076 79.5976 0.0139261 79.4391C0.0139261 79.3757 0.0139261 79.2489 0.0139261 79.2172V79.0905L0.0765933 78.5199L0.201928 77.4105L0.640599 72.9411L1.58061 64.0022C1.89394 61.0226 2.20728 58.043 2.48928 55.0317C3.05329 49.0725 3.49196 43.0816 3.8053 37.0907Z" fill="#001064"/>
<path d="M92.5685 114.928L88.6054 113.323L86.5248 112.643L80.5959 111.467L75.8637 111.064L72.5033 110.966L67.3751 111.053L58.2465 111.333L48.2341 111.705L35.6303 110.778L25.4111 109.153L18.7045 106.937L14.0095 104.736L10.3505 101.753L9.28283 100.07L9.19095 99.1826L10.4708 98.6003L12.9244 98.5685L18.2134 100.035L15.774 98.0467L11.1392 94.2687L10.8034 93.1822L11.1075 91.8046L13.9571 91.2828L16.8297 90.9829L26.5467 94.2304L37.9024 98.204L43.0995 98.783L47.5418 98.5435L51.2982 98.1514L57.3934 96.6178L64.0367 93.9055L63.9448 93.0179L62.4812 91.8248L59.4937 91.0152L56.5752 90.8712L50.9822 90.7822L46.9129 90.3098L40.4731 88.5147L39.1386 86.4109L39.6178 84.5664L42.5735 82.912L47.4577 82.6264L54.0867 81.9344L59.6711 79.7812L70.4295 77.9852L76.7544 78.6707L88.7588 84.5954L98.4473 91.8834L101.992 93.7565L106.626 97.5345L103.025 103.742L99.028 110.44L93.9862 115.677L92.5685 114.928Z" fill="white"/>
<path d="M64.968 94.5419C57.5839 97.5115 48.7363 100.516 40.6379 99.3395L40.6373 99.3394C36.5271 98.7313 32.5544 97.2783 28.6529 95.8514C27.4188 95.4 26.1919 94.9513 24.9699 94.5327L24.9689 94.5324C24.5611 94.3907 24.0894 94.2138 23.5702 94.0191C22.293 93.5403 20.7284 92.9536 19.1195 92.5171C17.992 92.2113 16.8561 91.9834 15.801 91.9212C14.9322 91.87 14.1293 91.9319 13.435 92.1473C14.2307 92.7503 14.966 93.585 15.4775 94.1927C16.4792 95.3033 17.4946 96.6815 17.7513 98.2755C22.6557 101.291 28.9469 104.366 29.8316 104.796C34.1537 106.739 38.6084 108.537 43.1474 109.829L43.1492 109.83C47.621 111.14 52.2389 111.022 56.9028 110.9C58.7719 110.846 60.6445 110.762 62.52 110.678C68.0651 110.429 73.6356 110.179 79.2129 110.681C81.9806 110.918 84.7491 111.419 87.4586 112.17C87.84 108.433 89.6743 104.642 91.2323 101.422C91.2694 101.345 91.3063 101.269 91.343 101.193L91.3447 101.189C91.4003 101.079 91.457 100.966 91.5147 100.85C92.1975 99.4873 93.0264 97.8323 94.0357 96.3034C95.0615 94.7494 96.289 93.3009 97.765 92.4163C91.7407 86.4697 84.3732 81.654 76.1241 79.52L76.1212 79.5193C71.9996 78.4006 67.9412 78.7562 63.9001 79.6193C61.879 80.0509 59.8674 80.6082 57.855 81.1697L57.6692 81.2215C55.7211 81.7651 53.7719 82.309 51.825 82.7378L51.825 82.7378L51.8202 82.7388C50.7799 82.9465 49.6232 83.0314 48.4253 83.0416C48.5777 84.0219 48.335 84.8123 47.8133 85.4278C47.2494 86.0932 46.382 86.5278 45.4215 86.805C43.7108 87.2988 41.611 87.3201 40.0924 87.1667C40.3886 87.5044 40.8611 87.8306 41.4742 88.1363C42.3204 88.5582 43.3819 88.9156 44.4687 89.2049C46.6464 89.7847 48.874 90.0781 49.5805 90.0827L49.5805 90.0825L49.591 90.083C50.6334 90.1338 51.7949 90.1072 53.0208 90.0791C53.1977 90.0751 53.376 90.071 53.5555 90.0671C54.9732 90.0364 56.4587 90.0183 57.9046 90.1298C60.7897 90.3524 63.5743 91.0948 65.3724 93.3468L65.3734 93.348C65.5663 93.5928 65.5465 93.8737 65.4439 94.0882C65.346 94.2927 65.164 94.4632 64.968 94.5419ZM64.968 94.5419L64.8756 94.3095M64.968 94.5419C64.9679 94.5419 64.9678 94.5419 64.9678 94.542L64.8756 94.3095M64.8756 94.3095C65.1476 94.2004 65.4183 93.8093 65.1774 93.5036L13.1846 91.967C16.0714 90.9401 20.6957 92.6738 23.6714 93.7894C24.1866 93.9826 24.6523 94.1572 25.0511 94.2958C26.284 94.7181 27.5181 95.1694 28.7564 95.6223C32.6526 97.0471 36.5917 98.4877 40.6743 99.0917C48.699 100.257 57.4893 97.28 64.8756 94.3095ZM107.254 96.7761L107.255 96.7761L107.258 96.7803C107.48 97.0231 107.567 97.4004 107.382 97.7004C105.982 100.106 104.485 102.488 103.003 104.846C102.756 105.239 102.509 105.631 102.264 106.022C101.962 106.504 101.658 106.996 101.351 107.492C99.4562 110.558 97.4415 113.818 94.8485 116.33L94.8486 116.33L94.844 116.335C94.6024 116.557 94.2279 116.644 93.93 116.461C92.1162 115.464 90.2551 114.659 88.3857 114.022C88.0772 114.106 87.6941 114.03 87.5022 113.721C79.5026 111.287 70.7368 111.719 62.2656 112.137C60.4929 112.224 58.7331 112.311 56.9959 112.371L56.9951 112.371C53.5972 112.477 50.111 112.569 46.723 112.096C46.6688 112.118 46.5952 112.135 46.5058 112.121C39.2157 112.087 31.9318 111.423 24.8531 109.61C20.1443 108.451 15.2335 106.713 11.3231 103.723L11.3199 103.721C10.8182 103.324 9.61303 102.159 8.85129 100.957C8.47332 100.36 8.18033 99.718 8.17015 99.1378C8.16493 98.8408 8.23387 98.5532 8.40912 98.3015C8.58337 98.0513 8.84865 97.8567 9.20199 97.7194C9.97013 97.4074 10.8415 97.4601 11.6635 97.6221C12.2271 97.7331 12.7971 97.9029 13.31 98.0557C13.5409 98.1245 13.7601 98.1898 13.9621 98.2448L13.9621 98.2447L13.9703 98.2472C14.4292 98.3893 14.8809 98.5357 15.3301 98.6823C13.7025 97.6109 12.1397 96.3814 10.9724 94.8707L10.9701 94.8677C10.5062 94.248 10.3148 93.6376 10.3644 93.0626C10.4139 92.4887 10.7002 91.9863 11.1232 91.5757L11.2225 91.4792L11.2728 91.4916C11.2762 91.4887 11.2797 91.4856 11.2832 91.4826C11.3024 91.4663 11.3285 91.4449 11.36 91.4244C11.7325 91.1389 12.1522 90.9458 12.6208 90.7753L12.6219 90.7749C14.4989 90.1023 16.7216 90.3416 18.8589 90.8677C20.401 91.2472 21.9298 91.7851 23.2763 92.2589C23.7959 92.4417 24.2884 92.615 24.744 92.7659L24.7443 92.766C26.1359 93.2288 27.5181 93.7263 28.9 94.2237C31.1806 95.0445 33.4602 95.865 35.7793 96.5289C39.4908 97.5914 43.2581 98.2371 47.1758 97.8089L47.176 97.8088C52.6643 97.2117 58.1709 95.4818 63.3545 93.5047C62.1152 92.4624 60.4016 92.0002 58.5651 91.8103C57.0575 91.6543 55.5018 91.6841 54.0952 91.711C53.648 91.7195 53.2158 91.7278 52.8051 91.7297L52.8039 91.7297C49.3708 91.7291 46.0131 91.6554 42.7441 90.3148C41.9289 89.9908 40.5716 89.4154 39.5626 88.599C39.0571 88.19 38.6207 87.7062 38.3919 87.1449C38.159 86.5735 38.1489 85.9387 38.4688 85.2601C39.2516 83.5646 40.6449 82.6653 42.2255 82.1757C43.7792 81.6945 45.5367 81.6019 47.1118 81.5368C47.2024 81.4954 47.3035 81.4742 47.3997 81.4693C47.5019 81.464 47.6143 81.4763 47.7207 81.515C47.7767 81.5143 47.8322 81.513 47.8874 81.5117C48.0636 81.5076 48.2373 81.5035 48.4155 81.5199C50.836 81.4371 53.2144 80.8841 55.5941 80.2164C56.3119 80.015 57.0313 79.8027 57.752 79.59C59.4156 79.0991 61.0858 78.6062 62.7585 78.2411C66.7904 77.3217 70.9006 76.9837 75.029 77.609L75.0296 77.6091C79.6742 78.3252 84.3787 80.7638 88.3847 83.0168C92.5164 85.2988 96.0659 88.3758 99.3036 91.6858C99.4476 91.6752 99.6147 91.6959 99.7581 91.7916C102.675 92.4577 105.279 94.7119 107.254 96.7761ZM93.4056 114.388L93.4057 114.388L93.4102 114.391C93.6292 114.501 93.7856 114.609 93.9033 114.695C93.9401 114.722 93.969 114.743 93.9949 114.762C94.0126 114.776 94.029 114.787 94.0456 114.799C94.0755 114.82 94.0946 114.832 94.1072 114.838C94.1074 114.838 94.1077 114.838 94.1079 114.838C94.1538 114.811 94.2311 114.742 94.3772 114.581L94.3772 114.581L94.3806 114.577C94.7473 114.189 95.051 113.784 95.364 113.367L95.364 113.367L95.3675 113.362C98.5856 109.266 101.322 104.703 104.015 100.212C104.164 99.9646 104.313 99.717 104.461 99.4697L104.461 99.4697L104.464 99.4655C104.662 99.1487 104.855 98.8212 105.05 98.4901L105.051 98.4886C105.245 98.159 105.441 97.8258 105.644 97.5026L105.71 97.3975C103.898 95.5942 101.759 93.7813 99.2947 93.2482C97.7852 93.8238 96.5047 95.2162 95.4137 96.8564C94.4676 98.2787 93.6852 99.8534 93.0275 101.177C92.9179 101.398 92.8118 101.611 92.709 101.816L92.7082 101.818C91.0563 105.051 89.2141 108.858 88.9737 112.527C89.0066 112.538 89.0381 112.549 89.0683 112.559L89.0718 112.56C89.1619 112.591 89.2406 112.618 89.3272 112.64L89.3387 112.642L89.3499 112.646C90.7203 113.126 92.0549 113.739 93.4056 114.388ZM11.4928 101.868C12.0067 102.365 12.5949 102.822 13.2105 103.24C12.7611 101.845 11.7956 100.814 10.3808 100.478C10.7333 100.999 11.1826 101.513 11.4069 101.769C11.4412 101.808 11.4702 101.842 11.4928 101.868ZM17.106 100.747C15.239 100.021 13.3529 99.4282 11.5424 99.2135C13.5356 100.056 14.7795 102.04 15.0103 104.347C15.129 104.404 15.2563 104.47 15.3973 104.559C22.6292 108.447 31.3616 109.936 39.7607 110.407C36.8933 109.459 34.0808 108.316 31.3118 107.112C28.7369 106.02 26.2191 104.837 23.7586 103.562C22.8035 103.186 21.7927 102.742 20.7516 102.285L20.5468 102.195C19.4273 101.704 18.2732 101.201 17.106 100.747ZM12.7184 94.5365C13.3722 95.2152 14.372 96.0026 15.5741 96.8377C15.1701 96.1634 14.642 95.5455 14.1492 94.996C14.0593 94.8996 13.9669 94.798 13.8717 94.6933C13.6192 94.4159 13.3475 94.1173 13.0537 93.8381C12.6994 93.5016 12.3345 93.2152 11.9691 93.0482C11.9482 93.0853 11.9353 93.1231 11.9282 93.1618C11.913 93.2451 11.9217 93.3523 11.9707 93.4895C12.071 93.7704 12.32 94.1228 12.7184 94.5365ZM46.8021 83.0551C44.1168 83.1556 41.5181 83.4177 40.0308 85.5766C41.1853 85.7273 42.9752 85.7908 44.442 85.4785C45.2633 85.3037 45.9475 85.0183 46.3706 84.598C46.7414 84.2297 46.9312 83.7392 46.8021 83.0551Z" fill="#001064" stroke="#001064" stroke-width="0.5"/>
<path d="M53.4357 39.6373L93.6225 42.1096M53.4357 39.6373L29.8281 17.6557M53.4357 39.6373L51.2147 82.6547" stroke="#001064" stroke-width="3.5" stroke-miterlimit="10"/>
<path d="M28.1568 49.7605L28.8279 50.7948C29.9513 52.5263 32.5122 52.4444 33.5227 50.6447C33.6587 50.4024 33.8307 50.1822 34.0329 49.9916L36.194 47.954C37.3027 46.9085 39.0856 47.1123 39.9299 48.381C40.2789 48.9055 40.4134 49.544 40.3057 50.1647L39.6936 53.6907C39.4952 54.8337 39.1239 55.9399 38.5926 56.9712L35.685 62.615C35.2821 63.397 34.7607 64.112 34.1392 64.7346L32.5109 66.3659C30.8291 68.0507 28.2442 68.4396 26.1412 67.3242C25.4509 66.9581 24.8481 66.447 24.374 65.826L19.4527 59.3786C18.5446 58.1889 17.8712 56.8373 17.4683 55.3959L16.7059 52.668C16.3745 51.4822 16.5149 50.2141 17.0979 49.1295C17.7231 47.9662 18.8032 47.1145 20.0803 46.7778L20.55 46.654C22.2327 46.2104 24.0255 46.5345 25.4464 47.5393L27.2443 48.8107C27.606 49.0665 27.9156 49.3888 28.1568 49.7605Z" fill="white"/>
<path d="M30.201 53.9741C28.9714 49.9798 25.6181 43.2182 20.3495 44.4889C18.9989 44.8146 17.3859 45.4976 16.5404 46.6577C15.659 47.867 15.6497 48.9964 15.6497 50.4601C15.6497 55.1359 19.2773 59.2833 22.117 62.6701C23 63.7232 23.9516 64.7222 25.0766 65.5184C25.7427 65.9898 26.4371 66.4842 27.0291 67.0489C27.3065 67.3136 27.6401 67.5346 27.9539 67.7559C28.222 67.9448 28.1047 67.7325 28.1047 67.4401" stroke="#001064" stroke-width="3.5" stroke-linecap="round" stroke-linejoin="round"/>
<path d="M29.8311 53.9736C30.3714 52.2294 31.1206 50.593 32.1878 49.1006C33.0212 47.9352 33.9893 46.5476 35.0789 45.6002C35.8488 44.9307 36.6031 44.708 37.6 44.708C39.3996 44.708 39.3264 47.9774 39.3264 49.279C39.3264 51.6949 37.8989 54.3712 36.8738 56.4719C35.6112 59.0592 33.9763 61.4482 32.3043 63.7814C31.5372 64.8518 30.55 65.7458 29.7626 66.7601C29.5138 67.0806 28.8596 67.6817 28.4746 67.8102" stroke="#001064" stroke-width="3.5" stroke-linecap="round" stroke-linejoin="round"/>
</svg>
