<svg width="280" height="195" viewBox="0 0 280 195" fill="none" xmlns="http://www.w3.org/2000/svg">
<path d="M85.0566 79.4839L66.566 78.954L63.9245 10.598C63.9245 5.08713 68.5031 3.70941 70.7925 3.70941L169.585 1.58984L174.868 3.17952L208.151 31.2638L210.264 34.4431V54.579L203.925 58.2882L185.962 65.1768L157.962 70.4757L131.547 71.0056L108.302 66.2366L90.8679 60.4078L76.6038 54.579L72.3774 57.2284V61.9975L79.7736 69.4159L95.0943 76.8344L85.0566 79.4839Z" fill="#E9F7FF"/>
<path d="M68.151 125.053V114.985C97.7359 118.377 126.969 113.572 137.887 110.746C158.174 107.355 195.296 94.143 211.321 87.9609L215.019 181.222C215.442 187.581 211.321 189.523 209.208 189.7L78.717 193.939C71.9547 193.939 70.2642 190.407 70.2642 188.64L68.6793 158.436L76.6038 161.616L111.472 169.564L161.132 175.393L188.076 173.803L196 171.154L197.585 167.445L201.811 164.795V161.616L198.642 159.496H203.396L207.094 156.847L207.623 154.197L204.981 151.548L194.943 151.018L192.302 148.898L204.981 145.189L207.623 141.48L204.981 137.241L199.698 136.181L187.019 139.36L160.604 138.301L157.962 136.181L168.528 132.472L181.208 122.934L182.792 118.165L179.094 114.985H174.868L167.472 118.165L142.642 126.643L128.377 129.822L110.943 130.352L89.8113 129.822L75.5472 127.173L68.151 125.053Z" fill="#E9F7FF"/>
<path d="M242.595 69.3243C230.292 76.1591 217.617 82.3334 204.64 87.7466C181.713 97.3096 157.767 104.417 133.391 109.156C120.73 111.611 107.882 113.521 95.0061 114.21C88.4533 114.555 81.8861 114.583 75.3477 113.937C72.0211 113.607 68.7231 113.047 65.4682 112.343C63.9197 112.013 62.3854 111.654 60.8512 111.266C60.2203 111.108 59.1735 110.936 58.7147 110.39C58.4423 110.06 58.4422 109.673 58.5283 109.443C58.6287 109.472 58.729 109.5 58.8151 109.515C59.0588 110.175 59.9191 110.276 60.4497 109.931C61.3674 110.146 62.285 110.362 63.1884 110.548C66.2139 111.209 69.2824 111.683 72.3652 111.999C75.5054 112.315 78.9037 112.946 82.0582 112.587C83.9079 112.386 83.9509 109.816 82.0582 109.658C79.4772 109.443 76.8246 109.744 74.2292 109.586C71.6196 109.443 69.0099 109.041 66.4289 108.567C64.1061 108.136 61.7975 107.605 59.5177 106.973C59.489 106.973 59.4603 106.959 59.4316 106.959C59.1018 106.801 58.7577 106.715 58.3992 106.7C56.3775 106.212 53.7248 105.595 52.7211 104.015C51.0865 101.445 54.7572 101.158 56.4061 101.287C58.8437 101.474 61.2813 101.833 63.7046 102.105C66.2425 102.393 68.7662 102.651 71.3041 102.924C73.7847 103.182 76.4231 103.742 78.9037 103.57C79.2478 103.541 79.4772 103.34 79.5776 103.082C79.6063 103.067 79.6206 103.053 79.6493 103.053C80.6387 102.493 80.4379 101.23 79.6493 100.626C78.5022 99.7506 77.3121 99.9947 75.9356 99.9086C74.6737 99.8368 73.4263 99.7219 72.1788 99.6214C69.4258 99.3916 66.6727 99.1188 63.9197 98.8173C61.0662 98.5014 58.2128 98.0706 55.3738 97.6111C53.4524 97.3096 49.2511 97.2952 48.2044 95.3137C46.5411 92.2122 52.8788 92.5712 54.37 92.5568C57.0944 92.5425 59.8331 92.5425 62.5575 92.5281C66.8878 92.5138 71.4332 92.844 75.8208 92.5281C76.9966 92.7004 78.1724 92.8727 79.3482 93.045C81.1692 93.3035 81.9722 90.5035 80.1225 90.2164C77.14 89.7712 74.1575 89.3692 71.1607 88.9671C69.6552 88.7661 68.1496 88.5651 66.6584 88.3641C64.78 87.8902 62.9159 87.3015 61.0232 86.8708C61.0519 86.8277 61.0949 86.7702 61.1236 86.7272C58.4996 86.1241 55.8899 85.478 53.2946 84.76C51.5883 84.2862 47.4587 83.0082 48.4768 80.438C49.8677 76.9345 55.5602 78.9734 58.0121 79.5334C71.7056 82.6349 86.0301 82.2903 99.5802 78.6719C101.344 78.198 101.459 75.355 99.5802 74.9529C92.0093 73.3591 84.8256 70.3294 78.4879 65.8638C76.5951 64.5285 70.9313 60.6372 73.4693 57.7798C76.122 54.7932 81.3556 58.2824 84.0226 59.5029C109.058 70.9899 137.176 75.2114 164.42 71.1335C190.201 67.2853 214.893 56.2578 235.211 39.8457C236.286 38.9841 234.766 37.4478 233.691 38.3236C226.952 43.8374 219.725 48.7051 212.111 52.8691L212.082 52.1512L211.738 42.1574L211.566 37.1606L211.552 36.5288C211.552 36.4426 211.537 36.2847 211.537 36.1555C211.537 36.0262 211.523 35.897 211.509 35.7678C211.451 35.2509 211.337 34.7339 211.179 34.2314C210.863 33.2263 210.362 32.2929 209.702 31.4889C209.616 31.3883 209.53 31.2878 209.444 31.1873C209.358 31.0868 209.272 30.9863 209.171 30.9001C209.085 30.814 208.985 30.7135 208.885 30.6273L208.741 30.4981C208.684 30.455 208.655 30.4119 208.612 30.3832L207.666 29.5648L205.773 27.9279L202.002 24.6541L194.446 18.1064L179.304 5.03994L177.411 3.41739L176.465 2.59894L175.992 2.1969L175.748 1.99587L175.619 1.881L175.475 1.76613C174.672 1.13435 173.769 0.646146 172.794 0.344611C172.306 0.201023 171.805 0.0861528 171.303 0.0430764L170.93 0.0143588C170.801 0.0143588 170.672 0 170.543 0H170.17L169.855 0.0143588L159.875 0.344611C153.179 0.559993 146.525 0.804093 139.872 1.06255L119.898 1.83793L109.918 2.21126L99.9387 2.57023L89.9445 2.90048L79.9648 3.20201L74.9749 3.3456L72.4799 3.41739L71.2324 3.44611L70.6015 3.46047C70.4008 3.46047 70.1714 3.48919 69.9706 3.50355C69.1246 3.5897 68.293 3.8338 67.533 4.22149C66.7731 4.60918 66.0848 5.15481 65.5256 5.7866C64.9664 6.43274 64.5219 7.1794 64.2351 7.98349C63.9483 8.78759 63.8193 9.64911 63.848 10.4963C64.3211 23.8213 64.7083 37.1606 65.0238 50.4999L65.2388 60.508L65.4396 70.5161L65.5686 76.9919C62.7726 76.6042 59.9908 76.0729 57.2235 75.4124C54.3557 74.7376 51.3302 74.1632 48.5485 75.4555C46.455 76.4175 44.7344 78.3703 44.5767 80.7683C44.2325 85.9949 50.0971 87.919 54.1406 88.8523C55.2877 89.1251 56.4492 89.3835 57.5963 89.6564C57.668 89.7138 57.7397 89.7712 57.8257 89.8143C53.9829 89.7856 44.3042 88.5077 44.8348 95.0266C45.0498 97.6255 47.258 99.2768 49.5665 99.9229C50.0541 100.066 50.5559 100.181 51.0578 100.282C50.2691 100.942 49.8246 101.948 49.9537 103.441C50.1544 105.81 52.0902 107.203 54.1119 107.993C54.6855 108.222 55.2734 108.423 55.8756 108.624C55.3021 110.462 56.8793 112.544 58.5283 113.334C60.8942 114.468 63.7189 114.985 66.4433 115.402C66.515 118.044 66.5867 120.686 66.6584 123.328L69.4258 124.117C69.311 121.346 69.1963 118.561 69.0673 115.789C69.225 115.818 69.3684 115.832 69.5118 115.861C73.4119 116.479 77.3408 116.996 81.2839 117.311C110.134 119.666 139.17 113.607 166.815 105.652C181.526 101.416 195.994 96.3188 210.118 90.3743L210.949 112.228C211.466 125.553 211.967 138.893 212.527 152.218L212.943 162.211L213.387 172.205L213.832 182.199C213.846 182.4 213.846 182.615 213.86 182.816V183.348L213.803 183.879C213.774 184.051 213.731 184.223 213.702 184.41C213.53 185.099 213.229 185.76 212.799 186.349C211.967 187.526 210.677 188.359 209.257 188.632L208.985 188.689L208.713 188.718L208.44 188.746C208.354 188.761 208.239 188.761 208.139 188.761L206.892 188.818L204.397 188.933L199.407 189.149L189.427 189.579C182.774 189.852 176.121 190.125 169.467 190.383C156.161 190.886 142.84 191.345 129.52 191.733C116.199 192.121 102.892 192.422 89.5717 192.695L79.5776 192.896L77.0827 192.954C76.3801 192.968 75.6775 192.839 75.0179 192.595C73.713 192.106 72.609 191.101 72.0067 189.852C71.7056 189.235 71.5192 188.56 71.4619 187.871L71.4475 187.612C71.4475 187.569 71.4475 187.526 71.4475 187.469V187.311L71.4332 186.679L71.4045 185.43L71.2755 180.433L71.003 170.425C70.917 167.122 70.8166 163.805 70.7162 160.503C75.8782 162.211 81.0688 163.82 86.2881 165.313C114.077 173.268 143.299 179.327 172.306 176.972C176.264 176.656 180.221 176.139 184.15 175.522C187.721 174.962 191.908 174.56 195.205 172.995C196.869 172.205 198.446 170.109 197.872 168.285C198.475 168.084 199.063 167.883 199.636 167.653C201.672 166.864 203.622 165.456 203.823 163.102C203.952 161.608 203.493 160.603 202.705 159.943C203.207 159.828 203.708 159.713 204.196 159.584C206.519 158.923 208.741 157.272 208.956 154.687C209.487 148.168 199.751 149.446 195.879 149.475C195.965 149.432 196.037 149.375 196.109 149.317C197.27 149.044 198.432 148.786 199.593 148.513C203.665 147.58 209.573 145.656 209.214 140.429C209.057 138.046 207.336 136.093 205.214 135.116C202.418 133.838 199.364 134.398 196.482 135.073C190.101 136.552 183.663 137.428 177.11 137.457C172.163 137.486 167.259 137.069 162.398 136.236C166.614 134.772 170.658 132.833 174.443 130.435C178.616 127.793 186.774 122.466 183.476 116.407C180.021 110.046 172.192 114.44 167.603 116.536C160.778 119.666 153.695 122.208 146.454 124.204C118.407 131.929 88.0948 131.082 60.6504 121.389C45.5374 116.062 31.4423 108.093 19.0106 97.9845C17.9352 97.1086 16.401 98.645 17.4907 99.5065C37.8948 115.904 62.7152 126.932 88.654 130.78C116.055 134.858 144.317 130.636 169.51 119.149C172.206 117.914 177.454 114.44 180.135 117.426C182.688 120.269 176.981 124.175 175.088 125.51C168.707 129.976 161.481 133.006 153.867 134.599C151.974 135.001 152.103 137.845 153.867 138.318C167.503 141.937 181.899 142.281 195.679 139.18C198.145 138.62 203.866 136.581 205.271 140.084C206.304 142.669 202.131 143.947 200.425 144.406C197.829 145.124 195.191 145.756 192.553 146.374C192.581 146.417 192.624 146.474 192.653 146.517C190.746 146.948 188.882 147.537 186.989 148.011C185.484 148.212 183.964 148.413 182.458 148.614C179.447 149.016 176.45 149.418 173.454 149.863C171.59 150.136 172.392 152.936 174.228 152.692C175.404 152.534 176.594 152.347 177.77 152.175C182.186 152.49 186.76 152.16 191.119 152.175C193.858 152.189 196.611 152.189 199.349 152.203C200.841 152.203 207.221 151.844 205.544 154.96C204.483 156.942 200.253 156.956 198.331 157.258C195.478 157.703 192.61 158.133 189.728 158.464C186.961 158.78 184.193 159.038 181.426 159.268C180.164 159.368 178.902 159.483 177.64 159.555C176.25 159.641 175.059 159.397 173.898 160.273C173.095 160.876 172.894 162.14 173.898 162.7C173.927 162.714 173.941 162.728 173.97 162.728C174.07 162.987 174.3 163.202 174.644 163.217C177.139 163.389 179.791 162.814 182.286 162.57C184.839 162.312 187.377 162.039 189.929 161.752C192.366 161.479 194.818 161.12 197.27 160.933C198.934 160.804 202.619 161.077 200.97 163.662C199.966 165.241 197.285 165.859 195.263 166.347C194.904 166.361 194.546 166.447 194.216 166.605C194.187 166.605 194.159 166.62 194.13 166.62C191.836 167.251 189.513 167.783 187.176 168.213C184.595 168.687 181.956 169.075 179.332 169.233C176.708 169.376 174.056 169.089 171.46 169.305C169.568 169.463 169.596 172.033 171.46 172.234C174.629 172.578 178.042 171.961 181.211 171.645C184.308 171.329 187.405 170.855 190.445 170.195C191.363 169.994 192.28 169.793 193.198 169.577C193.729 169.922 194.589 169.836 194.833 169.161C194.933 169.132 195.033 169.104 195.119 169.089C195.205 169.319 195.205 169.707 194.933 170.037C194.474 170.583 193.427 170.755 192.782 170.913C191.248 171.301 189.699 171.659 188.136 171.99C184.853 172.679 181.541 173.253 178.2 173.584C171.618 174.23 165.022 174.201 158.427 173.856C145.464 173.167 132.545 171.257 119.812 168.802C95.3072 164.078 71.2181 156.97 48.147 147.393C35.0987 141.98 22.3372 135.82 9.97719 128.971C7.42489 127.564 5.20238 130.751 6.98039 132.862C7.66865 133.68 8.54332 134.097 9.44666 134.614C9.77645 134.8 10.1062 134.858 10.436 134.815C28.8757 144.564 48.104 152.849 67.8628 159.555C68.0062 163.202 68.1639 166.864 68.3217 170.511L68.7662 180.505L68.9956 185.501L69.0529 186.751L69.0816 187.382L69.096 187.54C69.096 187.598 69.096 187.641 69.1103 187.713L69.139 188.072C69.2393 189.048 69.5261 189.996 69.9706 190.857C70.874 192.595 72.4369 193.944 74.2579 194.576C75.1756 194.892 76.1363 195.036 77.097 194.993L79.5919 194.878L89.5717 194.418C102.878 193.801 116.184 193.226 129.505 192.724C142.812 192.221 156.132 191.805 169.453 191.417C176.106 191.231 182.774 191.058 189.427 190.886L199.421 190.656L204.411 190.541L206.906 190.484L208.153 190.455C208.254 190.455 208.354 190.455 208.469 190.441L208.813 190.412L209.157 190.383L209.501 190.326C210.433 190.168 211.322 189.823 212.14 189.335C212.943 188.847 213.659 188.186 214.219 187.44C214.792 186.679 215.208 185.817 215.466 184.898C215.524 184.669 215.581 184.439 215.624 184.195L215.71 183.491L215.724 182.773C215.724 182.558 215.71 182.357 215.71 182.141L215.48 172.133L215.237 162.125L214.979 152.117C214.649 138.778 214.233 125.453 213.846 112.114L213.158 89.0246C222.994 84.7887 232.644 80.1652 242.093 75.1396C242.409 75.1683 242.739 75.1109 243.068 74.9386C243.986 74.4217 244.846 74.0053 245.52 73.1868C247.341 71.1048 245.133 67.9028 242.595 69.3243ZM173.568 4.0779L177.268 7.35171L192.28 20.5618L199.794 27.1525L203.551 30.4407L205.429 32.0919L206.375 32.9104C206.418 32.9391 206.461 32.9822 206.476 33.0109L206.562 33.097C206.619 33.1545 206.676 33.1975 206.734 33.255C206.791 33.3124 206.849 33.3699 206.892 33.4273C206.949 33.4847 206.992 33.5422 207.035 33.5996C207.221 33.8293 207.393 34.0878 207.522 34.3463C207.953 34.3893 208.383 34.4324 208.813 34.4898C203.077 34.576 197.356 34.8775 191.635 35.2509C188.753 35.4375 185.857 35.6673 182.975 35.897C182.258 35.9544 181.526 36.0119 180.809 36.0837L180.68 36.098H180.566C180.494 36.098 180.408 36.1124 180.336 36.1124C180.178 36.1124 180.035 36.1124 179.877 36.1124C179.576 36.098 179.275 36.0693 178.974 35.9975C177.784 35.7678 176.651 35.1647 175.805 34.3032C174.945 33.4417 174.357 32.3217 174.171 31.1155C174.142 30.9719 174.127 30.814 174.113 30.6704C174.099 30.5125 174.084 30.3832 174.084 30.1822L174.041 29.0909L173.941 26.9228C173.869 25.4725 173.812 24.0223 173.726 22.5864C173.654 21.1362 173.568 19.7003 173.482 18.25C173.167 13.2819 172.808 8.29939 172.306 3.33124C172.78 3.50355 173.195 3.76201 173.568 4.0779ZM172.02 1.75177C172.005 2.21126 171.977 2.67074 171.962 3.14458C171.977 2.64202 171.991 2.15382 172.005 1.65126C172.005 1.67998 172.02 1.72306 172.02 1.75177ZM66.8018 70.4586L66.2856 60.4649L65.798 50.4712C65.1671 37.1462 64.6079 23.8213 64.1491 10.4819C64.1204 9.66347 64.2495 8.84502 64.5219 8.08401C64.7943 7.32299 65.2102 6.60505 65.755 6.00198C66.8304 4.78148 68.3647 3.99175 69.985 3.84816C70.1857 3.8338 70.3865 3.81944 70.6015 3.81944L71.2324 3.80508L72.4799 3.77636L74.9749 3.73329L79.9648 3.64714L89.9589 3.50355L99.953 3.38868L109.947 3.30252L119.941 3.24509L139.93 3.13022C146.597 3.08714 153.25 3.04407 159.918 2.97227L169.912 2.8574H170.227H170.471L170.715 2.87176L170.959 2.90048C171.274 2.94355 171.604 3.01535 171.905 3.11586C171.934 3.13022 171.948 3.13022 171.977 3.14458C171.776 8.18452 171.719 13.2245 171.733 18.2644C171.733 19.7146 171.747 21.1649 171.762 22.6151C171.776 24.0654 171.805 25.5156 171.819 26.9658L171.862 29.134L171.891 30.2253C171.891 30.3976 171.905 30.6273 171.919 30.8283C171.948 31.0437 171.962 31.2448 171.991 31.4601C172.249 33.1258 173.052 34.7052 174.228 35.897C175.404 37.0888 176.952 37.9072 178.601 38.2088C179.017 38.2806 179.433 38.3236 179.849 38.338C180.064 38.3524 180.264 38.338 180.48 38.338C180.58 38.338 180.68 38.3236 180.795 38.3093L180.953 38.2949L181.082 38.2806C181.799 38.2088 182.516 38.137 183.233 38.0508C186.115 37.7349 188.982 37.4047 191.85 37.0313C197.571 36.3134 203.278 35.5093 208.956 34.4898C209.128 34.5042 209.3 34.5186 209.487 34.5473C208.913 34.6191 208.325 34.6765 207.752 34.7339C207.824 34.8919 207.881 35.0642 207.938 35.2365C208.024 35.538 208.096 35.8396 208.125 36.1411C208.139 36.2129 208.139 36.299 208.139 36.3708C208.139 36.457 208.153 36.5144 208.153 36.6293L208.168 37.2611L208.34 42.258L208.684 52.2517L208.77 54.6065C203.436 57.3347 197.915 59.7183 192.266 61.7141C164.965 71.4063 134.825 72.2535 106.95 64.5285C99.7523 62.5326 92.7119 59.9911 85.9297 56.8609C81.3699 54.7645 73.584 50.3707 70.1427 56.7316C66.8591 62.791 74.9605 68.1182 79.1188 70.7602C82.8755 73.1437 86.9047 75.0822 91.0916 76.5611C86.2738 77.3939 81.3843 77.8103 76.4661 77.7816C73.3402 77.7673 70.2287 77.5519 67.1602 77.1786L66.8018 70.4586Z" fill="#001064"/>
<path d="M279.517 99.1828C278.586 98.4802 277.053 98.5083 275.907 98.1851C274.647 97.8198 273.429 97.3561 272.284 96.7659C269.934 95.5575 267.872 93.9134 266.296 91.9321C264.678 89.8946 263.575 87.4637 263.073 84.9906C263.059 84.8922 263.031 84.7798 263.016 84.6814C263.475 82.2083 263.575 79.6931 263.202 77.3464C262.988 75.9413 260.524 75.9553 260.409 77.4026C260.381 77.7118 260.366 78.0209 260.381 78.3301C260.381 78.4425 260.395 78.5408 260.424 78.6392C260.452 80.6064 260.467 82.5456 260.137 84.5269C259.736 86.9438 258.991 89.3325 257.931 91.5808C257.015 93.534 255.768 95.4169 253.949 96.794C251.944 98.3116 249.566 98.8315 247.002 98.8596C246.186 98.8737 245.842 99.8151 246.644 100.152C247.361 100.447 248.091 100.616 248.793 100.672C249.151 100.897 249.495 101.108 249.91 101.291C250.698 101.642 251.457 102.007 252.173 102.471C253.634 103.384 254.923 104.508 255.969 105.801C258.218 108.597 259.163 112.181 258.776 115.595C258.69 116.368 259.249 116.846 259.894 116.972C260.596 118.125 262.615 117.717 262.501 116.213C262.185 112.026 263.317 107.923 266.755 104.916C268.33 103.539 270.178 102.555 272.226 101.867C273.558 101.403 274.948 101.22 276.323 101.01C277.354 101.277 278.443 101.431 279.316 101.066C280.176 100.7 280.205 99.6887 279.517 99.1828ZM271.496 99.4919C268.96 100.195 266.568 101.515 264.706 103.216C263.059 104.719 261.713 106.588 260.796 108.611C260.237 107.15 259.435 105.745 258.39 104.466C257.172 102.963 255.611 101.642 253.878 100.63C253.491 100.405 253.09 100.195 252.675 99.9837C255.64 98.7612 258.175 96.0914 259.579 93.7307C260.424 92.3115 261.154 90.7518 261.756 89.1358C262.314 90.5269 263.045 91.8619 263.962 93.1125C265.652 95.4169 267.986 97.3842 270.608 98.7894C270.994 99.0001 271.396 99.1968 271.797 99.3795C271.711 99.4357 271.61 99.4638 271.496 99.4919Z" fill="#001064"/>
<path d="M31.5947 24.2789C22.2441 22.7489 15.7374 14.0894 16.5414 4.98416C16.7946 3.75131 17.0179 2.51847 17.2412 1.30049C17.4795 -0.00662275 15.3354 -0.556202 14.9483 0.736053C14.4867 2.26596 14.2038 3.82558 14.0698 5.3852C13.4146 8.5787 12.4766 11.7425 10.675 14.4607C9.58805 16.1094 8.18844 17.5799 6.52082 18.6494C5.88057 19.0504 5.24033 19.3772 4.5703 19.6297C4.52563 19.5852 4.46607 19.5554 4.42141 19.5109C3.37914 18.7236 2.23266 19.4218 1.90509 20.3724C1.4584 20.4615 1.01172 20.5506 0.550145 20.6249C-0.0454334 20.7289 -0.253886 21.7092 0.41614 21.9023C1.07128 22.0805 1.7413 22.1548 2.39644 22.14C2.41133 22.1548 2.44111 22.1697 2.456 22.1994C7.69709 26.1207 10.7048 32.6562 10.1836 39.1769C10.0198 41.2713 13.0424 41.5832 13.3998 39.5334C14.8738 31.1709 22.9588 25.8682 31.2373 27.3535C33.2325 27.71 33.5452 24.6502 31.5947 24.2789ZM12.8488 32.3889C11.8215 28.1259 9.57316 24.1897 6.34215 21.1299C8.57557 20.0456 10.5708 18.2335 11.9555 16.4065C13.0424 14.9806 13.8762 13.4358 14.5462 11.8019C15.0674 14.0448 15.9607 16.2134 17.2412 18.2038C18.894 20.7883 21.1423 22.9123 23.7182 24.4868C19.2513 25.6602 15.3503 28.4973 12.8488 32.3889Z" fill="#001064"/>
<path d="M46.097 53.6261C44.0721 52.824 42.1513 52.1407 40.3497 50.8633C38.5927 49.6305 37.074 48.056 35.868 46.2736C34.5428 44.3129 33.6197 42.0998 33.1283 39.7826C32.9794 39.0696 32.8603 38.327 32.8007 37.5991C32.8156 37.5249 32.8305 37.4655 32.8305 37.3763C32.8305 37.1238 32.8305 36.8565 32.8156 36.5891C32.8752 35.5494 32.8752 34.5096 32.8156 33.4847C32.7114 31.732 29.9569 31.5241 30.0313 33.3362C30.2844 39.9757 28.2595 51.4426 20.0851 52.2596C19.7576 52.2447 19.43 52.2596 19.0875 52.3041C18.9238 52.3041 18.76 52.3041 18.5962 52.2893C17.8815 52.2447 17.673 53.2993 18.3728 53.5221C18.7749 53.6558 19.162 53.7449 19.564 53.8043C20.8445 54.2202 22.0654 54.6213 23.1673 55.4976C24.4626 56.5077 25.5198 57.889 26.2792 59.3298C28.0808 62.7461 28.2892 66.7714 28.4977 70.5591C28.5424 71.4206 29.3911 71.7919 30.0164 71.6137C30.076 71.6434 30.1504 71.6731 30.2249 71.6879C30.6418 71.7622 31.1331 71.5246 31.2522 71.0938C31.416 70.4997 31.4607 69.8461 31.4905 69.2074C31.5649 69.0589 31.6245 68.8955 31.6394 68.7172C32.1158 65.2564 33.5601 62.0777 36.1955 59.6863C37.4611 58.5426 38.9501 57.6365 40.5433 57.0127C41.5855 56.6116 42.6576 56.374 43.7296 56.1512C44.3252 56.3443 44.9208 56.4928 45.5312 56.5968C47.3329 56.9087 47.6009 54.2351 46.097 53.6261ZM34.3939 57.7108C32.4732 59.3892 30.9544 61.543 29.9866 63.9047C29.5846 61.6915 28.9295 59.5526 27.7383 57.6217C26.7705 56.0621 25.2667 54.4133 23.5097 53.3587C25.9218 52.4527 27.9914 50.492 29.3613 48.2491C30.1951 46.8826 30.88 45.3972 31.416 43.8525C31.9669 45.3824 32.6816 46.838 33.5899 48.1748C35.1979 50.5663 37.476 52.7943 40.0668 54.3836C37.9227 55.1411 35.9275 56.374 34.3939 57.7108Z" fill="#001064"/>
</svg>
