<svg width="23" height="29" viewBox="0 0 23 29" fill="none" xmlns="http://www.w3.org/2000/svg">
<path d="M22.994 9.67127C22.994 11.1729 23.0119 12.6746 22.988 14.1762C22.9282 18.489 21.187 21.9488 17.7346 24.5197C15.7661 25.9853 13.7676 27.4149 11.7931 28.8745C11.5658 29.0427 11.4282 29.0306 11.2068 28.8685C9.16046 27.3548 7.07826 25.8892 5.0499 24.3515C2.06421 22.087 0.376902 19.0536 0.0777342 15.3115C-0.0538995 13.7077 0.0179007 12.0919 0.0119174 10.4762C0.00593403 8.45193 0.0119174 6.42769 0.00593403 4.40947C0.00593403 4.20524 0.0657676 4.11514 0.257235 4.04306C3.92503 2.70959 7.59282 1.37011 11.2666 0.0366385C11.4102 -0.0174212 11.6017 -0.0174212 11.7453 0.0366385C15.3951 1.3641 19.045 2.69758 22.6948 4.02504C22.9401 4.11514 23 4.23527 22.994 4.47554C22.988 6.20545 22.994 7.94136 22.994 9.67127ZM1.92659 5.49066C1.92659 5.58076 1.92659 5.64683 1.92659 5.71891C1.92659 8.60209 1.89069 11.4853 1.93856 14.3685C1.99241 17.8223 3.41046 20.6334 6.1269 22.7597C7.31161 23.6908 8.55614 24.5437 9.77076 25.4327C10.3511 25.8531 10.9255 26.2736 11.5119 26.7001C13.295 25.3966 15.084 24.1413 16.8191 22.8078C19.6134 20.6694 21.0195 17.7982 21.0793 14.2724C21.1032 12.6806 21.0853 11.0888 21.0853 9.49708C21.0853 8.16361 21.0853 6.83614 21.0853 5.50267C21.0075 5.47264 20.9477 5.44261 20.8818 5.41858C17.8244 4.30135 14.7669 3.17811 11.7034 2.06688C11.5777 2.02483 11.4102 2.03685 11.2846 2.0849C10.1417 2.49335 8.99891 2.91381 7.85609 3.32827C5.88757 4.04306 3.92503 4.76386 1.92659 5.49066Z" fill="white"/>
<path d="M7.43133 12.0965C8.37071 13.0455 9.32207 14.0066 10.2794 14.9796C12.0565 13.1957 13.8156 11.4297 15.5567 9.67578C16.0354 10.1563 16.4782 10.6008 16.903 11.0273C14.7131 13.2257 12.5052 15.4421 10.3273 17.6346C8.92717 16.229 7.51509 14.8114 6.12097 13.4119C6.52784 12.9974 6.97061 12.559 7.43133 12.0965Z" fill="white"/>
</svg>
