<svg width="312" height="242" viewBox="0 0 312 242" fill="none" xmlns="http://www.w3.org/2000/svg">
<path d="M77.6041 80.6595L80.2971 63.4346L91.3998 58.2672L195.443 51.9513L214.413 66.3057L242.004 89.8464L242.904 179.428L217.086 187.353L156.466 204.348L121.056 196.589L83.9588 187.712L77.6041 80.6595Z" fill="#D3E1FF"/>
<g clip-path="url(#clip0)">
<path d="M74.9584 185.274C78.6373 185.389 82.3162 185.734 85.8802 186.193C89.4441 186.652 93.123 187.227 96.6869 187.801C100.251 188.49 103.815 189.179 107.379 189.983C110.943 190.786 114.392 191.705 117.841 192.853C124.739 195.15 131.407 198.136 138.419 200.088C140.144 200.547 141.868 201.007 143.708 201.466C145.432 201.925 147.272 202.385 148.881 202.499C152.33 202.959 155.779 202.614 158.998 201.696C159.803 201.466 160.608 201.236 161.413 200.892L163.942 199.858C165.666 199.169 167.276 198.48 169 197.906C172.449 196.643 175.898 195.495 179.232 194.346C186.13 192.05 193.028 189.753 199.926 187.916C203.375 186.997 206.939 186.078 210.503 185.389L215.791 184.241L221.08 183.208C228.207 181.83 235.335 180.566 242.693 179.992L242.923 180.796C236.37 184.126 229.587 186.767 222.804 189.408L217.746 191.246L212.572 192.968C209.123 194.117 205.674 195.265 202.225 196.298C195.327 198.365 188.199 200.088 181.187 201.696C177.623 202.499 174.174 203.418 170.61 204.107C168.885 204.452 167.046 204.796 165.206 205.141L162.562 205.6C161.642 205.83 160.608 205.944 159.688 205.944C155.779 206.289 151.985 205.944 148.306 205.141C146.467 204.681 144.743 204.107 143.018 203.763C141.294 203.303 139.454 202.844 137.73 202.499C130.602 201.121 123.244 200.662 116.116 199.399C112.552 198.825 108.988 197.906 105.539 196.987C102.09 196.069 98.5264 195.035 95.0774 193.887C91.6284 192.739 88.1795 191.59 84.8455 190.327C81.3965 189.064 78.0625 187.686 74.7285 186.078L74.9584 185.274Z" fill="#001064"/>
</g>
<path d="M226.323 208.699L175.898 216.009L178.518 242.001L227.633 234.691L226.323 208.699Z" fill="white"/>
<path d="M70.9993 143.244C70.9993 143.244 35.4359 79.7109 79.6817 53.2993C99.9878 41.178 110.804 43.606 116.565 49.7818C126.13 60.037 121.061 77.2124 110.804 86.7756C103.625 93.4694 94.0492 97.0603 84.1318 85.3421C48.2704 46.7406 94.0314 13.0151 116.659 5.90431C150.399 -4.55872 198.484 4.78689 206.666 48.8738C214.849 92.9608 172.623 88.5927 174.24 60.2511C175.149 43.3884 189.796 32.3158 210.202 31.9095C231.719 31.5032 255.963 54.9688 256.367 89.3038C256.67 112.871 245.457 124.655 245.457 124.655" stroke="#001064" stroke-width="3.5" stroke-miterlimit="10" stroke-linecap="round" stroke-linejoin="bevel"/>
<mask id="path-5-outside-1" maskUnits="userSpaceOnUse" x="74.8574" y="49.2969" width="172" height="172" fill="black">
<rect fill="white" x="74.8574" y="49.2969" width="172" height="172"/>
<path d="M82.824 205.615C82.0147 197.074 81.3799 188.533 80.7927 179.992C80.2056 171.451 78.2854 124.784 77.8252 116.243C77.3491 107.687 76.9365 99.1456 76.5557 90.5888C76.3652 86.3183 76.1748 82.0319 76.032 77.7614L75.9209 74.5546L75.8733 72.9511L75.8574 72.1415V71.9351V71.7129V71.2525C75.8733 68.7918 76.4922 66.347 77.603 64.172C78.1585 63.0925 78.8408 62.0606 79.6343 61.1398C80.4278 60.219 81.3164 59.3776 82.2845 58.6632C83.2525 57.9488 84.3157 57.3456 85.4266 56.8693C86.5374 56.393 87.6959 56.0438 88.8702 55.8374C89.4573 55.7422 90.0604 55.6628 90.6475 55.631L91.0919 55.6151L91.5045 55.5993L92.3138 55.5834L95.5194 55.504L101.946 55.3611C110.5 55.1706 119.069 54.9325 127.623 54.5674C131.892 54.3927 136.176 54.1864 140.445 53.9482L143.651 53.7736L146.856 53.5831C148.999 53.4561 151.125 53.3291 153.267 53.1862C161.805 52.6464 170.343 51.9955 178.88 51.3447L191.687 50.3445L191.893 50.3286L192.115 50.3128L192.56 50.2969C192.861 50.2969 193.163 50.2969 193.464 50.2969C193.766 50.3128 194.067 50.3128 194.369 50.3445L194.813 50.3921L195.257 50.4556C195.86 50.535 196.448 50.662 197.019 50.8049C197.59 50.9636 198.177 51.1383 198.733 51.3605C199.859 51.805 200.939 52.3607 201.922 53.0592C202.176 53.2338 202.414 53.4085 202.652 53.599L203.002 53.8689L203.319 54.1229L204.557 55.1389C211.19 60.5524 217.76 66.0453 224.33 71.5223L234.2 79.7458L236.66 81.8096L236.819 81.9366L236.993 82.0795L237.342 82.397C237.581 82.6034 237.803 82.8257 238.025 83.0479C238.247 83.2702 238.453 83.5083 238.66 83.7306C238.866 83.9687 239.056 84.2068 239.263 84.4608C240.802 86.4453 241.881 88.7948 242.405 91.2555C242.468 91.5572 242.516 91.8747 242.563 92.1922C242.595 92.5097 242.643 92.8113 242.675 93.1288L242.706 93.6051L242.722 93.8432V93.9544V94.0496L242.754 94.8593L242.881 98.0661L243.119 104.48C243.278 108.75 243.42 113.037 243.547 117.323C243.674 121.609 243.801 125.88 243.896 130.166C244.008 134.453 244.103 138.723 244.198 143.009C244.388 151.566 244.531 160.139 244.642 168.696C244.753 177.253 244.833 185.826 244.864 194.398C244.896 202.971 244.88 211.528 244.753 220.101L244.277 220.117C243.563 211.576 242.976 203.019 242.421 194.478C241.865 185.937 241.357 177.38 240.881 168.823C240.405 160.266 239.977 151.725 239.564 143.168C239.358 138.898 239.167 134.611 238.977 130.341C238.787 126.07 238.612 121.784 238.453 117.514C238.295 113.243 238.136 108.957 238.009 104.67L237.819 98.2566L237.723 95.0498L237.707 94.2401V94.1449V94.0655L237.692 93.9067L237.676 93.5733L237.612 92.9224C237.581 92.7002 237.549 92.4938 237.501 92.2716C237.168 90.5411 236.438 88.8901 235.375 87.4772L234.962 86.9533C234.819 86.7945 234.676 86.6199 234.518 86.4611C234.359 86.3024 234.216 86.1436 234.042 85.9849L233.804 85.7626C233.756 85.7309 233.724 85.6832 233.677 85.6515L233.518 85.5245L231.09 83.4289L221.394 75.0149C214.967 69.3633 208.492 63.7593 202.081 58.0758L200.875 57.0122L200.574 56.7423L200.304 56.5201C200.129 56.3613 199.939 56.2343 199.764 56.0914C199.018 55.5199 198.209 55.0595 197.368 54.6785C196.939 54.488 196.495 54.3292 196.051 54.1705C195.606 54.0435 195.146 53.9165 194.686 53.8212L194.337 53.7577L193.988 53.7101C193.75 53.6783 193.528 53.6625 193.29 53.6307C193.052 53.6148 192.813 53.599 192.575 53.599H192.226H192.052C191.988 53.599 191.925 53.599 191.861 53.599L179.023 53.9482C170.47 54.1864 161.9 54.4245 153.363 54.7896C151.22 54.8849 149.094 54.9643 146.951 55.0754L143.73 55.2183L140.524 55.377C136.256 55.5834 131.971 55.8374 127.702 56.0914C119.164 56.6153 110.627 57.2821 102.089 57.9806L95.6939 58.5045L92.4884 58.7585L91.6949 58.822L91.2982 58.8696L90.949 58.9014C90.473 58.949 90.0128 59.0442 89.5525 59.1395C87.7276 59.5681 85.9978 60.4095 84.5696 61.5843C83.8555 62.1717 83.189 62.8385 82.6177 63.5687C82.0464 64.299 81.5703 65.0928 81.1736 65.9183C80.7769 66.7438 80.4912 67.6329 80.3008 68.5219C80.1104 69.4109 80.0152 70.3317 80.031 71.2366L80.3167 77.5709C80.5071 81.8414 80.6499 86.1278 80.7927 90.3983C81.0943 98.9551 81.3323 107.512 81.5227 116.069C81.7132 124.626 83.2683 171.308 83.3477 179.865C83.4112 188.437 83.4429 196.994 83.316 205.567L82.824 205.615Z"/>
</mask>
<path d="M82.824 205.615C82.0147 197.074 81.3799 188.533 80.7927 179.992C80.2056 171.451 78.2854 124.784 77.8252 116.243C77.3491 107.687 76.9365 99.1456 76.5557 90.5888C76.3652 86.3183 76.1748 82.0319 76.032 77.7614L75.9209 74.5546L75.8733 72.9511L75.8574 72.1415V71.9351V71.7129V71.2525C75.8733 68.7918 76.4922 66.347 77.603 64.172C78.1585 63.0925 78.8408 62.0606 79.6343 61.1398C80.4278 60.219 81.3164 59.3776 82.2845 58.6632C83.2525 57.9488 84.3157 57.3456 85.4266 56.8693C86.5374 56.393 87.6959 56.0438 88.8702 55.8374C89.4573 55.7422 90.0604 55.6628 90.6475 55.631L91.0919 55.6151L91.5045 55.5993L92.3138 55.5834L95.5194 55.504L101.946 55.3611C110.5 55.1706 119.069 54.9325 127.623 54.5674C131.892 54.3927 136.176 54.1864 140.445 53.9482L143.651 53.7736L146.856 53.5831C148.999 53.4561 151.125 53.3291 153.267 53.1862C161.805 52.6464 170.343 51.9955 178.88 51.3447L191.687 50.3445L191.893 50.3286L192.115 50.3128L192.56 50.2969C192.861 50.2969 193.163 50.2969 193.464 50.2969C193.766 50.3128 194.067 50.3128 194.369 50.3445L194.813 50.3921L195.257 50.4556C195.86 50.535 196.448 50.662 197.019 50.8049C197.59 50.9636 198.177 51.1383 198.733 51.3605C199.859 51.805 200.939 52.3607 201.922 53.0592C202.176 53.2338 202.414 53.4085 202.652 53.599L203.002 53.8689L203.319 54.1229L204.557 55.1389C211.19 60.5524 217.76 66.0453 224.33 71.5223L234.2 79.7458L236.66 81.8096L236.819 81.9366L236.993 82.0795L237.342 82.397C237.581 82.6034 237.803 82.8257 238.025 83.0479C238.247 83.2702 238.453 83.5083 238.66 83.7306C238.866 83.9687 239.056 84.2068 239.263 84.4608C240.802 86.4453 241.881 88.7948 242.405 91.2555C242.468 91.5572 242.516 91.8747 242.563 92.1922C242.595 92.5097 242.643 92.8113 242.675 93.1288L242.706 93.6051L242.722 93.8432V93.9544V94.0496L242.754 94.8593L242.881 98.0661L243.119 104.48C243.278 108.75 243.42 113.037 243.547 117.323C243.674 121.609 243.801 125.88 243.896 130.166C244.008 134.453 244.103 138.723 244.198 143.009C244.388 151.566 244.531 160.139 244.642 168.696C244.753 177.253 244.833 185.826 244.864 194.398C244.896 202.971 244.88 211.528 244.753 220.101L244.277 220.117C243.563 211.576 242.976 203.019 242.421 194.478C241.865 185.937 241.357 177.38 240.881 168.823C240.405 160.266 239.977 151.725 239.564 143.168C239.358 138.898 239.167 134.611 238.977 130.341C238.787 126.07 238.612 121.784 238.453 117.514C238.295 113.243 238.136 108.957 238.009 104.67L237.819 98.2566L237.723 95.0498L237.707 94.2401V94.1449V94.0655L237.692 93.9067L237.676 93.5733L237.612 92.9224C237.581 92.7002 237.549 92.4938 237.501 92.2716C237.168 90.5411 236.438 88.8901 235.375 87.4772L234.962 86.9533C234.819 86.7945 234.676 86.6199 234.518 86.4611C234.359 86.3024 234.216 86.1436 234.042 85.9849L233.804 85.7626C233.756 85.7309 233.724 85.6832 233.677 85.6515L233.518 85.5245L231.09 83.4289L221.394 75.0149C214.967 69.3633 208.492 63.7593 202.081 58.0758L200.875 57.0122L200.574 56.7423L200.304 56.5201C200.129 56.3613 199.939 56.2343 199.764 56.0914C199.018 55.5199 198.209 55.0595 197.368 54.6785C196.939 54.488 196.495 54.3292 196.051 54.1705C195.606 54.0435 195.146 53.9165 194.686 53.8212L194.337 53.7577L193.988 53.7101C193.75 53.6783 193.528 53.6625 193.29 53.6307C193.052 53.6148 192.813 53.599 192.575 53.599H192.226H192.052C191.988 53.599 191.925 53.599 191.861 53.599L179.023 53.9482C170.47 54.1864 161.9 54.4245 153.363 54.7896C151.22 54.8849 149.094 54.9643 146.951 55.0754L143.73 55.2183L140.524 55.377C136.256 55.5834 131.971 55.8374 127.702 56.0914C119.164 56.6153 110.627 57.2821 102.089 57.9806L95.6939 58.5045L92.4884 58.7585L91.6949 58.822L91.2982 58.8696L90.949 58.9014C90.473 58.949 90.0128 59.0442 89.5525 59.1395C87.7276 59.5681 85.9978 60.4095 84.5696 61.5843C83.8555 62.1717 83.189 62.8385 82.6177 63.5687C82.0464 64.299 81.5703 65.0928 81.1736 65.9183C80.7769 66.7438 80.4912 67.6329 80.3008 68.5219C80.1104 69.4109 80.0152 70.3317 80.031 71.2366L80.3167 77.5709C80.5071 81.8414 80.6499 86.1278 80.7927 90.3983C81.0943 98.9551 81.3323 107.512 81.5227 116.069C81.7132 124.626 83.2683 171.308 83.3477 179.865C83.4112 188.437 83.4429 196.994 83.316 205.567L82.824 205.615Z" fill="#001064"/>
<path d="M82.824 205.615C82.0147 197.074 81.3799 188.533 80.7927 179.992C80.2056 171.451 78.2854 124.784 77.8252 116.243C77.3491 107.687 76.9365 99.1456 76.5557 90.5888C76.3652 86.3183 76.1748 82.0319 76.032 77.7614L75.9209 74.5546L75.8733 72.9511L75.8574 72.1415V71.9351V71.7129V71.2525C75.8733 68.7918 76.4922 66.347 77.603 64.172C78.1585 63.0925 78.8408 62.0606 79.6343 61.1398C80.4278 60.219 81.3164 59.3776 82.2845 58.6632C83.2525 57.9488 84.3157 57.3456 85.4266 56.8693C86.5374 56.393 87.6959 56.0438 88.8702 55.8374C89.4573 55.7422 90.0604 55.6628 90.6475 55.631L91.0919 55.6151L91.5045 55.5993L92.3138 55.5834L95.5194 55.504L101.946 55.3611C110.5 55.1706 119.069 54.9325 127.623 54.5674C131.892 54.3927 136.176 54.1864 140.445 53.9482L143.651 53.7736L146.856 53.5831C148.999 53.4561 151.125 53.3291 153.267 53.1862C161.805 52.6464 170.343 51.9955 178.88 51.3447L191.687 50.3445L191.893 50.3286L192.115 50.3128L192.56 50.2969C192.861 50.2969 193.163 50.2969 193.464 50.2969C193.766 50.3128 194.067 50.3128 194.369 50.3445L194.813 50.3921L195.257 50.4556C195.86 50.535 196.448 50.662 197.019 50.8049C197.59 50.9636 198.177 51.1383 198.733 51.3605C199.859 51.805 200.939 52.3607 201.922 53.0592C202.176 53.2338 202.414 53.4085 202.652 53.599L203.002 53.8689L203.319 54.1229L204.557 55.1389C211.19 60.5524 217.76 66.0453 224.33 71.5223L234.2 79.7458L236.66 81.8096L236.819 81.9366L236.993 82.0795L237.342 82.397C237.581 82.6034 237.803 82.8257 238.025 83.0479C238.247 83.2702 238.453 83.5083 238.66 83.7306C238.866 83.9687 239.056 84.2068 239.263 84.4608C240.802 86.4453 241.881 88.7948 242.405 91.2555C242.468 91.5572 242.516 91.8747 242.563 92.1922C242.595 92.5097 242.643 92.8113 242.675 93.1288L242.706 93.6051L242.722 93.8432V93.9544V94.0496L242.754 94.8593L242.881 98.0661L243.119 104.48C243.278 108.75 243.42 113.037 243.547 117.323C243.674 121.609 243.801 125.88 243.896 130.166C244.008 134.453 244.103 138.723 244.198 143.009C244.388 151.566 244.531 160.139 244.642 168.696C244.753 177.253 244.833 185.826 244.864 194.398C244.896 202.971 244.88 211.528 244.753 220.101L244.277 220.117C243.563 211.576 242.976 203.019 242.421 194.478C241.865 185.937 241.357 177.38 240.881 168.823C240.405 160.266 239.977 151.725 239.564 143.168C239.358 138.898 239.167 134.611 238.977 130.341C238.787 126.07 238.612 121.784 238.453 117.514C238.295 113.243 238.136 108.957 238.009 104.67L237.819 98.2566L237.723 95.0498L237.707 94.2401V94.1449V94.0655L237.692 93.9067L237.676 93.5733L237.612 92.9224C237.581 92.7002 237.549 92.4938 237.501 92.2716C237.168 90.5411 236.438 88.8901 235.375 87.4772L234.962 86.9533C234.819 86.7945 234.676 86.6199 234.518 86.4611C234.359 86.3024 234.216 86.1436 234.042 85.9849L233.804 85.7626C233.756 85.7309 233.724 85.6832 233.677 85.6515L233.518 85.5245L231.09 83.4289L221.394 75.0149C214.967 69.3633 208.492 63.7593 202.081 58.0758L200.875 57.0122L200.574 56.7423L200.304 56.5201C200.129 56.3613 199.939 56.2343 199.764 56.0914C199.018 55.5199 198.209 55.0595 197.368 54.6785C196.939 54.488 196.495 54.3292 196.051 54.1705C195.606 54.0435 195.146 53.9165 194.686 53.8212L194.337 53.7577L193.988 53.7101C193.75 53.6783 193.528 53.6625 193.29 53.6307C193.052 53.6148 192.813 53.599 192.575 53.599H192.226H192.052C191.988 53.599 191.925 53.599 191.861 53.599L179.023 53.9482C170.47 54.1864 161.9 54.4245 153.363 54.7896C151.22 54.8849 149.094 54.9643 146.951 55.0754L143.73 55.2183L140.524 55.377C136.256 55.5834 131.971 55.8374 127.702 56.0914C119.164 56.6153 110.627 57.2821 102.089 57.9806L95.6939 58.5045L92.4884 58.7585L91.6949 58.822L91.2982 58.8696L90.949 58.9014C90.473 58.949 90.0128 59.0442 89.5525 59.1395C87.7276 59.5681 85.9978 60.4095 84.5696 61.5843C83.8555 62.1717 83.189 62.8385 82.6177 63.5687C82.0464 64.299 81.5703 65.0928 81.1736 65.9183C80.7769 66.7438 80.4912 67.6329 80.3008 68.5219C80.1104 69.4109 80.0152 70.3317 80.031 71.2366L80.3167 77.5709C80.5071 81.8414 80.6499 86.1278 80.7927 90.3983C81.0943 98.9551 81.3323 107.512 81.5227 116.069C81.7132 124.626 83.2683 171.308 83.3477 179.865C83.4112 188.437 83.4429 196.994 83.316 205.567L82.824 205.615Z" stroke="#001064" stroke-width="2" mask="url(#path-5-outside-1)"/>
<path fill-rule="evenodd" clip-rule="evenodd" d="M310.43 98.8185C310.684 99.9479 310.581 101.113 310.627 102.336C310.697 103.051 310.225 103.387 309.512 103.459C307.2 104.126 304.727 103.87 302.288 103.972C299.194 103.996 295.916 103.605 292.787 103.271C291.625 103.172 291.441 102.757 291.487 101.742C291.83 98.6033 291.83 98.6033 294.867 98.7298C299.572 98.9766 304.391 98.923 309.061 98.8124C309.568 98.8334 310.074 98.8545 310.43 98.8185Z" fill="#001064"/>
<path fill-rule="evenodd" clip-rule="evenodd" d="M310.491 142.52C310.997 142.541 311.089 142.748 310.917 143.199C310.859 143.349 310.894 143.707 310.837 143.857C310.251 146.731 310.194 146.881 307.421 146.512C303.039 145.871 298.564 145.024 294.181 144.384C293.525 144.305 293.284 144.041 293.307 143.534C293.524 142.068 293.593 140.545 293.811 139.079C293.891 138.421 294.098 138.328 294.754 138.406C299.919 139.69 305.084 140.973 310.1 142.199C310.192 142.406 310.341 142.463 310.491 142.52Z" fill="#001064"/>
<path fill-rule="evenodd" clip-rule="evenodd" d="M280.141 174.856C276.839 172.736 273.916 170.071 270.936 167.557C270.787 167.5 270.395 167.178 270.453 167.028C271.119 165.734 272.362 165.175 273.27 164.145C273.856 163.508 274.282 164.187 274.673 164.508C277.803 167.08 280.933 169.651 284.12 172.072C284.753 172.658 284.788 173.016 284.201 173.652C283.994 173.745 283.879 174.046 283.822 174.196C282.27 176.013 282.27 176.013 280.141 174.856Z" fill="#001064"/>
<path fill-rule="evenodd" clip-rule="evenodd" d="M1.46426 98.8185C1.21075 99.9479 1.3138 101.113 1.2673 102.336C1.19799 103.051 1.66947 103.387 2.3826 103.459C4.69436 104.126 7.16752 103.87 9.60604 103.972C12.7002 103.996 15.9786 103.605 19.1075 103.271C20.2693 103.172 20.4535 102.757 20.4079 101.742C20.0641 98.6033 20.0641 98.6033 17.0273 98.7298C12.3227 98.9766 7.5031 98.923 2.83308 98.8124C2.32696 98.8334 1.82083 98.8545 1.46426 98.8185Z" fill="#001064"/>
<path fill-rule="evenodd" clip-rule="evenodd" d="M1.4035 142.52C0.897379 142.541 0.805273 142.748 0.97763 143.199C1.03508 143.349 1.00043 143.707 1.05789 143.857C1.64336 146.731 1.7008 146.881 4.47309 146.512C8.85585 145.871 13.3307 145.024 17.7135 144.384C18.3692 144.305 18.6108 144.041 18.588 143.534C18.3701 142.068 18.3017 140.545 18.0837 139.079C18.0035 138.421 17.7965 138.328 17.1408 138.406C11.9756 139.69 6.81036 140.973 1.79472 142.199C1.70261 142.406 1.55306 142.463 1.4035 142.52Z" fill="#001064"/>
<path fill-rule="evenodd" clip-rule="evenodd" d="M31.7533 174.856C35.0554 172.736 37.9782 170.071 40.9584 167.557C41.1079 167.5 41.4991 167.178 41.4417 167.028C40.7751 165.734 39.533 165.175 38.6247 164.145C38.0383 163.508 37.6125 164.187 37.2213 164.508C34.0915 167.08 30.9618 169.651 27.7745 172.072C27.1417 172.658 27.107 173.016 27.6934 173.652C27.9004 173.745 28.0153 174.046 28.0728 174.196C29.6249 176.013 29.6249 176.013 31.7533 174.856Z" fill="#001064"/>
<path d="M158.457 99.5851C158.034 99.5851 157.61 99.4794 157.293 99.2679C156.34 98.6336 156.128 97.3648 156.763 96.4133C161.315 89.6467 168.83 85.3119 176.875 84.6776C185.025 84.0432 193.07 87.215 198.574 93.1357C199.315 93.9816 199.315 95.2503 198.468 96.0961C197.621 96.8362 196.351 96.8362 195.504 95.9904C190.953 91.0212 183.861 88.2723 177.192 88.8009C170.418 89.3296 163.961 93.1357 160.151 98.7393C159.727 99.2679 159.092 99.5851 158.457 99.5851Z" fill="#001064"/>
<path d="M144.908 151.393C143.532 151.393 142.156 151.076 140.992 150.441C138.134 148.855 136.123 145.578 135.699 141.772C135.276 138.6 135.911 135.428 136.546 132.574L140.251 113.014C141.098 108.785 142.05 104.133 140.568 100.01C138.981 95.2518 134.006 91.9743 128.925 92.1858C123.95 92.5029 119.398 96.4148 118.34 101.278C118.128 102.441 116.964 103.076 115.905 102.864C114.741 102.653 114.106 101.49 114.318 100.432C115.694 93.7717 121.939 88.4853 128.713 88.0624C135.488 87.6395 142.262 92.1857 144.485 98.6351C146.284 103.816 145.12 109.314 144.273 113.754L140.462 133.208C139.933 135.851 139.404 138.6 139.722 141.137C140.039 143.675 141.203 145.789 142.897 146.741C143.744 147.27 144.908 147.375 145.967 147.058C146.39 146.952 147.237 146.635 147.66 145.789C148.189 144.838 149.46 144.415 150.518 144.944C151.471 145.472 151.894 146.741 151.365 147.798C150.518 149.384 149.036 150.441 147.237 150.97C146.39 151.287 145.649 151.393 144.908 151.393Z" fill="#001064"/>
<path d="M153.376 176.448C144.378 176.448 135.487 173.911 127.866 169.047C126.913 168.413 126.596 167.144 127.231 166.192C127.866 165.241 129.136 164.924 130.089 165.558C137.816 170.422 147.13 172.853 156.234 172.219C165.337 171.585 174.228 167.99 181.214 162.069C182.061 161.329 183.437 161.435 184.072 162.281C184.813 163.126 184.707 164.501 183.86 165.135C176.239 171.585 166.501 175.496 156.445 176.237C155.493 176.448 154.434 176.448 153.376 176.448Z" fill="#001064"/>
<path d="M171.477 116.311C171.797 114.188 171.472 111.703 172.403 109.71C172.994 108.445 173.822 106.959 175.122 106.267C176.788 105.379 179.155 105.29 180.606 106.663C183.169 109.088 183.914 112.929 183.914 116.311" stroke="#001064" stroke-width="4" stroke-linecap="round" stroke-linejoin="round"/>
<path d="M120.668 116.311C120.989 114.188 120.663 111.703 121.594 109.71C122.185 108.445 123.014 106.959 124.314 106.267C125.979 105.379 128.347 105.29 129.797 106.663C132.36 109.088 133.105 112.929 133.105 116.311" stroke="#001064" stroke-width="4" stroke-linecap="round" stroke-linejoin="round"/>
<defs>
<clipPath id="clip0">
<rect width="168.195" height="50.9857" fill="white" transform="translate(74.7285 179.992)"/>
</clipPath>
</defs>
</svg>
