<svg width="348" height="195" viewBox="0 0 348 195" fill="none" xmlns="http://www.w3.org/2000/svg">
<path d="M180.89 129.508C180.89 134.619 180.817 139.735 180.89 144.845C180.955 149.334 181.819 153.769 181.819 158.278C181.819 161.916 182.283 165.473 182.283 169.111C182.283 170.848 181.764 173.429 182.748 174.901" stroke="#001064" stroke-width="3.48101" stroke-linecap="round" stroke-linejoin="round"/>
<path d="M128.686 152.668C130.579 155.014 132.648 157.344 134.257 159.899C136.514 163.481 137.979 167.48 140.06 171.144C141.408 173.517 143.614 176.041 144.471 178.607" stroke="#001064" stroke-width="3.48101" stroke-linecap="round" stroke-linejoin="round"/>
<path d="M92.4753 179.43C95.8106 182.757 99.7003 185.767 103.592 188.436C105.258 189.579 106.803 190.834 108.724 191.473" stroke="#001064" stroke-width="3.48101" stroke-linecap="round" stroke-linejoin="round"/>
<path d="M247.033 190.672C251.343 188.761 255.555 186.219 259.449 183.553C261.116 182.412 262.844 181.424 264.132 179.864" stroke="#001064" stroke-width="3.48101" stroke-linecap="round" stroke-linejoin="round"/>
<path d="M228.5 145.134C227.079 149.505 224.962 153.615 223.468 157.954C222.588 160.51 222.435 163.763 221.054 166.092C220.345 167.289 219.413 170.477 219.216 171.92" stroke="#001064" stroke-width="3.48101" stroke-linecap="round" stroke-linejoin="round"/>
<rect width="86.1681" height="117.995" rx="31.329" transform="matrix(0.994415 0.105531 -0.106002 0.994366 260.022 35.5469)" fill="#D3ECFF"/>
<path d="M295.193 85.0213C294.864 84.9911 294.551 84.8682 294.337 84.6601C293.694 84.0357 293.724 82.9076 294.363 82.1181C298.934 76.506 305.435 73.2384 311.781 73.2548C318.21 73.2787 323.973 76.6342 327.343 82.2203C327.789 83.0151 327.595 84.1281 326.808 84.8098C326.037 85.3988 325.05 85.3083 324.522 84.506C321.746 79.8225 316.658 76.9059 311.397 76.8947C306.054 76.8761 300.456 79.7553 296.638 84.3999C296.228 84.8335 295.686 85.0665 295.193 85.0213Z" fill="#001064"/>
<path d="M277.017 123.86C276.023 123.77 275.074 123.421 274.323 122.828C272.486 121.348 271.503 118.546 271.743 115.417C271.892 112.805 272.806 110.263 273.674 107.979L279.157 92.2863C280.375 88.8963 281.731 85.1687 281.252 81.712C280.787 77.7316 277.662 74.7347 273.961 74.5735C270.32 74.5054 266.47 77.3938 265.008 81.2867C264.688 82.2203 263.756 82.6607 263.021 82.419C262.21 82.1703 261.918 81.1811 262.223 80.3336C264.173 74.9971 269.443 71.1001 274.399 71.2002C279.355 71.3003 283.598 75.4489 284.279 80.8493C284.836 85.1882 283.206 89.591 281.957 93.1533L276.413 108.753C275.651 110.871 274.875 113.076 274.74 115.165C274.606 117.253 275.144 119.052 276.231 119.938C276.767 120.425 277.593 120.587 278.403 120.398C278.725 120.34 279.382 120.137 279.809 119.476C280.328 118.735 281.307 118.474 281.996 118.974C282.608 119.467 282.732 120.529 282.198 121.356C281.359 122.592 280.136 123.356 278.76 123.669C278.103 123.872 277.552 123.909 277.017 123.86Z" fill="#001064"/>
<path d="M283.1 145.21C276.065 144.547 269.499 141.614 264.281 136.688C263.632 136.048 263.577 134.886 264.218 134.079C264.86 133.272 265.901 133.081 266.55 133.72C271.851 138.655 278.764 141.524 285.978 141.626C293.193 141.728 300.692 139.157 307.055 134.359C307.83 133.758 308.89 133.954 309.258 134.76C309.708 135.573 309.416 136.799 308.658 137.306C301.717 142.532 293.508 145.324 285.533 145.247C284.756 145.366 283.928 145.288 283.1 145.21Z" fill="#001064"/>
<path d="M299.485 99.4504C299.754 98.5939 300.126 97.7725 300.674 97.0665C301.236 96.3434 301.885 95.556 302.589 94.9895C303.16 94.5308 303.589 94.1734 304.319 94.0549C305.328 93.8909 306.344 93.8915 307.282 94.3098C308.327 94.7754 309.769 96.0099 310.087 97.2034C310.411 98.4149 310.514 99.4696 310.514 100.725" stroke="#001064" stroke-width="3.04588" stroke-linecap="round" stroke-linejoin="round"/>
<path d="M270.638 95.6492C270.34 94.0517 270.017 92.147 268.37 91.1265C267.471 90.5697 266.021 90.3728 265.01 90.8063C264.513 91.0196 264.083 91.2045 263.666 91.5427C263.227 91.8995 263.061 92.2366 262.808 92.6954C262.513 93.2294 262.155 93.9772 262.155 94.5685" stroke="#001064" stroke-width="3.04588" stroke-linecap="round" stroke-linejoin="round"/>
<rect x="124.714" width="99.2625" height="99.0373" rx="22.6265" fill="#FFD9D1"/>
<path d="M162.75 64.4766C159.64 64.4766 156.53 63.7605 153.739 62.3282C153.021 61.9304 152.702 61.1347 153.021 60.339C157.886 48.4832 160.278 35.5135 159.959 22.6233C154.058 25.2491 147.279 25.8061 140.979 24.1351C140.181 23.8964 139.703 23.0212 139.862 22.2255C140.101 21.4298 140.979 20.9524 141.776 21.1115C148.076 22.862 154.935 21.9868 160.677 18.804C161.155 18.5653 161.714 18.5653 162.192 18.804C162.671 19.0427 162.99 19.5201 162.99 20.0771C163.707 33.6834 161.474 47.4488 156.53 60.1003C159.959 61.453 163.947 61.6917 167.456 60.6573C168.253 60.4186 169.13 60.896 169.37 61.6917C169.609 62.4874 169.13 63.3626 168.333 63.6013C166.499 64.2379 164.585 64.4766 162.75 64.4766Z" fill="#001064"/>
<path d="M189.068 25.4041L171.842 25.0858C170.965 25.0858 170.327 24.3697 170.327 23.4944C170.327 22.6192 171.044 21.903 171.922 21.9826L189.068 22.3009C189.945 22.3009 190.583 23.017 190.583 23.8923C190.663 24.688 189.945 25.4041 189.068 25.4041Z" fill="#001064"/>
<path d="M179.658 33.9247C179.658 35.1978 178.621 36.2322 177.345 36.2322C176.069 36.2322 175.032 35.1978 175.032 33.9247C175.032 32.6516 176.069 31.6172 177.345 31.6172C178.621 31.6172 179.658 32.6516 179.658 33.9247Z" fill="#001064"/>
<path d="M154.616 33.9247C154.616 35.1978 153.579 36.2322 152.303 36.2322C151.027 36.2322 149.99 35.1978 149.99 33.9247C149.99 32.6516 151.027 31.6172 152.303 31.6172C153.579 31.6172 154.616 32.6516 154.616 33.9247Z" fill="#001064"/>
<path d="M165.621 90.5753C162.431 90.5753 159.321 89.7001 156.689 88.0291C151.027 84.5281 147.597 77.3669 148.156 70.2057C148.235 69.41 148.873 68.7734 149.671 68.7734H181.73C182.209 68.7734 182.607 69.0121 182.926 69.3304C183.245 69.7283 183.325 70.1261 183.245 70.6035C182.288 75.5368 180.933 82.2206 176.387 86.5173C173.596 89.1431 169.768 90.5753 165.621 90.5753ZM151.186 71.8766C151.266 77.3669 154.057 82.698 158.364 85.4033C160.437 86.756 163.069 87.4721 165.621 87.4721C168.97 87.4721 172.001 86.3582 174.234 84.2894C177.424 81.3453 178.779 76.969 179.816 71.8766H151.186Z" fill="#001064"/>
<ellipse rx="51.3257" ry="51.214" transform="matrix(0.989896 -0.141794 0.142458 0.989801 58.103 103.68)" fill="#FFE9BE"/>
<path d="M69.8894 116.227C72.1966 115.821 74.8136 115.446 77.0453 113.984C79.2129 112.607 81.2298 109.654 80.4798 106.563C79.762 103.697 77.1864 102.238 74.9422 100.961C74.5253 100.716 74.1085 100.471 73.7773 100.29C69.0854 97.3836 65.8661 91.982 65.6805 86.4504C65.4628 80.6949 68.6316 75.1396 73.3411 72.8659C78.2641 70.4856 84.8567 72.2822 87.4664 76.629C87.8728 77.3322 88.749 77.5874 89.4538 77.1819C90.1585 76.7763 90.4143 75.9022 90.0079 75.199C86.66 69.4351 78.4006 67.192 72.0573 70.3088C66.2799 73.1161 62.4922 79.6738 62.7322 86.6443C62.9933 93.2311 66.5658 99.4958 72.1767 102.956C72.5935 103.201 73.0103 103.446 73.4271 103.69C75.3401 104.787 77.1676 105.819 77.5534 107.439C77.9391 109.059 76.7439 110.829 75.3451 111.715C73.5939 112.803 71.4362 113.189 69.3426 113.488C68.5201 113.606 68.0186 114.363 68.1367 115.184C68.3829 115.834 69.0669 116.345 69.8894 116.227Z" fill="#001064"/>
<path d="M29.5525 88.3505C30.1506 88.2648 30.6204 87.8168 30.7695 87.2625C31.9306 82.6039 36.0408 78.8172 40.7299 77.9931C45.4939 77.1584 50.6125 79.3184 53.318 83.2708C53.7992 83.9633 54.6647 84.1439 55.3587 83.6637C56.0527 83.1836 56.2337 82.3201 55.7525 81.6277C52.384 76.7804 46.0472 74.1096 40.2472 75.169C34.4472 76.2283 29.3976 80.911 27.9382 86.6783C27.7464 87.4671 28.2384 88.2342 29.0291 88.4255C29.1679 88.3295 29.3281 88.3826 29.5525 88.3505Z" fill="#001064"/>
<path d="M44.7328 88.9135C44.969 90.5548 46.5188 91.7794 48.2384 91.5331C49.8832 91.2974 51.1104 89.7511 50.8635 88.0352C50.6166 86.3194 49.0776 85.1694 47.358 85.4157C45.6384 85.662 44.4859 87.1977 44.7328 88.9135Z" fill="#001064"/>
<path d="M79.5685 87.0448C77.8756 87.2873 76.3061 86.1145 76.063 84.4252C75.8199 82.736 76.9953 81.1699 78.6882 80.9274C80.3811 80.6849 81.9506 81.8577 82.1937 83.547C82.4368 85.2362 81.2615 86.8023 79.5685 87.0448Z" fill="#001064"/>
<path d="M70.2908 139.166C79.8616 137.795 88.0071 130.232 90.169 120.862C90.3182 120.307 90.0935 119.807 89.73 119.402C89.3025 119.082 88.7469 118.933 88.2449 119.158C75.2473 123.761 61.1047 125.711 47.3873 124.782C46.8532 124.783 46.3513 125.007 46.0311 125.434C45.7109 125.86 45.722 126.468 45.9467 126.968C50.5142 135.375 60.6452 140.548 70.152 139.262L70.2908 139.166ZM86.4849 122.836C83.8191 129.766 77.1997 135.207 69.8721 136.256L69.7225 136.278C62.3094 137.264 54.4124 133.827 49.9641 127.84C56.3419 128.144 62.6979 127.767 69.0535 126.856C75.0459 126.074 80.803 124.716 86.4849 122.836Z" fill="#001064"/>
</svg>
