<svg width="225" height="121" viewBox="0 0 225 121" fill="none" xmlns="http://www.w3.org/2000/svg">
<path d="M70.7047 104.019C67.5939 105.583 30.1871 120.435 29.8442 119.497C28.0794 114.673 26.6531 109.568 24.2848 104.999C22.5007 101.557 21.8944 97.7661 20.573 94.1539C19.0387 89.9597 17.5043 85.7654 15.9699 81.5711C11.5156 69.3951 7.06135 57.2191 2.60706 45.0431C2.14068 43.7682 1.36229 42.3784 1.13764 41.0263C0.843623 39.2569 8.89155 36.8558 10.1773 36.3893C18.4786 33.3776 26.8474 30.7938 35.1469 27.7827C52.4273 21.5134 69.3697 14.4617 86.658 8.18938C88.1843 7.63565 99.5048 2.2691 100.247 3.41015C102.969 7.59566 103.754 12.9491 106.329 17.2411C107.729 19.5745 108.159 22.401 109.464 24.8013C110.858 27.3639 111.848 30.1026 113.229 32.686C116.45 38.7139 119.508 44.8685 122.734 50.9058C126.498 57.9487 131.537 64.8752 134.275 72.359" stroke="#001064" stroke-width="1.61675" stroke-linecap="round" stroke-linejoin="round" stroke-dasharray="5.39 5.39"/>
<rect width="169.747" height="53.672" rx="3.77241" transform="matrix(-0.992268 0.124116 0.125133 0.99214 191.178 25.6519)" fill="#001064"/>
<rect x="1.20437" y="0.935583" width="150.886" height="51.5163" rx="2.69458" transform="matrix(0.992268 -0.124116 0.125133 0.99214 29.3102 30.8969)" fill="#FFE9BE" stroke="#001064" stroke-width="2.15566"/>
<rect x="1.20437" y="0.935583" width="65.4355" height="51.5163" rx="2.69458" transform="matrix(0.992268 -0.124116 0.125133 0.99214 29.3102 30.8969)" fill="#FFD9D1" stroke="#001064" stroke-width="2.15566"/>
<rect x="1.20437" y="0.935583" width="29.736" height="51.5163" rx="2.69458" transform="matrix(0.992268 -0.124116 0.125133 0.99214 95.6129 22.6034)" fill="#BAF0DF" stroke="#001064" stroke-width="2.15566"/>
<path d="M153.125 48.9449C151.882 48.7266 150.472 48.5254 149.269 47.7409C148.101 47.0022 147.014 45.4169 147.418 43.7583C147.805 42.2198 149.193 41.4371 150.402 40.7515C150.627 40.6201 150.852 40.4887 151.03 40.3916C153.559 38.8317 155.294 35.9328 155.394 32.964C155.511 29.8752 153.803 26.8937 151.265 25.6735C148.612 24.396 145.059 25.3602 143.653 27.6931C143.434 28.0705 142.962 28.2074 142.582 27.9898C142.202 27.7721 142.064 27.303 142.283 26.9256C144.087 23.8322 148.539 22.6284 151.957 24.3011C155.071 25.8077 157.112 29.3272 156.983 33.0681C156.842 36.6032 154.917 39.9653 151.893 41.8223C151.668 41.9537 151.443 42.0851 151.219 42.2165C150.188 42.805 149.203 43.3591 148.995 44.2285C148.787 45.0978 149.431 46.0478 150.185 46.5231C151.129 47.1073 152.292 47.314 153.42 47.475C153.863 47.5382 154.134 47.9446 154.07 48.385C153.937 48.7338 153.569 49.0081 153.125 48.9449Z" fill="#001064"/>
<path d="M174.864 33.9858C174.542 33.9398 174.289 33.6994 174.208 33.4019C173.583 30.9017 171.368 28.8694 168.841 28.4272C166.273 27.9792 163.515 29.1384 162.057 31.2596C161.797 31.6313 161.331 31.7282 160.957 31.4705C160.583 31.2128 160.485 30.7494 160.745 30.3778C162.56 27.7763 165.975 26.343 169.101 26.9115C172.226 27.48 174.948 29.9931 175.734 33.0884C175.838 33.5117 175.573 33.9234 175.146 34.0261C175.072 33.9745 174.985 34.0031 174.864 33.9858Z" fill="#001064"/>
<path d="M166.682 34.2851C166.555 35.166 165.719 35.8232 164.793 35.691C163.906 35.5646 163.245 34.7347 163.378 33.8138C163.511 32.8929 164.34 32.2757 165.267 32.4079C166.194 32.5401 166.815 33.3643 166.682 34.2851Z" fill="#001064"/>
<path d="M147.908 33.2821C148.82 33.4122 149.666 32.7828 149.797 31.8762C149.928 30.9696 149.295 30.1291 148.382 29.999C147.47 29.8688 146.624 30.4983 146.493 31.4049C146.362 32.3115 146.996 33.1519 147.908 33.2821Z" fill="#001064"/>
<path d="M152.908 61.2538C147.75 60.518 143.361 56.4592 142.196 51.4303C142.115 51.1328 142.236 50.864 142.432 50.6468C142.663 50.4753 142.962 50.3954 143.233 50.5158C150.237 52.9861 157.859 54.0326 165.251 53.5345C165.539 53.5347 165.81 53.655 165.982 53.8839C166.155 54.1129 166.149 54.4389 166.028 54.7077C163.566 59.2192 158.106 61.9954 152.983 61.3054L152.908 61.2538ZM144.181 52.4899C145.618 56.2091 149.185 59.129 153.134 59.6924L153.215 59.7039C157.21 60.2329 161.465 58.3883 163.863 55.1752C160.426 55.3387 157 55.136 153.575 54.6474C150.346 54.2275 147.243 53.4989 144.181 52.4899Z" fill="#001064"/>
<path d="M69.9343 61.1429C70.1899 61.1158 70.4451 61.0654 70.7003 61.0149C72.5311 60.5447 74.2456 58.7712 73.8363 56.7031C73.631 55.6341 72.8459 54.6904 71.6692 53.9855C71.175 53.69 70.6592 53.4879 70.1663 53.2622C69.7677 53.1051 69.4157 52.9472 69.0628 52.7427C65.8662 51.0427 64.4835 46.6121 66.1494 43.4176C67.8153 40.2231 72.2372 38.8286 75.4562 40.4817C75.8794 40.7084 76.3885 40.5376 76.5905 40.1151C76.8158 39.6922 76.6437 39.1821 76.221 38.9787C72.2264 36.9177 66.7164 38.6548 64.6452 42.6244C62.5741 46.594 64.3026 52.1381 68.2747 54.2461C68.6978 54.4728 69.0969 54.6533 69.5187 54.8101C69.988 55.0128 70.4335 55.1926 70.8338 55.443C71.2806 55.6926 72.0354 56.2407 72.1887 57.0074C72.3936 58.0531 71.3641 59.0707 70.298 59.343C68.9999 59.6654 67.5032 59.2916 66.1932 58.9383C65.7489 58.8284 65.2647 59.092 65.1562 59.5364C65.0477 59.9809 65.3124 60.4663 65.7567 60.5762C66.9737 60.9309 68.4471 61.305 69.9343 61.1429Z" fill="#001064"/>
<path d="M57.5696 44.8411C57.7325 44.8152 57.8949 44.766 58.0095 44.6474C58.3773 44.3379 58.4144 43.7996 58.1049 43.4535C56.5077 41.56 53.9925 40.522 51.5235 40.7695C49.0545 41.0169 46.7946 42.5239 45.5965 44.693C45.3707 45.1173 45.5199 45.6295 45.9439 45.857C46.3447 46.0848 46.8787 45.9365 47.1045 45.5122C48.0085 43.8619 49.8076 42.6892 51.6939 42.4739C53.5805 42.2819 55.5784 43.0938 56.8177 44.5483C57.0084 44.7793 57.2901 44.8686 57.5696 44.8411Z" fill="#001064"/>
<path d="M68.6743 67.6457C68.6977 67.6453 68.721 67.6449 68.721 67.6449C71.1915 67.3486 73.4822 66.054 75.0143 64.0731C75.3117 63.6957 75.2329 63.1615 74.8547 62.8882C74.4762 62.5917 73.9404 62.6703 73.6664 63.0473C72.4313 64.6274 70.5111 65.7297 68.5068 65.9719C68.4834 65.9723 68.4834 65.9723 68.4601 65.9727C66.4787 66.1912 64.3673 65.5968 62.8058 64.3649C62.4273 64.0683 61.8911 64.1236 61.6171 64.5006C61.3197 64.878 61.3751 65.4127 61.7533 65.6859C63.7166 67.214 66.2272 67.9416 68.6743 67.6457Z" fill="#001064"/>
<path fill-rule="evenodd" clip-rule="evenodd" d="M55.6009 51.9937C55.6009 51.9936 55.6009 51.9935 56.3562 51.9656C57.1116 51.9378 57.1116 51.9376 57.1116 51.9375L57.1115 51.9358L57.1114 51.9321L57.1108 51.9198C57.1104 51.9095 57.1097 51.895 57.1088 51.8767C57.1069 51.8399 57.1039 51.7874 57.0995 51.7215C57.0907 51.5897 57.076 51.4035 57.0521 51.1808C57.0048 50.7383 56.9201 50.1386 56.77 49.5318C56.6227 48.9366 56.3988 48.2761 56.045 47.7499C55.6867 47.217 55.1141 46.7149 54.2854 46.7284C52.8684 46.7515 51.9871 47.9423 51.5444 48.9817C51.309 49.5344 51.1561 50.1288 51.0891 50.6832C51.0236 51.2262 51.0335 51.7879 51.1729 52.2537L52.6215 51.8227C52.5632 51.6281 52.538 51.2939 52.59 50.8636C52.6406 50.4447 52.758 49.9884 52.9358 49.5709C53.3195 48.6701 53.8361 48.2432 54.3101 48.2355C54.4269 48.2336 54.5844 48.2843 54.7893 48.5892C54.9988 48.9008 55.1713 49.3632 55.3023 49.8927C55.4304 50.4107 55.5058 50.9377 55.549 51.3407C55.5704 51.5407 55.5835 51.7069 55.5912 51.822C55.595 51.8794 55.5975 51.9239 55.599 51.9532L55.6006 51.9856L55.6009 51.9927L55.6009 51.9937Z" fill="#001064"/>
<path fill-rule="evenodd" clip-rule="evenodd" d="M74.6024 49.9192C74.6024 49.919 74.6023 49.9189 75.3545 49.8444C76.1066 49.7699 76.1066 49.7697 76.1066 49.7695L76.1064 49.7678L76.106 49.7641L76.1048 49.7519C76.1037 49.7417 76.1021 49.7273 76.1 49.7091C76.0959 49.6725 76.0897 49.6204 76.0812 49.555C76.0641 49.4243 76.0379 49.2396 76.0002 49.0192C75.9254 48.5812 75.8036 47.9889 75.6158 47.3934C75.4316 46.8093 75.1665 46.1649 74.7799 45.6623C74.3881 45.1529 73.785 44.6892 72.9592 44.7536C71.5422 44.8639 70.739 46.1141 70.3657 47.1798C70.1671 47.7469 70.0539 48.3501 70.0243 48.9068C69.9954 49.4511 70.0433 50.0111 70.2173 50.465L71.6293 49.9268C71.5594 49.7444 71.511 49.4182 71.5339 48.9866C71.5562 48.5674 71.643 48.105 71.7929 47.6768C72.1168 46.752 72.6049 46.2931 73.077 46.2563C73.1958 46.247 73.357 46.289 73.5804 46.5795C73.809 46.8767 74.01 47.3264 74.1737 47.8455C74.3338 48.3533 74.4419 48.8735 74.51 49.2721C74.5438 49.47 74.5672 49.6347 74.582 49.7488C74.5894 49.8057 74.5947 49.8499 74.598 49.879L74.6015 49.9111L74.6023 49.9181L74.6024 49.9192Z" fill="#001064"/>
<path d="M199.403 20.4222L201.112 16.4458L203.581 20.4222L206.809 23.4518L202.441 25.724L200.542 29.511L199.403 25.724L196.744 22.505L199.403 20.4222Z" fill="white"/>
<path d="M208.238 22.7867C207.261 22.3958 206.335 22.0629 205.466 21.4403C204.618 20.8395 203.885 20.0722 203.304 19.2036C202.664 18.2481 202.219 17.1695 201.982 16.0403C201.91 15.6928 201.853 15.3309 201.824 14.9762C201.831 14.94 201.838 14.911 201.838 14.8676C201.838 14.7445 201.838 14.6142 201.831 14.4839C201.86 13.9772 201.86 13.4705 201.831 12.971C201.781 12.1169 200.452 12.0155 200.488 12.8987C200.61 16.1344 199.633 21.7226 195.69 22.1208C195.532 22.1135 195.374 22.1208 195.209 22.1425C195.13 22.1425 195.051 22.1425 194.972 22.1352C194.627 22.1135 194.527 22.6275 194.864 22.7361C195.058 22.8012 195.245 22.8446 195.439 22.8736C196.056 23.0763 196.645 23.2717 197.177 23.6988C197.802 24.191 198.312 24.8642 198.678 25.5664C199.547 27.2313 199.648 29.193 199.748 31.0389C199.77 31.4587 200.179 31.6397 200.481 31.5528C200.51 31.5673 200.546 31.5818 200.581 31.589C200.783 31.6252 201.02 31.5094 201.077 31.2994C201.156 31.0099 201.178 30.6914 201.192 30.3801C201.228 30.3077 201.257 30.2281 201.264 30.1413C201.494 28.4546 202.19 26.9056 203.462 25.7401C204.072 25.1827 204.79 24.7412 205.559 24.4372C206.062 24.2417 206.579 24.1259 207.096 24.0173C207.383 24.1114 207.671 24.1838 207.965 24.2345C208.834 24.3865 208.964 23.0835 208.238 22.7867ZM202.593 24.7774C201.666 25.5953 200.933 26.645 200.467 27.7959C200.273 26.7173 199.957 25.675 199.382 24.7339C198.915 23.9739 198.19 23.1704 197.342 22.6564C198.506 22.2149 199.504 21.2594 200.165 20.1663C200.567 19.5004 200.898 18.7765 201.156 18.0237C201.422 18.7692 201.767 19.4786 202.205 20.1301C202.98 21.2956 204.079 22.3814 205.329 23.1559C204.295 23.5251 203.332 24.1259 202.593 24.7774Z" fill="#001064"/>
<path d="M213.416 50.4159L210.947 47.197L214.176 44.546L215.695 40.9484L218.164 46.2502L223.101 49.0905L217.594 50.7946L214.745 54.771L213.416 50.4159Z" fill="white"/>
<path d="M224.349 48.6544C219.708 47.9181 216.479 43.7506 216.878 39.3687C217.003 38.7754 217.114 38.1821 217.225 37.596C217.343 36.9669 216.279 36.7024 216.087 37.3243C215.858 38.0606 215.717 38.8112 215.651 39.5617C215.326 41.0986 214.86 42.6212 213.966 43.9293C213.427 44.7228 212.732 45.4305 211.904 45.9452C211.587 46.1382 211.269 46.2954 210.936 46.4169C210.914 46.3955 210.885 46.3812 210.862 46.3598C210.345 45.9809 209.776 46.3169 209.613 46.7744C209.392 46.8173 209.17 46.8601 208.941 46.8959C208.645 46.9459 208.542 47.4177 208.875 47.5106C209.2 47.5964 209.532 47.6322 209.857 47.625C209.865 47.6322 209.88 47.6393 209.887 47.6536C212.488 49.5408 213.981 52.686 213.722 55.8241C213.641 56.832 215.141 56.9821 215.318 55.9957C216.05 51.9712 220.063 49.4192 224.171 50.1341C225.162 50.3056 225.317 48.8331 224.349 48.6544ZM215.045 52.5573C214.535 50.5058 213.419 48.6115 211.816 47.1389C212.924 46.6171 213.914 45.745 214.602 44.8658C215.141 44.1795 215.555 43.4361 215.887 42.6498C216.146 43.7292 216.589 44.7728 217.225 45.7307C218.045 46.9745 219.161 47.9967 220.44 48.7544C218.223 49.3192 216.286 50.6845 215.045 52.5573Z" fill="#001064"/>
<path d="M18.1582 32.1671L20.627 28.9482L17.3986 26.2973L15.8794 22.6996L13.4106 28.0014L8.47314 30.8417L13.9803 32.5458L16.8289 36.5222L18.1582 32.1671Z" fill="white"/>
<path d="M7.22552 30.406C11.8663 29.6697 15.0956 25.5022 14.6966 21.1203C14.571 20.527 14.4601 19.9337 14.3493 19.3475C14.231 18.7185 15.2952 18.454 15.4873 19.0759C15.7164 19.8122 15.8568 20.5628 15.9233 21.3133C16.2484 22.8502 16.714 24.3728 17.6082 25.6809C18.1476 26.4744 18.8423 27.1821 19.6699 27.6967C19.9877 27.8898 20.3054 28.047 20.638 28.1685C20.6601 28.1471 20.6897 28.1328 20.7119 28.1113C21.2291 27.7325 21.7982 28.0685 21.9607 28.526C22.1824 28.5688 22.4041 28.6117 22.6332 28.6475C22.9288 28.6975 23.0323 29.1693 22.6997 29.2622C22.3746 29.348 22.042 29.3837 21.7169 29.3766C21.7095 29.3837 21.6947 29.3909 21.6873 29.4052C19.0861 31.2923 17.5934 34.4376 17.852 37.5757C17.9333 38.5836 16.4332 38.7337 16.2558 37.7472C15.5242 33.7228 11.5116 31.1708 7.40287 31.8856C6.41264 32.0572 6.25745 30.5847 7.22552 30.406ZM16.5292 34.3089C17.0391 32.2574 18.155 30.3631 19.7586 28.8905C18.6501 28.3687 17.6599 27.4966 16.9726 26.6174C16.4332 25.9311 16.0194 25.1877 15.6868 24.4014C15.4282 25.4808 14.9848 26.5244 14.3493 27.4823C13.529 28.7261 12.4131 29.7483 11.1347 30.506C13.3516 31.0707 15.2878 32.4361 16.5292 34.3089Z" fill="#001064"/>
<rect width="7.95909" height="49.2345" transform="matrix(0.991127 -0.132921 0.134009 0.99098 124.061 21.1083)" fill="#BAF0DF"/>
<path d="M131.588 17.8462C131.98 20.469 131.965 23.1267 132.424 25.7473" stroke="#001064" stroke-width="1.72734" stroke-linecap="round" stroke-linejoin="round"/>
<path d="M133.668 32.8521C134.001 34.7541 134.33 36.6344 134.662 38.5374" stroke="#001064" stroke-width="1.72734" stroke-linecap="round" stroke-linejoin="round"/>
<path d="M135.657 44.2246C136.238 47.5496 136.291 50.9751 136.865 54.2577" stroke="#001064" stroke-width="1.72734" stroke-linecap="round" stroke-linejoin="round"/>
<path d="M137.736 59.2325C138.063 61.1021 138.401 63.0345 138.731 64.9179" stroke="#001064" stroke-width="1.72734" stroke-linecap="round" stroke-linejoin="round"/>
</svg>