<svg width="130" height="121" viewBox="0 0 130 121" fill="none" xmlns="http://www.w3.org/2000/svg">
<rect width="54.4869" height="53.8735" rx="26.9367" transform="matrix(0.402913 -0.915243 0.915257 0.40286 30.2935 50.3257)" fill="white"/>
<rect width="119.007" height="34.0283" rx="5.11771" transform="matrix(-1.00092 -0.011944 -0.0430861 0.99826 122.429 82.6265)" fill="#001064"/>
<rect width="24.9808" height="31.408" transform="matrix(0.999008 0.0442041 -0.0607064 0.998134 103.941 75.1079)" fill="#FFE2DC"/>
<g clip-path="url(#clip0)">
<path d="M69.7767 23.3705C69.627 23.4068 69.4307 23.4144 69.2907 23.3282C65.3039 21.4522 60.2734 21.9514 56.7894 24.5582C56.4522 24.8001 55.9944 24.711 55.7241 24.4162C55.4819 24.0745 55.5672 23.6133 55.8577 23.3427C59.8193 20.4199 65.4669 19.851 69.9111 21.9765C70.2752 22.1685 70.461 22.6039 70.2731 22.9698C70.2072 23.186 70.0012 23.3161 69.7767 23.3705Z" fill="#001064"/>
<path d="M73.7837 48.8007C72.5548 48.8916 71.3568 48.3561 70.7388 47.3096C70.518 46.9358 70.64 46.4977 71.0097 46.2753C71.3793 46.0529 71.8133 46.1768 72.034 46.5506C72.4342 47.2621 73.5324 47.493 74.3898 47.0785C75.2088 46.6668 75.8368 45.7621 76.0963 44.5726C76.3586 43.4219 76.2667 42.1804 76.1776 40.9776L75.4165 30.6963C75.2729 28.7564 75.0976 26.3897 76.0235 24.2927C76.8486 22.3982 78.5558 20.9455 80.5624 20.407C82.5689 19.8684 84.7596 20.2525 86.4346 21.4939C86.762 21.7428 86.8348 22.2055 86.589 22.5358C86.3432 22.8661 85.8852 22.939 85.5579 22.6901C84.2515 21.7335 82.4918 21.4346 80.9787 21.8586C79.4272 22.2854 78.0839 23.4381 77.4606 24.9276C76.7008 26.6612 76.8559 28.7563 76.9938 30.6186L77.755 40.9C77.8469 42.1415 77.9532 43.577 77.6284 44.9274C77.2469 46.555 76.3375 47.8316 75.1076 48.4297C74.6612 48.6578 74.2061 48.7695 73.7837 48.8007Z" fill="#001064"/>
<path d="M65.6826 35.8644C64.7994 35.9298 63.9133 35.9563 63.104 35.9772L62.6019 35.9753C62.3331 35.9952 62.0642 36.0151 61.7542 35.999C60.2181 36.1127 58.3335 36.2131 57.1509 35.3643C55.7649 34.3745 55.7009 32.4676 55.6646 31.4559C55.6312 30.4831 55.573 28.6538 56.8069 27.5872C57.5318 26.9484 58.4506 26.8414 59.065 26.796C59.3338 26.7761 59.6026 26.7562 59.8743 26.7751C60.4916 26.7684 61.1473 26.7589 61.8001 26.7107C63.1087 26.6529 64.4585 26.631 65.7756 26.6896C66.0857 26.7057 66.4313 26.6801 66.8537 26.6489C68.0471 26.5996 69.5447 26.4888 70.4998 27.3935C71.2485 28.1183 71.4086 29.2378 71.5015 29.9722C71.5102 30.0886 71.5217 30.2438 71.5715 30.3962C71.7288 31.4769 71.956 32.9815 71.254 33.9308C71.0437 34.2194 70.7538 34.4749 70.3457 34.7002C69.1983 35.3703 67.7179 35.7139 65.6826 35.8644ZM59.2154 28.3063C58.5626 28.3546 58.1104 28.5051 57.8204 28.7606C57.2049 29.3133 57.1702 30.4083 57.2064 31.4199C57.2513 32.5479 57.373 33.6703 58.0248 34.1292C58.7975 34.6573 60.4517 34.5739 61.6805 34.483C62.0262 34.4574 62.3334 34.4347 62.605 34.4536L63.1071 34.4555C63.9165 34.4346 64.7258 34.4137 65.609 34.3484C67.4139 34.2149 68.7052 33.9243 69.6691 33.3848C69.8909 33.2514 70.0004 33.1652 70.0715 33.082C70.3855 32.6296 70.2168 31.3937 70.1238 30.6593C70.1123 30.5041 70.0624 30.3518 70.0509 30.1966C69.9608 29.501 69.8764 28.883 69.5021 28.5206C69.0423 28.0475 67.8903 28.1327 66.9686 28.2009C66.5462 28.2321 66.1238 28.2634 65.734 28.2142C64.4553 28.1527 63.1439 28.1717 61.8738 28.2267C61.2181 28.2362 60.5652 28.2845 59.9095 28.294C59.6791 28.311 59.4458 28.2893 59.2154 28.3063Z" fill="#001064"/>
<path d="M76.2421 31.4163C76.1653 31.422 76.0501 31.4305 75.9705 31.3974C74.3145 30.9348 73.4812 31.1525 71.8145 31.5879L71.2855 31.744C70.8688 31.8529 70.4647 31.6097 70.3563 31.1886C70.2479 30.7675 70.4879 30.3596 70.9046 30.2507L71.4336 30.0946C73.1771 29.6535 74.3119 29.3354 76.4018 29.9221C76.7973 30.0488 77.0209 30.4614 76.9344 30.858C76.8038 31.1797 76.5494 31.3936 76.2421 31.4163Z" fill="#001064"/>
<path d="M79.6136 34.717C78.8456 34.7739 77.9566 34.7616 77.1541 34.3528C75.1037 33.2561 75.4606 29.2114 75.6548 28.1827C75.8277 27.3897 76.2052 26.2304 77.6386 25.7732C78.0169 25.6672 78.3981 25.6 78.8589 25.5659C79.1661 25.5432 79.5146 25.5564 79.7834 25.5365C80.8644 25.5346 82.0193 25.4881 83.4786 25.3802C84.1314 25.3319 84.7842 25.2836 85.4371 25.2353L85.5523 25.2268C87.5876 25.0762 89.0544 25.5919 89.7578 26.7492C90.7233 28.3163 90.2601 30.9254 90.0871 31.7185C89.6278 33.8591 88.0178 34.0172 86.7534 34.1498L80.0744 34.6829C79.9208 34.6943 79.7672 34.7057 79.6136 34.717ZM79.0064 27.0375C78.6608 27.063 78.3949 27.1217 78.1673 27.1776C77.5644 27.3782 77.3186 27.7085 77.1811 28.4599C76.8679 29.9656 77.0575 32.5264 77.9012 32.9711C78.4647 33.2805 79.2299 33.1849 79.9595 33.1309L86.6683 32.4786C88.2015 32.3261 88.4972 32.1482 88.6616 31.2387C88.9181 30.0104 89.0577 28.2445 88.5308 27.3862C88.0068 26.5667 86.5744 26.5166 85.7296 26.5791L85.6144 26.5876C84.9616 26.6359 84.3087 26.6842 83.6559 26.7325C82.1582 26.8433 80.9649 26.8926 79.8455 26.8974C79.5469 27.0365 79.2752 27.0176 79.0064 27.0375Z" fill="#001064"/>
<path d="M48.9338 32.8514C48.8954 32.8543 48.857 32.8571 48.8186 32.86C47.655 32.79 46.6501 31.733 46.561 30.5302C46.4451 29.4854 46.982 28.3924 47.896 27.7005C48.6267 27.1393 49.6108 26.8715 50.6889 26.8307C53.353 26.8287 56.3201 28.8329 57.1923 31.2261C57.3362 31.6056 57.1374 32.0495 56.762 32.1943C56.3866 32.3391 55.9469 32.1375 55.803 31.7581C55.1659 29.9326 52.7709 28.3542 50.727 28.3884C50.1865 28.3894 49.4598 28.4821 48.8385 28.9572C48.3268 29.3462 48.0598 29.9121 48.0971 30.4165C48.1345 30.9209 48.5529 31.3581 48.9811 31.4045C49.4093 31.4508 49.7039 31.7801 49.6971 32.2098C49.6049 32.5287 49.3178 32.823 48.9338 32.8514Z" fill="#001064"/>
<path d="M72.7054 57.1896C72.5518 57.2009 72.3597 57.2151 72.2061 57.2265C69.8906 57.2417 67.651 56.198 66.1278 54.3991C65.8715 54.067 65.9139 53.5957 66.2038 53.3402C66.5322 53.0818 66.9988 53.1253 67.2522 53.4187C68.4395 54.8523 70.2806 55.7304 72.1709 55.7076C74.0228 55.6876 75.8499 54.8112 77.0166 53.3595C77.2625 53.0292 77.7617 52.9922 78.089 53.2411C78.4163 53.49 78.4537 53.9944 78.2078 54.3247C76.8635 55.9846 74.8175 57.0333 72.7054 57.1896Z" fill="#001064"/>
<path d="M79.6873 30.972C80.1319 29.9417 80.8512 28.4486 82.0202 28.9055C82.1901 28.9719 82.3514 29.0532 82.5244 29.1098C82.6394 29.1474 82.7504 29.2055 82.8439 29.2984C83.0224 29.4755 83.2465 29.6296 83.3987 29.8402C83.5443 30.0417 83.6953 30.372 83.7155 30.6446" stroke="#001064" stroke-width="2.33013" stroke-linecap="round" stroke-linejoin="round"/>
<path d="M62.2219 32.2645C62.6666 31.2342 63.3859 29.7411 64.5548 30.1979C64.7247 30.2643 64.8861 30.3457 65.0591 30.4023C65.1741 30.4399 65.285 30.498 65.3786 30.5909C65.5571 30.768 65.7811 30.9221 65.9333 31.1327C66.0789 31.3342 66.23 31.6645 66.2502 31.9371" stroke="#001064" stroke-width="2.33013" stroke-linecap="round" stroke-linejoin="round"/>
</g>
<ellipse rx="5.25683" ry="5.33766" transform="matrix(0.999894 0.0157494 -0.030604 0.999563 99.3312 20.4171)" fill="white"/>
<path d="M99.7701 14.1677C96.1899 14.1016 93.2081 16.9751 93.1144 20.5818C93.0207 24.1885 95.8504 27.1695 99.4306 27.2356C103.011 27.3018 105.993 24.4283 106.086 20.8216C106.18 17.2148 103.35 14.2339 99.7701 14.1677ZM97.7698 23.4723L95.5023 21.0835C95.256 20.824 95.2667 20.4124 95.5263 20.1622C95.7858 19.9121 96.1945 19.9197 96.4408 20.1792L98.2663 22.0956L102.845 17.6827C103.105 17.4325 103.514 17.4401 103.76 17.6996C104.006 17.9591 103.996 18.3707 103.736 18.6209L98.6844 23.4892C98.4313 23.7394 98.0162 23.7318 97.7698 23.4723Z" fill="#001064"/>
<path d="M17.5654 23.8567L15.8319 20.1431L15.3366 21.6285L13.1078 24.847L10.6313 25.8373L13.1078 29.0558L14.5937 33.7598L15.8319 32.2743L18.3084 29.0558L21.7754 27.8179L17.5654 23.8567Z" fill="white"/>
<path d="M23.7092 27.525C19.326 26.8103 16.276 22.7646 16.6528 18.5107C16.7715 17.9347 16.8762 17.3587 16.9809 16.7897C17.0926 16.179 16.0875 15.9223 15.906 16.526C15.6897 17.2408 15.5571 17.9694 15.4942 18.6981C15.1871 20.19 14.7474 21.6681 13.9029 22.9381C13.3934 23.7083 12.7373 24.3953 11.9556 24.895C11.6555 25.0823 11.3554 25.235 11.0413 25.353C11.0204 25.3322 10.9924 25.3183 10.9715 25.2975C10.4829 24.9297 9.9455 25.2558 9.79195 25.6999C9.58256 25.7416 9.37318 25.7832 9.15681 25.8179C8.87763 25.8665 8.77991 26.3245 9.09399 26.4147C9.40109 26.498 9.71517 26.5327 10.0223 26.5257C10.0293 26.5327 10.0432 26.5396 10.0502 26.5535C12.507 28.3855 13.9169 31.4389 13.6726 34.4853C13.5958 35.4637 15.0127 35.6095 15.1802 34.6518C15.8711 30.7449 19.661 28.2675 23.5417 28.9615C24.4769 29.128 24.6235 27.6985 23.7092 27.525ZM14.9219 31.314C14.4403 29.3223 13.3864 27.4834 11.8719 26.0539C12.9188 25.5473 13.854 24.7007 14.5031 23.8471C15.0127 23.1809 15.4035 22.4592 15.7176 21.6959C15.9619 22.7437 16.3806 23.7569 16.9809 24.6868C17.7556 25.8943 18.8095 26.8866 20.017 27.6222C17.9231 28.1704 16.0945 29.4958 14.9219 31.314Z" fill="#001064"/>
<path d="M24.9963 38.7112L23.7581 34.9976L21.2816 39.2064L18.8052 41.187L21.5293 43.6627L23.0152 48.1191L24.9963 43.6627L28.711 41.4345L24.9963 38.7112Z" fill="white"/>
<path d="M30.507 41.2372C29.5578 40.8625 28.6574 40.5432 27.8129 39.9465C26.9893 39.3705 26.2774 38.6349 25.7121 37.8022C25.0909 36.8862 24.6582 35.8522 24.4278 34.7696C24.358 34.4365 24.3022 34.0896 24.2743 33.7495C24.2813 33.7148 24.2882 33.6871 24.2882 33.6454C24.2882 33.5275 24.2882 33.4026 24.2813 33.2777C24.3092 32.7919 24.3092 32.3061 24.2813 31.8273C24.2324 31.0085 22.9412 30.9113 22.9761 31.7579C23.0947 34.8598 22.1455 40.2171 18.3137 40.5988C18.1602 40.5918 18.0066 40.5988 17.8461 40.6196C17.7693 40.6196 17.6926 40.6196 17.6158 40.6126C17.2808 40.5918 17.1831 41.0845 17.5111 41.1886C17.6995 41.2511 17.881 41.2927 18.0695 41.3205C18.6697 41.5148 19.242 41.7021 19.7585 42.1116C20.3657 42.5834 20.8613 43.2288 21.2172 43.9019C22.0618 45.498 22.1595 47.3786 22.2572 49.1482C22.2781 49.5506 22.676 49.7241 22.9691 49.6409C22.997 49.6547 23.0319 49.6686 23.0668 49.6756C23.2622 49.7102 23.4926 49.5992 23.5484 49.398C23.6252 49.1204 23.6461 48.8151 23.6601 48.5167C23.695 48.4473 23.7229 48.3709 23.7299 48.2877C23.9532 46.6708 24.6302 45.1857 25.8656 44.0685C26.4589 43.5341 27.1568 43.1108 27.9036 42.8194C28.3922 42.632 28.8947 42.521 29.3973 42.4169C29.6765 42.5071 29.9556 42.5765 30.2418 42.6251C31.0863 42.7708 31.212 41.5217 30.507 41.2372ZM25.0211 43.1455C24.1207 43.9297 23.4088 44.9359 22.9551 46.0393C22.7667 45.0053 22.4596 44.006 21.9012 43.1039C21.4476 42.3753 20.7426 41.605 19.919 41.1123C21.0497 40.689 22.0199 39.773 22.662 38.7251C23.0529 38.0867 23.3739 37.3927 23.6252 36.671C23.8834 37.3858 24.2184 38.0659 24.6442 38.6904C25.398 39.8077 26.4659 40.8486 27.6803 41.5911C26.6752 41.945 25.74 42.521 25.0211 43.1455Z" fill="#001064"/>
<path d="M103.456 106.401L104.919 74.144L12.755 69.3296H10.3168L9.34151 70.2925L7.63477 99.4198L8.36623 101.105L103.456 106.401Z" fill="#FEF6E7"/>
<path d="M105.423 75.108C105.426 76.9592 105.048 78.8036 105.113 80.6583" stroke="#001064" stroke-width="3.5" stroke-linecap="round" stroke-linejoin="round"/>
<path d="M104.646 85.2178C104.577 86.563 104.508 87.8928 104.438 89.2387" stroke="#001064" stroke-width="3.5" stroke-linecap="round" stroke-linejoin="round"/>
<path d="M103.978 93.8841C103.715 95.81 103.715 98.6988 103.539 100.934" stroke="#001064" stroke-width="3.5" stroke-linecap="round" stroke-linejoin="round"/>
<path d="M103.202 104.957C103.134 106.279 103.063 107.645 102.993 108.977" stroke="#001064" stroke-width="3.5" stroke-linecap="round" stroke-linejoin="round"/>
<path d="M126.685 106.508C126.942 100.346 127.097 94.1843 127.148 88.0224C127.148 84.9414 127.2 81.8605 127.148 78.7795L127.148 78.2147C127.148 78.1633 127.148 78.112 127.148 78.112L127.148 78.0606C127.148 78.0093 127.148 77.9579 127.097 77.9579C127.045 77.8039 126.942 77.6498 126.788 77.5985C126.736 77.5471 126.634 77.5471 126.582 77.4958C126.531 77.4958 126.531 77.4958 126.479 77.4958L126.273 77.4958L125.089 77.4958L120.456 77.4444C117.368 77.3931 114.279 77.3931 111.19 77.2904L106.557 77.1877L101.924 77.0336C95.7472 76.7769 89.5699 76.4175 83.3927 75.9553C71.0381 75.031 58.7351 73.7473 46.3805 72.9771C40.2033 72.6176 34.026 72.2582 27.8487 72.0528L23.2158 71.8987L18.5828 71.7447L13.9499 71.642L12.7659 71.5906C12.3026 71.5906 12.2511 71.5906 12.0967 71.642C11.9423 71.6933 11.8393 71.796 11.7878 71.9501C11.7364 72.0014 11.7364 72.1041 11.7364 72.1555L11.7364 72.6176C11.5305 78.7795 11.4275 84.9414 11.1701 91.1033C11.0672 94.1843 10.9127 97.2652 10.8098 100.346L10.8098 100.654L10.8098 100.808C10.8098 100.86 10.8098 100.911 10.8098 100.911L10.8098 100.86C10.8098 100.808 10.8098 100.808 10.7583 100.757C10.7583 100.757 10.7068 100.757 10.7068 100.706C10.7068 100.706 10.7583 100.706 10.8098 100.706L10.9642 100.706L12.1482 100.757L16.7811 100.911C29.1357 101.373 41.4902 101.835 53.8447 102.503L63.1106 103.068C66.1993 103.222 69.2879 103.427 72.3765 103.633L77.0095 103.941L81.6424 104.3C84.7311 104.557 87.8197 104.865 90.9083 105.122C96.9826 105.635 103.108 106.303 109.286 106.816C112.374 107.124 115.463 107.278 118.552 107.535C120.096 107.638 121.64 107.74 123.185 107.843L124.317 107.895C124.677 107.895 125.089 107.946 125.398 107.895C126.119 107.792 126.634 107.176 126.685 106.508ZM127.097 106.508C127.097 107.381 126.376 108.203 125.501 108.305C125.038 108.357 124.677 108.305 124.317 108.305L123.133 108.254C121.589 108.203 120.044 108.151 118.5 108.1C115.411 108.049 112.323 107.895 109.234 107.895C103.057 107.792 96.8282 107.792 90.6509 107.792C87.5623 107.74 84.4737 107.74 81.385 107.689L76.7521 107.638L72.1191 107.484C69.0305 107.432 65.9419 107.278 62.8532 107.176L53.5873 106.816C41.2328 106.251 28.8783 105.532 16.5237 104.711L11.8908 104.403L10.7583 104.351L10.398 104.351C10.192 104.351 9.98614 104.3 9.78023 104.249C9.36841 104.146 9.00807 103.992 8.69921 103.735C8.03001 103.273 7.51524 102.606 7.30933 101.835C7.20637 101.476 7.15489 101.065 7.15489 100.654C7.15489 100.552 7.15489 100.5 7.15489 100.449L7.15489 100.295L7.15489 99.9867C7.41228 96.9058 7.61819 93.8248 7.87557 90.7439C8.33887 84.582 8.9566 78.4714 9.47137 72.3095C9.47137 72.1041 9.47136 72.0014 9.52285 71.642C9.57432 71.3339 9.67728 71.0258 9.83171 70.769C10.1406 70.2042 10.6553 69.7934 11.2216 69.5367C11.5305 69.434 11.8393 69.3313 12.1482 69.3313C12.5085 69.3313 12.6115 69.3313 12.8174 69.3826L13.9499 69.4853L18.5828 69.8448L23.2158 70.2042L27.8487 70.5123C34.026 70.9231 40.2033 71.2312 46.3805 71.4879C58.7351 72.0014 71.1411 72.0014 83.4956 72.3609C89.6729 72.5663 95.8501 72.823 102.027 73.2338L106.66 73.5419L111.293 73.9013C114.382 74.1067 117.471 74.4148 120.559 74.7229L125.192 75.1851L126.325 75.2878L126.479 75.2878L126.685 75.3391C126.839 75.3905 126.994 75.3905 127.148 75.4418C127.457 75.5445 127.715 75.6986 127.972 75.8526C128.435 76.2121 128.796 76.7769 128.95 77.3417C128.95 77.4958 129.001 77.6498 129.001 77.8039C129.001 77.8552 129.001 77.9579 129.001 78.0093C129.001 78.112 129.001 78.1633 129.001 78.2147L128.95 78.7795C128.693 81.8605 128.435 84.9414 128.178 88.0224C127.715 94.1843 127.354 100.346 127.097 106.508Z" fill="#001064"/>
<path d="M119.147 61.1316L117.166 58.1606L116.671 59.151L114.194 62.617L111.223 63.8549L114.937 66.3307L116.671 69.5492L118.404 66.3307L122.367 63.8549L122.119 63.1122L119.147 61.1316Z" fill="white"/>
<path d="M125.358 63.6494C124.922 63.3212 124.203 63.3343 123.666 63.1833C123.075 63.0126 122.505 62.796 121.968 62.5203C120.866 61.9557 119.9 61.1876 119.161 60.2619C118.402 59.31 117.885 58.1743 117.65 57.0189C117.644 56.973 117.63 56.9204 117.623 56.8745C117.838 55.7191 117.885 54.544 117.711 53.4476C117.61 52.7911 116.455 52.7977 116.401 53.4739C116.388 53.6183 116.381 53.7627 116.388 53.9072C116.388 53.9597 116.395 54.0056 116.408 54.0516C116.422 54.9707 116.428 55.8766 116.274 56.8023C116.086 57.9314 115.737 59.0475 115.24 60.0978C114.81 61.0103 114.226 61.89 113.373 62.5334C112.433 63.2424 111.319 63.4853 110.117 63.4984C109.734 63.505 109.573 63.9448 109.949 64.1024C110.285 64.2402 110.627 64.319 110.956 64.3453C111.124 64.4503 111.285 64.5488 111.48 64.6341C111.849 64.7983 112.205 64.9689 112.541 65.1856C113.226 65.6123 113.83 66.1375 114.32 66.7415C115.374 68.0479 115.817 69.7219 115.636 71.3172C115.596 71.6782 115.858 71.9014 116.16 71.9605C116.489 72.4988 117.435 72.3085 117.382 71.606C117.234 69.6497 117.764 67.7327 119.376 66.3279C120.114 65.6845 120.981 65.225 121.941 64.9033C122.565 64.6867 123.216 64.6013 123.861 64.5028C124.344 64.6276 124.855 64.6998 125.264 64.5291C125.667 64.3584 125.681 63.8857 125.358 63.6494ZM121.598 63.7938C120.41 64.1221 119.289 64.7392 118.416 65.5335C117.644 66.236 117.012 67.1091 116.583 68.0544C116.321 67.3717 115.945 66.7152 115.455 66.1178C114.884 65.4154 114.152 64.7983 113.34 64.3256C113.158 64.2206 112.97 64.1221 112.776 64.0236C114.166 63.4525 115.354 62.2051 116.012 61.1022C116.408 60.4392 116.751 59.7105 117.033 58.9555C117.294 59.6055 117.637 60.2291 118.067 60.8134C118.859 61.89 119.953 62.8091 121.182 63.4656C121.363 63.5641 121.551 63.656 121.739 63.7413C121.699 63.7676 121.652 63.7807 121.598 63.7938Z" fill="#001064"/>
<path d="M32.2602 66.0552C29.5991 64.8706 27.6628 62.9735 26.2917 60.5094C25.8376 59.6775 25.6413 58.7766 25.7145 57.8267C25.7438 57.4094 26.0395 57.0783 26.4625 56.9673C27.1115 56.7791 27.7545 56.8612 28.3075 57.2089C28.707 57.4317 29.0892 57.718 29.3902 58.0512C31.2771 60.1905 32.286 62.7304 32.527 65.5806C32.5443 65.7041 32.3646 65.8614 32.2602 66.0552ZM53.6138 51.8712C53.767 52.183 53.9406 52.4831 54.1344 52.7715C54.227 52.9315 54.6354 52.9357 54.763 52.7819C54.8703 52.6398 54.9776 52.4977 55.053 52.3473C55.2185 51.9314 55.071 51.5361 54.9149 51.1726C53.9753 48.9396 53.0241 46.6867 52.0844 44.4537C52.0237 44.3019 51.9312 44.1419 51.8502 44.0019C51.6535 43.6618 51.2103 43.5976 50.9755 43.8935C50.7609 44.1777 50.5348 44.4419 50.3636 44.7543C49.3917 46.6774 48.4198 48.6005 47.4595 50.5436C47.3551 50.7374 47.3375 50.9878 47.3083 51.2182C47.3025 51.3016 47.4327 51.3865 47.4993 51.4548C47.5109 51.4748 47.6239 51.4362 47.6529 51.3927C47.8356 51.1003 48.0502 50.8161 48.201 50.5153C48.8335 49.2689 49.4225 47.9942 50.055 46.7478C50.1391 46.5657 50.2407 46.3201 50.539 46.4147C50.7763 46.7313 50.6601 47.0921 50.6048 47.4176C50.2639 49.9637 49.9432 52.498 49.5589 55.0157C49.3987 56.0959 49.1343 57.183 48.8698 58.2701C48.6054 59.3572 48.1903 60.3712 47.6913 61.3803C45.6081 65.7342 40.0934 68.7881 34.4811 67.0404C34.151 66.9376 33.8788 66.7479 33.7283 66.6748C33.587 65.8222 33.4862 65.133 33.3969 64.4639C33.0658 61.8792 32.1726 59.5394 30.5724 57.4747C30.0313 56.7731 29.3916 56.1819 28.5779 55.8514C27.2923 55.3132 25.9681 55.785 25.2604 56.9948C24.5439 58.2364 24.4908 59.5484 24.8779 60.8728C25.1638 61.882 25.7048 62.7705 26.3472 63.6004C27.5944 65.1484 29.0475 66.444 30.8456 67.3533C31.416 67.6375 31.9574 67.9652 32.5509 68.2895C32.5478 68.6116 32.5534 68.902 32.5155 69.1641C32.3495 70.3278 32.0444 71.4384 31.6554 72.5441C31.0312 74.3196 30.0943 75.9288 29.1256 77.5298C28.3018 78.9134 27.235 80.0639 25.8584 80.913C25.757 80.9716 25.6555 81.0302 25.5657 81.1088C25.3541 81.2578 25.2177 81.6303 25.3567 81.6834C25.4957 81.7365 25.7071 81.7745 25.8288 81.7041C26.1737 81.5048 26.5504 81.3138 26.8374 81.0144C27.423 80.4357 28.0085 79.857 28.4957 79.2018C30.6705 76.3165 32.3182 73.1753 33.1176 69.6436C33.1932 69.3063 33.3122 68.9973 33.4371 68.6048C34.0279 68.6904 34.5463 68.7911 35.0532 68.8719C37.5671 69.2873 39.9427 68.9019 42.2232 67.744C44.0459 66.8239 45.5358 65.5624 46.7768 63.9642C48.3774 61.8646 49.3786 59.5242 49.9194 56.9961C50.2683 55.3531 50.5216 53.6852 50.775 52.0172C50.9846 50.6949 51.1305 49.356 51.3198 48.0454C51.3431 47.8985 51.5054 47.8047 51.6619 47.6074C51.8123 47.8675 51.9165 48.0475 52.0119 48.2593C52.5266 49.43 53.0644 50.6406 53.6138 51.8712Z" fill="#001064"/>
<defs>
<clipPath id="clip0">
<rect width="43.782" height="50.8472" fill="white" transform="matrix(0.997275 -0.0737806 0.0738307 0.997271 45.7344 19.395)"/>
</clipPath>
</defs>
</svg>
