<svg width="113" height="120" viewBox="0 0 113 120" fill="none" xmlns="http://www.w3.org/2000/svg">
<mask id="path-1-outside-1" maskUnits="userSpaceOnUse" x="31.851" y="24.5289" width="82.3105" height="96.7593" fill="black">
<rect fill="white" x="31.851" y="24.5289" width="82.3105" height="96.7593"/>
<path d="M52.8348 29.2743C55.6391 29.6386 58.4406 29.9836 61.2493 30.3235C62.6512 30.4899 64.0531 30.6562 65.4622 30.8176L67.5691 31.0616L69.6772 31.2995L73.8895 31.762L78.105 32.2062L86.5312 33.0874L90.7446 33.5437L91.7962 33.6591L91.9255 33.6763C91.9683 33.684 92.0121 33.6857 92.061 33.6946C92.1598 33.7062 92.2586 33.7179 92.3563 33.7356C92.5518 33.7711 92.7461 33.8127 92.9382 33.8665C93.7199 34.0778 94.4494 34.4371 95.0862 34.9245C95.4082 35.1657 95.6991 35.4391 95.9662 35.7397L96.0655 35.8522L96.1538 35.9565L96.3254 36.1578L96.6685 36.5603L98.0253 38.1867L100.739 41.4395C102.539 43.6127 104.337 45.7981 106.122 47.9812L106.793 48.8024L106.957 49.0087L107.039 49.1119L107.131 49.2294C107.192 49.3098 107.253 49.3902 107.313 49.4767C107.367 49.5621 107.428 49.6425 107.482 49.7279C107.919 50.4122 108.214 51.1841 108.352 51.9843C108.425 52.3818 108.451 52.79 108.448 53.1925C108.448 53.2935 108.443 53.3933 108.437 53.4931C108.431 53.5929 108.426 53.6927 108.407 53.7964L108.386 53.9439L108.379 54.0182L108.367 54.0853L108.325 54.3487L107.996 56.4376C106.236 67.5927 104.293 78.7147 102.6 89.882C102.174 92.6718 101.755 95.4627 101.353 98.2569L100.748 102.445L100.156 106.634L99.5756 110.827L99.4346 111.879L99.399 112.143L99.3807 112.278L99.3552 112.419L99.3296 112.559L99.298 112.698L99.2663 112.837C99.2574 112.886 99.2435 112.928 99.2286 112.975C99.0392 113.703 98.6983 114.398 98.2475 115.003C97.3386 116.218 95.9483 117.062 94.4354 117.297C94.059 117.355 93.6759 117.38 93.2934 117.367C93.1996 117.363 93.0996 117.357 93.0069 117.347C92.9131 117.342 92.8154 117.324 92.7226 117.314L92.6482 117.307L92.5811 117.294L92.4517 117.277L92.1869 117.242L90.0899 116.943L81.6959 115.746L77.502 115.148L73.3042 114.537C67.7111 113.723 62.1248 112.873 56.5384 112.022L48.1578 110.752L43.9644 110.116L41.8708 109.799L41.3433 109.716C41.2395 109.697 41.1418 109.68 41.038 109.661L40.7359 109.587C40.3323 109.482 39.9426 109.336 39.5645 109.16C38.8167 108.797 38.1332 108.289 37.5758 107.677C37.0195 107.059 36.5771 106.336 36.2906 105.553C36.0041 104.77 35.8726 103.934 35.9054 103.095L35.9243 102.784C35.937 102.679 35.9487 102.58 35.9615 102.475L36.0325 101.946L36.1797 100.895C36.569 98.099 36.9705 95.3048 37.378 92.5117C37.7795 89.7175 38.1871 86.9244 38.6008 84.1324C39.0145 81.3404 39.4221 78.5474 39.848 75.7576C40.6888 70.1697 41.5905 64.593 42.5034 59.0246C43.4236 53.4511 44.3609 47.8871 45.2505 42.3081L45.5803 40.2193L45.9102 38.1304L46.5599 33.9383C46.6776 33.2224 46.9347 32.5381 47.3122 31.9199C47.6886 31.3077 48.1856 30.7615 48.7613 30.3367C49.3382 29.9059 50.0011 29.5915 50.6968 29.409C51.3924 29.2266 52.1197 29.1822 52.8348 29.2743ZM52.8137 29.4595C52.1231 29.3719 51.4202 29.4207 50.7512 29.5954C50.0738 29.7811 49.4376 30.0878 48.8885 30.5048C48.3394 30.9217 47.8652 31.4469 47.5104 32.0441C47.1628 32.6363 46.9285 33.2995 46.8297 33.981C46.6387 35.3767 46.4587 36.7807 46.2799 38.1787L46.0111 40.2786L45.7485 42.3797C45.0504 47.9808 44.4013 53.5909 43.7338 59.1976C43.0601 64.8032 42.3743 70.4065 41.6324 76.006C41.2615 78.8058 40.8783 81.6033 40.4963 84.3947C40.1192 87.1934 39.7299 89.9898 39.3407 92.7862C38.9514 95.5826 38.556 98.3779 38.1545 101.172L38.0013 102.222L37.9263 102.738C37.9191 102.812 37.9069 102.879 37.8996 102.953L37.8852 103.171C37.8624 103.747 37.9518 104.33 38.1428 104.875C38.3398 105.421 38.6385 105.929 39.0271 106.359C39.4147 106.795 39.886 107.151 40.4018 107.403C40.6622 107.532 40.9342 107.632 41.2168 107.708L41.4283 107.759C41.5016 107.773 41.5749 107.786 41.6421 107.798L42.1562 107.885L44.2454 108.227L48.4299 108.911L56.7978 110.286C62.3719 111.203 67.9544 112.11 73.523 113.058L77.703 113.767L81.8808 114.488L90.2354 115.936L92.3213 116.296L92.5839 116.343L92.7121 116.367L92.7793 116.379L92.8404 116.39C92.9209 116.398 92.9992 116.419 93.0808 116.421C93.1613 116.429 93.2418 116.438 93.3223 116.446C93.6465 116.467 93.9702 116.457 94.2933 116.414C94.9396 116.33 95.5642 116.122 96.1344 115.797C96.7034 115.478 97.2059 115.04 97.6145 114.529C98.0232 114.017 98.3269 113.423 98.5057 112.787C98.5196 112.746 98.5323 112.71 98.5401 112.668L98.5684 112.547L98.5968 112.426L98.619 112.304L98.6412 112.182L98.6645 112.054L98.7061 111.79L98.8716 110.743L99.5202 106.557L100.157 102.369L100.781 98.1781C101.194 95.3861 101.602 92.5931 101.991 89.7966C103.579 78.6165 104.92 67.4042 106.445 56.2191L106.733 54.1225L106.768 53.858L106.78 53.7909L106.784 53.7349L106.798 53.624C106.811 53.5508 106.813 53.4753 106.814 53.3999C106.821 53.3256 106.822 53.2502 106.817 53.1737C106.815 52.8709 106.788 52.5698 106.734 52.2765C106.68 51.9831 106.595 51.6904 106.482 51.4114C106.368 51.1325 106.227 50.8675 106.066 50.6113C106.027 50.5475 105.981 50.4887 105.942 50.4249C105.903 50.3612 105.851 50.3013 105.805 50.2425L105.733 50.1538L105.651 50.0506L105.479 49.8494L104.807 49.0342C103.009 46.855 101.223 44.6718 99.4398 42.4765L96.7778 39.1826L95.4509 37.5302L95.1222 37.1176L94.9751 36.9208L94.8929 36.8176L94.8208 36.7289C94.6231 36.4977 94.4099 36.2825 94.1679 36.0873C93.6949 35.7053 93.143 35.4097 92.5578 35.2278C92.4085 35.1818 92.2641 35.143 92.1115 35.1152C92.0382 35.1019 91.9588 35.0875 91.8855 35.0742C91.8489 35.0676 91.8 35.0587 91.7561 35.057L91.6268 35.0398L90.5758 34.8868L86.3802 34.2635L77.9984 32.9997L73.8039 32.3703L69.6072 31.7531L67.5114 31.4481L65.4144 31.1492C64.0181 30.9523 62.6157 30.7544 61.2182 30.5636C58.4162 30.1871 55.613 29.8166 52.8137 29.4595Z"/>
</mask>
<path d="M52.8348 29.2743C55.6391 29.6386 58.4406 29.9836 61.2493 30.3235C62.6512 30.4899 64.0531 30.6562 65.4622 30.8176L67.5691 31.0616L69.6772 31.2995L73.8895 31.762L78.105 32.2062L86.5312 33.0874L90.7446 33.5437L91.7962 33.6591L91.9255 33.6763C91.9683 33.684 92.0121 33.6857 92.061 33.6946C92.1598 33.7062 92.2586 33.7179 92.3563 33.7356C92.5518 33.7711 92.7461 33.8127 92.9382 33.8665C93.7199 34.0778 94.4494 34.4371 95.0862 34.9245C95.4082 35.1657 95.6991 35.4391 95.9662 35.7397L96.0655 35.8522L96.1538 35.9565L96.3254 36.1578L96.6685 36.5603L98.0253 38.1867L100.739 41.4395C102.539 43.6127 104.337 45.7981 106.122 47.9812L106.793 48.8024L106.957 49.0087L107.039 49.1119L107.131 49.2294C107.192 49.3098 107.253 49.3902 107.313 49.4767C107.367 49.5621 107.428 49.6425 107.482 49.7279C107.919 50.4122 108.214 51.1841 108.352 51.9843C108.425 52.3818 108.451 52.79 108.448 53.1925C108.448 53.2935 108.443 53.3933 108.437 53.4931C108.431 53.5929 108.426 53.6927 108.407 53.7964L108.386 53.9439L108.379 54.0182L108.367 54.0853L108.325 54.3487L107.996 56.4376C106.236 67.5927 104.293 78.7147 102.6 89.882C102.174 92.6718 101.755 95.4627 101.353 98.2569L100.748 102.445L100.156 106.634L99.5756 110.827L99.4346 111.879L99.399 112.143L99.3807 112.278L99.3552 112.419L99.3296 112.559L99.298 112.698L99.2663 112.837C99.2574 112.886 99.2435 112.928 99.2286 112.975C99.0392 113.703 98.6983 114.398 98.2475 115.003C97.3386 116.218 95.9483 117.062 94.4354 117.297C94.059 117.355 93.6759 117.38 93.2934 117.367C93.1996 117.363 93.0996 117.357 93.0069 117.347C92.9131 117.342 92.8154 117.324 92.7226 117.314L92.6482 117.307L92.5811 117.294L92.4517 117.277L92.1869 117.242L90.0899 116.943L81.6959 115.746L77.502 115.148L73.3042 114.537C67.7111 113.723 62.1248 112.873 56.5384 112.022L48.1578 110.752L43.9644 110.116L41.8708 109.799L41.3433 109.716C41.2395 109.697 41.1418 109.68 41.038 109.661L40.7359 109.587C40.3323 109.482 39.9426 109.336 39.5645 109.16C38.8167 108.797 38.1332 108.289 37.5758 107.677C37.0195 107.059 36.5771 106.336 36.2906 105.553C36.0041 104.77 35.8726 103.934 35.9054 103.095L35.9243 102.784C35.937 102.679 35.9487 102.58 35.9615 102.475L36.0325 101.946L36.1797 100.895C36.569 98.099 36.9705 95.3048 37.378 92.5117C37.7795 89.7175 38.1871 86.9244 38.6008 84.1324C39.0145 81.3404 39.4221 78.5474 39.848 75.7576C40.6888 70.1697 41.5905 64.593 42.5034 59.0246C43.4236 53.4511 44.3609 47.8871 45.2505 42.3081L45.5803 40.2193L45.9102 38.1304L46.5599 33.9383C46.6776 33.2224 46.9347 32.5381 47.3122 31.9199C47.6886 31.3077 48.1856 30.7615 48.7613 30.3367C49.3382 29.9059 50.0011 29.5915 50.6968 29.409C51.3924 29.2266 52.1197 29.1822 52.8348 29.2743ZM52.8137 29.4595C52.1231 29.3719 51.4202 29.4207 50.7512 29.5954C50.0738 29.7811 49.4376 30.0878 48.8885 30.5048C48.3394 30.9217 47.8652 31.4469 47.5104 32.0441C47.1628 32.6363 46.9285 33.2995 46.8297 33.981C46.6387 35.3767 46.4587 36.7807 46.2799 38.1787L46.0111 40.2786L45.7485 42.3797C45.0504 47.9808 44.4013 53.5909 43.7338 59.1976C43.0601 64.8032 42.3743 70.4065 41.6324 76.006C41.2615 78.8058 40.8783 81.6033 40.4963 84.3947C40.1192 87.1934 39.7299 89.9898 39.3407 92.7862C38.9514 95.5826 38.556 98.3779 38.1545 101.172L38.0013 102.222L37.9263 102.738C37.9191 102.812 37.9069 102.879 37.8996 102.953L37.8852 103.171C37.8624 103.747 37.9518 104.33 38.1428 104.875C38.3398 105.421 38.6385 105.929 39.0271 106.359C39.4147 106.795 39.886 107.151 40.4018 107.403C40.6622 107.532 40.9342 107.632 41.2168 107.708L41.4283 107.759C41.5016 107.773 41.5749 107.786 41.6421 107.798L42.1562 107.885L44.2454 108.227L48.4299 108.911L56.7978 110.286C62.3719 111.203 67.9544 112.11 73.523 113.058L77.703 113.767L81.8808 114.488L90.2354 115.936L92.3213 116.296L92.5839 116.343L92.7121 116.367L92.7793 116.379L92.8404 116.39C92.9209 116.398 92.9992 116.419 93.0808 116.421C93.1613 116.429 93.2418 116.438 93.3223 116.446C93.6465 116.467 93.9702 116.457 94.2933 116.414C94.9396 116.33 95.5642 116.122 96.1344 115.797C96.7034 115.478 97.2059 115.04 97.6145 114.529C98.0232 114.017 98.3269 113.423 98.5057 112.787C98.5196 112.746 98.5323 112.71 98.5401 112.668L98.5684 112.547L98.5968 112.426L98.619 112.304L98.6412 112.182L98.6645 112.054L98.7061 111.79L98.8716 110.743L99.5202 106.557L100.157 102.369L100.781 98.1781C101.194 95.3861 101.602 92.5931 101.991 89.7966C103.579 78.6165 104.92 67.4042 106.445 56.2191L106.733 54.1225L106.768 53.858L106.78 53.7909L106.784 53.7349L106.798 53.624C106.811 53.5508 106.813 53.4753 106.814 53.3999C106.821 53.3256 106.822 53.2502 106.817 53.1737C106.815 52.8709 106.788 52.5698 106.734 52.2765C106.68 51.9831 106.595 51.6904 106.482 51.4114C106.368 51.1325 106.227 50.8675 106.066 50.6113C106.027 50.5475 105.981 50.4887 105.942 50.4249C105.903 50.3612 105.851 50.3013 105.805 50.2425L105.733 50.1538L105.651 50.0506L105.479 49.8494L104.807 49.0342C103.009 46.855 101.223 44.6718 99.4398 42.4765L96.7778 39.1826L95.4509 37.5302L95.1222 37.1176L94.9751 36.9208L94.8929 36.8176L94.8208 36.7289C94.6231 36.4977 94.4099 36.2825 94.1679 36.0873C93.6949 35.7053 93.143 35.4097 92.5578 35.2278C92.4085 35.1818 92.2641 35.143 92.1115 35.1152C92.0382 35.1019 91.9588 35.0875 91.8855 35.0742C91.8489 35.0676 91.8 35.0587 91.7561 35.057L91.6268 35.0398L90.5758 34.8868L86.3802 34.2635L77.9984 32.9997L73.8039 32.3703L69.6072 31.7531L67.5114 31.4481L65.4144 31.1492C64.0181 30.9523 62.6157 30.7544 61.2182 30.5636C58.4162 30.1871 55.613 29.8166 52.8137 29.4595Z" fill="#001064"/>
<path d="M52.8348 29.2743C55.6391 29.6386 58.4406 29.9836 61.2493 30.3235C62.6512 30.4899 64.0531 30.6562 65.4622 30.8176L67.5691 31.0616L69.6772 31.2995L73.8895 31.762L78.105 32.2062L86.5312 33.0874L90.7446 33.5437L91.7962 33.6591L91.9255 33.6763C91.9683 33.684 92.0121 33.6857 92.061 33.6946C92.1598 33.7062 92.2586 33.7179 92.3563 33.7356C92.5518 33.7711 92.7461 33.8127 92.9382 33.8665C93.7199 34.0778 94.4494 34.4371 95.0862 34.9245C95.4082 35.1657 95.6991 35.4391 95.9662 35.7397L96.0655 35.8522L96.1538 35.9565L96.3254 36.1578L96.6685 36.5603L98.0253 38.1867L100.739 41.4395C102.539 43.6127 104.337 45.7981 106.122 47.9812L106.793 48.8024L106.957 49.0087L107.039 49.1119L107.131 49.2294C107.192 49.3098 107.253 49.3902 107.313 49.4767C107.367 49.5621 107.428 49.6425 107.482 49.7279C107.919 50.4122 108.214 51.1841 108.352 51.9843C108.425 52.3818 108.451 52.79 108.448 53.1925C108.448 53.2935 108.443 53.3933 108.437 53.4931C108.431 53.5929 108.426 53.6927 108.407 53.7964L108.386 53.9439L108.379 54.0182L108.367 54.0853L108.325 54.3487L107.996 56.4376C106.236 67.5927 104.293 78.7147 102.6 89.882C102.174 92.6718 101.755 95.4627 101.353 98.2569L100.748 102.445L100.156 106.634L99.5756 110.827L99.4346 111.879L99.399 112.143L99.3807 112.278L99.3552 112.419L99.3296 112.559L99.298 112.698L99.2663 112.837C99.2574 112.886 99.2435 112.928 99.2286 112.975C99.0392 113.703 98.6983 114.398 98.2475 115.003C97.3386 116.218 95.9483 117.062 94.4354 117.297C94.059 117.355 93.6759 117.38 93.2934 117.367C93.1996 117.363 93.0996 117.357 93.0069 117.347C92.9131 117.342 92.8154 117.324 92.7226 117.314L92.6482 117.307L92.5811 117.294L92.4517 117.277L92.1869 117.242L90.0899 116.943L81.6959 115.746L77.502 115.148L73.3042 114.537C67.7111 113.723 62.1248 112.873 56.5384 112.022L48.1578 110.752L43.9644 110.116L41.8708 109.799L41.3433 109.716C41.2395 109.697 41.1418 109.68 41.038 109.661L40.7359 109.587C40.3323 109.482 39.9426 109.336 39.5645 109.16C38.8167 108.797 38.1332 108.289 37.5758 107.677C37.0195 107.059 36.5771 106.336 36.2906 105.553C36.0041 104.77 35.8726 103.934 35.9054 103.095L35.9243 102.784C35.937 102.679 35.9487 102.58 35.9615 102.475L36.0325 101.946L36.1797 100.895C36.569 98.099 36.9705 95.3048 37.378 92.5117C37.7795 89.7175 38.1871 86.9244 38.6008 84.1324C39.0145 81.3404 39.4221 78.5474 39.848 75.7576C40.6888 70.1697 41.5905 64.593 42.5034 59.0246C43.4236 53.4511 44.3609 47.8871 45.2505 42.3081L45.5803 40.2193L45.9102 38.1304L46.5599 33.9383C46.6776 33.2224 46.9347 32.5381 47.3122 31.9199C47.6886 31.3077 48.1856 30.7615 48.7613 30.3367C49.3382 29.9059 50.0011 29.5915 50.6968 29.409C51.3924 29.2266 52.1197 29.1822 52.8348 29.2743ZM52.8137 29.4595C52.1231 29.3719 51.4202 29.4207 50.7512 29.5954C50.0738 29.7811 49.4376 30.0878 48.8885 30.5048C48.3394 30.9217 47.8652 31.4469 47.5104 32.0441C47.1628 32.6363 46.9285 33.2995 46.8297 33.981C46.6387 35.3767 46.4587 36.7807 46.2799 38.1787L46.0111 40.2786L45.7485 42.3797C45.0504 47.9808 44.4013 53.5909 43.7338 59.1976C43.0601 64.8032 42.3743 70.4065 41.6324 76.006C41.2615 78.8058 40.8783 81.6033 40.4963 84.3947C40.1192 87.1934 39.7299 89.9898 39.3407 92.7862C38.9514 95.5826 38.556 98.3779 38.1545 101.172L38.0013 102.222L37.9263 102.738C37.9191 102.812 37.9069 102.879 37.8996 102.953L37.8852 103.171C37.8624 103.747 37.9518 104.33 38.1428 104.875C38.3398 105.421 38.6385 105.929 39.0271 106.359C39.4147 106.795 39.886 107.151 40.4018 107.403C40.6622 107.532 40.9342 107.632 41.2168 107.708L41.4283 107.759C41.5016 107.773 41.5749 107.786 41.6421 107.798L42.1562 107.885L44.2454 108.227L48.4299 108.911L56.7978 110.286C62.3719 111.203 67.9544 112.11 73.523 113.058L77.703 113.767L81.8808 114.488L90.2354 115.936L92.3213 116.296L92.5839 116.343L92.7121 116.367L92.7793 116.379L92.8404 116.39C92.9209 116.398 92.9992 116.419 93.0808 116.421C93.1613 116.429 93.2418 116.438 93.3223 116.446C93.6465 116.467 93.9702 116.457 94.2933 116.414C94.9396 116.33 95.5642 116.122 96.1344 115.797C96.7034 115.478 97.2059 115.04 97.6145 114.529C98.0232 114.017 98.3269 113.423 98.5057 112.787C98.5196 112.746 98.5323 112.71 98.5401 112.668L98.5684 112.547L98.5968 112.426L98.619 112.304L98.6412 112.182L98.6645 112.054L98.7061 111.79L98.8716 110.743L99.5202 106.557L100.157 102.369L100.781 98.1781C101.194 95.3861 101.602 92.5931 101.991 89.7966C103.579 78.6165 104.92 67.4042 106.445 56.2191L106.733 54.1225L106.768 53.858L106.78 53.7909L106.784 53.7349L106.798 53.624C106.811 53.5508 106.813 53.4753 106.814 53.3999C106.821 53.3256 106.822 53.2502 106.817 53.1737C106.815 52.8709 106.788 52.5698 106.734 52.2765C106.68 51.9831 106.595 51.6904 106.482 51.4114C106.368 51.1325 106.227 50.8675 106.066 50.6113C106.027 50.5475 105.981 50.4887 105.942 50.4249C105.903 50.3612 105.851 50.3013 105.805 50.2425L105.733 50.1538L105.651 50.0506L105.479 49.8494L104.807 49.0342C103.009 46.855 101.223 44.6718 99.4398 42.4765L96.7778 39.1826L95.4509 37.5302L95.1222 37.1176L94.9751 36.9208L94.8929 36.8176L94.8208 36.7289C94.6231 36.4977 94.4099 36.2825 94.1679 36.0873C93.6949 35.7053 93.143 35.4097 92.5578 35.2278C92.4085 35.1818 92.2641 35.143 92.1115 35.1152C92.0382 35.1019 91.9588 35.0875 91.8855 35.0742C91.8489 35.0676 91.8 35.0587 91.7561 35.057L91.6268 35.0398L90.5758 34.8868L86.3802 34.2635L77.9984 32.9997L73.8039 32.3703L69.6072 31.7531L67.5114 31.4481L65.4144 31.1492C64.0181 30.9523 62.6157 30.7544 61.2182 30.5636C58.4162 30.1871 55.613 29.8166 52.8137 29.4595Z" stroke="#001064" stroke-width="1.18273" mask="url(#path-1-outside-1)"/>
<path d="M74.219 26.3862L67.4717 25.4579L32.1067 24.7617L28.6167 26.3862L27.2207 28.4748V33.3481L25.3594 97.8621V103.2L28.6167 106.216L78.8723 108.537H84.2236L87.2483 106.913L88.6442 102.271L90.2729 41.2383L81.199 32.1878L74.219 26.3862Z" fill="#E9F0FF"/>
<mask id="path-3-outside-2" maskUnits="userSpaceOnUse" x="20.7409" y="20.765" width="74.8909" height="91.5808" fill="black">
<rect fill="white" x="20.7409" y="20.765" width="74.8909" height="91.5808"/>
<path d="M32.9202 24.9002C35.7772 24.9547 38.6293 24.9899 41.488 25.0194C42.9145 25.0308 44.3409 25.0422 45.7741 25.0477L47.9174 25.0588L50.061 25.0636L54.343 25.0603L58.6264 25.0382L67.1872 24.9873L71.4696 24.9777L72.5385 24.9768L72.6704 24.9797C72.7142 24.9827 72.7584 24.9795 72.8085 24.983C72.909 24.9837 73.0096 24.9845 73.1097 24.9914C73.3099 25.0054 73.5097 25.0256 73.7086 25.0583C74.5172 25.1836 75.2899 25.4635 75.9837 25.8823C76.334 26.0888 76.6566 26.331 76.9583 26.6032L77.0706 26.7053L77.1709 26.8001L77.3656 26.9833L77.755 27.3495L79.2988 28.8322L82.3865 31.7977C84.4361 33.7804 86.4849 35.7756 88.5212 37.7698L89.2862 38.5202L89.4742 38.7091L89.5682 38.8035L89.6739 38.9114C89.7442 38.9853 89.8145 39.0593 89.8843 39.1395C89.9479 39.2193 90.0182 39.2933 90.0818 39.3731C90.5968 40.0118 90.9788 40.7543 91.2067 41.5426C91.324 41.9338 91.3962 42.3407 91.4371 42.7455C91.4489 42.8468 91.4545 42.9476 91.46 43.0485C91.4655 43.1494 91.4711 43.2502 91.4636 43.3565L91.4594 43.5069L91.4605 43.5823L91.4557 43.6511L91.4432 43.9202L91.3445 46.0548C90.8193 57.4537 90.1063 68.8396 89.6499 80.2433C89.5328 83.0924 89.4219 85.942 89.3298 88.7929L89.1888 93.0659L89.0603 97.3398L88.9442 101.615L88.9197 102.687L88.9135 102.956L88.9101 103.094L88.9001 103.238L88.8901 103.382L88.8738 103.525L88.8575 103.668C88.854 103.718 88.8447 103.762 88.8349 103.811C88.7258 104.563 88.4608 105.298 88.0753 105.956C87.2978 107.277 85.9955 108.279 84.5023 108.684C84.1307 108.784 83.7487 108.851 83.3631 108.881C83.2684 108.887 83.1674 108.893 83.0731 108.892C82.9783 108.898 82.8782 108.891 82.7839 108.891L82.7084 108.892L82.6396 108.887L82.5078 108.884L82.2378 108.878L80.0985 108.811L71.5349 108.541L67.2563 108.407L62.9722 108.259C57.2643 108.063 51.559 107.829 45.8538 107.595L37.2954 107.25L33.0131 107.078L30.8751 106.992L30.3361 106.967C30.2297 106.959 30.1296 106.952 30.0233 106.945L29.7117 106.904C29.2947 106.844 28.8869 106.74 28.4876 106.606C27.6962 106.324 26.9532 105.89 26.3253 105.337C25.6978 104.779 25.1729 104.102 24.798 103.347C24.4231 102.593 24.1978 101.767 24.1374 100.921L24.1216 100.606C24.1228 100.499 24.1235 100.399 24.1247 100.292L24.1371 99.753L24.1679 98.6813C24.2475 95.8295 24.3396 92.9786 24.438 90.1282C24.53 87.2773 24.6284 84.4268 24.733 81.5768C24.8376 78.7268 24.936 75.8763 25.0531 73.0272C25.2752 67.3217 25.56 61.6207 25.8568 55.9267C26.1603 50.227 26.4821 44.5348 26.7543 38.8328L26.853 36.6983L26.9517 34.5638L27.1374 30.2813C27.1759 29.5493 27.3579 28.8335 27.6683 28.1706C27.9782 27.5139 28.4164 26.9102 28.9474 26.4196C29.4788 25.9229 30.1095 25.5335 30.7879 25.273C31.4663 25.0125 32.1918 24.8872 32.9202 24.9002ZM32.9197 25.0886C32.2162 25.0773 31.5158 25.2043 30.8633 25.4541C30.2037 25.7159 29.5988 26.0945 29.0938 26.5743C28.5887 27.0541 28.171 27.6341 27.8812 28.2733C27.598 28.9067 27.4366 29.5988 27.4132 30.2942C27.3767 31.7172 27.3524 33.1473 27.3284 34.5711L27.2923 36.71L27.2625 38.8494C27.1851 44.5523 27.1578 50.2587 27.1117 55.9639C27.0593 61.6685 26.9945 67.3723 26.8729 73.0785C26.8121 75.9316 26.7387 78.7838 26.6658 81.6297C26.5988 84.4823 26.5192 87.3341 26.4396 90.1859C26.3601 93.0376 26.2742 95.889 26.1821 98.7399L26.1451 99.8111L26.1272 100.337C26.1282 100.413 26.1234 100.482 26.1245 100.557L26.1342 100.777C26.1754 101.358 26.3301 101.934 26.5826 102.46C26.8414 102.987 27.1979 103.464 27.6361 103.852C28.0738 104.247 28.5869 104.553 29.1329 104.748C29.4088 104.849 29.6931 104.919 29.9855 104.964L30.2036 104.992C30.2787 104.997 30.3538 105.002 30.4226 105.007L30.9486 105.037L33.0849 105.149L37.3637 105.371L45.9209 105.822C51.6214 106.125 57.329 106.416 63.0273 106.749L67.3043 106.997L71.5805 107.257L80.1325 107.783L82.2675 107.913L82.5365 107.932L82.6679 107.941L82.7367 107.946L82.7993 107.95C82.8811 107.949 82.962 107.961 83.0442 107.955C83.126 107.954 83.2078 107.953 83.2895 107.953C83.6175 107.938 83.9414 107.891 84.2613 107.813C84.9009 107.657 85.5051 107.379 86.0416 106.989C86.5776 106.605 87.0335 106.11 87.3869 105.55C87.7403 104.991 87.9792 104.361 88.088 103.703C88.0973 103.659 88.1062 103.622 88.1092 103.578L88.1242 103.454L88.1392 103.329L88.1479 103.204L88.1567 103.079L88.1658 102.948L88.1783 102.679L88.2279 101.609L88.4132 97.3324L88.5859 93.0553L88.7462 88.7774C88.8508 85.9274 88.9491 83.0769 89.0287 80.2252C89.3783 68.8203 89.4768 57.4105 89.7633 46.0075L89.8182 43.8699L89.8245 43.6003L89.8293 43.5316L89.8269 43.4749L89.8285 43.362C89.8338 43.287 89.8265 43.2111 89.8192 43.1352C89.8182 43.0598 89.8109 42.9839 89.7974 42.9076C89.762 42.6037 89.7011 42.3044 89.6144 42.0157C89.5277 41.7271 89.4092 41.4425 89.2644 41.175C89.1196 40.9074 88.9485 40.6569 88.7577 40.4175C88.7115 40.3578 88.6587 40.3039 88.6126 40.2442C88.5665 40.1844 88.5074 40.1301 88.4546 40.0762L88.3722 39.9951L88.2782 39.9006L88.0835 39.7175L87.318 38.9734C85.2688 36.9845 83.2325 34.9902 81.1971 32.9834L78.1568 29.971L76.6401 28.4587L76.2641 28.0809L76.0944 27.8995L76.0004 27.8051L75.9181 27.724C75.6938 27.5137 75.4558 27.3213 75.1909 27.1521C74.6733 26.821 74.0861 26.5854 73.4782 26.4677C73.3231 26.4381 73.1738 26.4151 73.0173 26.4042C72.9423 26.399 72.8609 26.3934 72.7858 26.3881C72.7483 26.3855 72.6982 26.382 72.654 26.3852L72.5222 26.3823L71.4496 26.3453L67.1664 26.1853L58.6076 25.847L54.3249 25.6807L50.0413 25.5269L47.9024 25.4534L45.7631 25.3861C44.3388 25.3434 42.9082 25.3004 41.4835 25.264C38.6274 25.197 35.7708 25.1363 32.9197 25.0886Z"/>
</mask>
<path d="M32.9202 24.9002C35.7772 24.9547 38.6293 24.9899 41.488 25.0194C42.9145 25.0308 44.3409 25.0422 45.7741 25.0477L47.9174 25.0588L50.061 25.0636L54.343 25.0603L58.6264 25.0382L67.1872 24.9873L71.4696 24.9777L72.5385 24.9768L72.6704 24.9797C72.7142 24.9827 72.7584 24.9795 72.8085 24.983C72.909 24.9837 73.0096 24.9845 73.1097 24.9914C73.3099 25.0054 73.5097 25.0256 73.7086 25.0583C74.5172 25.1836 75.2899 25.4635 75.9837 25.8823C76.334 26.0888 76.6566 26.331 76.9583 26.6032L77.0706 26.7053L77.1709 26.8001L77.3656 26.9833L77.755 27.3495L79.2988 28.8322L82.3865 31.7977C84.4361 33.7804 86.4849 35.7756 88.5212 37.7698L89.2862 38.5202L89.4742 38.7091L89.5682 38.8035L89.6739 38.9114C89.7442 38.9853 89.8145 39.0593 89.8843 39.1395C89.9479 39.2193 90.0182 39.2933 90.0818 39.3731C90.5968 40.0118 90.9788 40.7543 91.2067 41.5426C91.324 41.9338 91.3962 42.3407 91.4371 42.7455C91.4489 42.8468 91.4545 42.9476 91.46 43.0485C91.4655 43.1494 91.4711 43.2502 91.4636 43.3565L91.4594 43.5069L91.4605 43.5823L91.4557 43.6511L91.4432 43.9202L91.3445 46.0548C90.8193 57.4537 90.1063 68.8396 89.6499 80.2433C89.5328 83.0924 89.4219 85.942 89.3298 88.7929L89.1888 93.0659L89.0603 97.3398L88.9442 101.615L88.9197 102.687L88.9135 102.956L88.9101 103.094L88.9001 103.238L88.8901 103.382L88.8738 103.525L88.8575 103.668C88.854 103.718 88.8447 103.762 88.8349 103.811C88.7258 104.563 88.4608 105.298 88.0753 105.956C87.2978 107.277 85.9955 108.279 84.5023 108.684C84.1307 108.784 83.7487 108.851 83.3631 108.881C83.2684 108.887 83.1674 108.893 83.0731 108.892C82.9783 108.898 82.8782 108.891 82.7839 108.891L82.7084 108.892L82.6396 108.887L82.5078 108.884L82.2378 108.878L80.0985 108.811L71.5349 108.541L67.2563 108.407L62.9722 108.259C57.2643 108.063 51.559 107.829 45.8538 107.595L37.2954 107.25L33.0131 107.078L30.8751 106.992L30.3361 106.967C30.2297 106.959 30.1296 106.952 30.0233 106.945L29.7117 106.904C29.2947 106.844 28.8869 106.74 28.4876 106.606C27.6962 106.324 26.9532 105.89 26.3253 105.337C25.6978 104.779 25.1729 104.102 24.798 103.347C24.4231 102.593 24.1978 101.767 24.1374 100.921L24.1216 100.606C24.1228 100.499 24.1235 100.399 24.1247 100.292L24.1371 99.753L24.1679 98.6813C24.2475 95.8295 24.3396 92.9786 24.438 90.1282C24.53 87.2773 24.6284 84.4268 24.733 81.5768C24.8376 78.7268 24.936 75.8763 25.0531 73.0272C25.2752 67.3217 25.56 61.6207 25.8568 55.9267C26.1603 50.227 26.4821 44.5348 26.7543 38.8328L26.853 36.6983L26.9517 34.5638L27.1374 30.2813C27.1759 29.5493 27.3579 28.8335 27.6683 28.1706C27.9782 27.5139 28.4164 26.9102 28.9474 26.4196C29.4788 25.9229 30.1095 25.5335 30.7879 25.273C31.4663 25.0125 32.1918 24.8872 32.9202 24.9002ZM32.9197 25.0886C32.2162 25.0773 31.5158 25.2043 30.8633 25.4541C30.2037 25.7159 29.5988 26.0945 29.0938 26.5743C28.5887 27.0541 28.171 27.6341 27.8812 28.2733C27.598 28.9067 27.4366 29.5988 27.4132 30.2942C27.3767 31.7172 27.3524 33.1473 27.3284 34.5711L27.2923 36.71L27.2625 38.8494C27.1851 44.5523 27.1578 50.2587 27.1117 55.9639C27.0593 61.6685 26.9945 67.3723 26.8729 73.0785C26.8121 75.9316 26.7387 78.7838 26.6658 81.6297C26.5988 84.4823 26.5192 87.3341 26.4396 90.1859C26.3601 93.0376 26.2742 95.889 26.1821 98.7399L26.1451 99.8111L26.1272 100.337C26.1282 100.413 26.1234 100.482 26.1245 100.557L26.1342 100.777C26.1754 101.358 26.3301 101.934 26.5826 102.46C26.8414 102.987 27.1979 103.464 27.6361 103.852C28.0738 104.247 28.5869 104.553 29.1329 104.748C29.4088 104.849 29.6931 104.919 29.9855 104.964L30.2036 104.992C30.2787 104.997 30.3538 105.002 30.4226 105.007L30.9486 105.037L33.0849 105.149L37.3637 105.371L45.9209 105.822C51.6214 106.125 57.329 106.416 63.0273 106.749L67.3043 106.997L71.5805 107.257L80.1325 107.783L82.2675 107.913L82.5365 107.932L82.6679 107.941L82.7367 107.946L82.7993 107.95C82.8811 107.949 82.962 107.961 83.0442 107.955C83.126 107.954 83.2078 107.953 83.2895 107.953C83.6175 107.938 83.9414 107.891 84.2613 107.813C84.9009 107.657 85.5051 107.379 86.0416 106.989C86.5776 106.605 87.0335 106.11 87.3869 105.55C87.7403 104.991 87.9792 104.361 88.088 103.703C88.0973 103.659 88.1062 103.622 88.1092 103.578L88.1242 103.454L88.1392 103.329L88.1479 103.204L88.1567 103.079L88.1658 102.948L88.1783 102.679L88.2279 101.609L88.4132 97.3324L88.5859 93.0553L88.7462 88.7774C88.8508 85.9274 88.9491 83.0769 89.0287 80.2252C89.3783 68.8203 89.4768 57.4105 89.7633 46.0075L89.8182 43.8699L89.8245 43.6003L89.8293 43.5316L89.8269 43.4749L89.8285 43.362C89.8338 43.287 89.8265 43.2111 89.8192 43.1352C89.8182 43.0598 89.8109 42.9839 89.7974 42.9076C89.762 42.6037 89.7011 42.3044 89.6144 42.0157C89.5277 41.7271 89.4092 41.4425 89.2644 41.175C89.1196 40.9074 88.9485 40.6569 88.7577 40.4175C88.7115 40.3578 88.6587 40.3039 88.6126 40.2442C88.5665 40.1844 88.5074 40.1301 88.4546 40.0762L88.3722 39.9951L88.2782 39.9006L88.0835 39.7175L87.318 38.9734C85.2688 36.9845 83.2325 34.9902 81.1971 32.9834L78.1568 29.971L76.6401 28.4587L76.2641 28.0809L76.0944 27.8995L76.0004 27.8051L75.9181 27.724C75.6938 27.5137 75.4558 27.3213 75.1909 27.1521C74.6733 26.821 74.0861 26.5854 73.4782 26.4677C73.3231 26.4381 73.1738 26.4151 73.0173 26.4042C72.9423 26.399 72.8609 26.3934 72.7858 26.3881C72.7483 26.3855 72.6982 26.382 72.654 26.3852L72.5222 26.3823L71.4496 26.3453L67.1664 26.1853L58.6076 25.847L54.3249 25.6807L50.0413 25.5269L47.9024 25.4534L45.7631 25.3861C44.3388 25.3434 42.9082 25.3004 41.4835 25.264C38.6274 25.197 35.7708 25.1363 32.9197 25.0886Z" fill="#001064"/>
<path d="M32.9202 24.9002C35.7772 24.9547 38.6293 24.9899 41.488 25.0194C42.9145 25.0308 44.3409 25.0422 45.7741 25.0477L47.9174 25.0588L50.061 25.0636L54.343 25.0603L58.6264 25.0382L67.1872 24.9873L71.4696 24.9777L72.5385 24.9768L72.6704 24.9797C72.7142 24.9827 72.7584 24.9795 72.8085 24.983C72.909 24.9837 73.0096 24.9845 73.1097 24.9914C73.3099 25.0054 73.5097 25.0256 73.7086 25.0583C74.5172 25.1836 75.2899 25.4635 75.9837 25.8823C76.334 26.0888 76.6566 26.331 76.9583 26.6032L77.0706 26.7053L77.1709 26.8001L77.3656 26.9833L77.755 27.3495L79.2988 28.8322L82.3865 31.7977C84.4361 33.7804 86.4849 35.7756 88.5212 37.7698L89.2862 38.5202L89.4742 38.7091L89.5682 38.8035L89.6739 38.9114C89.7442 38.9853 89.8145 39.0593 89.8843 39.1395C89.9479 39.2193 90.0182 39.2933 90.0818 39.3731C90.5968 40.0118 90.9788 40.7543 91.2067 41.5426C91.324 41.9338 91.3962 42.3407 91.4371 42.7455C91.4489 42.8468 91.4545 42.9476 91.46 43.0485C91.4655 43.1494 91.4711 43.2502 91.4636 43.3565L91.4594 43.5069L91.4605 43.5823L91.4557 43.6511L91.4432 43.9202L91.3445 46.0548C90.8193 57.4537 90.1063 68.8396 89.6499 80.2433C89.5328 83.0924 89.4219 85.942 89.3298 88.7929L89.1888 93.0659L89.0603 97.3398L88.9442 101.615L88.9197 102.687L88.9135 102.956L88.9101 103.094L88.9001 103.238L88.8901 103.382L88.8738 103.525L88.8575 103.668C88.854 103.718 88.8447 103.762 88.8349 103.811C88.7258 104.563 88.4608 105.298 88.0753 105.956C87.2978 107.277 85.9955 108.279 84.5023 108.684C84.1307 108.784 83.7487 108.851 83.3631 108.881C83.2684 108.887 83.1674 108.893 83.0731 108.892C82.9783 108.898 82.8782 108.891 82.7839 108.891L82.7084 108.892L82.6396 108.887L82.5078 108.884L82.2378 108.878L80.0985 108.811L71.5349 108.541L67.2563 108.407L62.9722 108.259C57.2643 108.063 51.559 107.829 45.8538 107.595L37.2954 107.25L33.0131 107.078L30.8751 106.992L30.3361 106.967C30.2297 106.959 30.1296 106.952 30.0233 106.945L29.7117 106.904C29.2947 106.844 28.8869 106.74 28.4876 106.606C27.6962 106.324 26.9532 105.89 26.3253 105.337C25.6978 104.779 25.1729 104.102 24.798 103.347C24.4231 102.593 24.1978 101.767 24.1374 100.921L24.1216 100.606C24.1228 100.499 24.1235 100.399 24.1247 100.292L24.1371 99.753L24.1679 98.6813C24.2475 95.8295 24.3396 92.9786 24.438 90.1282C24.53 87.2773 24.6284 84.4268 24.733 81.5768C24.8376 78.7268 24.936 75.8763 25.0531 73.0272C25.2752 67.3217 25.56 61.6207 25.8568 55.9267C26.1603 50.227 26.4821 44.5348 26.7543 38.8328L26.853 36.6983L26.9517 34.5638L27.1374 30.2813C27.1759 29.5493 27.3579 28.8335 27.6683 28.1706C27.9782 27.5139 28.4164 26.9102 28.9474 26.4196C29.4788 25.9229 30.1095 25.5335 30.7879 25.273C31.4663 25.0125 32.1918 24.8872 32.9202 24.9002ZM32.9197 25.0886C32.2162 25.0773 31.5158 25.2043 30.8633 25.4541C30.2037 25.7159 29.5988 26.0945 29.0938 26.5743C28.5887 27.0541 28.171 27.6341 27.8812 28.2733C27.598 28.9067 27.4366 29.5988 27.4132 30.2942C27.3767 31.7172 27.3524 33.1473 27.3284 34.5711L27.2923 36.71L27.2625 38.8494C27.1851 44.5523 27.1578 50.2587 27.1117 55.9639C27.0593 61.6685 26.9945 67.3723 26.8729 73.0785C26.8121 75.9316 26.7387 78.7838 26.6658 81.6297C26.5988 84.4823 26.5192 87.3341 26.4396 90.1859C26.3601 93.0376 26.2742 95.889 26.1821 98.7399L26.1451 99.8111L26.1272 100.337C26.1282 100.413 26.1234 100.482 26.1245 100.557L26.1342 100.777C26.1754 101.358 26.3301 101.934 26.5826 102.46C26.8414 102.987 27.1979 103.464 27.6361 103.852C28.0738 104.247 28.5869 104.553 29.1329 104.748C29.4088 104.849 29.6931 104.919 29.9855 104.964L30.2036 104.992C30.2787 104.997 30.3538 105.002 30.4226 105.007L30.9486 105.037L33.0849 105.149L37.3637 105.371L45.9209 105.822C51.6214 106.125 57.329 106.416 63.0273 106.749L67.3043 106.997L71.5805 107.257L80.1325 107.783L82.2675 107.913L82.5365 107.932L82.6679 107.941L82.7367 107.946L82.7993 107.95C82.8811 107.949 82.962 107.961 83.0442 107.955C83.126 107.954 83.2078 107.953 83.2895 107.953C83.6175 107.938 83.9414 107.891 84.2613 107.813C84.9009 107.657 85.5051 107.379 86.0416 106.989C86.5776 106.605 87.0335 106.11 87.3869 105.55C87.7403 104.991 87.9792 104.361 88.088 103.703C88.0973 103.659 88.1062 103.622 88.1092 103.578L88.1242 103.454L88.1392 103.329L88.1479 103.204L88.1567 103.079L88.1658 102.948L88.1783 102.679L88.2279 101.609L88.4132 97.3324L88.5859 93.0553L88.7462 88.7774C88.8508 85.9274 88.9491 83.0769 89.0287 80.2252C89.3783 68.8203 89.4768 57.4105 89.7633 46.0075L89.8182 43.8699L89.8245 43.6003L89.8293 43.5316L89.8269 43.4749L89.8285 43.362C89.8338 43.287 89.8265 43.2111 89.8192 43.1352C89.8182 43.0598 89.8109 42.9839 89.7974 42.9076C89.762 42.6037 89.7011 42.3044 89.6144 42.0157C89.5277 41.7271 89.4092 41.4425 89.2644 41.175C89.1196 40.9074 88.9485 40.6569 88.7577 40.4175C88.7115 40.3578 88.6587 40.3039 88.6126 40.2442C88.5665 40.1844 88.5074 40.1301 88.4546 40.0762L88.3722 39.9951L88.2782 39.9006L88.0835 39.7175L87.318 38.9734C85.2688 36.9845 83.2325 34.9902 81.1971 32.9834L78.1568 29.971L76.6401 28.4587L76.2641 28.0809L76.0944 27.8995L76.0004 27.8051L75.9181 27.724C75.6938 27.5137 75.4558 27.3213 75.1909 27.1521C74.6733 26.821 74.0861 26.5854 73.4782 26.4677C73.3231 26.4381 73.1738 26.4151 73.0173 26.4042C72.9423 26.399 72.8609 26.3934 72.7858 26.3881C72.7483 26.3855 72.6982 26.382 72.654 26.3852L72.5222 26.3823L71.4496 26.3453L67.1664 26.1853L58.6076 25.847L54.3249 25.6807L50.0413 25.5269L47.9024 25.4534L45.7631 25.3861C44.3388 25.3434 42.9082 25.3004 41.4835 25.264C38.6274 25.197 35.7708 25.1363 32.9197 25.0886Z" stroke="#001064" stroke-width="1.18273" mask="url(#path-3-outside-2)"/>
<path d="M72.7583 25.6888C72.9024 26.3268 73.0152 26.9626 73.1281 27.5984C73.2409 28.2343 73.3407 28.8755 73.4343 29.5163C73.622 30.7916 73.7841 32.0714 73.9334 33.3565L74.036 34.3182C74.0701 34.6409 74.0983 34.9568 74.1324 35.2795C74.1602 35.6017 74.1947 35.9181 74.2225 36.2403L74.2435 36.4804L74.2521 36.5375L74.2611 36.5883L74.2729 36.6896C74.2806 36.7592 74.2888 36.8226 74.3027 36.8927L74.3208 36.9944C74.3249 37.0261 74.3352 37.0582 74.3388 37.0961C74.5538 38.1598 75.1337 39.1296 75.946 39.833C76.1474 40.0103 76.3689 40.1701 76.598 40.3117C76.827 40.4532 77.0636 40.5764 77.314 40.6818C77.8091 40.8858 78.3415 41.0045 78.8855 41.0486L79.0924 41.0568L79.331 41.0608L79.8141 41.0756C80.1341 41.0853 80.4603 41.0955 80.7803 41.1052L81.7461 41.141L82.7123 41.1706C84.003 41.2354 85.2866 41.3121 86.58 41.4273C87.2237 41.4847 87.8673 41.542 88.5158 41.6186C89.1586 41.6885 89.8067 41.7713 90.4477 41.8661C89.8052 41.9721 89.1578 42.0589 88.5172 42.1399C87.8765 42.2209 87.2304 42.289 86.5848 42.3508C85.2997 42.4748 84.0102 42.5734 82.7224 42.6471L81.7564 42.7054L80.7912 42.7513C80.4695 42.7665 80.1477 42.7818 79.8264 42.7909L79.3412 42.8073L79.1016 42.8158L78.825 42.8153C78.0841 42.8014 77.3331 42.6612 76.635 42.3928C76.2862 42.2555 75.9454 42.0936 75.6256 41.9018C75.3057 41.71 75.0006 41.4878 74.7159 41.2419C73.5837 40.2588 72.8068 38.8671 72.5889 37.3951C72.5795 37.3504 72.5762 37.3063 72.5672 37.2554L72.5518 37.1162C72.5396 37.0211 72.5332 36.9327 72.5272 36.8381L72.518 36.6993L72.5165 36.6302L72.5147 36.5672L72.5062 36.328C72.4972 36.0071 72.4944 35.6866 72.4858 35.3595C72.483 35.039 72.4739 34.7181 72.4716 34.3914L72.4637 33.4238C72.4593 32.1361 72.474 30.8435 72.5201 29.5531C72.5462 28.9081 72.5724 28.2631 72.6115 27.6127C72.6493 26.9811 72.6884 26.3307 72.7583 25.6888Z" fill="#001064"/>
<path fill-rule="evenodd" clip-rule="evenodd" d="M6.42617 26.4417C6.60631 25.8642 6.95734 25.3634 7.25554 24.7977C7.41085 24.4559 7.71221 24.4265 8.05397 24.5796C9.27499 24.8801 10.3283 25.6401 11.4592 26.2293C12.8667 27.0247 14.2493 28.0557 15.5792 29.022C16.0794 29.3696 16.0546 29.6053 15.7688 30.0531C14.7934 31.3848 14.7934 31.3848 13.4511 30.5364C11.3849 29.199 9.1883 27.9676 7.04447 26.8011C6.82076 26.6597 6.59705 26.5183 6.42617 26.4417Z" fill="#001064"/>
<path fill-rule="evenodd" clip-rule="evenodd" d="M21.3698 12.6339C21.252 12.397 21.3239 12.3027 21.5739 12.2682C21.6572 12.2567 21.8124 12.1509 21.8957 12.1394C23.3612 11.684 23.4445 11.6725 23.9727 13.0337C24.782 15.1997 25.5196 17.4601 26.3289 19.6261C26.4581 19.9457 26.3977 20.1228 26.1592 20.2401C25.4322 20.5092 24.7166 20.8611 23.9896 21.1302C23.6678 21.259 23.573 21.1877 23.4438 20.8681C22.7323 18.1824 22.0208 15.4967 21.3208 12.8937C21.3927 12.7994 21.3812 12.7167 21.3698 12.6339Z" fill="#001064"/>
<path fill-rule="evenodd" clip-rule="evenodd" d="M41.7521 13.786C41.5851 15.8283 41.0739 17.8296 40.6461 19.8205C40.6565 19.9034 40.6044 20.1626 40.5209 20.1731C39.7593 20.1844 39.196 19.7498 38.497 19.5848C38.0588 19.4713 38.2675 19.1082 38.3196 18.849C38.737 16.7753 39.1543 14.7015 39.4882 12.6382C39.603 12.2027 39.7595 12.0988 40.1977 12.2123C40.2916 12.2847 40.4585 12.2638 40.542 12.2533C41.7626 12.5213 41.7626 12.5213 41.7521 13.786Z" fill="#001064"/>
<path d="M53.52 88.3539C56.8821 86.6659 60.3806 84.9666 63.4836 82.8562C65.242 81.6604 67.3042 80.2417 68.5727 78.5125C69.1569 77.716 66.7195 79.3244 65.8819 79.8729C63.0501 81.7271 60.2137 83.5968 57.6926 85.8396C57.0478 86.4133 54.0445 88.6106 54.3292 89.7612C54.6208 90.9397 63.219 87.4062 63.8151 87.1531C66.183 86.1473 68.4778 84.9753 70.776 83.8319C71.4318 83.5057 72.9116 82.2737 72.4333 83.7006C72.3342 83.9962 71.305 87.7759 71.3219 87.7723C72.259 87.5686 73.4268 86.3536 74.1686 85.8396C75.6208 84.8335 77.166 83.6856 78.8092 82.9782C79.1569 82.8285 78.3325 85.0889 78.2925 85.4925C78.2813 85.6056 78.4197 86.3157 78.4778 86.4213C78.5874 86.6205 78.842 86.2122 78.8677 86.1774C79.8772 84.8127 80.9747 83.5196 82.0947 82.2371C83.4021 80.7399 84.6305 79.154 85.9456 77.6775C86.0054 77.6104 85.9305 77.8548 85.9066 77.9402C85.2792 80.1793 84.5092 82.3772 83.9275 84.6294C83.5629 86.0412 83.1591 87.5253 83.0403 88.9825C82.9664 89.8898 83.9058 89.3886 84.4052 89.1607C87.414 87.7881 90.4707 86.3822 93.3452 84.7607C93.7063 84.557 93.8083 84.4699 94.2323 84.4699" stroke="#001064" stroke-width="1.51165" stroke-linecap="round" stroke-linejoin="round"/>
<path d="M22.9185 40.4546L22.9182 40.4546C21.0594 40.5355 19.175 40.5148 17.2889 40.4942C16.5617 40.4862 15.8343 40.4783 15.108 40.4761L15.108 40.4765L15.1076 40.4782L15.1073 40.4798L15.107 40.4815L15.1067 40.4831L15.1063 40.4848L15.106 40.4864L15.1057 40.488L15.1054 40.4897L15.105 40.4913L15.1047 40.493L15.1044 40.4946L15.1041 40.4963L15.1037 40.4979L15.1034 40.4996L15.1031 40.5012L15.1028 40.5029L15.1024 40.5045L15.1021 40.5061L15.1018 40.5078L15.1015 40.5094L15.1011 40.5111L15.1008 40.5127L15.1005 40.5144L15.1002 40.516L15.0998 40.5176L15.0995 40.5193L15.0992 40.5209L15.0989 40.5226L15.0985 40.5242L15.0982 40.5259L15.0979 40.5275L15.0976 40.5291L15.0972 40.5308L15.0969 40.5324L15.0966 40.5341L15.0963 40.5357L15.096 40.5373L15.0956 40.539L15.0953 40.5406L15.095 40.5423L15.0947 40.5439L15.0943 40.5455L15.094 40.5472L15.0937 40.5488L15.0934 40.5504L15.093 40.5521L15.0927 40.5537L15.0924 40.5554L15.0921 40.557L15.0917 40.5586L15.0914 40.5603L15.0911 40.5619L15.0908 40.5635L15.0905 40.5652L15.0901 40.5668L15.0898 40.5684L15.0895 40.5701L15.0892 40.5717C14.6903 42.5907 14.2877 44.6089 13.8853 46.6266C12.9467 51.3321 12.0085 56.0356 11.1183 60.7436L11.1181 60.7448C10.7403 62.7281 10.4736 64.7175 10.4027 66.6902L10.4026 66.6913C10.1728 72.8625 11.4008 78.5996 14.4138 83.7771C17.006 88.2208 20.6463 91.4587 24.9342 94.0662L24.941 94.0704L24.941 94.0704C26.9822 95.3379 28.9293 95.9322 31.1329 95.3721C31.2842 95.3285 31.4245 95.3124 31.5097 95.3034C31.5449 95.2997 31.572 95.297 31.594 95.2948C31.6435 95.2899 31.6667 95.2876 31.6951 95.2825L31.7123 95.2794L31.7295 95.2771C46.4629 93.2605 54.341 81.8448 56.7185 70.7288C56.7185 70.7288 56.7185 70.7287 56.7185 70.7287L57.5633 70.9089C58.5907 66.102 59.5211 61.283 60.4519 56.4615C60.8865 54.2107 61.3212 51.9593 61.7659 49.7083L22.9185 40.4546ZM22.9185 40.4546C28.5085 40.2094 33.9923 39.1552 39.3615 37.4029L39.3615 37.4029L39.3684 37.4006C39.4595 37.37 39.5016 37.3674 39.514 37.3678C39.523 37.3706 39.5682 37.3882 39.6667 37.4683C45.2061 42.139 51.3098 45.8141 57.997 48.3842C58.8001 48.7001 59.643 48.977 60.4786 49.2515C60.6345 49.3027 60.7902 49.3539 60.9453 49.4052L22.9185 40.4546ZM39.5181 37.3682C39.518 37.3683 39.5166 37.3683 39.5141 37.3678C39.5169 37.3678 39.5182 37.3681 39.5181 37.3682Z" fill="#BAF0DF" stroke="#001064" stroke-width="1.7276"/>
<path d="M38.3701 59.7363C39.2496 61.0619 42.1029 63.0959 46.4799 60.6274" stroke="#001064" stroke-width="1.7276" stroke-linecap="round"/>
<path d="M20.489 57.6895C21.1251 59.0078 23.478 61.2242 27.8011 59.5437" stroke="#001064" stroke-width="1.7276" stroke-linecap="round"/>
<path d="M31.6381 76.3889C29.7777 76.2387 27.9521 75.6598 26.3521 74.6675C25.9421 74.3946 25.7899 73.9028 26.0193 73.4418C29.5044 66.5785 31.5648 58.9288 31.9995 51.1958C28.3422 52.483 24.2606 52.4891 20.5733 51.1845C20.1078 51.0031 19.8641 50.4559 19.9981 49.9872C20.1798 49.5224 20.7277 49.2789 21.197 49.4127C24.8804 50.765 29.0252 50.5721 32.6141 48.9438C32.9119 48.824 33.2458 48.8509 33.5204 49.0169C33.7951 49.183 33.9627 49.4842 33.9357 49.8177C33.7047 57.9987 31.7011 66.1324 28.1298 73.4684C30.1153 74.4438 32.4887 74.7793 34.6378 74.3294C35.1264 74.225 35.6279 74.5532 35.7324 75.0411C35.8369 75.5291 35.5082 76.03 35.0196 76.1344C33.8916 76.4269 32.7352 76.4774 31.6381 76.3889Z" fill="#001064"/>
<path d="M49.2742 54.2702L38.9863 53.2473C38.4616 53.2049 38.1147 52.7453 38.1571 52.2213C38.1996 51.6972 38.6636 51.3032 39.1844 51.3932L49.4247 52.4122C49.9494 52.4546 50.2963 52.9142 50.2538 53.4382C50.2629 53.9185 49.7989 54.3126 49.2742 54.2702Z" fill="#001064"/>
<path d="M29.0747 81.0723C30.3713 81.9073 33.8633 83.1338 37.4582 81.3591" stroke="#001064" stroke-width="1.7276" stroke-linecap="round"/>
<path d="M57.2117 19.6288L55.8415 15.9889L55.2638 17.3581L52.9179 20.2403L50.5003 20.9965L52.6102 24.2221L53.6735 28.7807L54.9547 27.4658L57.5352 24.6016L60.909 23.6835L57.2117 19.6288Z" fill="white"/>
<path d="M62.7597 23.5489C58.6611 22.5527 56.0684 18.5025 56.7363 14.5053C56.8908 13.969 57.032 13.4317 57.1727 12.901C57.3231 12.3314 56.3901 12.0151 56.1741 12.5731C55.917 13.2335 55.7381 13.9132 55.6254 14.598C55.2255 15.9872 54.701 17.3536 53.8084 18.4934C53.2696 19.185 52.5981 19.7871 51.8213 20.2028C51.5234 20.3581 51.228 20.4807 50.9219 20.5694C50.9036 20.5481 50.8782 20.533 50.8599 20.5117C50.4241 20.1281 49.8913 20.3975 49.7134 20.8064C49.5121 20.8306 49.3107 20.8547 49.1033 20.8717C48.8354 20.8973 48.7094 21.3235 49.0002 21.4318C49.2849 21.533 49.5798 21.5887 49.8712 21.6046C49.8773 21.6116 49.89 21.6192 49.8956 21.6329C52.0883 23.5454 53.2002 26.5372 52.7462 29.4016C52.602 30.3217 53.9331 30.563 54.1617 29.6692C55.1017 26.0232 58.8718 23.956 62.4961 24.8957C63.3696 25.1215 63.6129 23.7798 62.7597 23.5489ZM54.1612 26.4923C53.8507 24.5729 52.987 22.7561 51.6572 21.2931C52.6857 20.8902 53.6333 20.1575 54.3104 19.3973C54.8416 18.8042 55.2645 18.1499 55.6177 17.4506C55.7725 18.4598 56.095 19.449 56.5955 20.3725C57.2409 21.5715 58.1664 22.5873 59.2561 23.3713C57.2331 23.7372 55.4045 24.8578 54.1612 26.4923Z" fill="#001064"/>
<path d="M63.1612 34.2249L62.26 30.6212L59.6072 34.4223L57.1172 36.1153L59.5159 38.6563L60.5973 42.9807L62.7992 38.9093L66.48 37.0725L63.1612 34.2249Z" fill="white"/>
<path d="M68.1962 37.0186C67.3247 36.5948 66.4954 36.227 65.7392 35.6008C65.0014 34.9957 64.381 34.2478 63.9065 33.4187C63.3852 32.5067 63.0509 31.4969 62.912 30.4559C62.8702 30.1356 62.8427 29.8033 62.8411 29.4795C62.8503 29.4472 62.8589 29.4214 62.8619 29.3821C62.8706 29.2704 62.8797 29.1523 62.8822 29.0336C62.9442 28.576 62.9797 28.1164 62.9882 27.6614C63.0018 26.8831 61.7861 26.6969 61.7573 27.5005C61.6429 30.4439 60.3524 35.4432 56.6958 35.5247C56.5508 35.5069 56.4049 35.5022 56.2514 35.5102C56.1787 35.5046 56.106 35.499 56.0338 35.4869C55.718 35.4427 55.5895 35.9017 55.8925 36.0241C56.0664 36.097 56.2352 36.1496 56.4117 36.1896C56.9659 36.4173 57.4942 36.6363 57.9534 37.0614C58.4939 37.5522 58.916 38.1989 59.2039 38.8617C59.887 40.4334 59.8421 42.2198 59.8053 43.9012C59.7957 44.2835 60.1597 44.4767 60.4434 44.4193C60.4689 44.4344 60.5009 44.4501 60.5334 44.4592C60.716 44.5063 60.9422 44.4181 61.0098 44.2318C61.1028 43.9747 61.1449 43.6874 61.18 43.4061C61.2181 43.343 61.2501 43.2728 61.2628 43.1945C61.5925 41.6811 62.3422 40.3254 63.5938 39.3586C64.1947 38.8963 64.8866 38.5468 65.6151 38.3255C66.0915 38.1839 66.5755 38.1155 67.059 38.0537C67.3168 38.1594 67.5761 38.2455 67.8436 38.3123C68.6327 38.5118 68.843 37.3392 68.1962 37.0186ZM62.8615 38.4237C61.9515 39.0999 61.2038 39.9999 60.6935 41.0108C60.5906 40.0187 60.3728 39.0509 59.91 38.1566C59.5336 37.4341 58.9224 36.6539 58.1784 36.1277C59.2802 35.8097 60.2659 35.0138 60.9506 34.0693C61.3674 33.4938 61.7221 32.8607 62.0129 32.1962C62.2052 32.8913 62.4727 33.5592 62.8302 34.1812C63.4624 35.2932 64.3976 36.356 65.4934 37.1471C64.5158 37.4086 63.588 37.8853 62.8615 38.4237Z" fill="#001064"/>
</svg>
