<svg width="24" height="30" viewBox="0 0 24 30" fill="none" xmlns="http://www.w3.org/2000/svg">
<path d="M12.0001 30C13.6501 30 15.0001 28.65 15.0001 27H9.00008C9.00008 28.65 10.3351 30 12.0001 30ZM21.0001 21V13.5C21.0001 8.895 18.5401 5.04 14.2501 4.02V3C14.2501 1.755 13.2451 0.75 12.0001 0.75C10.7551 0.75 9.75008 1.755 9.75008 3V4.02C5.44508 5.04 3.00008 8.88 3.00008 13.5V21L1.06508 22.935C0.120077 23.88 0.780077 25.5 2.11508 25.5H21.8701C23.2051 25.5 23.8801 23.88 22.9351 22.935L21.0001 21Z" fill="#001064"/>
</svg>
