<svg width="322" height="262" viewBox="0 0 322 262" fill="none" xmlns="http://www.w3.org/2000/svg">
<rect x="1.2147" y="1.28444" width="106.112" height="44.9985" rx="3.86771" transform="matrix(0.99961 0.0279396 -0.0278508 0.999612 77.0597 96.9119)" fill="#001064" stroke="#001064" stroke-width="2.5"/>
<rect x="-1.43687" y="1.56077" width="106.465" height="42.1044" rx="2.5" transform="matrix(-0.999144 0.0413642 0.041233 0.99915 167.77 81.6545)" fill="#D3E1FF" stroke="#001064" stroke-width="3"/>
<mask id="path-3-outside-1" maskUnits="userSpaceOnUse" x="49.7969" y="26.875" width="185" height="236" fill="black">
<rect fill="white" x="49.7969" y="26.875" width="185" height="236"/>
<path d="M65.5948 35.3023C73.4228 34.906 81.2335 34.4579 89.0615 33.9926C92.9669 33.7514 96.8722 33.5101 100.795 33.2516L106.661 32.8725L112.528 32.4762L124.244 31.649L135.96 30.7701L159.375 28.9951L171.092 28.1507L174.016 27.9439L174.378 27.9267C174.498 27.9267 174.618 27.9095 174.756 27.9095C175.031 27.8922 175.307 27.875 175.582 27.875C176.132 27.875 176.683 27.8922 177.234 27.9439C179.47 28.1335 181.638 28.7539 183.616 29.7706C184.614 30.2704 185.543 30.8735 186.421 31.5628L186.747 31.8213L187.04 32.0626L187.608 32.5279L188.743 33.4584L193.251 37.2324L202.266 44.7804C208.253 49.8296 214.24 54.9132 220.193 59.9969L222.429 61.9098L222.98 62.3923L223.255 62.6335L223.565 62.9093C223.771 63.0988 223.978 63.2884 224.184 63.4952C224.373 63.702 224.58 63.8915 224.769 64.0983C226.3 65.7527 227.487 67.7172 228.261 69.8368C228.657 70.888 228.932 71.9909 229.122 73.0938C229.173 73.3696 229.208 73.6453 229.242 73.921C229.276 74.1967 229.311 74.4725 229.311 74.7654L229.328 75.179L229.345 75.3858V75.5754L229.363 76.3164L229.5 82.1927C230.24 113.574 230.464 144.955 231.393 176.335C231.616 184.176 231.857 192.017 232.15 199.858L232.58 211.611L233.044 223.364L233.543 235.116L233.681 238.063L233.715 238.804L233.732 239.183V239.58V239.976L233.715 240.372L233.698 240.769C233.698 240.907 233.681 241.027 233.664 241.165C233.509 243.25 232.924 245.318 231.995 247.197C230.119 250.971 226.747 253.969 222.739 255.365C221.741 255.71 220.709 255.968 219.659 256.123C219.401 256.158 219.126 256.192 218.868 256.209C218.61 256.244 218.335 256.244 218.076 256.261L217.87 256.278H217.681L217.32 256.296L216.58 256.33L210.713 256.554L187.229 257.45L175.496 257.898L163.745 258.312C148.089 258.863 132.434 259.311 116.778 259.759L93.2937 260.449L81.5432 260.793L75.6765 260.966L74.197 261C73.9045 261 73.6292 261 73.3368 261L72.4765 260.948C71.3238 260.862 70.1884 260.655 69.0701 260.363C66.8507 259.742 64.7346 258.691 62.9109 257.295C61.0873 255.882 59.5217 254.124 58.3518 252.125C57.1819 250.126 56.4077 247.903 56.0808 245.594L55.9776 244.732C55.9604 244.439 55.9432 244.164 55.926 243.871L55.8572 242.389L55.7368 239.442C55.4099 231.601 55.1174 223.76 54.8421 215.919C54.5497 208.078 54.2744 200.237 54.0163 192.396C53.7583 184.555 53.483 176.715 53.2593 168.874C52.7776 153.175 52.4679 137.476 52.1927 121.794C51.9346 106.095 51.7282 90.4128 51.3841 74.7137L51.2464 68.8373L51.1088 62.961L50.7991 51.1737C50.7647 49.1575 51.126 47.1585 51.8486 45.2801C52.5712 43.419 53.655 41.6785 55.0142 40.2309C56.3733 38.7661 58.0249 37.5771 59.8314 36.7327C61.6378 35.8882 63.5991 35.4057 65.5948 35.3023ZM65.6292 35.8193C63.7023 35.9227 61.8099 36.4052 60.0722 37.2152C58.3174 38.0596 56.7346 39.2142 55.4443 40.6273C54.154 42.0403 53.1217 43.7119 52.4507 45.5214C51.797 47.3136 51.4873 49.2437 51.5561 51.1565C51.7282 55.0683 51.9346 58.9974 52.1411 62.9093L52.4507 68.7856L52.7776 74.662C53.655 90.3266 54.6701 105.991 55.6335 121.656C56.5798 137.32 57.4916 152.985 58.2486 168.667C58.6271 176.508 58.9712 184.349 59.3152 192.172C59.6765 200.013 60.0034 207.854 60.3303 215.695C60.6572 223.536 60.9669 231.377 61.2593 239.218L61.3626 242.165L61.4142 243.612C61.4314 243.819 61.4314 244.009 61.4486 244.215L61.5174 244.819C61.7411 246.404 62.2744 247.955 63.0658 249.351C63.8744 250.747 64.9411 251.987 66.2142 252.97C67.4873 253.969 68.9497 254.71 70.4808 255.141C71.255 255.365 72.0464 255.503 72.855 255.572L73.4572 255.606C73.6636 255.606 73.8701 255.606 74.0593 255.606L75.5045 255.589L81.3712 255.486L93.1217 255.279L116.623 254.883C132.279 254.624 147.952 254.331 163.608 254.159L175.358 254.021L187.109 253.917L210.61 253.728L216.477 253.676H217.216H217.578H217.767H217.939C218.163 253.659 218.386 253.676 218.61 253.642C218.833 253.624 219.057 253.607 219.281 253.59C220.175 253.487 221.053 253.297 221.913 253.021C223.633 252.47 225.233 251.591 226.627 250.419C228.021 249.265 229.173 247.817 230.033 246.214C230.894 244.612 231.427 242.837 231.599 241.01C231.616 240.889 231.633 240.786 231.633 240.665L231.651 240.321L231.668 239.976V239.631V239.287V238.925L231.651 238.184L231.582 235.237L231.272 223.467L230.928 211.697L230.55 199.927C230.292 192.086 230.016 184.245 229.689 176.404C228.468 145.041 226.558 113.712 225.165 82.3651L224.907 76.4887L224.872 75.7477V75.5581L224.855 75.403L224.838 75.0928C224.838 74.886 224.803 74.6792 224.769 74.4725C224.752 74.2657 224.717 74.0589 224.666 73.8521C224.511 73.0249 224.287 72.215 223.995 71.4395C223.702 70.664 223.324 69.9058 222.876 69.1992C222.429 68.4927 221.913 67.8378 221.345 67.2175C221.208 67.0624 221.053 66.9245 220.915 66.7694C220.778 66.6143 220.606 66.4764 220.451 66.3386L220.21 66.1318L219.935 65.8905L219.367 65.4252L217.13 63.5296C211.143 58.4632 205.19 53.3795 199.238 48.2614L190.343 40.5756L185.904 36.7154L184.803 35.7504L184.304 35.2851L184.029 35.0438L183.788 34.837C183.135 34.3028 182.446 33.8203 181.689 33.4067C180.21 32.5968 178.558 32.0626 176.872 31.8558C176.442 31.8041 176.029 31.7696 175.599 31.7696C175.393 31.7696 175.169 31.7696 174.963 31.7696C174.859 31.7696 174.722 31.7696 174.601 31.7868L174.24 31.8041L171.298 31.9075L159.547 32.2866L136.064 32.9931L124.313 33.355L112.563 33.7514L106.696 33.9582L100.829 34.1822C96.9238 34.3373 93.0013 34.4924 89.0959 34.6647C81.2679 35.0266 73.44 35.4057 65.6292 35.8193Z"/>
</mask>
<path d="M65.5948 35.3023C73.4228 34.906 81.2335 34.4579 89.0615 33.9926C92.9669 33.7514 96.8722 33.5101 100.795 33.2516L106.661 32.8725L112.528 32.4762L124.244 31.649L135.96 30.7701L159.375 28.9951L171.092 28.1507L174.016 27.9439L174.378 27.9267C174.498 27.9267 174.618 27.9095 174.756 27.9095C175.031 27.8922 175.307 27.875 175.582 27.875C176.132 27.875 176.683 27.8922 177.234 27.9439C179.47 28.1335 181.638 28.7539 183.616 29.7706C184.614 30.2704 185.543 30.8735 186.421 31.5628L186.747 31.8213L187.04 32.0626L187.608 32.5279L188.743 33.4584L193.251 37.2324L202.266 44.7804C208.253 49.8296 214.24 54.9132 220.193 59.9969L222.429 61.9098L222.98 62.3923L223.255 62.6335L223.565 62.9093C223.771 63.0988 223.978 63.2884 224.184 63.4952C224.373 63.702 224.58 63.8915 224.769 64.0983C226.3 65.7527 227.487 67.7172 228.261 69.8368C228.657 70.888 228.932 71.9909 229.122 73.0938C229.173 73.3696 229.208 73.6453 229.242 73.921C229.276 74.1967 229.311 74.4725 229.311 74.7654L229.328 75.179L229.345 75.3858V75.5754L229.363 76.3164L229.5 82.1927C230.24 113.574 230.464 144.955 231.393 176.335C231.616 184.176 231.857 192.017 232.15 199.858L232.58 211.611L233.044 223.364L233.543 235.116L233.681 238.063L233.715 238.804L233.732 239.183V239.58V239.976L233.715 240.372L233.698 240.769C233.698 240.907 233.681 241.027 233.664 241.165C233.509 243.25 232.924 245.318 231.995 247.197C230.119 250.971 226.747 253.969 222.739 255.365C221.741 255.71 220.709 255.968 219.659 256.123C219.401 256.158 219.126 256.192 218.868 256.209C218.61 256.244 218.335 256.244 218.076 256.261L217.87 256.278H217.681L217.32 256.296L216.58 256.33L210.713 256.554L187.229 257.45L175.496 257.898L163.745 258.312C148.089 258.863 132.434 259.311 116.778 259.759L93.2937 260.449L81.5432 260.793L75.6765 260.966L74.197 261C73.9045 261 73.6292 261 73.3368 261L72.4765 260.948C71.3238 260.862 70.1884 260.655 69.0701 260.363C66.8507 259.742 64.7346 258.691 62.9109 257.295C61.0873 255.882 59.5217 254.124 58.3518 252.125C57.1819 250.126 56.4077 247.903 56.0808 245.594L55.9776 244.732C55.9604 244.439 55.9432 244.164 55.926 243.871L55.8572 242.389L55.7368 239.442C55.4099 231.601 55.1174 223.76 54.8421 215.919C54.5497 208.078 54.2744 200.237 54.0163 192.396C53.7583 184.555 53.483 176.715 53.2593 168.874C52.7776 153.175 52.4679 137.476 52.1927 121.794C51.9346 106.095 51.7282 90.4128 51.3841 74.7137L51.2464 68.8373L51.1088 62.961L50.7991 51.1737C50.7647 49.1575 51.126 47.1585 51.8486 45.2801C52.5712 43.419 53.655 41.6785 55.0142 40.2309C56.3733 38.7661 58.0249 37.5771 59.8314 36.7327C61.6378 35.8882 63.5991 35.4057 65.5948 35.3023ZM65.6292 35.8193C63.7023 35.9227 61.8099 36.4052 60.0722 37.2152C58.3174 38.0596 56.7346 39.2142 55.4443 40.6273C54.154 42.0403 53.1217 43.7119 52.4507 45.5214C51.797 47.3136 51.4873 49.2437 51.5561 51.1565C51.7282 55.0683 51.9346 58.9974 52.1411 62.9093L52.4507 68.7856L52.7776 74.662C53.655 90.3266 54.6701 105.991 55.6335 121.656C56.5798 137.32 57.4916 152.985 58.2486 168.667C58.6271 176.508 58.9712 184.349 59.3152 192.172C59.6765 200.013 60.0034 207.854 60.3303 215.695C60.6572 223.536 60.9669 231.377 61.2593 239.218L61.3626 242.165L61.4142 243.612C61.4314 243.819 61.4314 244.009 61.4486 244.215L61.5174 244.819C61.7411 246.404 62.2744 247.955 63.0658 249.351C63.8744 250.747 64.9411 251.987 66.2142 252.97C67.4873 253.969 68.9497 254.71 70.4808 255.141C71.255 255.365 72.0464 255.503 72.855 255.572L73.4572 255.606C73.6636 255.606 73.8701 255.606 74.0593 255.606L75.5045 255.589L81.3712 255.486L93.1217 255.279L116.623 254.883C132.279 254.624 147.952 254.331 163.608 254.159L175.358 254.021L187.109 253.917L210.61 253.728L216.477 253.676H217.216H217.578H217.767H217.939C218.163 253.659 218.386 253.676 218.61 253.642C218.833 253.624 219.057 253.607 219.281 253.59C220.175 253.487 221.053 253.297 221.913 253.021C223.633 252.47 225.233 251.591 226.627 250.419C228.021 249.265 229.173 247.817 230.033 246.214C230.894 244.612 231.427 242.837 231.599 241.01C231.616 240.889 231.633 240.786 231.633 240.665L231.651 240.321L231.668 239.976V239.631V239.287V238.925L231.651 238.184L231.582 235.237L231.272 223.467L230.928 211.697L230.55 199.927C230.292 192.086 230.016 184.245 229.689 176.404C228.468 145.041 226.558 113.712 225.165 82.3651L224.907 76.4887L224.872 75.7477V75.5581L224.855 75.403L224.838 75.0928C224.838 74.886 224.803 74.6792 224.769 74.4725C224.752 74.2657 224.717 74.0589 224.666 73.8521C224.511 73.0249 224.287 72.215 223.995 71.4395C223.702 70.664 223.324 69.9058 222.876 69.1992C222.429 68.4927 221.913 67.8378 221.345 67.2175C221.208 67.0624 221.053 66.9245 220.915 66.7694C220.778 66.6143 220.606 66.4764 220.451 66.3386L220.21 66.1318L219.935 65.8905L219.367 65.4252L217.13 63.5296C211.143 58.4632 205.19 53.3795 199.238 48.2614L190.343 40.5756L185.904 36.7154L184.803 35.7504L184.304 35.2851L184.029 35.0438L183.788 34.837C183.135 34.3028 182.446 33.8203 181.689 33.4067C180.21 32.5968 178.558 32.0626 176.872 31.8558C176.442 31.8041 176.029 31.7696 175.599 31.7696C175.393 31.7696 175.169 31.7696 174.963 31.7696C174.859 31.7696 174.722 31.7696 174.601 31.7868L174.24 31.8041L171.298 31.9075L159.547 32.2866L136.064 32.9931L124.313 33.355L112.563 33.7514L106.696 33.9582L100.829 34.1822C96.9238 34.3373 93.0013 34.4924 89.0959 34.6647C81.2679 35.0266 73.44 35.4057 65.6292 35.8193Z" fill="#001064"/>
<path d="M65.5948 35.3023C73.4228 34.906 81.2335 34.4579 89.0615 33.9926C92.9669 33.7514 96.8722 33.5101 100.795 33.2516L106.661 32.8725L112.528 32.4762L124.244 31.649L135.96 30.7701L159.375 28.9951L171.092 28.1507L174.016 27.9439L174.378 27.9267C174.498 27.9267 174.618 27.9095 174.756 27.9095C175.031 27.8922 175.307 27.875 175.582 27.875C176.132 27.875 176.683 27.8922 177.234 27.9439C179.47 28.1335 181.638 28.7539 183.616 29.7706C184.614 30.2704 185.543 30.8735 186.421 31.5628L186.747 31.8213L187.04 32.0626L187.608 32.5279L188.743 33.4584L193.251 37.2324L202.266 44.7804C208.253 49.8296 214.24 54.9132 220.193 59.9969L222.429 61.9098L222.98 62.3923L223.255 62.6335L223.565 62.9093C223.771 63.0988 223.978 63.2884 224.184 63.4952C224.373 63.702 224.58 63.8915 224.769 64.0983C226.3 65.7527 227.487 67.7172 228.261 69.8368C228.657 70.888 228.932 71.9909 229.122 73.0938C229.173 73.3696 229.208 73.6453 229.242 73.921C229.276 74.1967 229.311 74.4725 229.311 74.7654L229.328 75.179L229.345 75.3858V75.5754L229.363 76.3164L229.5 82.1927C230.24 113.574 230.464 144.955 231.393 176.335C231.616 184.176 231.857 192.017 232.15 199.858L232.58 211.611L233.044 223.364L233.543 235.116L233.681 238.063L233.715 238.804L233.732 239.183V239.58V239.976L233.715 240.372L233.698 240.769C233.698 240.907 233.681 241.027 233.664 241.165C233.509 243.25 232.924 245.318 231.995 247.197C230.119 250.971 226.747 253.969 222.739 255.365C221.741 255.71 220.709 255.968 219.659 256.123C219.401 256.158 219.126 256.192 218.868 256.209C218.61 256.244 218.335 256.244 218.076 256.261L217.87 256.278H217.681L217.32 256.296L216.58 256.33L210.713 256.554L187.229 257.45L175.496 257.898L163.745 258.312C148.089 258.863 132.434 259.311 116.778 259.759L93.2937 260.449L81.5432 260.793L75.6765 260.966L74.197 261C73.9045 261 73.6292 261 73.3368 261L72.4765 260.948C71.3238 260.862 70.1884 260.655 69.0701 260.363C66.8507 259.742 64.7346 258.691 62.9109 257.295C61.0873 255.882 59.5217 254.124 58.3518 252.125C57.1819 250.126 56.4077 247.903 56.0808 245.594L55.9776 244.732C55.9604 244.439 55.9432 244.164 55.926 243.871L55.8572 242.389L55.7368 239.442C55.4099 231.601 55.1174 223.76 54.8421 215.919C54.5497 208.078 54.2744 200.237 54.0163 192.396C53.7583 184.555 53.483 176.715 53.2593 168.874C52.7776 153.175 52.4679 137.476 52.1927 121.794C51.9346 106.095 51.7282 90.4128 51.3841 74.7137L51.2464 68.8373L51.1088 62.961L50.7991 51.1737C50.7647 49.1575 51.126 47.1585 51.8486 45.2801C52.5712 43.419 53.655 41.6785 55.0142 40.2309C56.3733 38.7661 58.0249 37.5771 59.8314 36.7327C61.6378 35.8882 63.5991 35.4057 65.5948 35.3023ZM65.6292 35.8193C63.7023 35.9227 61.8099 36.4052 60.0722 37.2152C58.3174 38.0596 56.7346 39.2142 55.4443 40.6273C54.154 42.0403 53.1217 43.7119 52.4507 45.5214C51.797 47.3136 51.4873 49.2437 51.5561 51.1565C51.7282 55.0683 51.9346 58.9974 52.1411 62.9093L52.4507 68.7856L52.7776 74.662C53.655 90.3266 54.6701 105.991 55.6335 121.656C56.5798 137.32 57.4916 152.985 58.2486 168.667C58.6271 176.508 58.9712 184.349 59.3152 192.172C59.6765 200.013 60.0034 207.854 60.3303 215.695C60.6572 223.536 60.9669 231.377 61.2593 239.218L61.3626 242.165L61.4142 243.612C61.4314 243.819 61.4314 244.009 61.4486 244.215L61.5174 244.819C61.7411 246.404 62.2744 247.955 63.0658 249.351C63.8744 250.747 64.9411 251.987 66.2142 252.97C67.4873 253.969 68.9497 254.71 70.4808 255.141C71.255 255.365 72.0464 255.503 72.855 255.572L73.4572 255.606C73.6636 255.606 73.8701 255.606 74.0593 255.606L75.5045 255.589L81.3712 255.486L93.1217 255.279L116.623 254.883C132.279 254.624 147.952 254.331 163.608 254.159L175.358 254.021L187.109 253.917L210.61 253.728L216.477 253.676H217.216H217.578H217.767H217.939C218.163 253.659 218.386 253.676 218.61 253.642C218.833 253.624 219.057 253.607 219.281 253.59C220.175 253.487 221.053 253.297 221.913 253.021C223.633 252.47 225.233 251.591 226.627 250.419C228.021 249.265 229.173 247.817 230.033 246.214C230.894 244.612 231.427 242.837 231.599 241.01C231.616 240.889 231.633 240.786 231.633 240.665L231.651 240.321L231.668 239.976V239.631V239.287V238.925L231.651 238.184L231.582 235.237L231.272 223.467L230.928 211.697L230.55 199.927C230.292 192.086 230.016 184.245 229.689 176.404C228.468 145.041 226.558 113.712 225.165 82.3651L224.907 76.4887L224.872 75.7477V75.5581L224.855 75.403L224.838 75.0928C224.838 74.886 224.803 74.6792 224.769 74.4725C224.752 74.2657 224.717 74.0589 224.666 73.8521C224.511 73.0249 224.287 72.215 223.995 71.4395C223.702 70.664 223.324 69.9058 222.876 69.1992C222.429 68.4927 221.913 67.8378 221.345 67.2175C221.208 67.0624 221.053 66.9245 220.915 66.7694C220.778 66.6143 220.606 66.4764 220.451 66.3386L220.21 66.1318L219.935 65.8905L219.367 65.4252L217.13 63.5296C211.143 58.4632 205.19 53.3795 199.238 48.2614L190.343 40.5756L185.904 36.7154L184.803 35.7504L184.304 35.2851L184.029 35.0438L183.788 34.837C183.135 34.3028 182.446 33.8203 181.689 33.4067C180.21 32.5968 178.558 32.0626 176.872 31.8558C176.442 31.8041 176.029 31.7696 175.599 31.7696C175.393 31.7696 175.169 31.7696 174.963 31.7696C174.859 31.7696 174.722 31.7696 174.601 31.7868L174.24 31.8041L171.298 31.9075L159.547 32.2866L136.064 32.9931L124.313 33.355L112.563 33.7514L106.696 33.9582L100.829 34.1822C96.9238 34.3373 93.0013 34.4924 89.0959 34.6647C81.2679 35.0266 73.44 35.4057 65.6292 35.8193Z" stroke="#001064" stroke-width="2" mask="url(#path-3-outside-1)"/>
<path d="M174.757 29.8555C175.273 31.5787 175.703 33.302 176.133 35.0253C176.563 36.7486 176.959 38.4891 177.337 40.2296C178.094 43.6934 178.783 47.1744 179.436 50.6727L179.901 53.2921C180.056 54.1709 180.193 55.0326 180.348 55.9114C180.486 56.7903 180.641 57.6519 180.778 58.5308L180.882 59.1857L180.916 59.3408L180.95 59.4786L181.002 59.7543C181.036 59.9439 181.071 60.1162 181.122 60.3058L181.191 60.5815C181.208 60.6677 181.243 60.7538 181.26 60.8572C182.051 63.7351 183.824 66.2856 186.18 68.0605C186.765 68.5086 187.402 68.905 188.056 69.2496C188.71 69.5943 189.38 69.8872 190.086 70.1285C191.479 70.5938 192.959 70.8178 194.456 70.835L195.024 70.8178L195.677 70.7833L197.002 70.7316C197.879 70.6972 198.774 70.6627 199.651 70.6282L202.301 70.5421L204.95 70.4387C208.494 70.3697 212.021 70.3353 215.583 70.4042C217.355 70.4387 219.127 70.4731 220.916 70.5593C222.688 70.6282 224.477 70.7316 226.249 70.8695C224.512 71.2831 222.757 71.645 221.019 71.9896C219.282 72.3343 217.527 72.6445 215.772 72.9374C212.279 73.5233 208.77 74.0403 205.26 74.4884L202.628 74.833L199.996 75.1432C199.118 75.2466 198.241 75.35 197.363 75.4362L196.039 75.574L195.385 75.643L194.628 75.6947C192.598 75.7981 190.516 75.5568 188.555 74.9537C187.574 74.6435 186.611 74.2644 185.699 73.7991C184.787 73.3338 183.91 72.7823 183.084 72.162C179.798 69.6804 177.406 66.0098 176.529 62.0118C176.494 61.8912 176.477 61.7706 176.443 61.6327L176.374 61.2536C176.322 60.9951 176.288 60.7538 176.254 60.4954L176.202 60.1162L176.185 59.9267L176.168 59.7543L176.099 59.0995C176.013 58.2206 175.944 57.3418 175.858 56.4457C175.789 55.5668 175.703 54.6879 175.634 53.7918L175.428 51.138C175.17 47.6052 174.963 44.0553 174.843 40.5053C174.791 38.7304 174.74 36.9554 174.722 35.1632C174.705 33.4227 174.688 31.6304 174.757 29.8555Z" fill="#001064"/>
<rect x="1.25726" y="1.24145" width="109.015" height="50.1872" rx="3.86771" transform="matrix(0.999977 -0.00682635 0.00582989 0.999983 83.3561 180.845)" fill="#001064" stroke="#001064" stroke-width="2.5"/>
<rect x="1.43335" y="1.57438" width="108.535" height="49.679" rx="3.61771" transform="matrix(0.998723 0.0505194 -0.0431596 0.999068 94.6342 166.902)" fill="#FEF6E7" stroke="#001064" stroke-width="3"/>
<path d="M175.309 173.688C175.309 176.316 174.591 178.893 174.591 181.485C174.591 182.946 174.352 187.325 174.352 185.864" stroke="#001064" stroke-width="2" stroke-linecap="round" stroke-linejoin="round"/>
<path d="M173.362 193.832C173.362 194.778 173.439 195.75 173.351 196.694C173.294 197.312 172.991 197.94 172.991 198.555C172.991 199.392 173.075 200.248 172.847 201.064C172.689 201.63 172.945 205.141 172.436 205.344" stroke="#001064" stroke-width="2" stroke-linecap="round" stroke-linejoin="round"/>
<path d="M172.434 211.098C172.383 213.14 171.955 215.122 171.955 217.169C171.955 218.663 171.477 220.134 171.477 221.65" stroke="#001064" stroke-width="2" stroke-linecap="round" stroke-linejoin="round"/>
<path d="M208.83 162.657L196.379 172.25L194.463 173.689L193.984 176.567L195.9 179.444L199.252 179.924L203.562 180.883V183.761L204.041 186.159L206.435 188.078L205.956 190.956L206.435 194.313L208.83 194.793L211.703 194.313L215.055 191.915L215.534 193.354L216.971 195.273H221.281L225.112 193.834L226.548 191.915L228.464 191.436L250.014 194.313L261.028 196.232L269.169 196.712H279.704L299.818 191.915L307.959 192.875L314.184 191.915L316.578 189.517L318.494 181.843V168.413L316.578 164.096L314.663 162.657L300.775 158.82L288.324 154.983L258.634 142.512H255.281L247.14 143.951L228.943 149.706L217.929 154.983L208.83 162.657Z" fill="white"/>
<mask id="path-11-outside-2" maskUnits="userSpaceOnUse" x="171.341" y="133.476" width="151.517" height="72.1742" fill="black">
<rect fill="white" x="171.341" y="133.476" width="151.517" height="72.1742"/>
<path d="M319.118 170.75C318.974 168.121 318.576 165.035 317.161 162.735C315.674 160.429 313.853 160.348 311.24 160.127C305.584 159.576 300.056 158.382 294.661 156.472C294.449 156.381 294.238 156.291 294.092 156.279C297.099 155.297 300.173 154.394 303.18 153.413C305.733 152.612 308.661 151.696 311.093 150.594C315.649 148.581 312.917 144.571 309.045 146.278C307.453 146.943 305.717 147.596 304.065 148.11C300.381 149.325 296.63 150.461 292.873 151.67C290.846 152.298 288.819 152.926 286.798 153.482C283.054 151.929 279.389 150.311 275.712 148.838C270.976 146.911 266.307 145.063 261.565 143.208C258.735 142.097 256.981 141.222 254.089 141.704C242.31 143.542 229.974 147.659 219.682 153.547C210.926 158.548 203.519 164.899 196.015 171.532C194.472 172.492 193.533 174.084 193.472 175.678C193.381 175.888 193.363 176.104 193.496 176.261C193.562 178.083 194.668 179.703 196.96 180.26L197.033 180.267C194.183 181.116 191.406 181.971 188.629 182.826C185.701 183.742 182.64 184.5 179.76 185.71C178.314 186.387 173.587 190.421 173.587 190.421C173.587 190.421 180.169 190.396 181.73 190.092C190.054 188.47 193.225 186.413 198.924 184.714C200.346 184.326 201.774 183.865 203.123 183.471C202.705 184.961 203.013 186.514 204.682 187.527C205.099 187.78 205.516 188.033 205.94 188.215C204.584 190.426 204.08 193.799 206.741 195.187C209.819 196.828 212.633 194.667 214.794 192.452C214.581 194.105 215.555 195.568 217.781 196.047C221.222 196.847 225.3 195.302 227.231 192.341C232.222 192.981 237.218 193.549 242.208 194.189C250.453 195.249 258.607 197.392 266.918 197.659C278.291 198.039 289.549 195.43 300.572 193.019C304.952 193.099 313.48 195.128 316.41 190.725C317.839 188.52 318.113 185.272 318.471 182.759C319.168 178.821 319.364 174.768 319.118 170.75ZM196.927 172.845L197.006 172.779C197.006 172.779 197.079 172.785 197.085 172.713C198.828 171.116 200.565 169.591 202.374 168.073C203.34 171.352 198.19 176.949 195.021 175.518C195.1 174.58 195.699 173.54 196.927 172.845ZM195.455 177.299C200.004 177.974 205.47 171.241 203.56 167.01C212.595 159.562 222.077 152.878 233.361 149.108C239.901 146.972 246.508 144.915 253.278 143.525C256.775 142.803 259.012 144.01 262.339 145.308C267.298 147.181 272.173 149.192 277.12 151.21C279.594 152.218 282.062 153.299 284.542 154.235C275.763 156.909 266.911 159.576 258.066 162.171C255.368 162.961 252.591 163.816 249.893 164.605C246.124 164.214 242.392 163.39 238.823 162.361C237.965 162.143 237.589 162.257 236.827 162.628C234.171 163.784 231.454 164.79 228.738 165.796C225.192 167.095 218.949 168.311 210.296 172.958C206.702 174.834 203.464 177.685 199.435 178.653C197.638 179.155 196.163 178.449 195.455 177.299ZM259.34 167.875C257.646 168.023 255.958 168.098 254.331 168.324C255.753 167.935 257.181 167.474 258.602 167.086C258.808 167.249 259.08 167.49 259.34 167.875ZM225.545 176.791C228.394 175.942 231.316 175.099 234.166 174.249C236.713 173.52 239.339 172.725 241.886 171.995C238.988 173.422 236.21 175.149 233.657 176.823C230.953 176.812 228.255 176.729 225.545 176.791ZM220.763 170.209C225.639 168.732 230.401 166.881 235.09 165.025C236.149 164.606 237.207 164.187 238.272 163.695C237.74 163.941 238.387 164.068 239.107 164.202C235.18 165.687 231.398 168.056 228.227 170.986C223.581 172.337 218.928 173.76 214.282 175.112C215.504 173.616 216.86 172.277 218.137 171.004C219.038 170.717 219.934 170.502 220.763 170.209ZM242.192 164.899C243.559 165.16 244.926 165.421 246.293 165.682C241.574 167.027 236.921 168.45 232.202 169.795C235.24 167.581 238.677 165.837 242.192 164.899ZM247.724 171.253C251.584 169.69 256.266 169.65 260.386 169.344C261.033 170.344 261.613 171.265 261.879 172.45C254.116 176.082 245.435 176.728 236.657 176.786C240.203 174.615 243.936 172.823 247.724 171.253ZM207.5 176.646C209.581 175.368 211.596 174.012 213.672 172.807C214.059 172.549 214.44 172.363 214.821 172.178C213.702 173.318 212.715 174.616 211.729 175.913C209.78 176.475 207.905 177.043 205.957 177.605C206.495 177.288 206.961 176.964 207.5 176.646ZM205.301 182.783C207.4 182.161 209.572 181.545 211.678 180.851C213.39 181.359 214.847 182.282 214.32 184.199C213.787 186.189 209.951 186.592 208.275 187.395C207.356 187.026 206.509 186.664 205.668 186.229C204.132 185.373 204.472 183.948 205.301 182.783ZM208.877 194.132C205.731 194.156 206.326 190.573 207.494 188.855C209.69 189.695 212.133 190.192 214.517 190.539C212.985 192.226 211.139 194.178 208.877 194.132ZM219.505 194.667C218.556 194.659 217.545 194.501 216.79 193.929C215.689 193.109 216.754 191.745 217.329 190.995C218.049 191.128 218.848 191.196 219.495 191.323C221.442 191.633 223.469 191.877 225.417 192.187C223.964 193.809 221.774 194.641 219.505 194.667ZM297.354 192.166C291.026 193.52 284.704 194.802 278.28 195.567C267.644 196.848 258.009 194.943 247.617 193.338C239.826 192.098 231.993 191.362 224.262 190.273C220.07 189.7 215.128 189.355 210.773 188.115C213.03 187.361 215.728 186.571 216.002 184.196C216.251 182.11 215.326 180.941 213.929 180.169C216.028 179.547 218.127 178.925 220.227 178.303C221.255 178.245 222.283 178.187 223.384 178.134C223.596 178.225 223.814 178.243 224.044 178.117C227.413 178.039 230.777 178.033 234.14 178.026C234.285 178.039 234.43 178.051 234.582 177.991C243.208 177.994 251.852 177.78 260.141 174.847C261.194 174.5 262.186 174.002 263.179 173.505C263.409 173.379 263.572 173.175 263.584 173.031C263.596 172.886 263.602 172.814 263.615 172.67C263.307 170.245 261.784 168.372 260.417 166.367C270.914 163.258 281.339 160.142 291.769 156.954C295.174 158.187 298.592 159.275 302.106 160.081C302.574 167.534 302.081 175.123 301.382 182.55C301.23 184.354 301.005 186.151 300.702 188.015C300.241 190.883 300.258 191.539 297.354 192.166ZM317.098 181.698C316.722 184.428 316.574 189.648 313.809 191.231C310.892 192.874 305.225 191.596 302.013 191.542C301.868 191.53 301.722 191.517 301.65 191.511C303.031 186.395 303.276 180.893 303.569 175.685C303.843 170.693 304.051 165.624 303.818 160.589C306.189 161.081 308.638 161.506 311.173 161.793C312.915 161.94 314.458 161.852 315.649 163.334C316.779 164.665 317.045 166.722 317.34 168.419C317.998 172.762 317.608 177.381 317.098 181.698Z"/>
</mask>
<path d="M319.118 170.75C318.974 168.121 318.576 165.035 317.161 162.735C315.674 160.429 313.853 160.348 311.24 160.127C305.584 159.576 300.056 158.382 294.661 156.472C294.449 156.381 294.238 156.291 294.092 156.279C297.099 155.297 300.173 154.394 303.18 153.413C305.733 152.612 308.661 151.696 311.093 150.594C315.649 148.581 312.917 144.571 309.045 146.278C307.453 146.943 305.717 147.596 304.065 148.11C300.381 149.325 296.63 150.461 292.873 151.67C290.846 152.298 288.819 152.926 286.798 153.482C283.054 151.929 279.389 150.311 275.712 148.838C270.976 146.911 266.307 145.063 261.565 143.208C258.735 142.097 256.981 141.222 254.089 141.704C242.31 143.542 229.974 147.659 219.682 153.547C210.926 158.548 203.519 164.899 196.015 171.532C194.472 172.492 193.533 174.084 193.472 175.678C193.381 175.888 193.363 176.104 193.496 176.261C193.562 178.083 194.668 179.703 196.96 180.26L197.033 180.267C194.183 181.116 191.406 181.971 188.629 182.826C185.701 183.742 182.64 184.5 179.76 185.71C178.314 186.387 173.587 190.421 173.587 190.421C173.587 190.421 180.169 190.396 181.73 190.092C190.054 188.47 193.225 186.413 198.924 184.714C200.346 184.326 201.774 183.865 203.123 183.471C202.705 184.961 203.013 186.514 204.682 187.527C205.099 187.78 205.516 188.033 205.94 188.215C204.584 190.426 204.08 193.799 206.741 195.187C209.819 196.828 212.633 194.667 214.794 192.452C214.581 194.105 215.555 195.568 217.781 196.047C221.222 196.847 225.3 195.302 227.231 192.341C232.222 192.981 237.218 193.549 242.208 194.189C250.453 195.249 258.607 197.392 266.918 197.659C278.291 198.039 289.549 195.43 300.572 193.019C304.952 193.099 313.48 195.128 316.41 190.725C317.839 188.52 318.113 185.272 318.471 182.759C319.168 178.821 319.364 174.768 319.118 170.75ZM196.927 172.845L197.006 172.779C197.006 172.779 197.079 172.785 197.085 172.713C198.828 171.116 200.565 169.591 202.374 168.073C203.34 171.352 198.19 176.949 195.021 175.518C195.1 174.58 195.699 173.54 196.927 172.845ZM195.455 177.299C200.004 177.974 205.47 171.241 203.56 167.01C212.595 159.562 222.077 152.878 233.361 149.108C239.901 146.972 246.508 144.915 253.278 143.525C256.775 142.803 259.012 144.01 262.339 145.308C267.298 147.181 272.173 149.192 277.12 151.21C279.594 152.218 282.062 153.299 284.542 154.235C275.763 156.909 266.911 159.576 258.066 162.171C255.368 162.961 252.591 163.816 249.893 164.605C246.124 164.214 242.392 163.39 238.823 162.361C237.965 162.143 237.589 162.257 236.827 162.628C234.171 163.784 231.454 164.79 228.738 165.796C225.192 167.095 218.949 168.311 210.296 172.958C206.702 174.834 203.464 177.685 199.435 178.653C197.638 179.155 196.163 178.449 195.455 177.299ZM259.34 167.875C257.646 168.023 255.958 168.098 254.331 168.324C255.753 167.935 257.181 167.474 258.602 167.086C258.808 167.249 259.08 167.49 259.34 167.875ZM225.545 176.791C228.394 175.942 231.316 175.099 234.166 174.249C236.713 173.52 239.339 172.725 241.886 171.995C238.988 173.422 236.21 175.149 233.657 176.823C230.953 176.812 228.255 176.729 225.545 176.791ZM220.763 170.209C225.639 168.732 230.401 166.881 235.09 165.025C236.149 164.606 237.207 164.187 238.272 163.695C237.74 163.941 238.387 164.068 239.107 164.202C235.18 165.687 231.398 168.056 228.227 170.986C223.581 172.337 218.928 173.76 214.282 175.112C215.504 173.616 216.86 172.277 218.137 171.004C219.038 170.717 219.934 170.502 220.763 170.209ZM242.192 164.899C243.559 165.16 244.926 165.421 246.293 165.682C241.574 167.027 236.921 168.45 232.202 169.795C235.24 167.581 238.677 165.837 242.192 164.899ZM247.724 171.253C251.584 169.69 256.266 169.65 260.386 169.344C261.033 170.344 261.613 171.265 261.879 172.45C254.116 176.082 245.435 176.728 236.657 176.786C240.203 174.615 243.936 172.823 247.724 171.253ZM207.5 176.646C209.581 175.368 211.596 174.012 213.672 172.807C214.059 172.549 214.44 172.363 214.821 172.178C213.702 173.318 212.715 174.616 211.729 175.913C209.78 176.475 207.905 177.043 205.957 177.605C206.495 177.288 206.961 176.964 207.5 176.646ZM205.301 182.783C207.4 182.161 209.572 181.545 211.678 180.851C213.39 181.359 214.847 182.282 214.32 184.199C213.787 186.189 209.951 186.592 208.275 187.395C207.356 187.026 206.509 186.664 205.668 186.229C204.132 185.373 204.472 183.948 205.301 182.783ZM208.877 194.132C205.731 194.156 206.326 190.573 207.494 188.855C209.69 189.695 212.133 190.192 214.517 190.539C212.985 192.226 211.139 194.178 208.877 194.132ZM219.505 194.667C218.556 194.659 217.545 194.501 216.79 193.929C215.689 193.109 216.754 191.745 217.329 190.995C218.049 191.128 218.848 191.196 219.495 191.323C221.442 191.633 223.469 191.877 225.417 192.187C223.964 193.809 221.774 194.641 219.505 194.667ZM297.354 192.166C291.026 193.52 284.704 194.802 278.28 195.567C267.644 196.848 258.009 194.943 247.617 193.338C239.826 192.098 231.993 191.362 224.262 190.273C220.07 189.7 215.128 189.355 210.773 188.115C213.03 187.361 215.728 186.571 216.002 184.196C216.251 182.11 215.326 180.941 213.929 180.169C216.028 179.547 218.127 178.925 220.227 178.303C221.255 178.245 222.283 178.187 223.384 178.134C223.596 178.225 223.814 178.243 224.044 178.117C227.413 178.039 230.777 178.033 234.14 178.026C234.285 178.039 234.43 178.051 234.582 177.991C243.208 177.994 251.852 177.78 260.141 174.847C261.194 174.5 262.186 174.002 263.179 173.505C263.409 173.379 263.572 173.175 263.584 173.031C263.596 172.886 263.602 172.814 263.615 172.67C263.307 170.245 261.784 168.372 260.417 166.367C270.914 163.258 281.339 160.142 291.769 156.954C295.174 158.187 298.592 159.275 302.106 160.081C302.574 167.534 302.081 175.123 301.382 182.55C301.23 184.354 301.005 186.151 300.702 188.015C300.241 190.883 300.258 191.539 297.354 192.166ZM317.098 181.698C316.722 184.428 316.574 189.648 313.809 191.231C310.892 192.874 305.225 191.596 302.013 191.542C301.868 191.53 301.722 191.517 301.65 191.511C303.031 186.395 303.276 180.893 303.569 175.685C303.843 170.693 304.051 165.624 303.818 160.589C306.189 161.081 308.638 161.506 311.173 161.793C312.915 161.94 314.458 161.852 315.649 163.334C316.779 164.665 317.045 166.722 317.34 168.419C317.998 172.762 317.608 177.381 317.098 181.698Z" fill="#001064"/>
<path d="M319.118 170.75C318.974 168.121 318.576 165.035 317.161 162.735C315.674 160.429 313.853 160.348 311.24 160.127C305.584 159.576 300.056 158.382 294.661 156.472C294.449 156.381 294.238 156.291 294.092 156.279C297.099 155.297 300.173 154.394 303.18 153.413C305.733 152.612 308.661 151.696 311.093 150.594C315.649 148.581 312.917 144.571 309.045 146.278C307.453 146.943 305.717 147.596 304.065 148.11C300.381 149.325 296.63 150.461 292.873 151.67C290.846 152.298 288.819 152.926 286.798 153.482C283.054 151.929 279.389 150.311 275.712 148.838C270.976 146.911 266.307 145.063 261.565 143.208C258.735 142.097 256.981 141.222 254.089 141.704C242.31 143.542 229.974 147.659 219.682 153.547C210.926 158.548 203.519 164.899 196.015 171.532C194.472 172.492 193.533 174.084 193.472 175.678C193.381 175.888 193.363 176.104 193.496 176.261C193.562 178.083 194.668 179.703 196.96 180.26L197.033 180.267C194.183 181.116 191.406 181.971 188.629 182.826C185.701 183.742 182.64 184.5 179.76 185.71C178.314 186.387 173.587 190.421 173.587 190.421C173.587 190.421 180.169 190.396 181.73 190.092C190.054 188.47 193.225 186.413 198.924 184.714C200.346 184.326 201.774 183.865 203.123 183.471C202.705 184.961 203.013 186.514 204.682 187.527C205.099 187.78 205.516 188.033 205.94 188.215C204.584 190.426 204.08 193.799 206.741 195.187C209.819 196.828 212.633 194.667 214.794 192.452C214.581 194.105 215.555 195.568 217.781 196.047C221.222 196.847 225.3 195.302 227.231 192.341C232.222 192.981 237.218 193.549 242.208 194.189C250.453 195.249 258.607 197.392 266.918 197.659C278.291 198.039 289.549 195.43 300.572 193.019C304.952 193.099 313.48 195.128 316.41 190.725C317.839 188.52 318.113 185.272 318.471 182.759C319.168 178.821 319.364 174.768 319.118 170.75ZM196.927 172.845L197.006 172.779C197.006 172.779 197.079 172.785 197.085 172.713C198.828 171.116 200.565 169.591 202.374 168.073C203.34 171.352 198.19 176.949 195.021 175.518C195.1 174.58 195.699 173.54 196.927 172.845ZM195.455 177.299C200.004 177.974 205.47 171.241 203.56 167.01C212.595 159.562 222.077 152.878 233.361 149.108C239.901 146.972 246.508 144.915 253.278 143.525C256.775 142.803 259.012 144.01 262.339 145.308C267.298 147.181 272.173 149.192 277.12 151.21C279.594 152.218 282.062 153.299 284.542 154.235C275.763 156.909 266.911 159.576 258.066 162.171C255.368 162.961 252.591 163.816 249.893 164.605C246.124 164.214 242.392 163.39 238.823 162.361C237.965 162.143 237.589 162.257 236.827 162.628C234.171 163.784 231.454 164.79 228.738 165.796C225.192 167.095 218.949 168.311 210.296 172.958C206.702 174.834 203.464 177.685 199.435 178.653C197.638 179.155 196.163 178.449 195.455 177.299ZM259.34 167.875C257.646 168.023 255.958 168.098 254.331 168.324C255.753 167.935 257.181 167.474 258.602 167.086C258.808 167.249 259.08 167.49 259.34 167.875ZM225.545 176.791C228.394 175.942 231.316 175.099 234.166 174.249C236.713 173.52 239.339 172.725 241.886 171.995C238.988 173.422 236.21 175.149 233.657 176.823C230.953 176.812 228.255 176.729 225.545 176.791ZM220.763 170.209C225.639 168.732 230.401 166.881 235.09 165.025C236.149 164.606 237.207 164.187 238.272 163.695C237.74 163.941 238.387 164.068 239.107 164.202C235.18 165.687 231.398 168.056 228.227 170.986C223.581 172.337 218.928 173.76 214.282 175.112C215.504 173.616 216.86 172.277 218.137 171.004C219.038 170.717 219.934 170.502 220.763 170.209ZM242.192 164.899C243.559 165.16 244.926 165.421 246.293 165.682C241.574 167.027 236.921 168.45 232.202 169.795C235.24 167.581 238.677 165.837 242.192 164.899ZM247.724 171.253C251.584 169.69 256.266 169.65 260.386 169.344C261.033 170.344 261.613 171.265 261.879 172.45C254.116 176.082 245.435 176.728 236.657 176.786C240.203 174.615 243.936 172.823 247.724 171.253ZM207.5 176.646C209.581 175.368 211.596 174.012 213.672 172.807C214.059 172.549 214.44 172.363 214.821 172.178C213.702 173.318 212.715 174.616 211.729 175.913C209.78 176.475 207.905 177.043 205.957 177.605C206.495 177.288 206.961 176.964 207.5 176.646ZM205.301 182.783C207.4 182.161 209.572 181.545 211.678 180.851C213.39 181.359 214.847 182.282 214.32 184.199C213.787 186.189 209.951 186.592 208.275 187.395C207.356 187.026 206.509 186.664 205.668 186.229C204.132 185.373 204.472 183.948 205.301 182.783ZM208.877 194.132C205.731 194.156 206.326 190.573 207.494 188.855C209.69 189.695 212.133 190.192 214.517 190.539C212.985 192.226 211.139 194.178 208.877 194.132ZM219.505 194.667C218.556 194.659 217.545 194.501 216.79 193.929C215.689 193.109 216.754 191.745 217.329 190.995C218.049 191.128 218.848 191.196 219.495 191.323C221.442 191.633 223.469 191.877 225.417 192.187C223.964 193.809 221.774 194.641 219.505 194.667ZM297.354 192.166C291.026 193.52 284.704 194.802 278.28 195.567C267.644 196.848 258.009 194.943 247.617 193.338C239.826 192.098 231.993 191.362 224.262 190.273C220.07 189.7 215.128 189.355 210.773 188.115C213.03 187.361 215.728 186.571 216.002 184.196C216.251 182.11 215.326 180.941 213.929 180.169C216.028 179.547 218.127 178.925 220.227 178.303C221.255 178.245 222.283 178.187 223.384 178.134C223.596 178.225 223.814 178.243 224.044 178.117C227.413 178.039 230.777 178.033 234.14 178.026C234.285 178.039 234.43 178.051 234.582 177.991C243.208 177.994 251.852 177.78 260.141 174.847C261.194 174.5 262.186 174.002 263.179 173.505C263.409 173.379 263.572 173.175 263.584 173.031C263.596 172.886 263.602 172.814 263.615 172.67C263.307 170.245 261.784 168.372 260.417 166.367C270.914 163.258 281.339 160.142 291.769 156.954C295.174 158.187 298.592 159.275 302.106 160.081C302.574 167.534 302.081 175.123 301.382 182.55C301.23 184.354 301.005 186.151 300.702 188.015C300.241 190.883 300.258 191.539 297.354 192.166ZM317.098 181.698C316.722 184.428 316.574 189.648 313.809 191.231C310.892 192.874 305.225 191.596 302.013 191.542C301.868 191.53 301.722 191.517 301.65 191.511C303.031 186.395 303.276 180.893 303.569 175.685C303.843 170.693 304.051 165.624 303.818 160.589C306.189 161.081 308.638 161.506 311.173 161.793C312.915 161.94 314.458 161.852 315.649 163.334C316.779 164.665 317.045 166.722 317.34 168.419C317.998 172.762 317.608 177.381 317.098 181.698Z" stroke="#001064" stroke-width="0.8" mask="url(#path-11-outside-2)"/>
<path d="M55.588 10.1266L58.9402 4.37089L59.898 3.89124L63.729 1.97266H66.6023L68.039 2.93195L76.6589 7.72841L88.1521 15.8824L91.5043 18.2806L93.4198 21.6381V24.0364L92.462 27.3939L88.631 31.2311L87.6732 33.1496V35.5479L88.1521 39.385L87.6732 45.1408L87.1943 49.9372L86.7154 55.2133L84.7999 61.9284L82.4055 68.6434L80.49 73.4399L79.0533 76.3178L74.7434 83.5124L70.9123 88.3089L66.6023 91.1868L65.1657 91.6664L63.729 91.1868L63.2502 88.3089L63.729 85.9107L65.1657 83.0328L66.6023 77.277L67.5601 73.9195L68.039 69.1231L67.0812 64.3266L65.6446 60.4894L63.2502 58.5709L60.8557 57.6116L57.5036 59.5302L53.1936 62.8877L50.7992 66.7248L48.8837 72.4806L48.4048 77.7567L48.8837 82.5532L50.3203 85.9107L54.6303 89.2682L58.9402 91.1868H62.7713L65.1657 93.1054L65.6446 95.9832L63.2502 98.8611L59.898 99.8204L55.588 99.3408L46.4893 95.5036L40.7427 89.7478L38.3482 83.5124L36.9116 77.277L35.9538 76.3178L34.9961 78.716L34.5172 83.9921L35.9538 89.2682L38.3482 93.1054L42.1793 96.4629L47.9259 100.78L51.757 103.178L55.1091 105.097L56.0669 107.495V109.893L55.1091 111.812L52.7147 113.25L48.4048 112.771L39.306 107.974L33.0805 103.178L30.2072 98.8611L29.2495 100.3L30.2072 104.137L33.5594 109.893L36.9116 114.21L38.8271 117.567L39.306 120.445L38.8271 121.884L36.9116 122.843H35.4749L32.6016 121.884L27.3339 118.047L22.5451 109.893L18.714 101.739L16.7985 93.1054L15.8407 80.6346L17.2774 69.6027L14.4041 76.7974L11.5308 91.6664L9.13637 108.454L8.65749 112.291L7.22084 113.73H5.78419L4.34754 112.291L2.43201 106.535L1.95312 98.8611L2.43201 90.2275L5.30531 76.7974L9.13637 66.7248L12.4886 60.4894L18.2351 52.8151L26.3762 41.7833L32.1228 36.0275L40.7427 29.3125L47.9259 22.1178L53.6725 15.4027L55.588 10.1266Z" fill="white"/>
<mask id="path-13-outside-3" maskUnits="userSpaceOnUse" x="0" y="0" width="96" height="125" fill="black">
<rect fill="white" width="96" height="125"/>
<path d="M94.2488 21.1635C91.5172 16.164 85.8263 12.7553 81.1978 9.80112C76.3416 6.61965 70.5749 1.31721 64.5805 1.01422C58.3585 0.635472 54.7164 7.90739 53.1988 12.8311C53.1229 13.2098 53.1988 13.4371 53.3506 13.6643C52.8953 14.1946 52.44 14.8006 51.9089 15.4066C46.218 22.9815 39.5408 28.6626 32.2565 34.6468C26.0345 39.7978 20.8748 46.9182 16.1704 53.4326C5.54743 68.1279 0.00833654 85.2472 1.14651 103.427C1.37414 106.608 2.13292 114.789 6.76148 114.941C10.176 115.017 10.4795 107.063 10.783 105.018C12.3006 94.9431 12.9076 83.7323 16.1704 73.7334C14.3493 84.1868 15.1839 94.9431 19.1296 105.094C21.7094 111.835 27.0209 121.834 34.9122 123.576C36.885 124.031 39.6166 123.198 40.2995 121.152C41.6654 117.441 37.3403 113.199 35.3675 110.472C33.167 107.366 31.5736 104.109 30.2078 100.7C33.774 105.169 38.782 108.654 43.6382 111.381C46.9009 113.199 51.5295 115.017 55.0958 112.971C56.841 111.987 57.7515 109.032 56.9168 107.139C54.4129 101.836 46.3698 99.1851 42.1965 95.5491C35.9745 90.0952 34.9881 83.9595 36.4298 77.2936C36.7333 84.4897 39.6166 91.4587 45.8386 95.8521C50.619 99.2608 62.38 104.336 66.0222 96.7611C66.5533 95.7006 66.5533 93.6554 65.9463 92.1404C68.0709 91.4587 70.1955 89.1862 71.4095 87.9742C76.9486 82.2173 80.8184 74.7181 83.7776 67.3704C88.1027 56.5383 89.6202 44.7972 88.2544 33.2076C90.9861 30.2534 96.6769 25.7084 94.2488 21.1635ZM4.33338 110.244C3.87811 109.108 3.49872 107.82 3.27109 106.533C3.34697 106.457 3.42285 106.457 3.5746 106.381C4.2575 105.7 5.16804 104.866 5.92682 105.927C6.30621 106.533 6.45797 107.214 6.53384 107.896C6.83736 109.638 7.29262 111.456 6.60972 113.199C5.77506 113.047 4.40926 110.472 4.33338 110.244ZM28.3108 116.986C28.2349 116.91 28.2349 116.835 28.1591 116.835C30.1319 115.774 32.4082 115.32 34.1534 117.138C35.1398 118.198 35.8228 120.395 35.1398 121.758C35.1398 121.758 35.1398 121.758 35.1398 121.834C32.4082 121.455 29.9043 118.804 28.3108 116.986ZM47.5838 111.153C46.9009 110.926 46.1422 110.623 45.4593 110.32C45.5351 110.244 45.611 110.244 45.6869 110.169C47.8874 107.517 50.9983 110.32 53.3506 111.987C51.5295 112.593 49.0255 111.684 47.5838 111.153ZM57.5997 98.9578C58.5103 97.3671 61.166 97.2914 63.063 97.6701C62.6836 97.9731 62.1524 98.2761 61.4695 98.4276C60.2555 98.8821 58.8897 99.0336 57.5997 98.9578ZM62.0007 90.0952C60.6349 90.0194 59.269 90.0952 57.9791 89.7922C55.7028 89.2619 53.8058 88.05 52.2124 86.4592C46.7492 80.9295 49.2532 71.2337 52.8953 65.401C54.4129 62.9012 60.0278 56.3111 63.063 59.341C67.4639 63.7345 67.4639 69.3399 66.0981 75.0211C65.3393 77.8996 60.9384 86.0047 62.0007 90.0952ZM67.6915 88.9589C66.0981 90.3224 64.8081 90.6254 64.277 89.7922C64.3529 89.7164 64.5046 89.6407 64.5805 89.4892C65.491 88.05 70.2714 81.5355 71.5613 85.1715C71.5613 85.1715 71.5613 85.1715 71.5613 85.2472C70.3472 86.535 69.0573 87.8227 67.6915 88.9589ZM72.9271 83.7323C70.8784 80.0206 66.7051 83.808 64.277 86.7622C65.1117 82.9748 66.8568 79.3388 67.8433 75.5514C68.7538 72.0669 69.0573 68.5067 68.3744 65.0222C67.8433 62.4468 65.3393 57.3716 62.5318 56.6141C57.2203 55.1748 51.5295 63.583 49.6325 67.4462C47.0527 72.7486 46.3698 79.1116 48.722 84.5655C49.7843 87.0652 51.833 88.9589 54.1093 90.3224C55.3993 91.0799 56.9168 91.5344 58.4344 91.8374C59.1173 91.9889 59.952 92.0647 60.6349 92.1404C61.3178 92.2162 62.0765 92.2162 62.7594 92.2162C63.5182 93.6554 63.8976 94.8674 63.8976 95.8521C60.9384 95.0946 56.9168 95.7006 55.6269 98.6548C51.6813 97.8216 47.7356 95.2461 45.1557 92.9737C39.0096 87.5955 37.2644 79.0358 38.5544 71.3094C38.6302 70.8549 38.782 70.3247 38.8579 69.8702C39.0855 68.6582 37.4921 68.2794 37.0368 69.3399C34.7605 74.8696 32.9394 81.4598 34.2293 86.9137C36.7333 97.3671 48.0391 100.094 54.5646 107.063C55.551 108.123 55.3993 109.563 54.7164 110.699C51.5295 108.729 47.5838 104.942 44.2452 108.805C44.0176 109.108 43.9417 109.411 44.0934 109.714C38.3267 106.836 33.0911 102.064 29.6766 96.9126C28.6902 95.4734 27.9314 93.8826 27.3244 92.3677C26.945 91.0799 26.5656 89.7164 26.1862 88.4287C26.0345 87.8227 25.8827 87.2925 25.731 86.7622C24.5928 80.5508 25.1998 73.9606 26.7174 67.9007C27.0209 66.7645 25.2757 66.2342 24.8963 67.3704C23.4546 72.0669 22.3923 76.6876 22.8476 81.6113C23.3029 86.7622 25.3516 91.8374 26.7933 96.7611C28.4626 102.215 30.4354 106.836 33.6982 111.532C34.9881 113.35 41.286 120.622 37.0368 121.834C37.4921 119.789 36.7333 117.516 35.4434 115.926C33.2429 113.199 29.6008 113.956 26.8691 115.471C24.0617 111.987 22.013 107.82 20.4195 103.654C15.4116 90.7769 16.0945 76.4603 20.7989 63.583C21.1783 62.5225 19.6607 61.9923 19.1296 62.9012C10.6313 76.3088 11.4659 93.0494 8.43079 108.123C8.35492 107.139 8.20316 106.305 7.82377 105.548C6.76148 103.276 4.78865 103.2 3.04346 104.412C2.8917 102.442 2.8917 100.397 2.8917 98.5033C2.96758 88.8832 4.78865 78.7328 8.58255 69.7944C12.1488 61.462 17.9914 53.8114 23.7581 46.8424C26.5656 43.4337 29.2214 39.9493 32.4841 36.995C35.064 34.6468 37.9473 32.6774 40.6031 30.4806C44.2452 27.4507 47.4321 24.042 50.3913 20.4817C52.6677 17.7548 55.3234 12.0736 59.5726 12.9826C63.2147 13.7401 66.5533 17.982 69.2091 20.3302C71.4854 22.3755 74.5205 23.8905 77.1004 25.6327C79.9837 27.5264 84.8399 30.0261 86.4334 33.2833C88.3303 49.7209 84.157 70.2489 72.9271 83.7323ZM92.1242 26.0114C91.0619 27.9809 89.0891 29.7231 87.4957 31.4654C86.2816 29.7231 84.0812 28.3596 82.4877 27.1477C78.9973 24.5722 75.3552 22.2997 71.7889 19.8757C68.1468 17.4518 65.3393 13.2098 61.166 11.6191C58.8897 10.7101 57.1445 11.0131 55.6269 11.9221C57.5997 6.24091 61.9248 0.786971 68.5262 3.96843C72.2442 5.78641 75.7346 8.58913 79.225 10.7859C82.943 13.1341 86.5851 15.6338 89.8479 18.6638C92.0483 20.6332 93.7935 22.7542 92.1242 26.0114Z"/>
</mask>
<path d="M94.2488 21.1635C91.5172 16.164 85.8263 12.7553 81.1978 9.80112C76.3416 6.61965 70.5749 1.31721 64.5805 1.01422C58.3585 0.635472 54.7164 7.90739 53.1988 12.8311C53.1229 13.2098 53.1988 13.4371 53.3506 13.6643C52.8953 14.1946 52.44 14.8006 51.9089 15.4066C46.218 22.9815 39.5408 28.6626 32.2565 34.6468C26.0345 39.7978 20.8748 46.9182 16.1704 53.4326C5.54743 68.1279 0.00833654 85.2472 1.14651 103.427C1.37414 106.608 2.13292 114.789 6.76148 114.941C10.176 115.017 10.4795 107.063 10.783 105.018C12.3006 94.9431 12.9076 83.7323 16.1704 73.7334C14.3493 84.1868 15.1839 94.9431 19.1296 105.094C21.7094 111.835 27.0209 121.834 34.9122 123.576C36.885 124.031 39.6166 123.198 40.2995 121.152C41.6654 117.441 37.3403 113.199 35.3675 110.472C33.167 107.366 31.5736 104.109 30.2078 100.7C33.774 105.169 38.782 108.654 43.6382 111.381C46.9009 113.199 51.5295 115.017 55.0958 112.971C56.841 111.987 57.7515 109.032 56.9168 107.139C54.4129 101.836 46.3698 99.1851 42.1965 95.5491C35.9745 90.0952 34.9881 83.9595 36.4298 77.2936C36.7333 84.4897 39.6166 91.4587 45.8386 95.8521C50.619 99.2608 62.38 104.336 66.0222 96.7611C66.5533 95.7006 66.5533 93.6554 65.9463 92.1404C68.0709 91.4587 70.1955 89.1862 71.4095 87.9742C76.9486 82.2173 80.8184 74.7181 83.7776 67.3704C88.1027 56.5383 89.6202 44.7972 88.2544 33.2076C90.9861 30.2534 96.6769 25.7084 94.2488 21.1635ZM4.33338 110.244C3.87811 109.108 3.49872 107.82 3.27109 106.533C3.34697 106.457 3.42285 106.457 3.5746 106.381C4.2575 105.7 5.16804 104.866 5.92682 105.927C6.30621 106.533 6.45797 107.214 6.53384 107.896C6.83736 109.638 7.29262 111.456 6.60972 113.199C5.77506 113.047 4.40926 110.472 4.33338 110.244ZM28.3108 116.986C28.2349 116.91 28.2349 116.835 28.1591 116.835C30.1319 115.774 32.4082 115.32 34.1534 117.138C35.1398 118.198 35.8228 120.395 35.1398 121.758C35.1398 121.758 35.1398 121.758 35.1398 121.834C32.4082 121.455 29.9043 118.804 28.3108 116.986ZM47.5838 111.153C46.9009 110.926 46.1422 110.623 45.4593 110.32C45.5351 110.244 45.611 110.244 45.6869 110.169C47.8874 107.517 50.9983 110.32 53.3506 111.987C51.5295 112.593 49.0255 111.684 47.5838 111.153ZM57.5997 98.9578C58.5103 97.3671 61.166 97.2914 63.063 97.6701C62.6836 97.9731 62.1524 98.2761 61.4695 98.4276C60.2555 98.8821 58.8897 99.0336 57.5997 98.9578ZM62.0007 90.0952C60.6349 90.0194 59.269 90.0952 57.9791 89.7922C55.7028 89.2619 53.8058 88.05 52.2124 86.4592C46.7492 80.9295 49.2532 71.2337 52.8953 65.401C54.4129 62.9012 60.0278 56.3111 63.063 59.341C67.4639 63.7345 67.4639 69.3399 66.0981 75.0211C65.3393 77.8996 60.9384 86.0047 62.0007 90.0952ZM67.6915 88.9589C66.0981 90.3224 64.8081 90.6254 64.277 89.7922C64.3529 89.7164 64.5046 89.6407 64.5805 89.4892C65.491 88.05 70.2714 81.5355 71.5613 85.1715C71.5613 85.1715 71.5613 85.1715 71.5613 85.2472C70.3472 86.535 69.0573 87.8227 67.6915 88.9589ZM72.9271 83.7323C70.8784 80.0206 66.7051 83.808 64.277 86.7622C65.1117 82.9748 66.8568 79.3388 67.8433 75.5514C68.7538 72.0669 69.0573 68.5067 68.3744 65.0222C67.8433 62.4468 65.3393 57.3716 62.5318 56.6141C57.2203 55.1748 51.5295 63.583 49.6325 67.4462C47.0527 72.7486 46.3698 79.1116 48.722 84.5655C49.7843 87.0652 51.833 88.9589 54.1093 90.3224C55.3993 91.0799 56.9168 91.5344 58.4344 91.8374C59.1173 91.9889 59.952 92.0647 60.6349 92.1404C61.3178 92.2162 62.0765 92.2162 62.7594 92.2162C63.5182 93.6554 63.8976 94.8674 63.8976 95.8521C60.9384 95.0946 56.9168 95.7006 55.6269 98.6548C51.6813 97.8216 47.7356 95.2461 45.1557 92.9737C39.0096 87.5955 37.2644 79.0358 38.5544 71.3094C38.6302 70.8549 38.782 70.3247 38.8579 69.8702C39.0855 68.6582 37.4921 68.2794 37.0368 69.3399C34.7605 74.8696 32.9394 81.4598 34.2293 86.9137C36.7333 97.3671 48.0391 100.094 54.5646 107.063C55.551 108.123 55.3993 109.563 54.7164 110.699C51.5295 108.729 47.5838 104.942 44.2452 108.805C44.0176 109.108 43.9417 109.411 44.0934 109.714C38.3267 106.836 33.0911 102.064 29.6766 96.9126C28.6902 95.4734 27.9314 93.8826 27.3244 92.3677C26.945 91.0799 26.5656 89.7164 26.1862 88.4287C26.0345 87.8227 25.8827 87.2925 25.731 86.7622C24.5928 80.5508 25.1998 73.9606 26.7174 67.9007C27.0209 66.7645 25.2757 66.2342 24.8963 67.3704C23.4546 72.0669 22.3923 76.6876 22.8476 81.6113C23.3029 86.7622 25.3516 91.8374 26.7933 96.7611C28.4626 102.215 30.4354 106.836 33.6982 111.532C34.9881 113.35 41.286 120.622 37.0368 121.834C37.4921 119.789 36.7333 117.516 35.4434 115.926C33.2429 113.199 29.6008 113.956 26.8691 115.471C24.0617 111.987 22.013 107.82 20.4195 103.654C15.4116 90.7769 16.0945 76.4603 20.7989 63.583C21.1783 62.5225 19.6607 61.9923 19.1296 62.9012C10.6313 76.3088 11.4659 93.0494 8.43079 108.123C8.35492 107.139 8.20316 106.305 7.82377 105.548C6.76148 103.276 4.78865 103.2 3.04346 104.412C2.8917 102.442 2.8917 100.397 2.8917 98.5033C2.96758 88.8832 4.78865 78.7328 8.58255 69.7944C12.1488 61.462 17.9914 53.8114 23.7581 46.8424C26.5656 43.4337 29.2214 39.9493 32.4841 36.995C35.064 34.6468 37.9473 32.6774 40.6031 30.4806C44.2452 27.4507 47.4321 24.042 50.3913 20.4817C52.6677 17.7548 55.3234 12.0736 59.5726 12.9826C63.2147 13.7401 66.5533 17.982 69.2091 20.3302C71.4854 22.3755 74.5205 23.8905 77.1004 25.6327C79.9837 27.5264 84.8399 30.0261 86.4334 33.2833C88.3303 49.7209 84.157 70.2489 72.9271 83.7323ZM92.1242 26.0114C91.0619 27.9809 89.0891 29.7231 87.4957 31.4654C86.2816 29.7231 84.0812 28.3596 82.4877 27.1477C78.9973 24.5722 75.3552 22.2997 71.7889 19.8757C68.1468 17.4518 65.3393 13.2098 61.166 11.6191C58.8897 10.7101 57.1445 11.0131 55.6269 11.9221C57.5997 6.24091 61.9248 0.786971 68.5262 3.96843C72.2442 5.78641 75.7346 8.58913 79.225 10.7859C82.943 13.1341 86.5851 15.6338 89.8479 18.6638C92.0483 20.6332 93.7935 22.7542 92.1242 26.0114Z" fill="#001064"/>
<path d="M94.2488 21.1635C91.5172 16.164 85.8263 12.7553 81.1978 9.80112C76.3416 6.61965 70.5749 1.31721 64.5805 1.01422C58.3585 0.635472 54.7164 7.90739 53.1988 12.8311C53.1229 13.2098 53.1988 13.4371 53.3506 13.6643C52.8953 14.1946 52.44 14.8006 51.9089 15.4066C46.218 22.9815 39.5408 28.6626 32.2565 34.6468C26.0345 39.7978 20.8748 46.9182 16.1704 53.4326C5.54743 68.1279 0.00833654 85.2472 1.14651 103.427C1.37414 106.608 2.13292 114.789 6.76148 114.941C10.176 115.017 10.4795 107.063 10.783 105.018C12.3006 94.9431 12.9076 83.7323 16.1704 73.7334C14.3493 84.1868 15.1839 94.9431 19.1296 105.094C21.7094 111.835 27.0209 121.834 34.9122 123.576C36.885 124.031 39.6166 123.198 40.2995 121.152C41.6654 117.441 37.3403 113.199 35.3675 110.472C33.167 107.366 31.5736 104.109 30.2078 100.7C33.774 105.169 38.782 108.654 43.6382 111.381C46.9009 113.199 51.5295 115.017 55.0958 112.971C56.841 111.987 57.7515 109.032 56.9168 107.139C54.4129 101.836 46.3698 99.1851 42.1965 95.5491C35.9745 90.0952 34.9881 83.9595 36.4298 77.2936C36.7333 84.4897 39.6166 91.4587 45.8386 95.8521C50.619 99.2608 62.38 104.336 66.0222 96.7611C66.5533 95.7006 66.5533 93.6554 65.9463 92.1404C68.0709 91.4587 70.1955 89.1862 71.4095 87.9742C76.9486 82.2173 80.8184 74.7181 83.7776 67.3704C88.1027 56.5383 89.6202 44.7972 88.2544 33.2076C90.9861 30.2534 96.6769 25.7084 94.2488 21.1635ZM4.33338 110.244C3.87811 109.108 3.49872 107.82 3.27109 106.533C3.34697 106.457 3.42285 106.457 3.5746 106.381C4.2575 105.7 5.16804 104.866 5.92682 105.927C6.30621 106.533 6.45797 107.214 6.53384 107.896C6.83736 109.638 7.29262 111.456 6.60972 113.199C5.77506 113.047 4.40926 110.472 4.33338 110.244ZM28.3108 116.986C28.2349 116.91 28.2349 116.835 28.1591 116.835C30.1319 115.774 32.4082 115.32 34.1534 117.138C35.1398 118.198 35.8228 120.395 35.1398 121.758C35.1398 121.758 35.1398 121.758 35.1398 121.834C32.4082 121.455 29.9043 118.804 28.3108 116.986ZM47.5838 111.153C46.9009 110.926 46.1422 110.623 45.4593 110.32C45.5351 110.244 45.611 110.244 45.6869 110.169C47.8874 107.517 50.9983 110.32 53.3506 111.987C51.5295 112.593 49.0255 111.684 47.5838 111.153ZM57.5997 98.9578C58.5103 97.3671 61.166 97.2914 63.063 97.6701C62.6836 97.9731 62.1524 98.2761 61.4695 98.4276C60.2555 98.8821 58.8897 99.0336 57.5997 98.9578ZM62.0007 90.0952C60.6349 90.0194 59.269 90.0952 57.9791 89.7922C55.7028 89.2619 53.8058 88.05 52.2124 86.4592C46.7492 80.9295 49.2532 71.2337 52.8953 65.401C54.4129 62.9012 60.0278 56.3111 63.063 59.341C67.4639 63.7345 67.4639 69.3399 66.0981 75.0211C65.3393 77.8996 60.9384 86.0047 62.0007 90.0952ZM67.6915 88.9589C66.0981 90.3224 64.8081 90.6254 64.277 89.7922C64.3529 89.7164 64.5046 89.6407 64.5805 89.4892C65.491 88.05 70.2714 81.5355 71.5613 85.1715C71.5613 85.1715 71.5613 85.1715 71.5613 85.2472C70.3472 86.535 69.0573 87.8227 67.6915 88.9589ZM72.9271 83.7323C70.8784 80.0206 66.7051 83.808 64.277 86.7622C65.1117 82.9748 66.8568 79.3388 67.8433 75.5514C68.7538 72.0669 69.0573 68.5067 68.3744 65.0222C67.8433 62.4468 65.3393 57.3716 62.5318 56.6141C57.2203 55.1748 51.5295 63.583 49.6325 67.4462C47.0527 72.7486 46.3698 79.1116 48.722 84.5655C49.7843 87.0652 51.833 88.9589 54.1093 90.3224C55.3993 91.0799 56.9168 91.5344 58.4344 91.8374C59.1173 91.9889 59.952 92.0647 60.6349 92.1404C61.3178 92.2162 62.0765 92.2162 62.7594 92.2162C63.5182 93.6554 63.8976 94.8674 63.8976 95.8521C60.9384 95.0946 56.9168 95.7006 55.6269 98.6548C51.6813 97.8216 47.7356 95.2461 45.1557 92.9737C39.0096 87.5955 37.2644 79.0358 38.5544 71.3094C38.6302 70.8549 38.782 70.3247 38.8579 69.8702C39.0855 68.6582 37.4921 68.2794 37.0368 69.3399C34.7605 74.8696 32.9394 81.4598 34.2293 86.9137C36.7333 97.3671 48.0391 100.094 54.5646 107.063C55.551 108.123 55.3993 109.563 54.7164 110.699C51.5295 108.729 47.5838 104.942 44.2452 108.805C44.0176 109.108 43.9417 109.411 44.0934 109.714C38.3267 106.836 33.0911 102.064 29.6766 96.9126C28.6902 95.4734 27.9314 93.8826 27.3244 92.3677C26.945 91.0799 26.5656 89.7164 26.1862 88.4287C26.0345 87.8227 25.8827 87.2925 25.731 86.7622C24.5928 80.5508 25.1998 73.9606 26.7174 67.9007C27.0209 66.7645 25.2757 66.2342 24.8963 67.3704C23.4546 72.0669 22.3923 76.6876 22.8476 81.6113C23.3029 86.7622 25.3516 91.8374 26.7933 96.7611C28.4626 102.215 30.4354 106.836 33.6982 111.532C34.9881 113.35 41.286 120.622 37.0368 121.834C37.4921 119.789 36.7333 117.516 35.4434 115.926C33.2429 113.199 29.6008 113.956 26.8691 115.471C24.0617 111.987 22.013 107.82 20.4195 103.654C15.4116 90.7769 16.0945 76.4603 20.7989 63.583C21.1783 62.5225 19.6607 61.9923 19.1296 62.9012C10.6313 76.3088 11.4659 93.0494 8.43079 108.123C8.35492 107.139 8.20316 106.305 7.82377 105.548C6.76148 103.276 4.78865 103.2 3.04346 104.412C2.8917 102.442 2.8917 100.397 2.8917 98.5033C2.96758 88.8832 4.78865 78.7328 8.58255 69.7944C12.1488 61.462 17.9914 53.8114 23.7581 46.8424C26.5656 43.4337 29.2214 39.9493 32.4841 36.995C35.064 34.6468 37.9473 32.6774 40.6031 30.4806C44.2452 27.4507 47.4321 24.042 50.3913 20.4817C52.6677 17.7548 55.3234 12.0736 59.5726 12.9826C63.2147 13.7401 66.5533 17.982 69.2091 20.3302C71.4854 22.3755 74.5205 23.8905 77.1004 25.6327C79.9837 27.5264 84.8399 30.0261 86.4334 33.2833C88.3303 49.7209 84.157 70.2489 72.9271 83.7323ZM92.1242 26.0114C91.0619 27.9809 89.0891 29.7231 87.4957 31.4654C86.2816 29.7231 84.0812 28.3596 82.4877 27.1477C78.9973 24.5722 75.3552 22.2997 71.7889 19.8757C68.1468 17.4518 65.3393 13.2098 61.166 11.6191C58.8897 10.7101 57.1445 11.0131 55.6269 11.9221C57.5997 6.24091 61.9248 0.786971 68.5262 3.96843C72.2442 5.78641 75.7346 8.58913 79.225 10.7859C82.943 13.1341 86.5851 15.6338 89.8479 18.6638C92.0483 20.6332 93.7935 22.7542 92.1242 26.0114Z" stroke="#001064" stroke-width="0.8" mask="url(#path-13-outside-3)"/>
</svg>