<svg width="158" height="122" viewBox="0 0 158 122" fill="none" xmlns="http://www.w3.org/2000/svg">
<path d="M110.697 35.6965L103.401 37.9491L96.6658 42.7359L92.7372 52.591V71.4565L95.2627 78.2143L103.401 82.7195L114.064 83.8458L125.008 77.3696L131.182 73.1459L133.988 65.2619L132.866 55.4068L125.008 41.0464L118.554 35.6965H110.697Z" fill="#FEF6E7"/>
<path fill-rule="evenodd" clip-rule="evenodd" d="M147.543 40.4919C147.972 40.974 148.238 41.5704 148.592 42.1541C148.819 42.484 148.681 42.776 148.354 43.0046C147.411 43.9571 146.14 44.5036 144.983 45.2151C143.486 46.0663 141.787 46.7654 140.176 47.4517C139.585 47.7185 139.383 47.5663 139.13 47.0588C138.446 45.4345 138.446 45.4345 139.956 44.6721C142.309 43.5157 144.637 42.1817 146.876 40.8604C147.128 40.7333 147.379 40.6063 147.543 40.4919Z" fill="#001064"/>
<path fill-rule="evenodd" clip-rule="evenodd" d="M133.133 27.8972C133.319 27.6842 133.27 27.5673 133.022 27.4641C132.939 27.4297 132.808 27.2784 132.725 27.244C131.339 26.3772 131.257 26.3428 130.346 27.6071C128.928 29.6273 127.558 31.7643 126.141 33.7845C125.921 34.0799 125.936 34.2793 126.15 34.465C126.826 34.9396 127.467 35.4966 128.143 35.9713C128.44 36.1914 128.557 36.1433 128.776 35.8478C130.233 33.2641 131.691 30.6803 133.114 28.179C133.065 28.0621 133.099 27.9797 133.133 27.8972Z" fill="#001064"/>
<path fill-rule="evenodd" clip-rule="evenodd" d="M109.598 24.524C109.192 26.6752 109.151 28.8816 109.027 31.0536C108.993 31.1361 108.973 31.4179 109.056 31.4523C109.834 31.6795 110.535 31.3912 111.299 31.4191C111.781 31.4262 111.669 30.9931 111.689 30.7113C111.847 28.4568 112.005 26.2023 112.245 23.9823C112.251 23.5011 112.119 23.3498 111.638 23.3427C111.521 23.3908 111.356 23.3219 111.273 23.2875C109.945 23.2182 109.945 23.2182 109.598 24.524Z" fill="#001064"/>
<path d="M105.571 82.7228C105.571 82.7228 93.7936 81.924 93.4137 71.9516C93.0338 61.9792 89.1082 41.4159 105.571 36.8291C122.033 32.2423 125.173 42.8074 127.529 46.8015C129.884 50.7956 141.459 65.1487 126.364 76.9249C126.364 76.9249 110.788 83.4959 111.168 86.3046C111.548 89.0876 124.312 84.1143 124.312 84.1143C124.312 84.1143 128.922 82.3105 129.124 84.8101C129.327 87.3096 119.222 90.1957 119.222 90.1957C119.222 90.1957 111.978 91.5872 112.358 94.5763C112.738 97.5655 124.616 92.5148 124.616 92.5148C124.616 92.5148 128.137 91.046 128.339 92.5148C128.542 93.9836 123.73 96.277 123.73 96.277C123.73 96.277 114.992 98.8797 115.397 100.967C115.777 103.054 121.096 101.766 121.096 101.766C121.096 101.766 126.009 100.658 125.022 102.668C124.034 104.652 99.5935 119.649 115.676 119.649" stroke="#001064" stroke-width="2.6775" stroke-miterlimit="10"/>
<path d="M113.209 75.2036L105.709 57.1007C105.216 55.9006 104.23 54.9815 102.959 54.624C101.635 54.2665 100.079 54.5985 99.5595 57.6114C98.5475 63.3563 113.209 57.9944 113.209 57.9944C113.209 57.9944 121.434 56.207 121.045 51.6622C120.837 49.3897 119.644 49.0833 118.476 49.3642C116.893 49.7217 115.829 51.1515 115.803 52.7345C115.777 54.1899 116.037 56.4624 117.023 59.9604C118.658 65.7819 119.177 69.1778 119.177 69.1778" stroke="#001064" stroke-width="1.785" stroke-miterlimit="10"/>
<path d="M0.734023 119.672L0.736792 119.38L0.96079 95.7313L0.960796 95.7306L1.24079 71.7736L1.2408 71.7729L1.4088 59.7102L1.40881 59.7096L1.60481 47.5908L1.60482 47.5901L1.71682 41.5307L1.71684 41.5294L1.85684 35.4419L2.15427 35.4488L1.85685 35.4419L2.13676 23.2985V22.3762V22.2265L2.25697 22.1373L3.01255 21.5765L3.01296 21.5762L16.7604 11.3373L16.7613 11.3366L30.5371 1.1535L30.5431 1.14909L30.5431 1.14917L31.1031 0.75643L31.18 0.7025H31.2739H31.9739H41.6898H41.6907L51.4066 0.730554L51.4074 0.730556L70.8672 0.842769L70.8676 0.842771L109.785 1.12329H109.786H110.177H110.242L110.3 1.15004L110.608 1.29031L110.609 1.29038C114.053 2.86159 117.47 4.43283 120.914 6.03213L131.19 10.8011L131.191 10.8016L151.712 20.4223L151.715 20.4237L152.328 20.7028L152.494 20.7784L152.502 20.9607L152.53 21.6059L152.53 21.6099L152.894 33.8122L152.894 33.8128L153.286 46.0137L153.286 46.0151L153.734 58.2153L153.734 58.2167L154.238 70.4172L154.238 70.4183M0.734023 119.672L154.238 70.4183M0.734023 119.672L1.0263 119.68C10.734 119.94 20.5424 120.151 30.4246 120.362C33.3128 120.424 36.2073 120.486 39.1073 120.55L39.1091 120.55L58.3729 120.858L58.3738 120.858L77.7215 121.111L77.7233 121.111L97.1546 121.251C103.624 121.307 110.122 121.307 116.618 121.279C129.613 121.223 142.607 120.97 155.542 120.718L155.543 120.718L156.775 120.69L157.087 120.683L157.065 120.371L156.981 119.195L156.685 119.214L156.981 119.193L156.981 119.194C156.449 111.06 155.946 102.954 155.47 94.8201M0.734023 119.672L155.47 94.8201M154.238 70.4183C154.602 78.5519 155.022 86.6858 155.47 94.8201M154.238 70.4183L155.47 94.8201M155.47 94.8201L155.174 94.8364L155.47 94.819C155.47 94.8194 155.47 94.8197 155.47 94.8201ZM39.9041 118.001C27.2458 118.248 14.531 118.496 1.62949 118.824L2.98329 94.8251L2.98333 94.8243L4.27131 70.8394L4.27132 70.8392L4.91531 58.945L4.91537 58.9436L5.50337 47.0773L5.5034 47.0767L5.7834 41.1575L5.78346 41.1561L6.03546 35.237L6.03546 35.237L6.4928 24.5199L19.5204 15.0991L19.5206 15.099L32.7604 5.50541L41.6898 5.50541L41.6907 5.50541L51.4066 5.47736L51.4079 5.47735L70.8396 5.33709L109.323 5.0597C110.481 5.56566 111.636 6.07483 112.792 6.58384C114.968 7.54285 117.143 8.50134 119.328 9.43683L129.743 13.925L129.743 13.9251L149.831 22.5543L150.508 33.8949L150.508 33.8955L151.207 46.0964L151.208 46.0978L151.851 58.298L151.851 58.2994L152.439 70.4999C152.439 70.5002 152.439 70.5006 152.439 70.501C152.803 78.6353 153.139 86.7687 153.391 94.9017C153.627 102.549 153.839 110.172 154.026 117.793C141.733 117.551 129.511 117.316 117.262 117.262C110.878 117.234 104.52 117.234 98.1346 117.29L78.9832 117.43L78.9815 117.43L59.7457 117.682L59.7449 117.682L40.4251 117.991L40.424 117.991L39.9041 118.001Z" fill="#001064" stroke="#001064" stroke-width="0.595"/>
<path d="M1 119.032H69.0332V42.4003L59.0479 34.6003L48.8746 26.5003L4.69411 23.0421L1 119.032Z" fill="#FFEDE9"/>
<path d="M109.669 3.59717L69.3414 42.1003V119.032" stroke="#001064" stroke-width="2.38" stroke-miterlimit="10"/>
<path d="M87.5341 40.2432L90.7508 36.9305L91.1455 38.3084L93.4699 43.3072L96.9494 45.5868L91.6494 47.8587L88.6885 51.5452L87.2486 47.0376L82.8042 42.9475L83.2941 42.0607L87.5341 40.2432Z" fill="white"/>
<path d="M48.2967 25.5116C48.5548 26.2574 48.7763 27.005 48.9978 27.7527C49.2192 28.5003 49.4264 29.2562 49.6263 30.0126C50.0256 31.5176 50.3961 33.0317 50.7522 34.5542L51.0083 35.6946C51.0937 36.0773 51.1715 36.4528 51.257 36.8355C51.3351 37.2186 51.4202 37.5937 51.4984 37.9767L51.5569 38.2621L51.575 38.3295L51.5927 38.3893L51.6208 38.5093C51.6397 38.5918 51.6581 38.6668 51.6843 38.7489L51.7198 38.8685C51.729 38.906 51.7456 38.9431 51.7552 38.9882C52.1562 40.2351 52.9675 41.3171 54.0107 42.0459C54.2698 42.23 54.5497 42.3904 54.8357 42.5277C55.1218 42.6649 55.414 42.7791 55.7198 42.8699C56.3236 43.0442 56.9587 43.1106 57.5965 43.0859L57.8379 43.0661L58.1155 43.0368L58.6785 42.9855C59.0514 42.9514 59.4316 42.917 59.8045 42.8829L60.9309 42.7879L62.0569 42.6853C63.5646 42.5785 65.0658 42.4873 66.584 42.4407C67.3394 42.4176 68.0948 42.3944 68.8587 42.3937C69.6149 42.3857 70.3791 42.3925 71.1368 42.4148C70.406 42.634 69.6668 42.8308 68.9344 43.0197C68.2021 43.2086 67.4617 43.3827 66.7209 43.5492C65.2466 43.882 63.7634 44.1848 62.2788 44.4574L61.1655 44.6656L60.0514 44.8586C59.68 44.923 59.3087 44.9873 58.9369 45.0441L58.3758 45.1332L58.099 45.1776L57.7777 45.2167C56.9155 45.3059 56.0236 45.2449 55.175 45.0223C54.7505 44.9072 54.3317 44.7615 53.9331 44.5768C53.5344 44.3921 53.1485 44.1688 52.7831 43.9142C51.3285 42.8951 50.2285 41.3345 49.766 39.5974C49.7487 39.5452 49.7387 39.4926 49.721 39.4327L49.6832 39.2677C49.6555 39.1553 49.6355 39.0501 49.6151 38.9373L49.5847 38.7719L49.5732 38.689L49.562 38.6137L49.5181 38.3275C49.462 37.9433 49.4131 37.5588 49.3566 37.1671C49.3078 36.7825 49.2516 36.3983 49.2024 36.0062L49.0555 34.845C48.8671 33.2989 48.7002 31.7441 48.5701 30.1875C48.5086 29.409 48.4472 28.6305 48.4001 27.8437C48.354 27.0795 48.3069 26.2927 48.2967 25.5116Z" fill="#001064"/>
<path d="M79.0539 41.9781C79.6854 41.6636 80.5942 41.8504 81.3117 41.7854C82.102 41.7081 82.8776 41.5674 83.6246 41.3436C85.1557 40.8857 86.5644 40.1369 87.7206 39.1334C88.9086 38.1012 89.8332 36.7778 90.4045 35.3626C90.4239 35.3057 90.4533 35.242 90.4727 35.1851C90.473 33.6633 90.691 32.1561 91.1717 30.8018C91.4546 29.9899 92.9189 30.2718 92.8273 31.1453C92.8103 31.3324 92.7847 31.5178 92.742 31.7001C92.7296 31.7669 92.7102 31.8239 92.6823 31.8792C92.4481 33.046 92.2255 34.1978 92.2028 35.4128C92.1746 36.8948 92.354 38.3982 92.7365 39.8531C93.0663 41.1166 93.5999 42.3748 94.5302 43.3958C95.5558 44.521 96.9132 45.0942 98.4356 45.3956C98.9198 45.4946 99.0204 46.0927 98.5059 46.2042C98.0472 46.3002 97.594 46.3194 97.1702 46.2749C96.9323 46.3689 96.7045 46.4561 96.4372 46.5186C95.9296 46.6401 95.4376 46.7731 94.9603 46.9694C93.9902 47.3504 93.0991 47.8759 92.3342 48.5287C90.6875 49.9422 89.7294 51.9684 89.5826 54.0422C89.5484 54.5114 89.1633 54.7335 88.7658 54.7372C88.221 55.3446 87.0643 54.878 87.2985 53.9965C87.9482 51.5409 87.7279 48.9749 86.0145 46.8048C85.2291 45.8108 84.2383 45.0207 83.0956 44.3838C82.3542 43.9601 81.5476 43.6972 80.7528 43.4192C80.1097 43.4635 79.4449 43.4345 78.9653 43.1202C78.4943 42.8075 78.589 42.2026 79.0539 41.9781ZM83.7924 43.0525C85.2233 43.7518 86.5007 44.803 87.4209 46.0209C88.235 47.0981 88.8298 48.3591 89.1519 49.6643C89.6456 48.8572 90.278 48.1105 91.0413 47.466C91.9317 46.7069 93.0064 46.0947 94.1494 45.6853C94.4043 45.5946 94.6662 45.5137 94.9366 45.4345C93.3074 44.3782 92.0937 42.5088 91.5191 40.9489C91.1729 40.011 90.9105 39.0022 90.7309 37.9743C90.245 38.7397 89.663 39.4526 88.9795 40.0946C87.7194 41.2776 86.1131 42.1884 84.3983 42.7332C84.1449 42.8156 83.8846 42.8881 83.6258 42.9522C83.6707 42.9952 83.7273 43.023 83.7924 43.0525Z" fill="#001064"/>
<path d="M4.07787 23.9675L48.8739 26.2L69.819 42.7" stroke="#001064" stroke-width="2.38" stroke-miterlimit="10"/>
<path d="M145.935 66.917L148.652 63.7453L149.086 64.9666L151.465 69.3469L154.734 71.2077L150.078 73.5577L147.613 77.0523L146.06 73.0653L141.818 69.625L142.211 68.797L145.935 66.917Z" fill="white"/>
<path d="M138.379 68.9622C138.932 68.6426 139.763 68.7599 140.406 68.6607C141.115 68.5462 141.807 68.3754 142.469 68.1312C143.825 67.6314 145.055 66.8759 146.042 65.9049C147.056 64.9062 147.816 63.6595 148.252 62.3498C148.266 62.2974 148.289 62.2382 148.304 62.1858C148.218 60.8123 148.33 59.4397 148.688 58.1901C148.898 57.4414 150.235 57.613 150.202 58.4066C150.197 58.5764 150.184 58.7452 150.156 58.9121C150.148 58.9732 150.134 59.0257 150.112 59.0772C149.966 60.1436 149.83 61.1956 149.878 62.2935C149.936 63.6327 150.182 64.9795 150.609 66.271C150.978 67.3927 151.53 68.4981 152.427 69.367C153.416 70.3247 154.674 70.7653 156.065 70.9512C156.507 71.0132 156.632 71.5474 156.174 71.6771C155.765 71.7897 155.357 71.8326 154.972 71.8164C154.762 71.9147 154.562 72.0062 154.324 72.0778C153.873 72.2161 153.436 72.364 153.016 72.5681C152.162 72.9668 151.388 73.4915 150.734 74.1239C149.327 75.4927 148.576 77.3756 148.56 79.2556C148.556 79.681 148.221 79.9033 147.862 79.929C147.405 80.508 146.335 80.1523 146.496 79.3434C146.945 77.0904 146.602 74.7869 144.933 72.9251C144.168 72.0724 143.23 71.4153 142.163 70.905C141.47 70.5645 140.727 70.3728 139.994 70.1668C139.416 70.2431 138.814 70.2546 138.364 69.998C137.921 69.7424 137.972 69.1911 138.379 68.9622ZM142.717 69.664C144.047 70.2143 145.259 71.0909 146.158 72.1382C146.954 73.0643 147.561 74.1688 147.926 75.3287C148.326 74.5723 148.855 73.8626 149.507 73.2378C150.268 72.5024 151.204 71.889 152.212 71.455C152.437 71.3587 152.669 71.2709 152.909 71.1841C151.379 70.3228 150.178 68.7042 149.572 67.3288C149.207 66.5018 148.913 65.6062 148.693 64.6886C148.298 65.4069 147.813 66.0832 147.232 66.7013C146.161 67.8402 144.763 68.753 143.246 69.3416C143.021 69.4303 142.791 69.5105 142.561 69.583C142.604 69.6192 142.656 69.6411 142.717 69.664Z" fill="#001064"/>
</svg>
