<svg width="24" height="24" viewBox="0 0 24 24" fill="none" xmlns="http://www.w3.org/2000/svg">
<path d="M23.8594 12.2211C21.9695 14.2058 20.0744 16.1857 18.1844 18.1655C16.563 19.8611 14.9732 21.5812 13.2728 23.1984C12.9995 23.5 12.9995 23.4994 12.9995 23.4994L12.441 23.9678L11.9995 23.4994C9.98239 21.7646 8.15386 20.0081 6.25783 18.1655C4.21959 16.1857 2.18136 14.2058 0.14839 12.2211C-0.114948 11.9663 0.0166091 11.5938 0.242981 11.3733C2.23295 9.44737 4.23873 7.53615 6.2445 5.62492L9.21367 2.79729C9.71906 2.31213 10.2297 1.83188 10.7351 1.34672C11.0878 1.00858 11.4247 0.636137 11.8196 0.342102C12.0608 0.16246 12.1881 -0.0401421 12.4409 0.00886345C12.7515 -0.045042 12.8942 0.231968 13.1466 0.454817C13.4573 0.72925 13.7364 1.05269 14.0209 1.35162C14.4949 1.83678 14.9636 2.31703 15.4376 2.80219L18.1974 5.62982C20.0619 7.54105 21.9211 9.45227 23.775 11.3782C23.9857 11.5938 24.1069 11.9663 23.8594 12.2211ZM12.2983 21.8066C12.7455 20.2776 13.2876 18.7585 13.7611 17.2393C14.0663 16.2641 14.3662 15.284 14.6714 14.3087C14.8082 13.8677 14.9556 13.4266 15.0976 12.9905C15.166 12.7847 15.2239 12.5788 15.2923 12.3779L10.9956 12.4073C10.1373 12.4122 9.27901 12.4171 8.42071 12.4171C9.14775 14.1372 9.87479 15.8524 10.5966 17.5725C11.1866 18.9741 11.7872 20.3757 12.2983 21.8066ZM7.04224 17.4402C8.59069 19.0133 10.1707 20.5619 11.656 22.1889C10.9132 20.7971 10.26 19.3661 9.59618 17.9352C8.76381 16.1465 7.93671 14.3577 7.11487 12.5641C7.0938 12.5151 7.07799 12.4661 7.06745 12.4171C6.47243 12.4171 5.87742 12.4171 5.28241 12.4171C4.32933 12.4171 3.37625 12.4122 2.42317 12.3975C2.32313 12.3975 2.20202 12.4024 2.07565 12.4073C3.73469 14.0833 5.38847 15.7593 7.04224 17.4402ZM10.2459 3.66469C9.22461 4.62521 8.20856 5.59062 7.18725 6.55113C5.47629 8.16832 3.76006 9.78061 2.03856 11.388C2.38082 11.3733 2.72835 11.3733 3.07588 11.3635C3.94996 11.3341 4.82932 11.3194 5.70341 11.3047C6.28262 11.2949 6.86184 11.2851 7.44105 11.2704C7.641 10.6235 8.00945 9.97173 8.2568 9.39346C8.66204 8.43785 9.08308 7.49204 9.49885 6.54133C10.0304 5.31619 10.5672 4.09104 11.0988 2.861C10.8092 3.13543 10.5302 3.40006 10.2459 3.66469ZM12.5151 2.44935C11.8678 3.92932 11.2152 5.4044 10.5678 6.88437C10.1626 7.80078 9.76788 8.72208 9.35737 9.63849C9.16264 10.0795 8.95738 10.5206 8.75739 10.9616C8.71528 11.0548 8.67318 11.1528 8.63108 11.2508C9.52096 11.2361 10.4056 11.2214 11.2955 11.2116C12.7224 11.192 14.1442 11.1773 15.5711 11.1577C14.9758 9.51108 14.3698 7.86939 13.8061 6.21299C13.374 4.97315 12.884 3.7235 12.5151 2.44935ZM17.3183 6.55113C16.3703 5.59062 15.4222 4.62521 14.4742 3.66469C14.1529 3.34126 13.8317 3.01292 13.5157 2.68948C13.9898 3.7627 14.3902 4.87513 14.8275 5.94836C15.5282 7.66356 16.1816 9.39347 16.8559 11.1136C16.8612 11.1234 16.8612 11.1283 16.8665 11.1381C18.5093 11.1185 20.1575 11.0989 21.8003 11.0793C20.3046 9.57479 18.8088 8.06541 17.3183 6.55113ZM16.5771 12.3681C16.5088 12.6916 16.393 13.0052 16.3035 13.3237C16.172 13.7795 16.0352 14.2401 15.8984 14.691C15.5985 15.6662 15.2985 16.6463 14.9986 17.6215C14.6198 18.8565 14.2778 20.1159 13.8989 21.3607C15.0624 20.0326 16.2732 18.7438 17.4682 17.4402C19.0264 15.7348 20.5846 14.0343 22.1481 12.3289L16.5771 12.3681Z" fill="#001064"/>
<path d="M12 23.5C12 23.2239 12.2239 23 12.5 23C12.7761 23 13 23.2239 13 23.5C13 23.5 12.7761 24 12.5 24C12.2239 24 12 23.5 12 23.5Z" fill="#001064"/>
</svg>
