<svg width="150" height="122" viewBox="0 0 150 122" fill="none" xmlns="http://www.w3.org/2000/svg">
<rect x="1.2147" y="1.28444" width="47.6229" height="19.4224" rx="3.86771" transform="matrix(0.999609 0.0279428 -0.0278476 0.999612 36.1202 45.2478)" fill="#001064" stroke="#001064" stroke-width="2.5"/>
<rect x="-1.43687" y="1.56078" width="47.5166" height="17.8174" rx="2.5" transform="matrix(-0.999144 0.041369 0.0412283 0.99915 76.3805 38.258)" fill="#D3E1FF" stroke="#001064" stroke-width="3"/>
<mask id="path-3-outside-1" maskUnits="userSpaceOnUse" x="22.981" y="12.4043" width="87" height="110" fill="black">
<rect fill="white" x="22.981" y="12.4043" width="87" height="110"/>
<path d="M30.81 16.8323C34.4225 16.6494 38.027 16.4426 41.6395 16.2278C43.4418 16.1165 45.244 16.0051 47.0543 15.8858L49.7616 15.7108L52.469 15.5279L57.8758 15.1461L63.2826 14.7405L74.0883 13.9213L79.4952 13.5316L80.8449 13.4361L81.0116 13.4282C81.0672 13.4282 81.1228 13.4202 81.1863 13.4202C81.3133 13.4123 81.4403 13.4043 81.5674 13.4043C81.8214 13.4043 82.0755 13.4123 82.3296 13.4361C83.3617 13.5236 84.3621 13.8099 85.2751 14.2792C85.7356 14.5098 86.1644 14.7882 86.5693 15.1064L86.7201 15.2257L86.8551 15.337L87.1171 15.5518L87.6411 15.9813L89.7213 17.7231L93.8816 21.2068C96.6445 23.5372 99.4075 25.8835 102.155 28.2298L103.187 29.1126L103.441 29.3353L103.568 29.4467L103.711 29.5739C103.806 29.6614 103.901 29.7489 103.997 29.8444C104.084 29.9398 104.179 30.0273 104.266 30.1227C104.973 30.8863 105.521 31.793 105.878 32.7713C106.061 33.2565 106.188 33.7655 106.275 34.2745C106.299 34.4018 106.315 34.529 106.331 34.6563C106.347 34.7835 106.363 34.9108 106.363 35.046L106.37 35.2369L106.378 35.3323V35.4198L106.386 35.7618L106.45 38.474C106.791 52.9575 106.894 67.441 107.323 81.9245C107.426 85.5433 107.538 89.1622 107.673 92.7811L107.871 98.2054L108.085 103.63L108.316 109.054L108.379 110.414L108.395 110.756L108.403 110.931V111.114V111.297L108.395 111.48L108.387 111.663C108.387 111.727 108.379 111.782 108.371 111.846C108.3 112.808 108.03 113.763 107.601 114.63C106.736 116.371 105.18 117.755 103.33 118.4C102.869 118.559 102.393 118.678 101.908 118.75C101.789 118.765 101.662 118.781 101.543 118.789C101.424 118.805 101.297 118.805 101.178 118.813L101.083 118.821H100.995L100.829 118.829L100.487 118.845L97.7799 118.948L86.9424 119.362L81.5277 119.569L76.105 119.76C68.88 120.014 61.655 120.221 54.4301 120.428L43.5926 120.746L38.1699 120.905L35.4625 120.985L34.7797 121C34.6448 121 34.5177 121 34.3828 121L33.9858 120.977C33.4538 120.937 32.9298 120.841 32.4138 120.706C31.3896 120.42 30.413 119.935 29.5714 119.29C28.7298 118.638 28.0073 117.827 27.4674 116.904C26.9276 115.982 26.5703 114.956 26.4194 113.89L26.3718 113.492C26.3639 113.357 26.3559 113.23 26.348 113.095L26.3162 112.411L26.2606 111.05C26.1098 107.432 25.9748 103.813 25.8478 100.194C25.7128 96.575 25.5858 92.9561 25.4667 89.3372C25.3476 85.7183 25.2206 82.0994 25.1173 78.4805C24.895 71.2348 24.7521 63.9891 24.6251 56.7513C24.506 49.5056 24.4107 42.2679 24.2519 35.0221L24.1884 32.31L24.1249 29.5978L23.982 24.1575C23.9661 23.227 24.1328 22.3044 24.4663 21.4374C24.7998 20.5784 25.3 19.7751 25.9272 19.107C26.5544 18.431 27.3166 17.8822 28.1502 17.4924C28.9839 17.1027 29.889 16.88 30.81 16.8323ZM30.8259 17.0709C29.9366 17.1186 29.0633 17.3413 28.2614 17.7151C27.4516 18.1049 26.7211 18.6378 26.1257 19.29C25.5302 19.9421 25.0538 20.7136 24.7442 21.5488C24.4425 22.3759 24.2996 23.2667 24.3313 24.1496C24.4107 25.9551 24.506 27.7685 24.6013 29.5739L24.7442 32.2861L24.895 34.9983C25.3 42.2281 25.7684 49.4579 26.213 56.6877C26.6497 63.9175 27.0705 71.1473 27.4198 78.3851C27.5945 82.004 27.7533 85.6229 27.9121 89.2338C28.0788 92.8527 28.2296 96.4716 28.3805 100.09C28.5313 103.709 28.6743 107.328 28.8092 110.947L28.8569 112.307L28.8807 112.975C28.8886 113.071 28.8886 113.158 28.8966 113.254L28.9283 113.532C29.0315 114.264 29.2777 114.98 29.6429 115.624C30.016 116.268 30.5083 116.841 31.0958 117.294C31.6833 117.755 32.3582 118.097 33.0648 118.296C33.4221 118.4 33.7873 118.463 34.1605 118.495L34.4383 118.511C34.5336 118.511 34.6289 118.511 34.7162 118.511L35.3832 118.503L38.0905 118.455L43.5132 118.36L54.3586 118.177C61.5836 118.058 68.8165 117.922 76.0415 117.843L81.4642 117.779L86.8868 117.731L97.7322 117.644L100.44 117.62H100.781H100.948H101.035H101.114C101.218 117.612 101.321 117.62 101.424 117.604C101.527 117.596 101.631 117.588 101.734 117.58C102.147 117.533 102.552 117.445 102.949 117.318C103.742 117.063 104.481 116.658 105.124 116.117C105.767 115.584 106.299 114.916 106.696 114.176C107.093 113.437 107.339 112.617 107.418 111.774C107.426 111.719 107.434 111.671 107.434 111.615L107.442 111.456L107.45 111.297V111.138V110.979V110.812L107.442 110.47L107.411 109.11L107.268 103.678L107.109 98.2452L106.934 92.8129C106.815 89.194 106.688 85.5751 106.537 81.9563C105.973 67.4807 105.092 53.0211 104.449 38.5535L104.33 35.8414L104.314 35.4994V35.4119L104.306 35.3403L104.298 35.1971C104.298 35.1017 104.282 35.0062 104.266 34.9108C104.259 34.8154 104.243 34.7199 104.219 34.6245C104.147 34.2427 104.044 33.8689 103.909 33.511C103.774 33.1531 103.6 32.8031 103.393 32.477C103.187 32.1509 102.949 31.8487 102.687 31.5623C102.623 31.4908 102.552 31.4271 102.488 31.3555C102.424 31.284 102.345 31.2203 102.274 31.1567L102.162 31.0613L102.035 30.9499L101.773 30.7352L100.741 29.8603C97.9784 27.5219 95.2313 25.1756 92.4842 22.8134L88.3795 19.2661L86.3311 17.4845L85.823 17.0391L85.5927 16.8243L85.4657 16.713L85.3545 16.6175C85.0528 16.371 84.7352 16.1483 84.3859 15.9574C83.7031 15.5836 82.9409 15.337 82.1628 15.2416C81.9643 15.2177 81.7738 15.2018 81.5753 15.2018C81.48 15.2018 81.3768 15.2018 81.2815 15.2018C81.2339 15.2018 81.1704 15.2018 81.1148 15.2098L80.9481 15.2177L79.5904 15.2654L74.1677 15.4404L63.3303 15.7665L57.9076 15.9335L52.4849 16.1165L49.7775 16.2119L47.0701 16.3153C45.2679 16.3869 43.4576 16.4585 41.6554 16.538C38.0429 16.705 34.4304 16.88 30.8259 17.0709Z"/>
</mask>
<path d="M30.81 16.8323C34.4225 16.6494 38.027 16.4426 41.6395 16.2278C43.4418 16.1165 45.244 16.0051 47.0543 15.8858L49.7616 15.7108L52.469 15.5279L57.8758 15.1461L63.2826 14.7405L74.0883 13.9213L79.4952 13.5316L80.8449 13.4361L81.0116 13.4282C81.0672 13.4282 81.1228 13.4202 81.1863 13.4202C81.3133 13.4123 81.4403 13.4043 81.5674 13.4043C81.8214 13.4043 82.0755 13.4123 82.3296 13.4361C83.3617 13.5236 84.3621 13.8099 85.2751 14.2792C85.7356 14.5098 86.1644 14.7882 86.5693 15.1064L86.7201 15.2257L86.8551 15.337L87.1171 15.5518L87.6411 15.9813L89.7213 17.7231L93.8816 21.2068C96.6445 23.5372 99.4075 25.8835 102.155 28.2298L103.187 29.1126L103.441 29.3353L103.568 29.4467L103.711 29.5739C103.806 29.6614 103.901 29.7489 103.997 29.8444C104.084 29.9398 104.179 30.0273 104.266 30.1227C104.973 30.8863 105.521 31.793 105.878 32.7713C106.061 33.2565 106.188 33.7655 106.275 34.2745C106.299 34.4018 106.315 34.529 106.331 34.6563C106.347 34.7835 106.363 34.9108 106.363 35.046L106.37 35.2369L106.378 35.3323V35.4198L106.386 35.7618L106.45 38.474C106.791 52.9575 106.894 67.441 107.323 81.9245C107.426 85.5433 107.538 89.1622 107.673 92.7811L107.871 98.2054L108.085 103.63L108.316 109.054L108.379 110.414L108.395 110.756L108.403 110.931V111.114V111.297L108.395 111.48L108.387 111.663C108.387 111.727 108.379 111.782 108.371 111.846C108.3 112.808 108.03 113.763 107.601 114.63C106.736 116.371 105.18 117.755 103.33 118.4C102.869 118.559 102.393 118.678 101.908 118.75C101.789 118.765 101.662 118.781 101.543 118.789C101.424 118.805 101.297 118.805 101.178 118.813L101.083 118.821H100.995L100.829 118.829L100.487 118.845L97.7799 118.948L86.9424 119.362L81.5277 119.569L76.105 119.76C68.88 120.014 61.655 120.221 54.4301 120.428L43.5926 120.746L38.1699 120.905L35.4625 120.985L34.7797 121C34.6448 121 34.5177 121 34.3828 121L33.9858 120.977C33.4538 120.937 32.9298 120.841 32.4138 120.706C31.3896 120.42 30.413 119.935 29.5714 119.29C28.7298 118.638 28.0073 117.827 27.4674 116.904C26.9276 115.982 26.5703 114.956 26.4194 113.89L26.3718 113.492C26.3639 113.357 26.3559 113.23 26.348 113.095L26.3162 112.411L26.2606 111.05C26.1098 107.432 25.9748 103.813 25.8478 100.194C25.7128 96.575 25.5858 92.9561 25.4667 89.3372C25.3476 85.7183 25.2206 82.0994 25.1173 78.4805C24.895 71.2348 24.7521 63.9891 24.6251 56.7513C24.506 49.5056 24.4107 42.2679 24.2519 35.0221L24.1884 32.31L24.1249 29.5978L23.982 24.1575C23.9661 23.227 24.1328 22.3044 24.4663 21.4374C24.7998 20.5784 25.3 19.7751 25.9272 19.107C26.5544 18.431 27.3166 17.8822 28.1502 17.4924C28.9839 17.1027 29.889 16.88 30.81 16.8323ZM30.8259 17.0709C29.9366 17.1186 29.0633 17.3413 28.2614 17.7151C27.4516 18.1049 26.7211 18.6378 26.1257 19.29C25.5302 19.9421 25.0538 20.7136 24.7442 21.5488C24.4425 22.3759 24.2996 23.2667 24.3313 24.1496C24.4107 25.9551 24.506 27.7685 24.6013 29.5739L24.7442 32.2861L24.895 34.9983C25.3 42.2281 25.7684 49.4579 26.213 56.6877C26.6497 63.9175 27.0705 71.1473 27.4198 78.3851C27.5945 82.004 27.7533 85.6229 27.9121 89.2338C28.0788 92.8527 28.2296 96.4716 28.3805 100.09C28.5313 103.709 28.6743 107.328 28.8092 110.947L28.8569 112.307L28.8807 112.975C28.8886 113.071 28.8886 113.158 28.8966 113.254L28.9283 113.532C29.0315 114.264 29.2777 114.98 29.6429 115.624C30.016 116.268 30.5083 116.841 31.0958 117.294C31.6833 117.755 32.3582 118.097 33.0648 118.296C33.4221 118.4 33.7873 118.463 34.1605 118.495L34.4383 118.511C34.5336 118.511 34.6289 118.511 34.7162 118.511L35.3832 118.503L38.0905 118.455L43.5132 118.36L54.3586 118.177C61.5836 118.058 68.8165 117.922 76.0415 117.843L81.4642 117.779L86.8868 117.731L97.7322 117.644L100.44 117.62H100.781H100.948H101.035H101.114C101.218 117.612 101.321 117.62 101.424 117.604C101.527 117.596 101.631 117.588 101.734 117.58C102.147 117.533 102.552 117.445 102.949 117.318C103.742 117.063 104.481 116.658 105.124 116.117C105.767 115.584 106.299 114.916 106.696 114.176C107.093 113.437 107.339 112.617 107.418 111.774C107.426 111.719 107.434 111.671 107.434 111.615L107.442 111.456L107.45 111.297V111.138V110.979V110.812L107.442 110.47L107.411 109.11L107.268 103.678L107.109 98.2452L106.934 92.8129C106.815 89.194 106.688 85.5751 106.537 81.9563C105.973 67.4807 105.092 53.0211 104.449 38.5535L104.33 35.8414L104.314 35.4994V35.4119L104.306 35.3403L104.298 35.1971C104.298 35.1017 104.282 35.0062 104.266 34.9108C104.259 34.8154 104.243 34.7199 104.219 34.6245C104.147 34.2427 104.044 33.8689 103.909 33.511C103.774 33.1531 103.6 32.8031 103.393 32.477C103.187 32.1509 102.949 31.8487 102.687 31.5623C102.623 31.4908 102.552 31.4271 102.488 31.3555C102.424 31.284 102.345 31.2203 102.274 31.1567L102.162 31.0613L102.035 30.9499L101.773 30.7352L100.741 29.8603C97.9784 27.5219 95.2313 25.1756 92.4842 22.8134L88.3795 19.2661L86.3311 17.4845L85.823 17.0391L85.5927 16.8243L85.4657 16.713L85.3545 16.6175C85.0528 16.371 84.7352 16.1483 84.3859 15.9574C83.7031 15.5836 82.9409 15.337 82.1628 15.2416C81.9643 15.2177 81.7738 15.2018 81.5753 15.2018C81.48 15.2018 81.3768 15.2018 81.2815 15.2018C81.2339 15.2018 81.1704 15.2018 81.1148 15.2098L80.9481 15.2177L79.5904 15.2654L74.1677 15.4404L63.3303 15.7665L57.9076 15.9335L52.4849 16.1165L49.7775 16.2119L47.0701 16.3153C45.2679 16.3869 43.4576 16.4585 41.6554 16.538C38.0429 16.705 34.4304 16.88 30.8259 17.0709Z" fill="#001064"/>
<path d="M30.81 16.8323C34.4225 16.6494 38.027 16.4426 41.6395 16.2278C43.4418 16.1165 45.244 16.0051 47.0543 15.8858L49.7616 15.7108L52.469 15.5279L57.8758 15.1461L63.2826 14.7405L74.0883 13.9213L79.4952 13.5316L80.8449 13.4361L81.0116 13.4282C81.0672 13.4282 81.1228 13.4202 81.1863 13.4202C81.3133 13.4123 81.4403 13.4043 81.5674 13.4043C81.8214 13.4043 82.0755 13.4123 82.3296 13.4361C83.3617 13.5236 84.3621 13.8099 85.2751 14.2792C85.7356 14.5098 86.1644 14.7882 86.5693 15.1064L86.7201 15.2257L86.8551 15.337L87.1171 15.5518L87.6411 15.9813L89.7213 17.7231L93.8816 21.2068C96.6445 23.5372 99.4075 25.8835 102.155 28.2298L103.187 29.1126L103.441 29.3353L103.568 29.4467L103.711 29.5739C103.806 29.6614 103.901 29.7489 103.997 29.8444C104.084 29.9398 104.179 30.0273 104.266 30.1227C104.973 30.8863 105.521 31.793 105.878 32.7713C106.061 33.2565 106.188 33.7655 106.275 34.2745C106.299 34.4018 106.315 34.529 106.331 34.6563C106.347 34.7835 106.363 34.9108 106.363 35.046L106.37 35.2369L106.378 35.3323V35.4198L106.386 35.7618L106.45 38.474C106.791 52.9575 106.894 67.441 107.323 81.9245C107.426 85.5433 107.538 89.1622 107.673 92.7811L107.871 98.2054L108.085 103.63L108.316 109.054L108.379 110.414L108.395 110.756L108.403 110.931V111.114V111.297L108.395 111.48L108.387 111.663C108.387 111.727 108.379 111.782 108.371 111.846C108.3 112.808 108.03 113.763 107.601 114.63C106.736 116.371 105.18 117.755 103.33 118.4C102.869 118.559 102.393 118.678 101.908 118.75C101.789 118.765 101.662 118.781 101.543 118.789C101.424 118.805 101.297 118.805 101.178 118.813L101.083 118.821H100.995L100.829 118.829L100.487 118.845L97.7799 118.948L86.9424 119.362L81.5277 119.569L76.105 119.76C68.88 120.014 61.655 120.221 54.4301 120.428L43.5926 120.746L38.1699 120.905L35.4625 120.985L34.7797 121C34.6448 121 34.5177 121 34.3828 121L33.9858 120.977C33.4538 120.937 32.9298 120.841 32.4138 120.706C31.3896 120.42 30.413 119.935 29.5714 119.29C28.7298 118.638 28.0073 117.827 27.4674 116.904C26.9276 115.982 26.5703 114.956 26.4194 113.89L26.3718 113.492C26.3639 113.357 26.3559 113.23 26.348 113.095L26.3162 112.411L26.2606 111.05C26.1098 107.432 25.9748 103.813 25.8478 100.194C25.7128 96.575 25.5858 92.9561 25.4667 89.3372C25.3476 85.7183 25.2206 82.0994 25.1173 78.4805C24.895 71.2348 24.7521 63.9891 24.6251 56.7513C24.506 49.5056 24.4107 42.2679 24.2519 35.0221L24.1884 32.31L24.1249 29.5978L23.982 24.1575C23.9661 23.227 24.1328 22.3044 24.4663 21.4374C24.7998 20.5784 25.3 19.7751 25.9272 19.107C26.5544 18.431 27.3166 17.8822 28.1502 17.4924C28.9839 17.1027 29.889 16.88 30.81 16.8323ZM30.8259 17.0709C29.9366 17.1186 29.0633 17.3413 28.2614 17.7151C27.4516 18.1049 26.7211 18.6378 26.1257 19.29C25.5302 19.9421 25.0538 20.7136 24.7442 21.5488C24.4425 22.3759 24.2996 23.2667 24.3313 24.1496C24.4107 25.9551 24.506 27.7685 24.6013 29.5739L24.7442 32.2861L24.895 34.9983C25.3 42.2281 25.7684 49.4579 26.213 56.6877C26.6497 63.9175 27.0705 71.1473 27.4198 78.3851C27.5945 82.004 27.7533 85.6229 27.9121 89.2338C28.0788 92.8527 28.2296 96.4716 28.3805 100.09C28.5313 103.709 28.6743 107.328 28.8092 110.947L28.8569 112.307L28.8807 112.975C28.8886 113.071 28.8886 113.158 28.8966 113.254L28.9283 113.532C29.0315 114.264 29.2777 114.98 29.6429 115.624C30.016 116.268 30.5083 116.841 31.0958 117.294C31.6833 117.755 32.3582 118.097 33.0648 118.296C33.4221 118.4 33.7873 118.463 34.1605 118.495L34.4383 118.511C34.5336 118.511 34.6289 118.511 34.7162 118.511L35.3832 118.503L38.0905 118.455L43.5132 118.36L54.3586 118.177C61.5836 118.058 68.8165 117.922 76.0415 117.843L81.4642 117.779L86.8868 117.731L97.7322 117.644L100.44 117.62H100.781H100.948H101.035H101.114C101.218 117.612 101.321 117.62 101.424 117.604C101.527 117.596 101.631 117.588 101.734 117.58C102.147 117.533 102.552 117.445 102.949 117.318C103.742 117.063 104.481 116.658 105.124 116.117C105.767 115.584 106.299 114.916 106.696 114.176C107.093 113.437 107.339 112.617 107.418 111.774C107.426 111.719 107.434 111.671 107.434 111.615L107.442 111.456L107.45 111.297V111.138V110.979V110.812L107.442 110.47L107.411 109.11L107.268 103.678L107.109 98.2452L106.934 92.8129C106.815 89.194 106.688 85.5751 106.537 81.9563C105.973 67.4807 105.092 53.0211 104.449 38.5535L104.33 35.8414L104.314 35.4994V35.4119L104.306 35.3403L104.298 35.1971C104.298 35.1017 104.282 35.0062 104.266 34.9108C104.259 34.8154 104.243 34.7199 104.219 34.6245C104.147 34.2427 104.044 33.8689 103.909 33.511C103.774 33.1531 103.6 32.8031 103.393 32.477C103.187 32.1509 102.949 31.8487 102.687 31.5623C102.623 31.4908 102.552 31.4271 102.488 31.3555C102.424 31.284 102.345 31.2203 102.274 31.1567L102.162 31.0613L102.035 30.9499L101.773 30.7352L100.741 29.8603C97.9784 27.5219 95.2313 25.1756 92.4842 22.8134L88.3795 19.2661L86.3311 17.4845L85.823 17.0391L85.5927 16.8243L85.4657 16.713L85.3545 16.6175C85.0528 16.371 84.7352 16.1483 84.3859 15.9574C83.7031 15.5836 82.9409 15.337 82.1628 15.2416C81.9643 15.2177 81.7738 15.2018 81.5753 15.2018C81.48 15.2018 81.3768 15.2018 81.2815 15.2018C81.2339 15.2018 81.1704 15.2018 81.1148 15.2098L80.9481 15.2177L79.5904 15.2654L74.1677 15.4404L63.3303 15.7665L57.9076 15.9335L52.4849 16.1165L49.7775 16.2119L47.0701 16.3153C45.2679 16.3869 43.4576 16.4585 41.6554 16.538C38.0429 16.705 34.4304 16.88 30.8259 17.0709Z" stroke="#001064" stroke-width="2" mask="url(#path-3-outside-1)"/>
<path d="M81.1861 14.3184C81.4243 15.1137 81.6227 15.9091 81.8212 16.7044C82.0197 17.4998 82.2023 18.3031 82.377 19.1064C82.7263 20.7051 83.0439 22.3117 83.3456 23.9263L83.56 25.1352C83.6314 25.5409 83.695 25.9385 83.7664 26.3442C83.8299 26.7498 83.9014 27.1475 83.9649 27.5531L84.0125 27.8554L84.0284 27.9269L84.0443 27.9906L84.0681 28.1178C84.084 28.2053 84.0999 28.2849 84.1237 28.3723L84.1555 28.4996C84.1634 28.5394 84.1793 28.5791 84.1872 28.6269C84.5524 29.9551 85.3702 31.1322 86.4579 31.9515C86.7279 32.1583 87.0216 32.3412 87.3233 32.5003C87.625 32.6593 87.9347 32.7945 88.2602 32.9059C88.9033 33.1206 89.5861 33.224 90.2768 33.232L90.5388 33.224L90.8405 33.2081L91.4519 33.1843C91.8568 33.1684 92.2697 33.1525 92.6746 33.1365L93.8973 33.0968L95.1199 33.0491C96.7555 33.0172 98.3831 33.0013 100.027 33.0331C100.844 33.0491 101.662 33.065 102.488 33.1047C103.306 33.1365 104.131 33.1843 104.949 33.2479C104.147 33.4388 103.337 33.6058 102.535 33.7649C101.734 33.9239 100.924 34.0671 100.114 34.2023C98.5022 34.4727 96.8825 34.7114 95.2629 34.9181L94.0481 35.0772L92.8334 35.2204C92.4284 35.2681 92.0235 35.3158 91.6186 35.3556L91.0073 35.4192L90.7056 35.451L90.3562 35.4749C89.4194 35.5226 88.4587 35.4113 87.5536 35.1329C87.101 34.9897 86.6564 34.8147 86.2356 34.6C85.8148 34.3853 85.4099 34.1307 85.0288 33.8444C83.5124 32.6991 82.4088 31.005 82.0038 29.1598C81.988 29.1041 81.98 29.0484 81.9641 28.9848L81.9324 28.8098C81.9086 28.6905 81.8927 28.5791 81.8768 28.4598L81.853 28.2849L81.845 28.1974L81.8371 28.1178L81.8053 27.8156C81.7657 27.41 81.7339 27.0043 81.6942 26.5907C81.6624 26.1851 81.6227 25.7795 81.591 25.3659L81.4957 24.141C81.3766 22.5106 81.2813 20.8721 81.2258 19.2337C81.2019 18.4145 81.1781 17.5952 81.1702 16.7681C81.1622 15.9648 81.1543 15.1376 81.1861 14.3184Z" fill="#001064"/>
<rect x="1.25726" y="1.24144" width="48.9624" height="21.8172" rx="3.86771" transform="matrix(0.999977 -0.00682713 0.00582922 0.999983 39.0021 84.0106)" fill="#001064" stroke="#001064" stroke-width="2.5"/>
<rect x="1.43335" y="1.57439" width="48.4718" height="21.3134" rx="3.61771" transform="matrix(0.998723 0.0505252 -0.0431547 0.999068 44.2485 77.5316)" fill="#FEF6E7" stroke="#001064" stroke-width="3"/>
<path d="M81.4416 80.7012C81.4416 81.9144 81.11 83.1038 81.11 84.2999C81.11 84.9744 80.9995 86.9956 80.9995 86.321" stroke="#001064" stroke-width="2" stroke-linecap="round" stroke-linejoin="round"/>
<path d="M80.5422 89.999C80.5422 90.4355 80.578 90.8843 80.5375 91.3197C80.511 91.605 80.3712 91.8952 80.3712 92.1787C80.3712 92.565 80.4098 92.96 80.3047 93.3367C80.2319 93.598 80.3499 95.2183 80.1147 95.312" stroke="#001064" stroke-width="2" stroke-linecap="round" stroke-linejoin="round"/>
<path d="M80.1144 97.9688C80.0907 98.9114 79.8934 99.826 79.8934 100.771C79.8934 101.461 79.6724 102.139 79.6724 102.839" stroke="#001064" stroke-width="2" stroke-linecap="round" stroke-linejoin="round"/>
<path d="M96.911 75.6102L91.165 80.0377L90.2811 80.7019L90.0601 82.0301L90.944 83.3584L92.491 83.5797L94.48 84.0225V85.3507L94.701 86.4576L95.806 87.3431L95.585 88.6714L95.806 90.221L96.911 90.4424L98.237 90.221L99.7839 89.1141L100.005 89.7782L100.668 90.6637H102.657L104.425 89.9996L105.088 89.1141L105.972 88.8927L115.917 90.221L121 91.1065L124.757 91.3279H129.619L138.9 89.1141L142.657 89.5569L145.53 89.1141L146.635 88.0072L147.519 84.4652V78.2667L146.635 76.2744L145.751 75.6102L139.342 73.8392L133.597 72.0682L119.895 66.3125H118.348L114.591 66.9766L106.193 69.6331L101.11 72.0682L96.911 75.6102Z" fill="white"/>
<mask id="path-11-outside-2" maskUnits="userSpaceOnUse" x="78.4602" y="61.5466" width="71.8859" height="34.6162" fill="black">
<rect fill="white" x="78.4602" y="61.5466" width="71.8859" height="34.6162"/>
<path d="M147.561 78.7378C147.523 77.4807 147.373 76.0067 146.749 74.918C146.092 73.827 145.259 73.804 144.064 73.721C141.478 73.5066 138.958 72.9831 136.506 72.1159C136.41 72.0744 136.314 72.0329 136.247 72.0283C137.636 71.5323 139.053 71.0732 140.442 70.5772C141.62 70.1712 142.971 69.7075 144.097 69.1585C146.206 68.155 144.997 66.259 143.204 67.1103C142.468 67.4424 141.666 67.77 140.903 68.0307C139.202 68.6443 137.471 69.2211 135.737 69.8324C134.802 70.1507 133.867 70.4691 132.935 70.7529C131.236 70.0425 129.573 69.2998 127.904 68.6264C125.755 67.7453 123.635 66.9012 121.482 66.0547C120.196 65.5473 119.402 65.1437 118.072 65.3998C112.655 66.3826 106.959 68.4611 102.181 71.37C98.1161 73.8406 94.6549 76.9454 91.1463 80.1864C90.4292 80.6593 89.9824 81.4297 89.9374 82.1932C89.8936 82.2947 89.8829 82.3985 89.9422 82.4723C89.9531 83.3442 90.4428 84.11 91.4873 84.3567L91.5205 84.3591C90.2059 84.7904 88.9244 85.2241 87.6429 85.6578C86.2915 86.1215 84.8807 86.5114 83.5483 87.1158C82.8785 87.4526 80.6703 89.4249 80.6703 89.4249C80.6703 89.4249 83.6862 89.3555 84.4047 89.1963C88.2362 88.3473 89.7108 87.3347 92.3401 86.4719C92.9957 86.2735 93.6548 86.0405 94.2772 85.8398C94.0698 86.5572 94.1945 87.2976 94.9485 87.7681C95.1371 87.8857 95.3256 88.0034 95.5177 88.0864C94.8729 89.1567 94.6065 90.776 95.8111 91.4172C97.2043 92.176 98.5164 91.1172 99.5299 90.0376C99.415 90.8311 99.8455 91.5231 100.86 91.7329C102.429 92.0858 104.314 91.3107 105.23 89.8759C107.51 90.1388 109.793 90.3671 112.073 90.6299C115.839 91.0657 119.553 92.0205 123.358 92.0757C128.565 92.1585 133.752 90.8112 138.828 89.5608C140.834 89.5608 144.72 90.4579 146.109 88.3242C146.787 87.2562 146.947 85.6992 147.138 84.4928C147.499 82.6014 147.631 80.6592 147.561 78.7378ZM91.5507 80.8068L91.5874 80.7746C91.5874 80.7746 91.6206 80.7769 91.6242 80.7423C92.4397 79.9626 93.2517 79.2175 94.0968 78.4747C94.5049 80.0363 92.0857 82.7605 90.6487 82.1032C90.6949 81.6534 90.9805 81.1506 91.5507 80.8068ZM90.8291 82.952C92.9062 83.2357 95.4818 79.9648 94.6515 77.9557C98.8702 74.3111 103.286 71.0286 108.496 69.1254C111.515 68.0458 114.564 67.003 117.681 66.2786C119.291 65.9026 120.303 66.4607 121.814 67.0535C124.066 67.9068 126.279 68.8271 128.524 69.7497C129.647 70.2109 130.766 70.7068 131.893 71.1335C127.842 72.49 123.758 73.8441 119.678 75.1637C118.433 75.5651 117.151 75.9988 115.907 76.4002C114.184 76.2457 112.483 75.8836 110.859 75.4224C110.467 75.3255 110.294 75.3832 109.941 75.5677C108.712 76.1444 107.456 76.6496 106.201 77.1548C104.563 77.8077 101.689 78.4444 97.6752 80.7443C96.0085 81.674 94.4948 83.0672 92.6383 83.5655C91.8097 83.8216 91.141 83.4964 90.8291 82.952ZM120.201 77.8832C119.423 77.9685 118.649 78.0193 117.901 78.1416C118.557 77.9432 119.216 77.7102 119.871 77.5118C119.964 77.5879 120.086 77.7009 120.201 77.8832ZM104.622 82.4463C105.936 82.0149 107.284 81.5858 108.599 81.1544C109.774 80.783 110.985 80.3793 112.16 80.0079C110.817 80.7161 109.526 81.5673 108.338 82.3908C107.099 82.4093 105.864 82.3932 104.622 82.4463ZM102.5 79.3371C104.75 78.5873 106.951 77.66 109.12 76.7303C109.609 76.5204 110.099 76.3105 110.592 76.0659C110.345 76.1882 110.641 76.2435 110.969 76.3012C109.154 77.0463 107.396 78.2135 105.912 79.6437C103.769 80.3312 101.622 81.0532 99.4786 81.7407C100.055 81.0141 100.69 80.3613 101.288 79.7408C101.705 79.5954 102.117 79.4847 102.5 79.3371ZM112.375 76.6079C112.999 76.7209 113.622 76.8339 114.246 76.9469C112.069 77.6321 109.923 78.3541 107.746 79.0393C109.161 77.9528 110.755 77.0878 112.375 76.6079ZM114.843 79.6018C116.628 78.8198 118.774 78.7597 120.665 78.5774C120.95 79.0503 121.207 79.4862 121.316 80.0513C117.72 81.8576 113.736 82.243 109.713 82.3469C111.361 81.2766 113.091 80.3861 114.843 79.6018ZM96.3548 82.5343C97.3221 81.9046 98.2597 81.2379 99.2235 80.6428C99.4036 80.5159 99.5803 80.4236 99.7569 80.3313C99.2318 80.8873 98.766 81.517 98.3002 82.1467C97.4016 82.4328 96.5362 82.7211 95.6377 83.0072C95.8878 82.8503 96.1047 82.6912 96.3548 82.5343ZM95.2824 85.4914C96.251 85.1754 97.2527 84.8617 98.2248 84.511C99.0037 84.7393 99.6618 85.1683 99.3999 86.091C99.1345 87.0483 97.3729 87.2744 96.5964 87.6735C96.1791 87.5051 95.7949 87.339 95.4143 87.1384C94.7196 86.7417 94.8901 86.0566 95.2824 85.4914ZM96.8009 90.8935C95.3593 90.9328 95.6696 89.212 96.2231 88.3793C97.2202 88.7622 98.3347 88.9789 99.423 89.1242C98.7035 89.9454 97.8371 90.8958 96.8009 90.8935ZM101.665 91.0571C101.23 91.0617 100.769 90.9948 100.429 90.7273C99.933 90.3444 100.436 89.6824 100.707 89.3179C101.035 89.3756 101.401 89.4009 101.696 89.4563C102.585 89.5877 103.511 89.6869 104.4 89.8183C103.717 90.6072 102.705 91.0247 101.665 91.0571ZM137.363 89.1803C134.449 89.8839 131.538 90.553 128.586 90.9752C123.7 91.6813 119.305 90.8534 114.56 90.1754C111.003 89.6496 107.422 89.3661 103.891 88.9118C101.977 88.6743 99.7157 88.5522 97.7334 87.9963C98.7754 87.6157 100.02 87.2143 100.171 86.0748C100.307 85.0737 99.8952 84.5225 99.2632 84.165C100.232 83.8489 101.2 83.5329 102.169 83.2168C102.641 83.1799 103.112 83.143 103.618 83.1084C103.714 83.1499 103.813 83.1568 103.92 83.0945C105.465 83.0275 107.006 82.9952 108.547 82.9628C108.613 82.9674 108.68 82.9721 108.75 82.9421C112.702 82.8681 116.665 82.6903 120.494 81.2139C120.98 81.0386 121.44 80.7918 121.9 80.5449C122.007 80.4827 122.084 80.3835 122.091 80.3143C122.098 80.2451 122.102 80.2105 122.109 80.1413C121.994 78.9833 121.315 78.0999 120.711 77.1519C125.553 75.5717 130.363 73.9892 135.176 72.372C136.723 72.9325 138.277 73.4237 139.879 73.7789C140.015 77.3426 139.708 80.9801 139.31 84.5416C139.221 85.4066 139.099 86.2693 138.94 87.1642C138.699 88.5413 138.7 88.855 137.363 89.1803ZM146.52 83.9969C146.319 85.3071 146.196 87.8075 144.912 88.5895C143.558 89.4015 140.975 88.8388 139.504 88.8411C139.437 88.8365 139.371 88.8319 139.338 88.8296C140.025 86.3684 140.195 83.7319 140.384 81.2362C140.563 78.8442 140.712 76.4153 140.658 74.0072C141.739 74.2217 142.857 74.4038 144.015 74.5191C144.812 74.5744 145.52 74.519 146.05 75.2179C146.554 75.8453 146.654 76.8279 146.771 77.6376C147.026 79.7112 146.799 81.9256 146.52 83.9969Z"/>
</mask>
<path d="M147.561 78.7378C147.523 77.4807 147.373 76.0067 146.749 74.918C146.092 73.827 145.259 73.804 144.064 73.721C141.478 73.5066 138.958 72.9831 136.506 72.1159C136.41 72.0744 136.314 72.0329 136.247 72.0283C137.636 71.5323 139.053 71.0732 140.442 70.5772C141.62 70.1712 142.971 69.7075 144.097 69.1585C146.206 68.155 144.997 66.259 143.204 67.1103C142.468 67.4424 141.666 67.77 140.903 68.0307C139.202 68.6443 137.471 69.2211 135.737 69.8324C134.802 70.1507 133.867 70.4691 132.935 70.7529C131.236 70.0425 129.573 69.2998 127.904 68.6264C125.755 67.7453 123.635 66.9012 121.482 66.0547C120.196 65.5473 119.402 65.1437 118.072 65.3998C112.655 66.3826 106.959 68.4611 102.181 71.37C98.1161 73.8406 94.6549 76.9454 91.1463 80.1864C90.4292 80.6593 89.9824 81.4297 89.9374 82.1932C89.8936 82.2947 89.8829 82.3985 89.9422 82.4723C89.9531 83.3442 90.4428 84.11 91.4873 84.3567L91.5205 84.3591C90.2059 84.7904 88.9244 85.2241 87.6429 85.6578C86.2915 86.1215 84.8807 86.5114 83.5483 87.1158C82.8785 87.4526 80.6703 89.4249 80.6703 89.4249C80.6703 89.4249 83.6862 89.3555 84.4047 89.1963C88.2362 88.3473 89.7108 87.3347 92.3401 86.4719C92.9957 86.2735 93.6548 86.0405 94.2772 85.8398C94.0698 86.5572 94.1945 87.2976 94.9485 87.7681C95.1371 87.8857 95.3256 88.0034 95.5177 88.0864C94.8729 89.1567 94.6065 90.776 95.8111 91.4172C97.2043 92.176 98.5164 91.1172 99.5299 90.0376C99.415 90.8311 99.8455 91.5231 100.86 91.7329C102.429 92.0858 104.314 91.3107 105.23 89.8759C107.51 90.1388 109.793 90.3671 112.073 90.6299C115.839 91.0657 119.553 92.0205 123.358 92.0757C128.565 92.1585 133.752 90.8112 138.828 89.5608C140.834 89.5608 144.72 90.4579 146.109 88.3242C146.787 87.2562 146.947 85.6992 147.138 84.4928C147.499 82.6014 147.631 80.6592 147.561 78.7378ZM91.5507 80.8068L91.5874 80.7746C91.5874 80.7746 91.6206 80.7769 91.6242 80.7423C92.4397 79.9626 93.2517 79.2175 94.0968 78.4747C94.5049 80.0363 92.0857 82.7605 90.6487 82.1032C90.6949 81.6534 90.9805 81.1506 91.5507 80.8068ZM90.8291 82.952C92.9062 83.2357 95.4818 79.9648 94.6515 77.9557C98.8702 74.3111 103.286 71.0286 108.496 69.1254C111.515 68.0458 114.564 67.003 117.681 66.2786C119.291 65.9026 120.303 66.4607 121.814 67.0535C124.066 67.9068 126.279 68.8271 128.524 69.7497C129.647 70.2109 130.766 70.7068 131.893 71.1335C127.842 72.49 123.758 73.8441 119.678 75.1637C118.433 75.5651 117.151 75.9988 115.907 76.4002C114.184 76.2457 112.483 75.8836 110.859 75.4224C110.467 75.3255 110.294 75.3832 109.941 75.5677C108.712 76.1444 107.456 76.6496 106.201 77.1548C104.563 77.8077 101.689 78.4444 97.6752 80.7443C96.0085 81.674 94.4948 83.0672 92.6383 83.5655C91.8097 83.8216 91.141 83.4964 90.8291 82.952ZM120.201 77.8832C119.423 77.9685 118.649 78.0193 117.901 78.1416C118.557 77.9432 119.216 77.7102 119.871 77.5118C119.964 77.5879 120.086 77.7009 120.201 77.8832ZM104.622 82.4463C105.936 82.0149 107.284 81.5858 108.599 81.1544C109.774 80.783 110.985 80.3793 112.16 80.0079C110.817 80.7161 109.526 81.5673 108.338 82.3908C107.099 82.4093 105.864 82.3932 104.622 82.4463ZM102.5 79.3371C104.75 78.5873 106.951 77.66 109.12 76.7303C109.609 76.5204 110.099 76.3105 110.592 76.0659C110.345 76.1882 110.641 76.2435 110.969 76.3012C109.154 77.0463 107.396 78.2135 105.912 79.6437C103.769 80.3312 101.622 81.0532 99.4786 81.7407C100.055 81.0141 100.69 80.3613 101.288 79.7408C101.705 79.5954 102.117 79.4847 102.5 79.3371ZM112.375 76.6079C112.999 76.7209 113.622 76.8339 114.246 76.9469C112.069 77.6321 109.923 78.3541 107.746 79.0393C109.161 77.9528 110.755 77.0878 112.375 76.6079ZM114.843 79.6018C116.628 78.8198 118.774 78.7597 120.665 78.5774C120.95 79.0503 121.207 79.4862 121.316 80.0513C117.72 81.8576 113.736 82.243 109.713 82.3469C111.361 81.2766 113.091 80.3861 114.843 79.6018ZM96.3548 82.5343C97.3221 81.9046 98.2597 81.2379 99.2235 80.6428C99.4036 80.5159 99.5803 80.4236 99.7569 80.3313C99.2318 80.8873 98.766 81.517 98.3002 82.1467C97.4016 82.4328 96.5362 82.7211 95.6377 83.0072C95.8878 82.8503 96.1047 82.6912 96.3548 82.5343ZM95.2824 85.4914C96.251 85.1754 97.2527 84.8617 98.2248 84.511C99.0037 84.7393 99.6618 85.1683 99.3999 86.091C99.1345 87.0483 97.3729 87.2744 96.5964 87.6735C96.1791 87.5051 95.7949 87.339 95.4143 87.1384C94.7196 86.7417 94.8901 86.0566 95.2824 85.4914ZM96.8009 90.8935C95.3593 90.9328 95.6696 89.212 96.2231 88.3793C97.2202 88.7622 98.3347 88.9789 99.423 89.1242C98.7035 89.9454 97.8371 90.8958 96.8009 90.8935ZM101.665 91.0571C101.23 91.0617 100.769 90.9948 100.429 90.7273C99.933 90.3444 100.436 89.6824 100.707 89.3179C101.035 89.3756 101.401 89.4009 101.696 89.4563C102.585 89.5877 103.511 89.6869 104.4 89.8183C103.717 90.6072 102.705 91.0247 101.665 91.0571ZM137.363 89.1803C134.449 89.8839 131.538 90.553 128.586 90.9752C123.7 91.6813 119.305 90.8534 114.56 90.1754C111.003 89.6496 107.422 89.3661 103.891 88.9118C101.977 88.6743 99.7157 88.5522 97.7334 87.9963C98.7754 87.6157 100.02 87.2143 100.171 86.0748C100.307 85.0737 99.8952 84.5225 99.2632 84.165C100.232 83.8489 101.2 83.5329 102.169 83.2168C102.641 83.1799 103.112 83.143 103.618 83.1084C103.714 83.1499 103.813 83.1568 103.92 83.0945C105.465 83.0275 107.006 82.9952 108.547 82.9628C108.613 82.9674 108.68 82.9721 108.75 82.9421C112.702 82.8681 116.665 82.6903 120.494 81.2139C120.98 81.0386 121.44 80.7918 121.9 80.5449C122.007 80.4827 122.084 80.3835 122.091 80.3143C122.098 80.2451 122.102 80.2105 122.109 80.1413C121.994 78.9833 121.315 78.0999 120.711 77.1519C125.553 75.5717 130.363 73.9892 135.176 72.372C136.723 72.9325 138.277 73.4237 139.879 73.7789C140.015 77.3426 139.708 80.9801 139.31 84.5416C139.221 85.4066 139.099 86.2693 138.94 87.1642C138.699 88.5413 138.7 88.855 137.363 89.1803ZM146.52 83.9969C146.319 85.3071 146.196 87.8075 144.912 88.5895C143.558 89.4015 140.975 88.8388 139.504 88.8411C139.437 88.8365 139.371 88.8319 139.338 88.8296C140.025 86.3684 140.195 83.7319 140.384 81.2362C140.563 78.8442 140.712 76.4153 140.658 74.0072C141.739 74.2217 142.857 74.4038 144.015 74.5191C144.812 74.5744 145.52 74.519 146.05 75.2179C146.554 75.8453 146.654 76.8279 146.771 77.6376C147.026 79.7112 146.799 81.9256 146.52 83.9969Z" fill="#001064"/>
<path d="M147.561 78.7378C147.523 77.4807 147.373 76.0067 146.749 74.918C146.092 73.827 145.259 73.804 144.064 73.721C141.478 73.5066 138.958 72.9831 136.506 72.1159C136.41 72.0744 136.314 72.0329 136.247 72.0283C137.636 71.5323 139.053 71.0732 140.442 70.5772C141.62 70.1712 142.971 69.7075 144.097 69.1585C146.206 68.155 144.997 66.259 143.204 67.1103C142.468 67.4424 141.666 67.77 140.903 68.0307C139.202 68.6443 137.471 69.2211 135.737 69.8324C134.802 70.1507 133.867 70.4691 132.935 70.7529C131.236 70.0425 129.573 69.2998 127.904 68.6264C125.755 67.7453 123.635 66.9012 121.482 66.0547C120.196 65.5473 119.402 65.1437 118.072 65.3998C112.655 66.3826 106.959 68.4611 102.181 71.37C98.1161 73.8406 94.6549 76.9454 91.1463 80.1864C90.4292 80.6593 89.9824 81.4297 89.9374 82.1932C89.8936 82.2947 89.8829 82.3985 89.9422 82.4723C89.9531 83.3442 90.4428 84.11 91.4873 84.3567L91.5205 84.3591C90.2059 84.7904 88.9244 85.2241 87.6429 85.6578C86.2915 86.1215 84.8807 86.5114 83.5483 87.1158C82.8785 87.4526 80.6703 89.4249 80.6703 89.4249C80.6703 89.4249 83.6862 89.3555 84.4047 89.1963C88.2362 88.3473 89.7108 87.3347 92.3401 86.4719C92.9957 86.2735 93.6548 86.0405 94.2772 85.8398C94.0698 86.5572 94.1945 87.2976 94.9485 87.7681C95.1371 87.8857 95.3256 88.0034 95.5177 88.0864C94.8729 89.1567 94.6065 90.776 95.8111 91.4172C97.2043 92.176 98.5164 91.1172 99.5299 90.0376C99.415 90.8311 99.8455 91.5231 100.86 91.7329C102.429 92.0858 104.314 91.3107 105.23 89.8759C107.51 90.1388 109.793 90.3671 112.073 90.6299C115.839 91.0657 119.553 92.0205 123.358 92.0757C128.565 92.1585 133.752 90.8112 138.828 89.5608C140.834 89.5608 144.72 90.4579 146.109 88.3242C146.787 87.2562 146.947 85.6992 147.138 84.4928C147.499 82.6014 147.631 80.6592 147.561 78.7378ZM91.5507 80.8068L91.5874 80.7746C91.5874 80.7746 91.6206 80.7769 91.6242 80.7423C92.4397 79.9626 93.2517 79.2175 94.0968 78.4747C94.5049 80.0363 92.0857 82.7605 90.6487 82.1032C90.6949 81.6534 90.9805 81.1506 91.5507 80.8068ZM90.8291 82.952C92.9062 83.2357 95.4818 79.9648 94.6515 77.9557C98.8702 74.3111 103.286 71.0286 108.496 69.1254C111.515 68.0458 114.564 67.003 117.681 66.2786C119.291 65.9026 120.303 66.4607 121.814 67.0535C124.066 67.9068 126.279 68.8271 128.524 69.7497C129.647 70.2109 130.766 70.7068 131.893 71.1335C127.842 72.49 123.758 73.8441 119.678 75.1637C118.433 75.5651 117.151 75.9988 115.907 76.4002C114.184 76.2457 112.483 75.8836 110.859 75.4224C110.467 75.3255 110.294 75.3832 109.941 75.5677C108.712 76.1444 107.456 76.6496 106.201 77.1548C104.563 77.8077 101.689 78.4444 97.6752 80.7443C96.0085 81.674 94.4948 83.0672 92.6383 83.5655C91.8097 83.8216 91.141 83.4964 90.8291 82.952ZM120.201 77.8832C119.423 77.9685 118.649 78.0193 117.901 78.1416C118.557 77.9432 119.216 77.7102 119.871 77.5118C119.964 77.5879 120.086 77.7009 120.201 77.8832ZM104.622 82.4463C105.936 82.0149 107.284 81.5858 108.599 81.1544C109.774 80.783 110.985 80.3793 112.16 80.0079C110.817 80.7161 109.526 81.5673 108.338 82.3908C107.099 82.4093 105.864 82.3932 104.622 82.4463ZM102.5 79.3371C104.75 78.5873 106.951 77.66 109.12 76.7303C109.609 76.5204 110.099 76.3105 110.592 76.0659C110.345 76.1882 110.641 76.2435 110.969 76.3012C109.154 77.0463 107.396 78.2135 105.912 79.6437C103.769 80.3312 101.622 81.0532 99.4786 81.7407C100.055 81.0141 100.69 80.3613 101.288 79.7408C101.705 79.5954 102.117 79.4847 102.5 79.3371ZM112.375 76.6079C112.999 76.7209 113.622 76.8339 114.246 76.9469C112.069 77.6321 109.923 78.3541 107.746 79.0393C109.161 77.9528 110.755 77.0878 112.375 76.6079ZM114.843 79.6018C116.628 78.8198 118.774 78.7597 120.665 78.5774C120.95 79.0503 121.207 79.4862 121.316 80.0513C117.72 81.8576 113.736 82.243 109.713 82.3469C111.361 81.2766 113.091 80.3861 114.843 79.6018ZM96.3548 82.5343C97.3221 81.9046 98.2597 81.2379 99.2235 80.6428C99.4036 80.5159 99.5803 80.4236 99.7569 80.3313C99.2318 80.8873 98.766 81.517 98.3002 82.1467C97.4016 82.4328 96.5362 82.7211 95.6377 83.0072C95.8878 82.8503 96.1047 82.6912 96.3548 82.5343ZM95.2824 85.4914C96.251 85.1754 97.2527 84.8617 98.2248 84.511C99.0037 84.7393 99.6618 85.1683 99.3999 86.091C99.1345 87.0483 97.3729 87.2744 96.5964 87.6735C96.1791 87.5051 95.7949 87.339 95.4143 87.1384C94.7196 86.7417 94.8901 86.0566 95.2824 85.4914ZM96.8009 90.8935C95.3593 90.9328 95.6696 89.212 96.2231 88.3793C97.2202 88.7622 98.3347 88.9789 99.423 89.1242C98.7035 89.9454 97.8371 90.8958 96.8009 90.8935ZM101.665 91.0571C101.23 91.0617 100.769 90.9948 100.429 90.7273C99.933 90.3444 100.436 89.6824 100.707 89.3179C101.035 89.3756 101.401 89.4009 101.696 89.4563C102.585 89.5877 103.511 89.6869 104.4 89.8183C103.717 90.6072 102.705 91.0247 101.665 91.0571ZM137.363 89.1803C134.449 89.8839 131.538 90.553 128.586 90.9752C123.7 91.6813 119.305 90.8534 114.56 90.1754C111.003 89.6496 107.422 89.3661 103.891 88.9118C101.977 88.6743 99.7157 88.5522 97.7334 87.9963C98.7754 87.6157 100.02 87.2143 100.171 86.0748C100.307 85.0737 99.8952 84.5225 99.2632 84.165C100.232 83.8489 101.2 83.5329 102.169 83.2168C102.641 83.1799 103.112 83.143 103.618 83.1084C103.714 83.1499 103.813 83.1568 103.92 83.0945C105.465 83.0275 107.006 82.9952 108.547 82.9628C108.613 82.9674 108.68 82.9721 108.75 82.9421C112.702 82.8681 116.665 82.6903 120.494 81.2139C120.98 81.0386 121.44 80.7918 121.9 80.5449C122.007 80.4827 122.084 80.3835 122.091 80.3143C122.098 80.2451 122.102 80.2105 122.109 80.1413C121.994 78.9833 121.315 78.0999 120.711 77.1519C125.553 75.5717 130.363 73.9892 135.176 72.372C136.723 72.9325 138.277 73.4237 139.879 73.7789C140.015 77.3426 139.708 80.9801 139.31 84.5416C139.221 85.4066 139.099 86.2693 138.94 87.1642C138.699 88.5413 138.7 88.855 137.363 89.1803ZM146.52 83.9969C146.319 85.3071 146.196 87.8075 144.912 88.5895C143.558 89.4015 140.975 88.8388 139.504 88.8411C139.437 88.8365 139.371 88.8319 139.338 88.8296C140.025 86.3684 140.195 83.7319 140.384 81.2362C140.563 78.8442 140.712 76.4153 140.658 74.0072C141.739 74.2217 142.857 74.4038 144.015 74.5191C144.812 74.5744 145.52 74.519 146.05 75.2179C146.554 75.8453 146.654 76.8279 146.771 77.6376C147.026 79.7112 146.799 81.9256 146.52 83.9969Z" stroke="#001064" stroke-width="0.8" mask="url(#path-11-outside-2)"/>
<path d="M26.1916 5.2121L27.7386 2.5556L28.1806 2.33423L29.9486 1.44873H31.2746L31.9376 1.89148L35.9155 4.10523L41.2195 7.8686L42.7664 8.97547L43.6504 10.5251V11.632L43.2084 13.1816L41.4405 14.9526L40.9985 15.8381V16.945L41.2195 18.716L40.9985 21.3725L40.7775 23.5862L40.5565 26.0213L39.6725 29.1206L38.5675 32.2198L37.6835 34.4336L37.0205 35.7618L35.0315 39.0824L33.2636 41.2962L31.2746 42.6244L30.6116 42.8458L29.9486 42.6244L29.7276 41.2962L29.9486 40.1893L30.6116 38.8611L31.2746 36.2046L31.7166 34.6549L31.9376 32.4412L31.4956 30.2275L30.8326 28.4565L29.7276 27.571L28.6226 27.1282L27.0756 28.0137L25.0867 29.5633L23.9817 31.3343L23.0977 33.9908L22.8767 36.4259L23.0977 38.6397L23.7607 40.1893L25.7497 41.7389L27.7386 42.6244H29.5066L30.6116 43.5099L30.8326 44.8382L29.7276 46.1664L28.1806 46.6092L26.1916 46.3878L21.9927 44.6168L19.3407 41.9603L18.2357 39.0824L17.5727 36.2046L17.1308 35.7618L16.6888 36.8687L16.4678 39.3038L17.1308 41.7389L18.2357 43.5099L20.0037 45.0596L22.6557 47.0519L24.4237 48.1588L25.9706 49.0443L26.4126 50.1512V51.2581L25.9706 52.1436L24.8657 52.8077L22.8767 52.5863L18.6777 50.3726L15.8048 48.1588L14.4788 46.1664L14.0368 46.8306L14.4788 48.6016L16.0258 51.2581L17.5727 53.2504L18.4567 54.8001L18.6777 56.1283L18.4567 56.7924L17.5727 57.2352H16.9098L15.5838 56.7924L13.1528 55.0214L10.9428 51.2581L9.17485 47.4947L8.29086 43.5099L7.84887 37.7542L8.51186 32.6626L7.18587 35.9832L5.85989 42.8458L4.7549 50.5939L4.5339 52.3649L3.87091 53.0291H3.20792L2.54493 52.3649L1.66094 49.7084L1.43994 46.1664L1.66094 42.1817L2.98692 35.9832L4.7549 31.3343L6.30188 28.4565L8.95385 24.9145L12.7108 19.8228L15.3628 17.1663L19.3407 14.0671L22.6557 10.7465L25.3077 7.64722L26.1916 5.2121Z" fill="white"/>
<mask id="path-13-outside-3" maskUnits="userSpaceOnUse" x="0" y="0" width="45" height="59" fill="black">
<rect fill="white" width="45" height="59"/>
<path d="M44.0329 10.3062C42.7723 7.99878 40.1461 6.42553 38.0101 5.06205C35.769 3.59368 33.1078 1.14641 30.3415 1.00656C27.4701 0.831757 25.7893 4.18802 25.089 6.46049C25.054 6.6353 25.089 6.74018 25.159 6.84507C24.9489 7.0898 24.7388 7.36948 24.4937 7.64917C21.8674 11.1453 18.786 13.7674 15.4244 16.5293C12.553 18.9066 10.1719 22.193 8.00089 25.1996C3.09857 31.9821 0.542362 39.8833 1.06761 48.274C1.17266 49.7423 1.52283 53.5181 3.65884 53.5881C5.23458 53.623 5.37465 49.9521 5.51471 49.0082C6.21504 44.3583 6.49518 39.1841 8.00089 34.5692C7.16049 39.3939 7.54567 44.3583 9.36653 49.0431C10.5571 52.1547 13.0083 56.7695 16.65 57.5736C17.5604 57.7834 18.821 57.3988 19.1362 56.4549C19.7665 54.7418 17.7705 52.784 16.8601 51.5254C15.8446 50.092 15.1092 48.5886 14.479 47.0154C16.1247 49.0781 18.4358 50.6863 20.6769 51.9449C22.1826 52.784 24.3186 53.623 25.9644 52.6791C26.7698 52.2246 27.19 50.8611 26.8048 49.9871C25.6492 47.5398 21.9375 46.3162 20.0116 44.638C17.1402 42.1208 16.685 39.289 17.3503 36.2124C17.4904 39.5337 18.821 42.7501 21.6924 44.7779C23.8984 46.3511 29.326 48.6935 31.0068 45.1974C31.2519 44.7079 31.2519 43.764 30.9718 43.0648C31.9522 42.7501 32.9327 41.7013 33.4929 41.1419C36.0492 38.4849 37.835 35.0237 39.2006 31.6325C41.1966 26.6331 41.8969 21.2141 41.2666 15.865C42.5272 14.5015 45.1535 12.4039 44.0329 10.3062ZM2.53831 51.4205C2.32821 50.8961 2.15312 50.3017 2.04807 49.7074C2.08309 49.6724 2.11811 49.6724 2.18814 49.6375C2.50329 49.3228 2.92349 48.9382 3.27365 49.4277C3.44874 49.7074 3.51877 50.022 3.55379 50.3367C3.69385 51.1408 3.90395 51.9799 3.5888 52.784C3.20362 52.714 2.57332 51.5254 2.53831 51.4205ZM13.6035 54.532C13.5685 54.4971 13.5685 54.4621 13.5335 54.4621C14.4439 53.9726 15.4944 53.7629 16.2998 54.6019C16.755 55.0914 17.0702 56.1053 16.755 56.7346C16.755 56.7346 16.755 56.7346 16.755 56.7695C15.4944 56.5947 14.3389 55.3711 13.6035 54.532ZM22.4977 51.84C22.1826 51.7351 21.8324 51.5953 21.5173 51.4554C21.5523 51.4205 21.5873 51.4205 21.6223 51.3855C22.6378 50.1619 24.0735 51.4554 25.159 52.2246C24.3186 52.5043 23.1631 52.0847 22.4977 51.84ZM27.1199 46.2113C27.5401 45.4771 28.7657 45.4421 29.6411 45.6169C29.466 45.7568 29.2209 45.8966 28.9058 45.9665C28.3455 46.1763 27.7152 46.2462 27.1199 46.2113ZM29.1509 42.1208C28.5206 42.0859 27.8903 42.1208 27.295 41.981C26.2445 41.7363 25.3691 41.1769 24.6338 40.4427C22.1126 37.8905 23.2681 33.4155 24.9489 30.7235C25.6492 29.5698 28.2405 26.5282 29.6411 27.9266C31.6721 29.9544 31.6721 32.5415 31.0418 35.1636C30.6916 36.4921 28.6607 40.2329 29.1509 42.1208ZM31.7771 41.5964C31.0418 42.2257 30.4465 42.3656 30.2014 41.981C30.2364 41.946 30.3064 41.9111 30.3415 41.8411C30.7617 41.1769 32.9677 38.1702 33.563 39.8484C33.563 39.8484 33.563 39.8484 33.563 39.8833C33.0027 40.4776 32.4074 41.072 31.7771 41.5964ZM34.1933 39.1841C33.2478 37.471 31.3219 39.2191 30.2014 40.5825C30.5866 38.8345 31.3919 37.1563 31.8472 35.4083C32.2674 33.8001 32.4074 32.1569 32.0923 30.5487C31.8472 29.36 30.6916 27.0176 29.396 26.668C26.9448 26.0038 24.3186 29.8844 23.4432 31.6675C22.2526 34.1147 21.9375 37.0515 23.023 39.5687C23.5132 40.7224 24.4587 41.5964 25.5092 42.2257C26.1044 42.5753 26.8048 42.7851 27.5051 42.9249C27.8203 42.9949 28.2054 43.0298 28.5206 43.0648C28.8357 43.0997 29.1859 43.0997 29.5011 43.0997C29.8512 43.764 30.0263 44.3234 30.0263 44.7779C28.6607 44.4283 26.8048 44.7079 26.2095 46.0714C24.3886 45.6869 22.5678 44.4982 21.3772 43.4493C18.5409 40.9671 17.7355 37.0165 18.3308 33.4505C18.3658 33.2407 18.4358 32.996 18.4708 32.7862C18.5759 32.2268 17.8405 32.052 17.6304 32.5415C16.5799 35.0936 15.7395 38.1353 16.3348 40.6525C17.4904 45.4771 22.7078 46.7357 25.7193 49.9521C26.1745 50.4416 26.1045 51.1058 25.7893 51.6302C24.3186 50.7213 22.4977 48.9732 20.957 50.7562C20.852 50.8961 20.8169 51.0359 20.887 51.1758C18.2257 49.8472 15.8096 47.6447 14.2338 45.2673C13.7786 44.6031 13.4285 43.8689 13.1483 43.1697C12.9732 42.5753 12.7982 41.946 12.6231 41.3517C12.553 41.072 12.483 40.8273 12.413 40.5825C11.8877 37.7157 12.1679 34.6741 12.8682 31.8772C13.0083 31.3528 12.2029 31.1081 12.0278 31.6325C11.3625 33.8001 10.8722 35.9327 11.0823 38.2052C11.2924 40.5825 12.2379 42.9249 12.9032 45.1974C13.6736 47.7146 14.584 49.8472 16.0897 52.0148C16.685 52.8539 19.5914 56.2102 17.6304 56.7695C17.8405 55.8256 17.4904 54.7767 16.8951 54.0426C15.8796 52.784 14.1988 53.1336 12.9382 53.8328C11.6426 52.2246 10.6972 50.3017 9.96182 48.3789C7.65072 42.4355 7.96587 35.8278 10.1369 29.8844C10.312 29.395 9.61165 29.1503 9.36653 29.5698C5.44468 35.7579 5.82986 43.4843 4.4292 50.4416C4.39418 49.9871 4.32415 49.6025 4.14907 49.2529C3.65884 48.2041 2.74841 48.1691 1.94302 48.7285C1.87299 47.8195 1.87299 46.8755 1.87299 46.0015C1.90801 41.5614 2.74841 36.8767 4.49923 32.7512C6.14501 28.9055 8.84129 25.3745 11.5025 22.158C12.7982 20.5848 14.0237 18.9766 15.5294 17.6131C16.72 16.5293 18.0506 15.6203 19.2762 14.6064C20.957 13.208 22.4277 11.6347 23.7934 9.99157C24.8439 8.73297 26.0694 6.11088 28.0304 6.53042C29.7112 6.88003 31.2519 8.83785 32.4775 9.92164C33.528 10.8656 34.9286 11.5648 36.1192 12.3689C37.4498 13.2429 39.6909 14.3967 40.4262 15.9C41.3016 23.4866 39.3757 32.961 34.1933 39.1841ZM43.0525 12.5437C42.5622 13.4527 41.6518 14.2568 40.9165 15.0609C40.3562 14.2568 39.3407 13.6275 38.6054 13.0681C36.9946 11.8795 35.3138 10.8306 33.668 9.71188C31.9872 8.59312 30.6916 6.6353 28.7657 5.90112C27.7152 5.48158 26.9098 5.62143 26.2095 6.04096C27.1199 3.41888 29.1159 0.901679 32.1623 2.37005C33.8781 3.20911 35.4889 4.50267 37.0996 5.51654C38.8155 6.60034 40.4963 7.75406 42.002 9.1525C43.0174 10.0615 43.8228 11.0404 43.0525 12.5437Z"/>
</mask>
<path d="M44.0329 10.3062C42.7723 7.99878 40.1461 6.42553 38.0101 5.06205C35.769 3.59368 33.1078 1.14641 30.3415 1.00656C27.4701 0.831757 25.7893 4.18802 25.089 6.46049C25.054 6.6353 25.089 6.74018 25.159 6.84507C24.9489 7.0898 24.7388 7.36948 24.4937 7.64917C21.8674 11.1453 18.786 13.7674 15.4244 16.5293C12.553 18.9066 10.1719 22.193 8.00089 25.1996C3.09857 31.9821 0.542362 39.8833 1.06761 48.274C1.17266 49.7423 1.52283 53.5181 3.65884 53.5881C5.23458 53.623 5.37465 49.9521 5.51471 49.0082C6.21504 44.3583 6.49518 39.1841 8.00089 34.5692C7.16049 39.3939 7.54567 44.3583 9.36653 49.0431C10.5571 52.1547 13.0083 56.7695 16.65 57.5736C17.5604 57.7834 18.821 57.3988 19.1362 56.4549C19.7665 54.7418 17.7705 52.784 16.8601 51.5254C15.8446 50.092 15.1092 48.5886 14.479 47.0154C16.1247 49.0781 18.4358 50.6863 20.6769 51.9449C22.1826 52.784 24.3186 53.623 25.9644 52.6791C26.7698 52.2246 27.19 50.8611 26.8048 49.9871C25.6492 47.5398 21.9375 46.3162 20.0116 44.638C17.1402 42.1208 16.685 39.289 17.3503 36.2124C17.4904 39.5337 18.821 42.7501 21.6924 44.7779C23.8984 46.3511 29.326 48.6935 31.0068 45.1974C31.2519 44.7079 31.2519 43.764 30.9718 43.0648C31.9522 42.7501 32.9327 41.7013 33.4929 41.1419C36.0492 38.4849 37.835 35.0237 39.2006 31.6325C41.1966 26.6331 41.8969 21.2141 41.2666 15.865C42.5272 14.5015 45.1535 12.4039 44.0329 10.3062ZM2.53831 51.4205C2.32821 50.8961 2.15312 50.3017 2.04807 49.7074C2.08309 49.6724 2.11811 49.6724 2.18814 49.6375C2.50329 49.3228 2.92349 48.9382 3.27365 49.4277C3.44874 49.7074 3.51877 50.022 3.55379 50.3367C3.69385 51.1408 3.90395 51.9799 3.5888 52.784C3.20362 52.714 2.57332 51.5254 2.53831 51.4205ZM13.6035 54.532C13.5685 54.4971 13.5685 54.4621 13.5335 54.4621C14.4439 53.9726 15.4944 53.7629 16.2998 54.6019C16.755 55.0914 17.0702 56.1053 16.755 56.7346C16.755 56.7346 16.755 56.7346 16.755 56.7695C15.4944 56.5947 14.3389 55.3711 13.6035 54.532ZM22.4977 51.84C22.1826 51.7351 21.8324 51.5953 21.5173 51.4554C21.5523 51.4205 21.5873 51.4205 21.6223 51.3855C22.6378 50.1619 24.0735 51.4554 25.159 52.2246C24.3186 52.5043 23.1631 52.0847 22.4977 51.84ZM27.1199 46.2113C27.5401 45.4771 28.7657 45.4421 29.6411 45.6169C29.466 45.7568 29.2209 45.8966 28.9058 45.9665C28.3455 46.1763 27.7152 46.2462 27.1199 46.2113ZM29.1509 42.1208C28.5206 42.0859 27.8903 42.1208 27.295 41.981C26.2445 41.7363 25.3691 41.1769 24.6338 40.4427C22.1126 37.8905 23.2681 33.4155 24.9489 30.7235C25.6492 29.5698 28.2405 26.5282 29.6411 27.9266C31.6721 29.9544 31.6721 32.5415 31.0418 35.1636C30.6916 36.4921 28.6607 40.2329 29.1509 42.1208ZM31.7771 41.5964C31.0418 42.2257 30.4465 42.3656 30.2014 41.981C30.2364 41.946 30.3064 41.9111 30.3415 41.8411C30.7617 41.1769 32.9677 38.1702 33.563 39.8484C33.563 39.8484 33.563 39.8484 33.563 39.8833C33.0027 40.4776 32.4074 41.072 31.7771 41.5964ZM34.1933 39.1841C33.2478 37.471 31.3219 39.2191 30.2014 40.5825C30.5866 38.8345 31.3919 37.1563 31.8472 35.4083C32.2674 33.8001 32.4074 32.1569 32.0923 30.5487C31.8472 29.36 30.6916 27.0176 29.396 26.668C26.9448 26.0038 24.3186 29.8844 23.4432 31.6675C22.2526 34.1147 21.9375 37.0515 23.023 39.5687C23.5132 40.7224 24.4587 41.5964 25.5092 42.2257C26.1044 42.5753 26.8048 42.7851 27.5051 42.9249C27.8203 42.9949 28.2054 43.0298 28.5206 43.0648C28.8357 43.0997 29.1859 43.0997 29.5011 43.0997C29.8512 43.764 30.0263 44.3234 30.0263 44.7779C28.6607 44.4283 26.8048 44.7079 26.2095 46.0714C24.3886 45.6869 22.5678 44.4982 21.3772 43.4493C18.5409 40.9671 17.7355 37.0165 18.3308 33.4505C18.3658 33.2407 18.4358 32.996 18.4708 32.7862C18.5759 32.2268 17.8405 32.052 17.6304 32.5415C16.5799 35.0936 15.7395 38.1353 16.3348 40.6525C17.4904 45.4771 22.7078 46.7357 25.7193 49.9521C26.1745 50.4416 26.1045 51.1058 25.7893 51.6302C24.3186 50.7213 22.4977 48.9732 20.957 50.7562C20.852 50.8961 20.8169 51.0359 20.887 51.1758C18.2257 49.8472 15.8096 47.6447 14.2338 45.2673C13.7786 44.6031 13.4285 43.8689 13.1483 43.1697C12.9732 42.5753 12.7982 41.946 12.6231 41.3517C12.553 41.072 12.483 40.8273 12.413 40.5825C11.8877 37.7157 12.1679 34.6741 12.8682 31.8772C13.0083 31.3528 12.2029 31.1081 12.0278 31.6325C11.3625 33.8001 10.8722 35.9327 11.0823 38.2052C11.2924 40.5825 12.2379 42.9249 12.9032 45.1974C13.6736 47.7146 14.584 49.8472 16.0897 52.0148C16.685 52.8539 19.5914 56.2102 17.6304 56.7695C17.8405 55.8256 17.4904 54.7767 16.8951 54.0426C15.8796 52.784 14.1988 53.1336 12.9382 53.8328C11.6426 52.2246 10.6972 50.3017 9.96182 48.3789C7.65072 42.4355 7.96587 35.8278 10.1369 29.8844C10.312 29.395 9.61165 29.1503 9.36653 29.5698C5.44468 35.7579 5.82986 43.4843 4.4292 50.4416C4.39418 49.9871 4.32415 49.6025 4.14907 49.2529C3.65884 48.2041 2.74841 48.1691 1.94302 48.7285C1.87299 47.8195 1.87299 46.8755 1.87299 46.0015C1.90801 41.5614 2.74841 36.8767 4.49923 32.7512C6.14501 28.9055 8.84129 25.3745 11.5025 22.158C12.7982 20.5848 14.0237 18.9766 15.5294 17.6131C16.72 16.5293 18.0506 15.6203 19.2762 14.6064C20.957 13.208 22.4277 11.6347 23.7934 9.99157C24.8439 8.73297 26.0694 6.11088 28.0304 6.53042C29.7112 6.88003 31.2519 8.83785 32.4775 9.92164C33.528 10.8656 34.9286 11.5648 36.1192 12.3689C37.4498 13.2429 39.6909 14.3967 40.4262 15.9C41.3016 23.4866 39.3757 32.961 34.1933 39.1841ZM43.0525 12.5437C42.5622 13.4527 41.6518 14.2568 40.9165 15.0609C40.3562 14.2568 39.3407 13.6275 38.6054 13.0681C36.9946 11.8795 35.3138 10.8306 33.668 9.71188C31.9872 8.59312 30.6916 6.6353 28.7657 5.90112C27.7152 5.48158 26.9098 5.62143 26.2095 6.04096C27.1199 3.41888 29.1159 0.901679 32.1623 2.37005C33.8781 3.20911 35.4889 4.50267 37.0996 5.51654C38.8155 6.60034 40.4963 7.75406 42.002 9.1525C43.0174 10.0615 43.8228 11.0404 43.0525 12.5437Z" fill="#001064"/>
<path d="M44.0329 10.3062C42.7723 7.99878 40.1461 6.42553 38.0101 5.06205C35.769 3.59368 33.1078 1.14641 30.3415 1.00656C27.4701 0.831757 25.7893 4.18802 25.089 6.46049C25.054 6.6353 25.089 6.74018 25.159 6.84507C24.9489 7.0898 24.7388 7.36948 24.4937 7.64917C21.8674 11.1453 18.786 13.7674 15.4244 16.5293C12.553 18.9066 10.1719 22.193 8.00089 25.1996C3.09857 31.9821 0.542362 39.8833 1.06761 48.274C1.17266 49.7423 1.52283 53.5181 3.65884 53.5881C5.23458 53.623 5.37465 49.9521 5.51471 49.0082C6.21504 44.3583 6.49518 39.1841 8.00089 34.5692C7.16049 39.3939 7.54567 44.3583 9.36653 49.0431C10.5571 52.1547 13.0083 56.7695 16.65 57.5736C17.5604 57.7834 18.821 57.3988 19.1362 56.4549C19.7665 54.7418 17.7705 52.784 16.8601 51.5254C15.8446 50.092 15.1092 48.5886 14.479 47.0154C16.1247 49.0781 18.4358 50.6863 20.6769 51.9449C22.1826 52.784 24.3186 53.623 25.9644 52.6791C26.7698 52.2246 27.19 50.8611 26.8048 49.9871C25.6492 47.5398 21.9375 46.3162 20.0116 44.638C17.1402 42.1208 16.685 39.289 17.3503 36.2124C17.4904 39.5337 18.821 42.7501 21.6924 44.7779C23.8984 46.3511 29.326 48.6935 31.0068 45.1974C31.2519 44.7079 31.2519 43.764 30.9718 43.0648C31.9522 42.7501 32.9327 41.7013 33.4929 41.1419C36.0492 38.4849 37.835 35.0237 39.2006 31.6325C41.1966 26.6331 41.8969 21.2141 41.2666 15.865C42.5272 14.5015 45.1535 12.4039 44.0329 10.3062ZM2.53831 51.4205C2.32821 50.8961 2.15312 50.3017 2.04807 49.7074C2.08309 49.6724 2.11811 49.6724 2.18814 49.6375C2.50329 49.3228 2.92349 48.9382 3.27365 49.4277C3.44874 49.7074 3.51877 50.022 3.55379 50.3367C3.69385 51.1408 3.90395 51.9799 3.5888 52.784C3.20362 52.714 2.57332 51.5254 2.53831 51.4205ZM13.6035 54.532C13.5685 54.4971 13.5685 54.4621 13.5335 54.4621C14.4439 53.9726 15.4944 53.7629 16.2998 54.6019C16.755 55.0914 17.0702 56.1053 16.755 56.7346C16.755 56.7346 16.755 56.7346 16.755 56.7695C15.4944 56.5947 14.3389 55.3711 13.6035 54.532ZM22.4977 51.84C22.1826 51.7351 21.8324 51.5953 21.5173 51.4554C21.5523 51.4205 21.5873 51.4205 21.6223 51.3855C22.6378 50.1619 24.0735 51.4554 25.159 52.2246C24.3186 52.5043 23.1631 52.0847 22.4977 51.84ZM27.1199 46.2113C27.5401 45.4771 28.7657 45.4421 29.6411 45.6169C29.466 45.7568 29.2209 45.8966 28.9058 45.9665C28.3455 46.1763 27.7152 46.2462 27.1199 46.2113ZM29.1509 42.1208C28.5206 42.0859 27.8903 42.1208 27.295 41.981C26.2445 41.7363 25.3691 41.1769 24.6338 40.4427C22.1126 37.8905 23.2681 33.4155 24.9489 30.7235C25.6492 29.5698 28.2405 26.5282 29.6411 27.9266C31.6721 29.9544 31.6721 32.5415 31.0418 35.1636C30.6916 36.4921 28.6607 40.2329 29.1509 42.1208ZM31.7771 41.5964C31.0418 42.2257 30.4465 42.3656 30.2014 41.981C30.2364 41.946 30.3064 41.9111 30.3415 41.8411C30.7617 41.1769 32.9677 38.1702 33.563 39.8484C33.563 39.8484 33.563 39.8484 33.563 39.8833C33.0027 40.4776 32.4074 41.072 31.7771 41.5964ZM34.1933 39.1841C33.2478 37.471 31.3219 39.2191 30.2014 40.5825C30.5866 38.8345 31.3919 37.1563 31.8472 35.4083C32.2674 33.8001 32.4074 32.1569 32.0923 30.5487C31.8472 29.36 30.6916 27.0176 29.396 26.668C26.9448 26.0038 24.3186 29.8844 23.4432 31.6675C22.2526 34.1147 21.9375 37.0515 23.023 39.5687C23.5132 40.7224 24.4587 41.5964 25.5092 42.2257C26.1044 42.5753 26.8048 42.7851 27.5051 42.9249C27.8203 42.9949 28.2054 43.0298 28.5206 43.0648C28.8357 43.0997 29.1859 43.0997 29.5011 43.0997C29.8512 43.764 30.0263 44.3234 30.0263 44.7779C28.6607 44.4283 26.8048 44.7079 26.2095 46.0714C24.3886 45.6869 22.5678 44.4982 21.3772 43.4493C18.5409 40.9671 17.7355 37.0165 18.3308 33.4505C18.3658 33.2407 18.4358 32.996 18.4708 32.7862C18.5759 32.2268 17.8405 32.052 17.6304 32.5415C16.5799 35.0936 15.7395 38.1353 16.3348 40.6525C17.4904 45.4771 22.7078 46.7357 25.7193 49.9521C26.1745 50.4416 26.1045 51.1058 25.7893 51.6302C24.3186 50.7213 22.4977 48.9732 20.957 50.7562C20.852 50.8961 20.8169 51.0359 20.887 51.1758C18.2257 49.8472 15.8096 47.6447 14.2338 45.2673C13.7786 44.6031 13.4285 43.8689 13.1483 43.1697C12.9732 42.5753 12.7982 41.946 12.6231 41.3517C12.553 41.072 12.483 40.8273 12.413 40.5825C11.8877 37.7157 12.1679 34.6741 12.8682 31.8772C13.0083 31.3528 12.2029 31.1081 12.0278 31.6325C11.3625 33.8001 10.8722 35.9327 11.0823 38.2052C11.2924 40.5825 12.2379 42.9249 12.9032 45.1974C13.6736 47.7146 14.584 49.8472 16.0897 52.0148C16.685 52.8539 19.5914 56.2102 17.6304 56.7695C17.8405 55.8256 17.4904 54.7767 16.8951 54.0426C15.8796 52.784 14.1988 53.1336 12.9382 53.8328C11.6426 52.2246 10.6972 50.3017 9.96182 48.3789C7.65072 42.4355 7.96587 35.8278 10.1369 29.8844C10.312 29.395 9.61165 29.1503 9.36653 29.5698C5.44468 35.7579 5.82986 43.4843 4.4292 50.4416C4.39418 49.9871 4.32415 49.6025 4.14907 49.2529C3.65884 48.2041 2.74841 48.1691 1.94302 48.7285C1.87299 47.8195 1.87299 46.8755 1.87299 46.0015C1.90801 41.5614 2.74841 36.8767 4.49923 32.7512C6.14501 28.9055 8.84129 25.3745 11.5025 22.158C12.7982 20.5848 14.0237 18.9766 15.5294 17.6131C16.72 16.5293 18.0506 15.6203 19.2762 14.6064C20.957 13.208 22.4277 11.6347 23.7934 9.99157C24.8439 8.73297 26.0694 6.11088 28.0304 6.53042C29.7112 6.88003 31.2519 8.83785 32.4775 9.92164C33.528 10.8656 34.9286 11.5648 36.1192 12.3689C37.4498 13.2429 39.6909 14.3967 40.4262 15.9C41.3016 23.4866 39.3757 32.961 34.1933 39.1841ZM43.0525 12.5437C42.5622 13.4527 41.6518 14.2568 40.9165 15.0609C40.3562 14.2568 39.3407 13.6275 38.6054 13.0681C36.9946 11.8795 35.3138 10.8306 33.668 9.71188C31.9872 8.59312 30.6916 6.6353 28.7657 5.90112C27.7152 5.48158 26.9098 5.62143 26.2095 6.04096C27.1199 3.41888 29.1159 0.901679 32.1623 2.37005C33.8781 3.20911 35.4889 4.50267 37.0996 5.51654C38.8155 6.60034 40.4963 7.75406 42.002 9.1525C43.0174 10.0615 43.8228 11.0404 43.0525 12.5437Z" stroke="#001064" stroke-width="0.8" mask="url(#path-13-outside-3)"/>
</svg>
