<svg width="134" height="120" viewBox="0 0 134 120" fill="none" xmlns="http://www.w3.org/2000/svg">
<path d="M40.9656 9.09077L38.764 5.78516L38.2135 6.88703L35.4615 10.7436L32.159 12.1209L36.2871 14.8756L38.2135 18.4567L40.14 14.8756L44.5433 12.1209L44.2681 11.2945L40.9656 9.09077Z" fill="white"/>
<path d="M47.8688 11.8933C47.3838 11.5281 46.5854 11.5427 45.9885 11.3747C45.3319 11.1848 44.6976 10.9437 44.1007 10.6369C42.877 10.0087 41.8025 9.15401 40.9818 8.12403C40.1386 7.06482 39.5641 5.80107 39.3029 4.51541C39.2954 4.46428 39.2805 4.40584 39.2731 4.35471C39.5118 3.06905 39.5641 1.76147 39.3701 0.541559C39.2581 -0.188929 37.9747 -0.181625 37.915 0.570778C37.9001 0.731486 37.8927 0.892193 37.9001 1.0529C37.9001 1.11134 37.9076 1.16247 37.9225 1.21361C37.9374 2.23629 37.9449 3.24436 37.7733 4.27435C37.5644 5.53079 37.1763 6.77262 36.6242 7.9414C36.1466 8.95678 35.4975 9.93564 34.5499 10.6515C33.5052 11.4404 32.2666 11.7107 30.931 11.7253C30.5057 11.7326 30.3266 12.2221 30.7444 12.3974C31.1175 12.5508 31.4981 12.6384 31.8637 12.6677C32.0502 12.7845 32.2293 12.8941 32.4457 12.9891C32.8561 13.1717 33.2515 13.3616 33.6246 13.6027C34.3857 14.0775 35.0573 14.6619 35.6019 15.3339C36.7734 16.7876 37.2659 18.6504 37.0644 20.4254C37.0197 20.8272 37.3107 21.0756 37.6464 21.1413C38.012 21.7403 39.0641 21.5285 39.0044 20.7469C38.8403 18.57 39.4297 16.437 41.2205 14.8737C42.0413 14.1579 43.0039 13.6465 44.0709 13.2886C44.7648 13.0475 45.4886 12.9526 46.2049 12.843C46.7421 12.9818 47.3092 13.0621 47.7644 12.8722C48.2121 12.6823 48.227 12.1563 47.8688 11.8933ZM43.6903 12.0541C42.3696 12.4193 41.1235 13.106 40.1535 13.9898C39.2954 14.7715 38.5941 15.743 38.1165 16.7949C37.8255 16.0352 37.4077 15.3047 36.863 14.64C36.2287 13.8584 35.4154 13.1717 34.5126 12.6457C34.3111 12.5289 34.1022 12.4193 33.8858 12.3097C35.4303 11.6742 36.751 10.2863 37.4823 9.05905C37.9225 8.32126 38.303 7.51042 38.6164 6.67035C38.9074 7.39354 39.288 8.0875 39.7655 8.73764C40.646 9.93564 41.8622 10.9583 43.2277 11.6888C43.4292 11.7984 43.6381 11.9006 43.847 11.9956C43.8022 12.0248 43.75 12.0394 43.6903 12.0541Z" fill="#001064"/>
<path d="M0.449671 108.044L10.619 102.955C34.6143 102.152 86.0226 99.6215 108.42 103.752C123.901 106.607 110.253 117.955 96.0702 118.661C81.8872 119.366 55.3942 120 55.3942 120L17.8444 117.955C2.21621 117.955 -1.42378 113.134 0.449671 108.044Z" fill="#001064"/>
<path d="M90.9857 66.9644H9.63377L12.0422 103.929V108.482L17.1267 110.625L87.2392 112.232L90.9857 66.9644Z" fill="#F3EEFF"/>
<path d="M111.882 56.002L91.2444 66.811L86.6849 112.449H88.6047L108.283 106.444L111.882 56.002Z" fill="#E9F7FF"/>
<path d="M125.32 11.5647L112.842 55.041L121.001 51.1978L128.44 44.9526L131.56 38.227V28.3787L128.44 16.6089L125.32 11.5647Z" fill="#E9F7FF"/>
<mask id="path-7-outside-1" maskUnits="userSpaceOnUse" x="6.49369" y="8.64307" width="128" height="106" fill="black">
<rect fill="white" x="6.49369" y="8.64307" width="128" height="106"/>
<path d="M49.2232 18.5002C46.1038 25.9555 43.0481 33.4108 40.1197 40.9298L37.9234 46.5691L36.8412 49.4046C36.7457 49.6595 36.682 49.8507 36.5547 50.1374C36.4274 50.3923 36.3001 50.6472 36.1409 50.9021C35.8226 51.38 35.4725 51.826 35.0269 52.2083C34.8041 52.3995 34.5813 52.5907 34.3266 52.75L33.6582 53.1641L32.385 53.9606L29.8385 55.5855L24.7139 58.8353C21.3399 61.0018 17.934 63.1364 14.4963 65.271L13.2231 66.0675L12.5865 66.4499C12.5229 66.4817 12.491 66.5136 12.4592 66.5454L12.3319 66.6092C12.2682 66.6729 12.1727 66.7366 12.1091 66.7685C11.5361 67.2145 11.1223 67.8517 10.8995 68.5526C10.7722 68.9031 10.7085 69.2536 10.7085 69.604C10.7085 69.6996 10.7085 69.7952 10.7085 69.8589C10.7085 69.9545 10.7085 70.0182 10.7404 70.1775L10.804 70.9422L11.0268 73.9689C11.6316 82.0295 12.1091 90.0901 12.5547 98.1508C12.682 100.158 12.7457 102.197 12.873 104.204L12.9367 105.702L12.9685 106.084C12.9685 106.148 12.9685 106.211 12.9685 106.243V106.371C12.9685 106.562 13.0322 106.753 13.064 106.944C13.255 107.677 13.6369 108.378 14.2099 108.92C14.4963 109.206 14.8147 109.429 15.1648 109.589C15.5149 109.78 15.865 109.907 16.2788 109.971C16.4698 110.035 16.6608 110.035 16.8836 110.035L17.6475 110.067L19.1436 110.13L25.1913 110.417L37.2868 110.99L49.3823 111.468C57.4354 111.755 65.5203 111.914 73.5733 112.074L79.6211 112.169L85.6688 112.233H86.4328C86.6874 112.233 86.9421 112.233 87.1649 112.233C87.3877 112.233 87.6105 112.201 87.8015 112.169C88.0243 112.137 88.2153 112.074 88.4699 112.01L91.3665 111.182L97.1914 109.525L103.016 107.868L104.449 107.454C104.831 107.358 105.181 107.167 105.531 106.944C106.199 106.498 106.74 105.893 107.059 105.16C107.218 104.81 107.345 104.427 107.377 104.045C107.377 103.949 107.409 103.854 107.409 103.758C107.409 103.726 107.409 103.663 107.409 103.599V103.408L107.441 102.643L107.6 99.6164L107.95 93.5629C108.427 85.5023 108.969 77.4416 109.51 69.381L109.924 63.3276L110.114 60.3008L110.21 58.8034L110.242 58.4211C110.274 58.2618 110.274 58.1025 110.305 57.9113C110.369 57.5927 110.433 57.2423 110.528 56.9236C110.91 55.6492 111.674 54.4704 112.693 53.5783C113.202 53.1323 113.775 52.7818 114.38 52.4951C114.73 52.3358 114.889 52.2721 115.144 52.1765C115.366 52.0809 115.589 51.9853 115.812 51.8897C117.563 51.1251 119.218 50.1693 120.746 49.086C123.802 46.8877 126.284 44.0203 127.717 40.6431C128.067 39.8147 128.385 38.9226 128.608 38.0624C128.831 37.1703 129.022 36.2782 129.117 35.3543C129.181 34.9082 129.213 34.3985 129.244 33.9206C129.276 33.4427 129.34 32.9648 129.34 32.455L129.404 30.9894V29.5239C129.34 25.6688 128.767 21.8137 127.462 18.2772C127.144 17.3851 126.762 16.5567 126.316 15.7284C126.189 15.5372 126.093 15.3142 125.998 15.123L125.839 14.8363C125.775 14.7407 125.711 14.6133 125.679 14.5814C125.489 14.2947 125.266 14.0398 125.011 13.8168C124.502 13.3707 123.865 13.084 123.197 12.9884C123.038 12.9565 122.847 12.9565 122.687 12.9565H122.56C122.528 12.9565 122.433 12.9565 122.369 12.9565L121.987 12.9884L120.491 13.0521L114.443 13.307L108.396 13.53C104.353 13.6893 100.343 13.7849 96.3002 13.9123L84.2046 14.2309L78.1569 14.3902L72.1091 14.5814C68.0667 14.7088 64.0561 14.8681 60.0136 15.0274L53.9659 15.3142C52.9791 15.346 52.0242 15.6647 51.2285 16.2063C50.2736 16.8116 49.6051 17.6081 49.2232 18.5002ZM48.9049 18.3728C49.2868 17.417 49.9871 16.5567 50.8465 15.9833C51.7059 15.3779 52.7563 15.0593 53.7749 14.9956L59.8227 14.6133C63.8333 14.3265 67.8757 14.0398 71.8863 13.7212L77.9341 13.2433L83.95 12.7335L96.0137 11.6821C100.024 11.3635 104.067 10.9812 108.077 10.6945L114.125 10.2166L120.173 9.77051L121.669 9.67493L122.051 9.64307H122.242H122.496C122.815 9.64307 123.165 9.64307 123.483 9.70679C124.82 9.86609 126.093 10.4077 127.112 11.2679C127.621 11.714 128.099 12.2237 128.449 12.7654C128.544 12.9247 128.608 13.0203 128.672 13.1477L128.894 13.4982C129.022 13.7212 129.149 13.9761 129.308 14.1991C129.817 15.1549 130.295 16.1426 130.677 17.1302C132.268 21.1446 132.905 25.4139 133 29.5876V31.1487L132.937 32.7099C132.937 33.2196 132.873 33.7613 132.841 34.271C132.809 34.7808 132.778 35.3224 132.714 35.864C132.587 36.9473 132.396 38.0305 132.109 39.0819C131.855 40.1652 131.473 41.1847 131.027 42.2042C130.168 44.2433 128.958 46.123 127.557 47.7798C126.157 49.4684 124.502 50.9021 122.719 52.1446C120.969 53.3872 119.059 54.4067 117.117 55.2351C116.863 55.3306 116.64 55.4262 116.385 55.5537C116.162 55.6492 115.844 55.7767 115.748 55.8085C115.43 55.936 115.144 56.1271 114.889 56.3183C114.38 56.7325 113.998 57.3378 113.775 57.975C113.711 58.1343 113.679 58.2936 113.648 58.4848L113.616 58.7397L113.584 59.0901L113.457 60.5876L113.202 63.6143L112.693 69.6359C112.024 77.6965 111.356 85.7253 110.656 93.7859L110.114 99.8075L109.828 102.834L109.764 103.599L109.733 103.79C109.733 103.854 109.733 103.917 109.701 104.013C109.669 104.172 109.669 104.332 109.637 104.459C109.542 105.064 109.319 105.67 109.064 106.211C108.523 107.327 107.632 108.25 106.581 108.888C106.04 109.206 105.499 109.429 104.894 109.589L103.398 109.939L97.5097 111.373L91.6211 112.806L88.6927 113.507C88.4699 113.571 88.1834 113.635 87.897 113.667C87.6105 113.699 87.324 113.73 87.0375 113.73C86.7192 113.73 86.4964 113.699 86.2418 113.699L85.4779 113.667L79.4301 113.412L73.3824 113.189C65.3293 112.902 57.2444 112.679 49.1913 112.52L37.0958 112.36L25.0003 112.297L18.9526 112.265H17.4247H16.6608C16.3743 112.233 16.056 112.265 15.7377 112.201C15.133 112.106 14.5282 111.946 13.9552 111.691C13.3823 111.437 12.873 111.086 12.3955 110.672C11.4406 109.875 10.7404 108.76 10.3902 107.55C10.3266 107.231 10.2311 106.944 10.1993 106.626C10.1674 106.466 10.1674 106.307 10.1356 106.18L10.1038 105.797L9.97645 104.3C9.8173 102.293 9.62632 100.285 9.46716 98.2782C8.83056 90.2176 8.22578 82.1888 7.74833 74.1282L7.55735 71.1015L7.52552 70.3368C7.52552 70.2412 7.52552 70.0501 7.49369 69.8908C7.49369 69.7315 7.49369 69.5722 7.49369 69.4129C7.52552 68.7757 7.65284 68.1385 7.87565 67.5012C8.32127 66.2906 9.11703 65.2073 10.1356 64.4108C10.2629 64.3152 10.3902 64.2196 10.5176 64.1241L10.7085 63.9966C10.7722 63.9648 10.8359 63.901 10.8995 63.8692L11.568 63.4869L12.873 62.7222C16.3743 60.715 19.9075 58.7715 23.4088 56.7962L28.6926 53.8651L31.3346 52.3995L32.6714 51.6667L33.308 51.3162C33.499 51.2207 33.6582 51.0932 33.8492 50.9658C34.1993 50.7109 34.4858 50.3923 34.7404 50.01C34.8677 49.8188 34.995 49.6595 35.0905 49.4365C35.186 49.2453 35.2815 48.9905 35.4088 48.7674L36.6502 45.9956L39.133 40.4519C42.6025 33.2196 45.8173 25.8281 48.9049 18.3728Z"/>
</mask>
<path d="M49.2232 18.5002C46.1038 25.9555 43.0481 33.4108 40.1197 40.9298L37.9234 46.5691L36.8412 49.4046C36.7457 49.6595 36.682 49.8507 36.5547 50.1374C36.4274 50.3923 36.3001 50.6472 36.1409 50.9021C35.8226 51.38 35.4725 51.826 35.0269 52.2083C34.8041 52.3995 34.5813 52.5907 34.3266 52.75L33.6582 53.1641L32.385 53.9606L29.8385 55.5855L24.7139 58.8353C21.3399 61.0018 17.934 63.1364 14.4963 65.271L13.2231 66.0675L12.5865 66.4499C12.5229 66.4817 12.491 66.5136 12.4592 66.5454L12.3319 66.6092C12.2682 66.6729 12.1727 66.7366 12.1091 66.7685C11.5361 67.2145 11.1223 67.8517 10.8995 68.5526C10.7722 68.9031 10.7085 69.2536 10.7085 69.604C10.7085 69.6996 10.7085 69.7952 10.7085 69.8589C10.7085 69.9545 10.7085 70.0182 10.7404 70.1775L10.804 70.9422L11.0268 73.9689C11.6316 82.0295 12.1091 90.0901 12.5547 98.1508C12.682 100.158 12.7457 102.197 12.873 104.204L12.9367 105.702L12.9685 106.084C12.9685 106.148 12.9685 106.211 12.9685 106.243V106.371C12.9685 106.562 13.0322 106.753 13.064 106.944C13.255 107.677 13.6369 108.378 14.2099 108.92C14.4963 109.206 14.8147 109.429 15.1648 109.589C15.5149 109.78 15.865 109.907 16.2788 109.971C16.4698 110.035 16.6608 110.035 16.8836 110.035L17.6475 110.067L19.1436 110.13L25.1913 110.417L37.2868 110.99L49.3823 111.468C57.4354 111.755 65.5203 111.914 73.5733 112.074L79.6211 112.169L85.6688 112.233H86.4328C86.6874 112.233 86.9421 112.233 87.1649 112.233C87.3877 112.233 87.6105 112.201 87.8015 112.169C88.0243 112.137 88.2153 112.074 88.4699 112.01L91.3665 111.182L97.1914 109.525L103.016 107.868L104.449 107.454C104.831 107.358 105.181 107.167 105.531 106.944C106.199 106.498 106.74 105.893 107.059 105.16C107.218 104.81 107.345 104.427 107.377 104.045C107.377 103.949 107.409 103.854 107.409 103.758C107.409 103.726 107.409 103.663 107.409 103.599V103.408L107.441 102.643L107.6 99.6164L107.95 93.5629C108.427 85.5023 108.969 77.4416 109.51 69.381L109.924 63.3276L110.114 60.3008L110.21 58.8034L110.242 58.4211C110.274 58.2618 110.274 58.1025 110.305 57.9113C110.369 57.5927 110.433 57.2423 110.528 56.9236C110.91 55.6492 111.674 54.4704 112.693 53.5783C113.202 53.1323 113.775 52.7818 114.38 52.4951C114.73 52.3358 114.889 52.2721 115.144 52.1765C115.366 52.0809 115.589 51.9853 115.812 51.8897C117.563 51.1251 119.218 50.1693 120.746 49.086C123.802 46.8877 126.284 44.0203 127.717 40.6431C128.067 39.8147 128.385 38.9226 128.608 38.0624C128.831 37.1703 129.022 36.2782 129.117 35.3543C129.181 34.9082 129.213 34.3985 129.244 33.9206C129.276 33.4427 129.34 32.9648 129.34 32.455L129.404 30.9894V29.5239C129.34 25.6688 128.767 21.8137 127.462 18.2772C127.144 17.3851 126.762 16.5567 126.316 15.7284C126.189 15.5372 126.093 15.3142 125.998 15.123L125.839 14.8363C125.775 14.7407 125.711 14.6133 125.679 14.5814C125.489 14.2947 125.266 14.0398 125.011 13.8168C124.502 13.3707 123.865 13.084 123.197 12.9884C123.038 12.9565 122.847 12.9565 122.687 12.9565H122.56C122.528 12.9565 122.433 12.9565 122.369 12.9565L121.987 12.9884L120.491 13.0521L114.443 13.307L108.396 13.53C104.353 13.6893 100.343 13.7849 96.3002 13.9123L84.2046 14.2309L78.1569 14.3902L72.1091 14.5814C68.0667 14.7088 64.0561 14.8681 60.0136 15.0274L53.9659 15.3142C52.9791 15.346 52.0242 15.6647 51.2285 16.2063C50.2736 16.8116 49.6051 17.6081 49.2232 18.5002ZM48.9049 18.3728C49.2868 17.417 49.9871 16.5567 50.8465 15.9833C51.7059 15.3779 52.7563 15.0593 53.7749 14.9956L59.8227 14.6133C63.8333 14.3265 67.8757 14.0398 71.8863 13.7212L77.9341 13.2433L83.95 12.7335L96.0137 11.6821C100.024 11.3635 104.067 10.9812 108.077 10.6945L114.125 10.2166L120.173 9.77051L121.669 9.67493L122.051 9.64307H122.242H122.496C122.815 9.64307 123.165 9.64307 123.483 9.70679C124.82 9.86609 126.093 10.4077 127.112 11.2679C127.621 11.714 128.099 12.2237 128.449 12.7654C128.544 12.9247 128.608 13.0203 128.672 13.1477L128.894 13.4982C129.022 13.7212 129.149 13.9761 129.308 14.1991C129.817 15.1549 130.295 16.1426 130.677 17.1302C132.268 21.1446 132.905 25.4139 133 29.5876V31.1487L132.937 32.7099C132.937 33.2196 132.873 33.7613 132.841 34.271C132.809 34.7808 132.778 35.3224 132.714 35.864C132.587 36.9473 132.396 38.0305 132.109 39.0819C131.855 40.1652 131.473 41.1847 131.027 42.2042C130.168 44.2433 128.958 46.123 127.557 47.7798C126.157 49.4684 124.502 50.9021 122.719 52.1446C120.969 53.3872 119.059 54.4067 117.117 55.2351C116.863 55.3306 116.64 55.4262 116.385 55.5537C116.162 55.6492 115.844 55.7767 115.748 55.8085C115.43 55.936 115.144 56.1271 114.889 56.3183C114.38 56.7325 113.998 57.3378 113.775 57.975C113.711 58.1343 113.679 58.2936 113.648 58.4848L113.616 58.7397L113.584 59.0901L113.457 60.5876L113.202 63.6143L112.693 69.6359C112.024 77.6965 111.356 85.7253 110.656 93.7859L110.114 99.8075L109.828 102.834L109.764 103.599L109.733 103.79C109.733 103.854 109.733 103.917 109.701 104.013C109.669 104.172 109.669 104.332 109.637 104.459C109.542 105.064 109.319 105.67 109.064 106.211C108.523 107.327 107.632 108.25 106.581 108.888C106.04 109.206 105.499 109.429 104.894 109.589L103.398 109.939L97.5097 111.373L91.6211 112.806L88.6927 113.507C88.4699 113.571 88.1834 113.635 87.897 113.667C87.6105 113.699 87.324 113.73 87.0375 113.73C86.7192 113.73 86.4964 113.699 86.2418 113.699L85.4779 113.667L79.4301 113.412L73.3824 113.189C65.3293 112.902 57.2444 112.679 49.1913 112.52L37.0958 112.36L25.0003 112.297L18.9526 112.265H17.4247H16.6608C16.3743 112.233 16.056 112.265 15.7377 112.201C15.133 112.106 14.5282 111.946 13.9552 111.691C13.3823 111.437 12.873 111.086 12.3955 110.672C11.4406 109.875 10.7404 108.76 10.3902 107.55C10.3266 107.231 10.2311 106.944 10.1993 106.626C10.1674 106.466 10.1674 106.307 10.1356 106.18L10.1038 105.797L9.97645 104.3C9.8173 102.293 9.62632 100.285 9.46716 98.2782C8.83056 90.2176 8.22578 82.1888 7.74833 74.1282L7.55735 71.1015L7.52552 70.3368C7.52552 70.2412 7.52552 70.0501 7.49369 69.8908C7.49369 69.7315 7.49369 69.5722 7.49369 69.4129C7.52552 68.7757 7.65284 68.1385 7.87565 67.5012C8.32127 66.2906 9.11703 65.2073 10.1356 64.4108C10.2629 64.3152 10.3902 64.2196 10.5176 64.1241L10.7085 63.9966C10.7722 63.9648 10.8359 63.901 10.8995 63.8692L11.568 63.4869L12.873 62.7222C16.3743 60.715 19.9075 58.7715 23.4088 56.7962L28.6926 53.8651L31.3346 52.3995L32.6714 51.6667L33.308 51.3162C33.499 51.2207 33.6582 51.0932 33.8492 50.9658C34.1993 50.7109 34.4858 50.3923 34.7404 50.01C34.8677 49.8188 34.995 49.6595 35.0905 49.4365C35.186 49.2453 35.2815 48.9905 35.4088 48.7674L36.6502 45.9956L39.133 40.4519C42.6025 33.2196 45.8173 25.8281 48.9049 18.3728Z" fill="#001064"/>
<path d="M49.2232 18.5002C46.1038 25.9555 43.0481 33.4108 40.1197 40.9298L37.9234 46.5691L36.8412 49.4046C36.7457 49.6595 36.682 49.8507 36.5547 50.1374C36.4274 50.3923 36.3001 50.6472 36.1409 50.9021C35.8226 51.38 35.4725 51.826 35.0269 52.2083C34.8041 52.3995 34.5813 52.5907 34.3266 52.75L33.6582 53.1641L32.385 53.9606L29.8385 55.5855L24.7139 58.8353C21.3399 61.0018 17.934 63.1364 14.4963 65.271L13.2231 66.0675L12.5865 66.4499C12.5229 66.4817 12.491 66.5136 12.4592 66.5454L12.3319 66.6092C12.2682 66.6729 12.1727 66.7366 12.1091 66.7685C11.5361 67.2145 11.1223 67.8517 10.8995 68.5526C10.7722 68.9031 10.7085 69.2536 10.7085 69.604C10.7085 69.6996 10.7085 69.7952 10.7085 69.8589C10.7085 69.9545 10.7085 70.0182 10.7404 70.1775L10.804 70.9422L11.0268 73.9689C11.6316 82.0295 12.1091 90.0901 12.5547 98.1508C12.682 100.158 12.7457 102.197 12.873 104.204L12.9367 105.702L12.9685 106.084C12.9685 106.148 12.9685 106.211 12.9685 106.243V106.371C12.9685 106.562 13.0322 106.753 13.064 106.944C13.255 107.677 13.6369 108.378 14.2099 108.92C14.4963 109.206 14.8147 109.429 15.1648 109.589C15.5149 109.78 15.865 109.907 16.2788 109.971C16.4698 110.035 16.6608 110.035 16.8836 110.035L17.6475 110.067L19.1436 110.13L25.1913 110.417L37.2868 110.99L49.3823 111.468C57.4354 111.755 65.5203 111.914 73.5733 112.074L79.6211 112.169L85.6688 112.233H86.4328C86.6874 112.233 86.9421 112.233 87.1649 112.233C87.3877 112.233 87.6105 112.201 87.8015 112.169C88.0243 112.137 88.2153 112.074 88.4699 112.01L91.3665 111.182L97.1914 109.525L103.016 107.868L104.449 107.454C104.831 107.358 105.181 107.167 105.531 106.944C106.199 106.498 106.74 105.893 107.059 105.16C107.218 104.81 107.345 104.427 107.377 104.045C107.377 103.949 107.409 103.854 107.409 103.758C107.409 103.726 107.409 103.663 107.409 103.599V103.408L107.441 102.643L107.6 99.6164L107.95 93.5629C108.427 85.5023 108.969 77.4416 109.51 69.381L109.924 63.3276L110.114 60.3008L110.21 58.8034L110.242 58.4211C110.274 58.2618 110.274 58.1025 110.305 57.9113C110.369 57.5927 110.433 57.2423 110.528 56.9236C110.91 55.6492 111.674 54.4704 112.693 53.5783C113.202 53.1323 113.775 52.7818 114.38 52.4951C114.73 52.3358 114.889 52.2721 115.144 52.1765C115.366 52.0809 115.589 51.9853 115.812 51.8897C117.563 51.1251 119.218 50.1693 120.746 49.086C123.802 46.8877 126.284 44.0203 127.717 40.6431C128.067 39.8147 128.385 38.9226 128.608 38.0624C128.831 37.1703 129.022 36.2782 129.117 35.3543C129.181 34.9082 129.213 34.3985 129.244 33.9206C129.276 33.4427 129.34 32.9648 129.34 32.455L129.404 30.9894V29.5239C129.34 25.6688 128.767 21.8137 127.462 18.2772C127.144 17.3851 126.762 16.5567 126.316 15.7284C126.189 15.5372 126.093 15.3142 125.998 15.123L125.839 14.8363C125.775 14.7407 125.711 14.6133 125.679 14.5814C125.489 14.2947 125.266 14.0398 125.011 13.8168C124.502 13.3707 123.865 13.084 123.197 12.9884C123.038 12.9565 122.847 12.9565 122.687 12.9565H122.56C122.528 12.9565 122.433 12.9565 122.369 12.9565L121.987 12.9884L120.491 13.0521L114.443 13.307L108.396 13.53C104.353 13.6893 100.343 13.7849 96.3002 13.9123L84.2046 14.2309L78.1569 14.3902L72.1091 14.5814C68.0667 14.7088 64.0561 14.8681 60.0136 15.0274L53.9659 15.3142C52.9791 15.346 52.0242 15.6647 51.2285 16.2063C50.2736 16.8116 49.6051 17.6081 49.2232 18.5002ZM48.9049 18.3728C49.2868 17.417 49.9871 16.5567 50.8465 15.9833C51.7059 15.3779 52.7563 15.0593 53.7749 14.9956L59.8227 14.6133C63.8333 14.3265 67.8757 14.0398 71.8863 13.7212L77.9341 13.2433L83.95 12.7335L96.0137 11.6821C100.024 11.3635 104.067 10.9812 108.077 10.6945L114.125 10.2166L120.173 9.77051L121.669 9.67493L122.051 9.64307H122.242H122.496C122.815 9.64307 123.165 9.64307 123.483 9.70679C124.82 9.86609 126.093 10.4077 127.112 11.2679C127.621 11.714 128.099 12.2237 128.449 12.7654C128.544 12.9247 128.608 13.0203 128.672 13.1477L128.894 13.4982C129.022 13.7212 129.149 13.9761 129.308 14.1991C129.817 15.1549 130.295 16.1426 130.677 17.1302C132.268 21.1446 132.905 25.4139 133 29.5876V31.1487L132.937 32.7099C132.937 33.2196 132.873 33.7613 132.841 34.271C132.809 34.7808 132.778 35.3224 132.714 35.864C132.587 36.9473 132.396 38.0305 132.109 39.0819C131.855 40.1652 131.473 41.1847 131.027 42.2042C130.168 44.2433 128.958 46.123 127.557 47.7798C126.157 49.4684 124.502 50.9021 122.719 52.1446C120.969 53.3872 119.059 54.4067 117.117 55.2351C116.863 55.3306 116.64 55.4262 116.385 55.5537C116.162 55.6492 115.844 55.7767 115.748 55.8085C115.43 55.936 115.144 56.1271 114.889 56.3183C114.38 56.7325 113.998 57.3378 113.775 57.975C113.711 58.1343 113.679 58.2936 113.648 58.4848L113.616 58.7397L113.584 59.0901L113.457 60.5876L113.202 63.6143L112.693 69.6359C112.024 77.6965 111.356 85.7253 110.656 93.7859L110.114 99.8075L109.828 102.834L109.764 103.599L109.733 103.79C109.733 103.854 109.733 103.917 109.701 104.013C109.669 104.172 109.669 104.332 109.637 104.459C109.542 105.064 109.319 105.67 109.064 106.211C108.523 107.327 107.632 108.25 106.581 108.888C106.04 109.206 105.499 109.429 104.894 109.589L103.398 109.939L97.5097 111.373L91.6211 112.806L88.6927 113.507C88.4699 113.571 88.1834 113.635 87.897 113.667C87.6105 113.699 87.324 113.73 87.0375 113.73C86.7192 113.73 86.4964 113.699 86.2418 113.699L85.4779 113.667L79.4301 113.412L73.3824 113.189C65.3293 112.902 57.2444 112.679 49.1913 112.52L37.0958 112.36L25.0003 112.297L18.9526 112.265H17.4247H16.6608C16.3743 112.233 16.056 112.265 15.7377 112.201C15.133 112.106 14.5282 111.946 13.9552 111.691C13.3823 111.437 12.873 111.086 12.3955 110.672C11.4406 109.875 10.7404 108.76 10.3902 107.55C10.3266 107.231 10.2311 106.944 10.1993 106.626C10.1674 106.466 10.1674 106.307 10.1356 106.18L10.1038 105.797L9.97645 104.3C9.8173 102.293 9.62632 100.285 9.46716 98.2782C8.83056 90.2176 8.22578 82.1888 7.74833 74.1282L7.55735 71.1015L7.52552 70.3368C7.52552 70.2412 7.52552 70.0501 7.49369 69.8908C7.49369 69.7315 7.49369 69.5722 7.49369 69.4129C7.52552 68.7757 7.65284 68.1385 7.87565 67.5012C8.32127 66.2906 9.11703 65.2073 10.1356 64.4108C10.2629 64.3152 10.3902 64.2196 10.5176 64.1241L10.7085 63.9966C10.7722 63.9648 10.8359 63.901 10.8995 63.8692L11.568 63.4869L12.873 62.7222C16.3743 60.715 19.9075 58.7715 23.4088 56.7962L28.6926 53.8651L31.3346 52.3995L32.6714 51.6667L33.308 51.3162C33.499 51.2207 33.6582 51.0932 33.8492 50.9658C34.1993 50.7109 34.4858 50.3923 34.7404 50.01C34.8677 49.8188 34.995 49.6595 35.0905 49.4365C35.186 49.2453 35.2815 48.9905 35.4088 48.7674L36.6502 45.9956L39.133 40.4519C42.6025 33.2196 45.8173 25.8281 48.9049 18.3728Z" stroke="#001064" mask="url(#path-7-outside-1)"/>
<path d="M8.95668 66.9278H90.7605L87.5775 113.061" stroke="#001064" stroke-width="4" stroke-miterlimit="10"/>
<path d="M90.7607 66.9277L112.183 55.1394L110.75 55.0438L35.3124 51.2524" stroke="#001064" stroke-width="4" stroke-miterlimit="10"/>
<path d="M125.01 11.1724L112.183 55.1395" stroke="#001064" stroke-width="4" stroke-miterlimit="10"/>
<path d="M30.3151 66.9281L30.5698 71.5478C30.6653 73.0771 30.7608 74.6064 30.8881 76.1357C31.0154 77.665 31.1746 79.1624 31.3655 80.6599C31.5565 82.1573 31.7793 83.6547 32.034 85.1203C32.1613 85.8531 32.2886 86.6177 32.4478 87.3505C32.6069 88.0833 32.7661 88.8161 32.9889 89.5489C33.4345 90.9826 34.0075 92.3844 34.8987 93.5951C35.7581 94.8058 36.9358 95.8253 38.3045 96.3988C39.6414 96.9723 41.1693 97.0997 42.6016 96.8767C43.3337 96.7811 44.034 96.59 44.6706 96.3351C45.339 96.0802 45.9756 95.7298 46.5486 95.3474C47.7263 94.5509 48.7449 93.5633 49.6679 92.4163C51.4504 90.1223 52.6918 87.3824 53.7422 84.5787C54.2833 83.1768 54.7608 81.7431 55.2064 80.3094C55.4292 79.5766 55.652 78.8438 55.843 78.111C56.034 77.3783 56.2568 76.6455 56.416 75.9127C57.1799 72.9497 57.8165 69.9548 58.3894 66.9281H58.6123C58.7077 68.4892 58.6759 70.0504 58.5804 71.6116C58.5486 72.3762 58.4849 73.1727 58.3894 73.9373C58.3258 74.702 58.2303 75.4985 58.103 76.2631C57.9756 77.0278 57.8802 77.8243 57.721 78.5889C57.5619 79.3536 57.4027 80.1182 57.2436 80.8829C56.8934 82.4122 56.4478 83.9415 55.9385 85.407C55.3974 86.9045 54.7608 88.37 53.9969 89.7719C53.2329 91.1737 52.3099 92.5437 51.2595 93.7544C50.1772 94.9651 48.9359 96.0802 47.4398 96.8767C45.9756 97.6732 44.2886 98.0556 42.6653 98.0874C41.0419 98.1193 39.4186 97.7688 37.9544 97.0679C36.522 96.3351 35.2807 95.2518 34.2939 94.0412C33.3072 92.7986 32.4796 91.4286 31.8112 89.9949C31.1109 88.5612 30.5698 87.0638 30.156 85.5345C29.7422 84.0052 29.4876 82.444 29.3284 80.8829C29.1693 79.3217 29.1056 77.7606 29.1056 76.1994C29.1056 74.6383 29.1693 73.0771 29.3284 71.516C29.4876 69.9548 29.6785 68.4255 30.0287 66.8962L30.3151 66.9281Z" fill="#001064"/>
<path d="M45.5298 86.2032L44.193 81.6472C44.0975 81.3286 44.193 81.01 44.4794 80.787C45.2434 80.1817 45.7526 79.2577 45.7845 78.2382C45.8481 76.3903 44.3521 74.7654 42.3786 74.6061C40.2778 74.415 38.4635 75.8805 38.3362 77.8559C38.2725 78.8435 38.6545 79.7675 39.2911 80.4365C39.5139 80.6914 39.5776 81.01 39.4502 81.3286L37.4449 85.6616C37.3176 85.9484 37.5404 86.2988 37.8587 86.3307L45.0205 86.8086C45.3707 86.8086 45.6253 86.49 45.5298 86.2032Z" fill="#001064"/>
<path d="M101.25 45.1879L98.8153 41.5325L98.2067 42.7509L95.1634 47.0156L91.5114 48.5387L96.0764 51.5848L98.2067 55.5448L100.337 51.5848L105.206 48.5387L104.902 47.6248L101.25 45.1879Z" fill="white"/>
<path d="M108.885 48.2871C108.349 47.8832 107.466 47.8994 106.806 47.7136C106.08 47.5036 105.379 47.237 104.718 46.8977C103.365 46.203 102.177 45.2579 101.27 44.1189C100.337 42.9476 99.7018 41.5502 99.413 40.1285C99.4047 40.0719 99.3882 40.0073 99.38 39.9508C99.644 38.5291 99.7018 37.0831 99.4873 35.7341C99.3635 34.9263 97.9443 34.9344 97.8783 35.7664C97.8618 35.9441 97.8535 36.1219 97.8618 36.2996C97.8618 36.3642 97.87 36.4207 97.8865 36.4773C97.903 37.6082 97.9113 38.7229 97.7215 39.8619C97.4905 41.2513 97.0614 42.6245 96.4508 43.917C95.9228 45.0398 95.2049 46.1222 94.157 46.9139C93.0018 47.7863 91.6321 48.0852 90.1552 48.1013C89.6849 48.1094 89.4868 48.6506 89.9489 48.8445C90.3615 49.0141 90.7823 49.1111 91.1866 49.1434C91.3929 49.2726 91.5909 49.3938 91.8302 49.4988C92.284 49.7007 92.7213 49.9108 93.1339 50.1773C93.9755 50.7024 94.7181 51.3486 95.3204 52.0918C96.6158 53.6993 97.1604 55.7591 96.9376 57.7221C96.8881 58.1663 97.2099 58.441 97.5812 58.5137C97.9855 59.1761 99.149 58.9418 99.0829 58.0775C98.9014 55.6703 99.5533 53.3115 101.534 51.5829C102.441 50.7913 103.506 50.2258 104.685 49.83C105.453 49.5634 106.253 49.4584 107.045 49.3372C107.639 49.4907 108.266 49.5796 108.77 49.3695C109.265 49.1595 109.281 48.5779 108.885 48.2871ZM104.265 48.4648C102.804 48.8687 101.426 49.628 100.354 50.6055C99.4047 51.4698 98.6291 52.5442 98.1011 53.7074C97.7793 52.8673 97.3172 52.0595 96.7149 51.3244C96.0135 50.4601 95.1141 49.7007 94.1157 49.1191C93.893 48.9899 93.6619 48.8687 93.4226 48.7476C95.1306 48.0448 96.5911 46.51 97.3997 45.1529C97.8865 44.337 98.3073 43.4404 98.6539 42.5114C98.9757 43.3112 99.3965 44.0786 99.9246 44.7975C100.898 46.1222 102.243 47.2532 103.753 48.0609C103.976 48.1821 104.207 48.2952 104.438 48.4002C104.388 48.4325 104.331 48.4487 104.265 48.4648Z" fill="#001064"/>
<path fill-rule="evenodd" clip-rule="evenodd" d="M16.606 38.3544C16.1975 38.8125 15.9446 39.3792 15.6077 39.9338C15.3913 40.2473 15.5226 40.5248 15.8339 40.742C16.7312 41.6471 17.941 42.1664 19.0426 42.8424C20.4676 43.6513 22.0847 44.3156 23.618 44.9677C24.1809 45.2213 24.373 45.0767 24.6138 44.5944C25.2643 43.0509 25.2643 43.0509 23.8271 42.3265C21.5875 41.2277 19.3721 39.96 17.2407 38.7045C17.0012 38.5838 16.7616 38.463 16.606 38.3544Z" fill="#001064"/>
<path fill-rule="evenodd" clip-rule="evenodd" d="M30.3222 26.3863C30.146 26.1839 30.1923 26.0728 30.4284 25.9747C30.5071 25.942 30.632 25.7983 30.7107 25.7656C32.0299 24.942 32.1086 24.9093 32.9758 26.1106C34.3253 28.0303 35.6286 30.0609 36.9782 31.9805C37.1869 32.2613 37.1731 32.4507 36.9695 32.6272C36.3262 33.0782 35.7153 33.6075 35.072 34.0585C34.7897 34.2676 34.6785 34.222 34.4698 33.9412C33.0827 31.486 31.6956 29.0309 30.341 26.6541C30.3872 26.543 30.3547 26.4646 30.3222 26.3863Z" fill="#001064"/>
<path fill-rule="evenodd" clip-rule="evenodd" d="M52.7234 23.1806C53.1097 25.2248 53.1487 27.3214 53.2665 29.3853C53.299 29.4636 53.3177 29.7314 53.239 29.7641C52.4982 29.98 51.831 29.706 51.1039 29.7325C50.6454 29.7392 50.7516 29.3277 50.7328 29.0599C50.5826 26.9177 50.4324 24.7754 50.2034 22.6658C50.1984 22.2086 50.3233 22.0649 50.7818 22.0581C50.893 22.1038 51.0504 22.0384 51.1291 22.0057C52.3934 21.9398 52.3934 21.9398 52.7234 23.1806Z" fill="#001064"/>
<path d="M66.6337 30.5359L49.7746 43.6609L62.0845 61.3394L77.8732 48.2144L66.6337 30.5359Z" fill="white"/>
<path d="M78.9642 47.9516C77.0195 44.8252 75.067 41.7044 73.1212 38.5847C71.4511 35.9123 69.8268 33.2131 68.0383 30.6313C68.0174 30.5103 68.0031 30.3904 67.9822 30.2694C67.9447 30.042 67.8201 29.8828 67.6574 29.7862C67.6367 29.5409 67.4085 29.302 67.1584 29.3981C66.9179 29.1917 66.5613 29.4703 66.564 29.7817C63.601 31.7288 60.7981 33.9102 57.9641 36.031C54.9178 38.3096 51.8715 40.5882 48.8307 42.8746C48.4374 43.1677 48.5188 43.7066 48.7557 44.0575C50.8411 47.1246 52.95 50.175 55.0588 53.2254L58.181 57.7388C58.7115 58.5123 59.2499 59.2803 59.7804 60.0538C60.1508 60.593 60.4932 61.1759 60.9273 61.6637C61.0091 61.9953 61.3076 62.2668 61.6401 62.2537C62.0225 62.3941 62.4882 62.1616 62.6396 61.7932C63.0977 61.4834 63.527 61.0997 63.9573 60.7506C64.6714 60.1868 65.3777 59.6286 66.0919 59.0648L70.2505 55.7781C73.0602 53.5564 75.8631 51.3335 78.6628 49.0894C78.9802 48.8388 79.22 48.354 78.9642 47.9516ZM66.4794 32.3312C66.6956 34.5237 67.0345 36.7231 67.2864 38.9078C67.4497 40.3105 67.6051 41.7187 67.7683 43.1214C67.8406 43.7555 67.9263 44.3919 68.0064 45.0204C68.0459 45.3173 68.0721 45.612 68.1127 45.9022L62.6589 44.9418C61.5693 44.7513 60.4796 44.5608 59.3889 44.3771C60.709 42.1739 62.028 39.9775 63.3415 37.7732C64.4142 35.9775 65.5003 34.1841 66.4794 32.3312ZM58.794 37.1936C61.1241 35.3679 63.4888 33.5826 65.7511 31.6695C64.4866 33.419 63.3268 35.2415 62.1536 37.0617C60.6838 39.3364 59.2207 41.6122 57.7632 43.8958C57.7251 43.9585 57.6937 44.0224 57.6691 44.0873C56.9129 43.9599 56.1567 43.8325 55.4005 43.7051C54.1893 43.501 52.9769 43.3037 51.7623 43.1198C51.6352 43.0983 51.4824 43.0657 51.3229 43.0319C53.8173 41.0888 56.3051 39.1446 58.794 37.1936ZM59.6926 56.7703C58.6159 55.2345 57.547 53.693 56.4703 52.1572C54.6683 49.5731 52.8586 46.9946 51.041 44.4218C51.4726 44.5152 51.9143 44.5896 52.3537 44.6775C53.4577 44.905 54.5719 45.1134 55.6793 45.3207C56.4132 45.4582 57.147 45.5957 57.8797 45.7399C57.9849 46.6697 58.303 47.6424 58.4842 48.4884C58.7791 49.8856 59.0963 51.2728 59.4057 52.6656C59.7991 54.4595 60.1991 56.2545 60.5914 58.0551C60.2866 57.6168 59.9929 57.1941 59.6926 56.7703ZM62.2965 58.9229C61.8147 56.7547 61.3251 54.5922 60.8433 52.424C60.5393 51.0806 60.2499 49.7326 59.9393 48.388C59.7934 47.7415 59.6341 47.0927 59.4815 46.4451C59.4495 46.3084 59.4185 46.165 59.3876 46.0215C60.5151 46.2322 61.636 46.4418 62.7646 46.6458C64.5736 46.9782 66.377 47.3028 68.186 47.6352C67.0501 49.7658 65.902 51.8873 64.804 54.0381C63.9693 55.6458 63.0588 57.2546 62.2965 58.9229ZM69.3454 54.3264C67.9194 55.4406 66.4922 56.5615 65.0662 57.6757C64.5834 58.0505 64.0995 58.4319 63.6234 58.8078C64.4731 57.4376 65.2382 55.9978 66.0412 54.6197C67.3267 52.4176 68.5554 50.1852 69.8086 47.9708C69.8176 47.9585 69.8187 47.9518 69.8277 47.9395C71.911 48.3181 74.0011 48.6979 76.0844 49.0765C73.837 50.8194 71.5884 52.569 69.3454 54.3264ZM69.7433 46.1907C69.7309 45.7325 69.656 45.2776 69.6157 44.8217C69.5535 44.1685 69.4857 43.5075 69.4157 42.86C69.2591 41.4584 69.1037 40.0501 68.9472 38.6486C68.7502 36.8739 68.6056 35.0736 68.4108 33.2855C69.5835 35.3558 70.8254 37.3825 72.0439 39.426C73.6314 42.0983 75.22 44.7639 76.8142 47.4373L69.7433 46.1907Z" fill="#001064"/>
<path d="M90.6521 32.5936C91.7136 33.0767 92.7212 32.9336 93.7227 32.5637C95.6419 31.8479 96.9313 30.446 97.9809 28.734C97.645 28.4835 97.3451 28.2806 97.0693 28.054C95.1981 26.5209 94.4844 23.9081 95.354 21.7188C95.7438 20.7465 96.3076 19.8457 97.4771 19.8219C98.6705 19.798 99.5102 20.5317 100.014 21.5637C100.596 22.7568 100.692 24.0572 100.578 25.3576C100.518 26.0675 100.338 26.7655 100.182 27.6245C100.932 27.5171 101.639 27.4753 102.323 27.3083C102.977 27.1472 103.6 26.8609 104.29 26.6104C104.536 27.3322 104.146 27.7915 103.672 28.1912C102.779 28.9488 101.693 29.1933 100.56 29.2768C100.164 29.3067 99.7681 29.2828 99.3123 29.2828C99.0364 29.7004 98.7545 30.1478 98.4426 30.5832C97.537 31.8658 96.4395 32.9336 95.0301 33.6733C93.3509 34.5561 91.6117 34.753 89.8604 34.1386C89.1647 34.9081 88.553 35.6657 87.8573 36.3338C86.7178 37.4254 85.3804 38.183 83.7971 38.4694C82.5856 38.6901 81.4041 38.5529 80.3006 38.0518C79.7968 37.8192 79.353 37.4075 78.9452 37.0198C78.6514 36.7394 78.5434 36.3577 78.9032 35.8685C80.5525 37.1451 82.3877 37.4195 84.3129 36.817C86.1061 36.2562 87.4135 35.0334 88.535 33.4883C88.2471 33.2199 87.9593 32.9634 87.6894 32.689C86.1361 31.1499 85.4164 29.3067 85.6743 27.1234C85.7162 26.7714 85.8182 26.4135 85.9561 26.0914C86.6099 24.5702 88.0492 24.0811 89.5246 24.8804C90.796 25.5724 91.4797 26.6402 91.5637 28.0898C91.6296 29.2947 91.4197 30.446 90.9999 31.5735C90.886 31.8956 90.778 32.2297 90.6521 32.5936ZM89.4286 31.9254C90.0403 30.6548 90.3522 29.4319 90.2802 28.1136C90.2383 27.2964 89.8964 26.6819 89.2187 26.2345C88.1692 25.5485 87.4735 25.8349 87.2036 27.0757C86.8258 28.7877 87.7134 30.7801 89.4286 31.9254ZM98.8325 27.0339C99.4202 25.6201 99.3842 24.2481 99.0424 22.8642C98.9524 22.4943 98.7665 22.1125 98.5206 21.8262C97.8369 21.0268 97.2552 21.1342 96.8354 22.1006C96.0557 23.8604 96.9133 26.0496 98.8325 27.0339Z" fill="#001064"/>
</svg>
