<svg width="42" height="50" viewBox="0 0 42 50" fill="none" xmlns="http://www.w3.org/2000/svg">
<path d="M30.7074 6H9.56434C8.70884 6 8 6.68242 8 7.51648V48.4835C8 49.3176 8.6844 50 9.56434 50H40.4357C41.2912 50 42 49.3176 42 48.4835V14.6187C42 14.2143 41.8289 13.8352 41.5356 13.5571L34.2272 6.45495C33.9339 6.17692 33.5428 6.02528 33.1272 6.02528L30.7074 6Z" fill="#001064"/>
<path d="M23.7074 1H2.56434C1.70884 1 1 1.66691 1 2.48202V42.518C1 43.3331 1.6844 44 2.56434 44H33.4357C34.2912 44 35 43.3331 35 42.518V9.42281C35 9.0276 34.8289 8.6571 34.5356 8.3854L27.2272 1.44461C26.9339 1.1729 26.5428 1.0247 26.1272 1.0247L23.7074 1Z" fill="white"/>
<path fill-rule="evenodd" clip-rule="evenodd" d="M24.3618 0H2.66107C1.26751 0 0 1.06633 0 2.51738V42.4826C0 43.9234 1.23137 45 2.66107 45H34.3389C35.7325 45 37 43.9337 37 42.4826V9.44591C37 8.74287 36.6869 8.10362 36.1865 7.65011L28.6865 0.721006L28.6817 0.716648C28.1761 0.260981 27.5181 0.0260398 26.8455 0.0246634L24.3618 0ZM24.3512 2.07595L26.8342 2.10061H26.8396C27.0156 2.10061 27.1565 2.16003 27.2513 2.24382L34.7493 9.17112L34.7541 9.17547C34.8525 9.26412 34.8883 9.36248 34.8883 9.44591V42.4826C34.8883 42.6589 34.7011 42.924 34.3389 42.924H2.66107C2.2849 42.924 2.11171 42.6692 2.11171 42.4826V2.51738C2.11171 2.34108 2.29892 2.07595 2.66107 2.07595H24.3512Z" fill="#001066"/>
<path d="M28.0238 1L28 7.4C28 8.275 28.7143 9 29.619 9H36" fill="#001C63"/>
<rect x="8" y="31.333" width="22" height="2" fill="#001C63"/>
<path d="M18.0827 13.0003L18.0827 24.1562L12.9585 19.032L11.666 20.3337L18.9993 27.667L26.3327 20.3337L25.0402 19.0412L19.916 24.1562L19.916 13.0003L18.0827 13.0003Z" fill="#001064"/>
</svg>
