<svg width="418" height="225" viewBox="0 0 418 225" fill="none" xmlns="http://www.w3.org/2000/svg">
<path d="M131.198 193.818C125.426 196.731 56.0146 224.405 55.3783 222.658C52.1035 213.669 49.4569 204.157 45.0623 195.644C41.7519 189.231 40.6269 182.167 38.1749 175.436C35.3278 167.621 32.4806 159.806 29.6335 151.991C21.3682 129.303 13.1029 106.616 4.83761 83.9286C3.9722 81.5531 2.52784 78.9635 2.11097 76.4442C1.56541 73.1472 16.499 68.6732 18.8848 67.8041C34.2884 62.1923 49.8175 57.378 65.2179 51.7675C97.2829 40.0859 128.721 26.9465 160.801 15.2594C163.633 14.2277 184.639 4.22821 186.016 6.35433C191.066 14.1531 192.523 24.1282 197.302 32.1255C199.9 36.4732 200.697 41.7398 203.119 46.2123C205.705 50.9871 207.543 56.0902 210.105 60.9037C216.083 72.1355 221.756 83.6032 227.743 94.8525C234.728 107.976 244.077 120.882 249.157 134.826" stroke="#001064" stroke-width="3" stroke-linecap="round" stroke-linejoin="round" stroke-dasharray="10 10"/>
<rect width="287.268" height="91.1963" rx="7" transform="matrix(-0.992204 0.124623 0.124623 0.992204 327.23 51.2505)" fill="#001064"/>
<rect x="56.8215" y="59.0101" width="280" height="96" rx="5" transform="rotate(-7.15901 56.8215 59.0101)" fill="#FFE9BE" stroke="#001064" stroke-width="4"/>
<rect x="56.8215" y="59.0101" width="121.429" height="96" rx="5" transform="rotate(-7.15901 56.8215 59.0101)" fill="#FFD9D1" stroke="#001064" stroke-width="4"/>
<rect x="179.855" y="43.5569" width="55.1813" height="96" rx="5" transform="rotate(-7.15901 179.855 43.5569)" fill="#BAF0DF" stroke="#001064" stroke-width="4"/>
<path d="M284.135 91.1985C281.828 90.7919 279.211 90.417 276.98 88.9552C274.812 87.5787 272.795 84.6248 273.545 81.5344C274.263 78.6677 276.838 77.2093 279.083 75.9319C279.499 75.6871 279.916 75.4422 280.248 75.2613C284.939 72.3548 288.159 66.9532 288.344 61.4216C288.562 55.6661 285.393 50.1108 280.684 47.8371C275.761 45.4568 269.168 47.2534 266.558 51.6002C266.152 52.3034 265.276 52.5586 264.571 52.1531C263.866 51.7475 263.61 50.8734 264.017 50.1702C267.365 44.4063 275.624 42.1632 281.967 45.28C287.745 48.0873 291.533 54.645 291.293 61.6155C291.031 68.2023 287.459 74.467 281.848 77.927C281.431 78.1719 281.014 78.4167 280.598 78.6616C278.685 79.758 276.857 80.7906 276.471 82.4104C276.086 84.0303 277.281 85.8004 278.68 86.6861C280.431 87.7745 282.589 88.1597 284.682 88.4597C285.505 88.5775 286.006 89.3346 285.888 90.1552C285.642 90.8052 284.958 91.3164 284.135 91.1985Z" fill="#001064"/>
<path d="M324.472 63.3232C323.873 63.2375 323.404 62.7895 323.255 62.2351C322.093 57.5765 317.983 53.7898 313.294 52.9658C308.53 52.131 303.412 54.2911 300.706 58.2435C300.225 58.9359 299.359 59.1165 298.665 58.6364C297.971 58.1563 297.79 57.2928 298.272 56.6003C301.64 51.7531 307.977 49.0823 313.777 50.1416C319.577 51.2009 324.626 55.8836 326.086 61.6509C326.278 62.4398 325.786 63.2068 324.995 63.3981C324.856 63.3021 324.696 63.3553 324.472 63.3232Z" fill="#001064"/>
<path d="M309.292 63.8832C309.056 65.5245 307.506 66.7491 305.787 66.5028C304.142 66.2672 302.914 64.7208 303.161 63.005C303.408 61.2891 304.947 60.1391 306.667 60.3854C308.386 60.6318 309.539 62.1674 309.292 63.8832Z" fill="#001064"/>
<path d="M274.456 62.0145C276.149 62.257 277.719 61.0842 277.962 59.395C278.205 57.7057 277.03 56.1397 275.337 55.8971C273.644 55.6546 272.074 56.8274 271.831 58.5167C271.588 60.206 272.764 61.772 274.456 62.0145Z" fill="#001064"/>
<path d="M283.735 114.135C274.164 112.764 266.018 105.201 263.856 95.8309C263.707 95.2765 263.932 94.7757 264.296 94.371C264.723 94.0515 265.279 93.9027 265.781 94.1269C278.778 98.7299 292.921 100.68 306.638 99.7516C307.172 99.752 307.674 99.9762 307.994 100.403C308.315 100.829 308.304 101.437 308.079 101.938C303.511 110.344 293.38 115.517 283.874 114.231L283.735 114.135ZM267.541 97.8053C270.206 104.735 276.826 110.176 284.153 111.226L284.303 111.247C291.716 112.233 299.613 108.796 304.061 102.809C297.684 103.113 291.328 102.736 284.972 101.825C278.98 101.043 273.223 99.6853 267.541 97.8053Z" fill="#001064"/>
<path d="M129.746 113.913C130.221 113.862 130.695 113.768 131.169 113.673C134.573 112.796 137.762 109.491 137.003 105.639C136.623 103.649 135.165 101.892 132.979 100.58C132.061 100.03 131.103 99.6547 130.187 99.235C129.446 98.9427 128.792 98.6491 128.136 98.2686C122.197 95.1059 119.633 86.8556 122.733 80.9043C125.833 74.953 134.054 72.3507 140.035 75.426C140.821 75.8478 141.767 75.5292 142.143 74.7421C142.563 73.9543 142.243 73.0043 141.458 72.6259C134.036 68.7919 123.793 72.0333 119.938 79.4287C116.084 86.8242 119.29 97.1478 126.67 101.069C127.456 101.491 128.197 101.827 128.981 102.118C129.853 102.496 130.681 102.83 131.425 103.296C132.255 103.76 133.657 104.78 133.941 106.208C134.32 108.155 132.406 110.051 130.424 110.56C128.011 111.162 125.23 110.467 122.795 109.811C121.969 109.607 121.069 110.098 120.867 110.926C120.665 111.754 121.156 112.658 121.982 112.862C124.243 113.521 126.981 114.216 129.746 113.913Z" fill="#001064"/>
<path d="M106.828 83.5335C107.13 83.4853 107.432 83.3936 107.645 83.1729C108.328 82.5969 108.397 81.5957 107.823 80.9524C104.861 77.433 100.193 75.5056 95.6099 75.9685C91.0264 76.4313 86.8295 79.2362 84.6028 83.2714C84.1832 84.0606 84.4594 85.0129 85.2463 85.4355C85.9898 85.8587 86.9814 85.5823 87.401 84.7931C89.0811 81.7231 92.4223 79.5403 95.924 79.1378C99.4263 78.7788 103.134 80.2864 105.433 82.9899C105.786 83.4193 106.309 83.585 106.828 83.5335Z" fill="#001064"/>
<path d="M127.431 126.042C127.474 126.042 127.518 126.041 127.518 126.041C132.102 125.489 136.352 123.076 139.195 119.386C139.747 118.682 139.601 117.687 138.899 117.178C138.197 116.625 137.203 116.772 136.694 117.474C134.402 120.418 130.839 122.472 127.12 122.924C127.077 122.924 127.077 122.924 127.033 122.925C123.357 123.332 119.439 122.225 116.542 119.929C115.839 119.377 114.844 119.48 114.336 120.182C113.784 120.885 113.887 121.882 114.588 122.391C118.232 125.238 122.89 126.594 127.431 126.042Z" fill="#001064"/>
<path fill-rule="evenodd" clip-rule="evenodd" d="M103.175 96.8802C103.175 96.88 103.175 96.8797 104.577 96.8279C105.978 96.776 105.978 96.7757 105.978 96.7754L105.978 96.7722L105.978 96.7653L105.977 96.7425C105.976 96.7233 105.975 96.6963 105.973 96.6621C105.97 96.5936 105.964 96.4958 105.956 96.3729C105.94 96.1275 105.912 95.7804 105.868 95.3655C105.78 94.541 105.623 93.4236 105.344 92.2929C105.071 91.1838 104.656 89.9532 103.999 88.9728C103.334 87.9798 102.272 87.0443 100.734 87.0694C98.1048 87.1123 96.4694 89.3312 95.6479 91.2679C95.2111 92.2977 94.9275 93.4053 94.8032 94.4384C94.6815 95.45 94.6999 96.4966 94.9586 97.3645L97.6465 96.5615C97.5384 96.199 97.4917 95.5762 97.5881 94.7744C97.682 93.9939 97.8999 93.1437 98.2298 92.3658C98.9417 90.6874 99.9003 89.8919 100.78 89.8775C100.997 89.874 101.289 89.9685 101.669 90.5365C102.058 91.1172 102.378 91.9788 102.621 92.9654C102.859 93.9305 102.999 94.9125 103.079 95.6634C103.118 96.0362 103.143 96.3458 103.157 96.5602C103.164 96.6672 103.169 96.7501 103.172 96.8048L103.175 96.865L103.175 96.8783L103.175 96.8802Z" fill="#001064"/>
<path fill-rule="evenodd" clip-rule="evenodd" d="M138.431 93.0086C138.431 93.0084 138.431 93.0081 139.827 92.8693C141.223 92.7304 141.223 92.7301 141.223 92.7298L141.222 92.7266L141.222 92.7197L141.219 92.697C141.217 92.678 141.214 92.6512 141.21 92.6171C141.203 92.5491 141.191 92.452 141.175 92.33C141.144 92.0864 141.095 91.7423 141.025 91.3316C140.886 90.5155 140.66 89.4119 140.312 88.3024C139.97 87.2141 139.478 86.0133 138.761 85.0768C138.034 84.1276 136.915 83.2637 135.382 83.3836C132.753 83.5892 131.263 85.9186 130.57 87.9044C130.202 88.961 129.991 90.0849 129.937 91.1222C129.883 92.1365 129.972 93.1798 130.295 94.0256L132.915 93.0228C132.785 92.6829 132.695 92.0751 132.738 91.271C132.779 90.4899 132.94 89.6283 133.218 88.8304C133.819 87.1073 134.725 86.2521 135.601 86.1836C135.821 86.1663 136.121 86.2446 136.535 86.7858C136.959 87.3396 137.332 88.1774 137.636 89.1448C137.933 90.091 138.134 91.0602 138.26 91.803C138.323 92.1718 138.366 92.4786 138.394 92.6911C138.407 92.7973 138.417 92.8795 138.423 92.9338L138.43 92.9936L138.431 93.0067L138.431 93.0086Z" fill="#001064"/>
<path d="M370.01 38.0527L373.181 30.6436L377.762 38.0527L383.752 43.6978L375.648 47.9316L372.124 54.9879L370.01 47.9316L365.076 41.9337L370.01 38.0527Z" fill="white"/>
<path d="M386.403 42.4557C384.591 41.7273 382.872 41.1069 381.259 39.947C379.686 38.8275 378.327 37.3978 377.247 35.7792C376.061 33.9988 375.235 31.9891 374.795 29.885C374.662 29.2376 374.555 28.5632 374.502 27.9023C374.515 27.8349 374.528 27.7809 374.528 27.7C374.528 27.4707 374.528 27.2279 374.515 26.9852C374.568 26.041 374.568 25.0969 374.515 24.1662C374.422 22.5746 371.956 22.3858 372.023 24.0313C372.249 30.0604 370.437 40.473 363.12 41.2148C362.826 41.2013 362.533 41.2148 362.227 41.2553C362.08 41.2553 361.933 41.2553 361.787 41.2418C361.147 41.2013 360.961 42.159 361.587 42.3613C361.947 42.4827 362.293 42.5636 362.653 42.6175C363.799 42.9952 364.892 43.3594 365.879 44.1552C367.038 45.0723 367.984 46.3267 368.664 47.635C370.277 50.7372 370.463 54.3924 370.65 57.8318C370.69 58.6141 371.45 58.9513 372.009 58.7894C372.063 58.8164 372.129 58.8434 372.196 58.8569C372.569 58.9243 373.009 58.7085 373.116 58.3174C373.262 57.7779 373.302 57.1844 373.329 56.6044C373.395 56.4695 373.449 56.3212 373.462 56.1593C373.889 53.0166 375.181 50.1303 377.54 47.9587C378.673 46.9202 380.006 46.0974 381.432 45.5309C382.365 45.1667 383.325 44.9509 384.284 44.7486C384.817 44.924 385.351 45.0588 385.897 45.1533C387.51 45.4365 387.75 43.0087 386.403 42.4557ZM375.928 46.1648C374.208 47.689 372.849 49.6447 371.983 51.7893C371.623 49.7796 371.036 47.8373 369.97 46.0839C369.104 44.6677 367.758 43.1705 366.185 42.2129C368.344 41.3902 370.197 39.6098 371.423 37.5731C372.169 36.3322 372.782 34.9834 373.262 33.5807C373.755 34.9699 374.395 36.2918 375.208 37.5057C376.647 39.6772 378.687 41.7004 381.006 43.1436C379.086 43.8314 377.3 44.9509 375.928 46.1648Z" fill="#001064"/>
<path d="M396.011 93.9318L391.43 87.934L397.42 82.9945L400.239 76.291L404.82 86.1699L413.982 91.4621L403.763 94.6375L398.477 102.047L396.011 93.9318Z" fill="white"/>
<path d="M416.298 90.653C407.687 89.2811 401.694 81.516 402.435 73.3512C402.668 72.2457 402.874 71.1402 403.079 70.048C403.299 68.8759 401.324 68.3831 400.968 69.5419C400.543 70.9138 400.282 72.3123 400.159 73.7108C399.555 76.5745 398.691 79.4115 397.032 81.8489C396.031 83.3274 394.742 84.646 393.206 85.605C392.617 85.9646 392.027 86.2577 391.41 86.4841C391.369 86.4441 391.314 86.4175 391.273 86.3775C390.313 85.6716 389.257 86.2976 388.956 87.15C388.544 87.23 388.133 87.3099 387.708 87.3765C387.159 87.4697 386.967 88.3488 387.584 88.5219C388.188 88.6818 388.805 88.7484 389.408 88.7351C389.422 88.7484 389.449 88.7617 389.463 88.7883C394.29 92.3046 397.06 98.1651 396.58 104.012C396.429 105.89 399.212 106.17 399.542 104.332C400.899 96.8332 408.345 92.0782 415.969 93.4101C417.806 93.7298 418.094 90.986 416.298 90.653ZM399.034 97.9254C398.088 94.1027 396.017 90.5731 393.042 87.8293C395.099 86.857 396.936 85.2321 398.211 83.5938C399.212 82.3151 399.98 80.9299 400.597 79.4648C401.077 81.476 401.9 83.4206 403.079 85.2054C404.601 87.523 406.672 89.4277 409.044 90.8395C404.931 91.8917 401.338 94.4357 399.034 97.9254Z" fill="#001064"/>
<path d="M33.6964 59.9318L38.2773 53.934L32.2869 48.9945L29.4678 42.291L24.8869 52.1699L15.725 57.4621L25.944 60.6375L31.2297 68.0466L33.6964 59.9318Z" fill="white"/>
<path d="M13.409 56.653C22.0203 55.2811 28.0126 47.516 27.2722 39.3512C27.0391 38.2457 26.8334 37.1402 26.6277 36.048C26.4083 34.8759 28.3829 34.3831 28.7394 35.5419C29.1645 36.9138 29.425 38.3123 29.5484 39.7108C30.1518 42.5745 31.0156 45.4115 32.6748 47.8489C33.6758 49.3274 34.9648 50.646 36.5006 51.605C37.0902 51.9646 37.6798 52.2577 38.2969 52.4841C38.338 52.4441 38.3929 52.4175 38.434 52.3775C39.3939 51.6716 40.4497 52.2976 40.7514 53.15C41.1628 53.23 41.5741 53.3099 41.9992 53.3765C42.5477 53.4697 42.7397 54.3488 42.1226 54.5219C41.5193 54.6818 40.9022 54.7484 40.2989 54.7351C40.2852 54.7484 40.2577 54.7617 40.244 54.7883C35.4173 58.3046 32.6474 64.1651 33.1273 70.0123C33.2782 71.8904 30.4946 72.1701 30.1655 70.332C28.8079 62.8332 21.3622 58.0782 13.7381 59.4101C11.9007 59.7298 11.6127 56.986 13.409 56.653ZM30.6728 63.9254C31.619 60.1027 33.6895 56.5731 36.6651 53.8293C34.6083 52.857 32.7708 51.2321 31.4956 49.5938C30.4946 48.3151 29.7267 46.9299 29.1096 45.4648C28.6297 47.476 27.8069 49.4206 26.6277 51.2054C25.1056 53.523 23.0351 55.4277 20.6628 56.8395C24.7765 57.8917 28.3692 60.4357 30.6728 63.9254Z" fill="#001064"/>
<rect x="230.205" y="39.3281" width="14.7698" height="91.7315" transform="rotate(-7.66981 230.205 39.3281)" fill="#BAF0DF"/>
<path d="M244.172 33.2507C244.899 38.1378 244.872 43.0898 245.723 47.9728" stroke="#001064" stroke-width="3.20521" stroke-linecap="round" stroke-linejoin="round"/>
<path d="M248.029 61.2144C248.647 64.7584 249.257 68.2619 249.875 71.8079" stroke="#001064" stroke-width="3.20521" stroke-linecap="round" stroke-linejoin="round"/>
<path d="M251.721 82.4011C252.8 88.5966 252.898 94.9792 253.964 101.096" stroke="#001064" stroke-width="3.20521" stroke-linecap="round" stroke-linejoin="round"/>
<path d="M255.578 110.365C256.185 113.849 256.812 117.449 257.423 120.959" stroke="#001064" stroke-width="3.20521" stroke-linecap="round" stroke-linejoin="round"/>
</svg>
