<svg width="98" height="122" viewBox="0 0 98 122" fill="none" xmlns="http://www.w3.org/2000/svg">
<g clip-path="url(#clip0)">
<path d="M2.45728 49.6516L59.8656 60.5612L94.7127 45.1987L44.6758 36.0703L2.45728 49.6516Z" fill="#E9F7FF"/>
<path d="M1.4778 52.3643C1.4778 55.5986 1.48814 58.8329 1.52947 62.0569C1.55014 63.6741 1.57081 65.2913 1.61215 66.9084L1.66382 69.329L1.72583 71.7496C1.76716 73.3667 1.8085 74.9839 1.86017 76.601L2.01519 81.4525L2.32521 91.1451C2.42856 94.3794 2.51123 97.6137 2.57324 100.838L2.62491 103.258L2.64558 104.474L2.65591 104.68C2.65591 104.742 2.67658 104.814 2.68691 104.875C2.70758 104.999 2.74892 105.133 2.79026 105.246C2.9556 105.73 3.29664 106.142 3.71001 106.39C3.76168 106.42 3.81335 106.441 3.86502 106.472C3.91669 106.493 3.96836 106.513 4.03037 106.534C4.08204 106.544 4.14405 106.565 4.19572 106.585L4.27839 106.606L4.31973 106.616C4.3404 106.616 4.3404 106.626 4.3714 106.626L5.57018 106.832C11.9671 107.914 18.3434 109.078 24.7093 110.314C31.0752 111.54 37.4308 112.858 43.7864 114.146C46.9693 114.795 50.1419 115.433 53.3249 116.062L58.0993 116.989L58.6781 117.102C58.8434 117.133 59.0088 117.143 59.1741 117.133C59.3395 117.122 59.5048 117.102 59.6702 117.071C59.8148 117.04 60.0318 116.968 60.2179 116.906L62.5431 116.195C65.6434 115.248 68.7333 114.28 71.8233 113.301L74.1381 112.57L76.453 111.828L81.0828 110.335L85.7022 108.82L90.3113 107.286L92.6158 106.513L93.7629 106.122C93.7836 106.111 93.8146 106.101 93.8353 106.101L93.887 106.081L94.0006 106.039C94.073 106.008 94.1453 105.967 94.2073 105.936C94.2693 105.895 94.3417 105.854 94.4037 105.813C94.4657 105.761 94.538 105.72 94.5897 105.669C95.0754 105.267 95.4164 104.69 95.5301 104.072C95.5611 103.917 95.5818 103.763 95.5818 103.598V103.475V103.413V103.341L95.5714 103.042L95.5508 101.827L95.3338 92.1339L95.2304 87.2824L95.1477 82.431C95.0341 75.9624 94.9927 69.5041 94.9307 63.0355L94.848 53.3429L94.8067 48.4914V48.1927C94.8067 48.1309 94.7964 48.0794 94.7964 48.0176C94.786 47.9558 94.7757 47.9043 94.7757 47.8425L94.7344 47.6777C94.6724 47.4614 94.5794 47.2451 94.4553 47.07C94.2073 46.6992 93.8456 46.452 93.4632 46.3593L84.0074 44.8245C80.8038 44.2992 77.6105 43.7636 74.4172 43.228C71.2239 42.682 68.0202 42.1361 64.827 41.5799C61.6337 41.0237 58.4404 40.4675 55.2471 39.8907L50.4623 39.0151L45.6982 38.0984L44.4994 37.8718L43.9 37.7585L43.6003 37.6967C43.5383 37.6864 43.4763 37.6761 43.4143 37.6658C43.2903 37.6555 43.1663 37.6555 43.0526 37.6658C42.9906 37.6761 42.9286 37.6761 42.8666 37.6864C42.8356 37.6967 42.8046 37.6967 42.7736 37.707C42.7633 37.707 42.7426 37.7173 42.7323 37.7173C42.7116 37.7173 42.7116 37.7276 42.6806 37.7276L41.5128 38.0675L36.8417 39.4168C30.6101 41.1988 24.3579 42.9601 18.1367 44.7936L15.8011 45.4837L13.4759 46.1841C11.9258 46.6477 10.3756 47.1215 8.82548 47.5953C7.27533 48.0691 5.72519 48.5532 4.18538 49.0373L3.89602 49.13L3.75134 49.1712C3.69967 49.1918 3.65834 49.2021 3.617 49.2227C3.57566 49.2433 3.52399 49.2536 3.48265 49.2742L3.34831 49.336C3.2553 49.3772 3.18296 49.4288 3.08995 49.47C2.75925 49.6657 2.45956 49.9232 2.22187 50.2219C1.74649 50.8193 1.4778 51.5918 1.4778 52.3643ZM1.16777 52.3643C1.16777 51.5197 1.4468 50.6854 1.97385 50.0159C2.2322 49.676 2.55257 49.3875 2.91427 49.1712C3.00728 49.1197 3.10028 49.0579 3.19329 49.0167L3.33797 48.9446C3.38964 48.924 3.44132 48.9034 3.48265 48.8828C3.53432 48.8622 3.586 48.8416 3.62733 48.8313L3.77201 48.7798L4.06137 48.6871C5.60118 48.1824 7.14099 47.6674 8.67046 47.1524C10.2103 46.6374 11.7397 46.112 13.2692 45.5867L15.5634 44.7936L17.8576 43.9902C23.9755 41.8477 30.0728 39.6331 36.1803 37.4495L40.7584 35.822L41.9055 35.4203L41.9985 35.3894C42.0295 35.3791 42.0605 35.3688 42.1019 35.3585C42.1639 35.3379 42.2362 35.3173 42.3086 35.307C42.4429 35.2761 42.5876 35.2452 42.7219 35.2246C43.0009 35.1834 43.2903 35.1731 43.5693 35.1834C43.714 35.1937 43.8484 35.204 43.993 35.2246L44.2927 35.2658L44.8921 35.3482L46.1012 35.513L50.917 36.2031L55.7328 36.9139C58.9364 37.398 62.14 37.9027 65.3437 38.4074C68.5473 38.9121 71.7509 39.4168 74.9546 39.9422C78.1582 40.4572 81.3515 40.9825 84.5551 41.5284L89.3502 42.3421L91.7478 42.7541L92.9465 42.9601L93.5459 43.0632L93.8456 43.1147C93.8663 43.1147 93.918 43.125 93.949 43.1353L94.0626 43.1559L94.29 43.2074C94.8791 43.3619 95.4474 43.6297 95.9331 43.9902C96.4189 44.3507 96.8322 44.7936 97.1526 45.2777C97.473 45.7721 97.7106 46.3078 97.845 46.8743C97.876 47.0185 97.907 47.1524 97.9277 47.2966C97.9483 47.4408 97.969 47.585 97.9793 47.7292C97.9897 47.8734 97.9897 48.0176 98 48.1618V48.4708L97.9587 53.3223L97.876 63.0149C97.814 69.4835 97.7623 75.9418 97.659 82.4104L97.5763 87.2618L97.473 92.1133L97.2559 101.806L97.2353 103.021L97.2249 103.32V103.392V103.485L97.2146 103.67C97.1939 103.917 97.1526 104.154 97.1009 104.402C96.8736 105.36 96.3052 106.235 95.5198 106.832C95.4268 106.915 95.3131 106.977 95.2097 107.038C95.1064 107.1 94.9927 107.162 94.8791 107.224C94.7654 107.275 94.6517 107.327 94.538 107.368L94.3623 107.43L94.2693 107.461L94.197 107.481L93.0292 107.821L90.6937 108.511L86.0329 109.902L81.3825 111.313L76.732 112.745L74.4068 113.466L72.092 114.197C69.002 115.165 65.9121 116.154 62.8324 117.153L60.5176 117.905C60.3212 117.967 60.1455 118.029 59.9078 118.101C59.6805 118.163 59.4428 118.194 59.2051 118.214C58.9674 118.225 58.7297 118.214 58.492 118.183C58.368 118.163 58.275 118.153 58.1717 118.132L57.872 118.08L53.0665 117.308C49.8629 116.803 46.6593 116.309 43.4453 115.825C37.0277 114.846 30.6101 113.898 24.2132 112.858C17.806 111.818 11.4194 110.726 5.04313 109.541L3.84435 109.315C3.82368 109.315 3.78235 109.305 3.74101 109.294L3.63767 109.274L3.43098 109.222C3.29664 109.181 3.15196 109.129 3.01761 109.088C2.88326 109.037 2.74892 108.975 2.62491 108.913C2.5009 108.841 2.37689 108.779 2.25287 108.707C1.28145 108.099 0.57872 107.141 0.237688 106.101C0.155014 105.844 0.0930085 105.566 0.0516714 105.298C0.0413371 105.164 0.0206686 105.03 0.0103343 104.886L0 104.68V104.577C0 104.546 0 104.505 0 104.484L0.0206686 103.269L0.07234 100.848C0.134346 97.6137 0.227354 94.3794 0.320363 91.1554L0.630391 81.4628L0.785405 76.6113C0.826743 74.9942 0.878414 73.377 0.919751 71.7599L0.981757 69.3393L1.03343 66.9187C1.06443 65.3016 1.09543 63.6844 1.1161 62.0673C1.15744 58.8226 1.17811 55.5986 1.16777 52.3643Z" fill="#001064"/>
<path d="M2.23389 49.8734L59.474 59.9136L96.4191 45.1738" stroke="#001064" stroke-width="3" stroke-miterlimit="10"/>
<path d="M59.4736 59.9141V117.75" stroke="#001064" stroke-width="3" stroke-miterlimit="10"/>
<path d="M10.6034 97.6958C9.45631 97.4074 8.90859 96.5731 8.74324 95.4916C8.58823 94.4306 8.55722 93.3594 8.50555 92.2779C8.45388 91.2066 8.46421 90.1251 8.44355 89.0539C8.41254 87.6942 8.72257 87.3131 10.0454 87.1895C10.1797 81.4934 10.3141 75.7973 10.4381 70.1219C9.97302 70.0807 9.54931 70.1322 9.20828 69.9777C8.86725 69.8231 8.51589 69.5038 8.35054 69.1639C8.16452 68.7931 8.10251 68.2987 8.12318 67.8661C8.18519 66.2695 8.25753 64.6833 8.43321 63.097C8.53655 62.1494 9.02226 61.9125 9.91101 62.17C10.035 62.2009 10.159 62.2421 10.4381 62.3245C10.4381 61.5829 10.4071 60.9031 10.4484 60.2335C10.5414 58.8533 11.0168 58.5134 12.3189 58.7091C15.9876 59.2653 19.6562 59.77 23.3146 60.3159C26.8489 60.831 30.3832 61.3563 33.9176 61.8919C36.9352 62.3451 39.9424 62.8086 42.9601 63.2824C45.5126 63.6842 48.0755 64.0859 50.6281 64.5288C52.1472 64.7966 52.2506 64.879 52.2402 66.527C52.2299 69.236 52.1369 71.9347 52.0542 74.6437C51.9612 77.8368 51.7545 81.0196 51.7752 84.2127C51.7959 90.9079 51.9302 97.6031 52.0232 104.298C52.0439 105.617 52.0542 106.935 52.0749 108.254C52.0749 108.388 52.0749 108.532 52.0749 108.666C52.0129 110.149 51.7339 110.345 50.3904 110.087C46.7217 109.387 43.0427 108.707 39.3637 108.068C35.3954 107.378 31.4063 106.74 27.4276 106.08C23.8726 105.483 20.3176 104.896 16.7626 104.278C15.3468 104.031 13.9311 103.742 12.5256 103.413C11.0891 103.073 10.8204 102.702 10.7481 101.136C10.6551 99.9928 10.6447 98.8495 10.6034 97.6958ZM50.9278 65.7236C37.7516 63.8078 24.6167 61.8919 11.4095 59.976C11.4095 60.5014 11.4095 60.9546 11.4095 61.4078C11.4198 65.2601 11.5025 69.1124 11.4405 72.9544C11.2958 81.5243 11.1615 90.0839 11.7919 98.6435C11.8745 99.7147 11.9572 100.776 12.0399 101.867C12.1949 101.919 12.3086 101.97 12.4326 101.991C15.7499 102.609 19.0672 103.289 22.3948 103.835C27.3449 104.659 32.3054 105.38 37.2555 106.183C40.0665 106.637 42.8774 107.141 45.678 107.667C47.3211 107.965 48.9436 108.346 50.7004 108.707C50.9278 101.548 50.3594 94.4512 50.4834 87.3543C50.6074 80.2059 50.7831 73.0677 50.9278 65.7236ZM9.58032 69.1536C9.756 68.8343 9.79734 68.7828 9.81801 68.721C10.4071 67.1554 10.2314 65.5279 10.1797 63.9108C10.1694 63.5296 9.85934 63.4472 9.44597 63.5399C9.34263 65.0747 9.20828 66.6197 9.13594 68.1648C9.13594 68.4223 9.37363 68.7107 9.58032 69.1536ZM9.80767 88.4358C9.71466 88.6212 9.62165 88.7448 9.62165 88.8582C9.66299 90.9388 9.70433 93.0092 9.77667 95.0898C9.787 95.4401 9.88001 95.8109 10.221 96.089C10.3761 95.265 10.2727 89.7749 10.0867 88.786C10.066 88.6727 9.94202 88.5903 9.80767 88.4358Z" fill="#001064"/>
<path d="M33.2981 82.47C34.0401 85.1424 33.2834 89.1695 29.9766 90.9926C29.0584 91.4985 28.1127 91.9122 27.0353 92.0055C25.6316 92.1285 24.4327 91.7228 23.3797 90.8644C21.9435 89.6931 20.8264 88.2852 20.2538 86.5156C20.115 86.0803 19.9966 85.6222 19.9812 85.1754C19.9314 82.8497 21.0121 79.7883 23.8566 78.5115C24.9513 78.0203 26.0577 77.6593 27.2593 77.5877C29.2462 77.476 30.7966 78.2707 31.8822 79.8467C32.4497 80.6567 32.8357 81.5872 33.2981 82.47ZM24.07 80.8388C21.6388 81.709 21.3071 82.3589 21.143 84.5138C21.1415 84.5393 21.1317 84.5673 21.1303 84.5928C21.1064 86.4889 22.5734 88.2194 24.4657 88.5201C25.6361 88.7086 26.5985 88.2899 27.1854 87.2803C27.9149 86.0196 28.2481 84.6755 27.9458 83.2354C27.7269 82.1969 27.034 81.4826 26.183 80.9071C25.5345 80.4638 24.8336 80.6044 24.07 80.8388ZM28.3688 81.3716C28.4839 81.697 28.6653 81.9107 29.0668 81.9507C29.3758 81.9846 29.7523 82.0319 29.6959 82.5418C29.4863 82.6289 29.2684 82.7185 28.9945 82.833C29.1065 83.1175 28.9937 83.4685 29.4249 83.6083C29.725 83.7034 30.1214 83.8785 29.9716 84.2572C29.9106 84.4174 29.4858 84.4512 29.1551 84.5575C29.1395 84.6875 29.1195 84.894 29.1033 85.0827C29.2974 85.2174 29.4779 85.3061 29.5925 85.4477C29.6943 85.5764 29.7326 85.7656 29.7996 85.9297C29.6331 85.979 29.4734 86.0513 29.3061 86.0674C29.1827 86.0789 29.0614 86.0061 28.9242 85.9715C28.7586 86.3883 28.533 86.756 28.4778 87.1485C28.4301 87.5053 28.5695 87.8819 28.6371 88.3216C28.2948 88.2976 28.0388 88.2898 27.7972 88.2694C27.5516 88.5093 27.3204 88.7365 27.0915 88.9715C27.0885 89.0225 27.0856 89.0735 27.091 89.1221C27.096 89.3212 27.107 89.5102 27.112 89.7093C26.906 89.6867 26.7068 89.6872 26.5045 89.6467C26.3507 89.617 26.2028 89.4853 26.0604 89.494C25.2586 89.5392 24.4575 89.6175 23.6958 89.6758C24.3768 90.4104 25.5313 90.9713 26.4974 90.8692C28.553 90.6535 30.2283 89.7396 31.2883 87.9463C32.9217 85.1893 32.2376 82.3159 30.5501 80.1491C29.9911 79.4286 29.2297 78.9102 28.2934 78.7778C26.6079 78.5329 25.0739 78.9786 23.6439 79.8951C24.6405 79.5917 25.6299 79.4158 26.576 79.8546C26.9004 79.6666 27.1764 79.4679 27.4775 79.3536C27.6168 79.3041 27.8101 79.4056 27.9851 79.4458C27.9468 79.5908 27.9366 79.7694 27.8513 79.8782C27.7191 80.0427 27.527 80.1581 27.3691 80.2968C27.5518 80.7275 27.8968 80.6086 28.2171 80.5891C28.5268 80.5642 28.8771 80.402 29.0841 80.884C28.8489 81.0373 28.616 81.1981 28.3688 81.3716Z" fill="#001064"/>
<path d="M6.70166 109.543C6.70166 110.638 6.72388 111.665 7.21667 112.666C7.63092 113.508 8.75694 114.024 9.67384 113.841C10.5188 113.673 11.4108 113.08 11.6036 112.196C11.7441 111.552 11.9511 110.865 11.9511 110.211" stroke="#001064" stroke-width="3" stroke-linecap="round" stroke-linejoin="round"/>
<path d="M50.4275 116.166C50.4535 117.775 51.5632 120.135 53.5052 119.994C54.397 119.929 55.356 119.546 55.9003 118.81C56.1164 118.518 56.4029 118.102 56.4029 117.725" stroke="#001064" stroke-width="3" stroke-linecap="round" stroke-linejoin="round"/>
<path d="M90.189 107.983C90.189 109.058 90.386 109.919 91.2221 110.624C91.4531 110.819 91.9274 110.766 92.2056 110.766C92.6165 110.766 92.9717 110.743 93.3473 110.556C94.0309 110.215 94.4076 109.37 94.6255 108.679C94.8147 108.079 94.9916 107.447 94.9916 106.814" stroke="#001064" stroke-width="3" stroke-linecap="round" stroke-linejoin="round"/>
<path d="M38.5286 7.15794L36.7874 4.55469L36.3521 5.42244L34.1756 8.45956L31.5637 9.54425L34.8285 11.7136L36.3521 14.5338L37.8756 11.7136L41.3581 9.54425L41.1404 8.89344L38.5286 7.15794Z" fill="white"/>
<path d="M43.9886 9.3663C43.605 9.07866 42.9736 9.09016 42.5015 8.95785C41.9822 8.80828 41.4806 8.61844 41.0085 8.37682C40.0407 7.88208 39.191 7.20901 38.5419 6.39787C37.875 5.56372 37.4206 4.56849 37.2141 3.556C37.2082 3.51573 37.1964 3.46971 37.1905 3.42944C37.3793 2.41695 37.4206 1.3872 37.2672 0.426491C37.1787 -0.148787 36.1637 -0.143034 36.1165 0.449502C36.1047 0.576063 36.0988 0.702624 36.1047 0.829185C36.1047 0.875207 36.1106 0.915476 36.1224 0.955745C36.1342 1.76113 36.1401 2.55502 36.0044 3.36616C35.8391 4.35563 35.5323 5.3336 35.0956 6.25405C34.7179 7.05368 34.2045 7.82455 33.4551 8.38833C32.6289 9.00963 31.6494 9.22248 30.5931 9.23398C30.2567 9.23974 30.1151 9.62517 30.4455 9.76324C30.7406 9.88405 31.0415 9.95308 31.3307 9.97609C31.4782 10.0681 31.6199 10.1544 31.791 10.2292C32.1155 10.373 32.4283 10.5226 32.7234 10.7124C33.3253 11.0864 33.8564 11.5466 34.2872 12.0759C35.2136 13.2207 35.6031 14.6876 35.4438 16.0855C35.4084 16.4019 35.6385 16.5975 35.9041 16.6493C36.1932 17.121 37.0253 16.9542 36.9781 16.3387C36.8482 14.6243 37.3144 12.9445 38.7307 11.7134C39.3798 11.1497 40.1411 10.747 40.9849 10.4651C41.5337 10.2752 42.1061 10.2004 42.6726 10.1142C43.0975 10.2235 43.546 10.2867 43.906 10.1372C44.26 9.9876 44.2718 9.5734 43.9886 9.3663ZM40.684 9.49286C39.6395 9.7805 38.654 10.3213 37.8868 11.0173C37.2082 11.6329 36.6535 12.398 36.2758 13.2264C36.0457 12.6281 35.7152 12.0528 35.2844 11.5293C34.7828 10.9138 34.1396 10.373 33.4256 9.95883C33.2663 9.86679 33.101 9.7805 32.9299 9.69421C34.1514 9.19371 35.1959 8.10069 35.7742 7.13422C36.1224 6.55319 36.4234 5.91463 36.6712 5.25307C36.9013 5.82259 37.2023 6.3691 37.58 6.8811C38.2763 7.82455 39.2382 8.62994 40.3181 9.20522C40.4774 9.29151 40.6427 9.37205 40.8079 9.44684C40.7725 9.46985 40.7312 9.48135 40.684 9.49286Z" fill="#001064"/>
<path d="M56.7314 24.6482L54.806 21.7695L54.3246 22.7291L51.9177 26.0876L49.0295 27.2871L52.6398 29.686L54.3246 32.8046L56.0094 29.686L59.8603 27.2871L59.6196 26.5674L56.7314 24.6482Z" fill="white"/>
<path d="M62.7689 27.0879C62.3448 26.7698 61.6465 26.7825 61.1245 26.6362C60.5502 26.4708 59.9956 26.2609 59.4735 25.9937C58.4033 25.4466 57.4637 24.7023 56.7458 23.8053C56.0085 22.8829 55.506 21.7824 55.2776 20.6628C55.2711 20.6182 55.258 20.5673 55.2515 20.5228C55.4603 19.4032 55.506 18.2645 55.3363 17.2021C55.2384 16.5659 54.116 16.5723 54.0638 17.2275C54.0508 17.3675 54.0443 17.5074 54.0508 17.6474C54.0508 17.6983 54.0573 17.7428 54.0704 17.7873C54.0834 18.678 54.0899 19.5558 53.9399 20.4528C53.7571 21.547 53.4178 22.6285 52.9349 23.6463C52.5173 24.5306 51.9496 25.383 51.1208 26.0064C50.2072 26.6935 49.124 26.9288 47.9559 26.9416C47.584 26.9479 47.4274 27.3741 47.7928 27.5268C48.1191 27.6604 48.4519 27.7368 48.7716 27.7622C48.9348 27.864 49.0914 27.9594 49.2806 28.0421C49.6395 28.2011 49.9854 28.3665 50.3117 28.5765C50.9773 28.99 51.5646 29.4989 52.0409 30.0842C53.0654 31.3501 53.4961 32.9723 53.3199 34.5181C53.2808 34.868 53.5353 35.0843 53.8289 35.1416C54.1487 35.6632 55.0688 35.4787 55.0166 34.798C54.873 32.9023 55.3885 31.0447 56.9547 29.6834C57.6725 29.0599 58.5143 28.6146 59.4474 28.3029C60.0543 28.093 60.6873 28.0103 61.3137 27.9149C61.7836 28.0357 62.2795 28.1057 62.6776 27.9403C63.0691 27.7749 63.0822 27.3169 62.7689 27.0879ZM59.1146 27.2278C57.9596 27.5459 56.8698 28.1439 56.0215 28.9136C55.2711 29.5943 54.6577 30.4404 54.24 31.3565C53.9855 30.6949 53.6201 30.0587 53.1437 29.4798C52.5891 28.7991 51.8778 28.2011 51.0882 27.7431C50.912 27.6413 50.7293 27.5459 50.54 27.4505C51.8908 26.897 53.0459 25.6883 53.6854 24.6196C54.0704 23.9771 54.4032 23.271 54.6772 22.5394C54.9317 23.1692 55.2645 23.7735 55.6822 24.3397C56.4522 25.383 57.5159 26.2736 58.71 26.9098C58.8862 27.0052 59.0689 27.0942 59.2517 27.1769C59.2125 27.2024 59.1668 27.2151 59.1146 27.2278Z" fill="#001064"/>
<path fill-rule="evenodd" clip-rule="evenodd" d="M14.3519 32.3965C13.9834 32.7111 13.7254 33.1268 13.4029 33.5242C13.2002 33.7461 13.2738 33.9765 13.4949 34.1788C14.1027 34.9796 14.9962 35.5122 15.7883 36.1557C16.8199 36.937 18.0173 37.6256 19.1503 38.2959C19.5648 38.553 19.7306 38.4604 19.9701 38.1093C20.6428 36.9731 20.6428 36.9731 19.5928 36.2565C17.9533 35.1632 16.3506 33.9408 14.8124 32.7366C14.6374 32.6172 14.4624 32.4977 14.3519 32.3965Z" fill="#001064"/>
<path fill-rule="evenodd" clip-rule="evenodd" d="M26.3646 24.499C26.2479 24.3225 26.2958 24.2407 26.4912 24.189C26.5564 24.1717 26.6694 24.0727 26.7346 24.0554C27.8554 23.5514 27.9205 23.5342 28.4735 24.5631C29.3288 26.2033 30.1362 27.9253 30.9915 29.5655C31.1254 29.8066 31.0947 29.953 30.9165 30.0693C30.3647 30.3536 29.8301 30.7024 29.2783 30.9867C29.0349 31.1203 28.9526 31.0729 28.8187 30.8319C27.9904 28.7697 27.1622 26.7075 26.3511 24.71C26.399 24.6281 26.3818 24.5636 26.3646 24.499Z" fill="#001064"/>
<path fill-rule="evenodd" clip-rule="evenodd" d="M44.2617 24.3548C44.3489 25.9909 44.1584 27.6313 44.033 29.2545C44.0502 29.3191 44.0366 29.5301 43.9715 29.5473C43.3681 29.6379 42.8741 29.3538 42.3014 29.298C41.9413 29.255 42.0679 28.945 42.0814 28.734C42.1896 27.0462 42.2978 25.3584 42.3409 23.6879C42.3851 23.3305 42.4982 23.2315 42.8583 23.2744C42.9406 23.3218 43.0709 23.2873 43.136 23.2701C44.1339 23.3516 44.1339 23.3516 44.2617 24.3548Z" fill="#001064"/>
<path d="M61.832 48.9802C61.7969 48.6503 61.5677 47.9731 60.8196 47.8328L40.6028 43.7891V43.789L40.5995 43.7884C39.9048 43.6519 39.2001 43.7403 38.5584 44.0238L36.7644 44.804C35.4309 45.3839 35.6203 47.3318 37.0404 47.6444L53.3113 51.2268C55.7499 51.7638 58.2952 51.5266 60.5925 50.5485L61.092 50.3358L61.1433 50.3139L61.1918 50.2866C61.7837 49.9525 61.8684 49.3224 61.832 48.9802Z" stroke="#001064" stroke-width="2" stroke-miterlimit="10"/>
<path d="M42.9424 48.2163L54.1608 50.1802L55.0278 49.0463L54.9804 47.0431L54.4655 44.16L53.7588 42.6176L52.164 41.3188L50.5903 40.9103L49.2399 40.4965L47.6819 40.7558L45.0284 41.9316L43.7095 42.8533L42.8793 45.5453L42.9424 48.2163Z" fill="#FFE2DC"/>
<path d="M43.0838 48.1408C43.0198 47.585 42.9074 47.0493 42.902 46.4884C42.8992 46.1909 42.9435 45.8722 42.9796 45.577C43.0433 45.0569 43.1985 44.5565 43.3802 44.0658C43.6166 43.4275 43.85 42.8444 44.3391 42.3441C44.7185 41.9559 45.1488 41.6969 45.6184 41.4296C46.0843 41.1645 46.662 40.9725 47.1786 40.8182C47.5673 40.7021 47.9514 40.5963 48.3539 40.5352C48.8032 40.4669 49.3555 40.5462 49.7999 40.6329C50.1926 40.7095 50.6742 40.7307 51.0322 40.9194C51.4323 41.1304 51.8705 41.2383 52.2631 41.4808C52.6965 41.7485 53.1101 42.0816 53.4618 42.4436C53.614 42.6002 53.7756 42.779 53.9004 42.9578C54.0512 43.174 54.1424 43.4364 54.3112 43.6429C54.6287 44.0315 54.7548 44.6225 54.8354 45.1015C54.9468 45.763 54.9671 46.4758 54.9829 47.1456C54.9938 47.6098 54.9965 48.1037 54.8913 48.5586C54.7586 49.1328 54.6248 49.2095 54.3736 49.7298" stroke="#001064" stroke-width="2" stroke-linecap="round" stroke-linejoin="round"/>
<path d="M48.1249 40.6007C48.5844 40.5069 48.9074 40.472 49.3692 40.5457C49.6888 40.5966 50.0671 40.6622 50.3406 40.8309C50.8385 41.1381 51.4353 41.5015 51.7329 41.9977C52.2666 42.5186 53.3007 44.047 53.1679 45.9934C53.1788 46.4543 53.18 46.9732 53.0681 47.4233C53.0073 47.6677 52.9511 47.9252 52.8496 48.157C52.7832 48.3088 52.7564 48.5193 52.657 48.654C52.5308 48.825 52.3166 49.2445 52.1297 49.3377" stroke="#001064" stroke-width="2" stroke-linecap="round" stroke-linejoin="round"/>
</g>
<defs>
<clipPath id="clip0">
<rect width="98" height="122" fill="white"/>
</clipPath>
</defs>
</svg>
