<svg width="110" height="91" viewBox="0 0 110 91" fill="none" xmlns="http://www.w3.org/2000/svg">
<circle cx="54" cy="49" r="42" fill="#E9FAF4"/>
<g clip-path="url(#clip0)">
<path fill-rule="evenodd" clip-rule="evenodd" d="M65.4992 78.2013C65.3992 75.7013 66.5992 73.7013 67.7992 71.7013C69.9992 67.9013 72.1992 64.0013 74.1992 60.1013C74.4992 59.6013 74.4992 59.2013 74.2992 58.6013C73.6992 56.9013 72.9992 55.2013 71.9992 53.6013C70.6992 51.4013 69.6992 49.1013 67.9992 47.1013C66.3992 45.2013 65.0992 43.1013 63.0992 41.7013C62.1992 41.0013 61.1992 40.6013 60.0992 40.1013C59.1992 39.7013 58.1992 39.9013 57.4992 40.4013C56.8992 40.9013 57.0992 41.7013 57.2992 42.4013C58.3992 46.7013 60.5992 50.5013 63.1992 54.0013C63.6992 54.6013 63.8992 55.1013 63.2992 55.8013C60.4992 58.9013 59.1992 62.8013 57.3992 66.4013C56.6992 67.9013 56.6992 69.6013 56.2992 71.2013C56.1992 71.8013 56.1992 72.7013 55.3992 72.6013C54.5992 72.5013 54.3992 71.7013 54.3992 70.9013C54.4992 66.8013 55.4992 62.9013 57.7992 59.4013C58.5992 58.1013 59.2992 56.8013 60.0992 55.5013C60.2992 55.1013 60.3992 54.7013 60.0992 54.3013C59.3992 53.2013 58.7992 52.0013 58.0992 50.9013C57.8992 50.6013 57.6992 50.5013 57.3992 50.5013C56.1992 50.7013 55.1992 50.3013 54.1992 49.8013C53.3992 49.3013 52.8992 49.6013 52.5992 50.4013C52.1992 51.5013 51.4992 52.5013 50.8992 53.4013C50.0992 54.6013 48.2992 55.0013 46.7992 54.2013C45.7992 53.7013 45.6992 54.1013 45.7992 54.9013C45.9992 56.6013 44.9992 57.7013 43.8992 58.7013C43.0992 59.5013 41.9992 59.6013 40.9992 58.9013C38.3992 57.1013 37.0992 54.3013 35.8992 51.5013C34.9992 49.3013 34.5992 46.9013 34.1992 44.6013C34.0992 43.9013 34.2992 43.5013 34.9992 43.4013C35.5992 43.3013 35.8992 43.7013 36.0992 44.3013C36.5992 46.3013 37.1992 48.3013 37.8992 50.3013C38.2992 51.4013 38.6992 52.4013 39.1992 53.4013C39.7992 54.8013 41.0992 55.6013 42.3992 56.3013C43.1992 56.7013 43.2992 55.9013 43.3992 55.4013C43.4992 54.5013 43.3992 53.6013 43.3992 52.7013C43.2992 51.5013 42.7992 50.5013 42.1992 49.4013C40.4992 46.5013 39.2992 43.5013 38.0992 40.4013C37.7992 39.7013 37.4992 39.4013 36.7992 39.5013C36.0992 39.5013 35.4992 39.4013 34.7992 39.7013C32.8992 40.3013 31.1992 42.7013 31.1992 44.9013C31.1992 47.6013 31.9992 50.0013 32.7992 52.5013C35.2992 59.8013 39.3992 66.2013 43.1992 72.9013C45.2992 76.6013 46.3992 80.6013 45.6992 84.9013C45.5992 85.5013 45.4992 86.1013 44.6992 86.1013C43.8992 86.1013 43.5992 85.7013 43.4992 84.8013C42.9992 81.5013 42.8992 78.1013 41.4992 75.0013C40.6992 73.0013 39.3992 71.0013 38.3992 69.0013C35.3992 63.3013 31.8992 58.0013 29.9992 51.8013C29.0992 48.8013 28.7992 45.7013 29.1992 42.6013C29.3992 41.3013 30.2992 40.3013 31.0992 39.3013C32.7992 37.2013 35.0992 36.4013 37.5992 36.1013C38.4992 36.0013 38.9992 35.6013 38.9992 34.7013C39.1992 32.9013 40.2992 31.5013 41.6992 30.5013C42.6992 29.7013 43.9992 29.8013 45.1992 29.9013C45.2992 29.9013 45.3992 30.0013 45.4992 30.0013C46.4992 30.3013 47.4992 30.4013 48.0992 29.2013C48.4992 28.5013 49.1992 28.0013 49.6992 27.3013C51.3992 25.1013 54.7992 25.2013 56.2992 27.6013C56.5992 28.0013 56.7992 28.8013 57.2992 28.6013C57.6992 28.4013 57.3992 27.7013 57.2992 27.1013C56.7992 23.1013 56.4992 19.1013 56.6992 15.1013C56.7992 12.7013 56.7992 10.3013 57.0992 7.90133C57.3992 5.80133 58.1992 3.90133 58.9992 2.00133C59.2992 1.30133 59.9992 1.20133 60.6992 1.10133C62.3992 1.00133 63.3992 1.90133 64.3992 3.20133C66.2992 5.70133 66.4992 8.70133 66.8992 11.6013C67.4992 15.8013 67.9992 19.9013 68.5992 24.1013C68.9992 26.9013 68.9992 29.7013 69.3992 32.5013C69.9992 36.5013 69.6992 40.6013 70.4992 44.6013C70.7992 45.8013 71.4992 46.9013 72.0992 47.9013C73.7992 50.6013 75.0992 53.5013 76.6992 56.2013C77.4992 57.5013 77.7992 59.1013 77.2992 60.6013C76.8992 61.6013 76.1992 62.5013 75.5992 63.4013C72.7992 67.7013 70.6992 72.3013 68.5992 76.9013C67.9992 78.3013 68.2992 79.8013 68.2992 81.2013C68.2992 81.9013 68.1992 82.6013 67.8992 83.2013C67.6992 83.7013 67.2992 84.0013 66.7992 83.9013C66.2992 83.8013 65.5992 83.6013 65.5992 82.8013C65.6992 81.2013 65.5992 79.7013 65.4992 78.2013ZM59.4992 17.9013C59.4992 19.9013 59.4992 21.4013 59.6992 22.8013C59.8992 24.3013 60.2992 25.7013 60.3992 27.2013C60.5992 29.9013 60.8992 32.6013 61.3992 35.3013C61.5992 36.1013 61.8992 36.6013 62.4992 37.1013C63.8992 38.2013 65.2992 39.3013 66.5992 40.6013C66.8992 40.9013 67.1992 41.6013 67.6992 41.4013C68.0992 41.2013 67.8992 40.5013 67.7992 40.0013C67.3992 33.8013 66.3992 27.6013 65.8992 21.4013C65.5992 17.6013 64.9992 13.8013 64.4992 10.1013C64.2992 8.60133 63.8992 7.10133 63.1992 5.70133C62.8992 5.20133 62.5992 4.70133 61.8992 4.70133C61.1992 4.70133 60.7992 5.20133 60.5992 5.70133C60.1992 6.50133 59.8992 7.40133 59.7992 8.30133C59.0992 11.8013 59.3992 15.1013 59.4992 17.9013ZM41.1992 37.4013C41.0992 41.1013 42.9992 45.0013 45.2992 48.8013C45.7992 49.6013 46.5992 50.2013 47.3992 50.7013C48.0992 51.1013 48.8992 51.3013 49.5992 50.9013C50.2992 50.5013 50.5992 49.4013 50.1992 48.5013C49.9992 48.0013 49.8992 47.5013 49.6992 47.0013C48.6992 43.4013 47.9992 39.6013 46.7992 36.0013C46.4992 35.0013 46.0992 34.1013 45.4992 33.2013C45.2992 33.0013 45.1992 32.7013 44.7992 32.7013C42.4992 32.9013 41.1992 34.2013 41.1992 37.4013ZM53.1992 28.8013C52.7992 28.8013 52.1992 28.9013 51.6992 29.3013C50.1992 30.7013 49.1992 32.3013 49.6992 34.5013C49.7992 35.1013 50.0992 35.7013 50.1992 36.3013C50.6992 39.5013 51.8992 42.4013 53.0992 45.4013C53.5992 46.7013 54.5992 47.6013 55.8992 48.0013C56.0992 48.1013 56.3992 48.1013 56.5992 48.0013C56.7992 47.8013 56.5992 47.6013 56.4992 47.4013C56.2992 46.9013 56.0992 46.4013 55.7992 45.8013C54.8992 43.8013 54.4992 41.8013 54.8992 39.6013C55.1992 38.0013 55.7992 36.5013 57.5992 35.9013C57.9992 35.8013 58.0992 35.5013 57.8992 35.1013C57.1992 33.2013 56.4992 31.4013 55.2992 29.8013C54.7992 29.2013 54.1992 28.8013 53.1992 28.8013Z" fill="#001064"/>
</g>
<path fill-rule="evenodd" clip-rule="evenodd" d="M13.3041 81.841C12.8041 81.341 12.5041 80.641 12.1041 80.041C11.9041 79.641 12.0041 79.341 12.3041 79.141C13.4041 78.041 14.8041 77.441 16.1041 76.641C17.8041 75.641 19.7041 74.941 21.5041 74.141C22.1041 73.841 22.3041 74.041 22.6041 74.541C23.5041 76.241 23.5041 76.241 21.8041 77.141C19.1041 78.441 16.6041 79.941 14.0041 81.541C13.8041 81.641 13.6041 81.741 13.3041 81.841Z" fill="#001066"/>
<path fill-rule="evenodd" clip-rule="evenodd" d="M1.37021 53.8504C1.15085 53.8939 0.984512 53.7444 0.941103 53.5251C0.96761 53.4286 0.924202 53.2093 0.854285 53.0864C0.849295 51.2182 0.752871 51.1917 2.57761 50.9674C5.34968 50.6923 8.12174 50.4173 10.8938 50.1422C11.306 50.1518 11.4989 50.2048 11.5158 50.5206C11.6894 51.398 11.8365 52.3718 11.9137 53.2228C12.0271 53.565 11.7812 53.7049 11.4654 53.7218C8.14133 53.7414 4.81723 53.7609 1.49313 53.7805C1.46663 53.877 1.37021 53.8504 1.37021 53.8504Z" fill="#001066"/>
<path fill-rule="evenodd" clip-rule="evenodd" d="M108.352 53.2098C108.572 53.2532 108.738 53.1038 108.782 52.8844C108.755 52.788 108.798 52.5687 108.868 52.4457C108.873 50.5776 108.97 50.5511 107.145 50.3267C104.373 50.0517 101.601 49.7766 98.8288 49.5016C98.4167 49.5112 98.2238 49.5642 98.2069 49.88C98.0333 50.7574 97.8861 51.7312 97.8089 52.5821C97.6956 52.9244 97.9415 53.0642 98.2572 53.0811C101.581 53.1007 104.905 53.1203 108.23 53.1399C108.256 53.2363 108.352 53.2098 108.352 53.2098Z" fill="#001066"/>
<path fill-rule="evenodd" clip-rule="evenodd" d="M6.31545 20.3824C8.72799 21.0455 10.93 22.1729 13.1772 23.1056C13.2746 23.1282 13.5442 23.2935 13.5442 23.2935C13.3406 24.1702 12.7926 24.7615 12.4168 25.4955C12.2062 25.9599 11.8619 25.6746 11.5696 25.6067C9.22498 24.6514 6.88032 23.6961 4.53566 22.7409C3.95122 22.6051 3.92169 22.2902 4.20701 21.9459C4.22964 21.8485 4.27489 21.6537 4.39492 21.5789C4.85435 20.043 4.85435 20.043 6.31545 20.3824Z" fill="#001066"/>
<path fill-rule="evenodd" clip-rule="evenodd" d="M94.4062 2.22094C94.932 2.71438 95.2858 3.35064 95.737 3.96419C96.0227 4.3083 95.896 4.64589 95.5519 4.93153C94.5878 6.08061 93.2179 6.81091 91.9908 7.71327C90.3968 8.80388 88.5627 9.74516 86.826 10.6637C86.1897 11.0175 85.9495 10.8682 85.6184 10.3293C84.6999 8.59256 84.6999 8.59256 86.3165 7.59934C88.8389 6.08678 91.3157 4.37945 93.6953 2.69484C93.9647 2.5293 94.2341 2.36376 94.4062 2.22094Z" fill="#001066"/>
<path fill-rule="evenodd" clip-rule="evenodd" d="M105.536 24.1C105.836 24 105.936 24.1 105.936 24.4C105.936 24.5 106.036 24.7 106.036 24.8C106.336 26.6 106.336 26.7 104.636 27.1C101.936 27.7 99.1361 28.2 96.4361 28.8C96.0361 28.9 95.8361 28.8 95.7361 28.5C95.5361 27.6 95.2361 26.7 95.0361 25.8C94.9361 25.4 95.0361 25.3 95.4361 25.2C98.7361 24.8 102.036 24.4 105.236 24C105.336 24.1 105.436 24.1 105.536 24.1Z" fill="#001066"/>
<path fill-rule="evenodd" clip-rule="evenodd" d="M98.4 77.9808C96 77.4808 93.7 76.5808 91.4 75.7808C91.3 75.7808 91 75.6808 91 75.5808C91.1 74.6808 91.7 74.0808 92 73.2808C92.2 72.7808 92.6 73.0808 92.9 73.1808C95.3 73.9808 97.7 74.7808 100.1 75.4808C100.6 75.6808 100.7 75.8808 100.5 76.3808C100.4 76.4808 100.4 76.6808 100.4 76.7808C99.9 78.1808 99.9 78.1808 98.4 77.9808Z" fill="#001066"/>
<path fill-rule="evenodd" clip-rule="evenodd" d="M25.6499 1.59199C27.55 3.21977 29.0617 5.17798 30.6974 6.97923C30.7759 7.0412 30.9494 7.30559 30.9494 7.30559C30.3916 8.01194 29.6439 8.31343 28.9912 8.81735C28.6028 9.14779 28.4128 8.74294 28.1774 8.55703C26.4632 6.69381 24.749 4.83059 23.0348 2.96737C22.5639 2.59554 22.6714 2.29812 23.0762 2.10813C23.1382 2.02965 23.2621 1.87269 23.4026 1.85617C24.4726 0.662423 24.4726 0.662422 25.6499 1.59199Z" fill="#001066"/>
<defs>
<clipPath id="clip0">
<rect width="48.8" height="85.1" fill="white" transform="translate(29 1)"/>
</clipPath>
</defs>
</svg>
