<svg width="278" height="261" viewBox="0 0 278 261" fill="none" xmlns="http://www.w3.org/2000/svg">
<rect width="118.052" height="116.675" rx="27" transform="matrix(0.402882 -0.915248 0.915252 0.402892 63.4355 109.84)" fill="white"/>
<rect width="259.413" height="70.0512" rx="5.11771" transform="matrix(-0.99967 -0.0256587 -0.0256462 0.999672 262.957 183.402)" fill="#001064"/>
<rect width="54.7444" height="67.5733" transform="matrix(0.998655 0.0518386 -0.0518133 0.998657 222.293 163.539)" fill="#FFE2DC"/>
<g clip-path="url(#clip0)">
<path d="M148.938 51.4357C148.614 51.5143 148.188 51.5307 147.885 51.344C139.251 47.2787 128.357 48.3597 120.812 54.007C120.082 54.5311 119.091 54.3378 118.505 53.699C117.981 52.9587 118.165 51.9596 118.794 51.3733C127.373 45.0414 139.604 43.8098 149.228 48.4155C150.017 48.8315 150.42 49.7749 150.013 50.5676C149.87 51.0361 149.424 51.3178 148.938 51.4357Z" fill="#001064"/>
<path d="M157.615 106.54C154.953 106.737 152.359 105.577 151.021 103.309C150.543 102.499 150.807 101.55 151.607 101.068C152.408 100.586 153.348 100.854 153.826 101.664C154.692 103.206 157.07 103.706 158.927 102.808C160.701 101.916 162.061 99.9558 162.623 97.3784C163.191 94.8851 162.992 92.195 162.799 89.5889L161.15 67.3113C160.839 63.1079 160.46 57.9799 162.465 53.436C164.252 49.331 167.949 46.1834 172.294 45.0165C176.639 43.8496 181.383 44.6818 185.011 47.3717C185.719 47.9109 185.877 48.9136 185.345 49.6292C184.812 50.3448 183.821 50.5027 183.112 49.9635C180.283 47.8907 176.472 47.243 173.196 48.1618C169.836 49.0867 166.927 51.5843 165.577 54.8117C163.932 58.5681 164.268 63.1077 164.566 67.1429L166.215 89.4206C166.414 92.1107 166.644 95.2212 165.94 98.1471C165.114 101.674 163.145 104.44 160.482 105.736C159.515 106.23 158.529 106.472 157.615 106.54Z" fill="#001064"/>
<path d="M140.071 78.5056C138.158 78.6472 136.239 78.7047 134.487 78.7499L133.4 78.7458C132.817 78.7889 132.235 78.832 131.564 78.7972C128.237 79.0434 124.156 79.261 121.595 77.4219C118.594 75.2774 118.455 71.1458 118.377 68.9539C118.305 66.8461 118.178 62.8827 120.85 60.5717C122.42 59.1876 124.41 58.9558 125.741 58.8573C126.323 58.8142 126.905 58.7711 127.493 58.8121C128.83 58.7977 130.25 58.7771 131.664 58.6724C134.497 58.5472 137.42 58.4999 140.273 58.6268C140.944 58.6616 141.692 58.6062 142.607 58.5385C145.191 58.4317 148.435 58.1917 150.503 60.1517C152.124 61.7223 152.471 64.1479 152.672 65.739C152.691 65.9912 152.716 66.3275 152.824 66.6576C153.164 68.9991 153.656 72.2592 152.136 74.3159C151.681 74.9413 151.053 75.4949 150.169 75.983C147.684 77.4348 144.479 78.1793 140.071 78.5056ZM126.066 62.1297C124.653 62.2344 123.673 62.5604 123.045 63.1141C121.712 64.3116 121.637 66.6839 121.716 68.8758C121.813 71.3199 122.076 73.7517 123.488 74.7461C125.161 75.8901 128.743 75.7094 131.404 75.5125C132.153 75.4571 132.818 75.4078 133.406 75.4488L134.494 75.4528C136.246 75.4076 137.999 75.3624 139.912 75.2208C143.82 74.9315 146.616 74.3019 148.704 73.133C149.184 72.8439 149.421 72.6573 149.575 72.4768C150.255 71.4967 149.89 68.8189 149.689 67.2278C149.664 66.8915 149.556 66.5614 149.531 66.2251C149.336 64.7181 149.153 63.3792 148.342 62.5939C147.347 61.5688 144.852 61.7534 142.856 61.9012C141.941 61.9689 141.027 62.0366 140.182 61.93C137.413 61.7969 134.573 61.8381 131.823 61.9572C130.403 61.9777 128.989 62.0824 127.569 62.103C127.07 62.1399 126.565 62.0928 126.066 62.1297Z" fill="#001064"/>
<path d="M162.939 68.8691C162.772 68.8815 162.523 68.8999 162.35 68.8282C158.764 67.8257 156.96 68.2974 153.35 69.2408L152.205 69.5792C151.302 69.815 150.427 69.2881 150.193 68.3757C149.958 67.4633 150.478 66.5795 151.38 66.3437L152.526 66.0053C156.301 65.0496 158.759 64.3605 163.284 65.6315C164.141 65.9062 164.625 66.8002 164.438 67.6593C164.155 68.3565 163.604 68.8199 162.939 68.8691Z" fill="#001064"/>
<path d="M170.24 76.019C168.577 76.1421 166.652 76.1156 164.914 75.2299C160.474 72.8537 161.247 64.0902 161.667 61.8614C162.042 60.1431 162.859 57.6313 165.964 56.6408C166.783 56.4111 167.608 56.2655 168.606 56.1916C169.271 56.1424 170.026 56.171 170.608 56.1279C172.949 56.1237 175.45 56.0231 178.61 55.7892C180.024 55.6845 181.438 55.5799 182.851 55.4752L183.101 55.4567C187.508 55.1305 190.685 56.2478 192.208 58.7553C194.299 62.1507 193.296 67.8037 192.921 69.522C191.926 74.1601 188.44 74.5027 185.702 74.7899L171.238 75.9451C170.906 75.9697 170.573 75.9944 170.24 76.019ZM168.926 59.38C168.177 59.4354 167.601 59.5625 167.108 59.6835C165.803 60.1183 165.27 60.8339 164.973 62.462C164.294 65.7242 164.705 71.2726 166.532 72.2362C167.752 72.9066 169.409 72.6994 170.989 72.5825L185.518 71.1689C188.838 70.8386 189.478 70.4531 189.834 68.4826C190.39 65.8212 190.692 61.9951 189.551 60.1354C188.416 58.3598 185.314 58.2513 183.485 58.3868L183.235 58.4052C181.822 58.5099 180.408 58.6145 178.994 58.7192C175.751 58.9593 173.167 59.066 170.743 59.0764C170.096 59.3779 169.508 59.3369 168.926 59.38Z" fill="#001064"/>
<path d="M103.801 71.9783C103.718 71.9845 103.635 71.9906 103.552 71.9968C101.032 71.8452 98.8556 69.555 98.6628 66.9489C98.4117 64.6853 99.5743 62.317 101.554 60.818C103.136 59.602 105.267 59.0217 107.602 58.9334C113.371 58.9289 119.796 63.2713 121.685 68.4567C121.997 69.2789 121.566 70.2406 120.753 70.5543C119.94 70.8681 118.988 70.4314 118.676 69.6092C117.297 65.6541 112.11 62.2343 107.684 62.3083C106.514 62.3105 104.94 62.5115 103.595 63.5409C102.487 64.3836 101.908 65.6098 101.989 66.7027C102.07 67.7956 102.976 68.7428 103.903 68.8432C104.831 68.9436 105.469 69.6571 105.454 70.588C105.254 71.279 104.633 71.9167 103.801 71.9783Z" fill="#001064"/>
<path d="M155.28 124.716C154.948 124.741 154.532 124.772 154.199 124.796C149.185 124.829 144.335 122.568 141.036 118.671C140.481 117.951 140.573 116.93 141.201 116.376C141.912 115.816 142.923 115.911 143.471 116.546C146.042 119.652 150.029 121.555 154.123 121.505C158.133 121.462 162.09 119.563 164.616 116.418C165.149 115.702 166.23 115.622 166.939 116.161C167.648 116.701 167.728 117.793 167.196 118.509C164.285 122.106 159.854 124.378 155.28 124.716Z" fill="#001064"/>
<path d="M170.399 67.9036C171.362 65.6714 172.92 62.4363 175.451 63.4261C175.819 63.57 176.168 63.7461 176.543 63.8688C176.792 63.9503 177.032 64.0763 177.235 64.2775C177.621 64.6612 178.107 64.9951 178.436 65.4514C178.751 65.888 179.079 66.6036 179.122 67.1942" stroke="#001064" stroke-width="2.33013" stroke-linecap="round" stroke-linejoin="round"/>
<path d="M132.577 70.7044C133.54 68.4722 135.097 65.2371 137.629 66.2269C137.997 66.3707 138.346 66.5469 138.721 66.6696C138.97 66.7511 139.21 66.877 139.413 67.0782C139.799 67.462 140.284 67.7959 140.614 68.2522C140.929 68.6888 141.256 69.4044 141.3 69.9949" stroke="#001064" stroke-width="2.33013" stroke-linecap="round" stroke-linejoin="round"/>
</g>
<ellipse rx="11.4874" ry="11.4902" transform="matrix(0.99976 0.0219155 -0.0219048 0.99976 212.926 45.0322)" fill="white"/>
<path d="M213.831 31.5435C206.045 31.3729 199.588 37.5545 199.417 45.3418C199.247 53.1291 205.427 59.5877 213.212 59.7584C220.998 59.9291 227.455 53.7474 227.625 45.9601C227.796 38.1728 221.616 31.7142 213.831 31.5435ZM209.567 51.6193L204.614 46.4437C204.076 45.8815 204.096 44.9927 204.658 44.4546C205.22 43.9164 206.109 43.9359 206.647 44.4982L210.634 48.6505L220.55 39.1572C221.112 38.6191 222 38.6386 222.538 39.2008C223.076 39.7631 223.057 40.6519 222.495 41.19L211.555 51.6629C211.007 52.2013 210.105 52.1815 209.567 51.6193Z" fill="#001064"/>
<path d="M35.8753 52.4876L32.1213 44.4414L31.0488 47.6599L26.2222 54.6333L20.8594 56.7789L26.2222 63.7523L29.4399 73.9442L32.1213 70.7257L37.4842 63.7523L44.9921 61.0703L35.8753 52.4876Z" fill="white"/>
<path d="M49.1775 60.4371C39.6856 58.8884 33.0806 50.1222 33.8968 40.9049C34.1538 39.6569 34.3805 38.4089 34.6072 37.1759C34.849 35.8527 32.6725 35.2963 32.2796 36.6045C31.811 38.1532 31.5238 39.7321 31.3878 41.3109C30.7228 44.5437 29.7706 47.7464 27.9417 50.4981C26.8384 52.1671 25.4176 53.6557 23.7248 54.7383C23.0749 55.1443 22.425 55.4751 21.7448 55.7307C21.6995 55.6856 21.639 55.6556 21.5937 55.6104C20.5357 54.8135 19.3719 55.5202 19.0393 56.4826C18.5859 56.5728 18.1325 56.663 17.6639 56.7382C17.0593 56.8434 16.8477 57.8358 17.5279 58.0313C18.1929 58.2117 18.8731 58.2869 19.5381 58.2719C19.5532 58.2869 19.5835 58.302 19.5986 58.332C24.9188 62.3016 27.972 68.9176 27.443 75.5186C27.2767 77.6387 30.3449 77.9545 30.7077 75.8795C32.204 67.414 40.4111 62.046 48.8147 63.5496C50.8401 63.9105 51.1575 60.813 49.1775 60.4371ZM30.1484 68.647C29.1055 64.3315 26.8233 60.3469 23.5434 57.2494C25.8106 56.1518 27.8359 54.3173 29.2416 52.4678C30.3449 51.0244 31.1913 49.4606 31.8715 47.8066C32.4005 50.0771 33.3073 52.2724 34.6072 54.2872C36.2849 56.9036 38.5672 59.0538 41.182 60.6476C36.6476 61.8355 32.6877 64.7074 30.1484 68.647Z" fill="#001064"/>
<path d="M51.9637 84.6751L49.2823 76.6289L43.9195 85.748L38.5566 90.0393L44.4558 95.4034L47.6735 105.059L51.9637 95.4034L60.008 90.5757L51.9637 84.6751Z" fill="white"/>
<path d="M63.8989 90.1493C61.8433 89.3373 59.8935 88.6456 58.0647 87.3525C56.2812 86.1045 54.7395 84.5106 53.5153 82.7063C52.1701 80.7215 51.233 78.481 50.7342 76.1354C50.5831 75.4136 50.4621 74.6618 50.4017 73.925C50.4168 73.8498 50.4319 73.7897 50.4319 73.6995C50.4319 73.4439 50.4319 73.1732 50.4168 72.9026C50.4773 71.85 50.4773 70.7975 50.4168 69.76C50.311 67.9857 47.5148 67.7752 47.5904 69.6096C47.8474 76.3308 45.7918 87.9389 37.494 88.7659C37.1615 88.7509 36.8289 88.7659 36.4813 88.811C36.3151 88.811 36.1488 88.811 35.9825 88.796C35.257 88.7509 35.0454 89.8185 35.7558 90.044C36.1639 90.1793 36.5569 90.2695 36.965 90.3297C38.2648 90.7507 39.5042 91.1567 40.6227 92.0438C41.9376 93.0663 43.0107 94.4647 43.7816 95.9232C45.6104 99.3816 45.822 103.456 46.0336 107.291C46.079 108.163 46.9405 108.539 47.5753 108.358C47.6358 108.388 47.7113 108.418 47.7869 108.433C48.2101 108.509 48.7089 108.268 48.8298 107.832C48.996 107.231 49.0414 106.569 49.0716 105.922C49.1472 105.772 49.2076 105.607 49.2228 105.426C49.7064 101.923 51.1725 98.7049 53.8478 96.2841C55.1325 95.1263 56.6439 94.2091 58.2612 93.5775C59.3192 93.1716 60.4074 92.931 61.4957 92.7054C62.1002 92.9009 62.7048 93.0513 63.3245 93.1565C65.1534 93.4723 65.4254 90.7657 63.8989 90.1493ZM52.0189 94.2843C50.0692 95.9834 48.5275 98.1636 47.5451 100.554C47.137 98.314 46.4719 96.1488 45.2628 94.194C44.2804 92.6152 42.7538 90.9462 40.9703 89.8786C43.4188 88.9614 45.5197 86.9766 46.9103 84.7061C47.7567 83.3227 48.4519 81.8191 48.996 80.2553C49.5553 81.8041 50.2808 83.2776 51.2028 84.6309C52.8351 87.0518 55.1476 89.3072 57.7775 90.9161C55.601 91.683 53.5757 92.931 52.0189 94.2843Z" fill="#001064"/>
<path d="M221.872 231.345L225.04 161.451L25.4552 151.02H20.1752L18.0632 153.106L14.3672 216.219L15.9512 219.87L221.872 231.345Z" fill="#FEF6E7"/>
<path d="M226.129 163.54C226.135 167.551 225.317 171.547 225.457 175.566" stroke="#001064" stroke-width="3.5" stroke-linecap="round" stroke-linejoin="round"/>
<path d="M224.449 185.445C224.298 188.36 224.149 191.241 223.997 194.157" stroke="#001064" stroke-width="3.5" stroke-linecap="round" stroke-linejoin="round"/>
<path d="M223.001 204.224C222.432 208.397 222.432 214.656 222.05 219.5" stroke="#001064" stroke-width="3.5" stroke-linecap="round" stroke-linejoin="round"/>
<path d="M221.32 228.215C221.172 231.08 221.018 234.041 220.868 236.927" stroke="#001064" stroke-width="3.5" stroke-linecap="round" stroke-linejoin="round"/>
<path d="M272.169 231.58C272.727 218.228 273.061 204.877 273.172 191.525C273.172 184.849 273.284 178.173 273.172 171.498L273.172 170.274C273.172 170.162 273.172 170.051 273.172 170.051L273.172 169.94C273.172 169.829 273.172 169.717 273.061 169.717C272.949 169.384 272.727 169.05 272.392 168.939C272.281 168.827 272.058 168.827 271.946 168.716C271.835 168.716 271.835 168.716 271.723 168.716L271.277 168.716L268.713 168.716L258.681 168.605C251.992 168.494 245.304 168.494 238.615 168.271L228.582 168.048L218.55 167.715C205.172 167.158 191.795 166.38 178.418 165.378C151.664 163.375 125.022 160.594 98.2676 158.925C84.8906 158.146 71.5135 157.367 58.1365 156.922L48.1037 156.588L38.0709 156.255L28.0382 156.032L25.4742 155.921C24.4709 155.921 24.3595 155.921 24.025 156.032C23.6906 156.143 23.4677 156.366 23.3562 156.7C23.2447 156.811 23.2447 157.033 23.2447 157.145L23.2447 158.146C22.7988 171.498 22.5759 184.849 22.0185 198.201C21.7955 204.877 21.4611 211.552 21.2381 218.228L21.2381 218.896L21.2381 219.23C21.2381 219.341 21.2381 219.452 21.2381 219.452L21.2381 219.341C21.2381 219.23 21.2381 219.23 21.1267 219.118C21.1267 219.118 21.0152 219.118 21.0152 219.007C21.0152 219.007 21.1267 219.007 21.2381 219.007L21.5726 219.007L24.1365 219.118L34.1693 219.452C60.9234 220.453 87.6775 221.455 114.432 222.901L134.497 224.125C141.186 224.459 147.874 224.904 154.563 225.349L164.595 226.017L174.628 226.795C181.317 227.352 188.005 228.019 194.694 228.576C207.848 229.688 221.113 231.135 234.49 232.247C241.179 232.915 247.868 233.249 254.556 233.805C257.9 234.028 261.245 234.25 264.589 234.473L267.041 234.584C267.822 234.584 268.713 234.695 269.382 234.584C270.943 234.361 272.058 233.026 272.169 231.58ZM273.061 231.58C273.061 233.471 271.5 235.251 269.605 235.474C268.602 235.585 267.822 235.474 267.041 235.474L264.477 235.363C261.133 235.251 257.789 235.14 254.445 235.029C247.756 234.918 241.068 234.584 234.379 234.584C221.002 234.361 207.513 234.361 194.136 234.361C187.448 234.25 180.759 234.25 174.071 234.139L164.038 234.028L154.005 233.694C147.317 233.583 140.628 233.249 133.94 233.026L113.874 232.247C87.1201 231.023 60.366 229.466 33.6119 227.686L23.5791 227.018L21.1267 226.907L20.3463 226.907C19.9005 226.907 19.4545 226.795 19.0086 226.684C18.1168 226.462 17.3365 226.128 16.6677 225.572C15.2185 224.57 14.1037 223.124 13.6578 221.455C13.4349 220.676 13.3234 219.786 13.3234 218.896C13.3234 218.673 13.3234 218.562 13.3234 218.451L13.3234 218.117L13.3234 217.449C13.8808 210.774 14.3267 204.098 14.8841 197.422C15.8873 184.07 17.225 170.83 18.3398 157.478C18.3398 157.033 18.3398 156.811 18.4513 156.032C18.5628 155.364 18.7857 154.697 19.1201 154.141C19.789 152.917 20.9037 152.027 22.13 151.47C22.7988 151.248 23.4677 151.025 24.1365 151.025C24.9168 151.025 25.1398 151.025 25.5857 151.136L28.0382 151.359L38.0709 152.138L48.1037 152.917L58.1365 153.584C71.5135 154.474 84.8906 155.142 98.2676 155.698C125.022 156.811 151.887 156.811 178.641 157.59C192.018 158.035 205.395 158.591 218.772 159.481L228.805 160.149L238.838 160.928C245.527 161.373 252.215 162.04 258.904 162.708L268.936 163.709L271.389 163.932L271.723 163.932L272.169 164.043C272.504 164.154 272.838 164.154 273.172 164.266C273.841 164.488 274.399 164.822 274.956 165.156C275.959 165.934 276.74 167.158 277.074 168.382C277.074 168.716 277.186 169.05 277.186 169.384C277.186 169.495 277.186 169.717 277.186 169.829C277.186 170.051 277.186 170.162 277.186 170.274L277.074 171.498C276.517 178.173 275.959 184.849 275.402 191.525C274.399 204.877 273.618 218.228 273.061 231.58Z" fill="#001064"/>
<path d="M255.849 133.253L251.558 126.816L250.486 128.962L245.123 136.472L238.688 139.154L246.732 144.518L250.486 151.491L254.24 144.518L262.82 139.154L262.284 137.545L255.849 133.253Z" fill="white"/>
<path d="M269.301 138.711C268.355 137.999 266.8 138.028 265.636 137.701C264.357 137.331 263.121 136.861 261.958 136.264C259.573 135.041 257.48 133.376 255.88 131.371C254.237 129.308 253.118 126.847 252.609 124.344C252.594 124.244 252.565 124.13 252.55 124.031C253.016 121.527 253.118 118.981 252.74 116.605C252.521 115.183 250.021 115.197 249.904 116.662C249.875 116.975 249.861 117.288 249.875 117.601C249.875 117.715 249.89 117.814 249.919 117.914C249.948 119.905 249.962 121.868 249.628 123.874C249.221 126.321 248.465 128.739 247.389 131.015C246.458 132.992 245.193 134.898 243.347 136.292C241.311 137.829 238.897 138.355 236.295 138.383C235.466 138.398 235.117 139.351 235.931 139.692C236.658 139.991 237.4 140.161 238.112 140.218C238.476 140.446 238.825 140.659 239.246 140.844C240.046 141.2 240.817 141.57 241.544 142.039C243.027 142.964 244.335 144.102 245.397 145.41C247.68 148.241 248.639 151.868 248.247 155.325C248.159 156.107 248.726 156.591 249.381 156.719C250.093 157.885 252.143 157.473 252.027 155.951C251.707 151.712 252.856 147.558 256.345 144.514C257.945 143.12 259.82 142.124 261.9 141.427C263.252 140.958 264.662 140.773 266.058 140.56C267.105 140.83 268.21 140.986 269.097 140.617C269.969 140.247 269.998 139.223 269.301 138.711ZM261.158 139.023C258.585 139.735 256.156 141.072 254.266 142.793C252.594 144.315 251.227 146.207 250.297 148.255C249.73 146.776 248.915 145.353 247.854 144.059C246.618 142.537 245.033 141.2 243.274 140.176C242.881 139.948 242.474 139.735 242.053 139.521C245.062 138.284 247.636 135.581 249.061 133.191C249.919 131.755 250.66 130.176 251.271 128.54C251.838 129.948 252.58 131.299 253.51 132.565C255.226 134.898 257.596 136.89 260.257 138.312C260.649 138.526 261.056 138.725 261.464 138.91C261.376 138.967 261.274 138.995 261.158 139.023Z" fill="#001064"/>
<path d="M67.6955 143.925C61.9329 141.359 57.7397 137.248 54.7707 131.909C53.7873 130.106 53.3623 128.154 53.5208 126.096C53.5842 125.192 54.2246 124.474 55.1406 124.234C56.546 123.826 57.9384 124.004 59.1359 124.757C60.0012 125.24 60.8287 125.86 61.4805 126.582C65.5666 131.218 67.7514 136.721 68.2734 142.897C68.3109 143.165 67.9217 143.505 67.6955 143.925ZM113.937 113.192C114.269 113.867 114.645 114.518 115.065 115.142C115.265 115.489 116.15 115.498 116.426 115.165C116.658 114.857 116.891 114.549 117.054 114.223C117.412 113.322 117.093 112.466 116.755 111.678C114.72 106.839 112.66 101.958 110.626 97.1194C110.494 96.7906 110.294 96.4438 110.118 96.1404C109.692 95.4035 108.733 95.2644 108.224 95.9055C107.759 96.5213 107.27 97.0937 106.899 97.7708C104.794 101.938 102.69 106.105 100.61 110.315C100.384 110.735 100.346 111.277 100.283 111.777C100.27 111.957 100.552 112.141 100.696 112.289C100.721 112.333 100.966 112.249 101.029 112.155C101.425 111.521 101.889 110.905 102.216 110.254C103.586 107.553 104.861 104.791 106.231 102.09C106.413 101.696 106.633 101.164 107.279 101.368C107.793 102.055 107.541 102.836 107.421 103.542C106.683 109.058 105.989 114.55 105.156 120.005C104.81 122.346 104.237 124.701 103.664 127.057C103.092 129.412 102.193 131.609 101.112 133.796C96.6008 143.23 84.6586 149.847 72.505 146.06C71.7901 145.837 71.2008 145.426 70.8747 145.268C70.5688 143.42 70.3505 141.927 70.1572 140.477C69.4403 134.877 67.506 129.807 64.0407 125.333C62.8689 123.813 61.4837 122.532 59.7216 121.816C56.9374 120.65 54.07 121.672 52.5374 124.293C50.9859 126.984 50.8707 129.826 51.709 132.696C52.3282 134.883 53.4997 136.808 54.8908 138.606C57.5917 141.961 60.7384 144.768 64.6322 146.738C65.8675 147.354 67.0399 148.064 68.3252 148.767C68.3184 149.465 68.3305 150.094 68.2485 150.662C67.8889 153.183 67.2284 155.59 66.3859 157.986C65.0342 161.833 63.0054 165.32 60.9075 168.788C59.1237 171.787 56.8134 174.279 53.8324 176.119C53.6127 176.246 53.3931 176.373 53.1985 176.544C52.7403 176.866 52.4449 177.673 52.7459 177.789C53.0469 177.904 53.5047 177.986 53.7683 177.834C54.5151 177.402 55.3309 176.988 55.9524 176.339C57.2205 175.085 58.4885 173.831 59.5435 172.411C64.253 166.16 67.8213 159.353 69.5524 151.701C69.716 150.97 69.9738 150.3 70.2442 149.45C71.5236 149.635 72.6463 149.854 73.7439 150.029C79.1879 150.929 84.3322 150.094 89.2708 147.585C93.218 145.591 96.4443 142.858 99.1318 139.395C102.598 134.845 104.766 129.774 105.937 124.296C106.693 120.736 107.241 117.122 107.79 113.508C108.244 110.643 108.56 107.742 108.97 104.902C109.02 104.584 109.372 104.38 109.711 103.953C110.036 104.516 110.262 104.907 110.469 105.365C111.583 107.902 112.748 110.525 113.937 113.192Z" fill="#001064"/>
<defs>
<clipPath id="clip0">
<rect width="94.8115" height="110.175" fill="white" transform="matrix(0.997271 -0.0738236 0.0737877 0.997274 96.873 42.8203)"/>
</clipPath>
</defs>
</svg>
