<svg width="133" height="120" viewBox="0 0 133 120" fill="none" xmlns="http://www.w3.org/2000/svg">
<path d="M38.8506 6.43945C19.764 16.5181 6.75586 36.6155 6.75586 59.7529C6.75586 93.0289 33.6533 120 66.8383 120C91.5852 120 112.852 104.98 122.052 83.5343L64.8819 59.7529L38.8506 6.43945Z" fill="#E9F7FF"/>
<path d="M66.5841 0C56.4882 0 46.9599 2.50094 38.6113 6.91877L64.6426 60.2322L116.242 26.3123C105.429 10.4381 87.2239 0 66.5841 0Z" fill="#FFD9D1"/>
<path d="M126.667 60.2481C126.667 47.6685 122.813 35.9874 116.242 26.3281L64.6426 60.2481L121.798 84.0295C124.934 76.7363 126.667 68.6944 126.667 60.2481Z" fill="#BAF0DF"/>
<path d="M70.8267 15.7847C70.6475 15.7847 70.4683 15.6948 70.3638 15.5301C69.3333 13.9576 67.6307 12.7895 65.7788 12.4151C63.9418 12.0407 61.9107 12.4601 60.3575 13.5233C60.1036 13.703 59.7601 13.6282 59.5809 13.3736C59.4017 13.119 59.4763 12.7745 59.7302 12.5948C61.5523 11.3519 63.8373 10.8876 66.0028 11.3069C68.1684 11.7412 70.0949 13.0441 71.3047 14.9011C71.4689 15.1557 71.3943 15.5001 71.1404 15.6798C71.0358 15.7547 70.9313 15.7847 70.8267 15.7847Z" fill="#001064"/>
<path d="M72.0217 29.1141C71.9918 29.1141 71.947 29.1141 71.9172 29.1141C71.2451 29.0842 70.6776 28.7847 70.3192 28.2755C70.1399 28.0209 70.2146 27.6765 70.4685 27.4968C70.7224 27.3171 71.0659 27.3919 71.2451 27.6465C71.4243 27.9161 71.738 27.991 71.962 28.0059C72.4548 28.0209 72.9925 27.7813 73.2912 27.4069C73.8736 26.6731 73.9782 25.6398 74.0528 24.4567L74.3515 19.3799C74.4262 18.1519 74.5158 16.6244 75.2775 15.3664C76.1138 13.9737 77.7119 13.1051 79.3397 13.165C80.9676 13.2249 82.491 14.1983 83.2228 15.651C83.3572 15.9205 83.2526 16.265 82.9838 16.3998C82.715 16.5346 82.3715 16.4297 82.2371 16.1602C81.6845 15.0819 80.5046 14.3331 79.3099 14.2882C78.1002 14.2433 76.8755 14.9172 76.2482 15.9505C75.6359 16.9688 75.5612 18.2867 75.4866 19.4548L75.1879 24.5316C75.1281 25.5948 75.0385 27.0475 74.1872 28.1108C73.6645 28.7248 72.8282 29.1141 72.0217 29.1141Z" fill="#001064"/>
<path d="M71.051 36.1217C68.3627 36.1217 65.6297 35.3879 63.3596 33.9652C63.0908 33.8005 63.0161 33.4561 63.1804 33.1865C63.3447 32.9169 63.6882 32.842 63.957 33.0068C67.377 35.1483 71.9321 35.5976 75.5613 34.1749C75.845 34.0551 76.1736 34.2048 76.2781 34.4894C76.3976 34.7739 76.2483 35.1034 75.9645 35.2082C74.4262 35.8222 72.7386 36.1217 71.051 36.1217Z" fill="#001064"/>
<path d="M74.47 35.0878C74.4252 35.0878 74.3804 35.0878 74.3506 35.0728C74.0519 34.9979 73.8577 34.6984 73.9324 34.3989C74.0817 33.7699 73.4545 33.1559 72.7974 32.9612C72.4987 32.8714 72.185 32.8564 71.8863 32.9013C71.737 32.9463 71.3188 33.126 71.1396 33.2308C71.1097 33.2607 71.0799 33.2907 71.05 33.3206C70.811 33.5303 70.4675 33.5004 70.2584 33.2607C69.5715 32.467 68.4663 32.0627 67.4507 32.2274C66.4202 32.3922 65.4943 33.111 65.0761 34.0694C64.9566 34.354 64.628 34.4887 64.3443 34.3689C64.0605 34.2491 63.9261 33.9197 64.0456 33.6351C64.5982 32.3322 65.8676 31.3439 67.2715 31.1342C68.4961 30.9395 69.8104 31.3439 70.7364 32.1675C71.1545 31.9429 71.6175 31.8231 71.6175 31.8081C72.0954 31.7033 72.6181 31.7332 73.0961 31.883C74.246 32.2424 75.2765 33.3656 74.9928 34.6385C74.948 34.9081 74.7239 35.0878 74.47 35.0878Z" fill="#001064"/>
<path d="M69.1682 40.3762C68.0182 40.3762 66.8832 40.0467 65.9572 39.3878C64.2547 38.1897 63.4333 35.9134 64.0008 33.9965C64.0904 33.697 64.404 33.5323 64.6878 33.6221C64.9865 33.712 65.1508 34.0265 65.0611 34.311C64.628 35.7936 65.2702 37.5308 66.5994 38.4743C67.8838 39.3878 69.6909 39.5076 71.1993 38.8037C72.6331 38.1298 73.7681 36.7521 74.2311 35.1047C74.3207 34.8052 74.6194 34.6255 74.9181 34.7154C75.2168 34.8052 75.3811 35.1047 75.3064 35.4043C74.7538 37.3661 73.3947 39.0134 71.6623 39.8221C70.8857 40.1965 70.0195 40.3762 69.1682 40.3762Z" fill="#001064"/>
<path d="M97.4556 60.0235C97.2913 60.0085 97.127 59.9786 96.9628 59.9486C95.7829 59.6641 94.6628 58.5409 94.9018 57.2081C95.0213 56.5192 95.5141 55.9052 96.2608 55.4409C96.5745 55.2462 96.903 55.1115 97.2167 54.9617C97.4705 54.8569 97.6946 54.752 97.9186 54.6173C99.9497 53.4941 100.786 50.6337 99.6809 48.597C98.5757 46.5603 95.7232 45.7067 93.6771 46.7999C93.4083 46.9497 93.0797 46.8449 92.9453 46.5753C92.796 46.3058 92.9005 45.9763 93.1693 45.8415C95.7082 44.4787 99.2627 45.542 100.637 48.0729C102.011 50.6038 100.965 54.183 98.4413 55.5757C98.1725 55.7255 97.9186 55.8453 97.6498 55.9501C97.3511 56.0849 97.0673 56.2047 96.8134 56.3694C96.5297 56.5341 96.0517 56.8936 95.9621 57.3878C95.8427 58.0617 96.5147 58.7056 97.2017 58.8704C98.0381 59.065 98.9939 58.8105 99.8302 58.5708C100.114 58.496 100.428 58.6607 100.502 58.9452C100.577 59.2298 100.413 59.5443 100.129 59.6191C99.3523 59.8588 98.4114 60.1133 97.4556 60.0235Z" fill="#001064"/>
<path d="M105.175 49.407C105.071 49.392 104.966 49.3621 104.892 49.2872C104.653 49.0925 104.623 48.7481 104.817 48.5234C105.818 47.2954 107.416 46.6065 108.999 46.7413C110.582 46.8761 112.045 47.8196 112.837 49.1973C112.986 49.4669 112.897 49.7964 112.628 49.9461C112.374 50.0959 112.03 50.006 111.881 49.7365C111.284 48.6882 110.119 47.9543 108.909 47.8345C107.699 47.7297 106.43 48.2688 105.653 49.2123C105.534 49.3621 105.355 49.422 105.175 49.407Z" fill="#001064"/>
<path d="M98.3152 64.201C98.3003 64.201 98.2853 64.201 98.2853 64.201C96.7022 64.0362 95.2237 63.2275 94.2231 61.9696C94.0289 61.73 94.0737 61.3855 94.3127 61.2058C94.5516 61.0111 94.8951 61.0561 95.0743 61.2957C95.8808 62.299 97.1204 62.9879 98.4048 63.1227C98.4197 63.1227 98.4197 63.1227 98.4347 63.1227C99.7041 63.2425 101.048 62.8382 102.034 62.0295C102.273 61.8348 102.616 61.8648 102.796 62.1044C102.99 62.344 102.96 62.6884 102.721 62.8681C101.481 63.8715 99.8833 64.3657 98.3152 64.201Z" fill="#001064"/>
<path fill-rule="evenodd" clip-rule="evenodd" d="M106.512 53.9979C106.512 53.9978 106.512 53.9977 106.028 53.9877C105.545 53.9777 105.545 53.9776 105.545 53.9775L105.545 53.9764L105.545 53.974L105.545 53.9661C105.545 53.9595 105.546 53.9502 105.546 53.9384C105.547 53.9147 105.548 53.8809 105.55 53.8385C105.555 53.7536 105.562 53.6337 105.575 53.4902C105.601 53.2051 105.648 52.8186 105.738 52.4267C105.826 52.0423 105.962 51.6152 106.183 51.2731C106.407 50.9266 106.768 50.5977 107.298 50.5977C108.204 50.5977 108.78 51.3543 109.074 52.0182C109.231 52.3712 109.335 52.7519 109.383 53.1078C109.431 53.4563 109.431 53.8177 109.346 54.1187L108.415 53.8567C108.451 53.731 108.463 53.5157 108.425 53.2395C108.389 52.9706 108.309 52.6784 108.191 52.4117C107.936 51.8364 107.601 51.5672 107.298 51.5672C107.223 51.5672 107.123 51.6015 106.995 51.7997C106.864 52.0023 106.759 52.3015 106.681 52.6435C106.604 52.9779 106.561 53.3177 106.538 53.5773C106.526 53.7062 106.52 53.8133 106.516 53.8873C106.514 53.9243 106.513 53.9529 106.512 53.9718L106.512 53.9926L106.512 53.9972L106.512 53.9979Z" fill="#001064"/>
<path fill-rule="evenodd" clip-rule="evenodd" d="M57.123 73.6815C57.123 73.6814 57.123 73.6813 56.6396 73.6713C56.1562 73.6613 56.1562 73.6612 56.1563 73.6611L56.1563 73.66L56.1563 73.6576L56.1565 73.6497C56.1567 73.6431 56.157 73.6338 56.1574 73.622C56.1582 73.5983 56.1596 73.5645 56.1617 73.5221C56.166 73.4372 56.1734 73.3173 56.1863 73.1738C56.212 72.8887 56.2598 72.5022 56.3495 72.1103C56.4374 71.7259 56.5737 71.2988 56.7944 70.9567C57.018 70.6102 57.3789 70.2812 57.909 70.2812C58.8155 70.2812 59.3917 71.0379 59.6857 71.7018C59.842 72.0548 59.946 72.4355 59.9947 72.7914C60.0423 73.1399 60.0419 73.5013 59.9576 73.8023L59.0267 73.5403C59.0619 73.4145 59.0745 73.1993 59.0367 72.9231C59 72.6542 58.9201 72.362 58.802 72.0953C58.5472 71.52 58.2123 71.2508 57.909 71.2508C57.8343 71.2508 57.7342 71.2851 57.6063 71.4833C57.4756 71.6859 57.3701 71.9851 57.2919 72.3271C57.2154 72.6615 57.1727 73.0013 57.1493 73.2609C57.1377 73.3898 57.1311 73.4968 57.1274 73.5709C57.1255 73.6079 57.1244 73.6365 57.1237 73.6554L57.1231 73.6762L57.123 73.6808L57.123 73.6815Z" fill="#001064"/>
<path fill-rule="evenodd" clip-rule="evenodd" d="M42.7675 72.835C42.7675 72.835 42.7675 72.8349 42.2841 72.8249C41.8008 72.8149 41.8008 72.8148 41.8008 72.8147L41.8008 72.8136L41.8009 72.8112L41.8011 72.8033C41.8012 72.7967 41.8015 72.7874 41.8019 72.7755C41.8027 72.7519 41.8041 72.7181 41.8062 72.6756C41.8105 72.5908 41.818 72.4709 41.8309 72.3274C41.8565 72.0423 41.9044 71.6557 41.994 71.2639C42.0819 70.8795 42.2182 70.4524 42.439 70.1102C42.6625 69.7637 43.0234 69.4348 43.5536 69.4348C44.46 69.4348 45.0362 70.1915 45.3302 70.8554C45.4865 71.2084 45.5906 71.5891 45.6392 71.945C45.6868 72.2935 45.6864 72.6548 45.6021 72.9559L44.6712 72.6939C44.7064 72.5681 44.719 72.3529 44.6812 72.0766C44.6445 71.8078 44.5646 71.5155 44.4465 71.2489C44.1917 70.6735 43.8568 70.4044 43.5536 70.4044C43.4789 70.4044 43.3787 70.4386 43.2508 70.6369C43.1201 70.8395 43.0147 71.1387 42.9364 71.4806C42.8599 71.8151 42.8172 72.1548 42.7939 72.4145C42.7823 72.5434 42.7756 72.6504 42.7719 72.7245C42.77 72.7615 42.7689 72.7901 42.7683 72.809L42.7676 72.8298L42.7675 72.8344L42.7675 72.835Z" fill="#001064"/>
<path fill-rule="evenodd" clip-rule="evenodd" d="M94.3366 52.8595C94.3366 52.8594 94.3366 52.8593 93.8548 52.8193C93.373 52.7792 93.373 52.7791 93.373 52.779L93.3731 52.7779L93.3733 52.7755L93.374 52.7677C93.3746 52.7611 93.3755 52.7518 93.3766 52.7401C93.3789 52.7165 93.3823 52.6829 93.3871 52.6408C93.3966 52.5565 93.4114 52.4375 93.4332 52.2953C93.4765 52.0128 93.5482 51.6306 93.662 51.2457C93.7737 50.8681 93.9365 50.4508 94.1784 50.1235C94.4236 49.7918 94.8045 49.4873 95.3333 49.52C96.2407 49.5762 96.7675 50.3718 97.0174 51.0534C97.1504 51.416 97.2291 51.8028 97.2538 52.1605C97.2781 52.5103 97.2533 52.8709 97.1468 53.1647L96.2381 52.8333C96.2809 52.7152 96.3084 52.5049 96.2893 52.2276C96.2706 51.9583 96.2103 51.6618 96.1099 51.3879C95.893 50.7965 95.5761 50.5064 95.2737 50.4877C95.1976 50.483 95.095 50.5117 94.9552 50.7009C94.8121 50.8944 94.6883 51.1857 94.589 51.5213C94.4919 51.8496 94.4283 52.1853 94.3889 52.4424C94.3694 52.57 94.3562 52.6762 94.3479 52.7497C94.3437 52.7864 94.3408 52.8149 94.339 52.8336L94.3371 52.8543L94.3367 52.8589L94.3366 52.8595Z" fill="#001064"/>
<path fill-rule="evenodd" clip-rule="evenodd" d="M77.823 22.2482C77.823 22.2481 77.823 22.248 77.3412 22.208C76.8594 22.1679 76.8594 22.1678 76.8594 22.1677L76.8595 22.1666L76.8597 22.1642L76.8604 22.1564C76.8609 22.1498 76.8618 22.1405 76.8629 22.1287C76.8652 22.1052 76.8686 22.0716 76.8734 22.0294C76.8829 21.9452 76.8978 21.8261 76.9195 21.684C76.9628 21.4015 77.0345 21.0193 77.1484 20.6343C77.26 20.2567 77.4228 19.8395 77.6647 19.5122C77.91 19.1804 78.2908 18.8759 78.8196 18.9087C79.727 18.9648 80.2538 19.7605 80.5037 20.442C80.6367 20.8047 80.7154 21.1914 80.7402 21.5492C80.7644 21.8989 80.7396 22.2596 80.6331 22.5533L79.7244 22.222C79.7672 22.1039 79.7948 21.8936 79.7756 21.6163C79.7569 21.3469 79.6966 21.0504 79.5962 20.7766C79.3794 20.1852 79.0624 19.8951 78.7601 19.8764C78.684 19.8717 78.5813 19.9004 78.4415 20.0895C78.2984 20.2831 78.1746 20.5744 78.0754 20.91C77.9783 21.2383 77.9146 21.574 77.8753 21.8311C77.8557 21.9587 77.8425 22.0649 77.8342 22.1384C77.83 22.1751 77.8272 22.2036 77.8253 22.2223L77.8234 22.243L77.823 22.2475L77.823 22.2482Z" fill="#001064"/>
<path fill-rule="evenodd" clip-rule="evenodd" d="M65.2526 20.6329C65.2526 20.6329 65.2527 20.6328 64.7708 20.5927C64.289 20.5527 64.2891 20.5526 64.2891 20.5524L64.2892 20.5514L64.2894 20.549L64.29 20.5411C64.2906 20.5345 64.2915 20.5253 64.2926 20.5135C64.2949 20.49 64.2983 20.4564 64.3031 20.4142C64.3126 20.3299 64.3275 20.2109 64.3492 20.0687C64.3925 19.7863 64.4642 19.404 64.578 19.0191C64.6897 18.6415 64.8525 18.2243 65.0944 17.8969C65.3397 17.5652 65.7205 17.2607 66.2493 17.2934C67.1567 17.3496 67.6835 18.1452 67.9334 18.8268C68.0664 19.1894 68.1451 19.5762 68.1699 19.9339C68.1941 20.2837 68.1693 20.6444 68.0628 20.9381L67.1541 20.6068C67.1969 20.4887 67.2245 20.2784 67.2053 20.0011C67.1866 19.7317 67.1263 19.4352 67.0259 19.1614C66.8091 18.57 66.4921 18.2799 66.1897 18.2612C66.1137 18.2565 66.011 18.2852 65.8712 18.4743C65.7281 18.6679 65.6043 18.9592 65.505 19.2948C65.4079 19.6231 65.3443 19.9587 65.3049 20.2158C65.2854 20.3435 65.2722 20.4497 65.2639 20.5232C65.2597 20.5599 65.2568 20.5883 65.255 20.6071L65.2531 20.6278L65.2527 20.6323L65.2526 20.6329Z" fill="#001064"/>
<path d="M48.0809 69.3818C48.2153 69.3818 48.3348 69.3519 48.4543 69.262C48.7679 69.0523 48.8426 68.633 48.6335 68.3185C47.155 66.1171 44.6907 64.6794 42.0473 64.4698C39.4038 64.2601 36.7604 65.3084 34.9533 67.2553C34.6994 67.5248 34.7143 67.9591 34.9981 68.2137C35.2669 68.4683 35.7 68.4533 35.9539 68.1688C37.4474 66.5364 39.7473 65.6379 41.9577 65.8026C44.1531 65.9673 46.2887 67.2253 47.5283 69.0523C47.6478 69.277 47.8569 69.3818 48.0809 69.3818Z" fill="#001064"/>
<path d="M52.5172 86.365C52.9652 86.365 53.4282 86.2602 53.8016 86.0355C54.7424 85.5114 55.3846 84.4481 55.534 83.1901C55.6535 82.1418 55.4593 81.0935 55.2652 80.18L54.0106 73.8004C53.7418 72.4226 53.4282 70.8801 53.8912 69.5323C54.4139 67.9748 56.0418 66.8816 57.6846 66.9864C59.3125 67.0913 60.806 68.3642 61.1495 69.9666C61.2241 70.326 61.5826 70.5656 61.9559 70.4908C62.3144 70.4159 62.5533 70.0565 62.4787 69.6821C62.0157 67.5106 59.9995 65.7584 57.7742 65.6237C55.5639 65.4889 53.3386 66.9864 52.6217 69.083C52.0393 70.7753 52.4126 72.5874 52.6964 74.055L53.9509 80.4346C54.1152 81.3032 54.2944 82.1868 54.1899 83.0254C54.0853 83.864 53.697 84.538 53.1444 84.8524C52.8607 85.0172 52.4724 85.0471 52.1438 84.9573C51.9945 84.9123 51.7256 84.8075 51.5912 84.5529C51.412 84.2235 50.9938 84.1037 50.6802 84.2834C50.3516 84.4631 50.2322 84.8824 50.4114 85.1969C50.6951 85.7061 51.173 86.0805 51.7704 86.2452C52.0243 86.335 52.2633 86.365 52.5172 86.365Z" fill="#001064"/>
<path d="M49.8862 92.4891C52.8135 92.4891 55.7257 91.6504 58.2049 90.078C58.5185 89.8833 58.6081 89.464 58.414 89.1495C58.2198 88.835 57.8017 88.7452 57.488 88.9399C54.9641 90.5422 51.9323 91.321 48.9603 91.1113C45.9733 90.9017 43.076 89.7336 40.8059 87.8017C40.5222 87.5621 40.089 87.592 39.8501 87.8766C39.6111 88.1611 39.641 88.5954 39.9248 88.835C42.4189 90.9466 45.6 92.2345 48.8707 92.4591C49.1992 92.4741 49.5427 92.4891 49.8862 92.4891Z" fill="#001064"/>
<path fill-rule="evenodd" clip-rule="evenodd" d="M42.4713 13.7321C42.9529 13.5008 43.5303 13.7047 43.761 14.1876L45.1935 17.1861C45.4242 17.669 45.2208 18.2481 44.7392 18.4794C44.2576 18.7107 43.6802 18.5068 43.4495 18.0239L42.017 15.0254C41.7863 14.5425 41.9897 13.9634 42.4713 13.7321ZM46.7687 22.7275C47.2503 22.4962 47.8277 22.7001 48.0584 23.1831L49.4909 26.1815C49.7216 26.6645 49.5182 27.2435 49.0366 27.4748C48.555 27.7062 47.9776 27.5022 47.7469 27.0193L46.3144 24.0208C46.0837 23.5379 46.2871 22.9589 46.7687 22.7275ZM51.0661 31.723C51.5477 31.4916 52.1251 31.6956 52.3559 32.1785L53.7883 35.177C54.019 35.6599 53.8156 36.2389 53.334 36.4703C52.8524 36.7016 52.275 36.4977 52.0443 36.0147L50.6118 33.0163C50.3811 32.5333 50.5845 31.9543 51.0661 31.723ZM55.3635 40.7184C55.8451 40.4871 56.4226 40.691 56.6533 41.1739L58.0857 44.1724C58.3164 44.6553 58.1131 45.2344 57.6314 45.4657C57.1498 45.6971 56.5724 45.4931 56.3417 45.0102L54.9092 42.0117C54.6785 41.5288 54.8819 40.9498 55.3635 40.7184ZM59.6609 49.7139C60.1425 49.4825 60.72 49.6865 60.9507 50.1694L62.3831 53.1679C62.6139 53.6508 62.4105 54.2298 61.9289 54.4612C61.4473 54.6925 60.8698 54.4886 60.6391 54.0056L59.2066 51.0071C58.9759 50.5242 59.1793 49.9452 59.6609 49.7139ZM63.9583 58.7093C64.4399 58.478 65.0174 58.6819 65.2481 59.1648L65.8021 60.3244L66.931 60.7807C67.4263 60.9808 67.666 61.5457 67.4664 62.0424C67.2667 62.539 66.7034 62.7794 66.2081 62.5792L64.3825 61.8414L63.504 60.0026C63.2733 59.5197 63.4767 58.9406 63.9583 58.7093ZM71.5816 63.7055C71.7813 63.2089 72.3446 62.9685 72.8399 63.1687L75.7944 64.3627C76.2897 64.5629 76.5294 65.1277 76.3298 65.6244C76.1301 66.1211 75.5668 66.3614 75.0715 66.1612L72.117 64.9672C71.6217 64.7671 71.382 64.2022 71.5816 63.7055ZM80.4451 67.2875C80.6447 66.7909 81.208 66.5505 81.7033 66.7507L84.6578 67.9447C85.1531 68.1449 85.3928 68.7098 85.1932 69.2064C84.9935 69.7031 84.4302 69.9434 83.9349 69.7433L80.9804 68.5493C80.4851 68.3491 80.2454 67.7842 80.4451 67.2875ZM89.3085 70.8696C89.5081 70.3729 90.0714 70.1325 90.5667 70.3327L93.5212 71.5267C94.0165 71.7269 94.2562 72.2918 94.0566 72.7884C93.8569 73.2851 93.2936 73.5254 92.7983 73.3253L89.8438 72.1313C89.3485 71.9311 89.1088 71.3662 89.3085 70.8696ZM98.1719 74.4516C98.3715 73.9549 98.9348 73.7146 99.4301 73.9147L102.385 75.1087C102.88 75.3089 103.12 75.8738 102.92 76.3705C102.72 76.8671 102.157 77.1075 101.662 76.9073L98.7072 75.7133C98.2119 75.5131 97.9722 74.9482 98.1719 74.4516ZM107.035 78.0336C107.235 77.5369 107.798 77.2966 108.294 77.4967L111.248 78.6908C111.743 78.8909 111.983 79.4558 111.783 79.9525C111.584 80.4491 111.02 80.6895 110.525 80.4893L107.571 79.2953C107.075 79.0951 106.836 78.5303 107.035 78.0336Z" fill="#001064"/>
<path d="M79.8245 112.777C92.625 109.884 103.518 103.369 111.332 93.9845C118.164 85.7525 122.575 75.3096 123.771 64.5374C125.014 53.2007 122.832 42.0993 117.441 32.4561C112.661 23.9183 105.468 16.6976 97.1555 12.1347C87.2457 6.67808 76.7322 4.1144 65.0283 4.25552C63.6446 4.37312 62.261 4.49072 60.8774 4.60832C57.8756 4.84352 54.78 5.10224 51.755 5.43152C40.8507 6.60752 32.1828 11.6408 25.9858 20.4373C18.4324 31.1154 13.5288 41.5348 10.9716 52.2835C9.20487 59.7864 7.72249 68.6299 10.2274 77.4264C15.2134 94.8077 26.3561 106.474 43.3028 112.048C54.1937 115.623 66.133 115.858 79.8245 112.777ZM42.0313 109.766C27.2407 103.298 17.6935 91.8677 13.6719 75.8035C12.6073 71.4993 11.6788 65.0313 14.2569 53.0126C16.6025 42.0052 21.2944 31.3271 28.6127 20.3903C31.4652 16.1096 35.0697 12.5111 39.3092 9.68865C44.5323 6.20768 50.348 5.61968 56.5921 7.92465L56.7095 7.97169C57.4606 8.25393 58.2353 8.53617 58.4698 8.51265C58.7039 8.32449 59.1711 7.43073 59.6384 6.53696L59.9421 5.97248L60.5753 5.92544C73.4736 4.89056 86.1698 8.08929 96.3405 14.9336C106.723 21.8956 113.945 32.0092 117.254 44.169C120.186 54.9647 120.372 65.196 117.765 74.5805C115.111 84.1767 109.594 92.9026 101.331 100.523C94.5886 106.732 86.2 110.731 75.6494 112.777C71.265 113.624 67.0439 114.047 62.9861 114.047C55.5508 114.071 48.6284 112.636 42.0313 109.766Z" fill="#001064"/>
<path d="M122.655 18.84L124.555 14.3945L127.299 18.84L130.888 22.2271L126.033 24.7673L123.921 29.0011L122.655 24.7673L119.699 21.1686L122.655 18.84Z" fill="white"/>
<path d="M132.476 21.4826C131.39 21.0456 130.36 20.6733 129.394 19.9774C128.451 19.3057 127.637 18.4478 126.99 17.4767C126.279 16.4085 125.784 15.2027 125.521 13.9402C125.441 13.5518 125.377 13.1471 125.345 12.7506C125.353 12.7101 125.361 12.6777 125.361 12.6292C125.361 12.4916 125.361 12.3459 125.353 12.2003C125.385 11.6338 125.385 11.0673 125.353 10.5089C125.297 9.55397 123.82 9.44067 123.86 10.428C123.996 14.0454 122.91 20.293 118.526 20.7381C118.351 20.73 118.175 20.7381 117.991 20.7623C117.903 20.7623 117.816 20.7623 117.728 20.7543C117.345 20.73 117.233 21.3046 117.608 21.4259C117.824 21.4988 118.031 21.5473 118.247 21.5797C118.934 21.8063 119.588 22.0248 120.179 22.5023C120.874 23.0526 121.441 23.8052 121.848 24.5902C122.814 26.4515 122.926 28.6446 123.038 30.7083C123.062 31.1776 123.517 31.38 123.852 31.2828C123.884 31.299 123.924 31.3152 123.964 31.3233C124.187 31.3638 124.451 31.2343 124.515 30.9996C124.603 30.6759 124.627 30.3198 124.643 29.9718C124.683 29.8909 124.714 29.8019 124.722 29.7048C124.978 27.8192 125.752 26.0873 127.166 24.7844C127.844 24.1613 128.643 23.6676 129.497 23.3277C130.056 23.1092 130.631 22.9797 131.206 22.8584C131.525 22.9636 131.845 23.0445 132.172 23.1011C133.138 23.2711 133.282 21.8144 132.476 21.4826ZM126.2 23.7081C125.17 24.6226 124.355 25.796 123.836 27.0827C123.621 25.8769 123.269 24.7116 122.63 23.6595C122.111 22.8098 121.305 21.9115 120.363 21.3369C121.656 20.8433 122.766 19.775 123.501 18.553C123.948 17.8085 124.315 16.9992 124.603 16.1576C124.898 16.9912 125.281 17.7842 125.768 18.5126C126.631 19.8155 127.852 21.0294 129.242 21.8953C128.092 22.308 127.022 22.9797 126.2 23.7081Z" fill="#001064"/>
<path d="M5.27765 81.924L2.5332 78.3252L6.12209 75.3616L7.81098 71.3395L10.5554 77.2668L16.0443 80.4421L9.92209 82.3474L6.75542 86.7928L5.27765 81.924Z" fill="white"/>
<path d="M17.4319 79.9569C12.2729 79.1338 8.68288 74.4746 9.12649 69.5758C9.26615 68.9125 9.38937 68.2492 9.5126 67.5939C9.64404 66.8906 8.46107 66.5949 8.24748 67.2902C7.99282 68.1133 7.83673 68.9524 7.76279 69.7916C7.40133 71.5098 6.88378 73.212 5.88976 74.6744C5.29007 75.5615 4.51785 76.3527 3.59777 76.9281C3.24452 77.1438 2.89127 77.3197 2.5216 77.4555C2.49695 77.4315 2.46409 77.4156 2.43945 77.3916C1.86439 76.968 1.23183 77.3436 1.0511 77.8551C0.804652 77.903 0.558201 77.951 0.303535 77.991C-0.0250672 78.0469 -0.140078 78.5743 0.229599 78.6782C0.591061 78.7741 0.960738 78.8141 1.3222 78.8061C1.33041 78.8141 1.34684 78.8221 1.35506 78.8381C4.24676 80.9478 5.90619 84.4642 5.61867 87.9725C5.5283 89.0993 7.19596 89.2671 7.39312 88.1643C8.20641 83.665 12.6672 80.812 17.2347 81.6112C18.3356 81.803 18.5081 80.1567 17.4319 79.9569ZM7.08916 84.3203C6.52232 82.0267 5.28185 79.9089 3.49919 78.2627C4.73144 77.6793 5.83226 76.7043 6.59626 75.7213C7.19596 74.9541 7.656 74.123 8.02567 73.2439C8.3132 74.4507 8.8061 75.6174 9.5126 76.6883C10.4245 78.0789 11.6649 79.2217 13.0861 80.0688C10.6216 80.7001 8.46929 82.2265 7.08916 84.3203Z" fill="#001064"/>
</svg>
