<svg width="262" height="278" viewBox="0 0 262 278" fill="none" xmlns="http://www.w3.org/2000/svg">
<mask id="path-1-outside-1" maskUnits="userSpaceOnUse" x="74.9451" y="57.1583" width="188.855" height="222.758" fill="black">
<rect fill="white" x="74.9451" y="57.1583" width="188.855" height="222.758"/>
<path d="M122.959 67.78C129.435 68.6236 135.905 69.4222 142.391 70.2093C145.629 70.5945 148.866 70.9797 152.12 71.3533L156.986 71.9182L161.855 72.4691L171.582 73.5399L181.318 74.5683L200.777 76.6086L210.507 77.6653L212.935 77.9323L213.234 77.9721C213.333 77.9901 213.434 77.994 213.547 78.0145C213.775 78.0415 214.003 78.0684 214.229 78.1095C214.68 78.1917 215.129 78.288 215.573 78.4125C217.378 78.9017 219.063 79.7337 220.533 80.8622C221.277 81.4207 221.949 82.0537 222.566 82.7496L222.795 83.0102L222.999 83.2516L223.395 83.7176L224.187 84.6498L227.321 88.4154L233.588 95.9468C237.745 100.978 241.896 106.038 246.019 111.093L247.568 112.994L247.948 113.472L248.137 113.711L248.35 113.983C248.491 114.169 248.632 114.355 248.771 114.556C248.895 114.753 249.036 114.94 249.16 115.137C250.169 116.722 250.85 118.509 251.169 120.362C251.337 121.282 251.399 122.227 251.39 123.159C251.391 123.393 251.378 123.624 251.365 123.855C251.353 124.086 251.34 124.317 251.296 124.557L251.249 124.899L251.232 125.071L251.204 125.226L251.108 125.836L250.346 130.672C246.282 156.501 241.795 182.252 237.886 208.108C236.903 214.567 235.933 221.029 235.006 227.499L233.61 237.195L232.241 246.896L230.901 256.602L230.575 259.038L230.493 259.65L230.451 259.963L230.392 260.288L230.333 260.613L230.26 260.935L230.187 261.257C230.166 261.37 230.134 261.467 230.1 261.577C229.662 263.263 228.875 264.87 227.834 266.271C225.735 269.084 222.524 271.038 219.031 271.584C218.161 271.717 217.277 271.775 216.393 271.746C216.176 271.735 215.946 271.722 215.732 271.698C215.515 271.688 215.289 271.647 215.075 271.622L214.903 271.606L214.748 271.577L214.449 271.538L213.838 271.455L208.995 270.763L189.61 267.993L179.925 266.608L170.231 265.194C157.314 263.309 144.413 261.339 131.512 259.37L112.158 256.429L102.474 254.958L97.6391 254.224L96.421 254.031C96.1813 253.987 95.9556 253.946 95.7158 253.903L95.0184 253.732C94.0862 253.489 93.1862 253.15 92.313 252.743C90.586 251.903 89.0077 250.726 87.7204 249.31C86.4358 247.88 85.4139 246.206 84.7524 244.393C84.0908 242.58 83.787 240.642 83.8627 238.701L83.9063 237.98C83.9358 237.737 83.9628 237.508 83.9923 237.266L84.1564 236.041L84.4963 233.608C85.3952 227.133 86.3224 220.664 87.2637 214.197C88.1909 207.727 89.1322 201.26 90.0876 194.796C91.0429 188.331 91.9842 181.864 92.9678 175.405C94.9094 162.467 96.9919 149.555 99.1002 136.662C101.225 123.758 103.39 110.875 105.444 97.9579L106.206 93.1215L106.968 88.2851L108.468 78.5788C108.74 76.9213 109.333 75.337 110.205 73.9054C111.075 72.488 112.222 71.2234 113.552 70.2399C114.884 69.2423 116.415 68.5144 118.022 68.092C119.628 67.6696 121.308 67.5669 122.959 67.78ZM122.91 68.2089C121.315 68.006 119.692 68.119 118.147 68.5234C116.583 68.9535 115.114 69.6635 113.846 70.6289C112.577 71.5944 111.482 72.8103 110.663 74.193C109.86 75.5642 109.319 77.0998 109.091 78.6777C108.65 81.9092 108.234 85.1601 107.821 88.3968L107.201 93.2589L106.594 98.1236C104.982 111.092 103.483 124.081 101.941 137.063C100.386 150.042 98.802 163.015 97.0886 175.98C96.232 182.463 95.3471 188.94 94.4648 195.403C93.594 201.883 92.6951 208.358 91.7961 214.832C90.8971 221.307 89.9841 227.779 89.0569 234.249L88.7029 236.679L88.5298 237.873C88.5131 238.045 88.4849 238.2 88.4682 238.372L88.4349 238.877C88.3823 240.21 88.5887 241.56 89.0297 242.822C89.4848 244.087 90.1746 245.263 91.0721 246.258C91.967 247.267 93.0555 248.093 94.2466 248.674C94.848 248.974 95.4762 249.205 96.1288 249.382L96.6173 249.5C96.7866 249.531 96.9558 249.562 97.1109 249.59L98.2982 249.792L103.123 250.582L112.787 252.167L132.111 255.35C144.984 257.475 157.876 259.574 170.736 261.769L180.389 263.41L190.037 265.079L209.331 268.432L214.148 269.265L214.755 269.375L215.051 269.429L215.206 269.458L215.347 269.483C215.533 269.503 215.714 269.55 215.902 269.555C216.088 269.574 216.274 269.594 216.46 269.613C217.209 269.662 217.956 269.637 218.702 269.54C220.195 269.345 221.637 268.863 222.954 268.111C224.268 267.373 225.429 266.358 226.372 265.173C227.316 263.988 228.017 262.613 228.43 261.142C228.462 261.046 228.492 260.963 228.51 260.865L228.575 260.585L228.641 260.305L228.692 260.022L228.743 259.74L228.797 259.443L228.893 258.833L229.275 256.408L230.773 246.716L232.243 237.019L233.684 227.316C234.64 220.852 235.581 214.385 236.48 207.91C240.146 182.024 243.243 156.064 246.766 130.167L247.429 125.312L247.511 124.7L247.54 124.544L247.549 124.415L247.581 124.158C247.611 123.988 247.614 123.814 247.616 123.639C247.633 123.467 247.636 123.293 247.624 123.115C247.62 122.414 247.558 121.717 247.433 121.038C247.309 120.359 247.111 119.681 246.85 119.035C246.588 118.389 246.263 117.776 245.89 117.183C245.8 117.035 245.693 116.899 245.604 116.751C245.514 116.604 245.393 116.465 245.287 116.329L245.12 116.123L244.931 115.885L244.534 115.418L242.983 113.531C238.829 108.485 234.706 103.431 230.588 98.3477L224.44 90.7213L221.376 86.8953L220.617 85.9401L220.277 85.4843L220.087 85.2455L219.92 85.04C219.464 84.5046 218.972 84.0065 218.413 83.5546C217.32 82.6699 216.046 81.9856 214.694 81.5645C214.35 81.4579 214.016 81.3681 213.664 81.3039C213.494 81.273 213.311 81.2397 213.142 81.2088C213.057 81.1934 212.944 81.1729 212.843 81.169L212.544 81.1292L210.117 80.7749L200.428 79.3317L181.071 76.4056L171.385 74.9483L161.693 73.5193L156.853 72.8131L152.01 72.1211C148.786 71.6653 145.547 71.2069 142.32 70.7652C135.849 69.8934 129.375 69.0357 122.91 68.2089Z"/>
</mask>
<path d="M122.959 67.78C129.435 68.6236 135.905 69.4222 142.391 70.2093C145.629 70.5945 148.866 70.9797 152.12 71.3533L156.986 71.9182L161.855 72.4691L171.582 73.5399L181.318 74.5683L200.777 76.6086L210.507 77.6653L212.935 77.9323L213.234 77.9721C213.333 77.9901 213.434 77.994 213.547 78.0145C213.775 78.0415 214.003 78.0684 214.229 78.1095C214.68 78.1917 215.129 78.288 215.573 78.4125C217.378 78.9017 219.063 79.7337 220.533 80.8622C221.277 81.4207 221.949 82.0537 222.566 82.7496L222.795 83.0102L222.999 83.2516L223.395 83.7176L224.187 84.6498L227.321 88.4154L233.588 95.9468C237.745 100.978 241.896 106.038 246.019 111.093L247.568 112.994L247.948 113.472L248.137 113.711L248.35 113.983C248.491 114.169 248.632 114.355 248.771 114.556C248.895 114.753 249.036 114.94 249.16 115.137C250.169 116.722 250.85 118.509 251.169 120.362C251.337 121.282 251.399 122.227 251.39 123.159C251.391 123.393 251.378 123.624 251.365 123.855C251.353 124.086 251.34 124.317 251.296 124.557L251.249 124.899L251.232 125.071L251.204 125.226L251.108 125.836L250.346 130.672C246.282 156.501 241.795 182.252 237.886 208.108C236.903 214.567 235.933 221.029 235.006 227.499L233.61 237.195L232.241 246.896L230.901 256.602L230.575 259.038L230.493 259.65L230.451 259.963L230.392 260.288L230.333 260.613L230.26 260.935L230.187 261.257C230.166 261.37 230.134 261.467 230.1 261.577C229.662 263.263 228.875 264.87 227.834 266.271C225.735 269.084 222.524 271.038 219.031 271.584C218.161 271.717 217.277 271.775 216.393 271.746C216.176 271.735 215.946 271.722 215.732 271.698C215.515 271.688 215.289 271.647 215.075 271.622L214.903 271.606L214.748 271.577L214.449 271.538L213.838 271.455L208.995 270.763L189.61 267.993L179.925 266.608L170.231 265.194C157.314 263.309 144.413 261.339 131.512 259.37L112.158 256.429L102.474 254.958L97.6391 254.224L96.421 254.031C96.1813 253.987 95.9556 253.946 95.7158 253.903L95.0184 253.732C94.0862 253.489 93.1862 253.15 92.313 252.743C90.586 251.903 89.0077 250.726 87.7204 249.31C86.4358 247.88 85.4139 246.206 84.7524 244.393C84.0908 242.58 83.787 240.642 83.8627 238.701L83.9063 237.98C83.9358 237.737 83.9628 237.508 83.9923 237.266L84.1564 236.041L84.4963 233.608C85.3952 227.133 86.3224 220.664 87.2637 214.197C88.1909 207.727 89.1322 201.26 90.0876 194.796C91.0429 188.331 91.9842 181.864 92.9678 175.405C94.9094 162.467 96.9919 149.555 99.1002 136.662C101.225 123.758 103.39 110.875 105.444 97.9579L106.206 93.1215L106.968 88.2851L108.468 78.5788C108.74 76.9213 109.333 75.337 110.205 73.9054C111.075 72.488 112.222 71.2234 113.552 70.2399C114.884 69.2423 116.415 68.5144 118.022 68.092C119.628 67.6696 121.308 67.5669 122.959 67.78ZM122.91 68.2089C121.315 68.006 119.692 68.119 118.147 68.5234C116.583 68.9535 115.114 69.6635 113.846 70.6289C112.577 71.5944 111.482 72.8103 110.663 74.193C109.86 75.5642 109.319 77.0998 109.091 78.6777C108.65 81.9092 108.234 85.1601 107.821 88.3968L107.201 93.2589L106.594 98.1236C104.982 111.092 103.483 124.081 101.941 137.063C100.386 150.042 98.802 163.015 97.0886 175.98C96.232 182.463 95.3471 188.94 94.4648 195.403C93.594 201.883 92.6951 208.358 91.7961 214.832C90.8971 221.307 89.9841 227.779 89.0569 234.249L88.7029 236.679L88.5298 237.873C88.5131 238.045 88.4849 238.2 88.4682 238.372L88.4349 238.877C88.3823 240.21 88.5887 241.56 89.0297 242.822C89.4848 244.087 90.1746 245.263 91.0721 246.258C91.967 247.267 93.0555 248.093 94.2466 248.674C94.848 248.974 95.4762 249.205 96.1288 249.382L96.6173 249.5C96.7866 249.531 96.9558 249.562 97.1109 249.59L98.2982 249.792L103.123 250.582L112.787 252.167L132.111 255.35C144.984 257.475 157.876 259.574 170.736 261.769L180.389 263.41L190.037 265.079L209.331 268.432L214.148 269.265L214.755 269.375L215.051 269.429L215.206 269.458L215.347 269.483C215.533 269.503 215.714 269.55 215.902 269.555C216.088 269.574 216.274 269.594 216.46 269.613C217.209 269.662 217.956 269.637 218.702 269.54C220.195 269.345 221.637 268.863 222.954 268.111C224.268 267.373 225.429 266.358 226.372 265.173C227.316 263.988 228.017 262.613 228.43 261.142C228.462 261.046 228.492 260.963 228.51 260.865L228.575 260.585L228.641 260.305L228.692 260.022L228.743 259.74L228.797 259.443L228.893 258.833L229.275 256.408L230.773 246.716L232.243 237.019L233.684 227.316C234.64 220.852 235.581 214.385 236.48 207.91C240.146 182.024 243.243 156.064 246.766 130.167L247.429 125.312L247.511 124.7L247.54 124.544L247.549 124.415L247.581 124.158C247.611 123.988 247.614 123.814 247.616 123.639C247.633 123.467 247.636 123.293 247.624 123.115C247.62 122.414 247.558 121.717 247.433 121.038C247.309 120.359 247.111 119.681 246.85 119.035C246.588 118.389 246.263 117.776 245.89 117.183C245.8 117.035 245.693 116.899 245.604 116.751C245.514 116.604 245.393 116.465 245.287 116.329L245.12 116.123L244.931 115.885L244.534 115.418L242.983 113.531C238.829 108.485 234.706 103.431 230.588 98.3477L224.44 90.7213L221.376 86.8953L220.617 85.9401L220.277 85.4843L220.087 85.2455L219.92 85.04C219.464 84.5046 218.972 84.0065 218.413 83.5546C217.32 82.6699 216.046 81.9856 214.694 81.5645C214.35 81.4579 214.016 81.3681 213.664 81.3039C213.494 81.273 213.311 81.2397 213.142 81.2088C213.057 81.1934 212.944 81.1729 212.843 81.169L212.544 81.1292L210.117 80.7749L200.428 79.3317L181.071 76.4056L171.385 74.9483L161.693 73.5193L156.853 72.8131L152.01 72.1211C148.786 71.6653 145.547 71.2069 142.32 70.7652C135.849 69.8934 129.375 69.0357 122.91 68.2089Z" fill="#001064"/>
<path d="M122.959 67.78C129.435 68.6236 135.905 69.4222 142.391 70.2093C145.629 70.5945 148.866 70.9797 152.12 71.3533L156.986 71.9182L161.855 72.4691L171.582 73.5399L181.318 74.5683L200.777 76.6086L210.507 77.6653L212.935 77.9323L213.234 77.9721C213.333 77.9901 213.434 77.994 213.547 78.0145C213.775 78.0415 214.003 78.0684 214.229 78.1095C214.68 78.1917 215.129 78.288 215.573 78.4125C217.378 78.9017 219.063 79.7337 220.533 80.8622C221.277 81.4207 221.949 82.0537 222.566 82.7496L222.795 83.0102L222.999 83.2516L223.395 83.7176L224.187 84.6498L227.321 88.4154L233.588 95.9468C237.745 100.978 241.896 106.038 246.019 111.093L247.568 112.994L247.948 113.472L248.137 113.711L248.35 113.983C248.491 114.169 248.632 114.355 248.771 114.556C248.895 114.753 249.036 114.94 249.16 115.137C250.169 116.722 250.85 118.509 251.169 120.362C251.337 121.282 251.399 122.227 251.39 123.159C251.391 123.393 251.378 123.624 251.365 123.855C251.353 124.086 251.34 124.317 251.296 124.557L251.249 124.899L251.232 125.071L251.204 125.226L251.108 125.836L250.346 130.672C246.282 156.501 241.795 182.252 237.886 208.108C236.903 214.567 235.933 221.029 235.006 227.499L233.61 237.195L232.241 246.896L230.901 256.602L230.575 259.038L230.493 259.65L230.451 259.963L230.392 260.288L230.333 260.613L230.26 260.935L230.187 261.257C230.166 261.37 230.134 261.467 230.1 261.577C229.662 263.263 228.875 264.87 227.834 266.271C225.735 269.084 222.524 271.038 219.031 271.584C218.161 271.717 217.277 271.775 216.393 271.746C216.176 271.735 215.946 271.722 215.732 271.698C215.515 271.688 215.289 271.647 215.075 271.622L214.903 271.606L214.748 271.577L214.449 271.538L213.838 271.455L208.995 270.763L189.61 267.993L179.925 266.608L170.231 265.194C157.314 263.309 144.413 261.339 131.512 259.37L112.158 256.429L102.474 254.958L97.6391 254.224L96.421 254.031C96.1813 253.987 95.9556 253.946 95.7158 253.903L95.0184 253.732C94.0862 253.489 93.1862 253.15 92.313 252.743C90.586 251.903 89.0077 250.726 87.7204 249.31C86.4358 247.88 85.4139 246.206 84.7524 244.393C84.0908 242.58 83.787 240.642 83.8627 238.701L83.9063 237.98C83.9358 237.737 83.9628 237.508 83.9923 237.266L84.1564 236.041L84.4963 233.608C85.3952 227.133 86.3224 220.664 87.2637 214.197C88.1909 207.727 89.1322 201.26 90.0876 194.796C91.0429 188.331 91.9842 181.864 92.9678 175.405C94.9094 162.467 96.9919 149.555 99.1002 136.662C101.225 123.758 103.39 110.875 105.444 97.9579L106.206 93.1215L106.968 88.2851L108.468 78.5788C108.74 76.9213 109.333 75.337 110.205 73.9054C111.075 72.488 112.222 71.2234 113.552 70.2399C114.884 69.2423 116.415 68.5144 118.022 68.092C119.628 67.6696 121.308 67.5669 122.959 67.78ZM122.91 68.2089C121.315 68.006 119.692 68.119 118.147 68.5234C116.583 68.9535 115.114 69.6635 113.846 70.6289C112.577 71.5944 111.482 72.8103 110.663 74.193C109.86 75.5642 109.319 77.0998 109.091 78.6777C108.65 81.9092 108.234 85.1601 107.821 88.3968L107.201 93.2589L106.594 98.1236C104.982 111.092 103.483 124.081 101.941 137.063C100.386 150.042 98.802 163.015 97.0886 175.98C96.232 182.463 95.3471 188.94 94.4648 195.403C93.594 201.883 92.6951 208.358 91.7961 214.832C90.8971 221.307 89.9841 227.779 89.0569 234.249L88.7029 236.679L88.5298 237.873C88.5131 238.045 88.4849 238.2 88.4682 238.372L88.4349 238.877C88.3823 240.21 88.5887 241.56 89.0297 242.822C89.4848 244.087 90.1746 245.263 91.0721 246.258C91.967 247.267 93.0555 248.093 94.2466 248.674C94.848 248.974 95.4762 249.205 96.1288 249.382L96.6173 249.5C96.7866 249.531 96.9558 249.562 97.1109 249.59L98.2982 249.792L103.123 250.582L112.787 252.167L132.111 255.35C144.984 257.475 157.876 259.574 170.736 261.769L180.389 263.41L190.037 265.079L209.331 268.432L214.148 269.265L214.755 269.375L215.051 269.429L215.206 269.458L215.347 269.483C215.533 269.503 215.714 269.55 215.902 269.555C216.088 269.574 216.274 269.594 216.46 269.613C217.209 269.662 217.956 269.637 218.702 269.54C220.195 269.345 221.637 268.863 222.954 268.111C224.268 267.373 225.429 266.358 226.372 265.173C227.316 263.988 228.017 262.613 228.43 261.142C228.462 261.046 228.492 260.963 228.51 260.865L228.575 260.585L228.641 260.305L228.692 260.022L228.743 259.74L228.797 259.443L228.893 258.833L229.275 256.408L230.773 246.716L232.243 237.019L233.684 227.316C234.64 220.852 235.581 214.385 236.48 207.91C240.146 182.024 243.243 156.064 246.766 130.167L247.429 125.312L247.511 124.7L247.54 124.544L247.549 124.415L247.581 124.158C247.611 123.988 247.614 123.814 247.616 123.639C247.633 123.467 247.636 123.293 247.624 123.115C247.62 122.414 247.558 121.717 247.433 121.038C247.309 120.359 247.111 119.681 246.85 119.035C246.588 118.389 246.263 117.776 245.89 117.183C245.8 117.035 245.693 116.899 245.604 116.751C245.514 116.604 245.393 116.465 245.287 116.329L245.12 116.123L244.931 115.885L244.534 115.418L242.983 113.531C238.829 108.485 234.706 103.431 230.588 98.3477L224.44 90.7213L221.376 86.8953L220.617 85.9401L220.277 85.4843L220.087 85.2455L219.92 85.04C219.464 84.5046 218.972 84.0065 218.413 83.5546C217.32 82.6699 216.046 81.9856 214.694 81.5645C214.35 81.4579 214.016 81.3681 213.664 81.3039C213.494 81.273 213.311 81.2397 213.142 81.2088C213.057 81.1934 212.944 81.1729 212.843 81.169L212.544 81.1292L210.117 80.7749L200.428 79.3317L181.071 76.4056L171.385 74.9483L161.693 73.5193L156.853 72.8131L152.01 72.1211C148.786 71.6653 145.547 71.2069 142.32 70.7652C135.849 69.8934 129.375 69.0357 122.91 68.2089Z" stroke="#001064" stroke-width="2.73844" mask="url(#path-1-outside-1)"/>
<path d="M172.341 61.0952L156.759 58.9459L75.0879 57.334L67.0282 61.0952L63.8043 65.931V77.2145L59.5059 226.587V238.945L67.0282 245.93L183.087 251.303H195.445L202.43 247.542L205.654 236.796L209.415 95.483L188.46 74.5279L172.341 61.0952Z" fill="#E9F0FF"/>
<mask id="path-3-outside-2" maskUnits="userSpaceOnUse" x="49.2231" y="48.4144" width="171.506" height="210.518" fill="black">
<rect fill="white" x="49.2231" y="48.4144" width="171.506" height="210.518"/>
<path d="M76.9634 57.6527C83.5613 57.7788 90.1477 57.8605 96.7497 57.9287C100.044 57.955 103.338 57.9814 106.648 57.9943L111.597 58.0199L116.548 58.031L126.437 58.0233L136.328 57.9722L156.099 57.8544L165.988 57.8322L168.457 57.8301L168.761 57.8368C168.863 57.8438 168.965 57.8364 169.08 57.8445C169.312 57.8461 169.545 57.8478 169.776 57.864C170.238 57.8962 170.7 57.943 171.159 58.0187C173.026 58.3089 174.811 58.9569 176.413 59.9266C177.222 60.4047 177.967 60.9656 178.664 61.5958L178.923 61.832L179.155 62.0518L179.604 62.4757L180.504 63.3236L184.069 66.7567L191.2 73.6229C195.933 78.2134 200.664 82.833 205.367 87.4504L207.134 89.1877L207.568 89.6251L207.785 89.8438L208.029 90.0935C208.191 90.2648 208.353 90.436 208.515 90.6218C208.662 90.8065 208.824 90.9778 208.971 91.1625C210.16 92.6413 211.042 94.3604 211.569 96.1856C211.84 97.0914 212.006 98.0336 212.101 98.9708C212.128 99.2053 212.141 99.4388 212.154 99.6724C212.166 99.9059 212.179 100.139 212.162 100.385L212.152 100.734L212.155 100.908L212.144 101.068L212.115 101.691L211.887 106.633C210.674 133.025 209.027 159.388 207.973 185.791C207.703 192.388 207.447 198.986 207.234 205.587L206.909 215.48L206.612 225.376L206.344 235.273L206.287 237.755L206.273 238.38L206.265 238.699L206.242 239.032L206.219 239.365L206.181 239.696L206.143 240.028C206.135 240.144 206.114 240.244 206.091 240.359C205.839 242.101 205.227 243.803 204.337 245.326C202.542 248.384 199.534 250.704 196.086 251.642C195.227 251.872 194.345 252.029 193.455 252.098C193.236 252.111 193.003 252.124 192.785 252.124C192.566 252.137 192.335 252.121 192.117 252.121L191.943 252.123L191.784 252.112L191.48 252.105L190.856 252.091L185.916 251.935L166.139 251.311L156.258 250.999L146.365 250.658C133.183 250.203 120.007 249.661 106.832 249.12L87.0674 248.322L77.1779 247.922L72.2404 247.723L70.9957 247.665C70.7501 247.648 70.5189 247.632 70.2732 247.615L69.5538 247.521C68.5907 247.381 67.6491 247.141 66.7269 246.829C64.8992 246.178 63.1833 245.172 61.7332 243.893C60.2841 242.599 59.0719 241.032 58.2061 239.285C57.3404 237.538 56.8201 235.626 56.6805 233.667L56.6442 232.938C56.6468 232.691 56.6485 232.458 56.6512 232.211L56.68 230.963L56.7511 228.482C56.9349 221.879 57.1476 215.278 57.3747 208.678C57.5874 202.077 57.8145 195.478 58.0561 188.879C58.2976 182.28 58.5248 175.68 58.7952 169.083C59.3083 155.873 59.9658 142.673 60.6513 129.49C61.3522 116.293 62.0954 103.114 62.7241 89.9116L62.952 84.9694L63.1799 80.0272L63.6088 70.1119C63.6977 68.4169 64.118 66.7596 64.8347 65.2248C65.5504 63.7044 66.5625 62.3065 67.7886 61.1708C69.0158 60.0205 70.4725 59.1189 72.0391 58.5158C73.6057 57.9127 75.2812 57.6225 76.9634 57.6527ZM76.9621 58.0888C75.3377 58.0627 73.72 58.3569 72.2132 58.9351C70.6899 59.5412 69.2931 60.4179 68.1267 61.5288C66.9604 62.6396 65.9957 63.9827 65.3264 65.4626C64.6725 66.9292 64.2996 68.5316 64.2456 70.1418C64.1614 73.4364 64.1051 76.7476 64.0499 80.0443L63.9665 84.9966L63.8976 89.9499C63.7189 103.154 63.6558 116.367 63.5493 129.576C63.4284 142.784 63.2786 155.991 62.9978 169.202C62.8574 175.808 62.688 182.412 62.5197 189.001C62.3649 195.606 62.1811 202.209 61.9973 208.812C61.8135 215.415 61.6153 222.016 61.4026 228.617L61.3171 231.098L61.2758 232.316C61.2782 232.491 61.2671 232.65 61.2695 232.825L61.292 233.335C61.3872 234.679 61.7445 236.013 62.3276 237.231C62.9251 238.451 63.7485 239.555 64.7604 240.454C65.7712 241.368 66.9562 242.076 68.217 242.528C68.8542 242.761 69.5108 242.923 70.1859 243.029L70.6897 243.093C70.8631 243.105 71.0365 243.117 71.1954 243.128L72.4102 243.198L77.3437 243.456L87.2251 243.971L106.987 245.016C120.151 245.716 133.332 246.389 146.492 247.162L156.369 247.735L166.245 248.337L185.994 249.556L190.925 249.856L191.546 249.9L191.849 249.921L192.008 249.932L192.153 249.942C192.342 249.941 192.529 249.968 192.718 249.953C192.907 249.951 193.096 249.95 193.285 249.948C194.042 249.914 194.79 249.806 195.529 249.625C197.006 249.263 198.402 248.619 199.64 247.717C200.878 246.829 201.931 245.681 202.747 244.386C203.564 243.091 204.115 241.631 204.366 240.108C204.388 240.007 204.408 239.922 204.416 239.82L204.45 239.532L204.485 239.244L204.505 238.954L204.525 238.665L204.546 238.361L204.575 237.738L204.689 235.259L205.117 225.359L205.516 215.456L205.886 205.551C206.128 198.952 206.355 192.352 206.539 185.749C207.346 159.343 207.574 132.925 208.235 106.523L208.362 101.574L208.377 100.95L208.388 100.791L208.382 100.66L208.386 100.398C208.398 100.224 208.381 100.049 208.364 99.8732C208.362 99.6985 208.345 99.5229 208.314 99.3462C208.232 98.6426 208.092 97.9494 207.891 97.2811C207.691 96.6129 207.418 95.954 207.083 95.3345C206.749 94.7151 206.354 94.135 205.913 93.5808C205.806 93.4425 205.684 93.3176 205.578 93.1794C205.471 93.0411 205.335 92.9152 205.213 92.7904L205.023 92.6026L204.806 92.3839L204.356 91.96L202.588 90.2372C197.856 85.6322 193.153 81.0147 188.453 76.3682L181.432 69.3934L177.929 65.892L177.061 65.0171L176.669 64.5972L176.452 64.3785L176.262 64.1907C175.744 63.7039 175.194 63.2584 174.582 62.8667C173.387 62.0999 172.031 61.5545 170.627 61.2821C170.269 61.2134 169.924 61.1603 169.563 61.1351C169.389 61.123 169.201 61.1099 169.028 61.0978C168.941 61.0917 168.826 61.0837 168.724 61.0911L168.419 61.0844L165.942 60.9987L156.051 60.6282L136.285 59.8448L126.395 59.4598L116.502 59.1038L111.563 58.9335L106.622 58.7777C103.333 58.679 100.029 58.5793 96.7393 58.495C90.1434 58.34 83.5465 58.1994 76.9621 58.0888Z"/>
</mask>
<path d="M76.9634 57.6527C83.5613 57.7788 90.1477 57.8605 96.7497 57.9287C100.044 57.955 103.338 57.9814 106.648 57.9943L111.597 58.0199L116.548 58.031L126.437 58.0233L136.328 57.9722L156.099 57.8544L165.988 57.8322L168.457 57.8301L168.761 57.8368C168.863 57.8438 168.965 57.8364 169.08 57.8445C169.312 57.8461 169.545 57.8478 169.776 57.864C170.238 57.8962 170.7 57.943 171.159 58.0187C173.026 58.3089 174.811 58.9569 176.413 59.9266C177.222 60.4047 177.967 60.9656 178.664 61.5958L178.923 61.832L179.155 62.0518L179.604 62.4757L180.504 63.3236L184.069 66.7567L191.2 73.6229C195.933 78.2134 200.664 82.833 205.367 87.4504L207.134 89.1877L207.568 89.6251L207.785 89.8438L208.029 90.0935C208.191 90.2648 208.353 90.436 208.515 90.6218C208.662 90.8065 208.824 90.9778 208.971 91.1625C210.16 92.6413 211.042 94.3604 211.569 96.1856C211.84 97.0914 212.006 98.0336 212.101 98.9708C212.128 99.2053 212.141 99.4388 212.154 99.6724C212.166 99.9059 212.179 100.139 212.162 100.385L212.152 100.734L212.155 100.908L212.144 101.068L212.115 101.691L211.887 106.633C210.674 133.025 209.027 159.388 207.973 185.791C207.703 192.388 207.447 198.986 207.234 205.587L206.909 215.48L206.612 225.376L206.344 235.273L206.287 237.755L206.273 238.38L206.265 238.699L206.242 239.032L206.219 239.365L206.181 239.696L206.143 240.028C206.135 240.144 206.114 240.244 206.091 240.359C205.839 242.101 205.227 243.803 204.337 245.326C202.542 248.384 199.534 250.704 196.086 251.642C195.227 251.872 194.345 252.029 193.455 252.098C193.236 252.111 193.003 252.124 192.785 252.124C192.566 252.137 192.335 252.121 192.117 252.121L191.943 252.123L191.784 252.112L191.48 252.105L190.856 252.091L185.916 251.935L166.139 251.311L156.258 250.999L146.365 250.658C133.183 250.203 120.007 249.661 106.832 249.12L87.0674 248.322L77.1779 247.922L72.2404 247.723L70.9957 247.665C70.7501 247.648 70.5189 247.632 70.2732 247.615L69.5538 247.521C68.5907 247.381 67.6491 247.141 66.7269 246.829C64.8992 246.178 63.1833 245.172 61.7332 243.893C60.2841 242.599 59.0719 241.032 58.2061 239.285C57.3404 237.538 56.8201 235.626 56.6805 233.667L56.6442 232.938C56.6468 232.691 56.6485 232.458 56.6512 232.211L56.68 230.963L56.7511 228.482C56.9349 221.879 57.1476 215.278 57.3747 208.678C57.5874 202.077 57.8145 195.478 58.0561 188.879C58.2976 182.28 58.5248 175.68 58.7952 169.083C59.3083 155.873 59.9658 142.673 60.6513 129.49C61.3522 116.293 62.0954 103.114 62.7241 89.9116L62.952 84.9694L63.1799 80.0272L63.6088 70.1119C63.6977 68.4169 64.118 66.7596 64.8347 65.2248C65.5504 63.7044 66.5625 62.3065 67.7886 61.1708C69.0158 60.0205 70.4725 59.1189 72.0391 58.5158C73.6057 57.9127 75.2812 57.6225 76.9634 57.6527ZM76.9621 58.0888C75.3377 58.0627 73.72 58.3569 72.2132 58.9351C70.6899 59.5412 69.2931 60.4179 68.1267 61.5288C66.9604 62.6396 65.9957 63.9827 65.3264 65.4626C64.6725 66.9292 64.2996 68.5316 64.2456 70.1418C64.1614 73.4364 64.1051 76.7476 64.0499 80.0443L63.9665 84.9966L63.8976 89.9499C63.7189 103.154 63.6558 116.367 63.5493 129.576C63.4284 142.784 63.2786 155.991 62.9978 169.202C62.8574 175.808 62.688 182.412 62.5197 189.001C62.3649 195.606 62.1811 202.209 61.9973 208.812C61.8135 215.415 61.6153 222.016 61.4026 228.617L61.3171 231.098L61.2758 232.316C61.2782 232.491 61.2671 232.65 61.2695 232.825L61.292 233.335C61.3872 234.679 61.7445 236.013 62.3276 237.231C62.9251 238.451 63.7485 239.555 64.7604 240.454C65.7712 241.368 66.9562 242.076 68.217 242.528C68.8542 242.761 69.5108 242.923 70.1859 243.029L70.6897 243.093C70.8631 243.105 71.0365 243.117 71.1954 243.128L72.4102 243.198L77.3437 243.456L87.2251 243.971L106.987 245.016C120.151 245.716 133.332 246.389 146.492 247.162L156.369 247.735L166.245 248.337L185.994 249.556L190.925 249.856L191.546 249.9L191.849 249.921L192.008 249.932L192.153 249.942C192.342 249.941 192.529 249.968 192.718 249.953C192.907 249.951 193.096 249.95 193.285 249.948C194.042 249.914 194.79 249.806 195.529 249.625C197.006 249.263 198.402 248.619 199.64 247.717C200.878 246.829 201.931 245.681 202.747 244.386C203.564 243.091 204.115 241.631 204.366 240.108C204.388 240.007 204.408 239.922 204.416 239.82L204.45 239.532L204.485 239.244L204.505 238.954L204.525 238.665L204.546 238.361L204.575 237.738L204.689 235.259L205.117 225.359L205.516 215.456L205.886 205.551C206.128 198.952 206.355 192.352 206.539 185.749C207.346 159.343 207.574 132.925 208.235 106.523L208.362 101.574L208.377 100.95L208.388 100.791L208.382 100.66L208.386 100.398C208.398 100.224 208.381 100.049 208.364 99.8732C208.362 99.6985 208.345 99.5229 208.314 99.3462C208.232 98.6426 208.092 97.9494 207.891 97.2811C207.691 96.6129 207.418 95.954 207.083 95.3345C206.749 94.7151 206.354 94.135 205.913 93.5808C205.806 93.4425 205.684 93.3176 205.578 93.1794C205.471 93.0411 205.335 92.9152 205.213 92.7904L205.023 92.6026L204.806 92.3839L204.356 91.96L202.588 90.2372C197.856 85.6322 193.153 81.0147 188.453 76.3682L181.432 69.3934L177.929 65.892L177.061 65.0171L176.669 64.5972L176.452 64.3785L176.262 64.1907C175.744 63.7039 175.194 63.2584 174.582 62.8667C173.387 62.0999 172.031 61.5545 170.627 61.2821C170.269 61.2134 169.924 61.1603 169.563 61.1351C169.389 61.123 169.201 61.1099 169.028 61.0978C168.941 61.0917 168.826 61.0837 168.724 61.0911L168.419 61.0844L165.942 60.9987L156.051 60.6282L136.285 59.8448L126.395 59.4598L116.502 59.1038L111.563 58.9335L106.622 58.7777C103.333 58.679 100.029 58.5793 96.7393 58.495C90.1434 58.34 83.5465 58.1994 76.9621 58.0888Z" fill="#001064"/>
<path d="M76.9634 57.6527C83.5613 57.7788 90.1477 57.8605 96.7497 57.9287C100.044 57.955 103.338 57.9814 106.648 57.9943L111.597 58.0199L116.548 58.031L126.437 58.0233L136.328 57.9722L156.099 57.8544L165.988 57.8322L168.457 57.8301L168.761 57.8368C168.863 57.8438 168.965 57.8364 169.08 57.8445C169.312 57.8461 169.545 57.8478 169.776 57.864C170.238 57.8962 170.7 57.943 171.159 58.0187C173.026 58.3089 174.811 58.9569 176.413 59.9266C177.222 60.4047 177.967 60.9656 178.664 61.5958L178.923 61.832L179.155 62.0518L179.604 62.4757L180.504 63.3236L184.069 66.7567L191.2 73.6229C195.933 78.2134 200.664 82.833 205.367 87.4504L207.134 89.1877L207.568 89.6251L207.785 89.8438L208.029 90.0935C208.191 90.2648 208.353 90.436 208.515 90.6218C208.662 90.8065 208.824 90.9778 208.971 91.1625C210.16 92.6413 211.042 94.3604 211.569 96.1856C211.84 97.0914 212.006 98.0336 212.101 98.9708C212.128 99.2053 212.141 99.4388 212.154 99.6724C212.166 99.9059 212.179 100.139 212.162 100.385L212.152 100.734L212.155 100.908L212.144 101.068L212.115 101.691L211.887 106.633C210.674 133.025 209.027 159.388 207.973 185.791C207.703 192.388 207.447 198.986 207.234 205.587L206.909 215.48L206.612 225.376L206.344 235.273L206.287 237.755L206.273 238.38L206.265 238.699L206.242 239.032L206.219 239.365L206.181 239.696L206.143 240.028C206.135 240.144 206.114 240.244 206.091 240.359C205.839 242.101 205.227 243.803 204.337 245.326C202.542 248.384 199.534 250.704 196.086 251.642C195.227 251.872 194.345 252.029 193.455 252.098C193.236 252.111 193.003 252.124 192.785 252.124C192.566 252.137 192.335 252.121 192.117 252.121L191.943 252.123L191.784 252.112L191.48 252.105L190.856 252.091L185.916 251.935L166.139 251.311L156.258 250.999L146.365 250.658C133.183 250.203 120.007 249.661 106.832 249.12L87.0674 248.322L77.1779 247.922L72.2404 247.723L70.9957 247.665C70.7501 247.648 70.5189 247.632 70.2732 247.615L69.5538 247.521C68.5907 247.381 67.6491 247.141 66.7269 246.829C64.8992 246.178 63.1833 245.172 61.7332 243.893C60.2841 242.599 59.0719 241.032 58.2061 239.285C57.3404 237.538 56.8201 235.626 56.6805 233.667L56.6442 232.938C56.6468 232.691 56.6485 232.458 56.6512 232.211L56.68 230.963L56.7511 228.482C56.9349 221.879 57.1476 215.278 57.3747 208.678C57.5874 202.077 57.8145 195.478 58.0561 188.879C58.2976 182.28 58.5248 175.68 58.7952 169.083C59.3083 155.873 59.9658 142.673 60.6513 129.49C61.3522 116.293 62.0954 103.114 62.7241 89.9116L62.952 84.9694L63.1799 80.0272L63.6088 70.1119C63.6977 68.4169 64.118 66.7596 64.8347 65.2248C65.5504 63.7044 66.5625 62.3065 67.7886 61.1708C69.0158 60.0205 70.4725 59.1189 72.0391 58.5158C73.6057 57.9127 75.2812 57.6225 76.9634 57.6527ZM76.9621 58.0888C75.3377 58.0627 73.72 58.3569 72.2132 58.9351C70.6899 59.5412 69.2931 60.4179 68.1267 61.5288C66.9604 62.6396 65.9957 63.9827 65.3264 65.4626C64.6725 66.9292 64.2996 68.5316 64.2456 70.1418C64.1614 73.4364 64.1051 76.7476 64.0499 80.0443L63.9665 84.9966L63.8976 89.9499C63.7189 103.154 63.6558 116.367 63.5493 129.576C63.4284 142.784 63.2786 155.991 62.9978 169.202C62.8574 175.808 62.688 182.412 62.5197 189.001C62.3649 195.606 62.1811 202.209 61.9973 208.812C61.8135 215.415 61.6153 222.016 61.4026 228.617L61.3171 231.098L61.2758 232.316C61.2782 232.491 61.2671 232.65 61.2695 232.825L61.292 233.335C61.3872 234.679 61.7445 236.013 62.3276 237.231C62.9251 238.451 63.7485 239.555 64.7604 240.454C65.7712 241.368 66.9562 242.076 68.217 242.528C68.8542 242.761 69.5108 242.923 70.1859 243.029L70.6897 243.093C70.8631 243.105 71.0365 243.117 71.1954 243.128L72.4102 243.198L77.3437 243.456L87.2251 243.971L106.987 245.016C120.151 245.716 133.332 246.389 146.492 247.162L156.369 247.735L166.245 248.337L185.994 249.556L190.925 249.856L191.546 249.9L191.849 249.921L192.008 249.932L192.153 249.942C192.342 249.941 192.529 249.968 192.718 249.953C192.907 249.951 193.096 249.95 193.285 249.948C194.042 249.914 194.79 249.806 195.529 249.625C197.006 249.263 198.402 248.619 199.64 247.717C200.878 246.829 201.931 245.681 202.747 244.386C203.564 243.091 204.115 241.631 204.366 240.108C204.388 240.007 204.408 239.922 204.416 239.82L204.45 239.532L204.485 239.244L204.505 238.954L204.525 238.665L204.546 238.361L204.575 237.738L204.689 235.259L205.117 225.359L205.516 215.456L205.886 205.551C206.128 198.952 206.355 192.352 206.539 185.749C207.346 159.343 207.574 132.925 208.235 106.523L208.362 101.574L208.377 100.95L208.388 100.791L208.382 100.66L208.386 100.398C208.398 100.224 208.381 100.049 208.364 99.8732C208.362 99.6985 208.345 99.5229 208.314 99.3462C208.232 98.6426 208.092 97.9494 207.891 97.2811C207.691 96.6129 207.418 95.954 207.083 95.3345C206.749 94.7151 206.354 94.135 205.913 93.5808C205.806 93.4425 205.684 93.3176 205.578 93.1794C205.471 93.0411 205.335 92.9152 205.213 92.7904L205.023 92.6026L204.806 92.3839L204.356 91.96L202.588 90.2372C197.856 85.6322 193.153 81.0147 188.453 76.3682L181.432 69.3934L177.929 65.892L177.061 65.0171L176.669 64.5972L176.452 64.3785L176.262 64.1907C175.744 63.7039 175.194 63.2584 174.582 62.8667C173.387 62.0999 172.031 61.5545 170.627 61.2821C170.269 61.2134 169.924 61.1603 169.563 61.1351C169.389 61.123 169.201 61.1099 169.028 61.0978C168.941 61.0917 168.826 61.0837 168.724 61.0911L168.419 61.0844L165.942 60.9987L156.051 60.6282L136.285 59.8448L126.395 59.4598L116.502 59.1038L111.563 58.9335L106.622 58.7777C103.333 58.679 100.029 58.5793 96.7393 58.495C90.1434 58.34 83.5465 58.1994 76.9621 58.0888Z" stroke="#001064" stroke-width="2.73844" mask="url(#path-3-outside-2)"/>
<path d="M168.966 59.4795C169.298 60.9567 169.559 62.4289 169.819 63.901C170.08 65.3732 170.311 66.8578 170.527 68.3415C170.96 71.2942 171.335 74.2574 171.679 77.2331L171.916 79.4597C171.995 80.2067 172.06 80.9383 172.139 81.6853C172.203 82.4313 172.283 83.1639 172.347 83.9099L172.395 84.4658L172.415 84.598L172.436 84.7158L172.463 84.9503C172.481 85.1115 172.5 85.2582 172.532 85.4204L172.574 85.656C172.583 85.7293 172.607 85.8037 172.616 85.8915C173.112 88.3543 174.451 90.5997 176.327 92.2283C176.792 92.6388 177.304 93.0089 177.833 93.3366C178.362 93.6643 178.908 93.9496 179.486 94.1935C180.63 94.6659 181.859 94.9408 183.115 95.043L183.593 95.0618L184.144 95.0712L185.26 95.1054C185.999 95.1279 186.752 95.1514 187.491 95.1739L189.722 95.2569L191.953 95.3254C194.934 95.4753 197.898 95.6531 200.885 95.9197C202.371 96.0525 203.858 96.1854 205.356 96.3626C206.84 96.5244 208.337 96.7161 209.817 96.9357C208.333 97.1811 206.838 97.3821 205.359 97.5696C203.879 97.7572 202.387 97.9147 200.896 98.0579C197.928 98.3451 194.95 98.5734 191.976 98.7439L189.745 98.879L187.517 98.9851C186.774 99.0205 186.031 99.0559 185.289 99.0768L184.168 99.1149L183.615 99.1344L182.976 99.1335C181.265 99.1013 179.53 98.7767 177.918 98.1553C177.113 97.8373 176.326 97.4625 175.587 97.0184C174.849 96.5743 174.144 96.0598 173.486 95.4905C170.872 93.2142 169.078 89.992 168.574 86.5836C168.553 86.4803 168.545 86.378 168.524 86.2603L168.489 85.9379C168.46 85.7178 168.446 85.5132 168.432 85.2942L168.411 84.9728L168.407 84.8126L168.403 84.6669L168.383 84.1131C168.362 83.3701 168.356 82.6281 168.336 81.8706C168.33 81.1286 168.309 80.3856 168.303 79.6292L168.285 77.3888C168.275 74.4074 168.309 71.4145 168.415 68.4267C168.476 66.9333 168.536 65.4399 168.627 63.9341C168.714 62.4717 168.804 60.9658 168.966 59.4795Z" fill="#001064"/>
<path fill-rule="evenodd" clip-rule="evenodd" d="M15.7795 61.2209C16.1955 59.8839 17.0061 58.7242 17.6948 57.4145C18.0534 56.6232 18.7494 56.555 19.5387 56.9096C22.3584 57.6053 24.7909 59.365 27.4027 60.7291C30.653 62.5707 33.8461 64.958 36.9171 67.1952C38.0724 68 38.015 68.5457 37.355 69.5826C35.1024 72.666 35.1024 72.666 32.0027 70.7016C27.2311 67.605 22.1582 64.754 17.2073 62.053C16.6907 61.7256 16.1741 61.3982 15.7795 61.2209Z" fill="#001064"/>
<path fill-rule="evenodd" clip-rule="evenodd" d="M50.2906 29.252C50.0188 28.7036 50.1848 28.4853 50.7621 28.4054C50.9545 28.3787 51.3129 28.1338 51.5053 28.1072C54.8897 27.0526 55.0821 27.026 56.3017 30.1777C58.1709 35.1929 59.8741 40.4263 61.7433 45.4414C62.0416 46.1815 61.9021 46.5914 61.3512 46.863C59.6723 47.4861 58.0198 48.3009 56.3409 48.924C55.5977 49.2222 55.3788 49.0572 55.0805 48.3172C53.4374 42.0988 51.7943 35.8803 50.1776 29.8536C50.3436 29.6353 50.3171 29.4436 50.2906 29.252Z" fill="#001064"/>
<path fill-rule="evenodd" clip-rule="evenodd" d="M97.3606 31.9178C96.975 36.6466 95.7943 41.2803 94.8064 45.8898C94.8305 46.0818 94.71 46.682 94.5173 46.7063C92.7585 46.7325 91.4575 45.7261 89.8432 45.3442C88.8313 45.0814 89.3132 44.2408 89.4337 43.6406C90.3975 38.8391 91.3614 34.0376 92.1325 29.2604C92.3975 28.252 92.7589 28.0115 93.7708 28.2742C93.9876 28.4419 94.3731 28.3935 94.5659 28.3692C97.3848 28.9896 97.3848 28.9896 97.3606 31.9178Z" fill="#001064"/>
<path d="M124.539 204.568C132.303 200.66 140.383 196.726 147.549 191.839C151.61 189.071 156.372 185.786 159.301 181.782C160.651 179.938 155.022 183.662 153.087 184.932C146.547 189.225 139.997 193.554 134.175 198.747C132.686 200.075 125.75 205.163 126.408 207.827C127.081 210.555 146.938 202.374 148.314 201.788C153.783 199.459 159.082 196.746 164.389 194.099C165.904 193.343 169.322 190.491 168.217 193.794C167.988 194.479 165.611 203.23 165.65 203.222C167.814 202.75 170.511 199.937 172.224 198.747C175.578 196.418 179.147 193.76 182.941 192.122C183.744 191.775 181.84 197.009 181.748 197.943C181.722 198.205 182.042 199.849 182.176 200.094C182.429 200.555 183.017 199.61 183.076 199.529C185.408 196.369 187.942 193.375 190.529 190.406C193.548 186.939 196.385 183.267 199.422 179.849C199.56 179.693 199.387 180.259 199.332 180.457C197.883 185.641 196.105 190.73 194.761 195.945C193.919 199.214 192.987 202.65 192.713 206.024C192.542 208.125 194.711 206.964 195.865 206.437C202.813 203.259 209.872 200.003 216.51 196.249C217.344 195.777 217.58 195.576 218.559 195.576" stroke="#001064" stroke-width="3.5" stroke-linecap="round" stroke-linejoin="round"/>
<path d="M53.8745 93.6659L53.8737 93.6659C49.5809 93.8532 45.2285 93.8054 40.8726 93.7576C39.1945 93.7392 37.5159 93.7207 35.8399 93.7157L35.8396 93.7173L35.8389 93.7211L35.8381 93.7249L35.8374 93.7287L35.8366 93.7325L35.8359 93.7363L35.8351 93.7401L35.8344 93.7439L35.8336 93.7478L35.8329 93.7516L35.8321 93.7554L35.8314 93.7592L35.8306 93.763L35.8299 93.7668L35.8291 93.7706L35.8284 93.7744L35.8276 93.7782L35.8269 93.782L35.8261 93.7858L35.8254 93.7896L35.8246 93.7934L35.8239 93.7973L35.8231 93.8011L35.8224 93.8049L35.8216 93.8087L35.8209 93.8125L35.8201 93.8163L35.8194 93.8201L35.8186 93.8239L35.8179 93.8277L35.8171 93.8315L35.8164 93.8353L35.8156 93.8391L35.8149 93.8429L35.8141 93.8467L35.8134 93.8505L35.8126 93.8543L35.8119 93.8581L35.8111 93.8619L35.8104 93.8657L35.8096 93.8695L35.8089 93.8732L35.8081 93.877L35.8074 93.8808L35.8066 93.8846L35.8059 93.8884L35.8051 93.8922L35.8044 93.896L35.8037 93.8998L35.8029 93.9036L35.8022 93.9074L35.8014 93.9112L35.8007 93.9149L35.7999 93.9187L35.7992 93.9225L35.7984 93.9263L35.7977 93.9301L35.7969 93.9339L35.7962 93.9377C34.8751 98.6124 33.9454 103.285 33.016 107.957C30.8484 118.852 28.6818 129.742 26.6259 140.643L26.6254 140.645C25.753 145.238 25.1371 149.844 24.9732 154.412L24.9731 154.414C24.4425 168.703 27.2782 181.986 34.2356 193.973C40.2216 204.262 48.6282 211.759 58.5302 217.796L58.5381 217.801L58.5461 217.806C63.2589 220.74 67.7525 222.115 72.8385 220.819C73.1885 220.717 73.513 220.68 73.7097 220.659C73.791 220.651 73.8538 220.645 73.9045 220.639C74.0186 220.628 74.0719 220.623 74.1372 220.611L74.177 220.604L74.2172 220.598C108.238 215.93 126.433 189.5 131.924 163.76C131.924 163.76 131.924 163.76 131.924 163.76L133.88 164.178C136.253 153.048 138.401 141.891 140.551 130.727C141.555 125.516 142.558 120.303 143.585 115.091L53.8745 93.6659ZM53.8745 93.6659C66.7847 93.0982 79.4496 90.6571 91.8495 86.5997L91.8575 86.5971L91.8654 86.5944C92.0714 86.5251 92.1681 86.5181 92.1976 86.5187C92.2204 86.5262 92.3243 86.5688 92.5461 86.7496C105.339 97.5644 119.436 106.074 134.88 112.025C136.735 112.757 138.682 113.398 140.612 114.034C140.97 114.152 141.329 114.27 141.685 114.388L53.8745 93.6659ZM92.2078 86.5197C92.2077 86.52 92.2044 86.5199 92.1984 86.5188C92.205 86.5189 92.208 86.5195 92.2078 86.5197ZM92.1965 86.5184C92.194 86.5179 92.1927 86.5175 92.1927 86.5174L92.1965 86.5184Z" fill="#BAF0DF" stroke="#001064" stroke-width="4"/>
<path d="M89.5566 138.311C91.5878 141.38 98.1771 146.089 108.285 140.374" stroke="#001064" stroke-width="4" stroke-linecap="round"/>
<path d="M48.2617 133.572C49.7307 136.625 55.1645 141.756 65.1482 137.865" stroke="#001064" stroke-width="4" stroke-linecap="round"/>
<path d="M74.017 176.87C69.7208 176.522 65.5047 175.181 61.8094 172.883C60.8625 172.251 60.5109 171.112 61.0406 170.045C69.087 154.154 73.8431 136.443 74.845 118.538C66.3994 121.518 56.9736 121.531 48.4581 118.509C47.3832 118.089 46.8202 116.822 47.1295 115.737C47.5491 114.661 48.8142 114.097 49.898 114.407C58.4046 117.539 67.9762 117.093 76.2638 113.324C76.9515 113.047 77.7226 113.109 78.3568 113.494C78.9911 113.878 79.3783 114.576 79.3159 115.348C78.7848 134.29 74.1599 153.122 65.9143 170.107C70.4998 172.366 75.981 173.143 80.9437 172.102C82.072 171.861 83.2303 172.621 83.4718 173.75C83.7132 174.88 82.9543 176.04 81.826 176.282C79.2211 176.959 76.5506 177.075 74.017 176.87Z" fill="#001064"/>
<path d="M114.74 125.655L90.9812 123.286C89.7694 123.188 88.9683 122.124 89.0664 120.911C89.1644 119.697 90.236 118.785 91.4388 118.993L115.087 121.353C116.299 121.451 117.1 122.515 117.002 123.728C117.023 124.84 115.952 125.753 114.74 125.655Z" fill="#001064"/>
<path d="M68.0898 187.711C71.0842 189.644 79.1485 192.484 87.4505 188.375" stroke="#001064" stroke-width="4" stroke-linecap="round"/>
<path d="M133.065 45.4469L129.901 37.0194L128.567 40.1895L123.149 46.8629L117.566 48.6136L122.439 56.082L124.894 66.6369L127.853 63.5923L133.812 56.9608L141.604 54.8351L133.065 45.4469Z" fill="white"/>
<path d="M145.879 54.5221C136.414 52.2157 130.427 42.8378 131.969 33.583C132.326 32.3414 132.652 31.0973 132.977 29.8685C133.324 28.5496 131.17 27.8174 130.671 29.1092C130.077 30.6384 129.664 32.2122 129.404 33.7977C128.48 37.0141 127.269 40.1777 125.207 42.8169C123.963 44.4181 122.412 45.8122 120.618 46.7746C119.93 47.1343 119.248 47.4181 118.541 47.6234C118.499 47.5743 118.44 47.5391 118.398 47.49C117.392 46.6018 116.161 47.2254 115.751 48.1724C115.286 48.2282 114.821 48.284 114.342 48.3235C113.723 48.3827 113.432 49.3695 114.103 49.6202C114.761 49.8545 115.442 49.9836 116.115 50.0203C116.129 50.0366 116.158 50.0542 116.171 50.0858C121.235 54.5141 123.803 61.441 122.754 68.0731C122.421 70.2036 125.495 70.7622 126.023 68.6927C128.194 60.2511 136.901 55.4646 145.271 57.6405C147.288 58.1633 147.85 55.0566 145.879 54.5221ZM126.022 61.3372C125.305 56.893 123.311 52.6865 120.24 49.2991C122.615 48.3663 124.803 46.6698 126.367 44.9097C127.593 43.5364 128.57 42.0215 129.386 40.4024C129.743 42.7391 130.488 45.0293 131.644 47.1677C133.134 49.9437 135.272 52.2956 137.788 54.111C133.116 54.9581 128.893 57.5526 126.022 61.3372Z" fill="#001064"/>
<path d="M146.806 79.2413L144.725 70.8975L138.598 79.6982L132.848 83.6181L138.387 89.5015L140.885 99.514L145.97 90.0873L154.47 85.8343L146.806 79.2413Z" fill="white"/>
<path d="M158.431 85.7088C156.419 84.7276 154.503 83.8762 152.757 82.4261C151.053 81.0252 149.62 79.2936 148.525 77.3739C147.321 75.2623 146.549 72.9242 146.228 70.5138C146.132 69.7724 146.068 69.0029 146.064 68.2533C146.086 68.1785 146.105 68.1188 146.112 68.0276C146.132 67.7692 146.153 67.4956 146.159 67.2208C146.302 66.1614 146.384 65.0973 146.404 64.0437C146.436 62.2416 143.628 61.8106 143.561 63.6711C143.297 70.4862 140.317 82.0613 131.872 82.2499C131.538 82.2087 131.201 82.198 130.846 82.2165C130.678 82.2035 130.51 82.1905 130.344 82.1624C129.614 82.0601 129.318 83.1229 130.017 83.4064C130.419 83.575 130.809 83.6969 131.216 83.7896C132.496 84.3166 133.716 84.8238 134.777 85.8079C136.025 86.9442 137 88.4417 137.665 89.9764C139.242 93.6154 139.138 97.7515 139.053 101.644C139.031 102.53 139.872 102.977 140.527 102.844C140.586 102.879 140.66 102.915 140.735 102.937C141.157 103.046 141.679 102.841 141.835 102.41C142.05 101.815 142.147 101.149 142.228 100.498C142.316 100.352 142.39 100.19 142.419 100.008C143.181 96.5041 144.912 93.3654 147.803 91.1267C149.19 90.0565 150.788 89.2471 152.471 88.7348C153.571 88.407 154.689 88.2487 155.805 88.1056C156.4 88.3503 156.999 88.5495 157.617 88.7043C159.439 89.1662 159.925 86.4512 158.431 85.7088ZM146.111 88.9622C144.01 90.5278 142.283 92.6117 141.105 94.9521C140.867 92.6553 140.364 90.4144 139.295 88.3438C138.426 86.671 137.015 84.8645 135.297 83.6461C137.841 82.9098 140.117 81.0672 141.698 78.8803C142.661 77.5478 143.48 76.0819 144.152 74.5434C144.596 76.1528 145.214 77.6991 146.039 79.1392C147.499 81.714 149.659 84.1747 152.19 86.0064C149.932 86.6119 147.789 87.7156 146.111 88.9622Z" fill="#001064"/>
</svg>
