<svg width="198" height="260" viewBox="0 0 198 260" fill="none" xmlns="http://www.w3.org/2000/svg">
<path d="M141.719 224.064H127.126L125.562 256.381L146.931 256.902L177.159 255.338L176.117 243.35L172.469 242.308L171.426 230.84L143.283 231.883L141.719 224.064Z" fill="#FEF6E7"/>
<path d="M181.595 124.422L176.854 117.309L175.668 119.68L169.741 127.978L162.629 130.942L171.519 136.87L175.668 144.576L179.817 136.87L189.301 130.942L188.708 129.164L181.595 124.422Z" fill="white"/>
<path d="M196.463 130.452C195.419 129.666 193.699 129.698 192.414 129.336C191 128.927 189.634 128.409 188.348 127.748C185.713 126.397 183.399 124.557 181.631 122.341C179.815 120.062 178.578 117.342 178.015 114.576C177.999 114.466 177.967 114.34 177.951 114.23C178.465 111.464 178.578 108.65 178.16 106.025C177.919 104.453 175.155 104.469 175.026 106.088C174.994 106.433 174.978 106.779 174.994 107.125C174.994 107.251 175.01 107.361 175.043 107.471C175.075 109.672 175.091 111.841 174.721 114.057C174.271 116.761 173.436 119.433 172.246 121.948C171.218 124.133 169.82 126.239 167.779 127.78C165.529 129.478 162.862 130.059 159.985 130.091C159.069 130.106 158.684 131.159 159.583 131.537C160.387 131.867 161.206 132.055 161.994 132.118C162.396 132.37 162.781 132.606 163.247 132.81C164.131 133.203 164.983 133.612 165.786 134.13C167.425 135.152 168.872 136.41 170.045 137.856C172.568 140.984 173.628 144.992 173.194 148.812C173.098 149.677 173.725 150.211 174.448 150.352C175.235 151.641 177.501 151.186 177.373 149.504C177.019 144.819 178.289 140.229 182.145 136.866C183.913 135.325 185.986 134.225 188.284 133.454C189.778 132.936 191.337 132.731 192.88 132.496C194.037 132.794 195.258 132.967 196.238 132.558C197.203 132.15 197.235 131.018 196.463 130.452ZM187.464 130.798C184.62 131.584 181.936 133.061 179.847 134.963C177.999 136.645 176.489 138.736 175.46 141C174.834 139.365 173.934 137.793 172.761 136.362C171.395 134.681 169.643 133.203 167.699 132.071C167.265 131.82 166.815 131.584 166.349 131.348C169.675 129.981 172.52 126.994 174.094 124.353C175.043 122.766 175.862 121.021 176.537 119.213C177.164 120.769 177.983 122.263 179.012 123.662C180.908 126.239 183.527 128.44 186.468 130.012C186.902 130.248 187.352 130.468 187.802 130.672C187.705 130.735 187.593 130.767 187.464 130.798Z" fill="#001064"/>
<path fill-rule="evenodd" clip-rule="evenodd" d="M95.7476 1.39103C94.5544 1.32901 93.3863 1.6357 92.1342 1.80025C91.3947 1.85367 91.134 2.39125 91.1842 3.12868C90.9059 5.59427 91.594 8.06415 91.9123 10.5607C92.4237 13.7104 93.3887 16.9754 94.2698 20.0983C94.5719 21.2622 95.0256 21.3776 96.0508 21.1553C99.1855 20.2619 99.1855 20.2619 98.5312 17.1968C97.4659 12.4569 96.6864 7.54809 95.9908 2.78147C95.8817 2.27061 95.7727 1.75974 95.7476 1.39103Z" fill="#001064"/>
<path fill-rule="evenodd" clip-rule="evenodd" d="M130.631 7.62709C130.723 7.11289 130.948 7.0477 131.385 7.28665C131.531 7.36631 131.901 7.38077 132.047 7.46042C134.905 8.45961 135.051 8.53925 134.286 11.3203C133.021 15.709 131.531 20.163 130.265 24.5518C130.094 25.2108 129.79 25.4209 129.274 25.3268C127.805 24.8996 126.257 24.6173 124.788 24.1901C124.126 24.0163 124.06 23.7918 124.231 23.1328C126.263 18.0342 128.295 12.9357 130.248 7.98197C130.473 7.91677 130.552 7.77193 130.631 7.62709Z" fill="#001064"/>
<path fill-rule="evenodd" clip-rule="evenodd" d="M162.818 37.7369C160.188 40.815 157.056 43.4296 154.069 46.1238C153.99 46.2687 153.606 46.6236 153.461 46.5439C152.23 45.6822 151.831 44.3352 150.904 43.2635C150.335 42.5755 151.088 42.2351 151.472 41.8802C154.538 39.0411 157.604 36.202 160.524 33.2832C161.212 32.7183 161.582 32.7327 162.152 33.4207C162.218 33.6452 162.509 33.8045 162.655 33.8841C164.297 35.7235 164.297 35.7235 162.818 37.7369Z" fill="#001064"/>
<path d="M114.469 246.493C126.143 244.204 138.155 244.859 150.03 244.859C151.172 244.859 154.213 244.302 154.781 245.706C155.54 247.581 155.195 250.651 155.023 252.577C154.863 254.387 154.76 256.845 152.678 256.845C143.619 256.845 134.559 256.845 125.5 256.845C122.735 256.845 119.803 256.569 117.041 256.86C116.434 256.924 112.595 257.867 112.35 257.541C112.008 257.085 112.457 255.713 112.501 255.241C112.686 253.252 112.671 251.215 112.774 249.217C112.931 246.149 112.834 243.058 112.834 239.986C112.834 238.166 112.743 236.324 112.834 234.507C112.865 233.889 122.55 233.86 123.412 233.826C130.497 233.547 137.707 233.507 144.764 234.25C145.978 234.378 145.992 235.773 146.186 236.717C146.641 238.925 146.882 241.243 146.882 243.497" stroke="#001064" stroke-width="2.5" stroke-linecap="round" stroke-linejoin="round"/>
<path d="M116.309 223.698C122.741 223.698 129.169 223.673 135.602 223.698C136.78 223.703 137.958 223.698 139.136 223.698C140.268 223.698 141.591 223.532 142.722 223.713C143.034 223.763 143.101 225.168 143.138 225.409C143.366 226.888 143.561 228.425 143.668 229.918C143.693 230.261 143.545 230.979 143.713 231.296C143.871 231.591 143.988 232.672 143.683 232.824" stroke="#001064" stroke-width="2.5" stroke-linecap="round" stroke-linejoin="round"/>
<path d="M148.041 243.858C152.834 243.797 157.602 242.997 162.402 242.874C164.398 242.823 166.293 242.674 168.258 242.428C170.829 242.107 173.499 242.609 176.021 243.071C176.418 243.144 176.64 243.26 176.747 243.661C177.17 245.246 177.392 246.903 177.511 248.534C177.624 250.078 177.595 251.627 177.595 253.173C177.595 253.638 177.66 253.905 177.224 254.179C174.882 255.656 172.117 256.389 169.363 256.389C165.992 256.389 162.658 255.844 159.292 255.844C158.077 255.844 156.878 255.98 155.668 255.98" stroke="#001064" stroke-width="2.5" stroke-linecap="round" stroke-linejoin="round"/>
<path d="M144.637 231.871C151.026 231.803 157.39 230.891 163.772 230.789C165.815 230.756 167.87 230.722 169.908 230.887C170.481 230.934 170.861 231.02 171.33 231.296C171.668 231.495 171.632 232.456 171.678 232.809C171.951 234.871 172.164 236.943 172.352 239.014C172.461 240.216 172.692 241.288 172.692 242.495" stroke="#001064" stroke-width="2.5" stroke-linecap="round" stroke-linejoin="round"/>
<path d="M34.3151 142.873H135.569C138.904 142.873 141.484 145.768 141.107 149.104L129.213 251.501C128.898 254.333 126.507 256.41 123.675 256.41H50.1734C47.4045 256.41 45.0761 254.396 44.6985 251.69L28.8403 149.293C28.3368 145.894 30.917 142.873 34.3151 142.873Z" fill="#E3F8F0"/>
<path d="M34.3164 142.498C43.0007 142.498 51.6849 142.372 60.3692 141.931L66.8509 141.617L73.3327 141.302L86.3591 140.61C95.0434 140.169 103.728 139.854 112.412 139.729C116.754 139.729 121.096 139.729 125.438 139.729C127.578 139.729 129.78 139.791 131.92 139.791L135.192 139.854H135.633L136.262 139.917C136.703 139.917 137.08 140.043 137.458 140.106C138.276 140.295 139.031 140.61 139.723 141.05C141.171 141.868 142.303 143.127 142.996 144.575C143.751 146.022 143.94 147.721 143.751 149.295C143.436 151.435 143.121 153.574 142.744 155.714L140.793 168.679C139.472 177.238 138.087 185.861 137.017 194.42C134.815 211.665 133.179 228.909 131.794 246.216L131.542 249.489L131.417 251.125L131.354 251.503V251.692L131.291 251.944C131.228 252.321 131.165 252.699 131.102 253.014C130.661 254.461 129.843 255.783 128.711 256.79C127.578 257.797 126.068 258.426 124.557 258.615C123.676 258.678 123.236 258.678 122.669 258.741L121.033 258.804L117.761 258.93L111.279 259.118C102.595 259.37 93.9106 259.496 85.2264 259.622L59.1735 259.937L52.6918 259.999H51.0556H50.2376H49.9858H49.6712C49.4195 259.999 49.2307 259.999 48.979 259.937C47.154 259.748 45.4549 258.93 44.0705 257.797C42.686 256.601 41.6791 255.027 41.1757 253.265C41.1128 253.076 41.0499 252.825 40.9869 252.636C40.924 252.447 40.8611 252.132 40.8611 252.069L40.7352 251.251L40.4835 249.615L39.5395 243.195C38.281 234.636 37.0224 226.014 35.8896 217.392L35.0715 210.909L34.4423 204.553C33.9388 200.273 33.4983 195.93 33.0578 191.588L31.7992 178.623L31.1699 172.141L30.4148 165.658C29.9743 161.316 29.4079 157.036 28.8415 152.756L28.401 149.547C28.2122 148.414 28.401 147.218 28.8415 146.148C29.345 145.078 30.1001 144.134 31.0441 143.505C32.0509 142.812 33.1837 142.498 34.3164 142.498ZM34.3164 143.19C32.2397 143.19 30.2889 144.512 29.5338 146.4C29.1562 147.344 29.0303 148.351 29.282 149.358L29.8484 152.567C30.6036 156.847 31.4216 161.127 32.3027 165.344L33.5612 171.7L34.8828 178.12L37.5887 190.896C38.4697 195.175 39.3508 199.392 40.1688 203.672L41.4274 210.091L42.6231 216.511C44.1334 225.07 45.5808 233.629 46.9652 242.189L47.9721 248.608L48.2238 250.244L48.3497 251.063C48.3497 251.251 48.4126 251.251 48.4126 251.251C48.4126 251.314 48.4126 251.314 48.4755 251.377C48.5385 251.755 48.7902 252.007 49.0419 252.258C49.2936 252.51 49.6712 252.636 49.9858 252.699C50.0488 252.699 50.0488 252.699 50.1117 252.699H50.1746H50.2376H50.3634H51.1815H52.8177L59.2994 252.762L85.3522 253.076C94.0365 253.202 102.721 253.328 111.405 253.58L117.887 253.769L124.18 253.958C125.438 253.895 126.697 253.076 127.137 251.818C127.2 251.629 127.263 251.503 127.263 251.314V251.188V251L127.326 250.622L127.578 248.986L128.081 245.776C130.724 228.594 133.053 211.413 134.878 194.168C135.759 185.546 136.451 176.861 137.08 168.239L138.024 155.274C138.15 153.134 138.402 150.931 138.528 148.791C138.591 147.658 137.898 146.589 136.954 146.148C136.703 146.022 136.451 145.959 136.199 145.896C136.073 145.896 135.948 145.833 135.822 145.896C135.759 145.896 135.696 145.896 135.633 145.896H135.255L131.983 145.959C129.843 146.022 127.641 146.022 125.501 146.022C121.159 146.085 116.817 146.022 112.475 145.959C103.728 145.833 95.0434 145.456 86.422 145.078L73.3956 144.386L66.8509 144.008L60.3692 143.756C51.6849 143.379 43.0007 143.19 34.3164 143.19Z" fill="#001064"/>
<path d="M90.1456 222.956C89.8585 224.282 89.6062 225.658 89.2285 227.016C88.9996 227.834 88.6481 228.651 88.2245 229.444C87.8645 230.118 87.2045 230.701 86.0388 230.652C84.8864 230.602 84.4834 230.018 84.5635 229.296C84.6823 228.205 84.8957 227.108 85.109 226.011C85.228 225.365 85.4149 224.718 85.5882 223.982C84.9625 224.078 84.5231 224.146 84.0438 224.219C83.8482 225.432 83.683 226.576 83.4898 227.715C83.4309 228.042 83.4776 228.435 83.216 228.684C82.8244 229.063 82.2545 229.523 81.6861 229.638C80.8661 229.8 80.385 229.328 80.3578 228.795C80.2957 227.768 80.3547 226.731 80.3591 225.694C80.3616 225.266 80.3788 224.845 80.395 224.506C78.5699 224.068 76.869 223.728 75.2702 223.255C71.2914 222.101 69.0951 219.864 67.9958 217.05C67.77 216.466 67.8234 215.749 68.097 215.134C68.2675 214.735 68.9893 214.287 69.6 214.094C70.3798 213.847 70.9139 214.22 71.2312 214.689C71.9621 215.723 72.7049 216.746 73.4477 217.769C74.9013 219.783 77.5817 220.645 80.9405 221.221C81.2252 218.813 81.5492 216.572 81.7373 214.333C82.1644 209.565 82.497 204.803 82.9241 200.036C83.0368 198.727 82.6736 197.692 81.2917 196.767C78.5867 194.945 76.5532 192.792 75.9123 190.035C74.8589 185.476 77.5095 181.168 83.4804 178.251C84.7358 177.64 85.2879 177.065 85.3377 176.057C85.4205 174.198 85.7471 172.329 85.9924 170.463C86.0534 169.972 86.1262 169.469 86.2831 168.982C86.4464 168.447 86.576 167.782 87.6908 167.765C88.6299 167.758 88.6919 168.339 88.6709 168.824C88.5911 170.792 88.4434 172.761 88.3236 174.735C88.2962 175.266 88.282 175.796 88.2521 176.401C89.5302 176.205 90.6352 176.035 91.9267 175.837C92.2578 174.531 92.5822 173.181 92.9612 171.831C93.1652 171.118 93.4252 170.414 93.7398 169.711C93.9857 169.182 94.6075 168.705 95.37 168.879C95.8779 168.992 96.4444 169.487 96.4471 169.86C96.4525 171.05 96.2169 172.269 96.0479 173.477C95.9415 174.294 95.7938 175.107 95.6515 175.957C95.9942 176.059 96.2543 176.155 96.5369 176.221C100.711 177.227 102.568 179.207 102.054 182.341C101.879 183.423 101.338 184.515 100.834 185.584C100.557 186.172 100.086 186.836 98.959 186.772C97.9278 186.712 98.028 186.033 97.9889 185.511C97.9216 184.539 98.0407 183.539 97.8803 182.581C97.6721 181.313 97.509 179.983 95.1903 179.347C94.8656 181.761 94.5325 184.032 94.2686 186.309C93.7952 190.42 93.4045 194.536 92.8898 198.644C92.7823 199.542 93.0801 200.152 93.9627 200.753C95.3459 201.687 96.6349 202.717 97.7443 203.82C100.976 207.034 101.501 210.719 99.7816 214.793C98.314 218.374 95.041 221.023 90.1456 222.956ZM86.2611 220.551C86.368 220.27 86.4858 220.061 86.5077 219.849C87.1867 214.324 87.7711 208.805 88.5739 203.289C88.8226 201.623 87.5629 200.961 85.7727 200.218C85.2493 207.201 84.7386 214 84.2241 220.863C85.0362 220.739 85.6353 220.647 86.2611 220.551ZM87.9466 179.74C87.8385 180.457 87.7445 180.999 87.6917 181.543C87.2583 185.648 86.9741 189.747 86.3502 193.854C86.0909 195.54 87.029 196.414 88.8564 197.134C89.6735 191.089 90.4775 185.136 91.3061 178.988C90.1335 179.25 89.1445 179.465 87.9466 179.74ZM90.6101 218.965C97.19 216.109 98.1599 206.884 92.3154 204.762C91.7429 209.469 91.1823 214.166 90.6101 218.965ZM84.6796 181.45C79.2866 184.67 78.7287 190.539 83.3861 193.008C83.8245 189.203 84.2404 185.428 84.6796 181.45Z" fill="#001066"/>
<path d="M170.613 72.2267C169.805 70.0755 167.963 68.5518 165.583 68.014C159.699 66.7144 154.175 71.6441 152.108 73.84C148.83 77.246 144.563 82.579 142.946 88.4946V88.8532L142.632 89.0773C136.658 92.8417 131.268 97.4577 126.642 102.88L125.429 104.314V102.477C125.474 99.8777 125.205 96.9647 124.621 93.5588L124.576 93.3347L124.666 93.1554C124.756 93.021 124.801 92.8417 124.801 92.6625C125.519 88.0465 129.696 85.6265 133.379 83.4753C134.817 82.6687 136.119 81.862 137.287 81.0105C139.622 79.2179 142.182 75.8567 142.182 72.8093C142.182 71.2407 141.509 69.9411 140.206 68.8655C136.074 65.594 130.415 70.1652 128.034 73.0334C126.418 74.9604 125.025 77.3356 123.723 80.2934L123.408 80.9657C123.229 81.4138 123.004 81.862 122.824 82.3101L122.151 83.8339L121.567 82.2653C121.297 81.5931 121.073 80.9657 120.803 80.3383L120.758 80.2038V80.0694C120.758 79.9797 120.713 79.8901 120.669 79.8005L120.489 79.6212L120.175 78.9042L120.399 78.5905C120.489 78.456 120.534 78.3216 120.579 78.1423C121.387 73.3919 124.262 69.9859 127.046 66.6248C128.529 64.8322 130.101 62.9947 131.313 60.9332C132.571 58.7821 134.008 55.5554 133.424 52.4631C132.975 50.0431 131.089 47.6679 128.214 47.8023C125.564 47.9368 123.992 50.5361 122.555 52.8216C122.42 53.0457 122.285 53.2698 122.151 53.4939C120.399 56.3172 118.827 59.4095 117.569 62.681C116.806 64.6977 115.099 69.8067 115.997 74.2434L116.312 75.8119L114.964 74.9156C111.955 72.9437 108.542 71.42 104.859 70.3444C102.119 69.5826 93.0913 67.5659 90.7108 74.5123C90.6659 74.6467 90.621 74.7812 90.5761 74.9156L90.3964 75.5878L90.3515 76.1704C90.2168 77.5597 90.621 78.8145 91.5193 79.8453C93.4506 82.0412 97.1336 82.9824 99.9632 83.1168C101.266 83.1616 102.613 83.1168 103.916 83.0272C105.982 82.9375 108.093 82.8031 110.248 83.2064C111.82 83.4753 113.348 83.9235 114.83 84.5061C115.548 84.775 116.267 85.1783 116.941 85.5368C117.839 86.0298 118.692 86.478 119.636 86.7469C119.815 86.7917 119.995 86.8365 120.175 86.7917L120.713 86.7469L120.893 87.2846C121.297 88.5843 121.612 89.8391 121.926 91.0491L121.971 91.1836L121.702 92.2143L120.938 91.9006C117.525 90.4665 112.943 90.1528 107.958 90.9595C103.556 91.6765 98.1217 93.4692 97.1785 97.9955C96.8192 99.6985 97.1336 101.133 98.1217 102.253C99.5589 103.821 102.389 104.673 105.398 104.359C107.464 104.135 109.53 103.508 111.551 102.88C115.144 101.76 118.872 100.64 122.869 101.85L123.319 101.984V102.477C123.319 102.567 123.319 102.611 123.319 102.701C123.319 102.791 123.319 102.88 123.319 102.97C123.363 104.27 123.319 105.524 123.319 106.779V107.003L123.184 107.183C122.465 108.169 121.836 109.11 121.297 109.961C119.86 112.157 118.558 114.577 117.39 117.132L116.986 118.073L116.312 117.311C114.515 115.294 111.91 113.546 109.036 112.336C107.958 111.888 105.577 110.992 103.152 110.992C101.086 110.992 99.0649 111.619 97.8522 113.726C97.1785 114.891 97.0437 116.101 97.403 117.311C98.1666 119.641 100.727 121.434 102.703 122.285C103.781 122.734 104.904 123.137 106.027 123.54C106.97 123.854 107.958 124.212 108.901 124.616C110.114 125.109 111.012 125.602 111.82 126.095C112.449 126.498 112.943 127.036 113.437 127.529L113.707 127.798L113.617 128.156C112.359 133.041 111.91 137.254 112.27 140.929C112.359 141.646 113.033 142.139 113.662 142.139C114.201 142.183 114.47 141.915 114.605 141.332C114.964 139.495 115.279 137.612 115.548 135.775C116.087 132.414 116.626 128.918 117.614 125.512L117.749 125.019H118.243C118.692 125.019 119.097 124.974 119.591 124.974C120.309 124.93 121.073 124.885 121.836 124.974C123.049 125.064 124.217 125.243 125.385 125.467C125.924 125.557 126.418 125.647 126.957 125.736C130.19 126.229 133.2 126.274 136.119 125.871C139.443 125.422 143.934 123.988 145.551 121.299C146.27 120.089 146.359 118.79 145.82 117.221C144.518 113.546 140.341 112.247 133.514 113.278L132.481 113.412C129.382 113.86 125.879 114.398 122.869 115.563L121.208 116.235L122.061 114.622C122.645 113.502 123.274 112.381 123.902 111.306C124.531 110.275 125.16 109.244 125.924 108.169L126.103 107.9L126.418 107.855C126.552 107.855 126.687 107.81 126.822 107.765C132.481 105.076 137.646 106.331 143.126 107.676C144.563 108.034 146.045 108.393 147.572 108.662C150.447 109.199 153.456 109.647 155.836 108.258C157.947 107.048 158.89 104.763 158.172 102.567C156.33 97.0096 148.605 96.0684 145.416 95.8892C143.754 95.7995 142.093 95.8892 140.521 96.0684L137.152 96.5166L140.116 94.8584C140.61 94.5895 141.105 94.3206 141.554 94.0069C142.946 93.2003 144.338 92.3936 145.776 91.6765C148.65 90.2425 151.569 89.0324 154.309 87.912C155.163 87.5535 156.061 87.195 157.004 86.8365C161.585 85.0887 166.795 83.1168 169.58 79.3075C171.062 77.246 171.466 74.5571 170.613 72.2267ZM117.794 82.3101C116.851 81.862 115.818 81.5035 114.92 81.1897L114.83 81.1449C112.584 80.3383 110.159 79.8901 107.599 79.7108C106.296 79.6212 104.994 79.7108 103.736 79.8005C102.613 79.8901 101.445 79.9349 100.278 79.9349C96.2802 79.8453 94.0345 78.8594 93.5853 77.0219C93.4057 76.1704 93.5404 75.3189 94.0794 74.6019C95.0226 73.3022 96.9988 72.5852 98.3912 72.4508C101.086 72.2267 103.871 72.9437 106.251 73.616C109.844 74.6467 113.348 76.2152 117.345 78.6353L117.525 78.7249L117.614 78.9042C117.974 79.7108 118.333 80.5623 118.692 81.4138L119.321 82.9824L117.794 82.3101ZM118.737 73.3471L117.525 76.6186L117.435 73.123C117.435 72.5852 117.435 72.0922 117.48 71.6441C117.749 69.0896 118.378 66.6248 119.366 64.1599C119.411 64.0255 124.441 52.1494 127.9 50.8498C128.573 50.6257 129.068 50.7601 129.337 50.8946C129.966 51.2083 130.37 51.7461 130.55 52.4183C131.223 54.7487 129.247 58.4236 129.023 58.8269C127.81 60.978 126.148 62.8603 124.576 64.6529L124.217 65.0562C122.241 67.4314 119.905 70.21 118.737 73.3471ZM116.132 120.045C115.683 121.21 115.234 122.42 114.83 123.675L114.56 124.526L113.797 124.033C112.225 122.958 110.114 122.285 108.093 121.613C105.488 120.807 102.838 119.91 100.996 118.162C99.7835 116.952 99.9182 115.877 100.098 115.339C100.457 114.308 101.58 113.546 103.062 113.412C105.038 113.233 107.149 113.905 108.946 114.667C111.776 115.787 113.976 117.58 115.908 119.372L116.267 119.686L116.132 120.045ZM131.089 115.518C131.493 115.473 131.987 115.384 132.526 115.339C136.119 114.801 142.093 113.905 143.665 117.894C143.979 118.7 143.934 119.507 143.575 120.224C142.632 122.017 139.802 122.913 138.23 123.271C136.478 123.675 134.682 123.854 132.84 123.854C131.942 123.854 131.044 123.809 130.145 123.72C128.888 123.585 127.54 123.271 126.103 122.958C123.947 122.465 121.747 121.972 119.725 122.061L118.692 122.106L119.052 121.165C119.456 120.045 119.905 119.014 120.399 117.983L120.534 117.714L120.803 117.625C123.723 116.639 126.867 116.011 131.089 115.518ZM122.106 98.0851C119.636 97.5025 116.761 97.6818 113.078 98.7574C112.359 98.9814 111.641 99.2055 110.967 99.4296C109.575 99.8778 108.093 100.371 106.61 100.64H106.521C105.847 100.774 104.724 100.998 103.646 100.998C102.344 100.998 101.131 100.684 100.727 99.6089C100.502 98.9814 100.547 98.3092 100.906 97.6818C102.389 94.9929 109.215 93.5588 110.024 93.3795C113.707 92.6177 117.075 93.0658 120.669 93.5588C121.118 93.6036 121.567 93.6932 122.016 93.738L122.51 93.7829L122.6 94.2758C122.78 95.2618 122.914 96.2925 123.049 97.3681L123.184 98.3092L122.106 98.0851ZM123.319 87.6432L122.78 85.8505L122.869 85.6265C123.094 85.1335 123.319 84.6405 123.498 84.1476C123.857 83.3409 124.217 82.4894 124.621 81.7275C125.879 79.3523 127.091 77.5149 128.394 75.9464C129.651 74.4674 131.313 72.63 133.424 71.42C134.457 70.8374 136.748 69.9859 138.14 70.927C138.634 71.2856 139.218 72.0026 138.994 73.5263C138.41 77.246 134.457 79.3971 131.268 81.1449C130.46 81.5931 129.741 81.9964 129.112 82.3998C126.957 83.7442 125.295 85.1335 124.082 86.6572L123.319 87.6432ZM144.608 97.6818C147.527 97.9059 149.773 98.3988 151.704 99.2503C152.782 99.7433 155.881 101.581 156.151 103.777C156.241 104.404 156.106 105.345 154.983 106.197C154.085 106.914 152.917 107.138 151.704 107.138C149.953 107.138 148.111 106.645 146.719 106.242C146.494 106.197 146.27 106.107 146.09 106.062C145.147 105.838 144.204 105.569 143.305 105.3C141.509 104.807 139.667 104.27 137.826 103.911C135.176 103.418 132.795 103.373 130.729 103.687L128.933 104.001L130.145 102.611C131.223 101.357 132.346 100.102 133.514 98.8918L133.649 98.7574L133.783 98.7125C136.883 97.6818 140.431 97.3681 144.608 97.6818ZM168.008 75.1397C167.424 78.5905 163.741 80.2486 161.046 81.5035L160.732 81.6379C158.441 82.7135 156.016 83.6546 153.725 84.5509C153.186 84.775 152.603 84.9991 152.064 85.2231C151.614 85.4024 151.12 85.5817 150.671 85.7609C149.189 86.3435 147.662 86.9261 146.18 87.5983L145.82 87.7328L145.506 87.5087C145.461 87.4639 145.416 87.4639 145.326 87.4191L144.293 87.195L144.922 86.3435C145.326 85.8057 145.686 85.2679 146.09 84.775C148.291 81.7723 150.581 78.6801 153.321 75.9464C155.702 73.5711 157.902 72.0922 160.238 71.1959C161.855 70.6133 165.089 70.21 166.93 71.7337C167.604 72.3611 168.322 73.3919 168.008 75.1397Z" fill="#001064"/>
<path d="M78.3144 121.301C80.9194 120.629 83.6592 119.912 86.1294 118.791C88.6446 117.671 91.8335 115.61 92.9564 112.069C93.8547 109.201 93.3157 106.198 91.4742 104.316C87.1625 99.9242 78.8533 103.151 72.6552 106.646C69.5112 108.394 66.7714 110.501 64.4808 112.876C63.358 114.041 61.9656 115.61 61.3817 117.178L60.8877 118.478L60.1691 117.313C59.2259 115.744 58.1928 114.22 57.0251 112.562C55.992 111.128 54.8692 109.649 53.6116 108.17L53.2523 107.767L53.6116 107.319C53.7014 107.184 53.8362 107.005 53.8811 106.826C55.0489 103.778 58.5971 102.837 61.4267 102.031C61.8309 101.941 62.2351 101.806 62.5944 101.717C64.391 101.179 66.2325 100.865 67.9841 100.552C69.8256 100.238 71.7569 99.8794 73.5535 99.3416C74.9009 98.9382 78.1796 97.5938 79.033 94.4567C79.6618 92.1711 78.494 89.5718 76.2483 88.1378C70.7239 84.5525 61.9656 89.6167 59.4055 91.23C57.0251 92.7537 55.0039 94.6808 53.5218 96.7871L51.1413 100.238L52.354 96.2045C52.6684 95.1289 53.0726 93.9638 53.5667 92.6193C54.3751 90.4233 55.3632 88.1378 56.4412 85.8522L56.531 85.6729L56.6658 85.5833C57.1149 85.2696 57.564 84.8662 58.0132 84.5077C58.5971 83.9699 59.2259 83.477 59.9445 83.0288C61.1572 82.267 62.5495 81.7292 64.3461 81.3258C67.1757 80.6536 70.0502 80.6088 72.8798 80.5192C73.4636 80.5192 74.0475 80.4743 74.6763 80.4743H74.9009C78.6737 80.3399 87.4319 80.1158 88.959 75.948L89.1387 75.4102L89.1836 74.7828C89.1836 74.4691 89.1836 74.1554 89.1387 73.8865C88.959 72.4076 88.2853 71.2872 87.1175 70.4357C83.6592 67.8812 77.0119 68.7775 75.0356 69.1361C71.9366 69.6738 68.8375 70.7494 66.0528 72.2283L63.4478 73.6624L65.1994 71.2424C66.457 69.5394 67.8045 67.7916 69.2866 66.0438L69.3765 65.9542L69.5112 65.9094C71.8467 64.7442 74.2721 64.7442 76.7873 64.789C77.3712 64.789 77.9551 64.789 78.5389 64.789C79.572 64.789 80.605 64.789 81.638 64.7442C84.1981 64.7442 86.893 64.7442 89.4531 64.5201C95.0673 64.0719 101.041 61.5175 100.996 55.6466C100.996 53.7644 100.367 52.3751 99.1096 51.4788C96.5944 49.6862 92.103 50.1792 89.0489 51.1651C88.5099 51.3444 87.8811 51.5685 87.2074 51.7925L83.4795 53.137L86.5786 50.6273C88.6895 48.9243 90.1268 47.4454 91.2946 45.8769C92.9564 43.5913 94.5733 39.782 94.0792 36.7346C93.8547 35.2557 93.181 34.1353 92.0581 33.2838C90.9802 32.5219 89.8124 32.2979 88.5548 32.5668C85.3659 33.2838 82.2668 37.0035 81.0092 39.2891C79.2576 42.4709 77.0119 51.2547 76.6076 55.2433L74.8111 56.5878L75.5297 53.4507C76.2034 50.4033 76.2932 47.311 75.7543 44.2636C75.4848 42.7847 75.1255 41.3506 74.7212 39.9613C72.9247 34.3594 70.8137 30.9086 68.3884 29.6986C67.2206 29.116 66.0528 29.0263 64.7054 29.4745C60.3487 30.9534 59.3157 35.9279 61.6063 44.6669C62.7292 48.9692 63.852 52.6888 65.1096 56.0948C65.2893 56.5878 65.4689 57.1256 65.6935 57.6633C66.2325 59.2319 66.8164 60.89 67.5799 62.3689L67.7596 62.7723L67.4452 63.1308C64.3461 66.5816 61.4267 70.5253 58.8216 74.8724L58.0581 76.1721L57.609 74.738C57.3395 73.8865 57.0251 72.9902 56.6658 72.0939L56.6208 71.9146C56.5759 71.5113 56.3963 71.1528 56.1717 70.8839L56.1268 70.7942L56.0819 70.7046C55.8573 70.2116 55.6327 69.7187 55.3633 69.2705L55.2734 69.0464L55.3183 68.8224C56.3064 64.4305 56.2615 59.0974 55.1836 52.5096C54.5997 49.014 53.7913 45.7873 52.7133 42.9191C51.8599 40.6783 50.8269 38.3927 48.9405 37.0483C47.2787 35.8831 45.3923 35.659 43.5957 36.4657C41.395 37.4516 39.778 39.782 39.5535 42.2917C39.284 45.1599 40.4518 47.9384 41.5746 50.5825L41.7992 51.1203C41.9788 51.5685 42.1585 52.0166 42.3831 52.5096L43.2364 54.6159L41.35 53.2714C40.1374 52.4199 38.8798 51.6133 37.6222 50.941L37.2179 50.717L37.3078 50.224C37.7569 47.804 37.3078 44.9806 36.9035 42.5158C36.8586 42.2021 36.8137 41.8883 36.7239 41.5298C36.14 37.8102 35.2866 34.3146 34.2087 31.1327C32.6816 27.0545 29.4478 20.0633 23.609 21.0492C21.498 21.4077 19.7014 23.0659 18.9379 25.3963C18.1744 27.7267 18.6684 30.5501 20.465 33.732C21.498 35.5246 22.7107 37.2724 23.9234 38.9753C25.5852 41.3057 27.2919 43.7706 28.5046 46.4147L29.0436 47.6247L27.7411 47.3558C26.9775 47.1766 26.3487 47.0869 25.7199 46.9973C25.4954 46.9525 25.3157 46.9973 25.136 47.0421L24.9564 47.0869L24.7767 47.0421C20.465 45.7873 15.7041 45.5632 11.3474 46.4147C7.8441 47.1317 3.30777 49.5518 1.8256 52.6888C1.06206 54.3022 1.15189 55.9604 2.05018 57.6185C4.92468 62.8619 11.6169 61.2934 16.9617 59.9937C17.86 59.7697 18.7133 59.5904 19.5218 59.4111C20.4201 59.2319 21.3633 59.0078 22.3064 58.8285C33.4901 56.543 37.0832 56.9911 40.8111 57.8874C41.2153 57.977 41.2602 58.47 40.856 58.5596L36.9035 58.47C35.1968 58.4252 33.4901 58.6493 31.8732 59.1422C27.3817 60.5763 25.2259 63.579 24.7767 66.2679C24.4174 68.2846 24.9115 70.1668 26.214 71.7354C27.9207 73.7969 30.885 75.0517 33.8494 75.0517C33.8943 75.0517 33.8943 75.0517 33.9392 75.0517C35.9603 75.0517 37.8467 74.6035 39.9128 74.1106C41.2602 73.7969 42.6975 73.4831 44.1347 73.3039C46.6499 72.9902 49.0304 73.2143 51.3659 73.4383C52.4887 73.528 53.6116 73.6624 54.7794 73.7072H55.1836L55.3633 74.0657C55.9022 75.1861 56.3963 76.3513 56.9352 77.6062L57.07 77.9199L56.9352 78.1888C56.4861 78.9954 56.1268 79.6677 55.8124 80.2951C52.2193 87.3759 49.0304 94.9049 49.6142 102.075L49.749 103.778L48.4914 102.658C47.5482 101.806 46.5601 101 45.6169 100.238L44.9881 99.7449L45.5271 99.2071C45.7067 99.0279 45.8415 98.759 45.8415 98.4901C45.9313 95.9804 46.6948 93.65 47.3685 91.3645C48.1321 88.9444 48.8507 86.6589 48.8507 84.2388C48.8507 82.3118 48.1321 80.788 46.7846 79.8917C45.3923 78.9506 43.5508 78.861 41.6195 79.6228C38.1611 81.0121 35.9603 84.8214 36.2298 88.8548C36.3197 90.4682 36.7239 92.0367 37.4425 93.6949L38.2061 95.3978L36.5442 94.5912C35.6909 94.1878 34.8375 93.7845 33.8494 93.3812L33.7146 93.3363L33.6248 93.2019C30.7952 89.8407 27.6961 86.5692 24.6869 83.4321C23.07 81.7292 21.4082 79.9814 19.8362 78.2336C12.2906 70.0324 7.93393 69.9427 4.65519 70.9287C2.09509 71.7353 0.298524 73.6624 0.0290393 75.9032C-0.195531 78.1888 0.882408 80.788 3.26286 83.6562C7.12547 88.2274 13.1889 90.4682 19.1625 92.216C21.8573 93.0226 24.5971 93.7845 27.247 94.5015L32.5469 95.9356L27.0673 95.846C19.5667 95.7116 12.4703 97.549 7.61953 100.91C5.55348 102.344 2.99337 104.764 2.58914 108.215C2.22983 111.083 3.62217 114.086 6.13736 115.923C10.9432 119.419 15.6592 116.327 20.2853 113.324C21.5878 112.472 22.8454 111.666 24.103 110.994C32.2325 106.691 40.8111 105.929 48.9854 108.753C49.0304 108.753 49.1202 108.798 49.1651 108.798L49.3448 108.842L49.4795 108.977C51.1862 110.769 52.7582 112.607 54.1506 114.534C55.4082 116.282 56.531 117.895 57.4742 119.419L59.0013 121.794L56.5759 120.36C52.0396 117.671 47.099 115.923 42.3831 115.296C37.8467 114.713 31.8732 114.937 28.8639 117.447C27.5614 118.523 26.8428 119.912 26.7529 121.704C26.5733 124.438 28.0555 127.082 30.5257 128.606C33.6248 130.533 37.4874 130.309 40.856 129.861C48.8956 128.785 57.1149 128.472 62.7741 133.491C62.9987 133.67 63.2232 133.805 63.4478 133.894L63.7173 133.984L63.8969 134.387V134.477C64.1664 135.911 64.3012 137.345 64.4359 138.734C64.5706 140.034 64.7054 141.378 64.93 142.678C65.0198 143.126 65.424 143.171 65.6037 143.171C65.9181 143.171 66.3672 143.037 66.457 142.633C67.4901 138.465 67.2206 133.805 65.6037 128.74L65.5138 128.427L65.6935 128.158C65.7384 128.113 65.7384 128.068 65.7833 128.023C67.8943 124.169 71.9815 123.004 75.2602 122.063C76.2932 121.794 77.3263 121.525 78.3144 121.301ZM78.8533 52.1959C78.9432 51.7925 79.033 51.434 79.0779 51.0307C79.5271 48.7003 80.0211 46.2802 80.9194 43.9947C81.8177 41.6195 83.0304 39.5131 84.3778 37.8998C85.1862 36.9138 87.7463 34.449 89.7226 34.7179C90.2615 34.7627 90.9352 35.0316 91.4293 35.9727C93.8098 40.6783 88.2853 46.1458 86.5337 47.7143C85.5006 48.6106 84.3329 49.4621 83.21 50.3136C82.0872 51.1203 80.9194 51.9718 79.9313 52.8681L78.4042 54.2126L78.8533 52.1959ZM74.4518 60.1282C78.1796 57.8874 82.5363 55.3778 87.4319 53.7644C87.7014 53.6748 88.0158 53.5851 88.2853 53.4955C90.5759 52.7337 93.181 51.8373 95.6512 52.2407C97.0885 52.4648 98.1215 53.2714 98.5257 54.4814C99.0198 55.9604 98.4808 57.8426 97.1783 59.1871C95.2021 61.2486 92.0581 61.6967 89.5429 61.8312C88.5548 61.876 87.5218 61.9208 86.4887 61.9208C85.2312 61.9208 83.9286 61.876 82.6711 61.876C81.8177 61.876 81.0092 61.8312 80.1559 61.8312C79.4821 61.8312 78.7186 61.7863 77.9551 61.7415C76.922 61.6967 75.7543 61.6071 74.5865 61.6071H73.0594L74.2721 60.2626L74.4518 60.1282ZM67.4452 58.1563C66.5918 55.1537 65.7833 52.1511 65.1994 49.8655C64.5706 47.311 63.8071 44.3532 63.3131 41.4402C62.9088 39.1098 62.2351 35.2109 64.391 32.9701C65.2444 32.0738 66.0528 32.0738 66.6367 32.2082C70.0053 33.1494 72.3857 43.188 72.4306 43.2776C73.0145 45.7873 73.284 48.4314 73.1942 51.0755C73.1492 52.5096 72.9247 53.8988 72.7001 55.2433C72.5654 56.1396 72.3857 57.0359 72.2959 57.9322L72.251 58.2011L72.0713 58.3804C71.173 59.1871 70.2298 60.0834 69.3315 60.9797L68.5231 61.7863L68.2087 60.7108C68.1189 60.3971 68.029 60.1282 67.9392 59.8145C67.8045 59.2767 67.6248 58.6941 67.4452 58.1563ZM60.8877 77.6958C61.2919 77.0236 61.7411 76.3513 62.1902 75.5895L62.28 75.455L62.4148 75.3654C66.1876 73.2143 69.7807 71.9594 73.6433 71.2872C76.5178 70.7942 79.3025 70.7046 81.9075 70.9287C83.1202 71.0631 86.3091 71.332 86.8481 73.6624C86.9828 74.2002 86.893 74.738 86.6235 75.1861C85.9498 76.3065 84.243 76.665 83.1202 76.9339L82.8507 76.9787C79.6618 77.7406 76.3831 77.651 73.1942 77.5613C70.7239 77.5165 68.1189 77.4269 65.6486 77.7854C64.2562 77.9647 62.8639 78.2784 61.6063 78.6817L59.8996 79.2195L60.8877 77.6958ZM26.9775 37.0931L26.4835 36.3761C25.3157 34.7179 24.0581 32.9701 23.1149 31.1327C22.6208 30.1915 21.5878 27.413 22.531 25.71C22.8903 25.0378 23.564 24.5896 24.3725 24.5C26.708 24.2311 28.5944 26.7856 29.8071 28.9815C30.93 31.0879 31.6935 33.3734 32.4121 35.5694L32.5469 35.9279C33.4002 38.5272 34.1189 41.2609 34.7028 43.9947C34.8375 44.6669 34.9722 45.3839 35.107 46.101C35.2866 46.9973 35.4214 47.9384 35.6459 48.8347L35.9603 50.1792L34.7028 49.6414C34.2985 49.4621 33.8943 49.2829 33.4901 49.1036L33.1757 48.9692L33.0858 48.6555C32.0079 44.4428 29.6724 40.9024 26.9775 37.0931ZM33.2206 53.7196C31.0647 53.854 28.9088 54.1677 26.3487 54.6159C23.6539 55.1089 21.0039 55.6018 18.4887 56.0948C17.5905 56.2741 16.6473 56.4981 15.749 56.7222C13.7278 57.2152 11.6618 57.753 9.59575 57.8426C9.50592 57.8426 9.41609 57.8426 9.32626 57.8426C7.70936 57.8426 5.82296 57.2152 5.14925 55.9155C4.83485 55.2881 4.65519 54.3022 5.64331 53.0025C7.48479 50.6273 10.7186 49.731 12.9643 49.2829C16.3778 48.5658 20.0158 48.5658 24.3725 49.1932H24.4623L24.5522 49.2381C24.642 49.2829 24.7767 49.3277 24.8666 49.3725C27.8758 50.1792 30.7503 51.2099 33.4002 52.3751L35.9154 53.4955L33.2206 53.7196ZM51.5905 69.4498C48.5812 69.0912 44.9881 69.3601 40.9009 70.2116C40.4967 70.3013 40.0026 70.4357 39.5086 70.5701C37.8467 70.9735 35.6459 71.5561 33.5799 71.5561C31.3791 71.5561 29.358 70.8839 28.4597 68.7327C27.7411 67.0297 28.5495 64.4305 31.9181 62.8171C34.1638 61.7415 36.5891 61.4726 38.251 61.4278C42.1136 61.3382 45.9313 62.5034 49.6592 64.8786L49.749 64.9234L49.8388 65.0131C50.6922 66.1334 51.5006 67.2986 52.3091 68.5086L53.0726 69.7187L51.5905 69.4498ZM52.7582 65.0131C51.7701 63.579 50.6922 62.1897 49.4795 60.8004L49.2998 60.6211V60.3523C49.2998 60.173 49.2549 59.9937 49.21 59.8145C48.4465 57.6185 47.4584 55.4226 46.4703 53.3162C45.3923 51.0307 44.3144 48.6106 43.5059 46.1458C42.2034 42.1124 43.4161 40.4991 44.6288 39.8268C45.1677 39.5131 45.7516 39.4683 46.2906 39.6476C47.6829 40.0957 48.5363 41.8435 49.0304 42.9191C50.9167 46.818 52.3091 51.2547 53.2074 56.1396C53.7463 59.0974 53.8362 61.9656 53.926 64.6545L53.9709 66.8953L52.7582 65.0131ZM22.8903 89.8407C22.1268 89.5718 21.3183 89.3478 20.5099 89.0789C15.0304 87.3311 8.83221 85.3592 5.32891 80.3399L5.28399 80.2503C4.47554 79.0851 3.12811 77.2028 3.93657 75.6791C5.05942 73.5728 8.60764 74.4243 9.01187 74.5139C12.2008 75.3206 14.4914 77.875 16.5125 80.071L16.9168 80.5192C18.6235 82.4014 20.3751 84.3285 22.037 86.2107C22.8903 87.1518 23.6988 88.0929 24.5522 89.0341L26.2589 90.9163L22.8903 89.8407ZM42.7873 81.8636C44.0449 81.4603 44.9881 81.5947 45.6169 82.2221C46.9643 83.6114 46.1559 86.8381 45.1677 89.8407L44.9881 90.4233C44.2695 92.5745 43.5957 94.5912 43.5508 96.7423L43.5059 97.8627L42.5178 97.3249C41.9339 97.0112 41.35 96.6975 40.7662 96.4286L40.5865 96.339L40.4967 96.1597C39.4636 94.2775 38.8349 92.5297 38.5654 90.8715C37.8917 87.2415 39.1493 82.984 42.7873 81.8636ZM41.4848 103.689C38.8349 103.509 36.0502 103.689 33.2206 104.226C26.7979 105.436 21.4082 108.574 16.6024 111.8C15.2998 112.652 13.0991 114.131 10.8084 114.131C9.73049 114.131 8.65255 113.817 7.61953 112.921C6.49667 111.935 5.91279 110.725 5.86788 109.38C5.82296 107.767 6.63142 106.064 8.02375 104.719C12.5601 100.372 19.9709 98.9831 25.4055 98.6245C29.358 98.3557 33.4452 98.6694 37.4425 99.6105L37.5323 99.6553L37.6222 99.7001C39.0594 100.596 40.4967 101.493 41.8441 102.479L43.7305 103.868L41.4848 103.689ZM53.5667 100.417C55.3183 97.3697 58.0132 94.8152 61.2919 92.933C63.5825 91.6334 66.0977 90.6922 68.8375 90.02C69.0172 89.9752 73.284 88.9893 75.35 90.737C76.0687 91.3196 76.428 92.1711 76.3831 93.2019C76.2034 96.2493 72.2061 96.7423 69.8256 97.056C69.5561 97.1008 69.2866 97.1456 69.0621 97.1456C66.0079 97.5938 63.0436 98.266 60.3038 99.1175C58.8666 99.5657 56.4861 100.283 54.5099 101.358L52.3989 102.523L53.5667 100.417ZM60.6182 127.575C57.7437 126.41 54.3751 126.007 51.4557 125.738C48.6261 125.514 45.6618 125.603 42.3382 126.052C41.9788 126.096 41.5746 126.186 41.1704 126.231C38.251 126.679 34.9273 127.172 32.2774 125.514C31.0198 124.752 29.852 123.139 30.2563 121.48C30.6605 119.688 32.7265 119.15 33.5799 118.881C36.2298 118.119 39.284 117.94 42.5627 118.298C48.716 118.926 54.0158 121.391 60.3038 124.483L60.5284 124.573L60.6182 124.797C60.9326 125.424 61.2021 126.052 61.5165 126.679L62.1902 128.203L60.6182 127.575ZM64.3461 123.049L63.6724 123.721L63.2681 122.87C62.8639 122.063 62.4148 121.211 61.9656 120.36L61.8309 120.091L61.9207 119.822C62.9537 116.775 66.0528 114.489 68.074 112.965C70.4095 111.218 72.9696 109.784 75.7543 108.618C82.4465 105.795 86.6684 105.168 88.5997 106.646C89.5429 107.364 89.9022 108.484 89.6777 109.963C89.0039 115.117 81.9973 116.595 77.3263 117.626C76.4729 117.806 75.6644 117.985 74.9907 118.164C72.2959 118.836 67.1757 120.181 64.3461 123.049Z" fill="#001064"/>
<path d="M27.9685 151.66L23.2269 144.547L22.0414 146.918L16.1144 155.217L9.00195 158.181L17.8925 164.108L22.0414 171.814L26.1904 164.108L35.6736 158.181L35.0809 156.402L27.9685 151.66Z" fill="white"/>
<path d="M42.8384 157.692C41.7939 156.906 40.0744 156.938 38.7889 156.576C37.3747 156.168 36.0088 155.649 34.7232 154.989C32.0878 153.637 29.7738 151.798 28.0061 149.581C26.1902 147.302 24.9528 144.583 24.3904 141.816C24.3743 141.706 24.3422 141.58 24.3261 141.47C24.8404 138.704 24.9528 135.89 24.535 133.265C24.294 131.693 21.53 131.709 21.4014 133.328C21.3693 133.674 21.3532 134.019 21.3693 134.365C21.3693 134.491 21.3854 134.601 21.4175 134.711C21.4496 136.912 21.4657 139.081 21.0961 141.297C20.6462 144.001 19.8105 146.673 18.6214 149.188C17.5929 151.373 16.1949 153.48 14.154 155.02C11.9042 156.718 9.23668 157.299 6.3602 157.331C5.44423 157.347 5.05855 158.4 5.95846 158.777C6.76194 159.107 7.5815 159.296 8.36891 159.359C8.77065 159.61 9.15633 159.846 9.62235 160.05C10.5062 160.443 11.3579 160.852 12.1614 161.371C13.8005 162.392 15.2467 163.65 16.4198 165.096C18.9428 168.224 20.0034 172.232 19.5695 176.052C19.4731 176.917 20.0998 177.451 20.8229 177.593C21.6103 178.882 23.8762 178.426 23.7476 176.744C23.3941 172.06 24.6636 167.47 28.5203 164.106C30.288 162.565 32.361 161.465 34.6589 160.695C36.1534 160.176 37.7122 159.972 39.2549 159.736C40.4119 160.035 41.6332 160.207 42.6134 159.799C43.5776 159.39 43.6098 158.258 42.8384 157.692ZM33.8394 158.038C30.9951 158.824 28.3114 160.302 26.2223 162.204C24.3743 163.886 22.8638 165.976 21.8353 168.24C21.2086 166.605 20.3087 165.033 19.1356 163.603C17.7697 161.921 16.0181 160.443 14.0737 159.311C13.6398 159.06 13.1898 158.824 12.7238 158.588C16.0502 157.221 18.8946 154.234 20.4694 151.593C21.4175 150.006 22.2371 148.261 22.912 146.453C23.5387 148.009 24.3583 149.503 25.3867 150.902C27.2829 153.48 29.9023 155.68 32.8431 157.252C33.277 157.488 33.7269 157.708 34.1769 157.912C34.0804 157.975 33.9679 158.007 33.8394 158.038Z" fill="#001064"/>
</svg>
