<svg width="243" height="318" viewBox="0 0 243 318" fill="none" xmlns="http://www.w3.org/2000/svg">
<path d="M27.2436 19.0535L22.6358 12.125L21.4839 14.4345L15.7242 22.5178L8.8125 25.4047L17.4521 31.1784L21.4839 38.6843L25.5157 31.1784L34.7313 25.4047L34.1553 23.6725L27.2436 19.0535Z" fill="white"/>
<path d="M41.6931 24.9283C40.678 24.1628 39.0071 24.1934 37.7578 23.8412C36.3836 23.4431 35.0562 22.9379 33.807 22.2948C31.2459 20.9781 28.9972 19.1867 27.2794 17.0279C25.5148 14.8078 24.3124 12.159 23.7658 9.46426C23.7502 9.35708 23.719 9.23459 23.7034 9.12741C24.2031 6.43269 24.3124 3.69203 23.9064 1.1351C23.6721 -0.395994 20.9862 -0.380683 20.8612 1.19634C20.83 1.53319 20.8144 1.87003 20.83 2.20687C20.83 2.32935 20.8456 2.43653 20.8768 2.54371C20.9081 4.68724 20.9237 6.80015 20.5645 8.95899C20.1273 11.5925 19.3152 14.1953 18.1597 16.6451C17.1602 18.7733 15.8016 20.825 13.8184 22.3255C11.6321 23.979 9.03986 24.5455 6.24458 24.5762C5.35447 24.5915 4.97968 25.6173 5.85418 25.9848C6.63499 26.3063 7.43141 26.49 8.19659 26.5513C8.587 26.7962 8.96178 27.0259 9.41465 27.225C10.2735 27.6077 11.1012 28.0058 11.882 28.5111C13.4748 29.5063 14.8803 30.7312 16.0202 32.1398C18.472 35.1866 19.5026 39.0909 19.081 42.8115C18.9873 43.6536 19.5963 44.1742 20.2991 44.312C21.0642 45.5675 23.2661 45.1235 23.1412 43.4852C22.7976 38.9225 24.0313 34.4517 27.7792 31.1752C29.4969 29.6747 31.5114 28.6029 33.7445 27.8527C35.1968 27.3474 36.7115 27.1484 38.2107 26.9187C39.335 27.2096 40.5219 27.3781 41.4744 26.98C42.4114 26.5819 42.4426 25.4795 41.6931 24.9283ZM32.9481 25.2652C30.184 26.0307 27.5761 27.4699 25.5461 29.3226C23.7502 30.9608 22.2823 32.9972 21.2829 35.202C20.6738 33.6096 19.7993 32.0785 18.6594 30.6852C17.332 29.047 15.6298 27.6077 13.7403 26.5053C13.3187 26.2604 12.8814 26.0307 12.4286 25.801C15.6611 24.469 18.4251 21.5599 19.9555 18.9877C20.8769 17.4413 21.6733 15.7417 22.3291 13.981C22.9382 15.4968 23.7346 16.9513 24.734 18.314C26.5767 20.825 29.1221 22.9685 31.9799 24.4996C32.4015 24.7293 32.8388 24.9436 33.276 25.1427C33.1823 25.2039 33.073 25.2345 32.9481 25.2652Z" fill="#001064"/>
<path d="M226.049 63.6277L221.442 56.6992L220.29 59.0087L214.53 67.092L207.618 69.9789L216.258 75.7527L220.29 83.2586L224.321 75.7527L233.537 69.9789L232.961 68.2468L226.049 63.6277Z" fill="white"/>
<path d="M240.498 69.5025C239.483 68.737 237.812 68.7676 236.563 68.4155C235.188 68.0174 233.861 67.5121 232.612 66.869C230.051 65.5523 227.802 63.7609 226.084 61.6021C224.32 59.382 223.117 56.7332 222.571 54.0385C222.555 53.9313 222.524 53.8088 222.508 53.7016C223.008 51.0069 223.117 48.2662 222.711 45.7093C222.477 44.1782 219.791 44.1935 219.666 45.7706C219.635 46.1074 219.619 46.4442 219.635 46.7811C219.635 46.9036 219.65 47.0107 219.682 47.1179C219.713 49.2615 219.728 51.3744 219.369 53.5332C218.932 56.1667 218.12 58.7696 216.964 61.2193C215.965 63.3475 214.606 65.3992 212.623 66.8997C210.437 68.5533 207.845 69.1198 205.049 69.1504C204.159 69.1657 203.784 70.1915 204.659 70.559C205.44 70.8805 206.236 71.0642 207.001 71.1255C207.392 71.3705 207.766 71.6001 208.219 71.7992C209.078 72.1819 209.906 72.58 210.687 73.0853C212.28 74.0805 213.685 75.3054 214.825 76.714C217.277 79.7609 218.307 83.6652 217.886 87.3857C217.792 88.2278 218.401 88.7484 219.104 88.8862C219.869 90.1417 222.071 89.6977 221.946 88.0594C221.602 83.4967 222.836 79.0259 226.584 75.7494C228.302 74.2489 230.316 73.1772 232.549 72.4269C234.001 71.9217 235.516 71.7226 237.015 71.493C238.14 71.7839 239.327 71.9523 240.279 71.5542C241.216 71.1561 241.247 70.0537 240.498 69.5025ZM231.753 69.8394C228.989 70.6049 226.381 72.0441 224.351 73.8968C222.555 75.535 221.087 77.5714 220.088 79.7762C219.479 78.1838 218.604 76.6527 217.464 75.2594C216.137 73.6212 214.435 72.1819 212.545 71.0796C212.123 70.8346 211.686 70.6049 211.233 70.3753C214.466 69.0432 217.23 66.1341 218.76 63.5619C219.682 62.0155 220.478 60.316 221.134 58.5552C221.743 60.071 222.539 61.5255 223.539 62.8882C225.381 65.3992 227.927 67.5427 230.785 69.0738C231.206 69.3035 231.643 69.5178 232.081 69.7169C231.987 69.7781 231.878 69.8087 231.753 69.8394Z" fill="#001064"/>
<path fill-rule="evenodd" clip-rule="evenodd" d="M106.551 4.37336C105.4 4.52331 104.337 5.02212 103.169 5.39949C102.472 5.58042 102.317 6.14122 102.494 6.83897C102.659 9.25008 103.749 11.4958 104.49 13.8319C105.53 16.7598 107.024 19.7187 108.413 22.5562C108.906 23.6183 109.359 23.6493 110.301 23.2564C113.141 21.8504 113.141 21.8504 111.979 19.0285C110.131 14.6741 108.526 10.1078 107.027 5.66289C106.834 5.19256 106.64 4.72223 106.551 4.37336Z" fill="#001064"/>
<path fill-rule="evenodd" clip-rule="evenodd" d="M140.988 4.22991C140.986 3.72111 141.19 3.61919 141.649 3.77149C141.802 3.82226 142.159 3.77111 142.312 3.82188C145.219 4.27764 145.372 4.3284 145.128 7.12703C144.687 11.554 144.042 16.0829 143.6 20.5098C143.552 21.1713 143.298 21.4259 142.788 21.4263C141.31 21.2748 139.78 21.2759 138.302 21.1244C137.639 21.074 137.536 20.8705 137.584 20.209C138.634 14.9675 139.684 9.72601 140.684 4.63718C140.887 4.53527 140.938 4.38259 140.988 4.22991Z" fill="#001064"/>
<path fill-rule="evenodd" clip-rule="evenodd" d="M177.024 27.4256C175.049 30.8361 172.513 33.8908 170.129 36.9963C170.079 37.149 169.775 37.5563 169.621 37.5055C168.294 36.8959 167.677 35.6752 166.604 34.811C165.939 34.2519 166.6 33.7934 166.904 33.3862C169.338 30.128 171.772 26.8698 174.053 23.5608C174.611 22.899 174.967 22.8478 175.632 23.407C175.735 23.6105 176.041 23.712 176.194 23.7628C178.086 25.2369 178.086 25.2369 177.024 27.4256Z" fill="#001064"/>
<path d="M64.4029 37.1484L10.4051 73.7654L5.64062 159.736V170.349L92.9899 177.248L107.813 173.003L113.107 83.8483L64.4029 37.1484Z" fill="#FFE2DC"/>
<path d="M9.76652 77.0466C9.04985 89.4806 8.65894 101.915 8.52864 114.349C8.46349 120.599 8.46349 126.783 8.46349 133.033V151.717L8.39833 161.059V163.361V164.546V164.809C8.39833 164.94 8.39833 164.874 8.39833 164.94C8.39833 165.006 8.39833 165.072 8.39833 165.072C8.46349 165.467 8.78924 165.796 9.115 165.993C9.31046 166.059 9.44076 166.059 9.63621 166.059L11.7862 166.124L16.412 166.322L25.6635 166.782C37.9771 167.506 50.2256 168.427 62.5392 169.611C87.1014 171.98 111.533 175.269 136.095 177.309C148.344 178.361 160.657 179.151 172.971 179.809L182.223 180.269L186.848 180.466H187.435H187.826C188.086 180.466 188.282 180.401 188.542 180.335C188.998 180.203 189.389 179.94 189.715 179.611C190.041 179.282 190.301 178.887 190.432 178.493C190.497 178.295 190.562 178.032 190.562 177.835C190.562 177.703 190.562 177.637 190.562 177.506C190.562 177.44 190.562 177.374 190.562 177.243V176.98L190.627 172.309L190.692 162.967L190.823 144.283L190.888 134.941L191.018 125.599C191.214 113.165 191.539 100.73 191.865 88.2964L191.93 86.257C191.93 86.1912 191.865 86.1254 191.865 86.0596L191.8 85.9938C191.8 85.9938 191.8 85.9938 191.735 85.9938L191.409 85.7307L189.65 84.2175L182.679 78.0992L168.736 65.8625C164.11 61.7836 159.485 57.6389 154.924 53.4942C152.644 51.4548 150.364 49.3495 148.083 47.2443L147.953 47.1785L146.91 47.1127L142.285 46.7838C136.16 46.3232 129.971 45.8627 123.847 45.3364C117.723 44.8101 111.533 44.3496 105.409 43.7575C93.1605 42.6391 80.912 41.1917 68.6635 39.6786L64.1029 39.0865L63.7771 39.0207C63.712 39.0207 63.5817 39.0207 63.5165 39.0207C63.3211 39.0207 63.1908 39.0207 62.9953 39.0865C62.7999 39.1523 62.6696 39.2181 62.5392 39.2838C62.4741 39.2838 62.2786 39.4154 62.1483 39.547L61.6923 39.8759L53.9393 44.8101C48.7271 48.1653 43.5802 51.5863 38.4332 55.0073C33.2862 58.4284 28.1392 61.9152 23.0574 65.4678C20.5165 67.244 17.9756 69.0203 15.4999 70.7966L11.7211 73.494C10.6135 74.2834 9.83167 75.665 9.76652 77.0466ZM8.78924 76.9808C8.8544 75.2703 9.76652 73.6255 11.1347 72.6387L14.8483 69.8756C17.3241 68.0335 19.7999 66.1914 22.2105 64.2836C27.0968 60.5336 31.9832 56.7179 36.8044 52.8363C41.6256 48.9548 46.4468 45.0733 51.268 41.1259L58.4347 35.2707L58.8908 34.876C59.0211 34.7444 59.1514 34.6786 59.412 34.4155C59.868 34.0865 60.4544 33.7576 60.9756 33.5602C61.562 33.2971 62.0832 33.1655 62.7347 33.0339C63.0605 32.9681 63.3211 32.9681 63.6468 32.9023C63.7771 32.9023 63.9726 32.9023 64.1029 32.9023H64.4938L69.1196 32.9681C81.4332 33.1655 93.812 33.4287 106.126 34.0208C112.25 34.2839 118.439 34.6786 124.564 35.0076C130.688 35.3365 136.877 35.7313 143.001 36.126L147.627 36.4549L148.865 36.5207C149.647 36.5865 150.429 36.7181 151.145 36.9812C151.862 37.2444 152.579 37.5733 153.295 37.9681C153.621 38.1654 153.947 38.3628 154.273 38.626C154.403 38.7575 154.598 38.8891 154.729 39.0207L155.054 39.2838C157.335 41.3891 159.615 43.4285 161.895 45.5338C166.456 49.7443 171.017 53.8889 175.512 58.1652L189.063 70.7966L195.839 77.1781L197.533 78.7571L198.054 79.2834C198.315 79.5465 198.576 79.8097 198.771 80.1386C199.227 80.7307 199.618 81.3228 199.944 82.0465C200.595 83.3623 200.921 84.8754 200.986 86.3228V86.8491V87.1122V87.7043L200.921 88.8885C200.204 101.323 199.553 113.757 198.706 126.125L198.054 135.467L197.338 144.809L195.904 163.427L195.188 172.769L194.862 177.44V177.703C194.862 177.769 194.862 177.901 194.862 178.032C194.797 178.295 194.797 178.559 194.732 178.822C194.601 179.348 194.471 179.874 194.21 180.401C193.754 181.387 193.103 182.309 192.256 183.032C191.409 183.756 190.432 184.216 189.389 184.48C188.868 184.611 188.347 184.677 187.826 184.677C187.565 184.677 187.304 184.677 187.044 184.677L186.457 184.611L181.832 184.151L172.645 183.361C160.397 182.309 148.083 181.387 135.77 180.664C111.142 179.216 86.4499 179.085 61.8226 177.966C49.5089 177.44 37.1953 176.651 24.9468 175.598L15.7605 174.809L11.1347 174.348L9.96197 174.216L9.37561 174.151C9.18015 174.151 9.04985 174.151 8.65894 174.085C7.29076 173.888 5.98773 173.427 4.88015 172.638C2.59985 171.124 1.10136 168.559 0.905909 165.861C0.905909 165.532 0.840758 165.203 0.905909 164.874C0.905909 164.743 0.905909 164.48 0.905909 164.414V164.151L1.03621 162.967L1.29682 160.664L2.20894 151.388L4.16349 132.835C4.815 126.651 5.46652 120.467 6.05288 114.217C7.22561 101.849 8.13773 89.4148 8.78924 76.9808Z" fill="#001064"/>
<path d="M193.352 238.53L185.111 235.199L180.785 233.788L168.457 231.348L158.618 230.511L151.63 230.308L140.968 230.488L121.987 231.069L101.168 231.842L74.9611 229.917L53.7125 226.545L39.7675 221.946L30.0053 217.377L22.3971 211.186L20.1772 207.693L19.9862 205.851L22.6474 204.643L27.7491 204.576L38.7464 207.62L33.6743 203.493L24.0372 195.652L23.3389 193.397L23.9713 190.538L29.8964 189.455L35.8693 188.833L56.0738 195.573L79.6855 203.82L90.4917 205.022L99.7285 204.525L107.539 203.711L120.213 200.528L134.026 194.899L133.835 193.056L130.792 190.58L124.58 188.9L118.512 188.601L106.882 188.416L98.4208 187.436L85.0308 183.71L82.2559 179.344L83.2522 175.515L89.3979 172.082L99.5537 171.489L113.337 170.053L124.949 165.584L147.319 161.856L160.47 163.279L185.43 175.576L205.576 190.702L212.945 194.589L222.582 202.43L215.094 215.315L206.783 229.216L196.3 240.085L193.352 238.53Z" fill="white"/>
<path d="M33.2593 205.263C33.7339 205.418 34.2082 205.572 34.6838 205.726C30.6834 203.243 26.7261 200.385 23.9015 196.736L23.8992 196.733C22.9643 195.487 22.5963 194.284 22.6925 193.171C22.7885 192.06 23.3446 191.074 24.189 190.256L24.2883 190.16L24.3817 190.183C24.3883 190.178 24.3962 190.172 24.4056 190.164C24.4245 190.149 24.4385 190.136 24.4552 190.121C24.4695 190.109 24.4859 190.094 24.509 190.074C24.5473 190.042 24.5943 190.004 24.6486 189.97C25.394 189.397 26.2405 189.006 27.207 188.655L27.2082 188.654C31.034 187.286 35.5909 187.767 40.0217 188.855C43.2146 189.639 46.373 190.749 49.169 191.731C50.253 192.111 51.2825 192.473 52.2383 192.789L52.2386 192.789C55.1184 193.745 57.9872 194.776 60.8589 195.807C65.6085 197.513 70.3661 199.223 75.1944 200.602C82.9291 202.812 90.7999 204.162 98.994 203.268L98.9942 203.268C110.588 202.008 122.212 198.331 133.12 194.158C130.458 191.731 126.68 190.695 122.676 190.282C119.523 189.956 116.264 190.018 113.337 190.074C112.41 190.092 111.517 190.109 110.67 190.113L110.669 190.113C103.528 190.112 96.5952 189.957 89.8521 187.196C88.1573 186.524 85.3688 185.341 83.3051 183.675C82.2723 182.841 81.4026 181.871 80.9508 180.764C80.4948 179.647 80.4719 178.408 81.1053 177.068C82.6912 173.639 85.513 171.812 88.7513 170.811C91.9617 169.818 95.6048 169.63 98.8986 169.494C99.0597 169.411 99.2531 169.366 99.444 169.356C99.6419 169.346 99.8556 169.373 100.049 169.452C100.193 169.451 100.332 169.448 100.468 169.444C100.833 169.436 101.175 169.428 101.535 169.462C106.606 169.291 111.582 168.135 116.541 166.746C118.042 166.326 119.542 165.884 121.043 165.442C124.498 164.424 127.955 163.406 131.424 162.65C139.784 160.747 148.295 160.05 156.839 161.341L156.84 161.342C166.444 162.82 176.188 167.857 184.519 172.535C193.118 177.275 200.505 183.677 207.252 190.573C207.553 190.53 207.909 190.557 208.188 190.762C214.191 192.111 219.577 196.751 223.692 201.043L223.692 201.043L223.696 201.047C224.097 201.486 224.23 202.139 223.92 202.636C221.011 207.626 217.901 212.566 214.818 217.463C214.305 218.278 213.792 219.091 213.282 219.904C212.651 220.907 212.019 221.928 211.381 222.959C207.438 229.325 203.269 236.058 197.904 241.247L197.9 241.252C197.463 241.653 196.812 241.786 196.317 241.479C192.503 239.386 188.589 237.699 184.659 236.367C184.06 236.564 183.315 236.409 182.997 235.798C166.287 230.697 147.964 231.599 130.313 232.469C126.632 232.65 122.979 232.83 119.376 232.954L119.375 232.954C112.281 233.175 105.027 233.364 97.9837 232.374C97.894 232.421 97.7657 232.467 97.5974 232.435C82.446 232.366 67.3156 230.989 52.6162 227.231C42.8388 224.829 32.6692 221.233 24.5814 215.061L24.5783 215.058C23.5531 214.249 21.0698 211.852 19.5055 209.388C18.7262 208.161 18.1508 206.88 18.131 205.752C18.121 205.182 18.2533 204.643 18.5793 204.176C18.9043 203.71 19.4077 203.335 20.1058 203.065C21.6301 202.446 23.3797 202.543 25.0728 202.876C26.2322 203.104 27.3944 203.45 28.4551 203.766C28.939 203.91 29.4018 204.047 29.8335 204.165L29.8335 204.164L29.8417 204.167C30.9956 204.524 32.1278 204.893 33.2579 205.262L33.2593 205.263ZM194.974 237.653L194.978 237.655C195.416 237.877 195.728 238.091 195.967 238.265C196.014 238.299 196.057 238.331 196.096 238.36C196.159 238.406 196.213 238.446 196.266 238.484C196.351 238.543 196.412 238.58 196.463 238.602C196.509 238.622 196.539 238.625 196.562 238.623C196.587 238.621 196.626 238.612 196.688 238.575C196.823 238.494 197.008 238.322 197.31 237.991L197.313 237.987C198.088 237.169 198.728 236.317 199.378 235.451L199.381 235.447C206.083 226.932 211.782 217.447 217.38 208.131C217.69 207.615 217.999 207.1 218.309 206.585L218.311 206.581C218.727 205.92 219.129 205.237 219.534 204.55L219.536 204.548C219.94 203.863 220.346 203.174 220.765 202.507L220.944 202.222L221.017 202.106C217.197 198.294 212.624 194.372 207.316 193.254C204.062 194.462 201.336 197.431 199.042 200.874C197.065 203.841 195.429 207.127 194.062 209.874C193.835 210.331 193.615 210.773 193.402 211.196L193.401 211.198C189.938 217.962 186.04 225.996 185.594 233.741C185.733 233.782 185.863 233.826 185.987 233.869L185.991 233.871C186.177 233.935 186.352 233.995 186.545 234.042L186.557 234.045L186.568 234.049C189.403 235.039 192.167 236.305 194.974 237.653ZM108.576 171.457L108.571 171.458C106.338 171.903 103.838 172.075 101.243 172.083C101.653 174.194 101.169 175.854 100.086 177.129C98.9628 178.452 97.2173 179.334 95.2442 179.902C91.4926 180.983 86.8116 180.962 83.6471 180.575C84.237 181.515 85.4203 182.385 86.9898 183.166C88.7722 184.053 90.9987 184.8 93.2668 185.403C97.8073 186.609 102.463 187.224 103.963 187.234L103.963 187.233L103.973 187.234C106.151 187.34 108.577 187.284 111.125 187.226C111.493 187.218 111.863 187.209 112.236 187.201C115.183 187.137 118.261 187.1 121.252 187.331C127.229 187.791 132.924 189.323 136.591 193.907L136.592 193.909C136.915 194.318 136.887 194.786 136.707 195.162C136.532 195.527 136.204 195.832 135.861 195.969C120.505 202.134 102.17 208.339 85.4111 205.91L85.4104 205.91C76.8938 204.652 68.6698 201.65 60.5631 198.69C57.9925 197.752 55.4337 196.818 52.8811 195.945L52.8801 195.945C52.0419 195.654 51.0675 195.289 49.9923 194.887C47.3334 193.892 44.0579 192.666 40.6997 191.757C38.3456 191.119 35.9643 190.641 33.7452 190.511C31.7114 190.391 29.8277 190.564 28.2302 191.162C30.0137 192.401 31.6971 194.301 32.8529 195.672C34.9562 197.999 37.0486 200.853 37.5367 204.133C47.7692 210.424 60.9569 216.857 62.7878 217.746C71.7814 221.781 81.0583 225.519 90.5152 228.208L90.517 228.208C99.8623 230.94 109.507 230.692 119.198 230.44C123.093 230.326 126.993 230.152 130.896 229.977C142.422 229.461 153.979 228.944 165.556 229.985C171.4 230.484 177.245 231.55 182.962 233.152C183.676 225.343 187.532 217.386 190.823 210.596C190.897 210.443 190.971 210.291 191.044 210.14L191.046 210.137C191.161 209.907 191.279 209.673 191.399 209.434C192.819 206.603 194.536 203.182 196.625 200.023C198.82 196.704 201.443 193.647 204.595 191.863C191.998 179.383 176.549 169.254 159.225 164.781L159.223 164.78C150.594 162.442 142.107 163.188 133.685 164.984C129.473 165.882 125.283 167.041 121.099 168.206L120.716 168.313C116.663 169.441 112.616 170.568 108.576 171.457ZM24.5745 211.61C25.8292 212.824 27.2913 213.917 28.8039 214.903C27.9053 211.368 25.5321 208.743 21.8882 208.152C22.6599 209.426 23.8547 210.788 24.3926 211.401C24.4666 211.486 24.5281 211.556 24.5745 211.61ZM22.4087 205.471C27.8658 206.436 31.3206 211.112 31.8309 216.747C32.1161 216.882 32.4148 217.029 32.7532 217.242C48.4362 225.662 67.4869 228.673 85.5952 229.522C78.964 227.446 72.4731 224.831 66.0875 222.06C60.7347 219.795 55.5011 217.34 50.3866 214.695C48.4017 213.915 46.2996 212.994 44.1286 212.042L43.7051 211.857C41.3775 210.837 38.973 209.791 36.54 208.847C31.7921 207.004 26.9575 205.561 22.4087 205.471ZM27.125 196.395C28.6679 197.994 31.1139 199.869 34.0285 201.839C33.1432 200.018 31.7504 198.379 30.4935 196.98C30.31 196.784 30.1196 196.575 29.9223 196.358C29.3955 195.78 28.8202 195.149 28.2015 194.563C27.396 193.799 26.5422 193.136 25.6707 192.787C25.5278 192.947 25.4451 193.121 25.411 193.307C25.3685 193.539 25.3979 193.811 25.5108 194.127C25.7388 194.764 26.2888 195.529 27.125 196.395ZM83.8087 177.575C83.808 177.577 83.8074 177.578 83.8067 177.579L83.6546 177.821C86.0449 178.176 90.0641 178.367 93.3364 177.672C95.0632 177.305 96.5462 176.698 97.4805 175.772C98.3619 174.898 98.7772 173.718 98.4056 172.101C92.7162 172.304 87.0156 172.8 83.8087 177.575Z" fill="#001064" stroke="#001064" stroke-width="0.5"/>
<path d="M111.986 82.267L195.546 87.3983M111.986 82.267L62.8994 36.6445M111.986 82.267L107.368 171.549" stroke="#001064" stroke-width="3.5" stroke-miterlimit="10"/>
<path d="M59.424 103.281L60.8197 105.428C63.1569 109.024 68.4766 108.854 70.5791 105.116C70.8625 104.612 71.2209 104.154 71.6419 103.758L76.14 99.5243C78.444 97.3558 82.1444 97.7789 83.8995 100.411C84.627 101.503 84.9074 102.832 84.6827 104.124L83.3665 111.692C82.9835 113.895 82.2669 116.026 81.2415 118.013L75.0791 129.952C74.2394 131.579 73.1529 133.067 71.8582 134.361L68.4773 137.742C64.9786 141.241 59.6071 142.049 55.2341 139.734C53.7973 138.973 52.5421 137.91 51.5545 136.619L41.0354 122.863C39.3382 120.644 38.0793 118.122 37.326 115.431L35.6146 109.319C34.9246 106.855 35.217 104.219 36.4303 101.965C37.729 99.5534 39.9703 97.7883 42.6196 97.0912L43.6095 96.8307C47.1068 95.9103 50.832 96.5831 53.7865 98.6686L57.5243 101.307C58.2771 101.838 58.9218 102.508 59.424 103.281Z" fill="white"/>
<path d="M63.6732 112.023C61.1164 103.733 54.1439 89.6994 43.189 92.3367C40.3808 93.0128 37.0269 94.4303 35.2688 96.8381C33.4362 99.348 33.417 101.692 33.417 104.73C33.417 114.434 40.9597 123.042 46.8642 130.072C48.7003 132.257 50.6789 134.331 53.018 135.983C54.403 136.962 55.847 137.988 57.0778 139.16C57.6546 139.709 58.3483 140.168 59.0009 140.627C59.5582 141.019 59.3143 140.579 59.3143 139.972" stroke="#001064" stroke-width="3.5" stroke-linecap="round" stroke-linejoin="round"/>
<path d="M62.9045 112.024C64.028 108.404 65.5857 105.007 67.8047 101.91C69.5376 99.4909 71.5505 96.6112 73.8161 94.6448C75.417 93.2553 76.9854 92.793 79.0582 92.793C82.8002 92.793 82.648 99.5785 82.648 102.28C82.648 107.294 79.6798 112.849 77.5483 117.209C74.9229 122.579 71.5236 127.537 68.0469 132.38C66.4519 134.601 64.3994 136.457 62.762 138.562C62.2447 139.227 60.8844 140.475 60.084 140.741" stroke="#001064" stroke-width="3.5" stroke-linecap="round" stroke-linejoin="round"/>
</svg>
