<svg width="158" height="122" viewBox="0 0 158 122" fill="none" xmlns="http://www.w3.org/2000/svg">
<path d="M110.697 35.6973L103.401 37.9499L96.666 42.7366L92.7373 52.5917V71.4572L95.2629 78.215L103.401 82.7202L114.064 83.8465L125.008 77.3703L131.182 73.1467L133.988 65.2626L132.866 55.4075L125.008 41.0472L118.554 35.6973H110.697Z" fill="#FEF6E7"/>
<path fill-rule="evenodd" clip-rule="evenodd" d="M147.544 40.4919C147.973 40.974 148.239 41.5704 148.592 42.1541C148.82 42.484 148.682 42.776 148.355 43.0046C147.412 43.9571 146.141 44.5036 144.984 45.2151C143.487 46.0663 141.788 46.7654 140.177 47.4517C139.585 47.7185 139.383 47.5663 139.131 47.0588C138.447 45.4345 138.447 45.4345 139.957 44.6721C142.31 43.5157 144.637 42.1817 146.877 40.8604C147.128 40.7333 147.38 40.6063 147.544 40.4919Z" fill="#001064"/>
<path fill-rule="evenodd" clip-rule="evenodd" d="M133.134 27.896C133.319 27.683 133.271 27.5661 133.023 27.4629C132.94 27.4285 132.809 27.2772 132.726 27.2428C131.34 26.376 131.258 26.3416 130.346 27.6059C128.929 29.6261 127.559 31.7631 126.141 33.7832C125.922 34.0787 125.937 34.278 126.15 34.4637C126.826 34.9383 127.468 35.4954 128.144 35.97C128.441 36.1901 128.558 36.1421 128.777 35.8466C130.234 33.2628 131.691 30.6791 133.115 28.1778C133.066 28.0609 133.1 27.9784 133.134 27.896Z" fill="#001064"/>
<path fill-rule="evenodd" clip-rule="evenodd" d="M109.598 24.5235C109.192 26.6747 109.151 28.8811 109.028 31.0532C108.994 31.1356 108.974 31.4174 109.056 31.4518C109.835 31.679 110.536 31.3907 111.3 31.4186C111.781 31.4257 111.67 30.9926 111.69 30.7108C111.847 28.4563 112.005 26.2018 112.246 23.9818C112.251 23.5006 112.12 23.3493 111.638 23.3422C111.521 23.3903 111.356 23.3215 111.273 23.2871C109.945 23.2177 109.945 23.2177 109.598 24.5235Z" fill="#001064"/>
<path d="M105.571 82.7235C105.571 82.7235 93.7938 81.9247 93.4139 71.9523C93.034 61.9799 89.1083 41.4166 105.571 36.8298C122.033 32.2431 125.174 42.8081 127.529 46.8023C129.884 50.7964 141.459 65.1494 126.364 76.9256C126.364 76.9256 110.788 83.4966 111.168 86.3054C111.548 89.0884 124.313 84.115 124.313 84.115C124.313 84.115 128.922 82.3112 129.125 84.8108C129.327 87.3103 119.222 90.1964 119.222 90.1964C119.222 90.1964 111.978 91.5879 112.358 94.577C112.738 97.5662 124.616 92.5156 124.616 92.5156C124.616 92.5156 128.137 91.0468 128.34 92.5156C128.542 93.9844 123.73 96.2778 123.73 96.2778C123.73 96.2778 114.992 98.8804 115.398 100.968C115.777 103.055 121.096 101.766 121.096 101.766C121.096 101.766 126.009 100.658 125.022 102.668C124.034 104.653 99.5936 119.65 115.676 119.65" stroke="#001064" stroke-width="2.7" stroke-miterlimit="10"/>
<path d="M113.209 75.2039L105.71 57.1009C105.217 55.9009 104.231 54.9817 102.959 54.6242C101.636 54.2668 100.079 54.5987 99.5598 57.6116C98.5478 63.3565 113.209 57.9946 113.209 57.9946C113.209 57.9946 121.435 56.2073 121.045 51.6624C120.838 49.39 119.644 49.0836 118.476 49.3644C116.894 49.7219 115.83 51.1517 115.804 52.7348C115.778 54.1902 116.037 56.4626 117.023 59.9606C118.658 65.7822 119.177 69.1781 119.177 69.1781" stroke="#001064" stroke-width="1.8" stroke-miterlimit="10"/>
<path d="M1.63302 118.822C14.536 118.494 27.2522 118.246 39.9121 117.999L40.4249 117.989L40.426 117.989L59.7458 117.68L59.7467 117.68L78.9825 117.427L78.9843 117.427L98.1356 117.287L98.1361 117.287M1.63302 118.822L98.1361 117.287M1.63302 118.822L2.98667 94.8253L2.98671 94.8245L4.27469 70.8395L4.2747 70.8394L4.91869 58.9451L4.91876 58.9438L5.50675 47.0774L5.50678 47.0768L5.78678 41.1576L5.78684 41.1562L6.03884 35.2371L6.03884 35.2371L6.49614 24.5212L19.5228 15.1012L19.523 15.101L32.7621 5.50791L41.6908 5.50791L41.6917 5.50791L51.4076 5.47986L51.4089 5.47985L70.8407 5.33959L109.324 5.06221C110.481 5.56809 111.637 6.07718 112.792 6.58613C114.968 7.54511 117.143 8.50356 119.328 9.43902C119.328 9.43906 119.328 9.43909 119.328 9.43913L129.743 13.9273L129.744 13.9274L149.83 22.556L150.506 33.895L150.506 33.8957L151.206 46.0966L151.206 46.0979L151.85 58.2981L151.85 58.2995L152.438 70.5001C152.438 70.5004 152.438 70.5007 152.438 70.5011C152.802 78.6354 153.138 86.7688 153.39 94.9018C153.626 102.548 153.837 110.17 154.024 117.791C141.732 117.548 129.511 117.313 117.263 117.259C110.879 117.231 104.522 117.231 98.1361 117.287M1.63302 118.822L98.1361 117.287M0.732377 119.675L0.73517 119.38L0.959168 95.7313L0.959174 95.7306L1.23917 71.7736L1.23918 71.7729L1.40718 59.7102L1.40719 59.7095L1.60319 47.5907L1.6032 47.5901L1.7152 41.5307L1.71522 41.5293L1.85523 35.4419L2.15515 35.4488L1.85523 35.4419L2.13514 23.2985V22.3762V22.2252L2.25636 22.1353L3.01194 21.5745L3.01235 21.5742L16.7598 11.3353L16.7607 11.3346L30.5366 1.15149L30.5426 1.14705L30.5426 1.14712L31.1026 0.754384L31.1802 0.7H31.2749H31.9749H41.6908H41.6917L51.4076 0.728054L51.4084 0.728056L70.8683 0.840269L70.8687 0.840271L109.786 1.12079H109.787H110.178H110.243L110.303 1.14777L110.611 1.28803L110.611 1.28811C114.055 2.85932 117.472 4.43055 120.916 6.02987L131.192 10.7988L131.193 10.7993L151.714 20.42L151.717 20.4214L152.33 20.7005L152.498 20.7768L152.506 20.9605L152.534 21.6058L152.534 21.6098L152.898 33.8121L152.898 33.8128L153.29 46.0136L153.29 46.015L153.738 58.2152L153.738 58.2166L154.241 70.4171C154.241 70.4174 154.242 70.4178 154.242 70.4182C154.605 78.5518 155.025 86.6856 155.473 94.8199M0.732377 119.675L155.473 94.8199M0.732377 119.675L1.02711 119.682C10.7356 119.943 20.5449 120.153 30.428 120.365C33.3153 120.427 36.209 120.489 39.1083 120.552L39.11 120.552L58.3738 120.861L58.3747 120.861L77.7226 121.113L77.7243 121.113L97.1557 121.254M0.732377 119.675L97.1557 121.254M155.473 94.8199C155.949 102.954 156.453 111.06 156.985 119.194M155.473 94.8199C155.473 94.8196 155.473 94.8192 155.473 94.8189L156.985 119.194M156.985 119.194C156.985 119.194 156.985 119.195 156.985 119.195L157.069 120.371L157.091 120.685L156.777 120.692L155.545 120.72L155.544 120.72C142.608 120.973 129.614 121.225 116.619 121.282C110.123 121.31 103.626 121.31 97.1561 121.254C97.156 121.254 97.1558 121.254 97.1557 121.254M156.985 119.194L97.1583 120.954L97.1557 121.254" fill="#001064" stroke="#001064" stroke-width="0.6"/>
<path d="M1 119.032H69.0333V42.4002L59.048 34.6002L48.8747 26.5002L4.69412 23.042L1 119.032Z" fill="#FFEDE9"/>
<path d="M109.669 3.59766L69.3418 42.1008V119.032" stroke="#001064" stroke-width="2.4" stroke-miterlimit="10"/>
<path d="M87.5341 40.243L90.7508 36.9303L91.1455 38.3082L93.4699 43.307L96.9495 45.5866L91.6494 47.8584L88.6886 51.545L87.2487 47.0373L82.8042 42.9473L83.2941 42.0604L87.5341 40.243Z" fill="white"/>
<path d="M48.2976 25.5126C48.5557 26.2584 48.7771 27.006 48.9986 27.7536C49.2201 28.5013 49.4273 29.2572 49.6271 30.0135C50.0265 31.5186 50.3969 33.0327 50.7531 34.5551L51.0091 35.6956C51.0946 36.0783 51.1723 36.4538 51.2578 36.8365C51.336 37.2195 51.421 37.5946 51.4992 37.9777L51.5577 38.2631L51.5758 38.3305L51.5935 38.3903L51.6216 38.5103C51.6405 38.5928 51.659 38.6678 51.6852 38.7499L51.7206 38.8695C51.7298 38.907 51.7464 38.9441 51.756 38.9891C52.157 40.2361 52.9683 41.3181 54.0115 42.0468C54.2706 42.231 54.5505 42.3914 54.8366 42.5286C55.1226 42.6659 55.4149 42.7801 55.7206 42.8709C56.3244 43.0451 56.9595 43.1116 57.5973 43.0869L57.8387 43.067L58.1164 43.0378L58.6794 42.9865C59.0523 42.9524 59.4325 42.918 59.8054 42.8839L60.9317 42.7889L62.0578 42.6863C63.5655 42.5795 65.0667 42.4882 66.5849 42.4416C67.3403 42.4185 68.0957 42.3954 68.8596 42.3947C69.6157 42.3867 70.38 42.3935 71.1377 42.4158C70.4069 42.6349 69.6676 42.8318 68.9353 43.0207C68.203 43.2096 67.4626 43.3837 66.7217 43.5502C65.2475 43.883 63.7643 44.1858 62.2796 44.4583L61.1663 44.6665L60.0522 44.8596C59.6809 44.9239 59.3095 44.9883 58.9378 45.0451L58.3767 45.1342L58.0998 45.1786L57.7786 45.2177C56.9163 45.3069 56.0245 45.2459 55.1758 45.0233C54.7513 44.9082 54.3326 44.7625 53.9339 44.5778C53.5353 44.3931 53.1494 44.1698 52.7839 43.9151C51.3294 42.8961 50.2294 41.3355 49.7669 39.5984C49.7495 39.5461 49.7395 39.4935 49.7218 39.4337L49.6841 39.2687C49.6564 39.1563 49.6363 39.051 49.6159 38.9382L49.5855 38.7728L49.574 38.6899L49.5628 38.6146L49.519 38.3285C49.4628 37.9443 49.414 37.5598 49.3574 37.168C49.3086 36.7835 49.2524 36.3993 49.2032 36.0072L49.0563 34.846C48.8679 33.2999 48.7011 31.7451 48.5709 30.1885C48.5095 29.41 48.448 28.6315 48.4009 27.8446C48.3549 27.0805 48.3077 26.2937 48.2976 25.5126Z" fill="#001064"/>
<path d="M79.0543 41.9773C79.6858 41.6628 80.5946 41.8497 81.3121 41.7847C82.1024 41.7073 82.878 41.5667 83.6249 41.3429C85.156 40.885 86.5648 40.1361 87.721 39.1326C88.9089 38.1005 89.8335 36.7771 90.4049 35.3618C90.4242 35.3049 90.4537 35.2412 90.4731 35.1843C90.4734 33.6625 90.6914 32.1554 91.172 30.8011C91.455 29.9892 92.9193 30.271 92.8277 31.1446C92.8106 31.3316 92.785 31.5171 92.7424 31.6994C92.73 31.7662 92.7106 31.8231 92.6827 31.8784C92.4485 33.0453 92.2259 34.1971 92.2032 35.412C92.175 36.894 92.3544 38.3975 92.7369 39.8524C93.0667 41.1158 93.6003 42.3741 94.5306 43.3951C95.5562 44.5203 96.9136 45.0935 98.436 45.3949C98.9202 45.4939 99.0208 46.092 98.5063 46.2035C98.0476 46.2995 97.5944 46.3187 97.1706 46.2742C96.9327 46.3682 96.7049 46.4554 96.4376 46.5179C95.93 46.6394 95.438 46.7724 94.9607 46.9687C93.9906 47.3497 93.0994 47.8752 92.3346 48.528C90.6879 49.9415 89.7298 51.9677 89.5829 54.0415C89.5488 54.5107 89.1636 54.7328 88.7662 54.7365C88.2214 55.3439 87.0647 54.8773 87.2988 53.9957C87.9486 51.5402 87.7283 48.9742 86.0149 46.8041C85.2294 45.8101 84.2386 45.0199 83.0959 44.383C82.3545 43.9593 81.548 43.6965 80.7531 43.4184C80.11 43.4627 79.4452 43.4338 78.9657 43.1195C78.4947 42.8068 78.5893 42.2019 79.0543 41.9773ZM83.7927 43.0517C85.2236 43.7511 86.5011 44.8022 87.4213 46.0202C88.2354 47.0973 88.8302 48.3583 89.1523 49.6636C89.646 48.8564 90.2783 48.1097 91.0417 47.4653C91.9321 46.7062 93.0068 46.0939 94.1497 45.6846C94.4047 45.5938 94.6666 45.513 94.937 45.4337C93.3078 44.3775 92.094 42.5081 91.5195 40.9482C91.1733 40.0103 90.9108 39.0015 90.7313 37.9736C90.2453 38.739 89.6633 39.4518 88.9798 40.0939C87.7198 41.2768 86.1134 42.1877 84.3987 42.7324C84.1453 42.8149 83.885 42.8873 83.6262 42.9515C83.6711 42.9944 83.7276 43.0223 83.7927 43.0517Z" fill="#001064"/>
<path d="M4.0791 23.9668L48.8753 26.1992L69.8204 42.6992" stroke="#001064" stroke-width="2.4" stroke-miterlimit="10"/>
<path d="M145.936 66.9174L148.653 63.7458L149.087 64.9671L151.466 69.3474L154.734 71.2082L150.078 73.5582L147.613 77.0528L146.06 73.0658L141.819 69.6255L142.211 68.7974L145.936 66.9174Z" fill="white"/>
<path d="M138.38 68.9629C138.932 68.6433 139.763 68.7606 140.407 68.6614C141.116 68.5469 141.808 68.3762 142.469 68.132C143.825 67.6321 145.055 66.8766 146.042 65.9056C147.056 64.9069 147.816 63.6602 148.252 62.3506C148.267 62.2981 148.29 62.239 148.304 62.1865C148.219 60.813 148.331 59.4404 148.688 58.1909C148.898 57.4421 150.235 57.6138 150.202 58.4073C150.197 58.5771 150.184 58.746 150.156 58.9129C150.149 58.9739 150.134 59.0264 150.112 59.0779C149.966 60.1443 149.83 61.1964 149.878 62.2942C149.936 63.6334 150.182 64.9802 150.609 66.2717C150.978 67.3934 151.531 68.4989 152.428 69.3678C153.417 70.3254 154.674 70.766 156.065 70.952C156.507 71.014 156.632 71.5481 156.174 71.6778C155.765 71.7904 155.357 71.8333 154.972 71.8171C154.763 71.9154 154.562 72.007 154.324 72.0785C153.873 72.2168 153.436 72.3647 153.017 72.5688C152.162 72.9676 151.388 73.4922 150.734 74.1246C149.327 75.4934 148.577 77.3763 148.561 79.2563C148.556 79.6817 148.221 79.904 147.863 79.9298C147.405 80.5087 146.335 80.153 146.497 79.3441C146.945 77.0912 146.602 74.7877 144.933 72.9258C144.169 72.0731 143.23 71.416 142.163 70.9057C141.47 70.5652 140.727 70.3735 139.994 70.1675C139.416 70.2439 138.814 70.2553 138.364 69.9988C137.921 69.7432 137.973 69.1918 138.38 68.9629ZM142.717 69.6648C144.048 70.2151 145.26 71.0916 146.159 72.1389C146.954 73.065 147.562 74.1696 147.926 75.3294C148.326 74.573 148.855 73.8633 149.507 73.2385C150.268 72.5031 151.204 71.8898 152.213 71.4557C152.438 71.3594 152.669 71.2716 152.909 71.1848C151.379 70.3236 150.179 68.7049 149.572 67.3295C149.207 66.5026 148.914 65.6069 148.694 64.6894C148.298 65.4076 147.813 66.0839 147.232 66.702C146.161 67.8409 144.763 68.7538 143.246 69.3424C143.022 69.4311 142.791 69.5112 142.561 69.5837C142.604 69.6199 142.656 69.6419 142.717 69.6648Z" fill="#001064"/>
<path d="M17.0996 63.447C16.2718 63.4794 15.627 64.1767 15.6594 65.0045C15.6917 65.8323 16.3891 66.4771 17.2169 66.4447L17.0996 63.447ZM56.7135 64.8992C57.5412 64.8669 58.1861 64.1695 58.1537 63.3417C58.1213 62.5139 57.424 61.8691 56.5962 61.9015L56.7135 64.8992ZM17.1028 72.1014C16.275 72.132 15.6287 72.8279 15.6592 73.6557C15.6898 74.4836 16.3857 75.1299 17.2136 75.0994L17.1028 72.1014ZM42.324 74.1721C43.1518 74.1415 43.7982 73.4456 43.7676 72.6178C43.737 71.7899 43.0411 71.1436 42.2133 71.1741L42.324 74.1721ZM17.2169 66.4447L56.7135 64.8992L56.5962 61.9015L17.0996 63.447L17.2169 66.4447ZM17.2136 75.0994L42.324 74.1721L42.2133 71.1741L17.1028 72.1014L17.2136 75.0994Z" fill="#001064"/>
<path d="M22.9422 95.9347C20.5443 97.7811 18.9171 100.001 17.766 102.814C17.7318 102.897 16.6181 105.811 17.7457 104.951C18.355 104.486 20.4816 102.464 20.6484 102.305C23.3782 99.7096 26.1356 97.1106 28.6666 94.3167C30.4868 92.3074 32.839 89.7571 33.9444 87.2239C34.9192 84.9898 31.0402 91.1624 29.9251 93.3296C28.2143 96.6546 26.7455 100.371 26.8194 104.177C26.8645 106.504 27.593 107.431 29.8541 106.131C33.2698 104.168 35.9012 100.819 38.1666 97.6646C38.2674 97.5242 40.0914 94.7652 40.1051 94.9171C40.1896 95.8484 40.166 96.6468 40.6837 97.4815C40.9343 97.8856 41.6872 99.1368 42.267 98.6314C42.8461 98.1265 43.4745 97.5905 44.1954 97.2983C44.5596 97.1507 44.4295 97.4498 44.5202 97.6544C44.6397 97.924 45.805 97.768 46.002 97.7664C48.5461 97.7456 50.9897 97.4677 53.4518 96.8505" stroke="#001064" stroke-width="2.4" stroke-linecap="round" stroke-linejoin="round"/>
</svg>
