<svg width="220" height="272" viewBox="0 0 220 272" fill="none" xmlns="http://www.w3.org/2000/svg">
<path d="M5.50977 111.714L134.254 136.261L212.402 101.695L100.189 81.1562L5.50977 111.714Z" fill="#E9F7FF"/>
<path d="M3.31413 117.818C3.31413 125.095 3.3373 132.372 3.43 139.626C3.47636 143.265 3.52271 146.903 3.61541 150.542L3.73129 155.988L3.87034 161.434C3.96305 165.073 4.05575 168.712 4.17163 172.35L4.51926 183.266L5.21453 205.074C5.44629 212.352 5.6317 219.629 5.77075 226.883L5.88663 232.329L5.93298 235.064L5.95616 235.527C5.95616 235.666 6.00251 235.828 6.02568 235.968C6.07203 236.246 6.16474 236.547 6.25744 236.802C6.62825 237.891 7.39305 238.818 8.32008 239.374C8.43596 239.444 8.55184 239.49 8.66771 239.56C8.78359 239.606 8.89947 239.652 9.03852 239.699C9.1544 239.722 9.29346 239.768 9.40934 239.815L9.59474 239.861L9.68744 239.884C9.7338 239.884 9.7338 239.907 9.80332 239.907L12.4917 240.371C26.8375 242.804 41.1369 245.423 55.4131 248.204C69.6893 250.962 83.9424 253.929 98.1955 256.826C105.334 258.286 112.449 259.723 119.587 261.136L130.294 263.222L131.592 263.477C131.962 263.547 132.333 263.57 132.704 263.547C133.075 263.523 133.446 263.477 133.817 263.408C134.141 263.338 134.628 263.176 135.045 263.037L140.259 261.438C147.212 259.305 154.142 257.127 161.071 254.925L166.263 253.28L171.454 251.611L181.837 248.251L192.196 244.844L202.532 241.391L207.701 239.652L210.273 238.772C210.32 238.749 210.389 238.725 210.435 238.725L210.551 238.679L210.806 238.586C210.968 238.517 211.131 238.424 211.27 238.355C211.409 238.262 211.571 238.169 211.71 238.077C211.849 237.961 212.011 237.868 212.127 237.752C213.216 236.848 213.981 235.55 214.236 234.16C214.306 233.812 214.352 233.465 214.352 233.094V232.816V232.677V232.514L214.329 231.842L214.283 229.108L213.796 207.299L213.564 196.383L213.379 185.468C213.124 170.913 213.031 156.382 212.892 141.828L212.707 120.019L212.614 109.104V108.432C212.614 108.293 212.591 108.177 212.591 108.038C212.568 107.899 212.544 107.783 212.544 107.644L212.452 107.273C212.313 106.786 212.104 106.299 211.826 105.905C211.27 105.071 210.459 104.515 209.601 104.306L188.395 100.853C181.211 99.6712 174.05 98.4661 166.888 97.2609C159.727 96.0326 152.542 94.8043 145.381 93.5528C138.22 92.3013 131.059 91.0498 123.897 89.752L113.167 87.7821L102.483 85.7194L99.7946 85.2096L98.4504 84.9546L97.7783 84.8156C97.6393 84.7924 97.5002 84.7692 97.3611 84.746C97.083 84.7229 96.8049 84.7229 96.55 84.746C96.4109 84.7692 96.2719 84.7692 96.1328 84.7924C96.0633 84.8156 95.9938 84.8156 95.9242 84.8388C95.9011 84.8388 95.8547 84.8619 95.8315 84.8619C95.7852 84.8619 95.7852 84.8851 95.7157 84.8851L93.0968 85.6499L82.6214 88.6859C68.6464 92.6953 54.6251 96.6584 40.6734 100.784L35.4356 102.336L30.2211 103.912C26.7448 104.955 23.2684 106.021 19.792 107.087C16.3157 108.154 12.8393 109.243 9.38616 110.332L8.73724 110.541L8.41278 110.633C8.2969 110.68 8.2042 110.703 8.1115 110.749C8.01879 110.796 7.90292 110.819 7.81021 110.865L7.50893 111.004C7.30035 111.097 7.13812 111.213 6.92954 111.305C6.18791 111.746 5.51582 112.325 4.98278 112.997C3.91669 114.341 3.31413 116.08 3.31413 117.818ZM2.61885 117.818C2.61885 115.917 3.2446 114.04 4.42656 112.534C5.00595 111.769 5.7244 111.12 6.53555 110.633C6.74413 110.517 6.95271 110.378 7.16129 110.286L7.48575 110.123C7.60163 110.077 7.71751 110.031 7.81021 109.984C7.92609 109.938 8.04197 109.892 8.13467 109.869L8.45913 109.753L9.10805 109.544C12.5612 108.408 16.0144 107.25 19.4444 106.091C22.8976 104.932 26.3276 103.75 29.7576 102.568L34.9026 100.784L40.0476 98.9759C53.7676 94.1554 67.4413 89.1726 81.1381 84.2594L91.405 80.5976L93.9775 79.6937L94.1861 79.6242C94.2556 79.601 94.3251 79.5779 94.4178 79.5547C94.5569 79.5083 94.7191 79.462 94.8813 79.4388C95.1826 79.3693 95.5071 79.2998 95.8084 79.2534C96.4341 79.1607 97.083 79.1375 97.7088 79.1607C98.0332 79.1839 98.3345 79.2071 98.659 79.2534L99.3311 79.3461L100.675 79.5315L103.387 79.9023L114.187 81.4551L124.987 83.0542C132.171 84.1435 139.356 85.2791 146.54 86.4147C153.724 87.5503 160.909 88.6859 168.093 89.8679C175.278 91.0267 182.439 92.2086 189.624 93.4369L200.377 95.2678L205.754 96.1948L208.442 96.6584L209.786 96.8901L210.459 97.006C210.505 97.006 210.621 97.0292 210.69 97.0523L210.945 97.0987L211.455 97.2146C212.776 97.5622 214.051 98.1648 215.14 98.9759C216.229 99.7871 217.156 100.784 217.875 101.873C218.593 102.985 219.126 104.19 219.428 105.465C219.497 105.79 219.567 106.091 219.613 106.415C219.659 106.74 219.706 107.064 219.729 107.389C219.752 107.713 219.752 108.038 219.775 108.362V109.057L219.683 119.973L219.497 141.781C219.358 156.336 219.242 170.867 219.01 185.421L218.825 196.337L218.593 207.253L218.107 229.061L218.06 231.796L218.037 232.468V232.63V232.839L218.014 233.256C217.967 233.812 217.875 234.345 217.759 234.901C217.249 237.057 215.974 239.027 214.213 240.371C214.004 240.556 213.75 240.695 213.518 240.834C213.286 240.973 213.031 241.113 212.776 241.252C212.521 241.367 212.266 241.483 212.011 241.576L211.617 241.715L211.409 241.785L211.247 241.831L208.628 242.596L203.39 244.149L192.938 247.277L182.509 250.452L172.08 253.674L166.865 255.296L161.674 256.942C154.744 259.12 147.815 261.345 140.908 263.593L135.717 265.285C135.277 265.424 134.883 265.563 134.35 265.725C133.84 265.864 133.307 265.934 132.774 265.98C132.241 266.003 131.708 265.98 131.174 265.911C130.896 265.864 130.688 265.841 130.456 265.795L129.784 265.679L119.007 263.941C111.823 262.805 104.638 261.693 97.4307 260.603C83.0386 258.402 68.6464 256.269 54.3007 253.929C39.9317 251.588 25.6092 249.131 11.3097 246.466L8.62136 245.956C8.57501 245.956 8.48231 245.933 8.38961 245.91L8.15785 245.864L7.69433 245.748C7.39305 245.655 7.06859 245.539 6.76731 245.446C6.46602 245.331 6.16474 245.191 5.88663 245.052C5.60852 244.89 5.33041 244.751 5.0523 244.589C2.87379 243.222 1.29784 241.066 0.533041 238.725C0.347636 238.146 0.208581 237.52 0.115879 236.918C0.0927028 236.616 0.0463514 236.315 0.0231757 235.991L0 235.527V235.295C0 235.226 0 235.133 0 235.087L0.0463514 232.352L0.16223 226.906C0.301284 219.629 0.509866 212.352 0.718447 205.098L1.41372 183.289L1.76135 172.373C1.85406 168.735 1.96993 165.096 2.06264 161.458L2.20169 156.011L2.31757 150.565C2.3871 146.926 2.45662 143.288 2.50298 139.649C2.59568 132.349 2.64203 125.095 2.61885 117.818Z" fill="#001064"/>
<path d="M5.00977 112.215L133.377 134.805L216.23 101.641" stroke="#001064" stroke-width="3" stroke-miterlimit="10"/>
<path d="M133.377 134.805V264.936" stroke="#001064" stroke-width="3" stroke-miterlimit="10"/>
<path d="M23.7777 219.813C21.2052 219.164 19.9769 217.287 19.6061 214.853C19.2585 212.466 19.1889 210.056 19.073 207.623C18.9572 205.212 18.9803 202.779 18.934 200.369C18.8645 197.309 19.5597 196.452 22.5262 196.174C22.8275 183.358 23.1288 170.542 23.4069 157.772C22.364 157.679 21.4138 157.795 20.649 157.447C19.8842 157.1 19.0962 156.381 18.7254 155.616C18.3083 154.782 18.1692 153.67 18.2155 152.696C18.3546 149.104 18.5168 145.535 18.9108 141.966C19.1426 139.834 20.2318 139.301 22.2249 139.88C22.5031 139.95 22.7812 140.042 23.4069 140.228C23.4069 138.559 23.3374 137.029 23.4301 135.523C23.6387 132.417 24.7047 131.653 27.6249 132.093C35.8523 133.345 44.0796 134.48 52.2838 135.708C60.2099 136.867 68.136 138.049 76.0621 139.254C82.8294 140.274 89.5735 141.317 96.3409 142.383C102.065 143.287 107.813 144.191 113.537 145.187C116.944 145.79 117.176 145.975 117.153 149.683C117.129 155.779 116.921 161.851 116.735 167.946C116.527 175.13 116.063 182.292 116.11 189.476C116.156 204.54 116.457 219.604 116.666 234.669C116.712 237.635 116.735 240.602 116.782 243.568C116.782 243.869 116.782 244.194 116.782 244.495C116.643 247.833 116.017 248.273 113.004 247.693C104.777 246.118 96.5263 244.588 88.2757 243.151C79.3762 241.598 70.4304 240.161 61.5078 238.678C53.5353 237.334 45.5629 236.013 37.5904 234.622C34.4154 234.066 31.2403 233.417 28.0884 232.676C24.867 231.911 24.2644 231.076 24.1022 227.554C23.8936 224.981 23.8704 222.409 23.7777 219.813ZM114.209 147.876C84.6603 143.565 55.204 139.254 25.5854 134.944C25.5854 136.126 25.5854 137.145 25.5854 138.165C25.6086 146.833 25.794 155.5 25.655 164.145C25.3305 183.427 25.0292 202.686 26.4429 221.945C26.6283 224.356 26.8137 226.743 26.9991 229.199C27.3468 229.315 27.6017 229.431 27.8798 229.477C35.3192 230.868 42.7586 232.397 50.2212 233.626C61.3224 235.48 72.4467 237.102 83.5479 238.91C89.8517 239.93 96.1555 241.065 102.436 242.247C106.121 242.919 109.76 243.777 113.699 244.588C114.209 228.481 112.935 212.513 113.213 196.545C113.491 180.461 113.885 164.4 114.209 147.876ZM21.4833 155.593C21.8773 154.875 21.97 154.759 22.0164 154.62C23.3374 151.097 22.9434 147.435 22.8275 143.797C22.8043 142.939 22.1091 142.754 21.182 142.962C20.9503 146.416 20.649 149.892 20.4868 153.368C20.4868 153.948 21.0198 154.597 21.4833 155.593ZM21.9932 198.978C21.7846 199.395 21.576 199.673 21.576 199.928C21.6687 204.61 21.7614 209.268 21.9237 213.95C21.9468 214.738 22.1554 215.572 22.9202 216.198C23.2679 214.344 23.0361 201.991 22.6189 199.766C22.5726 199.511 22.2945 199.326 21.9932 198.978Z" fill="#001064"/>
<path d="M74.6745 185.556C76.3385 191.568 74.6416 200.629 67.2258 204.731C65.1666 205.87 63.0458 206.8 60.6296 207.01C57.4816 207.287 54.7929 206.374 52.4314 204.443C49.2107 201.807 46.7055 198.64 45.4213 194.658C45.11 193.679 44.8445 192.648 44.81 191.643C44.6983 186.41 47.1218 179.522 53.501 176.649C55.956 175.544 58.4371 174.731 61.1319 174.57C65.5876 174.319 69.0646 176.107 71.4993 179.653C72.7719 181.476 73.6376 183.569 74.6745 185.556ZM53.9796 181.885C48.5273 183.843 47.7833 185.306 47.4153 190.154C47.412 190.212 47.3901 190.274 47.3868 190.332C47.3334 194.598 50.6231 198.492 54.8669 199.168C57.4917 199.592 59.6499 198.65 60.9661 196.379C62.6021 193.542 63.3494 190.518 62.6715 187.278C62.1806 184.941 60.6265 183.334 58.7182 182.039C57.2639 181.042 55.692 181.358 53.9796 181.885ZM63.62 183.084C63.8781 183.816 64.285 184.297 65.1853 184.387C65.8784 184.463 66.7227 184.57 66.5961 185.717C66.1261 185.913 65.6375 186.115 65.0233 186.372C65.2743 187.012 65.0213 187.802 65.9884 188.117C66.6614 188.331 67.5504 188.725 67.2144 189.577C67.0776 189.937 66.125 190.013 65.3834 190.252C65.3484 190.545 65.3036 191.009 65.2671 191.434C65.7026 191.737 66.1072 191.937 66.3643 192.255C66.5925 192.545 66.6784 192.971 66.8287 193.34C66.4553 193.451 66.0973 193.613 65.7221 193.65C65.4453 193.676 65.1732 193.512 64.8657 193.434C64.4941 194.372 63.9882 195.199 63.8644 196.082C63.7575 196.885 64.0702 197.732 64.2218 198.722C63.4541 198.668 62.88 198.65 62.3381 198.604C61.7874 199.144 61.2689 199.655 60.7554 200.184C60.7489 200.299 60.7424 200.413 60.7545 200.523C60.7657 200.971 60.7904 201.396 60.8016 201.844C60.3395 201.793 59.8929 201.794 59.4392 201.703C59.0943 201.636 58.7625 201.34 58.4433 201.36C56.645 201.461 54.8486 201.637 53.1404 201.769C54.6675 203.421 57.2567 204.683 59.4232 204.454C64.033 203.968 67.7902 201.912 70.1673 197.877C73.8304 191.674 72.2962 185.209 68.5118 180.334C67.2583 178.712 65.5506 177.546 63.4509 177.248C59.671 176.697 56.2308 177.7 53.0239 179.762C55.259 179.079 57.4778 178.684 59.5994 179.671C60.3271 179.248 60.9459 178.801 61.6213 178.544C61.9335 178.432 62.3671 178.661 62.7596 178.751C62.6737 179.077 62.6508 179.479 62.4595 179.724C62.1631 180.094 61.7323 180.354 61.378 180.666C61.7878 181.635 62.5616 181.368 63.2799 181.323C63.9743 181.268 64.7598 180.903 65.2242 181.987C64.6968 182.332 64.1745 182.694 63.62 183.084Z" fill="#001064"/>
<path d="M15.0293 246.469C15.0293 248.932 15.0791 251.243 16.1843 253.496C17.1133 255.39 19.6385 256.551 21.6947 256.14C23.5896 255.761 25.5901 254.427 26.0224 252.438C26.3374 250.989 26.8016 249.443 26.8016 247.972" stroke="#001064" stroke-width="3" stroke-linecap="round" stroke-linejoin="round"/>
<path d="M113.09 261.373C113.148 264.994 115.637 270.304 119.992 269.987C121.992 269.841 124.143 268.978 125.363 267.322C125.848 266.664 126.49 265.729 126.49 264.88" stroke="#001064" stroke-width="3" stroke-linecap="round" stroke-linejoin="round"/>
<path d="M202.258 242.962C202.258 245.379 202.7 247.317 204.575 248.904C205.093 249.342 206.157 249.224 206.78 249.224C207.702 249.224 208.498 249.172 209.341 248.751C210.874 247.984 211.718 246.083 212.207 244.527C212.631 243.178 213.028 241.754 213.028 240.332" stroke="#001064" stroke-width="3" stroke-linecap="round" stroke-linejoin="round"/>
<path d="M86.4046 16.1073L82.4998 10.25L81.5236 12.2024L76.6425 19.036L70.7852 21.4765L78.1068 26.3576L81.5236 32.703L84.9403 26.3576L92.7501 21.4765L92.2619 20.0122L86.4046 16.1073Z" fill="white"/>
<path d="M98.6482 21.0741C97.788 20.427 96.3719 20.4528 95.3132 20.1551C94.1486 19.8186 93.0238 19.3915 91.9651 18.8478C89.7947 17.7347 87.889 16.2203 86.4333 14.3952C84.9379 12.5183 83.9189 10.2791 83.4557 8.00099C83.4425 7.91038 83.416 7.80683 83.4028 7.71623C83.8262 5.43813 83.9189 3.1212 83.5748 0.959603C83.3763 -0.334769 81.1001 -0.321826 80.9942 1.01138C80.9677 1.29614 80.9545 1.5809 80.9677 1.86566C80.9677 1.96921 80.981 2.05982 81.0074 2.15043C81.0339 3.96255 81.0471 5.74878 80.7427 7.57385C80.3722 9.80017 79.684 12.0006 78.7047 14.0716C77.8578 15.8708 76.7064 17.6052 75.0257 18.8737C73.173 20.2716 70.9762 20.7506 68.6073 20.7764C67.853 20.7894 67.5354 21.6566 68.2764 21.9673C68.9381 22.2391 69.6131 22.3944 70.2615 22.4462C70.5924 22.6533 70.91 22.8474 71.2938 23.0157C72.0216 23.3393 72.723 23.6758 73.3847 24.103C74.7346 24.9443 75.9256 25.9798 76.8917 27.1706C78.9694 29.7464 79.8428 33.0471 79.4855 36.1924C79.4061 36.9043 79.9222 37.3444 80.5178 37.4609C81.1662 38.5223 83.0322 38.1469 82.9263 36.7619C82.6352 32.9047 83.6807 29.1251 86.8568 26.3552C88.3125 25.0867 90.0197 24.1806 91.9121 23.5464C93.1429 23.1193 94.4266 22.951 95.697 22.7568C96.6498 23.0028 97.6556 23.1451 98.4629 22.8086C99.2569 22.4721 99.2834 21.5401 98.6482 21.0741ZM91.2372 21.3589C88.8948 22.0061 86.6847 23.2228 84.9643 24.789C83.4425 26.174 82.1985 27.8955 81.3515 29.7594C80.8354 28.4132 80.0943 27.1189 79.1282 25.941C78.0033 24.556 76.5608 23.3393 74.9595 22.4074C74.6022 22.2003 74.2317 22.0061 73.8479 21.8119C76.5873 20.6858 78.9297 18.2265 80.2266 16.052C81.0074 14.7447 81.6823 13.3079 82.2382 11.8194C82.7543 13.1008 83.4292 14.3305 84.2762 15.4825C85.8378 17.6052 87.9949 19.4174 90.4167 20.7117C90.774 20.9059 91.1446 21.0871 91.5151 21.2554C91.4357 21.3071 91.3431 21.333 91.2372 21.3589Z" fill="#001064"/>
<path d="M127.225 55.4576L122.907 48.9805L121.828 51.1395L116.43 58.6961L109.953 61.3949L118.05 66.7925L121.828 73.8094L125.606 66.7925L134.242 61.3949L133.703 59.7757L127.225 55.4576Z" fill="white"/>
<path d="M140.766 60.9487C139.815 60.233 138.249 60.2616 137.078 59.9324C135.79 59.5603 134.546 59.0879 133.376 58.4868C130.976 57.2558 128.868 55.5812 127.259 53.563C125.605 51.4875 124.478 49.0113 123.966 46.4922C123.951 46.392 123.922 46.2775 123.907 46.1773C124.376 43.6581 124.478 41.096 124.098 38.7057C123.878 37.2743 121.361 37.2887 121.244 38.7629C121.215 39.0778 121.2 39.3927 121.215 39.7076C121.215 39.8221 121.229 39.9223 121.258 40.0225C121.288 42.0264 121.302 44.0016 120.966 46.0198C120.556 48.4817 119.795 50.915 118.712 53.2051C117.776 55.1947 116.502 57.1127 114.644 58.5154C112.595 60.0613 110.166 60.5908 107.546 60.6195C106.712 60.6338 106.361 61.5928 107.18 61.9363C107.912 62.2369 108.658 62.4087 109.376 62.4659C109.741 62.6949 110.093 62.9096 110.517 63.0957C111.322 63.4535 112.097 63.8257 112.829 64.298C114.322 65.2284 115.639 66.3735 116.707 67.6903C119.005 70.5387 119.971 74.1886 119.576 77.6667C119.488 78.454 120.058 78.9406 120.717 79.0694C121.434 80.2431 123.498 79.828 123.38 78.2965C123.059 74.0311 124.215 69.8516 127.727 66.7885C129.337 65.3858 131.224 64.3839 133.317 63.6825C134.678 63.2102 136.098 63.0241 137.502 62.8094C138.556 63.0814 139.668 63.2388 140.561 62.8667C141.439 62.4945 141.468 61.464 140.766 60.9487ZM132.571 61.2636C129.98 61.9792 127.537 63.3247 125.634 65.0566C123.951 66.5882 122.576 68.4918 121.639 70.553C121.068 69.0644 120.249 67.633 119.18 66.3305C117.937 64.799 116.341 63.4535 114.571 62.423C114.176 62.1939 113.766 61.9792 113.341 61.7645C116.371 60.5193 118.961 57.7997 120.395 55.3951C121.258 53.9494 122.005 52.3606 122.619 50.7146C123.19 52.1316 123.937 53.4914 124.873 54.7653C126.6 57.1127 128.985 59.1166 131.663 60.5479C132.059 60.7626 132.468 60.963 132.878 61.1491C132.79 61.2063 132.688 61.235 132.571 61.2636Z" fill="#001064"/>
<path fill-rule="evenodd" clip-rule="evenodd" d="M32.185 72.8947C31.3586 73.6024 30.78 74.5377 30.0568 75.4319C29.6022 75.9311 29.7674 76.4495 30.2631 76.9047C31.6263 78.7065 33.6299 79.9049 35.4063 81.3528C37.7198 83.1106 40.4052 84.66 42.9459 86.1682C43.8754 86.7468 44.2473 86.5383 44.7846 85.7483C46.2931 83.192 46.2931 83.192 43.9383 81.5795C40.2615 79.1197 36.6674 76.3692 33.2179 73.6598C32.8254 73.391 32.4329 73.1223 32.185 72.8947Z" fill="#001064"/>
<path fill-rule="evenodd" clip-rule="evenodd" d="M59.1262 55.1227C58.8643 54.7256 58.9718 54.5415 59.4101 54.4252C59.5561 54.3864 59.8097 54.1635 59.9558 54.1247C62.4693 52.9907 62.6154 52.9519 63.8555 55.2669C65.7736 58.9574 67.5842 62.8319 69.5023 66.5224C69.8027 67.0648 69.7338 67.3942 69.3342 67.6559C68.0967 68.2955 66.8978 69.0805 65.6603 69.7202C65.1146 70.0206 64.9299 69.9141 64.6295 69.3717C62.7721 64.7318 60.9147 60.092 59.0958 55.5974C59.2033 55.4133 59.1647 55.268 59.1262 55.1227Z" fill="#001064"/>
<path fill-rule="evenodd" clip-rule="evenodd" d="M99.2604 54.7983C99.4559 58.4795 99.0286 62.1705 98.7474 65.8227C98.786 65.968 98.7557 66.4427 98.6096 66.4815C97.2564 66.6852 96.1485 66.0461 94.8642 65.9205C94.0566 65.8238 94.3405 65.1263 94.3709 64.6516C94.6135 60.854 94.8562 57.0565 94.9527 53.2977C95.052 52.4937 95.3055 52.2708 96.1131 52.3675C96.2977 52.474 96.5898 52.3964 96.7359 52.3576C98.9738 52.5412 98.9738 52.5412 99.2604 54.7983Z" fill="#001064"/>
<path d="M136.519 112.104L136.57 112.082L136.619 112.054C137.344 111.644 137.482 110.839 137.429 110.337C137.377 109.847 137.061 109.018 136.16 108.851L90.8126 99.7502L90.8093 99.7496C89.5103 99.4934 88.1863 99.6574 86.9688 100.198L81.1792 102.724C79.8477 103.305 80.037 105.25 81.4555 105.563L124.082 114.98C126.528 115.52 129.081 115.281 131.384 114.297L136.519 112.104Z" stroke="#001064" stroke-width="2" stroke-miterlimit="10"/>
<path d="M96.3031 108.489L121.462 112.907L123.406 110.356L123.3 105.849L122.145 99.3618L120.56 95.8915L116.984 92.9692L113.454 92.05L110.426 91.1191L106.932 91.7024L100.981 94.3479L98.0235 96.4219L96.1616 102.479L96.3031 108.489Z" fill="#FFE2DC"/>
<path d="M96.6203 108.319C96.4767 107.068 96.2246 105.863 96.2126 104.601C96.2062 103.931 96.3057 103.214 96.3867 102.55C96.5294 101.38 96.8776 100.254 97.2851 99.15C97.8151 97.7138 98.3384 96.4019 99.4354 95.2761C100.286 94.4028 101.251 93.8199 102.304 93.2186C103.349 92.622 104.645 92.1901 105.803 91.8429C106.675 91.5818 107.536 91.3437 108.439 91.2061C109.447 91.0526 110.685 91.2308 111.682 91.4259C112.563 91.5983 113.643 91.646 114.445 92.0707C115.343 92.5453 116.325 92.7882 117.206 93.3338C118.178 93.936 119.105 94.6857 119.894 95.5001C120.235 95.8524 120.598 96.2546 120.878 96.657C121.216 97.1435 121.42 97.7339 121.799 98.1986C122.511 99.0728 122.794 100.403 122.975 101.48C123.224 102.969 123.27 104.572 123.305 106.08C123.33 107.124 123.336 108.235 123.1 109.259C122.802 110.551 122.502 110.723 121.939 111.894" stroke="#001064" stroke-width="2" stroke-linecap="round" stroke-linejoin="round"/>
<path d="M107.926 91.3515C108.956 91.1405 109.681 91.062 110.716 91.2277C111.433 91.3425 112.282 91.4899 112.895 91.8695C114.012 92.5607 115.35 93.3783 116.017 94.4948C117.214 95.6669 119.533 99.1058 119.235 103.485C119.26 104.522 119.263 105.69 119.012 106.702C118.875 107.252 118.749 107.832 118.522 108.353C118.373 108.695 118.313 109.168 118.09 109.471C117.807 109.856 117.326 110.8 116.907 111.01" stroke="#001064" stroke-width="2" stroke-linecap="round" stroke-linejoin="round"/>
</svg>
