<svg width="318" height="218" viewBox="0 0 318 218" fill="none" xmlns="http://www.w3.org/2000/svg">
<ellipse cx="61.7264" cy="68.5617" rx="61.7264" ry="61.7492" fill="#FFD9D1"/>
<path d="M188.228 3L99.8301 193.584" stroke="#001064" stroke-width="5" stroke-linecap="round" stroke-dasharray="12 12"/>
<path d="M47.2365 34.9695C47.084 34.9695 46.8554 34.9695 46.703 34.8915C45.941 34.5795 45.5599 33.7217 45.7885 32.9419C47.1602 29.0428 50.8181 26.1574 54.857 25.7675C58.8959 25.3776 63.011 27.5611 65.0685 31.0703C65.4495 31.7722 65.2209 32.708 64.5351 33.1759C63.8492 33.5658 62.9348 33.3318 62.4775 32.63C61.0296 30.0566 57.9814 28.4969 55.0856 28.8088C52.1898 29.0428 49.5226 31.2263 48.5319 33.9557C48.4557 34.5795 47.8461 34.9695 47.2365 34.9695Z" fill="#001064"/>
<path d="M81.149 64.9932C78.558 64.9932 76.0432 63.7455 74.5953 61.562C74.1381 60.8601 74.2905 59.9243 74.9764 59.4564C75.6622 58.9885 76.5767 59.1445 77.0339 59.8463C78.177 61.6399 80.768 62.4198 82.8255 61.6399C84.8831 60.8601 86.4072 58.5986 86.5596 56.2591C86.7882 52.9059 84.6545 50.8004 82.2159 48.3049C79.4725 45.5756 76.3481 42.3783 76.5767 37.0755C76.7291 32.6305 79.3201 27.0157 83.74 25.3781C86.4834 24.3643 90.8271 24.7542 95.7043 32.4745C96.1615 33.1763 95.9329 34.1121 95.247 34.58C94.5612 35.0479 93.6467 34.814 93.1895 34.1121C91.0557 30.8369 87.9313 27.0937 84.7307 28.2634C81.6825 29.3552 79.6249 33.8002 79.5487 37.2314C79.3963 41.2085 81.7587 43.626 84.3496 46.1994C86.9406 48.7728 89.9126 51.7362 89.6078 56.4931C89.3792 60.0803 87.093 63.3556 83.9686 64.5253C82.9779 64.8372 82.0635 64.9932 81.149 64.9932Z" fill="#001064"/>
<path d="M72.9937 84.8795C72.9175 84.8795 72.9175 84.8795 72.8413 84.8795C66.059 84.8015 59.3529 81.2923 55.4664 75.5995C55.0092 74.8977 55.1616 73.9619 55.8475 73.494C56.5333 73.0261 57.4478 73.1821 57.905 73.8839C61.3343 78.7968 67.0497 81.8381 72.9175 81.8381H72.9937C78.7853 81.8381 84.5769 78.8748 88.0062 74.0399C88.4634 73.3381 89.4541 73.1821 90.0637 73.728C90.7496 74.1959 90.902 75.2096 90.3685 75.8335C86.4058 81.4482 79.776 84.8795 72.9937 84.8795Z" fill="#001064"/>
<path d="M90.6734 81.1358C89.9113 81.1358 89.3017 80.5899 89.2255 79.8101C88.9207 77.3146 87.549 74.8972 85.5676 73.4155C84.8818 72.9476 84.8056 71.9338 85.2628 71.31C85.72 70.6081 86.7107 70.5301 87.3204 70.998C89.9875 73.0256 91.7403 76.1449 92.1213 79.4981C92.1975 80.3559 91.6641 81.0578 90.8258 81.2138C90.7496 81.1358 90.7496 81.1358 90.6734 81.1358Z" fill="#001064"/>
<path d="M53.1046 81.214C52.9522 81.214 52.7998 81.214 52.6474 81.1361C51.8853 80.9021 51.4281 80.0443 51.6567 79.2645C52.5712 76.1452 54.6287 73.4158 57.2959 71.5442C57.9817 71.0763 58.8962 71.3103 59.3534 72.0121C59.8107 72.7139 59.5821 73.6497 58.8962 74.1176C56.8387 75.5213 55.1622 77.7048 54.4763 80.2003C54.3239 80.7461 53.7905 81.214 53.1046 81.214Z" fill="#001064"/>
<path d="M71.0127 93.2212C68.2693 93.2212 65.5259 92.6754 63.0111 91.5836C62.2491 91.2717 61.8681 90.3359 62.2491 89.5561C62.5539 88.7762 63.4684 88.3863 64.2304 88.7762C68.9552 90.8038 74.5944 90.5698 79.1667 88.2304C79.9287 87.8405 80.767 88.1524 81.148 88.9322C81.5291 89.712 81.2242 90.5698 80.4622 90.9598C77.4902 92.4414 74.2133 93.2212 71.0127 93.2212Z" fill="#001064"/>
<rect width="98.3777" height="98.4082" rx="22" transform="matrix(0.959266 -0.282504 0.282312 0.959323 195.848 33.8438)" fill="#FFE9BE"/>
<path d="M164.209 98.8808L143.839 193.039C142.761 198.024 146.558 202.731 151.658 202.731H287C294.516 202.731 297.884 193.304 292.069 188.542L177.097 94.3831C172.47 90.5939 165.474 93.0357 164.209 98.8808Z" fill="#BAF0DF"/>
<path d="M239.036 79.9287C236.085 80.2747 233.053 79.9393 230.244 78.887C229.519 78.5883 229.127 77.8666 229.341 77.074C232.637 65.2511 233.461 52.6433 231.722 40.4129C226.414 43.5682 220.042 44.8524 213.877 43.9633C213.093 43.8249 212.542 43.0453 212.604 42.2704C212.743 41.4866 213.522 40.9347 214.297 40.9974C220.471 41.9622 226.883 40.3662 231.977 36.6987C232.405 36.4184 232.935 36.3562 233.415 36.5301C233.896 36.7041 234.252 37.1229 234.314 37.6529C236.512 50.5203 235.927 63.8675 232.645 76.4564C236.05 77.362 239.861 77.1455 243.076 75.7708C243.806 75.4549 244.692 75.8116 245.008 76.5422C245.324 77.2727 244.967 78.1588 244.237 78.4747C242.567 79.2845 240.777 79.7246 239.036 79.9287Z" fill="#001064"/>
<path d="M259.659 39.8248L243.275 41.4385C242.442 41.5361 241.757 40.9257 241.659 40.0928C241.562 39.2599 242.163 38.4986 243.005 38.4767L259.313 36.8719C260.146 36.7743 260.831 37.3847 260.928 38.2176C261.093 38.9659 260.491 39.7272 259.659 39.8248Z" fill="#001064"/>
<path d="M251.676 48.9741C251.818 50.1855 250.95 51.2852 249.739 51.4271C248.528 51.5691 247.428 50.7002 247.287 49.4887C247.145 48.2773 248.013 47.1776 249.224 47.0356C250.435 46.8937 251.534 47.7626 251.676 48.9741Z" fill="#001064"/>
<path d="M227.911 51.7592C228.053 52.9707 227.184 54.0703 225.973 54.2123C224.762 54.3543 223.663 53.4853 223.521 52.2739C223.379 51.0624 224.248 49.9628 225.459 49.8208C226.67 49.6788 227.769 50.5478 227.911 51.7592Z" fill="#001064"/>
<path d="M244.67 104.445C241.642 104.8 238.593 104.313 235.909 103.016C230.145 100.314 226.092 93.8812 225.823 87.0047C225.81 86.2387 226.345 85.562 227.102 85.4733L257.528 81.9063C257.982 81.853 258.387 82.0358 258.725 82.3032C259.073 82.6463 259.193 83.016 259.17 83.4791C258.812 88.28 258.27 94.7909 254.435 99.3853C252.079 102.194 248.605 103.983 244.67 104.445ZM228.886 88.2576C229.573 93.4731 232.817 98.2354 237.205 100.331C239.324 101.387 241.902 101.776 244.324 101.492C247.502 101.119 250.254 99.7219 252.143 97.5049C254.842 94.3485 255.641 90.0333 256.057 85.0721L228.886 88.2576Z" fill="#001064"/>
<g clip-path="url(#clip0)">
<path d="M195.803 145.537C195.292 145.325 194.978 144.819 194.999 144.227C195.119 141.047 198.068 138.817 200.863 138.401C203.568 138.022 206.294 138.854 208.419 139.511L225.75 145.056C226.48 145.283 226.842 146.035 226.614 146.766C226.385 147.497 225.635 147.862 224.905 147.634L207.574 142.089C205.577 141.485 203.351 140.711 201.264 141.046C199.576 141.321 197.772 142.6 197.672 144.285C197.661 145.032 197.05 145.604 196.304 145.595C196.15 145.606 195.995 145.617 195.803 145.537Z" fill="#001064"/>
<path d="M169.781 171.227C167.289 170.192 165.967 169.042 166.014 167.485C166.002 165.527 168.589 163.447 171.889 160.912C172.538 160.431 173.097 159.987 173.331 159.784C175.96 157.421 178.434 155.069 180.515 152.403C182.164 150.234 183.893 147.873 184.93 145.375C186.046 142.684 186.199 139.969 185.457 137.783C184.246 134.201 180.56 132.07 177.525 131.26C173.887 130.275 169.899 130.496 166.065 130.707C165.293 130.761 164.696 130.213 164.643 129.44C164.589 128.667 165.137 128.068 165.909 128.013C169.769 127.739 174.13 127.522 178.242 128.628C183.019 129.936 186.679 133.033 188.002 136.887C188.941 139.68 188.741 143.052 187.449 146.346C186.253 149.228 184.471 151.718 182.678 154.052C180.454 156.884 177.862 159.337 175.116 161.802C174.765 162.107 174.206 162.55 173.466 163.069C172.258 163.994 169.075 166.428 168.65 167.453C169.252 168.529 173.476 169.907 181.219 171.471C182.385 171.73 183.296 171.883 183.834 172.031C184.564 172.259 184.953 172.946 184.788 173.704C184.56 174.435 183.873 174.826 183.117 174.662C182.643 174.54 181.759 174.323 180.656 174.091C175.938 173.183 172.274 172.262 169.781 171.227Z" fill="#001064"/>
<path d="M175.592 190.991C175.081 190.779 174.532 190.476 174.074 190.135C172.177 188.747 171.052 186.402 171.2 184.06C171.21 183.314 171.886 182.768 172.632 182.777C173.377 182.786 173.921 183.463 173.91 184.21C173.826 185.677 174.551 187.179 175.697 188.031C176.842 188.882 178.536 189.134 179.866 188.636C181.261 188.163 182.357 186.966 182.724 185.541C182.952 184.81 183.666 184.355 184.395 184.583C185.125 184.811 185.578 185.525 185.349 186.256C184.765 188.567 183.004 190.464 180.731 191.247C179.027 191.742 177.19 191.655 175.592 190.991Z" fill="#001064"/>
<path d="M198.82 157.17C198.82 155.788 199.144 154.991 199.797 153.829C200.233 153.054 201.147 152.476 201.809 151.888C202.838 150.973 205.059 150.213 206.234 151.127C207.206 151.883 207.096 153.421 207.096 154.526C207.096 155.309 207.086 156.07 206.892 156.825C206.743 157.405 206.407 158.067 206.407 158.665" stroke="#001064" stroke-width="4" stroke-linecap="round" stroke-linejoin="round"/>
<path d="M168.846 146.713C168.846 145.331 169.17 144.534 169.823 143.372C170.259 142.597 171.173 142.019 171.834 141.43C172.863 140.516 175.084 139.756 176.26 140.67C177.231 141.426 177.122 142.964 177.122 144.069C177.122 144.852 177.111 145.613 176.917 146.368C176.768 146.948 176.432 147.61 176.432 148.208" stroke="#001064" stroke-width="4" stroke-linecap="round" stroke-linejoin="round"/>
</g>
<defs>
<clipPath id="clip0">
<rect width="64.016" height="81.5655" fill="white" transform="matrix(0.923536 0.383511 -0.38327 0.923636 169.193 118.113)"/>
</clipPath>
</defs>
</svg>
