<svg width="254" height="240" viewBox="0 0 254 240" fill="none" xmlns="http://www.w3.org/2000/svg">
<rect x="57.3066" y="130.457" width="131.544" height="68.5248" fill="#D3ECFF"/>
<rect width="100.338" height="111.955" rx="9" transform="matrix(0.977466 0.211093 -0.206407 0.978466 155.924 11.8086)" fill="#FFD9D1"/>
<ellipse cx="63.1669" cy="92.9008" rx="63.1669" ry="63.9125" fill="#FFE9BE"/>
<path d="M132.744 67.0538C132.215 67.0132 131.721 66.8115 131.394 66.4587C130.412 65.4005 130.561 63.4464 131.664 62.0568C139.552 52.1788 150.347 46.2914 160.596 46.0952C170.976 45.9091 179.983 51.5146 184.923 61.0667C185.572 62.427 185.158 64.3609 183.825 65.569C182.527 66.616 180.942 66.4943 180.16 65.1239C176.1 57.1134 168.144 52.2439 159.647 52.4107C151.019 52.5675 141.718 57.7505 135.134 65.9268C134.433 66.692 133.537 67.1146 132.744 67.0538Z" fill="#001064"/>
<path d="M100.316 130.915C98.8043 130.798 97.3835 130.246 96.2861 129.277C93.6007 126.861 92.3302 122.2 92.9555 116.951C93.3991 112.57 95.0055 108.28 96.521 104.424L106.195 77.9501C108.337 72.2298 110.716 65.9394 110.269 60.1651C109.888 53.513 105.362 48.5991 99.7192 48.455C94.1628 48.4647 88.0418 53.4343 85.4856 60.0053C84.9198 61.5802 83.4589 62.3497 82.3566 61.9697C81.138 61.5807 80.7735 59.9335 81.309 58.5035C84.729 49.4977 93.1044 42.7901 100.668 42.7892C108.231 42.7882 114.371 49.5935 114.966 58.6169C115.458 65.8663 112.604 73.2973 110.402 79.3071L100.642 105.628C99.3032 109.203 97.9342 112.923 97.5561 116.425C97.178 119.928 97.8514 122.924 99.4394 124.371C100.218 125.168 101.467 125.412 102.721 125.068C103.216 124.959 104.237 124.597 104.945 123.475C105.799 122.217 107.316 121.746 108.327 122.56C109.222 123.366 109.324 125.14 108.439 126.543C107.055 128.642 105.124 129.964 102.996 130.535C101.974 130.897 101.13 130.978 100.316 130.915Z" fill="#001064"/>
<path d="M112.4 166.959C101.038 166.037 90.6438 161.13 82.6175 152.691C81.6229 151.594 81.6388 149.564 82.7534 148.131C83.8681 146.697 85.5763 146.328 86.5709 147.424C94.7308 155.875 105.695 160.658 117.399 160.592C129.102 160.526 141.512 155.776 152.279 147.169C153.591 146.09 155.294 146.397 155.819 147.794C156.476 149.202 155.891 151.356 154.613 152.268C142.87 161.643 129.287 166.805 116.346 166.94C115.073 167.176 113.737 167.067 112.4 166.959Z" fill="#001064"/>
<path d="M139.836 90.1433C140.277 88.7181 140.888 87.3513 141.787 86.1767C142.709 84.9735 143.773 83.6631 144.93 82.7206C145.866 81.9573 146.571 81.3626 147.767 81.1654C149.423 80.8925 151.091 80.8936 152.63 81.5896C154.344 82.3643 156.71 84.4184 157.233 86.4045C157.764 88.4203 157.933 90.1753 157.933 92.264" stroke="#001064" stroke-width="3.74091" stroke-linecap="round" stroke-linejoin="round"/>
<path d="M92.5046 83.8142C92.0156 81.1561 91.4864 77.9867 88.7832 76.2887C87.3084 75.3623 84.9287 75.0347 83.2701 75.7559C82.4541 76.1108 81.7479 76.4186 81.0649 76.9813C80.3444 77.575 80.0718 78.1359 79.656 78.8993C79.1721 79.7879 78.584 81.0321 78.584 82.0161" stroke="#001064" stroke-width="3.74091" stroke-linecap="round" stroke-linejoin="round"/>
<path d="M41.678 195.773L25.3575 28.7025C24.7619 22.6058 29.2609 17.1871 35.3632 16.6512L187.292 3.30751L228.208 38.0295L244.023 222.376" stroke="#001064" stroke-width="4" stroke-linecap="round"/>
<path d="M184.291 4.69141C185.413 11.7876 186.722 18.9684 188.198 25.9956L190.839 41.9188C191.215 43.6302 197.169 41.5709 197.966 41.4429C206.792 40.0272 215.721 38.9538 224.666 38.9538" stroke="#001064" stroke-width="4" stroke-linecap="round" stroke-linejoin="round"/>
<path d="M144.568 142.402C146.388 142.697 147.71 142.688 149.199 143.867C151.006 145.298 152.91 146.609 154.318 148.479C155.539 150.1 156.389 152.505 156.869 154.445C157.39 156.556 157.592 159.156 157.592 161.327C157.592 162.599 157.807 164.041 157.267 165.134" stroke="#001064" stroke-width="4" stroke-linecap="round" stroke-linejoin="round"/>
</svg>
