<svg width="50" height="16" viewBox="0 0 50 16" fill="none" xmlns="http://www.w3.org/2000/svg">
<path d="M1.97864 3.99381C2.99919 3.99381 3.66568 3.34313 3.66568 2.41957C3.66568 1.51701 2.99919 0.845336 1.97864 0.845336C0.937248 0.845336 0.249933 1.51701 0.249933 2.41957C0.249933 3.34313 0.937248 3.99381 1.97864 3.99381ZM0.437382 15.8111H3.6032C3.87396 15.8111 4.06141 15.6852 4.06141 15.4962V15.4123C4.06141 14.9505 3.20747 14.8665 3.20747 14.0479V5.96686C3.20747 5.63102 2.93671 5.37914 2.45767 5.61003L0.374899 6.65952C0.145794 6.78546 0 6.86942 0 7.03734V7.10031C0 7.47813 0.770626 7.68802 0.770626 8.54861V14.0479C0.770626 14.8665 0 14.9505 0 15.4123V15.4962C0 15.6852 0.166622 15.8111 0.437382 15.8111Z" fill="#001064"/>
<path d="M24.6563 0.908306H22.2195C21.9695 0.908306 21.8029 1.01326 21.8029 1.22315V1.28612C21.8029 1.7479 22.8235 1.83186 22.5527 2.65046L19.4494 12.6416L16.3044 2.65046C16.0336 1.70592 17.1167 1.70592 17.1167 1.24414V1.20216C17.1167 1.01326 16.9709 0.908306 16.7209 0.908306H13.0553C12.8053 0.908306 12.6595 1.01326 12.6595 1.20216V1.24414C12.6595 1.70592 13.5343 1.81087 13.8051 2.65046L14.5132 4.79143L11.7848 12.6626L8.11909 2.67145C7.80668 1.81087 8.82724 1.7479 8.82724 1.26513V1.20216C8.82724 1.03424 8.66061 0.908306 8.38985 0.908306H4.72417C4.47424 0.908306 4.30762 1.01326 4.30762 1.20216V1.24414C4.30762 1.7479 5.07824 1.70592 5.47397 2.67145L10.4101 15.1394C10.5976 15.6012 10.8475 15.8111 11.3474 15.8111C11.7223 15.8111 12.0764 15.6012 12.243 15.0974L15.1589 6.7015L17.9914 15.1394C18.1581 15.6012 18.4913 15.8111 18.9287 15.8111C19.3452 15.8111 19.7618 15.6222 19.9284 15.0974L23.9898 2.65046C24.3022 1.72691 25.0729 1.72691 25.0729 1.26513V1.20216C25.0729 1.03424 24.9271 0.908306 24.6563 0.908306Z" fill="#001064"/>
<path d="M27.6834 3.99381C28.7039 3.99381 29.3704 3.34313 29.3704 2.41957C29.3704 1.51701 28.7039 0.845336 27.6834 0.845336C26.642 0.845336 25.9547 1.51701 25.9547 2.41957C25.9547 3.34313 26.642 3.99381 27.6834 3.99381ZM26.1421 15.8111H29.3079C29.5787 15.8111 29.7661 15.6852 29.7661 15.4962V15.4123C29.7661 14.9505 28.9122 14.8665 28.9122 14.0479V5.96686C28.9122 5.63102 28.6414 5.37914 28.1624 5.61003L26.0796 6.65952C25.8505 6.78546 25.7047 6.86942 25.7047 7.03734V7.10031C25.7047 7.47813 26.4753 7.68802 26.4753 8.54861V14.0479C26.4753 14.8665 25.7047 14.9505 25.7047 15.4123V15.4962C25.7047 15.6852 25.8713 15.8111 26.1421 15.8111Z" fill="#001064"/>
<path d="M31.3845 15.8111H34.5503C34.8211 15.8111 35.0086 15.6852 35.0086 15.4962V15.4333C35.0086 14.9505 34.1546 14.8875 34.1546 14.0689V0.42554C34.1546 0.110693 33.8839 -0.141186 33.4048 0.089703L31.3012 1.13919C31.0929 1.24414 30.9471 1.3281 30.9471 1.51701V1.57998C30.9471 1.9578 31.7178 2.12572 31.7178 3.00729V14.0689C31.7178 14.8875 30.9471 14.9505 30.9471 15.4333V15.4962C30.9471 15.6852 31.1138 15.8111 31.3845 15.8111Z" fill="#001064"/>
<path d="M36.5892 15.8111H39.755C40.0258 15.8111 40.2132 15.6852 40.2132 15.4962V15.4333C40.2132 14.9505 39.3593 14.8875 39.3593 14.0689V0.42554C39.3593 0.110693 39.0885 -0.141186 38.6095 0.089703L36.5059 1.13919C36.2976 1.24414 36.1518 1.3281 36.1518 1.51701V1.57998C36.1518 1.9578 36.9224 2.12572 36.9224 3.00729V14.0689C36.9224 14.8875 36.1518 14.9505 36.1518 15.4333V15.4962C36.1518 15.6852 36.3184 15.8111 36.5892 15.8111Z" fill="#001064"/>
<path d="M45.6262 16C48.313 16 50 14.7196 50 13.0824C50 8.92642 43.9391 10.7525 43.9391 7.89792C43.9391 6.99536 44.6681 6.2817 45.6887 6.2817C47.8756 6.2817 47.3132 8.92642 48.7712 8.92642C49.3127 8.92642 49.7292 8.54861 49.7292 8.02386C49.7292 6.80645 48.1672 5.52607 45.5637 5.52607C43.1685 5.52607 41.4815 6.80645 41.4815 8.50663C41.4815 12.7046 47.5423 10.8365 47.5423 13.6701C47.5423 14.7406 46.73 15.2863 45.6262 15.2863C43.1893 15.2863 43.8766 12.6206 42.3146 12.6206C41.7106 12.6206 41.2732 12.9355 41.2732 13.5862C41.2732 14.7406 42.8977 16 45.6262 16Z" fill="#001064"/>
</svg>
