<svg width="74" height="24" viewBox="0 0 74 24" fill="none" xmlns="http://www.w3.org/2000/svg">
<path d="M2.92838 5.99072C4.43881 5.99072 5.42521 5.01469 5.42521 3.62936C5.42521 2.27552 4.43881 1.268 2.92838 1.268C1.38713 1.268 0.369901 2.27552 0.369901 3.62936C0.369901 5.01469 1.38713 5.99072 2.92838 5.99072ZM0.647326 23.7166H5.33273C5.73346 23.7166 6.01088 23.5277 6.01088 23.2444V23.1184C6.01088 22.4258 4.74706 22.2998 4.74706 21.0719V8.95028C4.74706 8.44653 4.34633 8.06871 3.63736 8.41504L0.554851 9.98928C0.215775 10.1782 0 10.3041 0 10.556V10.6505C0 11.2172 1.14053 11.532 1.14053 12.8229V21.0719C1.14053 22.2998 0 22.4258 0 23.1184V23.2444C0 23.5277 0.2466 23.7166 0.647326 23.7166Z" fill="#001064"/>
<path d="M36.4913 1.36246H32.8848C32.5149 1.36246 32.2683 1.51988 32.2683 1.83473V1.92919C32.2683 2.62185 33.7787 2.74779 33.378 3.97569L28.7851 18.9624L24.1305 3.97569C23.7298 2.55888 25.3327 2.55888 25.3327 1.86622V1.80325C25.3327 1.51988 25.1169 1.36246 24.747 1.36246H19.3218C18.9519 1.36246 18.7361 1.51988 18.7361 1.80325V1.86622C18.7361 2.55888 20.0308 2.7163 20.4315 3.97569L21.4795 7.18714L17.4415 18.9939L12.0163 4.00718C11.5539 2.7163 13.0643 2.62185 13.0643 1.8977V1.80325C13.0643 1.55137 12.8177 1.36246 12.417 1.36246H6.99177C6.62187 1.36246 6.37527 1.51988 6.37527 1.80325V1.86622C6.37527 2.62185 7.5158 2.55888 8.10148 4.00718L15.407 22.7091C15.6844 23.4018 16.0543 23.7166 16.7941 23.7166C17.349 23.7166 17.873 23.4018 18.1196 22.6462L22.4351 10.0523L26.6273 22.7091C26.8739 23.4018 27.3671 23.7166 28.0145 23.7166C28.631 23.7166 29.2475 23.4333 29.4941 22.6462L35.5049 3.97569C35.9673 2.59037 37.1078 2.59037 37.1078 1.8977V1.80325C37.1078 1.55137 36.8921 1.36246 36.4913 1.36246Z" fill="#001064"/>
<path d="M40.9714 5.99072C42.4818 5.99072 43.4682 5.01469 43.4682 3.62936C43.4682 2.27552 42.4818 1.268 40.9714 1.268C39.4301 1.268 38.4129 2.27552 38.4129 3.62936C38.4129 5.01469 39.4301 5.99072 40.9714 5.99072ZM38.6903 23.7166H43.3757C43.7764 23.7166 44.0539 23.5277 44.0539 23.2444V23.1184C44.0539 22.4258 42.79 22.2998 42.79 21.0719V8.95028C42.79 8.44653 42.3893 8.06871 41.6803 8.41504L38.5978 9.98928C38.2588 10.1782 38.043 10.3041 38.043 10.556V10.6505C38.043 11.2172 39.1835 11.532 39.1835 12.8229V21.0719C39.1835 22.2998 38.043 22.4258 38.043 23.1184V23.2444C38.043 23.5277 38.2896 23.7166 38.6903 23.7166Z" fill="#001064"/>
<path d="M46.4491 23.7166H51.1345C51.5352 23.7166 51.8127 23.5277 51.8127 23.2444V23.1499C51.8127 22.4258 50.5488 22.3313 50.5488 21.1034V0.63831C50.5488 0.166039 50.1481 -0.211779 49.4391 0.134554L46.3258 1.70879C46.0175 1.86622 45.8018 1.99215 45.8018 2.27552V2.36997C45.8018 2.9367 46.9423 3.18858 46.9423 4.51094V21.1034C46.9423 22.3313 45.8018 22.4258 45.8018 23.1499V23.2444C45.8018 23.5277 46.0484 23.7166 46.4491 23.7166Z" fill="#001064"/>
<path d="M54.152 23.7166H58.8374C59.2381 23.7166 59.5156 23.5277 59.5156 23.2444V23.1499C59.5156 22.4258 58.2517 22.3313 58.2517 21.1034V0.63831C58.2517 0.166039 57.851 -0.211779 57.142 0.134554L54.0287 1.70879C53.7205 1.86622 53.5047 1.99215 53.5047 2.27552V2.36997C53.5047 2.9367 54.6452 3.18858 54.6452 4.51094V21.1034C54.6452 22.3313 53.5047 22.4258 53.5047 23.1499V23.2444C53.5047 23.5277 53.7513 23.7166 54.152 23.7166Z" fill="#001064"/>
<path d="M67.5267 24C71.5032 24 74 22.0794 74 19.6236C74 13.3896 65.0299 16.1288 65.0299 11.8469C65.0299 10.493 66.1088 9.42256 67.6192 9.42256C70.8559 9.42256 70.0236 13.3896 72.1813 13.3896C72.9828 13.3896 73.5993 12.8229 73.5993 12.0358C73.5993 10.2097 71.2874 8.28911 67.4343 8.28911C63.8894 8.28911 61.3926 10.2097 61.3926 12.7599C61.3926 19.0569 70.3626 16.2547 70.3626 20.5052C70.3626 22.1109 69.1605 22.9295 67.5267 22.9295C63.9202 22.9295 64.9374 18.931 62.6256 18.931C61.7316 18.931 61.0843 19.4032 61.0843 20.3792C61.0843 22.1109 63.4887 24 67.5267 24Z" fill="#001064"/>
</svg>
