<svg width="1440" height="733" viewBox="0 0 1440 733" fill="none" xmlns="http://www.w3.org/2000/svg">
<g clip-path="url(#clip0)">
<path d="M903.78 163.771C904.222 151.396 891.847 145.651 886.101 137.254C881.239 145.651 873.284 153.606 863.561 154.932C872.842 160.235 875.052 171.284 873.726 181.449C891.405 174.819 897.592 171.284 903.78 163.771Z" fill="#FFD9D1"/>
<path d="M997.036 265.418L972.286 329.943C964.772 321.104 958.143 320.662 947.978 320.22C959.469 296.354 966.54 280.886 972.728 255.695C983.777 255.695 989.081 258.789 997.036 265.418Z" fill="#D3EDFF"/>
<path d="M692.518 10.858C696.054 1.57705 688.541 -5.49414 686.331 -13.4492C680.585 -8.58778 672.188 -4.61018 665.116 -5.93603C670.42 0.251254 669.536 9.09026 665.558 16.6034C680.585 15.7195 685.889 14.8355 692.518 10.858Z" fill="#FFE9BE"/>
<path d="M400.818 145.21C417.171 146.094 433.082 140.791 447.667 129.3C439.711 125.322 438.827 115.158 441.921 107.645C429.988 116.483 417.171 122.229 394.63 125.322C391.979 125.322 395.072 135.045 397.724 140.349C398.608 141.674 399.934 143.442 400.818 145.21Z" fill="#D3E1FF"/>
<path d="M174.087 56.3776C179.39 50.6323 188.672 50.6323 194.417 55.9356C200.163 61.239 200.163 70.5199 194.859 76.2652C189.556 82.0105 180.274 82.0105 174.529 76.7072C168.783 70.9619 168.341 62.1229 174.087 56.3776Z" fill="#DED3FF"/>
<path d="M620.919 509.815C627.107 520.422 639.924 518.212 649.647 522.631C649.205 513.35 651.857 502.302 658.928 496.114C648.763 496.556 640.808 488.601 636.83 479.32C626.223 493.463 622.245 499.65 620.919 509.815Z" fill="#BAF0DF"/>
<path d="M989.523 54.168C979.799 65.6586 974.496 80.6848 974.938 97.9208C982.451 93.9433 990.407 99.2466 994.384 105.876C994.826 92.1755 997.92 78.9171 1008.09 60.3552C1009.41 58.1455 1000.57 55.0519 995.268 54.168C993.5 54.168 991.733 54.168 989.523 54.168Z" fill="#DED3FF"/>
<path d="M1277.25 110.738L1308.18 176.147C1295.81 175.263 1290.95 180.124 1283.43 187.195C1273.71 161.562 1267.08 144.768 1252.5 121.787C1260.01 113.39 1266.64 112.064 1277.25 110.738Z" fill="#FFE9BE"/>
<path d="M1201.67 423.635L1158.8 360.879C1171.61 359.553 1175.59 353.808 1182.66 344.969C1196.81 370.16 1206.53 386.07 1225.53 407.725C1218.9 418.332 1212.28 420.984 1201.67 423.635Z" fill="#FFD9D1"/>
<path d="M590.423 398.445C599.262 397.12 601.472 387.839 606.776 382.977C600.146 380.767 593.517 375.906 591.749 369.719C589.097 376.79 582.025 379.884 574.512 379.884C581.141 390.048 584.235 394.91 590.423 398.445Z" fill="#D3EDFF"/>
<path d="M1156.59 21.4655H1112.83C1116.37 14.8362 1115.04 10.8586 1112.83 5.11328C1129.63 6.43913 1140.23 7.32303 1156.59 5.11328C1159.68 11.7425 1158.8 15.7201 1156.59 21.4655Z" fill="#D3E1FF"/>
<path d="M1263.99 15.2785C1264.43 22.3497 1259.12 28.979 1252.05 29.4209C1244.98 29.8629 1238.35 24.5594 1237.91 17.4883C1237.47 10.4171 1242.77 3.78799 1249.84 3.34604C1256.91 2.90409 1263.1 8.20738 1263.99 15.2785Z" fill="#D3EDFF"/>
<path d="M888.753 438.221C880.356 448.385 887.427 460.76 886.543 471.809C895.825 467.831 907.758 466.063 916.597 471.367C912.177 461.202 917.039 450.595 924.995 443.082C905.99 436.895 898.476 435.569 888.753 438.221Z" fill="#DED3FF"/>
<path d="M925.437 605.278C922.785 617.653 924.111 630.911 931.182 643.286C935.16 637.54 943.115 638.424 948.861 641.96C943.999 631.353 941.348 620.746 941.79 603.069C942.232 600.859 934.276 602.185 929.856 603.511C928.53 603.952 926.763 604.394 925.437 605.278Z" fill="#FFD9D1"/>
<path d="M531.199 173.051C509.985 181.89 492.306 197.8 480.814 221.223C493.632 221.223 500.261 234.04 501.145 245.972C511.31 227.41 524.57 212.384 551.088 194.706C554.624 192.938 544.9 182.774 538.271 177.47C536.061 176.144 533.851 174.819 531.199 173.051Z" fill="#D3E1FF"/>
<path d="M86.5761 11.3003L20.7225 54.6112C19.8385 41.3528 13.6509 36.9333 4.81152 29.4202C31.3298 15.2778 48.1247 5.55506 70.6652 -13.8906C81.2725 -6.81947 83.9243 -0.190339 86.5761 11.3003Z" fill="#DED3FF"/>
<path d="M1087.64 275.585L1096.04 327.735C1087.64 324.641 1083.22 327.293 1076.59 330.828C1074.82 310.941 1073.94 297.682 1068.19 278.678C1075.26 274.259 1080.13 274.259 1087.64 275.585Z" fill="#FFD9D1"/>
<path d="M498.051 394.47C502.029 386.073 495.399 379.002 494.074 371.047C488.328 375.024 480.372 378.118 473.743 376.35C478.163 382.538 476.837 390.935 472.417 397.122C487.002 398.448 491.864 398.006 498.051 394.47Z" fill="#DED3FF"/>
<path d="M346.897 81.1267L301.816 101.456C302.258 93.0593 299.164 89.5237 294.303 84.2203C311.982 78.033 323.473 73.6135 339.384 63.8906C345.129 69.636 346.455 74.0556 346.897 81.1267Z" fill="#D3E1FF"/>
<path d="M580.257 84.6631C585.119 72.7305 585.561 59.4721 580.699 45.3298C575.838 50.1913 567.882 47.9814 563.021 44.0039C566.556 55.4945 567.44 66.5432 563.904 84.2211C563.462 86.4309 570.976 86.4309 575.838 85.9889C576.722 85.547 578.489 85.1051 580.257 84.6631Z" fill="#FFD9D1"/>
<path d="M647.437 114.716L637.714 75.3832C644.343 77.151 647.437 74.9413 652.299 71.8477C654.951 86.8739 656.719 97.0386 662.022 111.181C656.719 115.158 653.183 115.158 647.437 114.716Z" fill="#FFE9BE"/>
<path d="M124.586 252.159C120.167 264.976 131.216 274.699 134.752 285.747C142.265 278.676 153.756 272.489 163.922 274.257C155.966 265.86 156.85 253.485 161.712 243.32C140.939 244.646 133.426 245.972 124.586 252.159Z" fill="#DED3FF"/>
<path d="M151.105 123.996C139.613 104.992 121.493 89.9662 97.6261 82.4531C99.394 94.8277 87.9028 103.225 76.8535 105.434C95.8583 112.506 112.211 123.112 132.984 146.094C135.194 149.187 143.591 138.581 147.569 131.509C148.895 129.3 149.779 126.648 151.105 123.996Z" fill="#D3E1FF"/>
<path d="M1073.5 168.193C1068.64 158.47 1072.61 146.979 1082.34 142.118C1092.06 137.256 1103.55 141.234 1108.41 150.957C1113.27 160.68 1109.3 172.17 1099.57 177.032C1089.85 181.893 1078.36 177.474 1073.5 168.193Z" fill="#D3E1FF"/>
<path d="M266.017 401.098C250.99 406.843 237.73 417.45 229.333 433.802C238.172 434.244 243.034 443.525 243.034 451.48C250.548 438.663 260.271 428.498 279.718 416.566C281.927 415.24 275.74 408.169 271.32 404.191C269.552 403.307 267.784 402.424 266.017 401.098Z" fill="#FFD9D1"/>
<path d="M611.638 161.12C608.544 173.937 595.727 182.334 582.468 179.24C569.651 176.146 561.253 163.33 564.347 150.071C567.441 137.255 580.258 128.858 593.517 131.952C606.776 135.045 614.732 147.862 611.638 161.12Z" fill="#FFE9BE"/>
<path d="M1159.68 233.598C1150.84 234.482 1148.19 243.32 1142.44 248.624C1148.63 251.275 1155.26 256.137 1157.03 262.766C1160.12 255.695 1167.19 253.043 1174.71 253.485C1168.08 241.111 1165.43 237.133 1159.68 233.598Z" fill="#FFD9D1"/>
<path d="M879.472 255.255C883.449 264.978 894.499 264.536 902.012 269.398C902.896 261.443 905.99 252.604 913.061 248.184C904.222 247.3 898.918 239.787 896.267 231.832C884.775 242.881 881.24 247.742 879.472 255.255Z" fill="#FFE9BE"/>
<path d="M1419.56 327.734C1432.82 324.199 1444.75 315.802 1453.59 302.543C1446.08 301.659 1442.54 293.263 1442.98 286.191C1435.47 296.356 1426.63 304.753 1408.95 313.15C1406.74 314.034 1411.6 320.663 1415.14 324.641C1416.47 325.525 1417.79 326.85 1419.56 327.734Z" fill="#FFE9BE"/>
<path d="M734.506 84.2213L766.77 21.4648C773.399 31.1877 780.029 32.0715 790.194 33.8393C776.051 56.8206 766.77 71.8469 757.93 96.5959C746.439 96.154 741.577 92.1764 734.506 84.2213Z" fill="#D3E1FF"/>
<path d="M871.958 83.3389L819.806 65.219C826.877 59.0318 826.877 53.7285 826.877 45.7734C846.324 54.1704 858.699 59.4737 879.03 63.8931C879.472 72.732 877.262 77.1516 871.958 83.3389Z" fill="#FFE9BE"/>
<path d="M784.89 -29.8004L733.621 6.43921C732.296 -4.16752 727.434 -7.70307 720.362 -13.0064C741.135 -24.939 754.394 -33.336 771.631 -49.2461C780.028 -43.9427 782.238 -39.0813 784.89 -29.8004Z" fill="#FFE9BE"/>
<path d="M424.684 546.056C418.496 545.614 413.635 540.31 414.077 534.123C414.519 527.936 419.822 523.074 426.01 523.516C432.198 523.958 437.059 529.262 436.617 535.449C436.175 541.636 430.872 546.498 424.684 546.056Z" fill="#D3EDFF"/>
<path d="M1244.98 507.165C1247.19 514.236 1243.21 521.749 1236.14 523.958C1229.07 526.168 1221.56 522.191 1219.35 515.12C1217.14 508.048 1221.12 500.535 1228.19 498.326C1235.26 496.116 1242.77 500.093 1244.98 507.165Z" fill="#BAF0DF"/>
<path d="M493.631 33.8382C483.908 33.3962 479.488 43.5611 472.858 47.9806C479.488 51.5162 486.118 58.1454 487.001 65.6586C490.979 58.5874 499.819 56.3775 507.774 57.2614C502.47 44.4449 499.819 38.6996 493.631 33.8382Z" fill="#BAF0DF"/>
<path d="M-0.0501385 247.3C18.9546 244.207 36.6334 234.484 50.7765 217.69C40.6111 215.038 37.0754 203.106 38.8432 193.383C26.91 206.199 13.209 215.922 -11.9833 225.203C-15.0771 226.087 -9.33153 236.252 -4.91182 241.555C-3.58591 243.765 -1.81802 245.533 -0.0501385 247.3Z" fill="#DED3FF"/>
<path d="M437.943 -12.5644C424.242 -25.3809 405.679 -16.5419 390.21 -18.7516C395.072 -5.05126 396.398 12.6266 388.442 24.5592C403.469 19.2558 418.496 27.211 428.662 39.1436C437.501 13.9525 440.595 2.46183 437.943 -12.5644Z" fill="#D3EDFF"/>
<path d="M83.4823 534.566C87.902 525.285 98.9513 521.308 108.233 525.727C117.514 530.147 121.492 541.196 117.072 550.476C112.652 559.757 101.603 563.735 92.3217 559.315C83.0403 554.896 79.0626 543.847 83.4823 534.566Z" fill="#FFD9D1"/>
<path d="M352.643 375.023C363.25 382.536 365.46 397.562 357.505 408.169C349.991 418.776 334.964 420.986 324.357 413.03C313.75 405.517 311.54 390.491 319.495 379.885C327.451 369.278 342.478 367.068 352.643 375.023Z" fill="#D3E1FF"/>
<path d="M358.388 613.673L340.267 662.287C334.522 655.658 329.66 655.658 322.146 655.216C330.544 637.538 335.848 625.605 340.267 606.602C348.665 606.602 352.642 608.811 358.388 613.673Z" fill="#D3E1FF"/>
<path d="M1317.02 377.674C1332.05 357.786 1339.56 333.037 1337.35 304.752C1325.42 311.823 1311.72 303.427 1304.65 293.262C1305.09 316.243 1301.55 337.457 1286.08 368.393C1283.87 371.928 1298.46 376.348 1307.3 377.674C1310.39 377.674 1313.49 377.674 1317.02 377.674Z" fill="#D3E1FF"/>
<path d="M1363.87 16.6035C1349.29 8.2065 1334.7 19.6971 1320.56 21.4649C1327.63 32.5136 1332.49 47.5397 1328.07 59.9142C1340.45 52.4011 1355.03 55.9366 1366.52 64.3336C1369.62 38.2588 1369.18 28.536 1363.87 16.6035Z" fill="#D3E1FF"/>
<path d="M742.902 191.174C750.858 214.155 767.211 233.601 791.077 246.859C791.961 233.601 805.662 226.971 818.037 226.529C799.033 214.597 784.006 200.455 766.769 171.286C765.001 167.75 753.952 177.031 748.206 183.66C746.438 185.87 744.67 188.522 742.902 191.174Z" fill="#D3EDFF"/>
<path d="M330.986 222.109C332.754 240.229 341.152 257.465 356.621 271.607C359.714 261.884 370.764 259.675 380.045 261.442C368.554 249.51 359.714 235.81 352.201 211.503C351.759 208.409 341.594 213.712 336.29 217.248C334.522 219.016 332.754 220.341 330.986 222.109Z" fill="#D3EDFF"/>
<path d="M935.602 70.9613C930.298 77.1485 921.017 78.0324 914.387 72.729C908.199 67.4257 907.316 58.1449 912.619 51.5157C917.923 45.3284 927.204 44.4446 933.834 49.7479C940.463 55.4932 941.347 64.774 935.602 70.9613Z" fill="#D3E1FF"/>
<path d="M253.199 235.811L214.748 237.579C217.399 231.833 216.074 228.298 214.306 222.994C228.891 223.436 238.614 223.878 252.757 221.227C255.409 226.972 254.525 230.508 253.199 235.811Z" fill="#FFD9D1"/>
<path d="M1177.36 125.322C1183.99 123.555 1190.18 127.532 1191.95 134.161C1193.71 140.791 1189.74 146.978 1183.11 148.746C1176.48 150.513 1170.29 146.536 1168.52 139.907C1166.75 133.277 1170.73 127.09 1177.36 125.322Z" fill="#D3EDFF"/>
<path d="M213.454 544.754C218.204 558.685 227.405 571.112 242.072 579.585C242.669 571.221 251.332 567.635 259.049 567.486C247.817 559.958 238.656 550.897 228.46 532.795C227.504 530.484 220.374 536.141 216.879 539.955C215.217 541.658 214.539 543.291 213.454 544.754Z" fill="#DED3FF"/>
<path d="M656.276 245.975C645.227 251.278 631.526 246.417 626.222 235.368C620.919 224.32 625.78 210.619 636.83 205.316C647.879 200.013 661.58 204.874 666.884 215.923C672.187 227.413 667.326 240.672 656.276 245.975Z" fill="#DED3FF"/>
<path d="M435.292 268.07C444.573 273.815 447.225 285.748 441.479 294.587C435.734 303.867 423.8 306.519 414.961 300.774C405.68 295.028 403.028 283.096 408.773 274.257C414.519 265.418 426.452 262.324 435.292 268.07Z" fill="#D3EDFF"/>
<path d="M817.595 513.35V555.777C811.408 552.242 807.43 553.567 801.685 555.777C803.01 539.425 803.452 529.26 801.685 513.35C807.872 510.256 811.408 511.14 817.595 513.35Z" fill="#D3E1FF"/>
<path d="M1459.34 157.141L1425.75 218.571C1419.56 208.407 1412.93 207.523 1402.76 205.755C1417.35 183.657 1426.63 169.073 1436.35 144.324C1447.4 145.65 1452.27 149.628 1459.34 157.141Z" fill="#DED3FF"/>
<path d="M1045.65 454.131L1006.76 465.18C1008.08 458.551 1006.32 455.457 1002.78 450.596C1017.81 447.502 1027.53 445.734 1041.67 439.547C1046.09 444.408 1046.09 448.386 1045.65 454.131Z" fill="#DED3FF"/>
<path d="M528.782 502.423C517.291 489.607 501.38 481.21 481.933 479C485.027 487.839 477.955 496.236 470 499.772C485.469 502.423 499.612 507.727 518.617 521.869C520.827 523.637 525.688 514.356 527.456 508.611C527.898 506.843 528.34 504.633 528.782 502.423Z" fill="#DED3FF"/>
</g>
<defs>
<clipPath id="clip0">
<rect width="1866" height="1888" fill="white" transform="translate(-267 -1155)"/>
</clipPath>
</defs>
</svg>
