<svg width="23" height="23" viewBox="0 0 23 23" fill="none" xmlns="http://www.w3.org/2000/svg">
<path d="M20.7 0H2.3C1.035 0 0 1.035 0 2.3V20.7C0 21.965 1.035 23 2.3 23H20.7C21.965 23 23 21.965 23 20.7V2.3C23 1.035 21.965 0 20.7 0ZM6.9 19.55H3.45V9.2H6.9V19.55ZM5.175 7.245C4.025 7.245 3.105 6.325 3.105 5.175C3.105 4.025 4.025 3.105 5.175 3.105C6.325 3.105 7.245 4.025 7.245 5.175C7.245 6.325 6.325 7.245 5.175 7.245ZM19.55 19.55H16.1V13.455C16.1 12.535 15.295 11.73 14.375 11.73C13.455 11.73 12.65 12.535 12.65 13.455V19.55H9.2V9.2H12.65V10.58C13.225 9.66 14.49 8.97 15.525 8.97C17.71 8.97 19.55 10.81 19.55 12.995V19.55Z" fill="#ABB2D9"/>
</svg>
