<svg width="204" height="218" viewBox="0 0 204 218" fill="none" xmlns="http://www.w3.org/2000/svg">
<mask id="path-1-outside-1" maskUnits="userSpaceOnUse" x="0" y="12.8848" width="119" height="152" fill="black">
<rect fill="white" y="12.8848" width="119" height="152"/>
<path d="M10.4546 18.6625C15.456 18.4075 20.4464 18.1193 25.4477 17.82C27.9429 17.6648 30.4381 17.5096 32.9443 17.3433L36.6926 17.0995L40.4409 16.8445L47.9265 16.3124L55.412 15.7471L70.3722 14.6053L77.8578 14.0621L79.7264 13.9291L79.9573 13.918C80.0342 13.918 80.1112 13.9069 80.1991 13.9069C80.375 13.8959 80.5508 13.8848 80.7267 13.8848C81.0785 13.8848 81.4302 13.8959 81.7819 13.9291C83.2109 14.051 84.5959 14.4501 85.86 15.1041C86.4975 15.4256 87.0911 15.8136 87.6517 16.257L87.8605 16.4233L88.0474 16.5784L88.4101 16.8777L89.1356 17.4763L92.0155 19.904L97.7754 24.7593C101.601 28.0072 105.426 31.2773 109.229 34.5474L110.658 35.7779L111.01 36.0883L111.186 36.2435L111.384 36.4208C111.515 36.5428 111.647 36.6647 111.779 36.7977C111.9 36.9307 112.032 37.0527 112.153 37.1857C113.131 38.2499 113.89 39.5136 114.384 40.877C114.637 41.5532 114.813 42.2627 114.934 42.9721C114.967 43.1495 114.989 43.3268 115.011 43.5042C115.033 43.6816 115.055 43.8589 115.055 44.0474L115.066 44.3134L115.077 44.4464V44.5684L115.088 45.045L115.176 48.8251C115.648 69.0111 115.791 89.1971 116.385 109.383C116.528 114.427 116.682 119.471 116.869 124.514L117.143 132.074L117.44 139.634L117.759 147.194L117.847 149.09L117.869 149.567L117.88 149.811V150.065V150.32L117.869 150.575L117.858 150.83C117.858 150.919 117.847 150.997 117.836 151.085C117.737 152.427 117.363 153.757 116.77 154.965C115.571 157.393 113.417 159.322 110.856 160.219C110.218 160.441 109.559 160.607 108.888 160.707C108.723 160.729 108.548 160.752 108.383 160.763C108.218 160.785 108.042 160.785 107.877 160.796L107.745 160.807H107.624L107.393 160.818L106.921 160.84L103.172 160.984L88.1683 161.561L80.6717 161.849L73.1642 162.115C63.1614 162.47 53.1587 162.758 43.1559 163.046L28.1518 163.49L20.6442 163.711L16.8959 163.822L15.9506 163.844C15.7637 163.844 15.5879 163.844 15.401 163.844L14.8514 163.811C14.1149 163.756 13.3895 163.623 12.675 163.434C11.257 163.035 9.90499 162.359 8.73983 161.461C7.57468 160.552 6.5744 159.421 5.82694 158.135C5.07948 156.85 4.58484 155.42 4.37599 153.934L4.31004 153.38C4.29905 153.191 4.28806 153.014 4.27706 152.826L4.2331 151.872L4.15615 149.977C3.9473 144.933 3.76044 139.889 3.58456 134.846C3.3977 129.802 3.22183 124.758 3.05695 119.714C2.89207 114.671 2.71619 109.627 2.5733 104.583C2.26552 94.4847 2.06766 84.3861 1.89179 74.2987C1.72691 64.2001 1.59501 54.1127 1.37516 44.0141L1.28723 40.2341L1.19929 36.4541L1.00144 28.8718C0.979451 27.5749 1.21028 26.289 1.67195 25.0807C2.13362 23.8835 2.82611 22.7639 3.69449 21.8328C4.56286 20.8906 5.61809 20.1257 6.77226 19.5825C7.92642 19.0393 9.17951 18.729 10.4546 18.6625ZM10.4766 18.995C9.24547 19.0615 8.03634 19.3719 6.92615 19.8929C5.80496 20.4361 4.79369 21.1788 3.96929 22.0878C3.14488 22.9967 2.48536 24.072 2.05667 25.2359C1.63897 26.3888 1.44112 27.6303 1.48509 28.8608C1.59501 31.3771 1.72691 33.9045 1.85881 36.4208L2.05667 40.2008L2.26552 43.9809C2.82611 54.0572 3.47464 64.1336 4.0902 74.21C4.69476 84.2864 5.27734 94.3627 5.76099 104.45C6.00281 109.494 6.22265 114.538 6.4425 119.57C6.67333 124.614 6.88218 129.658 7.09103 134.701C7.29988 139.745 7.49773 144.789 7.6846 149.833L7.75055 151.728L7.78352 152.659C7.79452 152.792 7.79452 152.914 7.80551 153.047L7.84948 153.435C7.99237 154.455 8.33313 155.453 8.83876 156.351C9.35539 157.249 10.0369 158.047 10.8503 158.679C11.6637 159.322 12.598 159.798 13.5763 160.075C14.071 160.219 14.5766 160.308 15.0932 160.352L15.478 160.375C15.6099 160.375 15.7418 160.375 15.8627 160.375L16.786 160.364L20.5343 160.297L28.0419 160.164L43.057 159.909C53.0597 159.743 63.0735 159.554 73.0762 159.443L80.5838 159.355L88.0914 159.288L103.106 159.166L106.855 159.133H107.327H107.558H107.679H107.789C107.932 159.122 108.075 159.133 108.218 159.111C108.361 159.1 108.504 159.089 108.646 159.078C109.218 159.011 109.779 158.889 110.328 158.712C111.427 158.357 112.45 157.792 113.34 157.038C114.23 156.295 114.967 155.364 115.517 154.333C116.066 153.302 116.407 152.161 116.517 150.986C116.528 150.908 116.539 150.841 116.539 150.764L116.55 150.542L116.561 150.32V150.099V149.877V149.644L116.55 149.168L116.506 147.272L116.308 139.701L116.088 132.13L115.846 124.559C115.681 119.515 115.506 114.471 115.297 109.427C114.516 89.2525 113.296 69.0998 112.406 48.9359L112.241 45.1559L112.219 44.6792V44.5573L112.208 44.4575L112.197 44.258C112.197 44.125 112.175 43.992 112.153 43.8589C112.142 43.7259 112.12 43.5929 112.087 43.4599C111.988 42.9278 111.845 42.4068 111.658 41.908C111.471 41.4091 111.23 40.9214 110.944 40.4669C110.658 40.0124 110.328 39.5912 109.966 39.1921C109.878 39.0923 109.779 39.0036 109.691 38.9039C109.603 38.8041 109.493 38.7154 109.394 38.6268L109.24 38.4937L109.064 38.3385L108.701 38.0392L107.272 36.8199C103.447 33.5609 99.644 30.2907 95.8408 26.9985L90.1579 22.0545L87.3219 19.5714L86.6184 18.9507L86.2997 18.6514L86.1238 18.4962L85.9699 18.3632C85.5522 18.0195 85.1125 17.7091 84.6289 17.4431C83.6836 16.9221 82.6283 16.5784 81.5511 16.4454C81.2763 16.4122 81.0125 16.39 80.7377 16.39C80.6058 16.39 80.4629 16.39 80.331 16.39C80.265 16.39 80.1771 16.39 80.1002 16.4011L79.8693 16.4122L77.9897 16.4787L70.4821 16.7226L55.478 17.177L47.9704 17.4098L40.4629 17.6648L36.7146 17.7978L32.9663 17.9419C30.4711 18.0417 27.9649 18.1415 25.4697 18.2523C20.4683 18.4851 15.467 18.729 10.4766 18.995Z"/>
</mask>
<path d="M10.4546 18.6625C15.456 18.4075 20.4464 18.1193 25.4477 17.82C27.9429 17.6648 30.4381 17.5096 32.9443 17.3433L36.6926 17.0995L40.4409 16.8445L47.9265 16.3124L55.412 15.7471L70.3722 14.6053L77.8578 14.0621L79.7264 13.9291L79.9573 13.918C80.0342 13.918 80.1112 13.9069 80.1991 13.9069C80.375 13.8959 80.5508 13.8848 80.7267 13.8848C81.0785 13.8848 81.4302 13.8959 81.7819 13.9291C83.2109 14.051 84.5959 14.4501 85.86 15.1041C86.4975 15.4256 87.0911 15.8136 87.6517 16.257L87.8605 16.4233L88.0474 16.5784L88.4101 16.8777L89.1356 17.4763L92.0155 19.904L97.7754 24.7593C101.601 28.0072 105.426 31.2773 109.229 34.5474L110.658 35.7779L111.01 36.0883L111.186 36.2435L111.384 36.4208C111.515 36.5428 111.647 36.6647 111.779 36.7977C111.9 36.9307 112.032 37.0527 112.153 37.1857C113.131 38.2499 113.89 39.5136 114.384 40.877C114.637 41.5532 114.813 42.2627 114.934 42.9721C114.967 43.1495 114.989 43.3268 115.011 43.5042C115.033 43.6816 115.055 43.8589 115.055 44.0474L115.066 44.3134L115.077 44.4464V44.5684L115.088 45.045L115.176 48.8251C115.648 69.0111 115.791 89.1971 116.385 109.383C116.528 114.427 116.682 119.471 116.869 124.514L117.143 132.074L117.44 139.634L117.759 147.194L117.847 149.09L117.869 149.567L117.88 149.811V150.065V150.32L117.869 150.575L117.858 150.83C117.858 150.919 117.847 150.997 117.836 151.085C117.737 152.427 117.363 153.757 116.77 154.965C115.571 157.393 113.417 159.322 110.856 160.219C110.218 160.441 109.559 160.607 108.888 160.707C108.723 160.729 108.548 160.752 108.383 160.763C108.218 160.785 108.042 160.785 107.877 160.796L107.745 160.807H107.624L107.393 160.818L106.921 160.84L103.172 160.984L88.1683 161.561L80.6717 161.849L73.1642 162.115C63.1614 162.47 53.1587 162.758 43.1559 163.046L28.1518 163.49L20.6442 163.711L16.8959 163.822L15.9506 163.844C15.7637 163.844 15.5879 163.844 15.401 163.844L14.8514 163.811C14.1149 163.756 13.3895 163.623 12.675 163.434C11.257 163.035 9.90499 162.359 8.73983 161.461C7.57468 160.552 6.5744 159.421 5.82694 158.135C5.07948 156.85 4.58484 155.42 4.37599 153.934L4.31004 153.38C4.29905 153.191 4.28806 153.014 4.27706 152.826L4.2331 151.872L4.15615 149.977C3.9473 144.933 3.76044 139.889 3.58456 134.846C3.3977 129.802 3.22183 124.758 3.05695 119.714C2.89207 114.671 2.71619 109.627 2.5733 104.583C2.26552 94.4847 2.06766 84.3861 1.89179 74.2987C1.72691 64.2001 1.59501 54.1127 1.37516 44.0141L1.28723 40.2341L1.19929 36.4541L1.00144 28.8718C0.979451 27.5749 1.21028 26.289 1.67195 25.0807C2.13362 23.8835 2.82611 22.7639 3.69449 21.8328C4.56286 20.8906 5.61809 20.1257 6.77226 19.5825C7.92642 19.0393 9.17951 18.729 10.4546 18.6625ZM10.4766 18.995C9.24547 19.0615 8.03634 19.3719 6.92615 19.8929C5.80496 20.4361 4.79369 21.1788 3.96929 22.0878C3.14488 22.9967 2.48536 24.072 2.05667 25.2359C1.63897 26.3888 1.44112 27.6303 1.48509 28.8608C1.59501 31.3771 1.72691 33.9045 1.85881 36.4208L2.05667 40.2008L2.26552 43.9809C2.82611 54.0572 3.47464 64.1336 4.0902 74.21C4.69476 84.2864 5.27734 94.3627 5.76099 104.45C6.00281 109.494 6.22265 114.538 6.4425 119.57C6.67333 124.614 6.88218 129.658 7.09103 134.701C7.29988 139.745 7.49773 144.789 7.6846 149.833L7.75055 151.728L7.78352 152.659C7.79452 152.792 7.79452 152.914 7.80551 153.047L7.84948 153.435C7.99237 154.455 8.33313 155.453 8.83876 156.351C9.35539 157.249 10.0369 158.047 10.8503 158.679C11.6637 159.322 12.598 159.798 13.5763 160.075C14.071 160.219 14.5766 160.308 15.0932 160.352L15.478 160.375C15.6099 160.375 15.7418 160.375 15.8627 160.375L16.786 160.364L20.5343 160.297L28.0419 160.164L43.057 159.909C53.0597 159.743 63.0735 159.554 73.0762 159.443L80.5838 159.355L88.0914 159.288L103.106 159.166L106.855 159.133H107.327H107.558H107.679H107.789C107.932 159.122 108.075 159.133 108.218 159.111C108.361 159.1 108.504 159.089 108.646 159.078C109.218 159.011 109.779 158.889 110.328 158.712C111.427 158.357 112.45 157.792 113.34 157.038C114.23 156.295 114.967 155.364 115.517 154.333C116.066 153.302 116.407 152.161 116.517 150.986C116.528 150.908 116.539 150.841 116.539 150.764L116.55 150.542L116.561 150.32V150.099V149.877V149.644L116.55 149.168L116.506 147.272L116.308 139.701L116.088 132.13L115.846 124.559C115.681 119.515 115.506 114.471 115.297 109.427C114.516 89.2525 113.296 69.0998 112.406 48.9359L112.241 45.1559L112.219 44.6792V44.5573L112.208 44.4575L112.197 44.258C112.197 44.125 112.175 43.992 112.153 43.8589C112.142 43.7259 112.12 43.5929 112.087 43.4599C111.988 42.9278 111.845 42.4068 111.658 41.908C111.471 41.4091 111.23 40.9214 110.944 40.4669C110.658 40.0124 110.328 39.5912 109.966 39.1921C109.878 39.0923 109.779 39.0036 109.691 38.9039C109.603 38.8041 109.493 38.7154 109.394 38.6268L109.24 38.4937L109.064 38.3385L108.701 38.0392L107.272 36.8199C103.447 33.5609 99.644 30.2907 95.8408 26.9985L90.1579 22.0545L87.3219 19.5714L86.6184 18.9507L86.2997 18.6514L86.1238 18.4962L85.9699 18.3632C85.5522 18.0195 85.1125 17.7091 84.6289 17.4431C83.6836 16.9221 82.6283 16.5784 81.5511 16.4454C81.2763 16.4122 81.0125 16.39 80.7377 16.39C80.6058 16.39 80.4629 16.39 80.331 16.39C80.265 16.39 80.1771 16.39 80.1002 16.4011L79.8693 16.4122L77.9897 16.4787L70.4821 16.7226L55.478 17.177L47.9704 17.4098L40.4629 17.6648L36.7146 17.7978L32.9663 17.9419C30.4711 18.0417 27.9649 18.1415 25.4697 18.2523C20.4683 18.4851 15.467 18.729 10.4766 18.995Z" fill="#001064"/>
<path d="M10.4546 18.6625C15.456 18.4075 20.4464 18.1193 25.4477 17.82C27.9429 17.6648 30.4381 17.5096 32.9443 17.3433L36.6926 17.0995L40.4409 16.8445L47.9265 16.3124L55.412 15.7471L70.3722 14.6053L77.8578 14.0621L79.7264 13.9291L79.9573 13.918C80.0342 13.918 80.1112 13.9069 80.1991 13.9069C80.375 13.8959 80.5508 13.8848 80.7267 13.8848C81.0785 13.8848 81.4302 13.8959 81.7819 13.9291C83.2109 14.051 84.5959 14.4501 85.86 15.1041C86.4975 15.4256 87.0911 15.8136 87.6517 16.257L87.8605 16.4233L88.0474 16.5784L88.4101 16.8777L89.1356 17.4763L92.0155 19.904L97.7754 24.7593C101.601 28.0072 105.426 31.2773 109.229 34.5474L110.658 35.7779L111.01 36.0883L111.186 36.2435L111.384 36.4208C111.515 36.5428 111.647 36.6647 111.779 36.7977C111.9 36.9307 112.032 37.0527 112.153 37.1857C113.131 38.2499 113.89 39.5136 114.384 40.877C114.637 41.5532 114.813 42.2627 114.934 42.9721C114.967 43.1495 114.989 43.3268 115.011 43.5042C115.033 43.6816 115.055 43.8589 115.055 44.0474L115.066 44.3134L115.077 44.4464V44.5684L115.088 45.045L115.176 48.8251C115.648 69.0111 115.791 89.1971 116.385 109.383C116.528 114.427 116.682 119.471 116.869 124.514L117.143 132.074L117.44 139.634L117.759 147.194L117.847 149.09L117.869 149.567L117.88 149.811V150.065V150.32L117.869 150.575L117.858 150.83C117.858 150.919 117.847 150.997 117.836 151.085C117.737 152.427 117.363 153.757 116.77 154.965C115.571 157.393 113.417 159.322 110.856 160.219C110.218 160.441 109.559 160.607 108.888 160.707C108.723 160.729 108.548 160.752 108.383 160.763C108.218 160.785 108.042 160.785 107.877 160.796L107.745 160.807H107.624L107.393 160.818L106.921 160.84L103.172 160.984L88.1683 161.561L80.6717 161.849L73.1642 162.115C63.1614 162.47 53.1587 162.758 43.1559 163.046L28.1518 163.49L20.6442 163.711L16.8959 163.822L15.9506 163.844C15.7637 163.844 15.5879 163.844 15.401 163.844L14.8514 163.811C14.1149 163.756 13.3895 163.623 12.675 163.434C11.257 163.035 9.90499 162.359 8.73983 161.461C7.57468 160.552 6.5744 159.421 5.82694 158.135C5.07948 156.85 4.58484 155.42 4.37599 153.934L4.31004 153.38C4.29905 153.191 4.28806 153.014 4.27706 152.826L4.2331 151.872L4.15615 149.977C3.9473 144.933 3.76044 139.889 3.58456 134.846C3.3977 129.802 3.22183 124.758 3.05695 119.714C2.89207 114.671 2.71619 109.627 2.5733 104.583C2.26552 94.4847 2.06766 84.3861 1.89179 74.2987C1.72691 64.2001 1.59501 54.1127 1.37516 44.0141L1.28723 40.2341L1.19929 36.4541L1.00144 28.8718C0.979451 27.5749 1.21028 26.289 1.67195 25.0807C2.13362 23.8835 2.82611 22.7639 3.69449 21.8328C4.56286 20.8906 5.61809 20.1257 6.77226 19.5825C7.92642 19.0393 9.17951 18.729 10.4546 18.6625ZM10.4766 18.995C9.24547 19.0615 8.03634 19.3719 6.92615 19.8929C5.80496 20.4361 4.79369 21.1788 3.96929 22.0878C3.14488 22.9967 2.48536 24.072 2.05667 25.2359C1.63897 26.3888 1.44112 27.6303 1.48509 28.8608C1.59501 31.3771 1.72691 33.9045 1.85881 36.4208L2.05667 40.2008L2.26552 43.9809C2.82611 54.0572 3.47464 64.1336 4.0902 74.21C4.69476 84.2864 5.27734 94.3627 5.76099 104.45C6.00281 109.494 6.22265 114.538 6.4425 119.57C6.67333 124.614 6.88218 129.658 7.09103 134.701C7.29988 139.745 7.49773 144.789 7.6846 149.833L7.75055 151.728L7.78352 152.659C7.79452 152.792 7.79452 152.914 7.80551 153.047L7.84948 153.435C7.99237 154.455 8.33313 155.453 8.83876 156.351C9.35539 157.249 10.0369 158.047 10.8503 158.679C11.6637 159.322 12.598 159.798 13.5763 160.075C14.071 160.219 14.5766 160.308 15.0932 160.352L15.478 160.375C15.6099 160.375 15.7418 160.375 15.8627 160.375L16.786 160.364L20.5343 160.297L28.0419 160.164L43.057 159.909C53.0597 159.743 63.0735 159.554 73.0762 159.443L80.5838 159.355L88.0914 159.288L103.106 159.166L106.855 159.133H107.327H107.558H107.679H107.789C107.932 159.122 108.075 159.133 108.218 159.111C108.361 159.1 108.504 159.089 108.646 159.078C109.218 159.011 109.779 158.889 110.328 158.712C111.427 158.357 112.45 157.792 113.34 157.038C114.23 156.295 114.967 155.364 115.517 154.333C116.066 153.302 116.407 152.161 116.517 150.986C116.528 150.908 116.539 150.841 116.539 150.764L116.55 150.542L116.561 150.32V150.099V149.877V149.644L116.55 149.168L116.506 147.272L116.308 139.701L116.088 132.13L115.846 124.559C115.681 119.515 115.506 114.471 115.297 109.427C114.516 89.2525 113.296 69.0998 112.406 48.9359L112.241 45.1559L112.219 44.6792V44.5573L112.208 44.4575L112.197 44.258C112.197 44.125 112.175 43.992 112.153 43.8589C112.142 43.7259 112.12 43.5929 112.087 43.4599C111.988 42.9278 111.845 42.4068 111.658 41.908C111.471 41.4091 111.23 40.9214 110.944 40.4669C110.658 40.0124 110.328 39.5912 109.966 39.1921C109.878 39.0923 109.779 39.0036 109.691 38.9039C109.603 38.8041 109.493 38.7154 109.394 38.6268L109.24 38.4937L109.064 38.3385L108.701 38.0392L107.272 36.8199C103.447 33.5609 99.644 30.2907 95.8408 26.9985L90.1579 22.0545L87.3219 19.5714L86.6184 18.9507L86.2997 18.6514L86.1238 18.4962L85.9699 18.3632C85.5522 18.0195 85.1125 17.7091 84.6289 17.4431C83.6836 16.9221 82.6283 16.5784 81.5511 16.4454C81.2763 16.4122 81.0125 16.39 80.7377 16.39C80.6058 16.39 80.4629 16.39 80.331 16.39C80.265 16.39 80.1771 16.39 80.1002 16.4011L79.8693 16.4122L77.9897 16.4787L70.4821 16.7226L55.478 17.177L47.9704 17.4098L40.4629 17.6648L36.7146 17.7978L32.9663 17.9419C30.4711 18.0417 27.9649 18.1415 25.4697 18.2523C20.4683 18.4851 15.467 18.729 10.4766 18.995Z" stroke="#001064" stroke-width="2" mask="url(#path-1-outside-1)"/>
<path d="M80.2017 15.1602C80.5315 16.2687 80.8063 17.3772 81.0811 18.4857C81.3559 19.5942 81.6087 20.7138 81.8505 21.8334C82.3342 24.0615 82.7739 26.3007 83.1916 28.551L83.4884 30.2359C83.5873 30.8013 83.6752 31.3555 83.7742 31.9209C83.8621 32.4862 83.961 33.0405 84.049 33.6058L84.1149 34.027L84.1369 34.1268L84.1589 34.2155L84.1918 34.3928C84.2138 34.5148 84.2358 34.6256 84.2688 34.7476L84.3128 34.9249C84.3238 34.9804 84.3457 35.0358 84.3567 35.1023C84.8624 36.9535 85.9945 38.5941 87.5005 39.7359C87.8742 40.0241 88.2809 40.279 88.6986 40.5007C89.1163 40.7224 89.545 40.9109 89.9956 41.0661C90.886 41.3654 91.8313 41.5095 92.7876 41.5206L93.1504 41.5095L93.5681 41.4873L94.4145 41.4541C94.975 41.4319 95.5466 41.4097 96.1072 41.3876L97.8 41.3321L99.4928 41.2656C101.757 41.2213 104.011 41.1991 106.286 41.2434C107.418 41.2656 108.55 41.2878 109.693 41.3432C110.826 41.3876 111.969 41.4541 113.101 41.5427C111.991 41.8088 110.87 42.0416 109.759 42.2633C108.649 42.485 107.528 42.6845 106.407 42.873C104.175 43.2499 101.933 43.5824 99.6906 43.8706L98.0089 44.0923L96.3271 44.2919C95.7665 44.3584 95.2059 44.4249 94.6453 44.4803L93.7989 44.569L93.3812 44.6133L92.8976 44.6466C91.6005 44.7131 90.2705 44.5579 89.0174 44.1699C88.3908 43.9704 87.7753 43.7265 87.1927 43.4272C86.6101 43.1279 86.0495 42.7732 85.5219 42.3741C83.4224 40.7779 81.8945 38.4167 81.3339 35.845C81.3119 35.7674 81.3009 35.6898 81.279 35.6011L81.235 35.3572C81.202 35.191 81.18 35.0358 81.158 34.8695L81.1251 34.6256L81.1141 34.5037L81.1031 34.3928L81.0591 33.9716C81.0042 33.4063 80.9602 32.8409 80.9052 32.2645C80.8613 31.6992 80.8063 31.1338 80.7623 30.5574L80.6304 28.8503C80.4656 26.5778 80.3336 24.2943 80.2567 22.0108C80.2237 20.869 80.1907 19.7272 80.1798 18.5744C80.1688 17.4548 80.1578 16.3019 80.2017 15.1602Z" fill="#001064"/>
<path d="M10.1781 19.3813L83.6121 15.9102L90.7834 21.4061L114.018 41.076L117.461 144.343V151.574L112.584 158.227L107.421 159.963L17.9231 161.699H10.1781L4.15419 151.574L1.85938 30.6626V26.3236L4.15419 21.4061L10.1781 19.3813Z" fill="#001064"/>
<path d="M23.0882 8.10006L96.5223 4.62891L103.694 10.1249L126.929 29.7948L130.371 133.062V140.293L125.494 146.946L120.331 148.682L30.8332 150.417H23.0882L17.0643 140.293L14.7695 19.3813V15.0424L17.0643 10.1249L23.0882 8.10006Z" fill="#E9F7FF"/>
<mask id="path-5-outside-2" maskUnits="userSpaceOnUse" x="12.6211" y="1.31445" width="119" height="152" fill="black">
<rect fill="white" x="12.6211" y="1.31445" width="119" height="152"/>
<path d="M23.0757 7.09214C28.0771 6.83718 33.0674 6.54897 38.0688 6.24967C40.564 6.09448 43.0592 5.93929 45.5654 5.77301L49.3137 5.52914L53.062 5.27418L60.5476 4.74209L68.0331 4.17675L82.9933 3.03499L90.4789 2.49182L92.3475 2.35879L92.5784 2.34771C92.6553 2.34771 92.7322 2.33662 92.8202 2.33662C92.9961 2.32554 93.1719 2.31445 93.3478 2.31445C93.6995 2.31445 94.0513 2.32554 94.403 2.35879C95.832 2.48073 97.217 2.87979 98.4811 3.53382C99.1186 3.85528 99.7122 4.24326 100.273 4.68667L100.482 4.85295L100.669 5.00814L101.031 5.30744L101.757 5.90603L104.637 8.33367L110.396 13.189C114.222 16.4369 118.047 19.707 121.85 22.9771L123.279 24.2076L123.631 24.518L123.807 24.6731L124.005 24.8505C124.137 24.9724 124.268 25.0944 124.4 25.2274C124.521 25.3604 124.653 25.4824 124.774 25.6154C125.752 26.6795 126.511 27.9433 127.005 29.3067C127.258 29.9829 127.434 30.6924 127.555 31.4018C127.588 31.5792 127.61 31.7565 127.632 31.9339C127.654 32.1113 127.676 32.2886 127.676 32.4771L127.687 32.7431L127.698 32.8761V32.9981L127.709 33.4747L127.797 37.2548C128.27 57.4408 128.412 77.6268 129.006 97.8128C129.149 102.856 129.303 107.9 129.49 112.944L129.764 120.504L130.061 128.064L130.38 135.624L130.468 137.52L130.49 137.996L130.501 138.24V138.495V138.75L130.49 139.005L130.479 139.26C130.479 139.349 130.468 139.426 130.457 139.515C130.358 140.856 129.984 142.186 129.391 143.395C128.193 145.822 126.038 147.751 123.477 148.649C122.839 148.871 122.18 149.037 121.509 149.137C121.345 149.159 121.169 149.181 121.004 149.192C120.839 149.214 120.663 149.214 120.498 149.226L120.366 149.237H120.245L120.014 149.248L119.542 149.27L115.794 149.414L100.789 149.99L93.2928 150.279L85.7853 150.545C75.7825 150.899 65.7798 151.188 55.777 151.476L40.7729 151.919L33.2653 152.141L29.517 152.252L28.5717 152.274C28.3848 152.274 28.209 152.274 28.0221 152.274L27.4725 152.241C26.736 152.185 26.0106 152.052 25.2961 151.864C23.8781 151.465 22.5261 150.789 21.3609 149.891C20.1958 148.982 19.1955 147.851 18.448 146.565C17.7006 145.279 17.2059 143.849 16.9971 142.364L16.9311 141.81C16.9201 141.621 16.9091 141.444 16.8982 141.255L16.8542 140.302L16.7772 138.406C16.5684 133.363 16.3815 128.319 16.2057 123.275C16.0188 118.232 15.8429 113.188 15.678 108.144C15.5132 103.1 15.3373 98.0566 15.1944 93.0129C14.8866 82.9144 14.6888 72.8158 14.5129 62.7284C14.348 52.6298 14.2161 42.5424 13.9963 32.4438L13.9083 28.6638L13.8204 24.8838L13.6225 17.3015C13.6005 16.0046 13.8314 14.7187 14.293 13.5104C14.7547 12.3132 15.4472 11.1936 16.3156 10.2625C17.184 9.32025 18.2392 8.55538 19.3934 8.01221C20.5475 7.46903 21.8006 7.15865 23.0757 7.09214ZM23.0977 7.42469C21.8666 7.4912 20.6574 7.80159 19.5472 8.32259C18.4261 8.86576 17.4148 9.60846 16.5904 10.5174C15.766 11.4264 15.1065 12.5017 14.6778 13.6656C14.2601 14.8185 14.0622 16.06 14.1062 17.2905C14.2161 19.8068 14.348 22.3342 14.4799 24.8505L14.6778 28.6305L14.8866 32.4106C15.4472 42.4869 16.0957 52.5633 16.7113 62.6397C17.3159 72.7161 17.8984 82.7924 18.3821 92.8799C18.6239 97.9236 18.8437 102.967 19.0636 108C19.2944 113.044 19.5033 118.087 19.7121 123.131C19.921 128.175 20.1188 133.219 20.3057 138.262L20.3716 140.158L20.4046 141.089C20.4156 141.222 20.4156 141.344 20.4266 141.477L20.4706 141.865C20.6135 142.885 20.9542 143.883 21.4599 144.78C21.9765 145.678 22.658 146.476 23.4714 147.108C24.2848 147.751 25.2191 148.228 26.1974 148.505C26.6921 148.649 27.1977 148.738 27.7143 148.782L28.099 148.804C28.231 148.804 28.3629 148.804 28.4838 148.804L29.4071 148.793L33.1554 148.727L40.6629 148.594L55.6781 148.339C65.6808 148.172 75.6946 147.984 85.6973 147.873L93.2049 147.785L100.712 147.718L115.728 147.596L119.476 147.563H119.949H120.179H120.3H120.41C120.553 147.552 120.696 147.563 120.839 147.541C120.982 147.53 121.125 147.518 121.268 147.507C121.839 147.441 122.4 147.319 122.949 147.142C124.049 146.787 125.071 146.221 125.961 145.468C126.852 144.725 127.588 143.794 128.138 142.763C128.687 141.732 129.028 140.59 129.138 139.415C129.149 139.338 129.16 139.271 129.16 139.194L129.171 138.972L129.182 138.75V138.528V138.307V138.074L129.171 137.597L129.127 135.702L128.929 128.131L128.709 120.559L128.467 112.988C128.302 107.945 128.127 102.901 127.918 97.8571C127.137 77.6822 125.917 57.5294 125.027 37.3656L124.862 33.5856L124.84 33.1089V32.987L124.829 32.8872L124.818 32.6877C124.818 32.5547 124.796 32.4216 124.774 32.2886C124.763 32.1556 124.741 32.0226 124.708 31.8896C124.609 31.3575 124.466 30.8365 124.279 30.3376C124.093 29.8388 123.851 29.3511 123.565 28.8966C123.279 28.4421 122.949 28.0208 122.587 27.6218C122.499 27.522 122.4 27.4333 122.312 27.3336C122.224 27.2338 122.114 27.1451 122.015 27.0564L121.861 26.9234L121.685 26.7682L121.323 26.4689L119.894 25.2496C116.068 21.9905 112.265 18.7204 108.462 15.4282L102.779 10.4842L99.943 8.00112L99.2395 7.38035L98.9208 7.08106L98.7449 6.92586L98.591 6.79284C98.1733 6.4492 97.7336 6.13882 97.25 5.87278C96.3047 5.35178 95.2494 5.00814 94.1722 4.87512C93.8974 4.84186 93.6336 4.81969 93.3588 4.81969C93.2269 4.81969 93.084 4.81969 92.9521 4.81969C92.8861 4.81969 92.7982 4.81969 92.7213 4.83078L92.4904 4.84186L90.6108 4.90837L83.1032 5.15224L68.0991 5.60673L60.5915 5.83952L53.084 6.09448L49.3357 6.2275L45.5874 6.37161C43.0922 6.47137 40.586 6.57114 38.0908 6.68199C33.0894 6.91478 28.0881 7.15865 23.0977 7.42469Z"/>
</mask>
<path d="M23.0757 7.09214C28.0771 6.83718 33.0674 6.54897 38.0688 6.24967C40.564 6.09448 43.0592 5.93929 45.5654 5.77301L49.3137 5.52914L53.062 5.27418L60.5476 4.74209L68.0331 4.17675L82.9933 3.03499L90.4789 2.49182L92.3475 2.35879L92.5784 2.34771C92.6553 2.34771 92.7322 2.33662 92.8202 2.33662C92.9961 2.32554 93.1719 2.31445 93.3478 2.31445C93.6995 2.31445 94.0513 2.32554 94.403 2.35879C95.832 2.48073 97.217 2.87979 98.4811 3.53382C99.1186 3.85528 99.7122 4.24326 100.273 4.68667L100.482 4.85295L100.669 5.00814L101.031 5.30744L101.757 5.90603L104.637 8.33367L110.396 13.189C114.222 16.4369 118.047 19.707 121.85 22.9771L123.279 24.2076L123.631 24.518L123.807 24.6731L124.005 24.8505C124.137 24.9724 124.268 25.0944 124.4 25.2274C124.521 25.3604 124.653 25.4824 124.774 25.6154C125.752 26.6795 126.511 27.9433 127.005 29.3067C127.258 29.9829 127.434 30.6924 127.555 31.4018C127.588 31.5792 127.61 31.7565 127.632 31.9339C127.654 32.1113 127.676 32.2886 127.676 32.4771L127.687 32.7431L127.698 32.8761V32.9981L127.709 33.4747L127.797 37.2548C128.27 57.4408 128.412 77.6268 129.006 97.8128C129.149 102.856 129.303 107.9 129.49 112.944L129.764 120.504L130.061 128.064L130.38 135.624L130.468 137.52L130.49 137.996L130.501 138.24V138.495V138.75L130.49 139.005L130.479 139.26C130.479 139.349 130.468 139.426 130.457 139.515C130.358 140.856 129.984 142.186 129.391 143.395C128.193 145.822 126.038 147.751 123.477 148.649C122.839 148.871 122.18 149.037 121.509 149.137C121.345 149.159 121.169 149.181 121.004 149.192C120.839 149.214 120.663 149.214 120.498 149.226L120.366 149.237H120.245L120.014 149.248L119.542 149.27L115.794 149.414L100.789 149.99L93.2928 150.279L85.7853 150.545C75.7825 150.899 65.7798 151.188 55.777 151.476L40.7729 151.919L33.2653 152.141L29.517 152.252L28.5717 152.274C28.3848 152.274 28.209 152.274 28.0221 152.274L27.4725 152.241C26.736 152.185 26.0106 152.052 25.2961 151.864C23.8781 151.465 22.5261 150.789 21.3609 149.891C20.1958 148.982 19.1955 147.851 18.448 146.565C17.7006 145.279 17.2059 143.849 16.9971 142.364L16.9311 141.81C16.9201 141.621 16.9091 141.444 16.8982 141.255L16.8542 140.302L16.7772 138.406C16.5684 133.363 16.3815 128.319 16.2057 123.275C16.0188 118.232 15.8429 113.188 15.678 108.144C15.5132 103.1 15.3373 98.0566 15.1944 93.0129C14.8866 82.9144 14.6888 72.8158 14.5129 62.7284C14.348 52.6298 14.2161 42.5424 13.9963 32.4438L13.9083 28.6638L13.8204 24.8838L13.6225 17.3015C13.6005 16.0046 13.8314 14.7187 14.293 13.5104C14.7547 12.3132 15.4472 11.1936 16.3156 10.2625C17.184 9.32025 18.2392 8.55538 19.3934 8.01221C20.5475 7.46903 21.8006 7.15865 23.0757 7.09214ZM23.0977 7.42469C21.8666 7.4912 20.6574 7.80159 19.5472 8.32259C18.4261 8.86576 17.4148 9.60846 16.5904 10.5174C15.766 11.4264 15.1065 12.5017 14.6778 13.6656C14.2601 14.8185 14.0622 16.06 14.1062 17.2905C14.2161 19.8068 14.348 22.3342 14.4799 24.8505L14.6778 28.6305L14.8866 32.4106C15.4472 42.4869 16.0957 52.5633 16.7113 62.6397C17.3159 72.7161 17.8984 82.7924 18.3821 92.8799C18.6239 97.9236 18.8437 102.967 19.0636 108C19.2944 113.044 19.5033 118.087 19.7121 123.131C19.921 128.175 20.1188 133.219 20.3057 138.262L20.3716 140.158L20.4046 141.089C20.4156 141.222 20.4156 141.344 20.4266 141.477L20.4706 141.865C20.6135 142.885 20.9542 143.883 21.4599 144.78C21.9765 145.678 22.658 146.476 23.4714 147.108C24.2848 147.751 25.2191 148.228 26.1974 148.505C26.6921 148.649 27.1977 148.738 27.7143 148.782L28.099 148.804C28.231 148.804 28.3629 148.804 28.4838 148.804L29.4071 148.793L33.1554 148.727L40.6629 148.594L55.6781 148.339C65.6808 148.172 75.6946 147.984 85.6973 147.873L93.2049 147.785L100.712 147.718L115.728 147.596L119.476 147.563H119.949H120.179H120.3H120.41C120.553 147.552 120.696 147.563 120.839 147.541C120.982 147.53 121.125 147.518 121.268 147.507C121.839 147.441 122.4 147.319 122.949 147.142C124.049 146.787 125.071 146.221 125.961 145.468C126.852 144.725 127.588 143.794 128.138 142.763C128.687 141.732 129.028 140.59 129.138 139.415C129.149 139.338 129.16 139.271 129.16 139.194L129.171 138.972L129.182 138.75V138.528V138.307V138.074L129.171 137.597L129.127 135.702L128.929 128.131L128.709 120.559L128.467 112.988C128.302 107.945 128.127 102.901 127.918 97.8571C127.137 77.6822 125.917 57.5294 125.027 37.3656L124.862 33.5856L124.84 33.1089V32.987L124.829 32.8872L124.818 32.6877C124.818 32.5547 124.796 32.4216 124.774 32.2886C124.763 32.1556 124.741 32.0226 124.708 31.8896C124.609 31.3575 124.466 30.8365 124.279 30.3376C124.093 29.8388 123.851 29.3511 123.565 28.8966C123.279 28.4421 122.949 28.0208 122.587 27.6218C122.499 27.522 122.4 27.4333 122.312 27.3336C122.224 27.2338 122.114 27.1451 122.015 27.0564L121.861 26.9234L121.685 26.7682L121.323 26.4689L119.894 25.2496C116.068 21.9905 112.265 18.7204 108.462 15.4282L102.779 10.4842L99.943 8.00112L99.2395 7.38035L98.9208 7.08106L98.7449 6.92586L98.591 6.79284C98.1733 6.4492 97.7336 6.13882 97.25 5.87278C96.3047 5.35178 95.2494 5.00814 94.1722 4.87512C93.8974 4.84186 93.6336 4.81969 93.3588 4.81969C93.2269 4.81969 93.084 4.81969 92.9521 4.81969C92.8861 4.81969 92.7982 4.81969 92.7213 4.83078L92.4904 4.84186L90.6108 4.90837L83.1032 5.15224L68.0991 5.60673L60.5915 5.83952L53.084 6.09448L49.3357 6.2275L45.5874 6.37161C43.0922 6.47137 40.586 6.57114 38.0908 6.68199C33.0894 6.91478 28.0881 7.15865 23.0977 7.42469Z" fill="#001064"/>
<path d="M23.0757 7.09214C28.0771 6.83718 33.0674 6.54897 38.0688 6.24967C40.564 6.09448 43.0592 5.93929 45.5654 5.77301L49.3137 5.52914L53.062 5.27418L60.5476 4.74209L68.0331 4.17675L82.9933 3.03499L90.4789 2.49182L92.3475 2.35879L92.5784 2.34771C92.6553 2.34771 92.7322 2.33662 92.8202 2.33662C92.9961 2.32554 93.1719 2.31445 93.3478 2.31445C93.6995 2.31445 94.0513 2.32554 94.403 2.35879C95.832 2.48073 97.217 2.87979 98.4811 3.53382C99.1186 3.85528 99.7122 4.24326 100.273 4.68667L100.482 4.85295L100.669 5.00814L101.031 5.30744L101.757 5.90603L104.637 8.33367L110.396 13.189C114.222 16.4369 118.047 19.707 121.85 22.9771L123.279 24.2076L123.631 24.518L123.807 24.6731L124.005 24.8505C124.137 24.9724 124.268 25.0944 124.4 25.2274C124.521 25.3604 124.653 25.4824 124.774 25.6154C125.752 26.6795 126.511 27.9433 127.005 29.3067C127.258 29.9829 127.434 30.6924 127.555 31.4018C127.588 31.5792 127.61 31.7565 127.632 31.9339C127.654 32.1113 127.676 32.2886 127.676 32.4771L127.687 32.7431L127.698 32.8761V32.9981L127.709 33.4747L127.797 37.2548C128.27 57.4408 128.412 77.6268 129.006 97.8128C129.149 102.856 129.303 107.9 129.49 112.944L129.764 120.504L130.061 128.064L130.38 135.624L130.468 137.52L130.49 137.996L130.501 138.24V138.495V138.75L130.49 139.005L130.479 139.26C130.479 139.349 130.468 139.426 130.457 139.515C130.358 140.856 129.984 142.186 129.391 143.395C128.193 145.822 126.038 147.751 123.477 148.649C122.839 148.871 122.18 149.037 121.509 149.137C121.345 149.159 121.169 149.181 121.004 149.192C120.839 149.214 120.663 149.214 120.498 149.226L120.366 149.237H120.245L120.014 149.248L119.542 149.27L115.794 149.414L100.789 149.99L93.2928 150.279L85.7853 150.545C75.7825 150.899 65.7798 151.188 55.777 151.476L40.7729 151.919L33.2653 152.141L29.517 152.252L28.5717 152.274C28.3848 152.274 28.209 152.274 28.0221 152.274L27.4725 152.241C26.736 152.185 26.0106 152.052 25.2961 151.864C23.8781 151.465 22.5261 150.789 21.3609 149.891C20.1958 148.982 19.1955 147.851 18.448 146.565C17.7006 145.279 17.2059 143.849 16.9971 142.364L16.9311 141.81C16.9201 141.621 16.9091 141.444 16.8982 141.255L16.8542 140.302L16.7772 138.406C16.5684 133.363 16.3815 128.319 16.2057 123.275C16.0188 118.232 15.8429 113.188 15.678 108.144C15.5132 103.1 15.3373 98.0566 15.1944 93.0129C14.8866 82.9144 14.6888 72.8158 14.5129 62.7284C14.348 52.6298 14.2161 42.5424 13.9963 32.4438L13.9083 28.6638L13.8204 24.8838L13.6225 17.3015C13.6005 16.0046 13.8314 14.7187 14.293 13.5104C14.7547 12.3132 15.4472 11.1936 16.3156 10.2625C17.184 9.32025 18.2392 8.55538 19.3934 8.01221C20.5475 7.46903 21.8006 7.15865 23.0757 7.09214ZM23.0977 7.42469C21.8666 7.4912 20.6574 7.80159 19.5472 8.32259C18.4261 8.86576 17.4148 9.60846 16.5904 10.5174C15.766 11.4264 15.1065 12.5017 14.6778 13.6656C14.2601 14.8185 14.0622 16.06 14.1062 17.2905C14.2161 19.8068 14.348 22.3342 14.4799 24.8505L14.6778 28.6305L14.8866 32.4106C15.4472 42.4869 16.0957 52.5633 16.7113 62.6397C17.3159 72.7161 17.8984 82.7924 18.3821 92.8799C18.6239 97.9236 18.8437 102.967 19.0636 108C19.2944 113.044 19.5033 118.087 19.7121 123.131C19.921 128.175 20.1188 133.219 20.3057 138.262L20.3716 140.158L20.4046 141.089C20.4156 141.222 20.4156 141.344 20.4266 141.477L20.4706 141.865C20.6135 142.885 20.9542 143.883 21.4599 144.78C21.9765 145.678 22.658 146.476 23.4714 147.108C24.2848 147.751 25.2191 148.228 26.1974 148.505C26.6921 148.649 27.1977 148.738 27.7143 148.782L28.099 148.804C28.231 148.804 28.3629 148.804 28.4838 148.804L29.4071 148.793L33.1554 148.727L40.6629 148.594L55.6781 148.339C65.6808 148.172 75.6946 147.984 85.6973 147.873L93.2049 147.785L100.712 147.718L115.728 147.596L119.476 147.563H119.949H120.179H120.3H120.41C120.553 147.552 120.696 147.563 120.839 147.541C120.982 147.53 121.125 147.518 121.268 147.507C121.839 147.441 122.4 147.319 122.949 147.142C124.049 146.787 125.071 146.221 125.961 145.468C126.852 144.725 127.588 143.794 128.138 142.763C128.687 141.732 129.028 140.59 129.138 139.415C129.149 139.338 129.16 139.271 129.16 139.194L129.171 138.972L129.182 138.75V138.528V138.307V138.074L129.171 137.597L129.127 135.702L128.929 128.131L128.709 120.559L128.467 112.988C128.302 107.945 128.127 102.901 127.918 97.8571C127.137 77.6822 125.917 57.5294 125.027 37.3656L124.862 33.5856L124.84 33.1089V32.987L124.829 32.8872L124.818 32.6877C124.818 32.5547 124.796 32.4216 124.774 32.2886C124.763 32.1556 124.741 32.0226 124.708 31.8896C124.609 31.3575 124.466 30.8365 124.279 30.3376C124.093 29.8388 123.851 29.3511 123.565 28.8966C123.279 28.4421 122.949 28.0208 122.587 27.6218C122.499 27.522 122.4 27.4333 122.312 27.3336C122.224 27.2338 122.114 27.1451 122.015 27.0564L121.861 26.9234L121.685 26.7682L121.323 26.4689L119.894 25.2496C116.068 21.9905 112.265 18.7204 108.462 15.4282L102.779 10.4842L99.943 8.00112L99.2395 7.38035L98.9208 7.08106L98.7449 6.92586L98.591 6.79284C98.1733 6.4492 97.7336 6.13882 97.25 5.87278C96.3047 5.35178 95.2494 5.00814 94.1722 4.87512C93.8974 4.84186 93.6336 4.81969 93.3588 4.81969C93.2269 4.81969 93.084 4.81969 92.9521 4.81969C92.8861 4.81969 92.7982 4.81969 92.7213 4.83078L92.4904 4.84186L90.6108 4.90837L83.1032 5.15224L68.0991 5.60673L60.5915 5.83952L53.084 6.09448L49.3357 6.2275L45.5874 6.37161C43.0922 6.47137 40.586 6.57114 38.0908 6.68199C33.0894 6.91478 28.0881 7.15865 23.0977 7.42469Z" stroke="#001064" stroke-width="2" mask="url(#path-5-outside-2)"/>
<path d="M92.8189 3.58984C93.1487 4.69836 93.4235 5.80687 93.6983 6.91538C93.9731 8.02389 94.2259 9.14349 94.4677 10.2631C94.9514 12.4912 95.3911 14.7304 95.8088 16.9807L96.1056 18.6656C96.2045 19.2309 96.2924 19.7852 96.3913 20.3505C96.4793 20.9159 96.5782 21.4701 96.6661 22.0355L96.7321 22.4567L96.7541 22.5565L96.7761 22.6452L96.809 22.8225C96.831 22.9445 96.853 23.0553 96.886 23.1773L96.93 23.3546C96.9409 23.41 96.9629 23.4655 96.9739 23.532C97.4796 25.3832 98.6117 27.0238 100.118 28.1656C100.491 28.4538 100.898 28.7087 101.316 28.9304C101.733 29.1521 102.162 29.3406 102.613 29.4958C103.503 29.7951 104.449 29.9392 105.405 29.9503L105.768 29.9392L106.185 29.917L107.032 29.8837C107.592 29.8616 108.164 29.8394 108.724 29.8172L110.417 29.7618L112.11 29.6953C114.374 29.651 116.628 29.6288 118.903 29.6731C120.035 29.6953 121.167 29.7175 122.311 29.7729C123.443 29.8172 124.586 29.8837 125.718 29.9724C124.608 30.2385 123.487 30.4713 122.377 30.693C121.266 30.9147 120.145 31.1142 119.024 31.3026C116.793 31.6795 114.55 32.0121 112.308 32.3003L110.626 32.522L108.944 32.7215C108.384 32.788 107.823 32.8546 107.262 32.91L106.416 32.9987L105.998 33.043L105.515 33.0763C104.218 33.1428 102.888 32.9876 101.635 32.5996C101.008 32.4001 100.392 32.1562 99.8099 31.8569C99.2273 31.5576 98.6667 31.2029 98.1391 30.8038C96.0396 29.2076 94.5117 26.8464 93.9511 24.2747C93.9291 24.1971 93.9181 24.1195 93.8961 24.0308L93.8522 23.7869C93.8192 23.6207 93.7972 23.4655 93.7752 23.2992L93.7423 23.0553L93.7313 22.9334L93.7203 22.8225L93.6763 22.4013C93.6213 21.836 93.5774 21.2706 93.5224 20.6942C93.4785 20.1288 93.4235 19.5635 93.3795 18.9871L93.2476 17.28C93.0827 15.0075 92.9508 12.724 92.8739 10.4404C92.8409 9.29868 92.8079 8.15691 92.7969 7.00406C92.7859 5.88446 92.775 4.73161 92.8189 3.58984Z" fill="#001064"/>
<mask id="path-7-outside-3" maskUnits="userSpaceOnUse" x="59.2845" y="61.9792" width="29.7145" height="39.1575" fill="black">
<rect fill="white" x="59.2845" y="61.9792" width="29.7145" height="39.1575"/>
<path d="M62.6292 96.7944C63.3264 94.7149 64.0857 92.6498 64.9072 90.5991C65.3285 89.5825 65.749 88.5467 66.1908 87.5286L67.4957 84.4756L67.5319 84.3764C67.5504 84.3364 67.5494 84.3172 67.568 84.2771C67.605 84.1971 67.6411 84.0978 67.6569 84.0002C67.7096 83.8225 67.7411 83.6272 67.753 83.4527C67.7761 83.0846 67.7166 82.7036 67.5959 82.3275C67.4762 81.9706 67.2749 81.6201 67.0152 81.332C66.9503 81.26 66.8853 81.188 66.8204 81.116L66.6275 80.9384L66.3493 80.6903C65.6204 80.015 65.011 79.2725 64.5407 78.4419C64.2958 78.037 64.1102 77.5888 63.9459 77.1583C63.8531 76.9342 63.8011 76.7069 63.7287 76.4813C63.6767 76.254 63.6247 76.0267 63.5727 75.7994C63.4891 75.3432 63.4453 74.8646 63.4627 74.3812C63.4598 73.8994 63.5189 73.432 63.5771 72.9454C63.9147 71.0484 64.929 69.1753 66.4757 67.723C67.2597 67.0057 68.1726 66.4132 69.1522 65.9311C70.1329 65.4682 71.2007 65.1141 72.2991 64.9697C74.4942 64.6426 76.7647 65.0229 78.6757 66.0099C80.5664 66.9986 82.0577 68.6165 82.7621 70.4699C83.1351 71.4046 83.2857 72.3954 83.2917 73.359C83.2782 74.3434 83.1006 75.3215 82.7357 76.2372C82.3912 77.1513 81.8808 78.0206 81.2423 78.7844L80.9903 79.0742C80.9134 79.1766 80.8152 79.2615 80.7373 79.3447C80.6604 79.4472 80.5622 79.5321 80.464 79.6169L80.3268 79.7434C80.2684 79.8059 80.1702 79.8908 80.1128 79.9724C79.8209 80.2846 79.5939 80.6689 79.4485 81.0467C79.3041 81.4437 79.2217 81.8551 79.2423 82.2777C79.2629 82.7002 79.3437 83.0988 79.5264 83.4893L79.8494 84.2351L80.4943 85.7076L81.8044 88.6509C82.6785 90.6259 83.5915 92.5593 84.5258 94.5103L84.8682 95.2353L84.9591 95.4209C84.9582 95.4017 84.9582 95.4017 84.9572 95.3825C84.9563 95.3633 84.9758 95.3425 84.9767 95.3617C84.9767 95.3617 84.9776 95.3809 84.9378 95.4033L84.9174 95.4049C84.9174 95.4049 84.9174 95.4049 84.897 95.4065C84.8766 95.4081 84.8358 95.4114 84.795 95.4146L84.3667 95.4483L83.5111 95.535L81.7999 95.7084C79.5195 95.9651 77.2419 96.2795 74.9457 96.634C72.67 96.9868 70.3952 97.3588 68.0972 97.6748C66.9589 97.8416 65.8186 97.97 64.6784 98.0984C64.3929 98.1209 64.0879 98.1642 63.8228 98.1851C63.5577 98.206 63.3092 98.1484 63.0978 98.0108C62.8873 97.8924 62.7139 97.694 62.6211 97.4699C62.5709 97.2811 62.5588 97.0314 62.6292 96.7944ZM62.3807 96.7369C62.2918 97.0138 62.2873 97.342 62.4033 97.6221C62.5193 97.9021 62.715 98.1374 62.9885 98.2894C63.2426 98.4622 63.5532 98.5341 63.8804 98.5276C63.962 98.5212 64.0445 98.534 64.1057 98.5292L64.33 98.5115L64.7593 98.497C65.9032 98.4454 67.0471 98.3938 68.193 98.3807C70.4837 98.3352 72.7771 98.3474 75.0901 98.3387C77.3827 98.3316 79.6734 98.2861 81.9817 98.1814L83.6966 98.0849L84.5541 98.0366L84.9824 98.0028L85.1048 97.9932L85.3087 97.9771C85.4311 97.9675 85.5729 97.937 85.7138 97.8874C86.2394 97.7496 86.7361 97.4405 87.1263 97.0434C87.4951 96.6287 87.7563 96.1068 87.8098 95.5241C87.8366 95.2328 87.8021 94.9463 87.7483 94.6806C87.7213 94.5477 87.6536 94.4181 87.6072 94.3061L87.5163 94.1204L87.1739 93.3954C86.2804 91.4412 85.3665 89.4886 84.4127 87.5585L82.982 84.6632L82.2565 83.2164L81.8937 82.493C81.8269 82.3826 81.8009 82.2689 81.7944 82.1345C81.7822 81.8848 81.8516 81.6286 82.0258 81.4221C82.0453 81.4013 82.0648 81.3804 82.1037 81.3388L82.2593 81.1723C82.3557 81.049 82.4734 80.9433 82.5698 80.8201C82.6661 80.6968 82.7838 80.5911 82.8802 80.4678L83.1275 80.082C83.8567 79.0797 84.4366 77.9543 84.7689 76.7905C85.4734 74.4404 85.1684 71.9578 84.0857 69.9029C83.8148 69.3843 83.5049 68.9074 83.1553 68.4529C82.8056 67.9984 82.3957 67.5679 81.9876 67.1759C81.5592 66.7854 81.1122 66.435 80.6253 66.107C80.1385 65.779 79.6341 65.5102 79.1102 65.2623C76.9953 64.2913 74.582 63.9222 72.2191 64.1662C71.9141 64.2095 71.6286 64.232 71.3236 64.2753L70.4523 64.4597C70.3105 64.4901 70.1686 64.5206 70.0073 64.5718L69.5837 64.7016C69.4429 64.7513 69.301 64.7817 69.1601 64.8314L68.7375 64.9804C67.6113 65.3969 66.5139 65.9847 65.5454 66.6973C64.5779 67.4291 63.6994 68.3081 62.9897 69.2895C62.2809 70.2902 61.7205 71.3948 61.4309 72.5938C61.3633 72.8884 61.3161 73.1813 61.2495 73.4951L61.22 73.7288L61.2108 73.9609L61.1711 74.4075C61.1185 75.0094 61.1688 75.6224 61.259 76.2131C61.3491 76.8037 61.5005 77.3895 61.713 77.9705C61.9246 78.5323 62.177 79.0908 62.5091 79.6046C62.8208 80.1199 63.1918 80.592 63.6026 81.0417C64.0126 81.4721 64.4623 81.8802 64.951 82.2466L65.3118 82.5074L65.3758 82.5602L65.4184 82.5954L65.5037 82.6658C65.6113 82.7731 65.7198 82.8995 65.8079 83.0275C65.8766 83.1763 65.9249 83.3268 65.9527 83.4789C65.9565 83.5557 65.9612 83.6517 65.9445 83.7302C65.9464 83.7686 65.9278 83.8086 65.9307 83.8662C65.9316 83.8854 65.9131 83.9255 65.914 83.9447L65.8983 84.0423L65.1116 87.2279C64.8562 88.2893 64.5803 89.3522 64.3045 90.4152C63.7121 92.5443 63.0983 94.6558 62.3807 96.7369Z"/>
</mask>
<path d="M62.6292 96.7944C63.3264 94.7149 64.0857 92.6498 64.9072 90.5991C65.3285 89.5825 65.749 88.5467 66.1908 87.5286L67.4957 84.4756L67.5319 84.3764C67.5504 84.3364 67.5494 84.3172 67.568 84.2771C67.605 84.1971 67.6411 84.0978 67.6569 84.0002C67.7096 83.8225 67.7411 83.6272 67.753 83.4527C67.7761 83.0846 67.7166 82.7036 67.5959 82.3275C67.4762 81.9706 67.2749 81.6201 67.0152 81.332C66.9503 81.26 66.8853 81.188 66.8204 81.116L66.6275 80.9384L66.3493 80.6903C65.6204 80.015 65.011 79.2725 64.5407 78.4419C64.2958 78.037 64.1102 77.5888 63.9459 77.1583C63.8531 76.9342 63.8011 76.7069 63.7287 76.4813C63.6767 76.254 63.6247 76.0267 63.5727 75.7994C63.4891 75.3432 63.4453 74.8646 63.4627 74.3812C63.4598 73.8994 63.5189 73.432 63.5771 72.9454C63.9147 71.0484 64.929 69.1753 66.4757 67.723C67.2597 67.0057 68.1726 66.4132 69.1522 65.9311C70.1329 65.4682 71.2007 65.1141 72.2991 64.9697C74.4942 64.6426 76.7647 65.0229 78.6757 66.0099C80.5664 66.9986 82.0577 68.6165 82.7621 70.4699C83.1351 71.4046 83.2857 72.3954 83.2917 73.359C83.2782 74.3434 83.1006 75.3215 82.7357 76.2372C82.3912 77.1513 81.8808 78.0206 81.2423 78.7844L80.9903 79.0742C80.9134 79.1766 80.8152 79.2615 80.7373 79.3447C80.6604 79.4472 80.5622 79.5321 80.464 79.6169L80.3268 79.7434C80.2684 79.8059 80.1702 79.8908 80.1128 79.9724C79.8209 80.2846 79.5939 80.6689 79.4485 81.0467C79.3041 81.4437 79.2217 81.8551 79.2423 82.2777C79.2629 82.7002 79.3437 83.0988 79.5264 83.4893L79.8494 84.2351L80.4943 85.7076L81.8044 88.6509C82.6785 90.6259 83.5915 92.5593 84.5258 94.5103L84.8682 95.2353L84.9591 95.4209C84.9582 95.4017 84.9582 95.4017 84.9572 95.3825C84.9563 95.3633 84.9758 95.3425 84.9767 95.3617C84.9767 95.3617 84.9776 95.3809 84.9378 95.4033L84.9174 95.4049C84.9174 95.4049 84.9174 95.4049 84.897 95.4065C84.8766 95.4081 84.8358 95.4114 84.795 95.4146L84.3667 95.4483L83.5111 95.535L81.7999 95.7084C79.5195 95.9651 77.2419 96.2795 74.9457 96.634C72.67 96.9868 70.3952 97.3588 68.0972 97.6748C66.9589 97.8416 65.8186 97.97 64.6784 98.0984C64.3929 98.1209 64.0879 98.1642 63.8228 98.1851C63.5577 98.206 63.3092 98.1484 63.0978 98.0108C62.8873 97.8924 62.7139 97.694 62.6211 97.4699C62.5709 97.2811 62.5588 97.0314 62.6292 96.7944ZM62.3807 96.7369C62.2918 97.0138 62.2873 97.342 62.4033 97.6221C62.5193 97.9021 62.715 98.1374 62.9885 98.2894C63.2426 98.4622 63.5532 98.5341 63.8804 98.5276C63.962 98.5212 64.0445 98.534 64.1057 98.5292L64.33 98.5115L64.7593 98.497C65.9032 98.4454 67.0471 98.3938 68.193 98.3807C70.4837 98.3352 72.7771 98.3474 75.0901 98.3387C77.3827 98.3316 79.6734 98.2861 81.9817 98.1814L83.6966 98.0849L84.5541 98.0366L84.9824 98.0028L85.1048 97.9932L85.3087 97.9771C85.4311 97.9675 85.5729 97.937 85.7138 97.8874C86.2394 97.7496 86.7361 97.4405 87.1263 97.0434C87.4951 96.6287 87.7563 96.1068 87.8098 95.5241C87.8366 95.2328 87.8021 94.9463 87.7483 94.6806C87.7213 94.5477 87.6536 94.4181 87.6072 94.3061L87.5163 94.1204L87.1739 93.3954C86.2804 91.4412 85.3665 89.4886 84.4127 87.5585L82.982 84.6632L82.2565 83.2164L81.8937 82.493C81.8269 82.3826 81.8009 82.2689 81.7944 82.1345C81.7822 81.8848 81.8516 81.6286 82.0258 81.4221C82.0453 81.4013 82.0648 81.3804 82.1037 81.3388L82.2593 81.1723C82.3557 81.049 82.4734 80.9433 82.5698 80.8201C82.6661 80.6968 82.7838 80.5911 82.8802 80.4678L83.1275 80.082C83.8567 79.0797 84.4366 77.9543 84.7689 76.7905C85.4734 74.4404 85.1684 71.9578 84.0857 69.9029C83.8148 69.3843 83.5049 68.9074 83.1553 68.4529C82.8056 67.9984 82.3957 67.5679 81.9876 67.1759C81.5592 66.7854 81.1122 66.435 80.6253 66.107C80.1385 65.779 79.6341 65.5102 79.1102 65.2623C76.9953 64.2913 74.582 63.9222 72.2191 64.1662C71.9141 64.2095 71.6286 64.232 71.3236 64.2753L70.4523 64.4597C70.3105 64.4901 70.1686 64.5206 70.0073 64.5718L69.5837 64.7016C69.4429 64.7513 69.301 64.7817 69.1601 64.8314L68.7375 64.9804C67.6113 65.3969 66.5139 65.9847 65.5454 66.6973C64.5779 67.4291 63.6994 68.3081 62.9897 69.2895C62.2809 70.2902 61.7205 71.3948 61.4309 72.5938C61.3633 72.8884 61.3161 73.1813 61.2495 73.4951L61.22 73.7288L61.2108 73.9609L61.1711 74.4075C61.1185 75.0094 61.1688 75.6224 61.259 76.2131C61.3491 76.8037 61.5005 77.3895 61.713 77.9705C61.9246 78.5323 62.177 79.0908 62.5091 79.6046C62.8208 80.1199 63.1918 80.592 63.6026 81.0417C64.0126 81.4721 64.4623 81.8802 64.951 82.2466L65.3118 82.5074L65.3758 82.5602L65.4184 82.5954L65.5037 82.6658C65.6113 82.7731 65.7198 82.8995 65.8079 83.0275C65.8766 83.1763 65.9249 83.3268 65.9527 83.4789C65.9565 83.5557 65.9612 83.6517 65.9445 83.7302C65.9464 83.7686 65.9278 83.8086 65.9307 83.8662C65.9316 83.8854 65.9131 83.9255 65.914 83.9447L65.8983 84.0423L65.1116 87.2279C64.8562 88.2893 64.5803 89.3522 64.3045 90.4152C63.7121 92.5443 63.0983 94.6558 62.3807 96.7369Z" fill="#001064"/>
<path d="M62.6292 96.7944C63.3264 94.7149 64.0857 92.6498 64.9072 90.5991C65.3285 89.5825 65.749 88.5467 66.1908 87.5286L67.4957 84.4756L67.5319 84.3764C67.5504 84.3364 67.5494 84.3172 67.568 84.2771C67.605 84.1971 67.6411 84.0978 67.6569 84.0002C67.7096 83.8225 67.7411 83.6272 67.753 83.4527C67.7761 83.0846 67.7166 82.7036 67.5959 82.3275C67.4762 81.9706 67.2749 81.6201 67.0152 81.332C66.9503 81.26 66.8853 81.188 66.8204 81.116L66.6275 80.9384L66.3493 80.6903C65.6204 80.015 65.011 79.2725 64.5407 78.4419C64.2958 78.037 64.1102 77.5888 63.9459 77.1583C63.8531 76.9342 63.8011 76.7069 63.7287 76.4813C63.6767 76.254 63.6247 76.0267 63.5727 75.7994C63.4891 75.3432 63.4453 74.8646 63.4627 74.3812C63.4598 73.8994 63.5189 73.432 63.5771 72.9454C63.9147 71.0484 64.929 69.1753 66.4757 67.723C67.2597 67.0057 68.1726 66.4132 69.1522 65.9311C70.1329 65.4682 71.2007 65.1141 72.2991 64.9697C74.4942 64.6426 76.7647 65.0229 78.6757 66.0099C80.5664 66.9986 82.0577 68.6165 82.7621 70.4699C83.1351 71.4046 83.2857 72.3954 83.2917 73.359C83.2782 74.3434 83.1006 75.3215 82.7357 76.2372C82.3912 77.1513 81.8808 78.0206 81.2423 78.7844L80.9903 79.0742C80.9134 79.1766 80.8152 79.2615 80.7373 79.3447C80.6604 79.4472 80.5622 79.5321 80.464 79.6169L80.3268 79.7434C80.2684 79.8059 80.1702 79.8908 80.1128 79.9724C79.8209 80.2846 79.5939 80.6689 79.4485 81.0467C79.3041 81.4437 79.2217 81.8551 79.2423 82.2777C79.2629 82.7002 79.3437 83.0988 79.5264 83.4893L79.8494 84.2351L80.4943 85.7076L81.8044 88.6509C82.6785 90.6259 83.5915 92.5593 84.5258 94.5103L84.8682 95.2353L84.9591 95.4209C84.9582 95.4017 84.9582 95.4017 84.9572 95.3825C84.9563 95.3633 84.9758 95.3425 84.9767 95.3617C84.9767 95.3617 84.9776 95.3809 84.9378 95.4033L84.9174 95.4049C84.9174 95.4049 84.9174 95.4049 84.897 95.4065C84.8766 95.4081 84.8358 95.4114 84.795 95.4146L84.3667 95.4483L83.5111 95.535L81.7999 95.7084C79.5195 95.9651 77.2419 96.2795 74.9457 96.634C72.67 96.9868 70.3952 97.3588 68.0972 97.6748C66.9589 97.8416 65.8186 97.97 64.6784 98.0984C64.3929 98.1209 64.0879 98.1642 63.8228 98.1851C63.5577 98.206 63.3092 98.1484 63.0978 98.0108C62.8873 97.8924 62.7139 97.694 62.6211 97.4699C62.5709 97.2811 62.5588 97.0314 62.6292 96.7944ZM62.3807 96.7369C62.2918 97.0138 62.2873 97.342 62.4033 97.6221C62.5193 97.9021 62.715 98.1374 62.9885 98.2894C63.2426 98.4622 63.5532 98.5341 63.8804 98.5276C63.962 98.5212 64.0445 98.534 64.1057 98.5292L64.33 98.5115L64.7593 98.497C65.9032 98.4454 67.0471 98.3938 68.193 98.3807C70.4837 98.3352 72.7771 98.3474 75.0901 98.3387C77.3827 98.3316 79.6734 98.2861 81.9817 98.1814L83.6966 98.0849L84.5541 98.0366L84.9824 98.0028L85.1048 97.9932L85.3087 97.9771C85.4311 97.9675 85.5729 97.937 85.7138 97.8874C86.2394 97.7496 86.7361 97.4405 87.1263 97.0434C87.4951 96.6287 87.7563 96.1068 87.8098 95.5241C87.8366 95.2328 87.8021 94.9463 87.7483 94.6806C87.7213 94.5477 87.6536 94.4181 87.6072 94.3061L87.5163 94.1204L87.1739 93.3954C86.2804 91.4412 85.3665 89.4886 84.4127 87.5585L82.982 84.6632L82.2565 83.2164L81.8937 82.493C81.8269 82.3826 81.8009 82.2689 81.7944 82.1345C81.7822 81.8848 81.8516 81.6286 82.0258 81.4221C82.0453 81.4013 82.0648 81.3804 82.1037 81.3388L82.2593 81.1723C82.3557 81.049 82.4734 80.9433 82.5698 80.8201C82.6661 80.6968 82.7838 80.5911 82.8802 80.4678L83.1275 80.082C83.8567 79.0797 84.4366 77.9543 84.7689 76.7905C85.4734 74.4404 85.1684 71.9578 84.0857 69.9029C83.8148 69.3843 83.5049 68.9074 83.1553 68.4529C82.8056 67.9984 82.3957 67.5679 81.9876 67.1759C81.5592 66.7854 81.1122 66.435 80.6253 66.107C80.1385 65.779 79.6341 65.5102 79.1102 65.2623C76.9953 64.2913 74.582 63.9222 72.2191 64.1662C71.9141 64.2095 71.6286 64.232 71.3236 64.2753L70.4523 64.4597C70.3105 64.4901 70.1686 64.5206 70.0073 64.5718L69.5837 64.7016C69.4429 64.7513 69.301 64.7817 69.1601 64.8314L68.7375 64.9804C67.6113 65.3969 66.5139 65.9847 65.5454 66.6973C64.5779 67.4291 63.6994 68.3081 62.9897 69.2895C62.2809 70.2902 61.7205 71.3948 61.4309 72.5938C61.3633 72.8884 61.3161 73.1813 61.2495 73.4951L61.22 73.7288L61.2108 73.9609L61.1711 74.4075C61.1185 75.0094 61.1688 75.6224 61.259 76.2131C61.3491 76.8037 61.5005 77.3895 61.713 77.9705C61.9246 78.5323 62.177 79.0908 62.5091 79.6046C62.8208 80.1199 63.1918 80.592 63.6026 81.0417C64.0126 81.4721 64.4623 81.8802 64.951 82.2466L65.3118 82.5074L65.3758 82.5602L65.4184 82.5954L65.5037 82.6658C65.6113 82.7731 65.7198 82.8995 65.8079 83.0275C65.8766 83.1763 65.9249 83.3268 65.9527 83.4789C65.9565 83.5557 65.9612 83.6517 65.9445 83.7302C65.9464 83.7686 65.9278 83.8086 65.9307 83.8662C65.9316 83.8854 65.9131 83.9255 65.914 83.9447L65.8983 84.0423L65.1116 87.2279C64.8562 88.2893 64.5803 89.3522 64.3045 90.4152C63.7121 92.5443 63.0983 94.6558 62.3807 96.7369Z" stroke="#001064" stroke-width="2" mask="url(#path-7-outside-3)"/>
<path d="M79.2317 97.5232L79.2187 97.5014L79.2079 97.4784L73.59 85.4394C73.5898 85.439 73.5896 85.4387 73.5894 85.4383C73.1039 84.4077 73.3524 83.2133 74.1757 82.4012L74.1764 82.4006C76.0422 80.5669 77.1031 78.1372 76.9653 75.5451C76.8232 72.8716 76.0677 70.5642 74.6606 68.9999C73.2706 67.4546 71.1937 66.577 68.2628 66.8442C67.633 66.9066 67.0122 67.006 66.4189 67.158L66.0218 66.2636C67.7077 65.0903 69.7522 64.3211 71.9722 64.127C78.3488 63.5457 83.899 67.7693 84.2072 73.5664C84.362 76.4786 83.1461 79.2049 81.1146 81.1997C80.5815 81.7259 80.4431 82.4637 80.7387 83.0903L80.7399 83.093L86.3382 95.152C86.3384 95.1524 86.3386 95.1529 86.3389 95.1534C86.9155 96.3786 85.902 97.6222 84.6431 97.7092L82.2239 97.8764L81.8048 97.9053L81.7855 97.8218C81.7792 97.8215 81.7727 97.8212 81.7662 97.8209C81.5409 97.8109 81.2375 97.807 80.9238 97.8042C80.8578 97.8037 80.7913 97.8032 80.7251 97.8026C80.482 97.8007 80.2438 97.7989 80.0532 97.7945C79.9328 97.7918 79.822 97.7878 79.7367 97.7814C79.6959 97.7784 79.6478 97.7739 79.603 97.766C79.5823 97.7624 79.545 97.7551 79.5033 97.7408C79.4827 97.7337 79.447 97.7202 79.4068 97.6966C79.3733 97.6768 79.2927 97.625 79.2317 97.5232Z" fill="#001064" stroke="#001064"/>
<path d="M51.5257 122.005L48.7968 116.628L47.781 118.196L42.9879 123.54L37.7985 125.044L43.5109 129.925L45.7796 135.671L49.2872 130.598L56.3653 127.206L56.0956 125.91L51.5257 122.005Z" fill="white"/>
<path d="M61.3894 127.444C60.7254 126.808 59.5259 126.691 58.6601 126.333C57.7085 125.931 56.7994 125.456 55.9575 124.889C54.2316 123.726 52.7686 122.248 51.7163 120.549C50.6355 118.802 49.9927 116.792 49.8236 114.805C49.8212 114.726 49.809 114.636 49.8066 114.557C50.387 112.657 50.6915 110.691 50.6117 108.815C50.5703 107.692 48.6449 107.479 48.4253 108.605C48.3751 108.845 48.3361 109.086 48.3195 109.33C48.3094 109.419 48.3117 109.497 48.3253 109.577C48.1707 111.124 48.0075 112.648 47.5721 114.174C47.0415 116.035 46.245 117.843 45.215 119.512C44.3234 120.962 43.1809 122.327 41.6363 123.243C39.9337 124.252 38.03 124.444 36.0251 124.233C35.3862 124.17 35.0331 124.878 35.6292 125.215C36.162 125.512 36.7173 125.711 37.2604 125.819C37.5199 126.028 37.7694 126.225 38.0774 126.406C38.661 126.754 39.2211 127.11 39.7387 127.539C40.7976 128.389 41.7033 129.389 42.4036 130.499C43.9084 132.899 44.3245 135.799 43.7154 138.444C43.5788 139.043 43.9721 139.469 44.4641 139.627C44.9086 140.596 46.5226 140.46 46.5683 139.269C46.6987 135.952 47.9515 132.833 50.9066 130.785C52.261 129.847 53.7925 129.243 55.4541 128.888C56.5361 128.645 57.6376 128.628 58.7305 128.588C59.5119 128.891 60.3482 129.112 61.0634 128.904C61.7675 128.696 61.8808 127.904 61.3894 127.444ZM55.0971 126.957C53.0539 127.278 51.067 128.098 49.4599 129.264C48.0382 130.294 46.8186 131.639 45.9207 133.145C45.6159 131.946 45.1158 130.77 44.4142 129.671C43.5985 128.38 42.498 127.201 41.2354 126.249C40.9536 126.037 40.6593 125.835 40.3539 125.632C42.7794 124.941 44.9995 123.076 46.3081 121.35C47.0957 120.312 47.8065 119.154 48.4216 117.94C48.7328 119.083 49.1833 120.198 49.7867 121.263C50.8995 123.226 52.546 124.983 54.4668 126.325C54.7498 126.526 55.0454 126.717 55.3422 126.896C55.27 126.933 55.1891 126.946 55.0971 126.957Z" fill="#001064"/>
<path d="M66.9291 112.053C65.0432 112.363 43.1047 113.277 43.1047 112.52C43.1047 108.621 43.3307 104.609 42.9738 100.736C42.705 97.8186 43.1047 94.9567 43.1047 92.0374C43.1047 88.6476 43.1047 85.2579 43.1047 81.8681C43.1047 72.0275 43.1047 62.187 43.1047 52.3464C43.1047 51.3161 42.9665 50.123 43.1047 49.1001C43.2857 47.7615 47.8568 48.1316 48.6027 48.1316C53.418 48.1316 58.1877 48.4544 63.002 48.4544C73.0258 48.4544 83.0231 47.8088 93.0515 47.8088C93.9368 47.8088 100.739 46.9102 100.906 47.9164C101.515 51.6073 100.915 55.6302 101.429 59.3592C101.709 61.3864 101.4 63.5143 101.618 65.5648C101.852 67.7539 101.846 69.9645 102.069 72.165C102.59 77.2999 103.002 82.4825 103.524 87.6253C104.132 93.6248 105.415 99.8711 105.415 105.919" stroke="#001064" stroke-width="3" stroke-linecap="round" stroke-linejoin="round" stroke-dasharray="10 10"/>
<path d="M122.062 55.8978L118.684 50.0368L117.639 51.8557L112.585 58.1352L106.859 60.1345L113.551 65.2593L116.436 71.5606L120.065 65.6636L127.795 61.434L127.416 59.9977L122.062 55.8978Z" fill="white"/>
<path d="M133.441 61.3963C132.659 60.7234 131.307 60.6645 130.316 60.3157C129.225 59.9233 128.178 59.4462 127.201 58.861C125.198 57.6627 123.47 56.0943 122.19 54.2539C120.874 52.3615 120.034 50.1488 119.727 47.9318C119.719 47.8439 119.7 47.7428 119.693 47.6549C120.23 45.4903 120.454 43.2688 120.253 41.1707C120.14 39.9148 117.969 39.7926 117.79 41.0678C117.748 41.3399 117.719 41.6129 117.715 41.8874C117.709 41.9869 117.716 42.0748 117.736 42.1634C117.655 43.9068 117.563 45.6245 117.166 47.3607C116.682 49.4787 115.897 51.553 114.842 53.4857C113.929 55.1649 112.73 56.7639 111.053 57.8837C109.205 59.1178 107.083 59.4482 104.824 59.3329C104.104 59.3007 103.75 60.1155 104.439 60.4579C105.053 60.7583 105.688 60.9476 106.303 61.0357C106.606 61.2543 106.897 61.4597 107.253 61.6442C107.928 61.9983 108.577 62.3632 109.182 62.813C110.42 63.7015 111.494 64.7673 112.345 65.969C114.175 68.5678 114.813 71.792 114.288 74.7941C114.171 75.4737 114.637 75.9272 115.198 76.0744C115.754 77.133 117.554 76.8826 117.535 75.5451C117.483 71.8204 118.702 68.2493 121.892 65.7748C123.354 64.6417 125.034 63.8718 126.875 63.3741C128.073 63.0364 129.307 62.9506 130.529 62.8391C131.423 63.1319 132.373 63.3282 133.162 63.0525C133.939 62.776 134.019 61.8818 133.441 61.3963ZM126.36 61.2316C124.089 61.7151 121.911 62.7538 120.18 64.1574C118.648 65.3986 117.361 66.9797 116.444 68.7212C116.031 67.3967 115.401 66.1087 114.549 64.9194C113.558 63.5217 112.255 62.2668 110.783 61.2763C110.455 61.0561 110.113 60.8476 109.758 60.6382C112.436 59.7179 114.813 57.4926 116.176 55.4792C116.997 54.2688 117.725 52.9278 118.342 51.5299C118.759 52.7921 119.33 54.014 120.07 55.1714C121.434 57.3042 123.383 59.1736 125.616 60.561C125.945 60.7687 126.288 60.9648 126.631 61.1485C126.552 61.1936 126.462 61.213 126.36 61.2316Z" fill="#001064"/>
<path d="M114.821 118.736L101.83 116.935L99.8533 116.636L97.8647 118.047L97.2797 120.894L98.96 123.186L100.917 126.335L99.2093 128.034L98.0668 129.736L98.3318 132.304L96.3433 133.715L94.6315 135.984L95.7504 137.702L97.7193 139.141L101.107 139.735L100.534 140.871L100.238 142.864L102.764 145.448L105.864 146.895L107.844 146.624L109.252 147.489L120.176 162.104L125.494 169.838L129.981 175L136.157 181.315L150.793 190.54L154.996 195.985L159.214 199.151L162.041 199.17L167.718 195.789L175.688 187.864L177.127 184.168L176.858 182.17L170.995 171.582L165.973 161.855L155.97 136.699L154.005 134.689L148.379 130.659L134.296 123.149L124.709 119.661L114.821 118.736Z" fill="white"/>
<mask id="path-15-outside-4" maskUnits="userSpaceOnUse" x="74.3357" y="81.7308" width="117.503" height="127.947" fill="black">
<rect fill="white" x="74.3357" y="81.7308" width="117.503" height="127.947"/>
<path d="M174.338 189.37C175.852 187.715 177.495 185.635 178.07 183.419C178.605 181.156 177.595 180.022 176.209 178.333C173.254 174.634 170.763 170.627 168.784 166.272C168.716 166.092 168.648 165.912 168.571 165.818C170.917 167.024 173.253 168.316 175.599 169.521C177.571 170.564 179.831 171.762 181.916 172.553C185.79 174.066 186.636 170.043 183.346 168.756C182.016 168.204 180.61 167.559 179.336 166.882C176.454 165.412 173.582 163.856 170.662 162.339C169.101 161.506 167.54 160.674 166.027 159.801C164.792 156.644 163.642 153.494 162.398 150.423C160.814 146.451 159.22 142.565 157.588 138.632C156.617 136.282 156.128 134.714 154.152 133.279C146.183 127.359 136.504 122.466 126.939 119.85C118.806 117.619 110.638 116.998 102.242 116.487C100.762 116.141 99.2483 116.533 98.2444 117.448C98.0638 117.519 97.9216 117.638 97.9039 117.81C96.8348 118.938 96.4943 120.564 97.4895 122.263L97.528 122.31C95.3542 121.119 93.2189 119.975 91.0836 118.831C88.8239 117.633 86.582 116.262 84.1712 115.268C82.9185 114.811 77.7181 114.403 77.7181 114.403C77.7181 114.403 81.5623 118.31 82.6552 119.059C88.4836 123.05 91.5784 123.711 95.9261 126.093C96.9893 126.708 98.0999 127.283 99.1246 127.852C97.9756 128.493 97.2116 129.603 97.567 131.203C97.6559 131.603 97.7448 132.003 97.881 132.363C95.7488 132.875 93.4063 134.589 94.1113 137.004C94.9051 139.818 97.8548 140.204 100.458 140.169C99.3297 141.03 99.007 142.483 100.011 144.095C101.527 146.624 104.838 148.131 107.761 147.513C110.276 150.869 112.838 154.185 115.352 157.541C119.505 163.086 122.946 169.224 127.62 174.336C134.005 181.339 142.141 186.49 150.019 191.618C152.518 194.275 156.247 200.569 160.627 199.685C162.798 199.219 164.93 197.444 166.666 196.156C169.464 194.22 172.04 191.916 174.338 189.37ZM101.976 117.815L102.062 117.823C102.062 117.823 102.1 117.869 102.148 117.83C104.132 117.915 106.069 118.039 108.044 118.211C106.614 120.745 100.217 121.018 99.2425 118.275C99.8584 117.762 100.839 117.499 101.976 117.815ZM98.4133 119.598C100.649 122.711 107.92 121.948 109.38 118.283C119.162 119.219 128.739 120.878 137.594 125.35C142.697 127.971 147.791 130.679 152.574 133.883C155.047 135.536 155.616 137.589 156.762 140.347C158.51 144.421 160.124 148.526 161.777 152.678C162.603 154.755 163.382 156.87 164.256 158.907C157.524 155.273 150.754 151.591 144.031 147.871C141.982 146.734 139.846 145.59 137.797 144.454C135.842 141.975 134.172 139.259 132.72 136.518C132.353 135.876 132.066 135.721 131.396 135.488C129.149 134.596 126.957 133.578 124.766 132.56C121.914 131.223 117.542 128.229 109.685 125.848C106.454 124.827 102.838 124.601 99.9061 122.778C98.5556 122.007 98.1261 120.706 98.4133 119.598ZM141.307 152.036C140.232 151.114 139.204 150.154 138.12 149.319C139.183 149.934 140.294 150.51 141.357 151.125C141.378 151.345 141.39 151.651 141.307 152.036ZM116.228 137.223C118.402 138.414 120.614 139.651 122.788 140.842C124.713 141.924 126.724 143.014 128.649 144.096C126.096 143.221 123.43 142.597 120.928 142.075C119.361 140.458 117.842 138.801 116.228 137.223ZM117.445 130.443C121.179 132.467 125.074 134.199 128.93 135.884C129.8 136.265 130.671 136.646 131.589 136.987C131.13 136.816 131.429 137.278 131.767 137.786C128.58 136.333 124.94 135.495 121.316 135.355C117.791 133.393 114.22 131.471 110.695 129.509C112.315 129.345 113.917 129.353 115.434 129.354C116.133 129.719 116.784 130.125 117.445 130.443ZM133.138 140.041C133.775 141.011 134.412 141.981 135.048 142.952C131.486 140.943 127.914 139.021 124.351 137.012C127.464 137.5 130.523 138.507 133.138 140.041ZM132.496 147.131C135.691 148.498 138.44 151.264 141.022 153.536C140.791 154.518 140.569 155.414 140.004 156.28C133.281 153.823 127.838 149.037 122.696 143.841C126.078 144.657 129.339 145.812 132.496 147.131ZM105.817 126.384C107.805 126.862 109.801 127.253 111.741 127.77C112.123 127.846 112.457 127.963 112.792 128.079C111.447 128.093 110.085 128.28 108.723 128.467C107.248 127.641 105.812 126.863 104.337 126.038C104.843 126.169 105.311 126.253 105.817 126.384ZM100.81 128.739C102.409 129.618 104.047 130.545 105.693 131.385C106.381 132.708 106.668 134.127 105.196 134.958C103.677 135.829 101.201 133.784 99.7379 133.265C99.4269 132.497 99.1544 131.776 98.9293 131.016C98.5561 129.589 99.6192 128.94 100.81 128.739ZM95.9948 137.646C94.1497 135.787 96.6728 134.001 98.3964 133.671C99.1635 135.481 100.283 137.234 101.459 138.861C99.5428 138.956 97.2832 139.022 95.9948 137.646ZM101.853 144.299C101.305 143.728 100.814 143.032 100.722 142.24C100.579 141.094 102.028 140.915 102.818 140.809C103.156 141.318 103.579 141.834 103.879 142.296C104.823 143.641 105.854 144.995 106.799 146.34C104.969 146.443 103.189 145.635 101.853 144.299ZM148.665 189.191C144.161 186.229 139.703 183.228 135.501 179.857C128.535 174.285 124.086 167.406 119.016 160.255C115.237 154.872 111.126 149.766 107.29 144.509C105.199 141.67 102.534 138.519 100.754 135.183C102.525 136.078 104.574 137.214 106.176 135.959C107.589 134.861 107.761 133.612 107.417 132.319C109.016 133.198 110.616 134.078 112.215 134.957C112.849 135.535 113.482 136.113 114.155 136.738C114.223 136.918 114.338 137.059 114.549 137.121C116.557 139.082 118.517 141.082 120.478 143.082C120.555 143.176 120.632 143.27 120.756 143.324C125.773 148.466 130.933 153.489 137.537 156.676C138.36 157.096 139.24 157.391 140.119 157.685C140.33 157.747 140.549 157.722 140.644 157.643C140.738 157.564 140.786 157.525 140.88 157.446C142.175 155.815 142.426 153.789 142.85 151.777C150.846 156.175 158.804 160.526 166.809 164.837C168.041 167.602 169.368 170.288 170.923 172.863C166.667 177.593 161.769 181.83 156.851 185.848C155.666 186.835 154.443 187.775 153.134 188.707C151.123 190.145 150.735 190.547 148.665 189.191ZM166.511 194.705C164.634 196.111 161.376 199.14 158.806 198.437C156.111 197.681 153.59 193.54 151.754 191.594C151.677 191.5 151.6 191.407 151.562 191.36C155.474 189.128 158.959 185.988 162.294 183.052C165.486 180.235 168.687 177.332 171.61 174.187C172.691 175.893 173.858 177.606 175.158 179.288C176.082 180.414 177.033 181.281 176.826 182.875C176.675 184.344 175.579 185.73 174.72 186.919C172.464 189.905 169.431 192.431 166.511 194.705Z"/>
</mask>
<path d="M174.338 189.37C175.852 187.715 177.495 185.635 178.07 183.419C178.605 181.156 177.595 180.022 176.209 178.333C173.254 174.634 170.763 170.627 168.784 166.272C168.716 166.092 168.648 165.912 168.571 165.818C170.917 167.024 173.253 168.316 175.599 169.521C177.571 170.564 179.831 171.762 181.916 172.553C185.79 174.066 186.636 170.043 183.346 168.756C182.016 168.204 180.61 167.559 179.336 166.882C176.454 165.412 173.582 163.856 170.662 162.339C169.101 161.506 167.54 160.674 166.027 159.801C164.792 156.644 163.642 153.494 162.398 150.423C160.814 146.451 159.22 142.565 157.588 138.632C156.617 136.282 156.128 134.714 154.152 133.279C146.183 127.359 136.504 122.466 126.939 119.85C118.806 117.619 110.638 116.998 102.242 116.487C100.762 116.141 99.2483 116.533 98.2444 117.448C98.0638 117.519 97.9216 117.638 97.9039 117.81C96.8348 118.938 96.4943 120.564 97.4895 122.263L97.528 122.31C95.3542 121.119 93.2189 119.975 91.0836 118.831C88.8239 117.633 86.582 116.262 84.1712 115.268C82.9185 114.811 77.7181 114.403 77.7181 114.403C77.7181 114.403 81.5623 118.31 82.6552 119.059C88.4836 123.05 91.5784 123.711 95.9261 126.093C96.9893 126.708 98.0999 127.283 99.1246 127.852C97.9756 128.493 97.2116 129.603 97.567 131.203C97.6559 131.603 97.7448 132.003 97.881 132.363C95.7488 132.875 93.4063 134.589 94.1113 137.004C94.9051 139.818 97.8548 140.204 100.458 140.169C99.3297 141.03 99.007 142.483 100.011 144.095C101.527 146.624 104.838 148.131 107.761 147.513C110.276 150.869 112.838 154.185 115.352 157.541C119.505 163.086 122.946 169.224 127.62 174.336C134.005 181.339 142.141 186.49 150.019 191.618C152.518 194.275 156.247 200.569 160.627 199.685C162.798 199.219 164.93 197.444 166.666 196.156C169.464 194.22 172.04 191.916 174.338 189.37ZM101.976 117.815L102.062 117.823C102.062 117.823 102.1 117.869 102.148 117.83C104.132 117.915 106.069 118.039 108.044 118.211C106.614 120.745 100.217 121.018 99.2425 118.275C99.8584 117.762 100.839 117.499 101.976 117.815ZM98.4133 119.598C100.649 122.711 107.92 121.948 109.38 118.283C119.162 119.219 128.739 120.878 137.594 125.35C142.697 127.971 147.791 130.679 152.574 133.883C155.047 135.536 155.616 137.589 156.762 140.347C158.51 144.421 160.124 148.526 161.777 152.678C162.603 154.755 163.382 156.87 164.256 158.907C157.524 155.273 150.754 151.591 144.031 147.871C141.982 146.734 139.846 145.59 137.797 144.454C135.842 141.975 134.172 139.259 132.72 136.518C132.353 135.876 132.066 135.721 131.396 135.488C129.149 134.596 126.957 133.578 124.766 132.56C121.914 131.223 117.542 128.229 109.685 125.848C106.454 124.827 102.838 124.601 99.9061 122.778C98.5556 122.007 98.1261 120.706 98.4133 119.598ZM141.307 152.036C140.232 151.114 139.204 150.154 138.12 149.319C139.183 149.934 140.294 150.51 141.357 151.125C141.378 151.345 141.39 151.651 141.307 152.036ZM116.228 137.223C118.402 138.414 120.614 139.651 122.788 140.842C124.713 141.924 126.724 143.014 128.649 144.096C126.096 143.221 123.43 142.597 120.928 142.075C119.361 140.458 117.842 138.801 116.228 137.223ZM117.445 130.443C121.179 132.467 125.074 134.199 128.93 135.884C129.8 136.265 130.671 136.646 131.589 136.987C131.13 136.816 131.429 137.278 131.767 137.786C128.58 136.333 124.94 135.495 121.316 135.355C117.791 133.393 114.22 131.471 110.695 129.509C112.315 129.345 113.917 129.353 115.434 129.354C116.133 129.719 116.784 130.125 117.445 130.443ZM133.138 140.041C133.775 141.011 134.412 141.981 135.048 142.952C131.486 140.943 127.914 139.021 124.351 137.012C127.464 137.5 130.523 138.507 133.138 140.041ZM132.496 147.131C135.691 148.498 138.44 151.264 141.022 153.536C140.791 154.518 140.569 155.414 140.004 156.28C133.281 153.823 127.838 149.037 122.696 143.841C126.078 144.657 129.339 145.812 132.496 147.131ZM105.817 126.384C107.805 126.862 109.801 127.253 111.741 127.77C112.123 127.846 112.457 127.963 112.792 128.079C111.447 128.093 110.085 128.28 108.723 128.467C107.248 127.641 105.812 126.863 104.337 126.038C104.843 126.169 105.311 126.253 105.817 126.384ZM100.81 128.739C102.409 129.618 104.047 130.545 105.693 131.385C106.381 132.708 106.668 134.127 105.196 134.958C103.677 135.829 101.201 133.784 99.7379 133.265C99.4269 132.497 99.1544 131.776 98.9293 131.016C98.5561 129.589 99.6192 128.94 100.81 128.739ZM95.9948 137.646C94.1497 135.787 96.6728 134.001 98.3964 133.671C99.1635 135.481 100.283 137.234 101.459 138.861C99.5428 138.956 97.2832 139.022 95.9948 137.646ZM101.853 144.299C101.305 143.728 100.814 143.032 100.722 142.24C100.579 141.094 102.028 140.915 102.818 140.809C103.156 141.318 103.579 141.834 103.879 142.296C104.823 143.641 105.854 144.995 106.799 146.34C104.969 146.443 103.189 145.635 101.853 144.299ZM148.665 189.191C144.161 186.229 139.703 183.228 135.501 179.857C128.535 174.285 124.086 167.406 119.016 160.255C115.237 154.872 111.126 149.766 107.29 144.509C105.199 141.67 102.534 138.519 100.754 135.183C102.525 136.078 104.574 137.214 106.176 135.959C107.589 134.861 107.761 133.612 107.417 132.319C109.016 133.198 110.616 134.078 112.215 134.957C112.849 135.535 113.482 136.113 114.155 136.738C114.223 136.918 114.338 137.059 114.549 137.121C116.557 139.082 118.517 141.082 120.478 143.082C120.555 143.176 120.632 143.27 120.756 143.324C125.773 148.466 130.933 153.489 137.537 156.676C138.36 157.096 139.24 157.391 140.119 157.685C140.33 157.747 140.549 157.722 140.644 157.643C140.738 157.564 140.786 157.525 140.88 157.446C142.175 155.815 142.426 153.789 142.85 151.777C150.846 156.175 158.804 160.526 166.809 164.837C168.041 167.602 169.368 170.288 170.923 172.863C166.667 177.593 161.769 181.83 156.851 185.848C155.666 186.835 154.443 187.775 153.134 188.707C151.123 190.145 150.735 190.547 148.665 189.191ZM166.511 194.705C164.634 196.111 161.376 199.14 158.806 198.437C156.111 197.681 153.59 193.54 151.754 191.594C151.677 191.5 151.6 191.407 151.562 191.36C155.474 189.128 158.959 185.988 162.294 183.052C165.486 180.235 168.687 177.332 171.61 174.187C172.691 175.893 173.858 177.606 175.158 179.288C176.082 180.414 177.033 181.281 176.826 182.875C176.675 184.344 175.579 185.73 174.72 186.919C172.464 189.905 169.431 192.431 166.511 194.705Z" fill="#001064"/>
<path d="M174.338 189.37C175.852 187.715 177.495 185.635 178.07 183.419C178.605 181.156 177.595 180.022 176.209 178.333C173.254 174.634 170.763 170.627 168.784 166.272C168.716 166.092 168.648 165.912 168.571 165.818C170.917 167.024 173.253 168.316 175.599 169.521C177.571 170.564 179.831 171.762 181.916 172.553C185.79 174.066 186.636 170.043 183.346 168.756C182.016 168.204 180.61 167.559 179.336 166.882C176.454 165.412 173.582 163.856 170.662 162.339C169.101 161.506 167.54 160.674 166.027 159.801C164.792 156.644 163.642 153.494 162.398 150.423C160.814 146.451 159.22 142.565 157.588 138.632C156.617 136.282 156.128 134.714 154.152 133.279C146.183 127.359 136.504 122.466 126.939 119.85C118.806 117.619 110.638 116.998 102.242 116.487C100.762 116.141 99.2483 116.533 98.2444 117.448C98.0638 117.519 97.9216 117.638 97.9039 117.81C96.8348 118.938 96.4943 120.564 97.4895 122.263L97.528 122.31C95.3542 121.119 93.2189 119.975 91.0836 118.831C88.8239 117.633 86.582 116.262 84.1712 115.268C82.9185 114.811 77.7181 114.403 77.7181 114.403C77.7181 114.403 81.5623 118.31 82.6552 119.059C88.4836 123.05 91.5784 123.711 95.9261 126.093C96.9893 126.708 98.0999 127.283 99.1246 127.852C97.9756 128.493 97.2116 129.603 97.567 131.203C97.6559 131.603 97.7448 132.003 97.881 132.363C95.7488 132.875 93.4063 134.589 94.1113 137.004C94.9051 139.818 97.8548 140.204 100.458 140.169C99.3297 141.03 99.007 142.483 100.011 144.095C101.527 146.624 104.838 148.131 107.761 147.513C110.276 150.869 112.838 154.185 115.352 157.541C119.505 163.086 122.946 169.224 127.62 174.336C134.005 181.339 142.141 186.49 150.019 191.618C152.518 194.275 156.247 200.569 160.627 199.685C162.798 199.219 164.93 197.444 166.666 196.156C169.464 194.22 172.04 191.916 174.338 189.37ZM101.976 117.815L102.062 117.823C102.062 117.823 102.1 117.869 102.148 117.83C104.132 117.915 106.069 118.039 108.044 118.211C106.614 120.745 100.217 121.018 99.2425 118.275C99.8584 117.762 100.839 117.499 101.976 117.815ZM98.4133 119.598C100.649 122.711 107.92 121.948 109.38 118.283C119.162 119.219 128.739 120.878 137.594 125.35C142.697 127.971 147.791 130.679 152.574 133.883C155.047 135.536 155.616 137.589 156.762 140.347C158.51 144.421 160.124 148.526 161.777 152.678C162.603 154.755 163.382 156.87 164.256 158.907C157.524 155.273 150.754 151.591 144.031 147.871C141.982 146.734 139.846 145.59 137.797 144.454C135.842 141.975 134.172 139.259 132.72 136.518C132.353 135.876 132.066 135.721 131.396 135.488C129.149 134.596 126.957 133.578 124.766 132.56C121.914 131.223 117.542 128.229 109.685 125.848C106.454 124.827 102.838 124.601 99.9061 122.778C98.5556 122.007 98.1261 120.706 98.4133 119.598ZM141.307 152.036C140.232 151.114 139.204 150.154 138.12 149.319C139.183 149.934 140.294 150.51 141.357 151.125C141.378 151.345 141.39 151.651 141.307 152.036ZM116.228 137.223C118.402 138.414 120.614 139.651 122.788 140.842C124.713 141.924 126.724 143.014 128.649 144.096C126.096 143.221 123.43 142.597 120.928 142.075C119.361 140.458 117.842 138.801 116.228 137.223ZM117.445 130.443C121.179 132.467 125.074 134.199 128.93 135.884C129.8 136.265 130.671 136.646 131.589 136.987C131.13 136.816 131.429 137.278 131.767 137.786C128.58 136.333 124.94 135.495 121.316 135.355C117.791 133.393 114.22 131.471 110.695 129.509C112.315 129.345 113.917 129.353 115.434 129.354C116.133 129.719 116.784 130.125 117.445 130.443ZM133.138 140.041C133.775 141.011 134.412 141.981 135.048 142.952C131.486 140.943 127.914 139.021 124.351 137.012C127.464 137.5 130.523 138.507 133.138 140.041ZM132.496 147.131C135.691 148.498 138.44 151.264 141.022 153.536C140.791 154.518 140.569 155.414 140.004 156.28C133.281 153.823 127.838 149.037 122.696 143.841C126.078 144.657 129.339 145.812 132.496 147.131ZM105.817 126.384C107.805 126.862 109.801 127.253 111.741 127.77C112.123 127.846 112.457 127.963 112.792 128.079C111.447 128.093 110.085 128.28 108.723 128.467C107.248 127.641 105.812 126.863 104.337 126.038C104.843 126.169 105.311 126.253 105.817 126.384ZM100.81 128.739C102.409 129.618 104.047 130.545 105.693 131.385C106.381 132.708 106.668 134.127 105.196 134.958C103.677 135.829 101.201 133.784 99.7379 133.265C99.4269 132.497 99.1544 131.776 98.9293 131.016C98.5561 129.589 99.6192 128.94 100.81 128.739ZM95.9948 137.646C94.1497 135.787 96.6728 134.001 98.3964 133.671C99.1635 135.481 100.283 137.234 101.459 138.861C99.5428 138.956 97.2832 139.022 95.9948 137.646ZM101.853 144.299C101.305 143.728 100.814 143.032 100.722 142.24C100.579 141.094 102.028 140.915 102.818 140.809C103.156 141.318 103.579 141.834 103.879 142.296C104.823 143.641 105.854 144.995 106.799 146.34C104.969 146.443 103.189 145.635 101.853 144.299ZM148.665 189.191C144.161 186.229 139.703 183.228 135.501 179.857C128.535 174.285 124.086 167.406 119.016 160.255C115.237 154.872 111.126 149.766 107.29 144.509C105.199 141.67 102.534 138.519 100.754 135.183C102.525 136.078 104.574 137.214 106.176 135.959C107.589 134.861 107.761 133.612 107.417 132.319C109.016 133.198 110.616 134.078 112.215 134.957C112.849 135.535 113.482 136.113 114.155 136.738C114.223 136.918 114.338 137.059 114.549 137.121C116.557 139.082 118.517 141.082 120.478 143.082C120.555 143.176 120.632 143.27 120.756 143.324C125.773 148.466 130.933 153.489 137.537 156.676C138.36 157.096 139.24 157.391 140.119 157.685C140.33 157.747 140.549 157.722 140.644 157.643C140.738 157.564 140.786 157.525 140.88 157.446C142.175 155.815 142.426 153.789 142.85 151.777C150.846 156.175 158.804 160.526 166.809 164.837C168.041 167.602 169.368 170.288 170.923 172.863C166.667 177.593 161.769 181.83 156.851 185.848C155.666 186.835 154.443 187.775 153.134 188.707C151.123 190.145 150.735 190.547 148.665 189.191ZM166.511 194.705C164.634 196.111 161.376 199.14 158.806 198.437C156.111 197.681 153.59 193.54 151.754 191.594C151.677 191.5 151.6 191.407 151.562 191.36C155.474 189.128 158.959 185.988 162.294 183.052C165.486 180.235 168.687 177.332 171.61 174.187C172.691 175.893 173.858 177.606 175.158 179.288C176.082 180.414 177.033 181.281 176.826 182.875C176.675 184.344 175.579 185.73 174.72 186.919C172.464 189.905 169.431 192.431 166.511 194.705Z" stroke="#001064" stroke-width="0.8" mask="url(#path-15-outside-4)"/>
</svg>
