<svg width="363" height="388" viewBox="0 0 363 388" fill="none" xmlns="http://www.w3.org/2000/svg">
<mask id="path-1-outside-1" maskUnits="userSpaceOnUse" x="0" y="24.7637" width="221" height="281" fill="black">
<rect fill="white" y="24.7637" width="221" height="281"/>
<path d="M18.6912 34.6291C28.0497 34.156 37.3876 33.6212 46.7461 33.0658C51.415 32.7778 56.084 32.4899 60.7735 32.1813L67.7872 31.7288L74.8009 31.2557L88.8078 30.2684L102.815 29.2193L130.808 27.1007L144.815 26.0928L148.311 25.8459L148.743 25.8254C148.887 25.8254 149.031 25.8048 149.196 25.8048C149.525 25.7842 149.854 25.7637 150.183 25.7637C150.841 25.7637 151.499 25.7842 152.157 25.8459C154.831 26.0722 157.423 26.8127 159.788 28.0263C160.981 28.6228 162.092 29.3427 163.141 30.1655L163.532 30.4741L163.881 30.762L164.56 31.3174L165.918 32.4281L171.306 36.9328L182.084 45.9422C189.242 51.969 196.399 58.037 203.516 64.105L206.19 66.3882L206.848 66.9641L207.177 67.2521L207.547 67.5812C207.794 67.8075 208.041 68.0337 208.288 68.2806C208.514 68.5274 208.761 68.7537 208.987 69.0005C210.818 70.9751 212.237 73.32 213.162 75.8501C213.635 77.1048 213.965 78.4213 214.191 79.7377C214.253 80.0668 214.294 80.3959 214.335 80.725C214.376 81.0541 214.417 81.3832 214.417 81.7329L214.438 82.2266L214.458 82.4734V82.6997L214.479 83.5842L214.643 90.5983C215.528 128.055 215.795 165.512 216.906 202.969C217.173 212.328 217.461 221.687 217.811 231.046L218.325 245.074L218.88 259.103L219.477 273.131L219.641 276.648L219.682 277.533L219.703 277.985V278.458V278.931L219.682 279.405L219.662 279.878C219.662 280.042 219.641 280.186 219.621 280.351C219.436 282.84 218.736 285.308 217.626 287.55C215.384 292.055 211.352 295.634 206.56 297.3C205.367 297.711 204.133 298.02 202.878 298.205C202.57 298.246 202.241 298.287 201.932 298.308C201.624 298.349 201.295 298.349 200.986 298.37L200.739 298.39H200.513L200.081 298.411L199.197 298.452L192.183 298.719L164.108 299.789L150.08 300.324L136.032 300.817C117.315 301.475 98.5982 302.01 79.8813 302.545L51.8058 303.368L37.7578 303.779L30.7441 303.985L28.9753 304.026C28.6256 304.026 28.2965 304.026 27.9469 304.026L26.9185 303.964C25.5404 303.862 24.1829 303.615 22.846 303.265C20.1927 302.525 17.6628 301.27 15.4826 299.604C13.3024 297.917 11.4307 295.819 10.0321 293.433C8.63344 291.047 7.70788 288.393 7.31709 285.637L7.19368 284.609C7.17311 284.259 7.15254 283.93 7.13197 283.58L7.0497 281.811L6.90572 278.294C6.51493 268.935 6.16527 259.576 5.83618 250.217C5.48653 240.858 5.15744 231.498 4.84892 222.139C4.5404 212.78 4.21131 203.421 3.94392 194.062C3.36801 175.324 2.99779 156.585 2.6687 137.867C2.36018 119.128 2.11336 100.41 1.702 81.6712L1.53746 74.6571L1.37291 67.6429L1.00269 53.5735C0.96155 51.1668 1.39348 48.7808 2.25734 46.5387C3.1212 44.3172 4.41699 42.2397 6.04186 40.5119C7.66674 38.7635 9.64128 37.3442 11.8009 36.3363C13.9606 35.3284 16.3053 34.7525 18.6912 34.6291ZM18.7324 35.2462C16.4287 35.3696 14.1663 35.9455 12.0889 36.9123C9.99094 37.9202 8.09867 39.2983 6.55607 40.985C5.01346 42.6717 3.77938 44.6669 2.97722 46.8267C2.19563 48.9659 1.82541 51.2697 1.90768 53.5529C2.11336 58.2221 2.36018 62.9119 2.607 67.5812L2.97722 74.5953L3.36801 81.6095C4.41699 100.307 5.6305 119.005 6.78232 137.702C7.91356 156.4 9.00367 175.097 9.90866 193.815C10.3612 203.174 10.7725 212.534 11.1839 221.872C11.6158 231.231 12.0066 240.59 12.3974 249.949C12.7882 259.308 13.1584 268.667 13.5081 278.026L13.6315 281.544L13.6932 283.272C13.7138 283.518 13.7138 283.745 13.7343 283.992L13.8166 284.711C14.084 286.604 14.7216 288.455 15.6677 290.121C16.6344 291.787 17.9096 293.268 19.4317 294.441C20.9537 295.634 22.702 296.518 24.5326 297.033C25.4581 297.3 26.4043 297.464 27.371 297.547L28.0908 297.588C28.3377 297.588 28.5845 297.588 28.8107 297.588L30.5384 297.567L37.5522 297.444L51.6002 297.197L79.6961 296.724C98.4131 296.415 117.151 296.066 135.868 295.86L149.916 295.695L163.964 295.572L192.06 295.346L199.073 295.284H199.958H200.39H200.616H200.822C201.089 295.264 201.356 295.284 201.624 295.243C201.891 295.222 202.158 295.202 202.426 295.181C203.495 295.058 204.544 294.832 205.573 294.502C207.63 293.844 209.542 292.795 211.208 291.396C212.874 290.018 214.253 288.29 215.281 286.378C216.309 284.465 216.947 282.346 217.153 280.166C217.173 280.022 217.194 279.898 217.194 279.754L217.214 279.343L217.235 278.931V278.52V278.109V277.677L217.214 276.792L217.132 273.275L216.762 259.226L216.35 245.177L215.898 231.128C215.589 221.769 215.26 212.41 214.87 203.051C213.409 165.615 211.126 128.22 209.46 90.804L209.152 83.7899L209.11 82.9054V82.6791L209.09 82.494L209.069 82.1237C209.069 81.8769 209.028 81.6301 208.987 81.3832C208.967 81.1364 208.925 80.8896 208.864 80.6427C208.679 79.6554 208.411 78.6887 208.062 77.763C207.712 76.8374 207.259 75.9324 206.725 75.089C206.19 74.2457 205.573 73.464 204.894 72.7235C204.729 72.5384 204.544 72.3739 204.38 72.1887C204.215 72.0036 204.01 71.8391 203.824 71.6745L203.537 71.4277L203.207 71.1397L202.529 70.5843L199.855 68.3217C192.697 62.2743 185.581 56.2063 178.464 50.0972L167.83 40.9233L162.524 36.3158L161.207 35.1639L160.611 34.6085L160.282 34.3205L159.994 34.0737C159.212 33.436 158.39 32.8601 157.485 32.3664C155.716 31.3997 153.741 30.762 151.726 30.5152C151.211 30.4535 150.718 30.4123 150.204 30.4123C149.957 30.4123 149.689 30.4123 149.442 30.4123C149.319 30.4123 149.155 30.4123 149.011 30.4329L148.579 30.4535L145.061 30.5769L131.013 31.0294L102.938 31.8728L88.8901 32.3047L74.8421 32.7778L67.8284 33.0247L60.8146 33.2921C56.1457 33.4772 51.4562 33.6623 46.7872 33.868C37.4287 34.3 28.0703 34.7525 18.7324 35.2462Z"/>
</mask>
<path d="M18.6912 34.6291C28.0497 34.156 37.3876 33.6212 46.7461 33.0658C51.415 32.7778 56.084 32.4899 60.7735 32.1813L67.7872 31.7288L74.8009 31.2557L88.8078 30.2684L102.815 29.2193L130.808 27.1007L144.815 26.0928L148.311 25.8459L148.743 25.8254C148.887 25.8254 149.031 25.8048 149.196 25.8048C149.525 25.7842 149.854 25.7637 150.183 25.7637C150.841 25.7637 151.499 25.7842 152.157 25.8459C154.831 26.0722 157.423 26.8127 159.788 28.0263C160.981 28.6228 162.092 29.3427 163.141 30.1655L163.532 30.4741L163.881 30.762L164.56 31.3174L165.918 32.4281L171.306 36.9328L182.084 45.9422C189.242 51.969 196.399 58.037 203.516 64.105L206.19 66.3882L206.848 66.9641L207.177 67.2521L207.547 67.5812C207.794 67.8075 208.041 68.0337 208.288 68.2806C208.514 68.5274 208.761 68.7537 208.987 69.0005C210.818 70.9751 212.237 73.32 213.162 75.8501C213.635 77.1048 213.965 78.4213 214.191 79.7377C214.253 80.0668 214.294 80.3959 214.335 80.725C214.376 81.0541 214.417 81.3832 214.417 81.7329L214.438 82.2266L214.458 82.4734V82.6997L214.479 83.5842L214.643 90.5983C215.528 128.055 215.795 165.512 216.906 202.969C217.173 212.328 217.461 221.687 217.811 231.046L218.325 245.074L218.88 259.103L219.477 273.131L219.641 276.648L219.682 277.533L219.703 277.985V278.458V278.931L219.682 279.405L219.662 279.878C219.662 280.042 219.641 280.186 219.621 280.351C219.436 282.84 218.736 285.308 217.626 287.55C215.384 292.055 211.352 295.634 206.56 297.3C205.367 297.711 204.133 298.02 202.878 298.205C202.57 298.246 202.241 298.287 201.932 298.308C201.624 298.349 201.295 298.349 200.986 298.37L200.739 298.39H200.513L200.081 298.411L199.197 298.452L192.183 298.719L164.108 299.789L150.08 300.324L136.032 300.817C117.315 301.475 98.5982 302.01 79.8813 302.545L51.8058 303.368L37.7578 303.779L30.7441 303.985L28.9753 304.026C28.6256 304.026 28.2965 304.026 27.9469 304.026L26.9185 303.964C25.5404 303.862 24.1829 303.615 22.846 303.265C20.1927 302.525 17.6628 301.27 15.4826 299.604C13.3024 297.917 11.4307 295.819 10.0321 293.433C8.63344 291.047 7.70788 288.393 7.31709 285.637L7.19368 284.609C7.17311 284.259 7.15254 283.93 7.13197 283.58L7.0497 281.811L6.90572 278.294C6.51493 268.935 6.16527 259.576 5.83618 250.217C5.48653 240.858 5.15744 231.498 4.84892 222.139C4.5404 212.78 4.21131 203.421 3.94392 194.062C3.36801 175.324 2.99779 156.585 2.6687 137.867C2.36018 119.128 2.11336 100.41 1.702 81.6712L1.53746 74.6571L1.37291 67.6429L1.00269 53.5735C0.96155 51.1668 1.39348 48.7808 2.25734 46.5387C3.1212 44.3172 4.41699 42.2397 6.04186 40.5119C7.66674 38.7635 9.64128 37.3442 11.8009 36.3363C13.9606 35.3284 16.3053 34.7525 18.6912 34.6291ZM18.7324 35.2462C16.4287 35.3696 14.1663 35.9455 12.0889 36.9123C9.99094 37.9202 8.09867 39.2983 6.55607 40.985C5.01346 42.6717 3.77938 44.6669 2.97722 46.8267C2.19563 48.9659 1.82541 51.2697 1.90768 53.5529C2.11336 58.2221 2.36018 62.9119 2.607 67.5812L2.97722 74.5953L3.36801 81.6095C4.41699 100.307 5.6305 119.005 6.78232 137.702C7.91356 156.4 9.00367 175.097 9.90866 193.815C10.3612 203.174 10.7725 212.534 11.1839 221.872C11.6158 231.231 12.0066 240.59 12.3974 249.949C12.7882 259.308 13.1584 268.667 13.5081 278.026L13.6315 281.544L13.6932 283.272C13.7138 283.518 13.7138 283.745 13.7343 283.992L13.8166 284.711C14.084 286.604 14.7216 288.455 15.6677 290.121C16.6344 291.787 17.9096 293.268 19.4317 294.441C20.9537 295.634 22.702 296.518 24.5326 297.033C25.4581 297.3 26.4043 297.464 27.371 297.547L28.0908 297.588C28.3377 297.588 28.5845 297.588 28.8107 297.588L30.5384 297.567L37.5522 297.444L51.6002 297.197L79.6961 296.724C98.4131 296.415 117.151 296.066 135.868 295.86L149.916 295.695L163.964 295.572L192.06 295.346L199.073 295.284H199.958H200.39H200.616H200.822C201.089 295.264 201.356 295.284 201.624 295.243C201.891 295.222 202.158 295.202 202.426 295.181C203.495 295.058 204.544 294.832 205.573 294.502C207.63 293.844 209.542 292.795 211.208 291.396C212.874 290.018 214.253 288.29 215.281 286.378C216.309 284.465 216.947 282.346 217.153 280.166C217.173 280.022 217.194 279.898 217.194 279.754L217.214 279.343L217.235 278.931V278.52V278.109V277.677L217.214 276.792L217.132 273.275L216.762 259.226L216.35 245.177L215.898 231.128C215.589 221.769 215.26 212.41 214.87 203.051C213.409 165.615 211.126 128.22 209.46 90.804L209.152 83.7899L209.11 82.9054V82.6791L209.09 82.494L209.069 82.1237C209.069 81.8769 209.028 81.6301 208.987 81.3832C208.967 81.1364 208.925 80.8896 208.864 80.6427C208.679 79.6554 208.411 78.6887 208.062 77.763C207.712 76.8374 207.259 75.9324 206.725 75.089C206.19 74.2457 205.573 73.464 204.894 72.7235C204.729 72.5384 204.544 72.3739 204.38 72.1887C204.215 72.0036 204.01 71.8391 203.824 71.6745L203.537 71.4277L203.207 71.1397L202.529 70.5843L199.855 68.3217C192.697 62.2743 185.581 56.2063 178.464 50.0972L167.83 40.9233L162.524 36.3158L161.207 35.1639L160.611 34.6085L160.282 34.3205L159.994 34.0737C159.212 33.436 158.39 32.8601 157.485 32.3664C155.716 31.3997 153.741 30.762 151.726 30.5152C151.211 30.4535 150.718 30.4123 150.204 30.4123C149.957 30.4123 149.689 30.4123 149.442 30.4123C149.319 30.4123 149.155 30.4123 149.011 30.4329L148.579 30.4535L145.061 30.5769L131.013 31.0294L102.938 31.8728L88.8901 32.3047L74.8421 32.7778L67.8284 33.0247L60.8146 33.2921C56.1457 33.4772 51.4562 33.6623 46.7872 33.868C37.4287 34.3 28.0703 34.7525 18.7324 35.2462Z" fill="#001064"/>
<path d="M18.6912 34.6291C28.0497 34.156 37.3876 33.6212 46.7461 33.0658C51.415 32.7778 56.084 32.4899 60.7735 32.1813L67.7872 31.7288L74.8009 31.2557L88.8078 30.2684L102.815 29.2193L130.808 27.1007L144.815 26.0928L148.311 25.8459L148.743 25.8254C148.887 25.8254 149.031 25.8048 149.196 25.8048C149.525 25.7842 149.854 25.7637 150.183 25.7637C150.841 25.7637 151.499 25.7842 152.157 25.8459C154.831 26.0722 157.423 26.8127 159.788 28.0263C160.981 28.6228 162.092 29.3427 163.141 30.1655L163.532 30.4741L163.881 30.762L164.56 31.3174L165.918 32.4281L171.306 36.9328L182.084 45.9422C189.242 51.969 196.399 58.037 203.516 64.105L206.19 66.3882L206.848 66.9641L207.177 67.2521L207.547 67.5812C207.794 67.8075 208.041 68.0337 208.288 68.2806C208.514 68.5274 208.761 68.7537 208.987 69.0005C210.818 70.9751 212.237 73.32 213.162 75.8501C213.635 77.1048 213.965 78.4213 214.191 79.7377C214.253 80.0668 214.294 80.3959 214.335 80.725C214.376 81.0541 214.417 81.3832 214.417 81.7329L214.438 82.2266L214.458 82.4734V82.6997L214.479 83.5842L214.643 90.5983C215.528 128.055 215.795 165.512 216.906 202.969C217.173 212.328 217.461 221.687 217.811 231.046L218.325 245.074L218.88 259.103L219.477 273.131L219.641 276.648L219.682 277.533L219.703 277.985V278.458V278.931L219.682 279.405L219.662 279.878C219.662 280.042 219.641 280.186 219.621 280.351C219.436 282.84 218.736 285.308 217.626 287.55C215.384 292.055 211.352 295.634 206.56 297.3C205.367 297.711 204.133 298.02 202.878 298.205C202.57 298.246 202.241 298.287 201.932 298.308C201.624 298.349 201.295 298.349 200.986 298.37L200.739 298.39H200.513L200.081 298.411L199.197 298.452L192.183 298.719L164.108 299.789L150.08 300.324L136.032 300.817C117.315 301.475 98.5982 302.01 79.8813 302.545L51.8058 303.368L37.7578 303.779L30.7441 303.985L28.9753 304.026C28.6256 304.026 28.2965 304.026 27.9469 304.026L26.9185 303.964C25.5404 303.862 24.1829 303.615 22.846 303.265C20.1927 302.525 17.6628 301.27 15.4826 299.604C13.3024 297.917 11.4307 295.819 10.0321 293.433C8.63344 291.047 7.70788 288.393 7.31709 285.637L7.19368 284.609C7.17311 284.259 7.15254 283.93 7.13197 283.58L7.0497 281.811L6.90572 278.294C6.51493 268.935 6.16527 259.576 5.83618 250.217C5.48653 240.858 5.15744 231.498 4.84892 222.139C4.5404 212.78 4.21131 203.421 3.94392 194.062C3.36801 175.324 2.99779 156.585 2.6687 137.867C2.36018 119.128 2.11336 100.41 1.702 81.6712L1.53746 74.6571L1.37291 67.6429L1.00269 53.5735C0.96155 51.1668 1.39348 48.7808 2.25734 46.5387C3.1212 44.3172 4.41699 42.2397 6.04186 40.5119C7.66674 38.7635 9.64128 37.3442 11.8009 36.3363C13.9606 35.3284 16.3053 34.7525 18.6912 34.6291ZM18.7324 35.2462C16.4287 35.3696 14.1663 35.9455 12.0889 36.9123C9.99094 37.9202 8.09867 39.2983 6.55607 40.985C5.01346 42.6717 3.77938 44.6669 2.97722 46.8267C2.19563 48.9659 1.82541 51.2697 1.90768 53.5529C2.11336 58.2221 2.36018 62.9119 2.607 67.5812L2.97722 74.5953L3.36801 81.6095C4.41699 100.307 5.6305 119.005 6.78232 137.702C7.91356 156.4 9.00367 175.097 9.90866 193.815C10.3612 203.174 10.7725 212.534 11.1839 221.872C11.6158 231.231 12.0066 240.59 12.3974 249.949C12.7882 259.308 13.1584 268.667 13.5081 278.026L13.6315 281.544L13.6932 283.272C13.7138 283.518 13.7138 283.745 13.7343 283.992L13.8166 284.711C14.084 286.604 14.7216 288.455 15.6677 290.121C16.6344 291.787 17.9096 293.268 19.4317 294.441C20.9537 295.634 22.702 296.518 24.5326 297.033C25.4581 297.3 26.4043 297.464 27.371 297.547L28.0908 297.588C28.3377 297.588 28.5845 297.588 28.8107 297.588L30.5384 297.567L37.5522 297.444L51.6002 297.197L79.6961 296.724C98.4131 296.415 117.151 296.066 135.868 295.86L149.916 295.695L163.964 295.572L192.06 295.346L199.073 295.284H199.958H200.39H200.616H200.822C201.089 295.264 201.356 295.284 201.624 295.243C201.891 295.222 202.158 295.202 202.426 295.181C203.495 295.058 204.544 294.832 205.573 294.502C207.63 293.844 209.542 292.795 211.208 291.396C212.874 290.018 214.253 288.29 215.281 286.378C216.309 284.465 216.947 282.346 217.153 280.166C217.173 280.022 217.194 279.898 217.194 279.754L217.214 279.343L217.235 278.931V278.52V278.109V277.677L217.214 276.792L217.132 273.275L216.762 259.226L216.35 245.177L215.898 231.128C215.589 221.769 215.26 212.41 214.87 203.051C213.409 165.615 211.126 128.22 209.46 90.804L209.152 83.7899L209.11 82.9054V82.6791L209.09 82.494L209.069 82.1237C209.069 81.8769 209.028 81.6301 208.987 81.3832C208.967 81.1364 208.925 80.8896 208.864 80.6427C208.679 79.6554 208.411 78.6887 208.062 77.763C207.712 76.8374 207.259 75.9324 206.725 75.089C206.19 74.2457 205.573 73.464 204.894 72.7235C204.729 72.5384 204.544 72.3739 204.38 72.1887C204.215 72.0036 204.01 71.8391 203.824 71.6745L203.537 71.4277L203.207 71.1397L202.529 70.5843L199.855 68.3217C192.697 62.2743 185.581 56.2063 178.464 50.0972L167.83 40.9233L162.524 36.3158L161.207 35.1639L160.611 34.6085L160.282 34.3205L159.994 34.0737C159.212 33.436 158.39 32.8601 157.485 32.3664C155.716 31.3997 153.741 30.762 151.726 30.5152C151.211 30.4535 150.718 30.4123 150.204 30.4123C149.957 30.4123 149.689 30.4123 149.442 30.4123C149.319 30.4123 149.155 30.4123 149.011 30.4329L148.579 30.4535L145.061 30.5769L131.013 31.0294L102.938 31.8728L88.8901 32.3047L74.8421 32.7778L67.8284 33.0247L60.8146 33.2921C56.1457 33.4772 51.4562 33.6623 46.7872 33.868C37.4287 34.3 28.0703 34.7525 18.7324 35.2462Z" stroke="#001064" stroke-width="2" mask="url(#path-1-outside-1)"/>
<path d="M149.196 28.1309C149.813 30.1878 150.327 32.2447 150.842 34.3017C151.356 36.3586 151.829 38.4361 152.281 40.5136C153.186 44.6481 154.009 48.8031 154.791 52.9787L155.346 56.1052C155.531 57.1542 155.696 58.1827 155.881 59.2317C156.045 60.2808 156.231 61.3092 156.395 62.3583L156.518 63.1399L156.56 63.3251L156.601 63.4896L156.662 63.8187C156.704 64.045 156.745 64.2507 156.806 64.4769L156.889 64.806C156.909 64.9089 156.95 65.0117 156.971 65.1352C157.917 68.5702 160.036 71.6145 162.853 73.7332C163.553 74.268 164.314 74.7411 165.095 75.1524C165.877 75.5638 166.679 75.9135 167.522 76.2015C169.188 76.7568 170.957 77.0243 172.747 77.0448L173.425 77.0243L174.207 76.9831L175.791 76.9214C176.84 76.8803 177.909 76.8391 178.958 76.798L182.126 76.6951L185.293 76.5717C189.53 76.4894 193.747 76.4483 198.004 76.5306C200.123 76.5717 202.241 76.6129 204.38 76.7157C206.499 76.798 208.638 76.9214 210.757 77.086C208.679 77.5796 206.581 78.0116 204.504 78.423C202.426 78.8344 200.329 79.2046 198.231 79.5543C194.055 80.2536 189.859 80.8707 185.663 81.4055L182.517 81.8169L179.37 82.1872C178.321 82.3106 177.272 82.434 176.223 82.5368L174.639 82.7014L173.857 82.7837L172.952 82.8454C170.525 82.9688 168.037 82.6808 165.692 81.9609C164.519 81.5907 163.368 81.1381 162.278 80.5828C161.187 80.0274 160.138 79.3692 159.151 78.6287C155.223 75.6667 152.364 71.2854 151.315 66.5133C151.274 66.3693 151.253 66.2253 151.212 66.0608L151.13 65.6082C151.068 65.2997 151.027 65.0117 150.986 64.7032L150.924 64.2507L150.903 64.0244L150.883 63.8187L150.801 63.0371C150.698 61.988 150.615 60.939 150.513 59.8694C150.43 58.8204 150.327 57.7713 150.245 56.7017L149.998 53.534C149.69 49.3173 149.443 45.08 149.299 40.8427C149.237 38.7241 149.176 36.6054 149.155 34.4662C149.135 32.3887 149.114 30.2495 149.196 28.1309Z" fill="#001064"/>
<path d="M18.1752 35.9625L155.583 29.5215L169.002 39.7198L212.479 76.2188L218.92 267.839V281.258L209.795 293.603L200.134 296.824L32.6674 300.044H18.1752L6.90338 281.258L2.60938 56.8958V48.8445L6.90338 39.7198L18.1752 35.9625Z" fill="#001064"/>
<path d="M42.3295 15.0289L179.738 8.58789L193.157 18.7862L236.633 55.2852L243.074 246.905V260.324L233.95 272.669L224.288 275.89L56.8217 279.111H42.3295L31.0577 260.324L26.7637 35.9622V27.9109L31.0577 18.7862L42.3295 15.0289Z" fill="#E9F7FF"/>
<mask id="path-5-outside-2" maskUnits="userSpaceOnUse" x="23.6172" y="3.29492" width="221" height="281" fill="black">
<rect fill="white" x="23.6172" y="3.29492" width="221" height="281"/>
<path d="M42.3084 13.1603C51.6669 12.6872 61.0048 12.1524 70.3633 11.597C75.0322 11.3091 79.7012 11.0211 84.3907 10.7126L91.4044 10.26L98.4181 9.78694L112.425 8.79961L126.432 7.75058L154.425 5.63193L168.432 4.62403L171.928 4.3772L172.36 4.35663C172.504 4.35663 172.648 4.33606 172.813 4.33606C173.142 4.31549 173.471 4.29492 173.8 4.29492C174.458 4.29492 175.116 4.31549 175.775 4.3772C178.449 4.60346 181.04 5.34396 183.405 6.55755C184.598 7.15406 185.709 7.87399 186.758 8.69677L187.149 9.00531L187.498 9.29328L188.177 9.84865L189.535 10.9594L194.924 15.4641L205.701 24.4735C212.859 30.5003 220.017 36.5683 227.133 42.6362L229.807 44.9194L230.465 45.4954L230.794 45.7833L231.164 46.1124C231.411 46.3387 231.658 46.565 231.905 46.8118C232.131 47.0586 232.378 47.2849 232.604 47.5317C234.435 49.5064 235.854 51.8513 236.78 54.3813C237.253 55.6361 237.582 56.9525 237.808 58.2689C237.87 58.5981 237.911 58.9272 237.952 59.2563C237.993 59.5854 238.034 59.9145 238.034 60.2642L238.055 60.7578L238.075 61.0047V61.2309L238.096 62.1154L238.26 69.1296C239.145 106.586 239.412 144.043 240.523 181.5C240.79 190.859 241.078 200.218 241.428 209.577L241.942 223.606L242.498 237.634L243.094 251.662L243.259 255.179L243.3 256.064L243.32 256.516V256.99V257.463L243.3 257.936L243.279 258.409C243.279 258.573 243.259 258.717 243.238 258.882C243.053 261.371 242.354 263.839 241.243 266.081C239.001 270.586 234.97 274.165 230.177 275.831C228.984 276.243 227.75 276.551 226.496 276.736C226.187 276.777 225.858 276.818 225.549 276.839C225.241 276.88 224.912 276.88 224.603 276.901L224.356 276.921H224.13L223.698 276.942L222.814 276.983L215.8 277.25L187.725 278.32L173.697 278.855L159.649 279.349C140.932 280.007 122.215 280.542 103.498 281.076L75.423 281.899L61.375 282.31L54.3613 282.516L52.5925 282.557C52.2428 282.557 51.9137 282.557 51.5641 282.557L50.5357 282.496C49.1576 282.393 47.8001 282.146 46.4632 281.796C43.8099 281.056 41.28 279.801 39.0998 278.135C36.9196 276.448 35.0479 274.35 33.6493 271.964C32.2506 269.578 31.3251 266.925 30.9343 264.168L30.8109 263.14C30.7903 262.79 30.7697 262.461 30.7492 262.111L30.6669 260.342L30.5229 256.825C30.1321 247.466 29.7825 238.107 29.4534 228.748C29.1037 219.389 28.7746 210.03 28.4661 200.671C28.1576 191.312 27.8285 181.953 27.5611 172.593C26.9852 153.855 26.615 135.116 26.2859 116.398C25.9774 97.6593 25.7305 78.9412 25.3192 60.2025L25.1546 53.1883L24.9901 46.1742L24.6199 32.1047C24.5787 29.6981 25.0107 27.312 25.8745 25.07C26.7384 22.8485 28.0342 20.771 29.6591 19.0432C31.2839 17.2948 33.2585 15.8755 35.4181 14.8676C37.5778 13.8597 39.9225 13.2837 42.3084 13.1603ZM42.3496 13.7774C40.0459 13.9008 37.7834 14.4768 35.7061 15.4435C33.6081 16.4514 31.7159 17.8296 30.1733 19.5163C28.6306 21.2029 27.3966 23.1982 26.5944 25.358C25.8128 27.4972 25.4426 29.8009 25.5249 32.0841C25.7305 36.7534 25.9774 41.4432 26.2242 46.1124L26.5944 53.1266L26.9852 60.1408C28.0342 78.8383 29.2477 97.5359 30.3995 116.233C31.5307 134.931 32.6209 153.629 33.5259 172.347C33.9783 181.706 34.3897 191.065 34.8011 200.403C35.233 209.762 35.6238 219.121 36.0146 228.48C36.4054 237.84 36.7756 247.199 37.1253 256.558L37.2487 260.075L37.3104 261.803C37.3309 262.05 37.3309 262.276 37.3515 262.523L37.4338 263.243C37.7012 265.135 38.3388 266.986 39.2849 268.652C40.2516 270.319 41.5268 271.8 43.0489 272.972C44.5709 274.165 46.3192 275.05 48.1498 275.564C49.0753 275.831 50.0214 275.996 50.9881 276.078L51.708 276.119C51.9548 276.119 52.2017 276.119 52.4279 276.119L54.1556 276.099L61.1693 275.975L75.2173 275.728L103.313 275.255C122.03 274.947 140.768 274.597 159.485 274.391L173.533 274.227L187.581 274.103L215.677 273.877L222.69 273.815H223.575H224.007H224.233H224.439C224.706 273.795 224.974 273.815 225.241 273.774C225.508 273.754 225.776 273.733 226.043 273.713C227.113 273.589 228.162 273.363 229.19 273.034C231.247 272.375 233.16 271.326 234.826 269.928C236.492 268.55 237.87 266.822 238.898 264.909C239.926 262.996 240.564 260.877 240.77 258.697C240.79 258.553 240.811 258.429 240.811 258.285L240.831 257.874L240.852 257.463V257.051V256.64V256.208L240.831 255.323L240.749 251.806L240.379 237.757L239.968 223.708L239.515 209.66C239.207 200.3 238.878 190.941 238.487 181.582C237.026 144.146 234.743 106.751 233.077 69.3353L232.769 62.3211L232.728 61.4366V61.2104L232.707 61.0252L232.687 60.655C232.687 60.4082 232.645 60.1613 232.604 59.9145C232.584 59.6677 232.543 59.4208 232.481 59.174C232.296 58.1867 232.028 57.2199 231.679 56.2943C231.329 55.3687 230.877 54.4636 230.342 53.6203C229.807 52.7769 229.19 51.9953 228.511 51.2548C228.347 51.0697 228.162 50.9051 227.997 50.72C227.832 50.5349 227.627 50.3703 227.442 50.2057L227.154 49.9589L226.825 49.6709L226.146 49.1156L223.472 46.8529C216.314 40.8055 209.198 34.7376 202.081 28.6285L191.448 19.4545L186.141 14.847L184.825 13.6951L184.228 13.1397L183.899 12.8518L183.611 12.6049C182.83 11.9673 182.007 11.3914 181.102 10.8977C179.333 9.93093 177.358 9.29328 175.343 9.04645C174.829 8.98474 174.335 8.9436 173.821 8.9436C173.574 8.9436 173.307 8.9436 173.06 8.9436C172.936 8.9436 172.772 8.9436 172.628 8.96417L172.196 8.98474L168.679 9.10815L154.631 9.56068L126.555 10.404L112.507 10.836L98.4593 11.3091L91.4455 11.5559L84.4318 11.8233C79.7629 12.0084 75.0734 12.1936 70.4044 12.3993C61.0459 12.8312 51.6875 13.2837 42.3496 13.7774Z"/>
</mask>
<path d="M42.3084 13.1603C51.6669 12.6872 61.0048 12.1524 70.3633 11.597C75.0322 11.3091 79.7012 11.0211 84.3907 10.7126L91.4044 10.26L98.4181 9.78694L112.425 8.79961L126.432 7.75058L154.425 5.63193L168.432 4.62403L171.928 4.3772L172.36 4.35663C172.504 4.35663 172.648 4.33606 172.813 4.33606C173.142 4.31549 173.471 4.29492 173.8 4.29492C174.458 4.29492 175.116 4.31549 175.775 4.3772C178.449 4.60346 181.04 5.34396 183.405 6.55755C184.598 7.15406 185.709 7.87399 186.758 8.69677L187.149 9.00531L187.498 9.29328L188.177 9.84865L189.535 10.9594L194.924 15.4641L205.701 24.4735C212.859 30.5003 220.017 36.5683 227.133 42.6362L229.807 44.9194L230.465 45.4954L230.794 45.7833L231.164 46.1124C231.411 46.3387 231.658 46.565 231.905 46.8118C232.131 47.0586 232.378 47.2849 232.604 47.5317C234.435 49.5064 235.854 51.8513 236.78 54.3813C237.253 55.6361 237.582 56.9525 237.808 58.2689C237.87 58.5981 237.911 58.9272 237.952 59.2563C237.993 59.5854 238.034 59.9145 238.034 60.2642L238.055 60.7578L238.075 61.0047V61.2309L238.096 62.1154L238.26 69.1296C239.145 106.586 239.412 144.043 240.523 181.5C240.79 190.859 241.078 200.218 241.428 209.577L241.942 223.606L242.498 237.634L243.094 251.662L243.259 255.179L243.3 256.064L243.32 256.516V256.99V257.463L243.3 257.936L243.279 258.409C243.279 258.573 243.259 258.717 243.238 258.882C243.053 261.371 242.354 263.839 241.243 266.081C239.001 270.586 234.97 274.165 230.177 275.831C228.984 276.243 227.75 276.551 226.496 276.736C226.187 276.777 225.858 276.818 225.549 276.839C225.241 276.88 224.912 276.88 224.603 276.901L224.356 276.921H224.13L223.698 276.942L222.814 276.983L215.8 277.25L187.725 278.32L173.697 278.855L159.649 279.349C140.932 280.007 122.215 280.542 103.498 281.076L75.423 281.899L61.375 282.31L54.3613 282.516L52.5925 282.557C52.2428 282.557 51.9137 282.557 51.5641 282.557L50.5357 282.496C49.1576 282.393 47.8001 282.146 46.4632 281.796C43.8099 281.056 41.28 279.801 39.0998 278.135C36.9196 276.448 35.0479 274.35 33.6493 271.964C32.2506 269.578 31.3251 266.925 30.9343 264.168L30.8109 263.14C30.7903 262.79 30.7697 262.461 30.7492 262.111L30.6669 260.342L30.5229 256.825C30.1321 247.466 29.7825 238.107 29.4534 228.748C29.1037 219.389 28.7746 210.03 28.4661 200.671C28.1576 191.312 27.8285 181.953 27.5611 172.593C26.9852 153.855 26.615 135.116 26.2859 116.398C25.9774 97.6593 25.7305 78.9412 25.3192 60.2025L25.1546 53.1883L24.9901 46.1742L24.6199 32.1047C24.5787 29.6981 25.0107 27.312 25.8745 25.07C26.7384 22.8485 28.0342 20.771 29.6591 19.0432C31.2839 17.2948 33.2585 15.8755 35.4181 14.8676C37.5778 13.8597 39.9225 13.2837 42.3084 13.1603ZM42.3496 13.7774C40.0459 13.9008 37.7834 14.4768 35.7061 15.4435C33.6081 16.4514 31.7159 17.8296 30.1733 19.5163C28.6306 21.2029 27.3966 23.1982 26.5944 25.358C25.8128 27.4972 25.4426 29.8009 25.5249 32.0841C25.7305 36.7534 25.9774 41.4432 26.2242 46.1124L26.5944 53.1266L26.9852 60.1408C28.0342 78.8383 29.2477 97.5359 30.3995 116.233C31.5307 134.931 32.6209 153.629 33.5259 172.347C33.9783 181.706 34.3897 191.065 34.8011 200.403C35.233 209.762 35.6238 219.121 36.0146 228.48C36.4054 237.84 36.7756 247.199 37.1253 256.558L37.2487 260.075L37.3104 261.803C37.3309 262.05 37.3309 262.276 37.3515 262.523L37.4338 263.243C37.7012 265.135 38.3388 266.986 39.2849 268.652C40.2516 270.319 41.5268 271.8 43.0489 272.972C44.5709 274.165 46.3192 275.05 48.1498 275.564C49.0753 275.831 50.0214 275.996 50.9881 276.078L51.708 276.119C51.9548 276.119 52.2017 276.119 52.4279 276.119L54.1556 276.099L61.1693 275.975L75.2173 275.728L103.313 275.255C122.03 274.947 140.768 274.597 159.485 274.391L173.533 274.227L187.581 274.103L215.677 273.877L222.69 273.815H223.575H224.007H224.233H224.439C224.706 273.795 224.974 273.815 225.241 273.774C225.508 273.754 225.776 273.733 226.043 273.713C227.113 273.589 228.162 273.363 229.19 273.034C231.247 272.375 233.16 271.326 234.826 269.928C236.492 268.55 237.87 266.822 238.898 264.909C239.926 262.996 240.564 260.877 240.77 258.697C240.79 258.553 240.811 258.429 240.811 258.285L240.831 257.874L240.852 257.463V257.051V256.64V256.208L240.831 255.323L240.749 251.806L240.379 237.757L239.968 223.708L239.515 209.66C239.207 200.3 238.878 190.941 238.487 181.582C237.026 144.146 234.743 106.751 233.077 69.3353L232.769 62.3211L232.728 61.4366V61.2104L232.707 61.0252L232.687 60.655C232.687 60.4082 232.645 60.1613 232.604 59.9145C232.584 59.6677 232.543 59.4208 232.481 59.174C232.296 58.1867 232.028 57.2199 231.679 56.2943C231.329 55.3687 230.877 54.4636 230.342 53.6203C229.807 52.7769 229.19 51.9953 228.511 51.2548C228.347 51.0697 228.162 50.9051 227.997 50.72C227.832 50.5349 227.627 50.3703 227.442 50.2057L227.154 49.9589L226.825 49.6709L226.146 49.1156L223.472 46.8529C216.314 40.8055 209.198 34.7376 202.081 28.6285L191.448 19.4545L186.141 14.847L184.825 13.6951L184.228 13.1397L183.899 12.8518L183.611 12.6049C182.83 11.9673 182.007 11.3914 181.102 10.8977C179.333 9.93093 177.358 9.29328 175.343 9.04645C174.829 8.98474 174.335 8.9436 173.821 8.9436C173.574 8.9436 173.307 8.9436 173.06 8.9436C172.936 8.9436 172.772 8.9436 172.628 8.96417L172.196 8.98474L168.679 9.10815L154.631 9.56068L126.555 10.404L112.507 10.836L98.4593 11.3091L91.4455 11.5559L84.4318 11.8233C79.7629 12.0084 75.0734 12.1936 70.4044 12.3993C61.0459 12.8312 51.6875 13.2837 42.3496 13.7774Z" fill="#001064"/>
<path d="M42.3084 13.1603C51.6669 12.6872 61.0048 12.1524 70.3633 11.597C75.0322 11.3091 79.7012 11.0211 84.3907 10.7126L91.4044 10.26L98.4181 9.78694L112.425 8.79961L126.432 7.75058L154.425 5.63193L168.432 4.62403L171.928 4.3772L172.36 4.35663C172.504 4.35663 172.648 4.33606 172.813 4.33606C173.142 4.31549 173.471 4.29492 173.8 4.29492C174.458 4.29492 175.116 4.31549 175.775 4.3772C178.449 4.60346 181.04 5.34396 183.405 6.55755C184.598 7.15406 185.709 7.87399 186.758 8.69677L187.149 9.00531L187.498 9.29328L188.177 9.84865L189.535 10.9594L194.924 15.4641L205.701 24.4735C212.859 30.5003 220.017 36.5683 227.133 42.6362L229.807 44.9194L230.465 45.4954L230.794 45.7833L231.164 46.1124C231.411 46.3387 231.658 46.565 231.905 46.8118C232.131 47.0586 232.378 47.2849 232.604 47.5317C234.435 49.5064 235.854 51.8513 236.78 54.3813C237.253 55.6361 237.582 56.9525 237.808 58.2689C237.87 58.5981 237.911 58.9272 237.952 59.2563C237.993 59.5854 238.034 59.9145 238.034 60.2642L238.055 60.7578L238.075 61.0047V61.2309L238.096 62.1154L238.26 69.1296C239.145 106.586 239.412 144.043 240.523 181.5C240.79 190.859 241.078 200.218 241.428 209.577L241.942 223.606L242.498 237.634L243.094 251.662L243.259 255.179L243.3 256.064L243.32 256.516V256.99V257.463L243.3 257.936L243.279 258.409C243.279 258.573 243.259 258.717 243.238 258.882C243.053 261.371 242.354 263.839 241.243 266.081C239.001 270.586 234.97 274.165 230.177 275.831C228.984 276.243 227.75 276.551 226.496 276.736C226.187 276.777 225.858 276.818 225.549 276.839C225.241 276.88 224.912 276.88 224.603 276.901L224.356 276.921H224.13L223.698 276.942L222.814 276.983L215.8 277.25L187.725 278.32L173.697 278.855L159.649 279.349C140.932 280.007 122.215 280.542 103.498 281.076L75.423 281.899L61.375 282.31L54.3613 282.516L52.5925 282.557C52.2428 282.557 51.9137 282.557 51.5641 282.557L50.5357 282.496C49.1576 282.393 47.8001 282.146 46.4632 281.796C43.8099 281.056 41.28 279.801 39.0998 278.135C36.9196 276.448 35.0479 274.35 33.6493 271.964C32.2506 269.578 31.3251 266.925 30.9343 264.168L30.8109 263.14C30.7903 262.79 30.7697 262.461 30.7492 262.111L30.6669 260.342L30.5229 256.825C30.1321 247.466 29.7825 238.107 29.4534 228.748C29.1037 219.389 28.7746 210.03 28.4661 200.671C28.1576 191.312 27.8285 181.953 27.5611 172.593C26.9852 153.855 26.615 135.116 26.2859 116.398C25.9774 97.6593 25.7305 78.9412 25.3192 60.2025L25.1546 53.1883L24.9901 46.1742L24.6199 32.1047C24.5787 29.6981 25.0107 27.312 25.8745 25.07C26.7384 22.8485 28.0342 20.771 29.6591 19.0432C31.2839 17.2948 33.2585 15.8755 35.4181 14.8676C37.5778 13.8597 39.9225 13.2837 42.3084 13.1603ZM42.3496 13.7774C40.0459 13.9008 37.7834 14.4768 35.7061 15.4435C33.6081 16.4514 31.7159 17.8296 30.1733 19.5163C28.6306 21.2029 27.3966 23.1982 26.5944 25.358C25.8128 27.4972 25.4426 29.8009 25.5249 32.0841C25.7305 36.7534 25.9774 41.4432 26.2242 46.1124L26.5944 53.1266L26.9852 60.1408C28.0342 78.8383 29.2477 97.5359 30.3995 116.233C31.5307 134.931 32.6209 153.629 33.5259 172.347C33.9783 181.706 34.3897 191.065 34.8011 200.403C35.233 209.762 35.6238 219.121 36.0146 228.48C36.4054 237.84 36.7756 247.199 37.1253 256.558L37.2487 260.075L37.3104 261.803C37.3309 262.05 37.3309 262.276 37.3515 262.523L37.4338 263.243C37.7012 265.135 38.3388 266.986 39.2849 268.652C40.2516 270.319 41.5268 271.8 43.0489 272.972C44.5709 274.165 46.3192 275.05 48.1498 275.564C49.0753 275.831 50.0214 275.996 50.9881 276.078L51.708 276.119C51.9548 276.119 52.2017 276.119 52.4279 276.119L54.1556 276.099L61.1693 275.975L75.2173 275.728L103.313 275.255C122.03 274.947 140.768 274.597 159.485 274.391L173.533 274.227L187.581 274.103L215.677 273.877L222.69 273.815H223.575H224.007H224.233H224.439C224.706 273.795 224.974 273.815 225.241 273.774C225.508 273.754 225.776 273.733 226.043 273.713C227.113 273.589 228.162 273.363 229.19 273.034C231.247 272.375 233.16 271.326 234.826 269.928C236.492 268.55 237.87 266.822 238.898 264.909C239.926 262.996 240.564 260.877 240.77 258.697C240.79 258.553 240.811 258.429 240.811 258.285L240.831 257.874L240.852 257.463V257.051V256.64V256.208L240.831 255.323L240.749 251.806L240.379 237.757L239.968 223.708L239.515 209.66C239.207 200.3 238.878 190.941 238.487 181.582C237.026 144.146 234.743 106.751 233.077 69.3353L232.769 62.3211L232.728 61.4366V61.2104L232.707 61.0252L232.687 60.655C232.687 60.4082 232.645 60.1613 232.604 59.9145C232.584 59.6677 232.543 59.4208 232.481 59.174C232.296 58.1867 232.028 57.2199 231.679 56.2943C231.329 55.3687 230.877 54.4636 230.342 53.6203C229.807 52.7769 229.19 51.9953 228.511 51.2548C228.347 51.0697 228.162 50.9051 227.997 50.72C227.832 50.5349 227.627 50.3703 227.442 50.2057L227.154 49.9589L226.825 49.6709L226.146 49.1156L223.472 46.8529C216.314 40.8055 209.198 34.7376 202.081 28.6285L191.448 19.4545L186.141 14.847L184.825 13.6951L184.228 13.1397L183.899 12.8518L183.611 12.6049C182.83 11.9673 182.007 11.3914 181.102 10.8977C179.333 9.93093 177.358 9.29328 175.343 9.04645C174.829 8.98474 174.335 8.9436 173.821 8.9436C173.574 8.9436 173.307 8.9436 173.06 8.9436C172.936 8.9436 172.772 8.9436 172.628 8.96417L172.196 8.98474L168.679 9.10815L154.631 9.56068L126.555 10.404L112.507 10.836L98.4593 11.3091L91.4455 11.5559L84.4318 11.8233C79.7629 12.0084 75.0734 12.1936 70.4044 12.3993C61.0459 12.8312 51.6875 13.2837 42.3496 13.7774Z" stroke="#001064" stroke-width="2" mask="url(#path-5-outside-2)"/>
<path d="M172.813 6.66016C173.43 8.71709 173.945 10.774 174.459 12.831C174.973 14.8879 175.446 16.9654 175.899 19.0429C176.804 23.1774 177.626 27.3324 178.408 31.508L178.963 34.6345C179.148 35.6835 179.313 36.712 179.498 37.761C179.663 38.8101 179.848 39.8385 180.012 40.8876L180.136 41.6692L180.177 41.8543L180.218 42.0189L180.28 42.348C180.321 42.5743 180.362 42.78 180.424 43.0062L180.506 43.3353C180.526 43.4382 180.568 43.541 180.588 43.6645C181.534 47.0995 183.653 50.1438 186.471 52.2624C187.17 52.7972 187.931 53.2703 188.713 53.6817C189.494 54.0931 190.296 54.4428 191.14 54.7308C192.806 55.2861 194.574 55.5535 196.364 55.5741L197.043 55.5535L197.824 55.5124L199.408 55.4507C200.457 55.4096 201.526 55.3684 202.575 55.3273L205.743 55.2244L208.91 55.101C213.147 55.0187 217.364 54.9776 221.622 55.0599C223.74 55.101 225.859 55.1422 227.998 55.245C230.116 55.3273 232.255 55.4507 234.374 55.6153C232.296 56.1089 230.198 56.5409 228.121 56.9523C226.044 57.3637 223.946 57.7339 221.848 58.0836C217.672 58.7829 213.477 59.4 209.281 59.9348L206.134 60.3462L202.987 60.7165C201.938 60.8399 200.889 60.9633 199.84 61.0661L198.256 61.2307L197.475 61.313L196.57 61.3747C194.143 61.4981 191.654 61.2101 189.309 60.4902C188.137 60.1199 186.985 59.6674 185.895 59.112C184.805 58.5567 183.756 57.8985 182.768 57.158C178.84 54.196 175.981 49.8147 174.932 45.0426C174.891 44.8986 174.87 44.7546 174.829 44.5901L174.747 44.1375C174.685 43.829 174.644 43.541 174.603 43.2325L174.541 42.78L174.521 42.5537L174.5 42.348L174.418 41.5664C174.315 40.5173 174.233 39.4683 174.13 38.3987C174.048 37.3497 173.945 36.3006 173.862 35.231L173.616 32.0633C173.307 27.8466 173.06 23.6093 172.916 19.372C172.855 17.2534 172.793 15.1347 172.772 12.9955C172.752 10.918 172.731 8.7788 172.813 6.66016Z" fill="#001064"/>
<mask id="path-7-outside-3" maskUnits="userSpaceOnUse" x="110.741" y="115.953" width="54.0429" height="70.9149" fill="black">
<rect fill="white" x="110.741" y="115.953" width="54.0429" height="70.9149"/>
<path d="M117.057 179.558C118.288 175.675 119.635 171.822 121.096 167.998C121.847 166.103 122.595 164.172 123.383 162.275L125.71 156.585L125.774 156.4C125.807 156.325 125.805 156.289 125.838 156.215C125.904 156.065 125.968 155.88 125.995 155.697C126.087 155.365 126.14 154.999 126.158 154.672C126.191 153.981 126.072 153.263 125.841 152.552C125.611 151.877 125.232 151.211 124.746 150.661C124.625 150.523 124.504 150.385 124.382 150.248L124.023 149.907L123.504 149.431C122.145 148.136 121.005 146.718 120.118 145.141C119.657 144.371 119.304 143.522 118.991 142.707C118.814 142.283 118.713 141.854 118.574 141.427C118.472 140.998 118.371 140.57 118.27 140.141C118.104 139.28 118.012 138.379 118.032 137.472C118.014 136.566 118.111 135.69 118.206 134.778C118.781 131.225 120.602 127.742 123.413 125.069C124.839 123.749 126.505 122.669 128.297 121.798C130.091 120.963 132.048 120.337 134.067 120.105C138.101 119.569 142.291 120.365 145.835 122.289C149.34 124.214 152.127 127.308 153.47 130.816C154.18 132.586 154.482 134.453 154.517 136.264C154.517 138.113 154.215 139.945 153.566 141.652C152.954 143.358 152.036 144.973 150.88 146.385L150.423 146.92C150.284 147.11 150.105 147.266 149.964 147.42C149.825 147.61 149.646 147.766 149.467 147.921L149.218 148.154C149.112 148.269 148.933 148.425 148.829 148.577C148.3 149.153 147.891 149.867 147.633 150.572C147.377 151.312 147.236 152.082 147.284 152.877C147.332 153.672 147.491 154.424 147.838 155.164L148.451 156.577L149.675 159.367L152.161 164.945C153.82 168.688 155.549 172.353 157.318 176.053L157.967 177.428L158.139 177.78C158.137 177.744 158.137 177.744 158.134 177.708C158.132 177.672 158.168 177.633 158.17 177.669C158.17 177.669 158.172 177.705 158.099 177.746L158.062 177.748C158.062 177.748 158.062 177.748 158.024 177.751C157.987 177.753 157.912 177.758 157.837 177.762L157.049 177.81L155.475 177.942L152.329 178.206C148.136 178.607 143.95 179.116 139.731 179.699C135.55 180.28 131.37 180.898 127.147 181.409C125.055 181.681 122.959 181.881 120.863 182.082C120.337 182.114 119.777 182.184 119.289 182.214C118.802 182.244 118.343 182.126 117.95 181.86C117.559 181.63 117.235 181.251 117.059 180.827C116.962 180.47 116.933 180 117.057 179.558ZM116.598 179.441C116.441 179.958 116.441 180.574 116.661 181.105C116.882 181.635 117.248 182.084 117.756 182.38C118.228 182.714 118.801 182.86 119.404 182.86C119.554 182.85 119.706 182.877 119.819 182.871L120.231 182.845L121.021 182.833C123.126 182.778 125.231 182.722 127.341 182.739C131.558 182.735 135.781 182.841 140.04 182.908C144.261 182.977 148.478 182.974 152.725 182.86L155.881 182.74L157.458 182.68L158.246 182.632L158.471 182.619L158.846 182.596C159.071 182.582 159.332 182.53 159.59 182.442C160.554 182.202 161.461 181.639 162.17 180.907C162.838 180.141 163.306 179.169 163.39 178.076C163.432 177.53 163.362 176.99 163.256 176.489C163.203 176.238 163.075 175.992 162.987 175.78L162.815 175.428L162.166 174.053C160.472 170.349 158.741 166.647 156.936 162.986L154.23 157.494L152.858 154.75L152.172 153.377C152.046 153.167 151.995 152.953 151.98 152.7C151.951 152.23 152.072 151.751 152.388 151.37C152.423 151.331 152.459 151.293 152.529 151.216L152.812 150.909C152.986 150.68 153.2 150.486 153.375 150.258C153.549 150.03 153.763 149.835 153.937 149.607L154.383 148.891C155.701 147.034 156.74 144.94 157.323 142.765C158.562 138.375 157.938 133.699 155.893 129.798C155.381 128.814 154.799 127.907 154.144 127.04C153.489 126.174 152.723 125.35 151.962 124.599C151.163 123.85 150.331 123.175 149.427 122.541C148.522 121.907 147.587 121.384 146.616 120.899C142.697 118.999 138.245 118.218 133.9 118.592C133.339 118.662 132.814 118.694 132.254 118.765L130.654 119.08C130.393 119.132 130.133 119.184 129.837 119.275L129.061 119.503C128.802 119.592 128.542 119.644 128.284 119.732L127.509 119.997C125.446 120.739 123.44 121.804 121.675 123.108C119.911 124.448 118.316 126.068 117.033 127.887C115.753 129.742 114.749 131.797 114.246 134.04C114.129 134.591 114.049 135.14 113.934 135.727L113.886 136.165L113.875 136.601L113.813 137.439C113.731 138.568 113.839 139.722 114.02 140.835C114.2 141.948 114.494 143.054 114.9 144.153C115.303 145.217 115.782 146.275 116.406 147.252C116.993 148.232 117.688 149.133 118.456 149.992C119.221 150.816 120.06 151.599 120.969 152.305L121.639 152.808L121.758 152.909L121.838 152.977L121.997 153.113C122.197 153.318 122.4 153.559 122.566 153.803C122.696 154.085 122.789 154.37 122.844 154.656C122.853 154.801 122.864 154.982 122.835 155.128C122.839 155.201 122.806 155.275 122.813 155.384C122.815 155.42 122.782 155.494 122.784 155.53L122.758 155.713L121.389 161.671C120.945 163.656 120.463 165.643 119.982 167.631C118.944 171.61 117.867 175.556 116.598 179.441Z"/>
</mask>
<path d="M117.057 179.558C118.288 175.675 119.635 171.822 121.096 167.998C121.847 166.103 122.595 164.172 123.383 162.275L125.71 156.585L125.774 156.4C125.807 156.325 125.805 156.289 125.838 156.215C125.904 156.065 125.968 155.88 125.995 155.697C126.087 155.365 126.14 154.999 126.158 154.672C126.191 153.981 126.072 153.263 125.841 152.552C125.611 151.877 125.232 151.211 124.746 150.661C124.625 150.523 124.504 150.385 124.382 150.248L124.023 149.907L123.504 149.431C122.145 148.136 121.005 146.718 120.118 145.141C119.657 144.371 119.304 143.522 118.991 142.707C118.814 142.283 118.713 141.854 118.574 141.427C118.472 140.998 118.371 140.57 118.27 140.141C118.104 139.28 118.012 138.379 118.032 137.472C118.014 136.566 118.111 135.69 118.206 134.778C118.781 131.225 120.602 127.742 123.413 125.069C124.839 123.749 126.505 122.669 128.297 121.798C130.091 120.963 132.048 120.337 134.067 120.105C138.101 119.569 142.291 120.365 145.835 122.289C149.34 124.214 152.127 127.308 153.47 130.816C154.18 132.586 154.482 134.453 154.517 136.264C154.517 138.113 154.215 139.945 153.566 141.652C152.954 143.358 152.036 144.973 150.88 146.385L150.423 146.92C150.284 147.11 150.105 147.266 149.964 147.42C149.825 147.61 149.646 147.766 149.467 147.921L149.218 148.154C149.112 148.269 148.933 148.425 148.829 148.577C148.3 149.153 147.891 149.867 147.633 150.572C147.377 151.312 147.236 152.082 147.284 152.877C147.332 153.672 147.491 154.424 147.838 155.164L148.451 156.577L149.675 159.367L152.161 164.945C153.82 168.688 155.549 172.353 157.318 176.053L157.967 177.428L158.139 177.78C158.137 177.744 158.137 177.744 158.134 177.708C158.132 177.672 158.168 177.633 158.17 177.669C158.17 177.669 158.172 177.705 158.099 177.746L158.062 177.748C158.062 177.748 158.062 177.748 158.024 177.751C157.987 177.753 157.912 177.758 157.837 177.762L157.049 177.81L155.475 177.942L152.329 178.206C148.136 178.607 143.95 179.116 139.731 179.699C135.55 180.28 131.37 180.898 127.147 181.409C125.055 181.681 122.959 181.881 120.863 182.082C120.337 182.114 119.777 182.184 119.289 182.214C118.802 182.244 118.343 182.126 117.95 181.86C117.559 181.63 117.235 181.251 117.059 180.827C116.962 180.47 116.933 180 117.057 179.558ZM116.598 179.441C116.441 179.958 116.441 180.574 116.661 181.105C116.882 181.635 117.248 182.084 117.756 182.38C118.228 182.714 118.801 182.86 119.404 182.86C119.554 182.85 119.706 182.877 119.819 182.871L120.231 182.845L121.021 182.833C123.126 182.778 125.231 182.722 127.341 182.739C131.558 182.735 135.781 182.841 140.04 182.908C144.261 182.977 148.478 182.974 152.725 182.86L155.881 182.74L157.458 182.68L158.246 182.632L158.471 182.619L158.846 182.596C159.071 182.582 159.332 182.53 159.59 182.442C160.554 182.202 161.461 181.639 162.17 180.907C162.838 180.141 163.306 179.169 163.39 178.076C163.432 177.53 163.362 176.99 163.256 176.489C163.203 176.238 163.075 175.992 162.987 175.78L162.815 175.428L162.166 174.053C160.472 170.349 158.741 166.647 156.936 162.986L154.23 157.494L152.858 154.75L152.172 153.377C152.046 153.167 151.995 152.953 151.98 152.7C151.951 152.23 152.072 151.751 152.388 151.37C152.423 151.331 152.459 151.293 152.529 151.216L152.812 150.909C152.986 150.68 153.2 150.486 153.375 150.258C153.549 150.03 153.763 149.835 153.937 149.607L154.383 148.891C155.701 147.034 156.74 144.94 157.323 142.765C158.562 138.375 157.938 133.699 155.893 129.798C155.381 128.814 154.799 127.907 154.144 127.04C153.489 126.174 152.723 125.35 151.962 124.599C151.163 123.85 150.331 123.175 149.427 122.541C148.522 121.907 147.587 121.384 146.616 120.899C142.697 118.999 138.245 118.218 133.9 118.592C133.339 118.662 132.814 118.694 132.254 118.765L130.654 119.08C130.393 119.132 130.133 119.184 129.837 119.275L129.061 119.503C128.802 119.592 128.542 119.644 128.284 119.732L127.509 119.997C125.446 120.739 123.44 121.804 121.675 123.108C119.911 124.448 118.316 126.068 117.033 127.887C115.753 129.742 114.749 131.797 114.246 134.04C114.129 134.591 114.049 135.14 113.934 135.727L113.886 136.165L113.875 136.601L113.813 137.439C113.731 138.568 113.839 139.722 114.02 140.835C114.2 141.948 114.494 143.054 114.9 144.153C115.303 145.217 115.782 146.275 116.406 147.252C116.993 148.232 117.688 149.133 118.456 149.992C119.221 150.816 120.06 151.599 120.969 152.305L121.639 152.808L121.758 152.909L121.838 152.977L121.997 153.113C122.197 153.318 122.4 153.559 122.566 153.803C122.696 154.085 122.789 154.37 122.844 154.656C122.853 154.801 122.864 154.982 122.835 155.128C122.839 155.201 122.806 155.275 122.813 155.384C122.815 155.42 122.782 155.494 122.784 155.53L122.758 155.713L121.389 161.671C120.945 163.656 120.463 165.643 119.982 167.631C118.944 171.61 117.867 175.556 116.598 179.441Z" fill="#001064"/>
<path d="M117.057 179.558C118.288 175.675 119.635 171.822 121.096 167.998C121.847 166.103 122.595 164.172 123.383 162.275L125.71 156.585L125.774 156.4C125.807 156.325 125.805 156.289 125.838 156.215C125.904 156.065 125.968 155.88 125.995 155.697C126.087 155.365 126.14 154.999 126.158 154.672C126.191 153.981 126.072 153.263 125.841 152.552C125.611 151.877 125.232 151.211 124.746 150.661C124.625 150.523 124.504 150.385 124.382 150.248L124.023 149.907L123.504 149.431C122.145 148.136 121.005 146.718 120.118 145.141C119.657 144.371 119.304 143.522 118.991 142.707C118.814 142.283 118.713 141.854 118.574 141.427C118.472 140.998 118.371 140.57 118.27 140.141C118.104 139.28 118.012 138.379 118.032 137.472C118.014 136.566 118.111 135.69 118.206 134.778C118.781 131.225 120.602 127.742 123.413 125.069C124.839 123.749 126.505 122.669 128.297 121.798C130.091 120.963 132.048 120.337 134.067 120.105C138.101 119.569 142.291 120.365 145.835 122.289C149.34 124.214 152.127 127.308 153.47 130.816C154.18 132.586 154.482 134.453 154.517 136.264C154.517 138.113 154.215 139.945 153.566 141.652C152.954 143.358 152.036 144.973 150.88 146.385L150.423 146.92C150.284 147.11 150.105 147.266 149.964 147.42C149.825 147.61 149.646 147.766 149.467 147.921L149.218 148.154C149.112 148.269 148.933 148.425 148.829 148.577C148.3 149.153 147.891 149.867 147.633 150.572C147.377 151.312 147.236 152.082 147.284 152.877C147.332 153.672 147.491 154.424 147.838 155.164L148.451 156.577L149.675 159.367L152.161 164.945C153.82 168.688 155.549 172.353 157.318 176.053L157.967 177.428L158.139 177.78C158.137 177.744 158.137 177.744 158.134 177.708C158.132 177.672 158.168 177.633 158.17 177.669C158.17 177.669 158.172 177.705 158.099 177.746L158.062 177.748C158.062 177.748 158.062 177.748 158.024 177.751C157.987 177.753 157.912 177.758 157.837 177.762L157.049 177.81L155.475 177.942L152.329 178.206C148.136 178.607 143.95 179.116 139.731 179.699C135.55 180.28 131.37 180.898 127.147 181.409C125.055 181.681 122.959 181.881 120.863 182.082C120.337 182.114 119.777 182.184 119.289 182.214C118.802 182.244 118.343 182.126 117.95 181.86C117.559 181.63 117.235 181.251 117.059 180.827C116.962 180.47 116.933 180 117.057 179.558ZM116.598 179.441C116.441 179.958 116.441 180.574 116.661 181.105C116.882 181.635 117.248 182.084 117.756 182.38C118.228 182.714 118.801 182.86 119.404 182.86C119.554 182.85 119.706 182.877 119.819 182.871L120.231 182.845L121.021 182.833C123.126 182.778 125.231 182.722 127.341 182.739C131.558 182.735 135.781 182.841 140.04 182.908C144.261 182.977 148.478 182.974 152.725 182.86L155.881 182.74L157.458 182.68L158.246 182.632L158.471 182.619L158.846 182.596C159.071 182.582 159.332 182.53 159.59 182.442C160.554 182.202 161.461 181.639 162.17 180.907C162.838 180.141 163.306 179.169 163.39 178.076C163.432 177.53 163.362 176.99 163.256 176.489C163.203 176.238 163.075 175.992 162.987 175.78L162.815 175.428L162.166 174.053C160.472 170.349 158.741 166.647 156.936 162.986L154.23 157.494L152.858 154.75L152.172 153.377C152.046 153.167 151.995 152.953 151.98 152.7C151.951 152.23 152.072 151.751 152.388 151.37C152.423 151.331 152.459 151.293 152.529 151.216L152.812 150.909C152.986 150.68 153.2 150.486 153.375 150.258C153.549 150.03 153.763 149.835 153.937 149.607L154.383 148.891C155.701 147.034 156.74 144.94 157.323 142.765C158.562 138.375 157.938 133.699 155.893 129.798C155.381 128.814 154.799 127.907 154.144 127.04C153.489 126.174 152.723 125.35 151.962 124.599C151.163 123.85 150.331 123.175 149.427 122.541C148.522 121.907 147.587 121.384 146.616 120.899C142.697 118.999 138.245 118.218 133.9 118.592C133.339 118.662 132.814 118.694 132.254 118.765L130.654 119.08C130.393 119.132 130.133 119.184 129.837 119.275L129.061 119.503C128.802 119.592 128.542 119.644 128.284 119.732L127.509 119.997C125.446 120.739 123.44 121.804 121.675 123.108C119.911 124.448 118.316 126.068 117.033 127.887C115.753 129.742 114.749 131.797 114.246 134.04C114.129 134.591 114.049 135.14 113.934 135.727L113.886 136.165L113.875 136.601L113.813 137.439C113.731 138.568 113.839 139.722 114.02 140.835C114.2 141.948 114.494 143.054 114.9 144.153C115.303 145.217 115.782 146.275 116.406 147.252C116.993 148.232 117.688 149.133 118.456 149.992C119.221 150.816 120.06 151.599 120.969 152.305L121.639 152.808L121.758 152.909L121.838 152.977L121.997 153.113C122.197 153.318 122.4 153.559 122.566 153.803C122.696 154.085 122.789 154.37 122.844 154.656C122.853 154.801 122.864 154.982 122.835 155.128C122.839 155.201 122.806 155.275 122.813 155.384C122.815 155.42 122.782 155.494 122.784 155.53L122.758 155.713L121.389 161.671C120.945 163.656 120.463 165.643 119.982 167.631C118.944 171.61 117.867 175.556 116.598 179.441Z" stroke="#001064" stroke-width="2" mask="url(#path-7-outside-3)"/>
<path d="M147.923 180.917L147.91 180.896L147.899 180.873L137.341 158.347C137.34 158.347 137.34 158.346 137.34 158.346C136.511 156.595 136.905 154.572 138.29 153.194L138.291 153.193C141.785 149.73 143.764 145.101 143.461 140.128C143.154 135.084 141.704 130.664 138.995 127.63C136.304 124.615 132.321 122.909 126.802 123.369C125.624 123.476 124.457 123.654 123.338 123.934L122.931 123.039C125.964 120.922 129.657 119.548 133.68 119.228C145.26 118.264 155.318 126.097 155.958 136.611C156.281 141.899 154.136 146.84 150.494 150.447C149.395 151.541 149.104 153.112 149.743 154.462L149.745 154.465L160.267 177.028C160.268 177.029 160.268 177.029 160.268 177.03C161.186 178.97 159.64 181.017 157.531 181.146L153.067 181.418L152.647 181.444L152.62 181.332C152.525 181.323 152.407 181.314 152.268 181.307C151.843 181.284 151.276 181.272 150.698 181.262C150.575 181.259 150.451 181.257 150.328 181.255C149.88 181.248 149.445 181.241 149.096 181.229C148.875 181.222 148.679 181.213 148.533 181.201C148.462 181.195 148.389 181.187 148.327 181.176C148.297 181.17 148.252 181.161 148.205 181.144C148.182 181.136 148.144 181.121 148.102 181.096C148.066 181.074 147.985 181.02 147.923 180.917Z" fill="#001064" stroke="#001064"/>
<path d="M95.5395 226.391L90.4332 216.413L88.5325 219.323L79.5637 229.24L69.8535 232.03L80.5424 241.088L84.7875 251.749L91.3509 242.337L104.595 236.043L104.091 233.638L95.5395 226.391Z" fill="white"/>
<path d="M113.999 236.483C112.757 235.303 110.513 235.085 108.892 234.421C107.112 233.676 105.411 232.794 103.835 231.741C100.606 229.584 97.8684 226.841 95.8993 223.688C93.8768 220.446 92.6741 216.718 92.3577 213.03C92.3533 212.885 92.3303 212.716 92.326 212.57C93.4119 209.044 93.9817 205.397 93.8324 201.915C93.7548 199.831 90.1522 199.436 89.7412 201.525C89.6473 201.971 89.5743 202.419 89.5433 202.872C89.5243 203.035 89.5287 203.181 89.554 203.329C89.2649 206.2 88.9595 209.028 88.1447 211.859C87.1519 215.313 85.6614 218.667 83.7342 221.764C82.0658 224.455 79.9279 226.988 77.0378 228.688C73.852 230.56 70.2898 230.916 66.5383 230.525C65.3428 230.407 64.682 231.721 65.7975 232.348C66.7944 232.899 67.8335 233.268 68.8498 233.468C69.3352 233.856 69.8021 234.221 70.3784 234.557C71.4705 235.202 72.5185 235.862 73.487 236.659C75.4684 238.236 77.1631 240.092 78.4736 242.152C81.2893 246.605 82.0679 251.986 80.9281 256.895C80.6725 258.007 81.4085 258.797 82.3291 259.09C83.1609 260.887 86.1808 260.635 86.2664 258.425C86.5105 252.27 88.8546 246.483 94.3842 242.682C96.9185 240.942 99.7842 239.821 102.893 239.163C104.918 238.712 106.979 238.681 109.024 238.606C110.486 239.169 112.051 239.578 113.389 239.193C114.707 238.806 114.919 237.336 113.999 236.483ZM102.225 235.58C98.4022 236.176 94.6843 237.696 91.6771 239.859C89.0169 241.772 86.7348 244.268 85.0547 247.061C84.4843 244.838 83.5485 242.655 82.2357 240.615C80.7095 238.219 78.6502 236.031 76.2877 234.265C75.7603 233.872 75.2097 233.497 74.6382 233.12C79.1768 231.839 83.331 228.377 85.7795 225.175C87.2533 223.249 88.5833 221.1 89.7344 218.847C90.3166 220.969 91.1595 223.037 92.2887 225.014C94.3709 228.656 97.4518 231.917 101.046 234.406C101.576 234.779 102.129 235.133 102.684 235.467C102.549 235.534 102.398 235.558 102.225 235.58Z" fill="#001064"/>
<path d="M208.085 216.091L183.776 212.749L180.077 212.194L176.356 214.813L175.262 220.095L178.406 224.348L182.068 230.192L178.872 233.344L176.734 236.503L177.23 241.267L173.509 243.886L170.306 248.095L172.4 251.284L176.084 253.954L182.424 255.056L181.351 257.165L180.797 260.863L185.524 265.657L191.324 268.342L195.03 267.839L197.664 269.444L218.105 296.563L228.055 310.914L236.452 320.494L248.008 332.212L275.395 349.329L283.259 359.434L291.153 365.307L296.442 365.344L307.065 359.07L321.978 344.363L324.67 337.505L324.167 333.799L313.196 314.151L303.8 296.101L285.082 249.422L281.405 245.694L270.878 238.215L244.527 224.279L226.587 217.807L208.085 216.091Z" fill="white"/>
<mask id="path-12-outside-4" maskUnits="userSpaceOnUse" x="133.711" y="149.268" width="217.347" height="234.73" fill="black">
<rect fill="white" x="133.711" y="149.268" width="217.347" height="234.73"/>
<path d="M320.067 347.618C322.828 344.579 325.818 340.757 326.821 336.665C327.751 332.486 325.844 330.372 323.223 327.224C317.631 320.33 312.893 312.873 309.096 304.782C308.965 304.447 308.833 304.112 308.688 303.937C313.075 306.207 317.449 308.637 321.837 310.906C325.527 312.868 329.755 315.123 333.647 316.621C340.88 319.484 342.336 312.053 336.193 309.616C333.709 308.574 331.08 307.358 328.697 306.084C323.307 303.316 317.931 300.389 312.468 297.533C309.547 295.967 306.627 294.401 303.793 292.762C301.41 286.898 299.187 281.05 296.79 275.346C293.735 267.969 290.666 260.752 287.525 253.448C285.654 249.082 284.702 246.173 280.995 243.485C266.034 232.398 247.932 223.186 230.103 218.187C214.947 213.926 199.77 212.642 184.174 211.559C181.416 210.894 178.619 211.594 176.782 213.271C176.449 213.4 176.188 213.617 176.16 213.937C174.209 216.006 173.623 219.01 175.519 222.17L175.592 222.257C171.523 220.018 167.528 217.866 163.532 215.714C159.304 213.459 155.104 210.885 150.601 209.007C148.263 208.14 138.6 207.301 138.6 207.301C138.6 207.301 145.847 214.594 147.896 215.997C158.828 223.479 164.59 224.753 172.727 229.231C174.718 230.387 176.796 231.471 178.714 232.539C176.6 233.707 175.214 235.749 175.919 238.715C176.096 239.456 176.272 240.198 176.535 240.867C172.593 241.78 168.295 244.914 169.672 249.393C171.227 254.614 176.712 255.378 181.542 255.355C179.473 256.929 178.916 259.614 180.825 262.614C183.712 267.318 189.9 270.162 195.307 269.066C200.07 275.317 204.92 281.496 209.683 287.747C217.548 298.078 224.112 309.493 232.932 319.03C244.983 332.094 260.23 341.759 274.997 351.379C279.713 356.337 286.814 368.045 294.917 366.481C298.932 365.656 302.838 362.404 306.022 360.05C311.16 356.513 315.875 352.291 320.067 347.618ZM183.718 214.012L183.877 214.027C183.877 214.027 183.95 214.115 184.037 214.042C187.722 214.232 191.32 214.494 194.991 214.844C192.409 219.51 180.545 219.91 178.658 214.819C179.786 213.879 181.598 213.408 183.718 214.012ZM177.157 217.253C181.396 223.051 194.867 221.757 197.471 214.999C215.652 216.892 233.475 220.118 250.037 228.54C259.583 233.475 269.114 238.569 278.083 244.577C282.72 247.676 283.834 251.486 286.041 256.608C289.401 264.175 292.514 271.799 295.701 279.51C297.294 283.366 298.801 287.294 300.481 291.078C287.883 284.242 275.213 277.318 262.629 270.322C258.793 268.186 254.797 266.034 250.961 263.897C247.262 259.277 244.084 254.223 241.312 249.128C240.612 247.934 240.075 247.641 238.826 247.2C234.628 245.512 230.532 243.592 226.435 241.673C221.104 239.152 212.905 233.54 198.256 229.005C192.23 227.062 185.512 226.583 180.019 223.162C177.49 221.713 176.656 219.298 177.157 217.253ZM257.693 277.985C255.671 276.263 253.736 274.468 251.701 272.905C253.691 274.061 255.769 275.145 257.76 276.301C257.805 276.707 257.835 277.274 257.693 277.985ZM210.724 250.162C214.793 252.401 218.934 254.728 223.003 256.967C226.606 259.001 230.37 261.051 233.973 263.085C229.21 261.423 224.246 260.226 219.587 259.219C216.632 256.2 213.765 253.108 210.724 250.162ZM212.788 237.635C219.777 241.441 227.054 244.711 234.259 247.893C235.886 248.611 237.513 249.33 239.226 249.976C238.369 249.653 238.938 250.513 239.579 251.459C233.623 248.718 226.844 247.106 220.113 246.788C213.516 243.1 206.832 239.484 200.235 235.796C203.237 235.518 206.211 235.56 209.025 235.586C210.332 236.274 211.553 237.035 212.788 237.635ZM242.189 255.653C243.398 257.46 244.608 259.266 245.818 261.072C239.148 257.296 232.464 253.681 225.794 249.905C231.585 250.859 237.291 252.771 242.189 255.653ZM241.2 268.765C247.17 271.347 252.35 276.51 257.208 280.757C256.808 282.571 256.421 284.225 255.397 285.819C242.85 281.162 232.61 272.215 222.919 262.515C229.219 264.081 235.303 266.271 241.2 268.765ZM191.093 229.933C194.795 230.849 198.51 231.606 202.125 232.594C202.836 232.742 203.461 232.963 204.085 233.183C201.59 233.187 199.068 233.511 196.545 233.834C193.784 232.283 191.096 230.819 188.335 229.268C189.279 229.519 190.149 229.682 191.093 229.933ZM181.867 234.208C184.86 235.862 187.926 237.603 191.006 239.185C192.319 241.645 192.893 244.277 190.186 245.79C187.391 247.376 182.738 243.551 180.007 242.567C179.408 241.141 178.882 239.802 178.442 238.391C177.709 235.745 179.663 234.562 181.867 234.208ZM173.187 250.614C169.709 247.142 174.34 243.879 177.529 243.297C179.005 246.658 181.133 249.921 183.362 252.951C179.809 253.096 175.617 253.18 173.187 250.614ZM184.25 263.021C183.216 261.956 182.284 260.659 182.091 259.192C181.794 257.07 184.476 256.762 185.941 256.579C186.582 257.526 187.383 258.488 187.951 259.347C189.743 261.853 191.695 264.374 193.487 266.88C190.093 267.04 186.767 265.515 184.25 263.021ZM272.416 346.865C263.971 341.31 255.612 335.683 247.716 329.375C234.629 318.95 226.175 306.147 216.56 292.831C209.392 282.808 201.616 273.29 194.347 263.499C190.385 258.21 185.347 252.335 181.948 246.133C185.26 247.818 189.097 249.954 192.034 247.657C194.624 245.649 194.907 243.341 194.232 240.942C197.225 242.595 200.218 244.249 203.212 245.903C204.405 246.983 205.597 248.063 206.863 249.23C206.995 249.565 207.213 249.827 207.605 249.945C211.388 253.607 215.084 257.341 218.78 261.074C218.926 261.249 219.071 261.424 219.304 261.527C228.762 271.124 238.481 280.504 250.83 286.511C252.37 287.302 254.011 287.861 255.651 288.42C256.043 288.538 256.449 288.496 256.623 288.351C256.797 288.207 256.883 288.134 257.057 287.99C259.412 284.993 259.821 281.248 260.549 277.532C275.515 285.802 290.409 293.984 305.389 302.093C307.755 307.231 310.295 312.223 313.255 317.014C305.493 325.697 296.524 333.459 287.511 340.814C285.341 342.62 283.098 344.339 280.695 346.043C277.005 348.671 276.296 349.409 272.416 346.865ZM305.694 357.361C302.25 359.932 296.292 365.485 291.501 364.143C286.478 362.698 281.681 354.994 278.217 351.363C278.072 351.188 277.926 351.013 277.853 350.926C285.049 346.86 291.428 341.106 297.532 335.729C303.376 330.568 309.234 325.247 314.568 319.475C316.623 322.65 318.838 325.84 321.299 328.973C323.046 331.072 324.836 332.692 324.497 335.639C324.259 338.354 322.265 340.902 320.706 343.089C316.603 348.576 311.048 353.201 305.694 357.361Z"/>
</mask>
<path d="M320.067 347.618C322.828 344.579 325.818 340.757 326.821 336.665C327.751 332.486 325.844 330.372 323.223 327.224C317.631 320.33 312.893 312.873 309.096 304.782C308.965 304.447 308.833 304.112 308.688 303.937C313.075 306.207 317.449 308.637 321.837 310.906C325.527 312.868 329.755 315.123 333.647 316.621C340.88 319.484 342.336 312.053 336.193 309.616C333.709 308.574 331.08 307.358 328.697 306.084C323.307 303.316 317.931 300.389 312.468 297.533C309.547 295.967 306.627 294.401 303.793 292.762C301.41 286.898 299.187 281.05 296.79 275.346C293.735 267.969 290.666 260.752 287.525 253.448C285.654 249.082 284.702 246.173 280.995 243.485C266.034 232.398 247.932 223.186 230.103 218.187C214.947 213.926 199.77 212.642 184.174 211.559C181.416 210.894 178.619 211.594 176.782 213.271C176.449 213.4 176.188 213.617 176.16 213.937C174.209 216.006 173.623 219.01 175.519 222.17L175.592 222.257C171.523 220.018 167.528 217.866 163.532 215.714C159.304 213.459 155.104 210.885 150.601 209.007C148.263 208.14 138.6 207.301 138.6 207.301C138.6 207.301 145.847 214.594 147.896 215.997C158.828 223.479 164.59 224.753 172.727 229.231C174.718 230.387 176.796 231.471 178.714 232.539C176.6 233.707 175.214 235.749 175.919 238.715C176.096 239.456 176.272 240.198 176.535 240.867C172.593 241.78 168.295 244.914 169.672 249.393C171.227 254.614 176.712 255.378 181.542 255.355C179.473 256.929 178.916 259.614 180.825 262.614C183.712 267.318 189.9 270.162 195.307 269.066C200.07 275.317 204.92 281.496 209.683 287.747C217.548 298.078 224.112 309.493 232.932 319.03C244.983 332.094 260.23 341.759 274.997 351.379C279.713 356.337 286.814 368.045 294.917 366.481C298.932 365.656 302.838 362.404 306.022 360.05C311.16 356.513 315.875 352.291 320.067 347.618ZM183.718 214.012L183.877 214.027C183.877 214.027 183.95 214.115 184.037 214.042C187.722 214.232 191.32 214.494 194.991 214.844C192.409 219.51 180.545 219.91 178.658 214.819C179.786 213.879 181.598 213.408 183.718 214.012ZM177.157 217.253C181.396 223.051 194.867 221.757 197.471 214.999C215.652 216.892 233.475 220.118 250.037 228.54C259.583 233.475 269.114 238.569 278.083 244.577C282.72 247.676 283.834 251.486 286.041 256.608C289.401 264.175 292.514 271.799 295.701 279.51C297.294 283.366 298.801 287.294 300.481 291.078C287.883 284.242 275.213 277.318 262.629 270.322C258.793 268.186 254.797 266.034 250.961 263.897C247.262 259.277 244.084 254.223 241.312 249.128C240.612 247.934 240.075 247.641 238.826 247.2C234.628 245.512 230.532 243.592 226.435 241.673C221.104 239.152 212.905 233.54 198.256 229.005C192.23 227.062 185.512 226.583 180.019 223.162C177.49 221.713 176.656 219.298 177.157 217.253ZM257.693 277.985C255.671 276.263 253.736 274.468 251.701 272.905C253.691 274.061 255.769 275.145 257.76 276.301C257.805 276.707 257.835 277.274 257.693 277.985ZM210.724 250.162C214.793 252.401 218.934 254.728 223.003 256.967C226.606 259.001 230.37 261.051 233.973 263.085C229.21 261.423 224.246 260.226 219.587 259.219C216.632 256.2 213.765 253.108 210.724 250.162ZM212.788 237.635C219.777 241.441 227.054 244.711 234.259 247.893C235.886 248.611 237.513 249.33 239.226 249.976C238.369 249.653 238.938 250.513 239.579 251.459C233.623 248.718 226.844 247.106 220.113 246.788C213.516 243.1 206.832 239.484 200.235 235.796C203.237 235.518 206.211 235.56 209.025 235.586C210.332 236.274 211.553 237.035 212.788 237.635ZM242.189 255.653C243.398 257.46 244.608 259.266 245.818 261.072C239.148 257.296 232.464 253.681 225.794 249.905C231.585 250.859 237.291 252.771 242.189 255.653ZM241.2 268.765C247.17 271.347 252.35 276.51 257.208 280.757C256.808 282.571 256.421 284.225 255.397 285.819C242.85 281.162 232.61 272.215 222.919 262.515C229.219 264.081 235.303 266.271 241.2 268.765ZM191.093 229.933C194.795 230.849 198.51 231.606 202.125 232.594C202.836 232.742 203.461 232.963 204.085 233.183C201.59 233.187 199.068 233.511 196.545 233.834C193.784 232.283 191.096 230.819 188.335 229.268C189.279 229.519 190.149 229.682 191.093 229.933ZM181.867 234.208C184.86 235.862 187.926 237.603 191.006 239.185C192.319 241.645 192.893 244.277 190.186 245.79C187.391 247.376 182.738 243.551 180.007 242.567C179.408 241.141 178.882 239.802 178.442 238.391C177.709 235.745 179.663 234.562 181.867 234.208ZM173.187 250.614C169.709 247.142 174.34 243.879 177.529 243.297C179.005 246.658 181.133 249.921 183.362 252.951C179.809 253.096 175.617 253.18 173.187 250.614ZM184.25 263.021C183.216 261.956 182.284 260.659 182.091 259.192C181.794 257.07 184.476 256.762 185.941 256.579C186.582 257.526 187.383 258.488 187.951 259.347C189.743 261.853 191.695 264.374 193.487 266.88C190.093 267.04 186.767 265.515 184.25 263.021ZM272.416 346.865C263.971 341.31 255.612 335.683 247.716 329.375C234.629 318.95 226.175 306.147 216.56 292.831C209.392 282.808 201.616 273.29 194.347 263.499C190.385 258.21 185.347 252.335 181.948 246.133C185.26 247.818 189.097 249.954 192.034 247.657C194.624 245.649 194.907 243.341 194.232 240.942C197.225 242.595 200.218 244.249 203.212 245.903C204.405 246.983 205.597 248.063 206.863 249.23C206.995 249.565 207.213 249.827 207.605 249.945C211.388 253.607 215.084 257.341 218.78 261.074C218.926 261.249 219.071 261.424 219.304 261.527C228.762 271.124 238.481 280.504 250.83 286.511C252.37 287.302 254.011 287.861 255.651 288.42C256.043 288.538 256.449 288.496 256.623 288.351C256.797 288.207 256.883 288.134 257.057 287.99C259.412 284.993 259.821 281.248 260.549 277.532C275.515 285.802 290.409 293.984 305.389 302.093C307.755 307.231 310.295 312.223 313.255 317.014C305.493 325.697 296.524 333.459 287.511 340.814C285.341 342.62 283.098 344.339 280.695 346.043C277.005 348.671 276.296 349.409 272.416 346.865ZM305.694 357.361C302.25 359.932 296.292 365.485 291.501 364.143C286.478 362.698 281.681 354.994 278.217 351.363C278.072 351.188 277.926 351.013 277.853 350.926C285.049 346.86 291.428 341.106 297.532 335.729C303.376 330.568 309.234 325.247 314.568 319.475C316.623 322.65 318.838 325.84 321.299 328.973C323.046 331.072 324.836 332.692 324.497 335.639C324.259 338.354 322.265 340.902 320.706 343.089C316.603 348.576 311.048 353.201 305.694 357.361Z" fill="#001064"/>
<path d="M320.067 347.618C322.828 344.579 325.818 340.757 326.821 336.665C327.751 332.486 325.844 330.372 323.223 327.224C317.631 320.33 312.893 312.873 309.096 304.782C308.965 304.447 308.833 304.112 308.688 303.937C313.075 306.207 317.449 308.637 321.837 310.906C325.527 312.868 329.755 315.123 333.647 316.621C340.88 319.484 342.336 312.053 336.193 309.616C333.709 308.574 331.08 307.358 328.697 306.084C323.307 303.316 317.931 300.389 312.468 297.533C309.547 295.967 306.627 294.401 303.793 292.762C301.41 286.898 299.187 281.05 296.79 275.346C293.735 267.969 290.666 260.752 287.525 253.448C285.654 249.082 284.702 246.173 280.995 243.485C266.034 232.398 247.932 223.186 230.103 218.187C214.947 213.926 199.77 212.642 184.174 211.559C181.416 210.894 178.619 211.594 176.782 213.271C176.449 213.4 176.188 213.617 176.16 213.937C174.209 216.006 173.623 219.01 175.519 222.17L175.592 222.257C171.523 220.018 167.528 217.866 163.532 215.714C159.304 213.459 155.104 210.885 150.601 209.007C148.263 208.14 138.6 207.301 138.6 207.301C138.6 207.301 145.847 214.594 147.896 215.997C158.828 223.479 164.59 224.753 172.727 229.231C174.718 230.387 176.796 231.471 178.714 232.539C176.6 233.707 175.214 235.749 175.919 238.715C176.096 239.456 176.272 240.198 176.535 240.867C172.593 241.78 168.295 244.914 169.672 249.393C171.227 254.614 176.712 255.378 181.542 255.355C179.473 256.929 178.916 259.614 180.825 262.614C183.712 267.318 189.9 270.162 195.307 269.066C200.07 275.317 204.92 281.496 209.683 287.747C217.548 298.078 224.112 309.493 232.932 319.03C244.983 332.094 260.23 341.759 274.997 351.379C279.713 356.337 286.814 368.045 294.917 366.481C298.932 365.656 302.838 362.404 306.022 360.05C311.16 356.513 315.875 352.291 320.067 347.618ZM183.718 214.012L183.877 214.027C183.877 214.027 183.95 214.115 184.037 214.042C187.722 214.232 191.32 214.494 194.991 214.844C192.409 219.51 180.545 219.91 178.658 214.819C179.786 213.879 181.598 213.408 183.718 214.012ZM177.157 217.253C181.396 223.051 194.867 221.757 197.471 214.999C215.652 216.892 233.475 220.118 250.037 228.54C259.583 233.475 269.114 238.569 278.083 244.577C282.72 247.676 283.834 251.486 286.041 256.608C289.401 264.175 292.514 271.799 295.701 279.51C297.294 283.366 298.801 287.294 300.481 291.078C287.883 284.242 275.213 277.318 262.629 270.322C258.793 268.186 254.797 266.034 250.961 263.897C247.262 259.277 244.084 254.223 241.312 249.128C240.612 247.934 240.075 247.641 238.826 247.2C234.628 245.512 230.532 243.592 226.435 241.673C221.104 239.152 212.905 233.54 198.256 229.005C192.23 227.062 185.512 226.583 180.019 223.162C177.49 221.713 176.656 219.298 177.157 217.253ZM257.693 277.985C255.671 276.263 253.736 274.468 251.701 272.905C253.691 274.061 255.769 275.145 257.76 276.301C257.805 276.707 257.835 277.274 257.693 277.985ZM210.724 250.162C214.793 252.401 218.934 254.728 223.003 256.967C226.606 259.001 230.37 261.051 233.973 263.085C229.21 261.423 224.246 260.226 219.587 259.219C216.632 256.2 213.765 253.108 210.724 250.162ZM212.788 237.635C219.777 241.441 227.054 244.711 234.259 247.893C235.886 248.611 237.513 249.33 239.226 249.976C238.369 249.653 238.938 250.513 239.579 251.459C233.623 248.718 226.844 247.106 220.113 246.788C213.516 243.1 206.832 239.484 200.235 235.796C203.237 235.518 206.211 235.56 209.025 235.586C210.332 236.274 211.553 237.035 212.788 237.635ZM242.189 255.653C243.398 257.46 244.608 259.266 245.818 261.072C239.148 257.296 232.464 253.681 225.794 249.905C231.585 250.859 237.291 252.771 242.189 255.653ZM241.2 268.765C247.17 271.347 252.35 276.51 257.208 280.757C256.808 282.571 256.421 284.225 255.397 285.819C242.85 281.162 232.61 272.215 222.919 262.515C229.219 264.081 235.303 266.271 241.2 268.765ZM191.093 229.933C194.795 230.849 198.51 231.606 202.125 232.594C202.836 232.742 203.461 232.963 204.085 233.183C201.59 233.187 199.068 233.511 196.545 233.834C193.784 232.283 191.096 230.819 188.335 229.268C189.279 229.519 190.149 229.682 191.093 229.933ZM181.867 234.208C184.86 235.862 187.926 237.603 191.006 239.185C192.319 241.645 192.893 244.277 190.186 245.79C187.391 247.376 182.738 243.551 180.007 242.567C179.408 241.141 178.882 239.802 178.442 238.391C177.709 235.745 179.663 234.562 181.867 234.208ZM173.187 250.614C169.709 247.142 174.34 243.879 177.529 243.297C179.005 246.658 181.133 249.921 183.362 252.951C179.809 253.096 175.617 253.18 173.187 250.614ZM184.25 263.021C183.216 261.956 182.284 260.659 182.091 259.192C181.794 257.07 184.476 256.762 185.941 256.579C186.582 257.526 187.383 258.488 187.951 259.347C189.743 261.853 191.695 264.374 193.487 266.88C190.093 267.04 186.767 265.515 184.25 263.021ZM272.416 346.865C263.971 341.31 255.612 335.683 247.716 329.375C234.629 318.95 226.175 306.147 216.56 292.831C209.392 282.808 201.616 273.29 194.347 263.499C190.385 258.21 185.347 252.335 181.948 246.133C185.26 247.818 189.097 249.954 192.034 247.657C194.624 245.649 194.907 243.341 194.232 240.942C197.225 242.595 200.218 244.249 203.212 245.903C204.405 246.983 205.597 248.063 206.863 249.23C206.995 249.565 207.213 249.827 207.605 249.945C211.388 253.607 215.084 257.341 218.78 261.074C218.926 261.249 219.071 261.424 219.304 261.527C228.762 271.124 238.481 280.504 250.83 286.511C252.37 287.302 254.011 287.861 255.651 288.42C256.043 288.538 256.449 288.496 256.623 288.351C256.797 288.207 256.883 288.134 257.057 287.99C259.412 284.993 259.821 281.248 260.549 277.532C275.515 285.802 290.409 293.984 305.389 302.093C307.755 307.231 310.295 312.223 313.255 317.014C305.493 325.697 296.524 333.459 287.511 340.814C285.341 342.62 283.098 344.339 280.695 346.043C277.005 348.671 276.296 349.409 272.416 346.865ZM305.694 357.361C302.25 359.932 296.292 365.485 291.501 364.143C286.478 362.698 281.681 354.994 278.217 351.363C278.072 351.188 277.926 351.013 277.853 350.926C285.049 346.86 291.428 341.106 297.532 335.729C303.376 330.568 309.234 325.247 314.568 319.475C316.623 322.65 318.838 325.84 321.299 328.973C323.046 331.072 324.836 332.692 324.497 335.639C324.259 338.354 322.265 340.902 320.706 343.089C316.603 348.576 311.048 353.201 305.694 357.361Z" stroke="#001064" stroke-width="0.8" mask="url(#path-12-outside-4)"/>
<path d="M124.364 207.924C120.835 208.499 79.7841 210.195 79.7841 208.789C79.7841 201.554 80.207 194.11 79.5392 186.924C79.0361 181.51 79.7841 176.2 79.7841 170.783C79.7841 164.493 79.7841 158.203 79.7841 151.913C79.7841 133.653 79.7841 115.393 79.7841 97.1326C79.7841 95.2207 79.5255 93.0068 79.7841 91.1088C80.1227 88.6249 88.6762 89.3117 90.0718 89.3117C99.082 89.3117 108.007 89.9107 117.015 89.9107C135.772 89.9107 154.478 88.7126 173.243 88.7126C174.9 88.7126 187.629 87.0452 187.94 88.9123C189.081 95.7611 187.957 103.226 188.92 110.145C189.443 113.907 188.864 117.856 189.274 121.66C189.711 125.723 189.7 129.824 190.117 133.908C191.091 143.436 191.863 153.053 192.839 162.596C193.977 173.728 196.377 185.319 196.377 196.542" stroke="#001064" stroke-width="3" stroke-linecap="round" stroke-linejoin="round" stroke-dasharray="10 10"/>
<path d="M227.528 103.724L221.206 92.8485L219.251 96.2237L209.795 107.876L199.08 111.586L211.603 121.095L217 132.788L223.791 121.845L238.256 113.997L237.546 111.332L227.528 103.724Z" fill="white"/>
<path d="M248.82 113.927C247.357 112.678 244.828 112.569 242.973 111.921C240.933 111.193 238.973 110.308 237.145 109.222C233.396 106.998 230.163 104.088 227.767 100.673C225.306 97.1616 223.735 93.0558 223.159 88.9419C223.145 88.7788 223.109 88.5912 223.095 88.4282C224.101 84.4115 224.52 80.2893 224.144 76.3962C223.932 74.0658 219.871 73.839 219.536 76.2052C219.457 76.7102 219.402 77.2166 219.395 77.726C219.383 77.9107 219.397 78.0737 219.434 78.2382C219.282 81.4732 219.11 84.6605 218.367 87.8822C217.461 91.8123 215.992 95.6614 214.018 99.2476C212.31 102.364 210.066 105.331 206.93 107.409C203.472 109.698 199.501 110.312 195.273 110.098C193.926 110.038 193.264 111.55 194.552 112.185C195.702 112.743 196.889 113.094 198.04 113.257C198.607 113.663 199.153 114.044 199.819 114.386C201.081 115.043 202.295 115.721 203.429 116.555C205.744 118.204 207.754 120.182 209.347 122.412C212.77 127.234 213.965 133.217 212.983 138.787C212.763 140.048 213.635 140.89 214.684 141.163C215.724 143.127 219.094 142.663 219.057 140.181C218.961 133.269 221.241 126.643 227.21 122.051C229.945 119.949 233.09 118.52 236.535 117.596C238.777 116.97 241.085 116.811 243.372 116.604C245.044 117.147 246.822 117.511 248.299 117C249.752 116.487 249.902 114.827 248.82 113.927ZM235.571 113.621C231.322 114.518 227.247 116.445 224.006 119.05C221.14 121.353 218.732 124.287 217.017 127.518C216.244 125.061 215.064 122.671 213.471 120.464C211.616 117.87 209.177 115.542 206.424 113.704C205.809 113.295 205.169 112.908 204.506 112.52C209.516 110.812 213.964 106.683 216.515 102.947C218.052 100.701 219.413 98.2124 220.568 95.6186C221.348 97.9607 222.416 100.228 223.801 102.376C226.353 106.333 230.001 109.802 234.179 112.376C234.794 112.762 235.435 113.126 236.078 113.467C235.931 113.55 235.763 113.586 235.571 113.621Z" fill="#001064"/>
</svg>
