<svg width="136" height="58" viewBox="0 0 136 58" fill="none" xmlns="http://www.w3.org/2000/svg">
<path d="M33.4237 8.05461H9.87708C8.92433 8.05461 8.13491 8.81375 8.13491 9.74159V55.3143C8.13491 56.2421 8.89711 57.0012 9.87708 57.0012H44.2578C45.2106 57.0012 46 56.2421 46 55.3143V17.6422C46 17.1924 45.8094 16.2926 45.4828 15.9833L37.3436 8.08266C37.0169 7.77338 36.5814 8.08273 36.1186 8.08273L33.4237 8.05461Z" fill="#001064"/>
<path d="M26.0115 3.16797H1.79203C0.812046 3.16797 6.10352e-05 3.86744 6.10352e-05 4.72234V46.7128C6.10352e-05 47.5677 0.784046 48.2672 1.79203 48.2672H37.1553C38.1353 48.2672 38.9473 47.5677 38.9473 46.7128V12.002C38.9473 11.5875 38.7513 11.1989 38.4153 10.9139L30.0434 3.63428C29.7075 3.34931 29.2595 3.19388 28.7835 3.19388L26.0115 3.16797Z" fill="white"/>
<path fill-rule="evenodd" clip-rule="evenodd" d="M26.1107 1H2.85171C1.3581 1 -0.000431061 2.1461 -0.000431061 3.70569V46.6606C-0.000431061 48.2092 1.31936 49.3663 2.85171 49.3663H36.8041C38.2977 49.3663 39.6562 48.2202 39.6562 46.6606V11.1525C39.6562 10.3969 39.3207 9.70982 38.7844 9.22239L30.7459 1.77494L30.7407 1.77026C30.1987 1.2805 29.4935 1.02799 28.7727 1.02651L26.1107 1ZM26.0992 3.23124L28.7606 3.25775H28.7663C28.9549 3.25775 29.1059 3.32161 29.2075 3.41167L37.2439 10.8572L37.2491 10.8619C37.3546 10.9571 37.3929 11.0629 37.3929 11.1525V46.6606C37.3929 46.8501 37.1923 47.135 36.8041 47.135H2.85171C2.44853 47.135 2.26291 46.8611 2.26291 46.6606V3.70569C2.26291 3.51621 2.46355 3.23124 2.85171 3.23124H26.0992Z" fill="#001066"/>
<path d="M30.1913 2.51562L30.1648 9.63514C30.1648 10.6085 30.9603 11.415 31.9679 11.415H39.0742" fill="#001C63"/>
<path d="M24.6991 32.9046L22.5079 26.9831C22.3589 26.5789 22.4641 26.1309 22.7972 25.8322C23.7701 24.9536 24.3573 23.6973 24.3135 22.3267C24.2258 19.8579 22.0872 17.8636 19.4753 17.8021C16.6793 17.7406 14.3917 19.8579 14.3917 22.476C14.3917 23.7939 14.9702 24.98 15.8992 25.8322C16.2235 26.1309 16.3287 26.5877 16.1797 26.9919L13.9271 32.9046C13.7694 33.3087 14.0937 33.7392 14.5494 33.7392H24.0681C24.5238 33.7305 24.8481 33.3087 24.6991 32.9046Z" fill="#001064"/>
<path d="M64.9284 22.9907C66.4388 22.9907 67.4252 22.0147 67.4252 20.6294C67.4252 19.2755 66.4388 18.268 64.9284 18.268C63.3871 18.268 62.3699 19.2755 62.3699 20.6294C62.3699 22.0147 63.3871 22.9907 64.9284 22.9907ZM62.6473 40.7166H67.3327C67.7335 40.7166 68.0109 40.5277 68.0109 40.2444V40.1184C68.0109 39.4258 66.7471 39.2998 66.7471 38.0719V25.9503C66.7471 25.4465 66.3463 25.0687 65.6374 25.415L62.5549 26.9893C62.2158 27.1782 62 27.3041 62 27.556V27.6505C62 28.2172 63.1405 28.532 63.1405 29.8229V38.0719C63.1405 39.2998 62 39.4258 62 40.1184V40.2444C62 40.5277 62.2466 40.7166 62.6473 40.7166Z" fill="#001064"/>
<path d="M98.4913 18.3625H94.8848C94.5149 18.3625 94.2683 18.5199 94.2683 18.8347V18.9292C94.2683 19.6219 95.7787 19.7478 95.378 20.9757L90.7851 35.9624L86.1305 20.9757C85.7298 19.5589 87.3327 19.5589 87.3327 18.8662V18.8032C87.3327 18.5199 87.1169 18.3625 86.747 18.3625H81.3218C80.9519 18.3625 80.7361 18.5199 80.7361 18.8032V18.8662C80.7361 19.5589 82.0308 19.7163 82.4315 20.9757L83.4795 24.1871L79.4415 35.9939L74.0163 21.0072C73.5539 19.7163 75.0643 19.6219 75.0643 18.8977V18.8032C75.0643 18.5514 74.8177 18.3625 74.417 18.3625H68.9918C68.6219 18.3625 68.3753 18.5199 68.3753 18.8032V18.8662C68.3753 19.6219 69.5158 19.5589 70.1015 21.0072L77.407 39.7091C77.6844 40.4018 78.0543 40.7166 78.7941 40.7166C79.349 40.7166 79.873 40.4018 80.1196 39.6462L84.4351 27.0523L88.6273 39.7091C88.8739 40.4018 89.3671 40.7166 90.0145 40.7166C90.631 40.7166 91.2475 40.4333 91.4941 39.6462L97.5049 20.9757C97.9673 19.5904 99.1078 19.5904 99.1078 18.8977V18.8032C99.1078 18.5514 98.8921 18.3625 98.4913 18.3625Z" fill="#001064"/>
<path d="M102.971 22.9907C104.482 22.9907 105.468 22.0147 105.468 20.6294C105.468 19.2755 104.482 18.268 102.971 18.268C101.43 18.268 100.413 19.2755 100.413 20.6294C100.413 22.0147 101.43 22.9907 102.971 22.9907ZM100.69 40.7166H105.376C105.776 40.7166 106.054 40.5277 106.054 40.2444V40.1184C106.054 39.4258 104.79 39.2998 104.79 38.0719V25.9503C104.79 25.4465 104.389 25.0687 103.68 25.415L100.598 26.9893C100.259 27.1782 100.043 27.3041 100.043 27.556V27.6505C100.043 28.2172 101.184 28.532 101.184 29.8229V38.0719C101.184 39.2998 100.043 39.4258 100.043 40.1184V40.2444C100.043 40.5277 100.29 40.7166 100.69 40.7166Z" fill="#001064"/>
<path d="M108.449 40.7166H113.135C113.535 40.7166 113.813 40.5277 113.813 40.2444V40.1499C113.813 39.4258 112.549 39.3313 112.549 38.1034V17.6383C112.549 17.166 112.148 16.7882 111.439 17.1346L108.326 18.7088C108.018 18.8662 107.802 18.9922 107.802 19.2755V19.37C107.802 19.9367 108.942 20.1886 108.942 21.5109V38.1034C108.942 39.3313 107.802 39.4258 107.802 40.1499V40.2444C107.802 40.5277 108.048 40.7166 108.449 40.7166Z" fill="#001064"/>
<path d="M116.152 40.7166H120.837C121.238 40.7166 121.516 40.5277 121.516 40.2444V40.1499C121.516 39.4258 120.252 39.3313 120.252 38.1034V17.6383C120.252 17.166 119.851 16.7882 119.142 17.1346L116.029 18.7088C115.72 18.8662 115.505 18.9922 115.505 19.2755V19.37C115.505 19.9367 116.645 20.1886 116.645 21.5109V38.1034C116.645 39.3313 115.505 39.4258 115.505 40.1499V40.2444C115.505 40.5277 115.751 40.7166 116.152 40.7166Z" fill="#001064"/>
<path d="M129.527 41C133.503 41 136 39.0794 136 36.6236C136 30.3896 127.03 33.1288 127.03 28.8469C127.03 27.493 128.109 26.4226 129.619 26.4226C132.856 26.4226 132.024 30.3896 134.181 30.3896C134.983 30.3896 135.599 29.8229 135.599 29.0358C135.599 27.2097 133.287 25.2891 129.434 25.2891C125.889 25.2891 123.393 27.2097 123.393 29.7599C123.393 36.0569 132.363 33.2547 132.363 37.5052C132.363 39.1109 131.16 39.9295 129.527 39.9295C125.92 39.9295 126.937 35.931 124.626 35.931C123.732 35.931 123.084 36.4032 123.084 37.3792C123.084 39.1109 125.489 41 129.527 41Z" fill="#001064"/>
</svg>
