<svg width="90" height="40" viewBox="0 0 90 40" fill="none" xmlns="http://www.w3.org/2000/svg">
<path d="M23.2513 5.03803H6.87116C6.20838 5.03803 5.65922 5.58027 5.65922 6.24301V38.7948C5.65922 39.4575 6.18945 39.9997 6.87116 39.9997H30.7881C31.4508 39.9997 32 39.4575 32 38.7948V11.8863C32 11.565 31.8674 10.9223 31.6402 10.7014L25.9782 5.05806C25.7509 4.83715 25.4479 5.05812 25.126 5.05812L23.2513 5.03803Z" fill="#001064"/>
<path d="M18.0945 1.54883H1.24629C0.564569 1.54883 -0.000284195 2.04844 -0.000284195 2.65909V32.6522C-0.000284195 33.2628 0.545092 33.7624 1.24629 33.7624H25.8467C26.5284 33.7624 27.0933 33.2628 27.0933 32.6522V7.8588C27.0933 7.56273 26.9569 7.28517 26.7232 7.08162L20.8993 1.88191C20.6656 1.67836 20.354 1.56733 20.0228 1.56733L18.0945 1.54883Z" fill="white"/>
<path fill-rule="evenodd" clip-rule="evenodd" d="M18.1639 0H1.98391C0.944878 0 -0.000179291 0.818639 -0.000179291 1.93263V32.6145C-0.000179291 33.7207 0.917927 34.5472 1.98391 34.5472H25.6028C26.6419 34.5472 27.5869 33.7285 27.5869 32.6145V7.25176C27.5869 6.71203 27.3535 6.22127 26.9804 5.87311L21.3884 0.553527L21.3848 0.550181C21.0078 0.200359 20.5172 0.0199912 20.0158 0.0189344L18.1639 0ZM18.156 1.59374L20.0074 1.61267H20.0113C20.1425 1.61267 20.2476 1.65828 20.3183 1.72261L25.9088 7.0408L25.9124 7.04415C25.9857 7.11221 26.0124 7.18772 26.0124 7.25176V32.6145C26.0124 32.7499 25.8728 32.9534 25.6028 32.9534H1.98391C1.70344 32.9534 1.57431 32.7577 1.57431 32.6145V1.93263C1.57431 1.79728 1.71389 1.59374 1.98391 1.59374H18.156Z" fill="#001066"/>
<path d="M21.0032 1.08301L20.9848 6.16835C20.9848 6.86361 21.5382 7.43968 22.2391 7.43968H27.1826" fill="#001C63"/>
<path d="M17.1823 22.7884L15.658 18.5588C15.5543 18.2701 15.6275 17.95 15.8592 17.7367C16.536 17.1091 16.9445 16.2117 16.914 15.2328C16.853 13.4694 15.3653 12.0449 13.5483 12.0009C11.6033 11.957 10.0119 13.4694 10.0119 15.3395C10.0119 16.2808 10.4143 17.128 11.0606 17.7367C11.2862 17.95 11.3594 18.2764 11.2558 18.565L9.68876 22.7884C9.57901 23.0771 9.80461 23.3846 10.1217 23.3846H16.7433C17.0603 23.3783 17.2859 23.0771 17.1823 22.7884Z" fill="#001064"/>
<path d="M41.9786 13.9938C42.9992 13.9938 43.6657 13.3431 43.6657 12.4196C43.6657 11.517 42.9992 10.8453 41.9786 10.8453C40.9372 10.8453 40.2499 11.517 40.2499 12.4196C40.2499 13.3431 40.9372 13.9938 41.9786 13.9938ZM40.4374 25.8111H43.6032C43.874 25.8111 44.0614 25.6852 44.0614 25.4962V25.4123C44.0614 24.9505 43.2075 24.8665 43.2075 24.0479V15.9669C43.2075 15.631 42.9367 15.3791 42.4577 15.61L40.3749 16.6595C40.1458 16.7855 40 16.8694 40 17.0373V17.1003C40 17.4781 40.7706 17.688 40.7706 18.5486V24.0479C40.7706 24.8665 40 24.9505 40 25.4123V25.4962C40 25.6852 40.1666 25.8111 40.4374 25.8111Z" fill="#001064"/>
<path d="M64.6563 10.9083H62.2195C61.9695 10.9083 61.8029 11.0133 61.8029 11.2232V11.2861C61.8029 11.7479 62.8235 11.8319 62.5527 12.6505L59.4494 22.6416L56.3044 12.6505C56.0336 11.7059 57.1167 11.7059 57.1167 11.2441V11.2022C57.1167 11.0133 56.9709 10.9083 56.7209 10.9083H53.0553C52.8053 10.9083 52.6595 11.0133 52.6595 11.2022V11.2441C52.6595 11.7059 53.5343 11.8109 53.8051 12.6505L54.5132 14.7914L51.7848 22.6626L48.1191 12.6715C47.8067 11.8109 48.8272 11.7479 48.8272 11.2651V11.2022C48.8272 11.0342 48.6606 10.9083 48.3899 10.9083H44.7242C44.4742 10.9083 44.3076 11.0133 44.3076 11.2022V11.2441C44.3076 11.7479 45.0782 11.7059 45.474 12.6715L50.4101 25.1394C50.5976 25.6012 50.8475 25.8111 51.3474 25.8111C51.7223 25.8111 52.0764 25.6012 52.243 25.0974L55.1589 16.7015L57.9914 25.1394C58.1581 25.6012 58.4913 25.8111 58.9287 25.8111C59.3452 25.8111 59.7618 25.6222 59.9284 25.0974L63.9898 12.6505C64.3022 11.7269 65.0729 11.7269 65.0729 11.2651V11.2022C65.0729 11.0342 64.9271 10.9083 64.6563 10.9083Z" fill="#001064"/>
<path d="M67.6834 13.9938C68.7039 13.9938 69.3704 13.3431 69.3704 12.4196C69.3704 11.517 68.7039 10.8453 67.6834 10.8453C66.642 10.8453 65.9547 11.517 65.9547 12.4196C65.9547 13.3431 66.642 13.9938 67.6834 13.9938ZM66.1421 25.8111H69.3079C69.5787 25.8111 69.7661 25.6852 69.7661 25.4962V25.4123C69.7661 24.9505 68.9122 24.8665 68.9122 24.0479V15.9669C68.9122 15.631 68.6414 15.3791 68.1624 15.61L66.0796 16.6595C65.8505 16.7855 65.7047 16.8694 65.7047 17.0373V17.1003C65.7047 17.4781 66.4753 17.688 66.4753 18.5486V24.0479C66.4753 24.8665 65.7047 24.9505 65.7047 25.4123V25.4962C65.7047 25.6852 65.8713 25.8111 66.1421 25.8111Z" fill="#001064"/>
<path d="M71.3845 25.8111H74.5503C74.8211 25.8111 75.0086 25.6852 75.0086 25.4962V25.4333C75.0086 24.9505 74.1546 24.8875 74.1546 24.0689V10.4255C74.1546 10.1107 73.8839 9.85881 73.4048 10.0897L71.3012 11.1392C71.0929 11.2441 70.9471 11.3281 70.9471 11.517V11.58C70.9471 11.9578 71.7178 12.1257 71.7178 13.0073V24.0689C71.7178 24.8875 70.9471 24.9505 70.9471 25.4333V25.4962C70.9471 25.6852 71.1138 25.8111 71.3845 25.8111Z" fill="#001064"/>
<path d="M76.5892 25.8111H79.755C80.0258 25.8111 80.2132 25.6852 80.2132 25.4962V25.4333C80.2132 24.9505 79.3593 24.8875 79.3593 24.0689V10.4255C79.3593 10.1107 79.0885 9.85881 78.6095 10.0897L76.5059 11.1392C76.2976 11.2441 76.1518 11.3281 76.1518 11.517V11.58C76.1518 11.9578 76.9224 12.1257 76.9224 13.0073V24.0689C76.9224 24.8875 76.1518 24.9505 76.1518 25.4333V25.4962C76.1518 25.6852 76.3184 25.8111 76.5892 25.8111Z" fill="#001064"/>
<path d="M85.6262 26C88.313 26 90 24.7196 90 23.0824C90 18.9264 83.9391 20.7525 83.9391 17.8979C83.9391 16.9954 84.6681 16.2817 85.6887 16.2817C87.8756 16.2817 87.3132 18.9264 88.7712 18.9264C89.3127 18.9264 89.7292 18.5486 89.7292 18.0239C89.7292 16.8065 88.1672 15.5261 85.5637 15.5261C83.1685 15.5261 81.4815 16.8065 81.4815 18.5066C81.4815 22.7046 87.5423 20.8365 87.5423 23.6701C87.5423 24.7406 86.73 25.2863 85.6262 25.2863C83.1893 25.2863 83.8766 22.6206 82.3146 22.6206C81.7106 22.6206 81.2732 22.9355 81.2732 23.5862C81.2732 24.7406 82.8977 26 85.6262 26Z" fill="#001064"/>
</svg>
