<svg width="46" height="57" viewBox="0 0 46 57" fill="none" xmlns="http://www.w3.org/2000/svg">
<path d="M33.4237 7.05461H9.87708C8.92433 7.05461 8.13491 7.81375 8.13491 8.74159V54.3143C8.13491 55.2421 8.89711 56.0012 9.87708 56.0012H44.2578C45.2106 56.0012 46 55.2421 46 54.3143V16.6422C46 16.1924 45.8094 15.2926 45.4828 14.9833L37.3436 7.08266C37.0169 6.77338 36.5814 7.08273 36.1186 7.08273L33.4237 7.05461Z" fill="#001064"/>
<path d="M26.0115 2.16797H1.79203C0.812046 2.16797 6.10352e-05 2.86744 6.10352e-05 3.72234V45.7128C6.10352e-05 46.5677 0.784046 47.2672 1.79203 47.2672H37.1553C38.1353 47.2672 38.9473 46.5677 38.9473 45.7128V11.002C38.9473 10.5875 38.7513 10.1989 38.4153 9.91391L30.0434 2.63428C29.7075 2.34931 29.2595 2.19388 28.7835 2.19388L26.0115 2.16797Z" fill="white"/>
<path fill-rule="evenodd" clip-rule="evenodd" d="M26.1107 0H2.85171C1.3581 0 -0.000431061 1.1461 -0.000431061 2.70569V45.6606C-0.000431061 47.2092 1.31936 48.3663 2.85171 48.3663H36.8041C38.2977 48.3663 39.6562 47.2202 39.6562 45.6606V10.1525C39.6562 9.39689 39.3207 8.70982 38.7844 8.22239L30.7459 0.774941L30.7407 0.770257C30.1987 0.280504 29.4935 0.0279877 28.7727 0.0265083L26.1107 0ZM26.0992 2.23124L28.7606 2.25775H28.7663C28.9549 2.25775 29.1059 2.32161 29.2075 2.41167L37.2439 9.85717L37.2491 9.86185C37.3546 9.95714 37.3929 10.0629 37.3929 10.1525V45.6606C37.3929 45.8501 37.1923 46.135 36.8041 46.135H2.85171C2.44853 46.135 2.26291 45.8611 2.26291 45.6606V2.70569C2.26291 2.51621 2.46355 2.23124 2.85171 2.23124H26.0992Z" fill="#001066"/>
<path d="M30.1913 1.51562L30.1648 8.63514C30.1648 9.60851 30.9603 10.415 31.9679 10.415H39.0742" fill="#001C63"/>
<path d="M24.6991 31.9046L22.5079 25.9831C22.3589 25.5789 22.4641 25.1309 22.7972 24.8322C23.7701 23.9536 24.3573 22.6973 24.3135 21.3267C24.2258 18.8579 22.0872 16.8636 19.4753 16.8021C16.6793 16.7406 14.3917 18.8579 14.3917 21.476C14.3917 22.7939 14.9702 23.98 15.8992 24.8322C16.2235 25.1309 16.3287 25.5877 16.1797 25.9919L13.9271 31.9046C13.7694 32.3087 14.0937 32.7392 14.5494 32.7392H24.0681C24.5238 32.7305 24.8481 32.3087 24.6991 31.9046Z" fill="#001064"/>
</svg>
