<svg width="32" height="40" viewBox="0 0 32 40" fill="none" xmlns="http://www.w3.org/2000/svg">
<path d="M23.2513 5.03803H6.87116C6.20838 5.03803 5.65922 5.58027 5.65922 6.24301V38.7948C5.65922 39.4575 6.18945 39.9997 6.87116 39.9997H30.7881C31.4508 39.9997 32 39.4575 32 38.7948V11.8863C32 11.565 31.8674 10.9223 31.6402 10.7014L25.9782 5.05806C25.7509 4.83715 25.4479 5.05812 25.126 5.05812L23.2513 5.03803Z" fill="#001064"/>
<path d="M18.0945 1.54883H1.24629C0.564569 1.54883 -0.000284195 2.04844 -0.000284195 2.65909V32.6522C-0.000284195 33.2628 0.545092 33.7624 1.24629 33.7624H25.8467C26.5284 33.7624 27.0933 33.2628 27.0933 32.6522V7.8588C27.0933 7.56273 26.9569 7.28517 26.7232 7.08162L20.8993 1.88191C20.6656 1.67836 20.354 1.56733 20.0228 1.56733L18.0945 1.54883Z" fill="white"/>
<path fill-rule="evenodd" clip-rule="evenodd" d="M18.1639 0H1.98391C0.944878 0 -0.000179291 0.818639 -0.000179291 1.93263V32.6145C-0.000179291 33.7207 0.917927 34.5472 1.98391 34.5472H25.6028C26.6419 34.5472 27.5869 33.7285 27.5869 32.6145V7.25176C27.5869 6.71203 27.3535 6.22127 26.9804 5.87311L21.3884 0.553527L21.3848 0.550181C21.0078 0.200359 20.5172 0.0199912 20.0158 0.0189344L18.1639 0ZM18.156 1.59374L20.0074 1.61267H20.0113C20.1425 1.61267 20.2476 1.65828 20.3183 1.72261L25.9088 7.0408L25.9124 7.04415C25.9857 7.11221 26.0124 7.18772 26.0124 7.25176V32.6145C26.0124 32.7499 25.8728 32.9534 25.6028 32.9534H1.98391C1.70344 32.9534 1.57431 32.7577 1.57431 32.6145V1.93263C1.57431 1.79728 1.71389 1.59374 1.98391 1.59374H18.156Z" fill="#001066"/>
<path d="M21.0032 1.08301L20.9848 6.16835C20.9848 6.86361 21.5382 7.43968 22.2391 7.43968H27.1826" fill="#001C63"/>
<path d="M17.1823 22.7884L15.658 18.5588C15.5543 18.2701 15.6275 17.95 15.8592 17.7367C16.536 17.1091 16.9445 16.2117 16.914 15.2328C16.853 13.4694 15.3653 12.0449 13.5483 12.0009C11.6033 11.957 10.0119 13.4694 10.0119 15.3395C10.0119 16.2808 10.4143 17.128 11.0606 17.7367C11.2862 17.95 11.3594 18.2764 11.2558 18.565L9.68876 22.7884C9.57901 23.0771 9.80461 23.3846 10.1217 23.3846H16.7433C17.0603 23.3783 17.2859 23.0771 17.1823 22.7884Z" fill="#001064"/>
</svg>
