<svg width="105" height="121" viewBox="0 0 105 121" fill="none" xmlns="http://www.w3.org/2000/svg">
<mask id="path-1-outside-1" maskUnits="userSpaceOnUse" x="7.57617" y="32.7207" width="70" height="89" fill="black">
<rect fill="white" x="7.57617" y="32.7207" width="70" height="89"/>
<path d="M14.0357 36.4696C16.9238 36.3229 19.8054 36.1571 22.6935 35.9849C24.1343 35.8956 25.5752 35.8063 27.0224 35.7106L29.1868 35.5703L31.3513 35.4236L35.6738 35.1175L39.9963 34.7922L48.6351 34.1353L52.9576 33.8227L54.0366 33.7462L54.1699 33.7398C54.2144 33.7398 54.2588 33.7335 54.3096 33.7335C54.4111 33.7271 54.5127 33.7207 54.6143 33.7207C54.8174 33.7207 55.0205 33.7271 55.2236 33.7462C56.0488 33.8164 56.8485 34.046 57.5785 34.4223C57.9466 34.6072 58.2894 34.8305 58.6131 35.0856L58.7337 35.1812L58.8416 35.2705L59.051 35.4427L59.47 35.7871L61.133 37.1839L64.459 39.9774C66.6679 41.8461 68.8767 43.7276 71.0729 45.6091L71.8981 46.3171L72.1012 46.4956L72.2027 46.5849L72.317 46.687C72.3932 46.7571 72.4693 46.8273 72.5455 46.9038C72.6153 46.9804 72.6915 47.0505 72.7613 47.127C73.3262 47.7393 73.7642 48.4664 74.0498 49.2509C74.1958 49.6399 74.2974 50.0481 74.3672 50.4563C74.3862 50.5584 74.3989 50.6604 74.4116 50.7624C74.4243 50.8645 74.437 50.9665 74.437 51.075L74.4433 51.228L74.4497 51.3046V51.3747L74.456 51.649L74.5068 53.8238C74.7797 65.438 74.8623 77.0521 75.205 88.6663C75.2875 91.5682 75.3764 94.4702 75.4843 97.3721L75.643 101.722L75.8144 106.072L75.9984 110.421L76.0492 111.512L76.0619 111.786L76.0683 111.926V112.073V112.22L76.0619 112.367L76.0556 112.513C76.0556 112.564 76.0492 112.609 76.0429 112.66C75.9857 113.432 75.7699 114.197 75.4272 114.892C74.7353 116.289 73.4912 117.399 72.0123 117.915C71.6442 118.043 71.2633 118.139 70.8761 118.196C70.7809 118.209 70.6794 118.221 70.5842 118.228C70.489 118.241 70.3874 118.241 70.2922 118.247L70.216 118.253H70.1462L70.0129 118.26L69.74 118.272L67.5755 118.355L58.9114 118.687L54.5825 118.853L50.2473 119.006C44.4712 119.21 38.6951 119.376 32.919 119.542L24.2549 119.797L19.9197 119.924L17.7553 119.988L17.2094 120.001C17.1015 120.001 16.9999 120.001 16.892 120.001L16.5746 119.982C16.1494 119.95 15.7305 119.873 15.3179 119.765C14.4991 119.535 13.7183 119.146 13.0455 118.63C12.3727 118.107 11.7951 117.456 11.3635 116.716C10.9319 115.976 10.6462 115.154 10.5256 114.299L10.4876 113.98C10.4812 113.872 10.4749 113.77 10.4685 113.661L10.4431 113.113L10.3987 112.022C10.2781 109.12 10.1702 106.218 10.0686 103.316C9.96072 100.414 9.85916 97.5124 9.76395 94.6105C9.66874 91.7086 9.56719 88.8066 9.48467 85.9047C9.30694 80.0944 9.19269 74.2841 9.09114 68.4802C8.99593 62.67 8.91976 56.8661 8.79281 51.0558L8.74203 48.881L8.69125 46.7061L8.577 42.3436C8.56431 41.5974 8.6976 40.8576 8.96419 40.1624C9.23078 39.4736 9.63066 38.8294 10.1321 38.2937C10.6335 37.7515 11.2429 37.3115 11.9094 36.9989C12.5758 36.6864 13.2994 36.5078 14.0357 36.4696ZM14.0484 36.6609C13.3375 36.6992 12.6393 36.8778 11.9982 37.1775C11.3508 37.49 10.7668 37.9174 10.2908 38.4403C9.81473 38.9633 9.43389 39.582 9.18635 40.2517C8.94515 40.915 8.83089 41.6293 8.85628 42.3372C8.91976 43.785 8.99593 45.2392 9.07209 46.687L9.18635 48.8618L9.30694 51.0367C9.63066 56.8342 10.0052 62.6317 10.3606 68.4292C10.7097 74.2267 11.0461 80.0242 11.3254 85.8281C11.465 88.7301 11.592 91.632 11.7189 94.5276C11.8522 97.4295 11.9728 100.331 12.0934 103.233C12.214 106.135 12.3283 109.037 12.4362 111.939L12.4743 113.03L12.4933 113.566C12.4997 113.642 12.4997 113.712 12.506 113.789L12.5314 114.012C12.6139 114.599 12.8107 115.173 13.1027 115.689C13.401 116.206 13.7945 116.665 14.2642 117.029C14.7339 117.399 15.2734 117.673 15.8384 117.832C16.124 117.915 16.416 117.966 16.7143 117.992L16.9364 118.005C17.0126 118.005 17.0888 118.005 17.1586 118.005L17.6918 117.998L19.8562 117.96L24.1915 117.883L32.8619 117.737C38.638 117.641 44.4204 117.533 50.1965 117.469L54.5317 117.418L58.867 117.38L67.5374 117.309L69.7019 117.29H69.9748H70.1081H70.1779H70.2414C70.3239 117.284 70.4064 117.29 70.489 117.278C70.5715 117.271 70.654 117.265 70.7365 117.258C71.0666 117.22 71.3903 117.15 71.7076 117.048C72.3424 116.844 72.9327 116.519 73.4468 116.085C73.9609 115.658 74.3862 115.122 74.7036 114.529C75.021 113.936 75.2177 113.279 75.2812 112.603C75.2875 112.558 75.2939 112.52 75.2939 112.475L75.3002 112.347L75.3066 112.22V112.092V111.965V111.831L75.3002 111.557L75.2748 110.466L75.1606 106.11L75.0336 101.754L74.894 97.3976C74.7988 94.4957 74.6972 91.5938 74.5766 88.6918C74.126 77.084 73.4214 65.489 72.9073 53.8876L72.8121 51.7128L72.7994 51.4385V51.3683L72.793 51.3109L72.7867 51.1961C72.7867 51.1196 72.774 51.0431 72.7613 50.9665C72.755 50.89 72.7423 50.8135 72.7232 50.7369C72.6661 50.4308 72.5836 50.131 72.4757 49.844C72.3678 49.557 72.2281 49.2764 72.0631 49.0149C71.8981 48.7534 71.7076 48.511 71.4982 48.2814C71.4474 48.224 71.3903 48.173 71.3395 48.1156C71.2887 48.0582 71.2252 48.0072 71.1681 47.9562L71.0793 47.8796L70.9777 47.7903L70.7682 47.6181L69.9431 46.9166C67.7342 45.0415 65.538 43.16 63.3418 41.2658L60.0603 38.4212L58.4227 36.9926L58.0164 36.6354L57.8324 36.4632L57.7308 36.3739L57.6419 36.2974C57.4007 36.0997 57.1468 35.9211 56.8676 35.768C56.3217 35.4682 55.7123 35.2705 55.0903 35.194C54.9316 35.1749 54.7793 35.1621 54.6206 35.1621C54.5444 35.1621 54.4619 35.1621 54.3857 35.1621C54.3477 35.1621 54.2969 35.1621 54.2525 35.1685L54.1192 35.1749L53.0338 35.2131L48.6985 35.3534L40.0344 35.6149L35.6992 35.7489L31.364 35.8956L29.1995 35.9721L27.0351 36.055C25.5942 36.1124 24.147 36.1698 22.7062 36.2336C19.8181 36.3675 16.9301 36.5078 14.0484 36.6609Z"/>
</mask>
<path d="M14.0357 36.4696C16.9238 36.3229 19.8054 36.1571 22.6935 35.9849C24.1343 35.8956 25.5752 35.8063 27.0224 35.7106L29.1868 35.5703L31.3513 35.4236L35.6738 35.1175L39.9963 34.7922L48.6351 34.1353L52.9576 33.8227L54.0366 33.7462L54.1699 33.7398C54.2144 33.7398 54.2588 33.7335 54.3096 33.7335C54.4111 33.7271 54.5127 33.7207 54.6143 33.7207C54.8174 33.7207 55.0205 33.7271 55.2236 33.7462C56.0488 33.8164 56.8485 34.046 57.5785 34.4223C57.9466 34.6072 58.2894 34.8305 58.6131 35.0856L58.7337 35.1812L58.8416 35.2705L59.051 35.4427L59.47 35.7871L61.133 37.1839L64.459 39.9774C66.6679 41.8461 68.8767 43.7276 71.0729 45.6091L71.8981 46.3171L72.1012 46.4956L72.2027 46.5849L72.317 46.687C72.3932 46.7571 72.4693 46.8273 72.5455 46.9038C72.6153 46.9804 72.6915 47.0505 72.7613 47.127C73.3262 47.7393 73.7642 48.4664 74.0498 49.2509C74.1958 49.6399 74.2974 50.0481 74.3672 50.4563C74.3862 50.5584 74.3989 50.6604 74.4116 50.7624C74.4243 50.8645 74.437 50.9665 74.437 51.075L74.4433 51.228L74.4497 51.3046V51.3747L74.456 51.649L74.5068 53.8238C74.7797 65.438 74.8623 77.0521 75.205 88.6663C75.2875 91.5682 75.3764 94.4702 75.4843 97.3721L75.643 101.722L75.8144 106.072L75.9984 110.421L76.0492 111.512L76.0619 111.786L76.0683 111.926V112.073V112.22L76.0619 112.367L76.0556 112.513C76.0556 112.564 76.0492 112.609 76.0429 112.66C75.9857 113.432 75.7699 114.197 75.4272 114.892C74.7353 116.289 73.4912 117.399 72.0123 117.915C71.6442 118.043 71.2633 118.139 70.8761 118.196C70.7809 118.209 70.6794 118.221 70.5842 118.228C70.489 118.241 70.3874 118.241 70.2922 118.247L70.216 118.253H70.1462L70.0129 118.26L69.74 118.272L67.5755 118.355L58.9114 118.687L54.5825 118.853L50.2473 119.006C44.4712 119.21 38.6951 119.376 32.919 119.542L24.2549 119.797L19.9197 119.924L17.7553 119.988L17.2094 120.001C17.1015 120.001 16.9999 120.001 16.892 120.001L16.5746 119.982C16.1494 119.95 15.7305 119.873 15.3179 119.765C14.4991 119.535 13.7183 119.146 13.0455 118.63C12.3727 118.107 11.7951 117.456 11.3635 116.716C10.9319 115.976 10.6462 115.154 10.5256 114.299L10.4876 113.98C10.4812 113.872 10.4749 113.77 10.4685 113.661L10.4431 113.113L10.3987 112.022C10.2781 109.12 10.1702 106.218 10.0686 103.316C9.96072 100.414 9.85916 97.5124 9.76395 94.6105C9.66874 91.7086 9.56719 88.8066 9.48467 85.9047C9.30694 80.0944 9.19269 74.2841 9.09114 68.4802C8.99593 62.67 8.91976 56.8661 8.79281 51.0558L8.74203 48.881L8.69125 46.7061L8.577 42.3436C8.56431 41.5974 8.6976 40.8576 8.96419 40.1624C9.23078 39.4736 9.63066 38.8294 10.1321 38.2937C10.6335 37.7515 11.2429 37.3115 11.9094 36.9989C12.5758 36.6864 13.2994 36.5078 14.0357 36.4696ZM14.0484 36.6609C13.3375 36.6992 12.6393 36.8778 11.9982 37.1775C11.3508 37.49 10.7668 37.9174 10.2908 38.4403C9.81473 38.9633 9.43389 39.582 9.18635 40.2517C8.94515 40.915 8.83089 41.6293 8.85628 42.3372C8.91976 43.785 8.99593 45.2392 9.07209 46.687L9.18635 48.8618L9.30694 51.0367C9.63066 56.8342 10.0052 62.6317 10.3606 68.4292C10.7097 74.2267 11.0461 80.0242 11.3254 85.8281C11.465 88.7301 11.592 91.632 11.7189 94.5276C11.8522 97.4295 11.9728 100.331 12.0934 103.233C12.214 106.135 12.3283 109.037 12.4362 111.939L12.4743 113.03L12.4933 113.566C12.4997 113.642 12.4997 113.712 12.506 113.789L12.5314 114.012C12.6139 114.599 12.8107 115.173 13.1027 115.689C13.401 116.206 13.7945 116.665 14.2642 117.029C14.7339 117.399 15.2734 117.673 15.8384 117.832C16.124 117.915 16.416 117.966 16.7143 117.992L16.9364 118.005C17.0126 118.005 17.0888 118.005 17.1586 118.005L17.6918 117.998L19.8562 117.96L24.1915 117.883L32.8619 117.737C38.638 117.641 44.4204 117.533 50.1965 117.469L54.5317 117.418L58.867 117.38L67.5374 117.309L69.7019 117.29H69.9748H70.1081H70.1779H70.2414C70.3239 117.284 70.4064 117.29 70.489 117.278C70.5715 117.271 70.654 117.265 70.7365 117.258C71.0666 117.22 71.3903 117.15 71.7076 117.048C72.3424 116.844 72.9327 116.519 73.4468 116.085C73.9609 115.658 74.3862 115.122 74.7036 114.529C75.021 113.936 75.2177 113.279 75.2812 112.603C75.2875 112.558 75.2939 112.52 75.2939 112.475L75.3002 112.347L75.3066 112.22V112.092V111.965V111.831L75.3002 111.557L75.2748 110.466L75.1606 106.11L75.0336 101.754L74.894 97.3976C74.7988 94.4957 74.6972 91.5938 74.5766 88.6918C74.126 77.084 73.4214 65.489 72.9073 53.8876L72.8121 51.7128L72.7994 51.4385V51.3683L72.793 51.3109L72.7867 51.1961C72.7867 51.1196 72.774 51.0431 72.7613 50.9665C72.755 50.89 72.7423 50.8135 72.7232 50.7369C72.6661 50.4308 72.5836 50.131 72.4757 49.844C72.3678 49.557 72.2281 49.2764 72.0631 49.0149C71.8981 48.7534 71.7076 48.511 71.4982 48.2814C71.4474 48.224 71.3903 48.173 71.3395 48.1156C71.2887 48.0582 71.2252 48.0072 71.1681 47.9562L71.0793 47.8796L70.9777 47.7903L70.7682 47.6181L69.9431 46.9166C67.7342 45.0415 65.538 43.16 63.3418 41.2658L60.0603 38.4212L58.4227 36.9926L58.0164 36.6354L57.8324 36.4632L57.7308 36.3739L57.6419 36.2974C57.4007 36.0997 57.1468 35.9211 56.8676 35.768C56.3217 35.4682 55.7123 35.2705 55.0903 35.194C54.9316 35.1749 54.7793 35.1621 54.6206 35.1621C54.5444 35.1621 54.4619 35.1621 54.3857 35.1621C54.3477 35.1621 54.2969 35.1621 54.2525 35.1685L54.1192 35.1749L53.0338 35.2131L48.6985 35.3534L40.0344 35.6149L35.6992 35.7489L31.364 35.8956L29.1995 35.9721L27.0351 36.055C25.5942 36.1124 24.147 36.1698 22.7062 36.2336C19.8181 36.3675 16.9301 36.5078 14.0484 36.6609Z" fill="#001064"/>
<path d="M14.0357 36.4696C16.9238 36.3229 19.8054 36.1571 22.6935 35.9849C24.1343 35.8956 25.5752 35.8063 27.0224 35.7106L29.1868 35.5703L31.3513 35.4236L35.6738 35.1175L39.9963 34.7922L48.6351 34.1353L52.9576 33.8227L54.0366 33.7462L54.1699 33.7398C54.2144 33.7398 54.2588 33.7335 54.3096 33.7335C54.4111 33.7271 54.5127 33.7207 54.6143 33.7207C54.8174 33.7207 55.0205 33.7271 55.2236 33.7462C56.0488 33.8164 56.8485 34.046 57.5785 34.4223C57.9466 34.6072 58.2894 34.8305 58.6131 35.0856L58.7337 35.1812L58.8416 35.2705L59.051 35.4427L59.47 35.7871L61.133 37.1839L64.459 39.9774C66.6679 41.8461 68.8767 43.7276 71.0729 45.6091L71.8981 46.3171L72.1012 46.4956L72.2027 46.5849L72.317 46.687C72.3932 46.7571 72.4693 46.8273 72.5455 46.9038C72.6153 46.9804 72.6915 47.0505 72.7613 47.127C73.3262 47.7393 73.7642 48.4664 74.0498 49.2509C74.1958 49.6399 74.2974 50.0481 74.3672 50.4563C74.3862 50.5584 74.3989 50.6604 74.4116 50.7624C74.4243 50.8645 74.437 50.9665 74.437 51.075L74.4433 51.228L74.4497 51.3046V51.3747L74.456 51.649L74.5068 53.8238C74.7797 65.438 74.8623 77.0521 75.205 88.6663C75.2875 91.5682 75.3764 94.4702 75.4843 97.3721L75.643 101.722L75.8144 106.072L75.9984 110.421L76.0492 111.512L76.0619 111.786L76.0683 111.926V112.073V112.22L76.0619 112.367L76.0556 112.513C76.0556 112.564 76.0492 112.609 76.0429 112.66C75.9857 113.432 75.7699 114.197 75.4272 114.892C74.7353 116.289 73.4912 117.399 72.0123 117.915C71.6442 118.043 71.2633 118.139 70.8761 118.196C70.7809 118.209 70.6794 118.221 70.5842 118.228C70.489 118.241 70.3874 118.241 70.2922 118.247L70.216 118.253H70.1462L70.0129 118.26L69.74 118.272L67.5755 118.355L58.9114 118.687L54.5825 118.853L50.2473 119.006C44.4712 119.21 38.6951 119.376 32.919 119.542L24.2549 119.797L19.9197 119.924L17.7553 119.988L17.2094 120.001C17.1015 120.001 16.9999 120.001 16.892 120.001L16.5746 119.982C16.1494 119.95 15.7305 119.873 15.3179 119.765C14.4991 119.535 13.7183 119.146 13.0455 118.63C12.3727 118.107 11.7951 117.456 11.3635 116.716C10.9319 115.976 10.6462 115.154 10.5256 114.299L10.4876 113.98C10.4812 113.872 10.4749 113.77 10.4685 113.661L10.4431 113.113L10.3987 112.022C10.2781 109.12 10.1702 106.218 10.0686 103.316C9.96072 100.414 9.85916 97.5124 9.76395 94.6105C9.66874 91.7086 9.56719 88.8066 9.48467 85.9047C9.30694 80.0944 9.19269 74.2841 9.09114 68.4802C8.99593 62.67 8.91976 56.8661 8.79281 51.0558L8.74203 48.881L8.69125 46.7061L8.577 42.3436C8.56431 41.5974 8.6976 40.8576 8.96419 40.1624C9.23078 39.4736 9.63066 38.8294 10.1321 38.2937C10.6335 37.7515 11.2429 37.3115 11.9094 36.9989C12.5758 36.6864 13.2994 36.5078 14.0357 36.4696ZM14.0484 36.6609C13.3375 36.6992 12.6393 36.8778 11.9982 37.1775C11.3508 37.49 10.7668 37.9174 10.2908 38.4403C9.81473 38.9633 9.43389 39.582 9.18635 40.2517C8.94515 40.915 8.83089 41.6293 8.85628 42.3372C8.91976 43.785 8.99593 45.2392 9.07209 46.687L9.18635 48.8618L9.30694 51.0367C9.63066 56.8342 10.0052 62.6317 10.3606 68.4292C10.7097 74.2267 11.0461 80.0242 11.3254 85.8281C11.465 88.7301 11.592 91.632 11.7189 94.5276C11.8522 97.4295 11.9728 100.331 12.0934 103.233C12.214 106.135 12.3283 109.037 12.4362 111.939L12.4743 113.03L12.4933 113.566C12.4997 113.642 12.4997 113.712 12.506 113.789L12.5314 114.012C12.6139 114.599 12.8107 115.173 13.1027 115.689C13.401 116.206 13.7945 116.665 14.2642 117.029C14.7339 117.399 15.2734 117.673 15.8384 117.832C16.124 117.915 16.416 117.966 16.7143 117.992L16.9364 118.005C17.0126 118.005 17.0888 118.005 17.1586 118.005L17.6918 117.998L19.8562 117.96L24.1915 117.883L32.8619 117.737C38.638 117.641 44.4204 117.533 50.1965 117.469L54.5317 117.418L58.867 117.38L67.5374 117.309L69.7019 117.29H69.9748H70.1081H70.1779H70.2414C70.3239 117.284 70.4064 117.29 70.489 117.278C70.5715 117.271 70.654 117.265 70.7365 117.258C71.0666 117.22 71.3903 117.15 71.7076 117.048C72.3424 116.844 72.9327 116.519 73.4468 116.085C73.9609 115.658 74.3862 115.122 74.7036 114.529C75.021 113.936 75.2177 113.279 75.2812 112.603C75.2875 112.558 75.2939 112.52 75.2939 112.475L75.3002 112.347L75.3066 112.22V112.092V111.965V111.831L75.3002 111.557L75.2748 110.466L75.1606 106.11L75.0336 101.754L74.894 97.3976C74.7988 94.4957 74.6972 91.5938 74.5766 88.6918C74.126 77.084 73.4214 65.489 72.9073 53.8876L72.8121 51.7128L72.7994 51.4385V51.3683L72.793 51.3109L72.7867 51.1961C72.7867 51.1196 72.774 51.0431 72.7613 50.9665C72.755 50.89 72.7423 50.8135 72.7232 50.7369C72.6661 50.4308 72.5836 50.131 72.4757 49.844C72.3678 49.557 72.2281 49.2764 72.0631 49.0149C71.8981 48.7534 71.7076 48.511 71.4982 48.2814C71.4474 48.224 71.3903 48.173 71.3395 48.1156C71.2887 48.0582 71.2252 48.0072 71.1681 47.9562L71.0793 47.8796L70.9777 47.7903L70.7682 47.6181L69.9431 46.9166C67.7342 45.0415 65.538 43.16 63.3418 41.2658L60.0603 38.4212L58.4227 36.9926L58.0164 36.6354L57.8324 36.4632L57.7308 36.3739L57.6419 36.2974C57.4007 36.0997 57.1468 35.9211 56.8676 35.768C56.3217 35.4682 55.7123 35.2705 55.0903 35.194C54.9316 35.1749 54.7793 35.1621 54.6206 35.1621C54.5444 35.1621 54.4619 35.1621 54.3857 35.1621C54.3477 35.1621 54.2969 35.1621 54.2525 35.1685L54.1192 35.1749L53.0338 35.2131L48.6985 35.3534L40.0344 35.6149L35.6992 35.7489L31.364 35.8956L29.1995 35.9721L27.0351 36.055C25.5942 36.1124 24.147 36.1698 22.7062 36.2336C19.8181 36.3675 16.9301 36.5078 14.0484 36.6609Z" stroke="#001064" stroke-width="2" mask="url(#path-1-outside-1)"/>
<path d="M54.3094 34.4551C54.4998 35.0929 54.6585 35.7307 54.8172 36.3684C54.9759 37.0062 55.1218 37.6504 55.2615 38.2946C55.5408 39.5765 55.7947 40.8649 56.0359 42.1596L56.2072 43.129C56.2644 43.4543 56.3151 43.7732 56.3723 44.0985C56.4231 44.4237 56.4802 44.7426 56.531 45.0679L56.569 45.3103L56.5817 45.3677L56.5944 45.4187L56.6135 45.5207C56.6262 45.5909 56.6389 45.6547 56.6579 45.7248L56.6833 45.8269C56.6896 45.8588 56.7023 45.8906 56.7087 45.9289C57.0007 46.994 57.6544 47.938 58.524 48.5949C58.7398 48.7607 58.9747 48.9074 59.2159 49.035C59.4571 49.1625 59.7046 49.2709 59.9649 49.3602C60.479 49.5324 61.0249 49.6153 61.5771 49.6217L61.7866 49.6153L62.0278 49.6026L62.5165 49.5834C62.8402 49.5707 63.1703 49.5579 63.494 49.5452L64.4715 49.5133L65.449 49.475C66.7565 49.4495 68.0577 49.4368 69.3716 49.4623C70.0254 49.475 70.6792 49.4878 71.3393 49.5197C71.9931 49.5452 72.6532 49.5834 73.307 49.6345C72.6659 49.7875 72.0185 49.9215 71.3774 50.049C70.7363 50.1766 70.0889 50.2914 69.4415 50.3998C68.1529 50.6167 66.8581 50.808 65.5632 50.9738L64.5921 51.1014L63.6209 51.2162C63.2972 51.2545 62.9735 51.2927 62.6498 51.3246L62.1611 51.3756L61.9199 51.4011L61.6406 51.4203C60.8916 51.4586 60.1236 51.3693 59.4 51.146C59.0382 51.0312 58.6827 50.8909 58.3463 50.7187C58.0099 50.5465 57.6862 50.3424 57.3815 50.1128C56.1692 49.1944 55.2869 47.8359 54.9632 46.3562C54.9505 46.3116 54.9441 46.2669 54.9314 46.2159L54.906 46.0756C54.887 45.9799 54.8743 45.8906 54.8616 45.795L54.8426 45.6547L54.8362 45.5845L54.8299 45.5207L54.8045 45.2784C54.7727 44.9531 54.7474 44.6278 54.7156 44.2962C54.6902 43.9709 54.6585 43.6456 54.6331 43.314L54.5569 42.3318C54.4617 41.0243 54.3856 39.7105 54.3411 38.3966C54.3221 37.7397 54.303 37.0828 54.2967 36.4195C54.2903 35.7753 54.284 35.112 54.3094 34.4551Z" fill="#001064"/>
<path d="M13.8321 37.0971L56.1771 35.1064L60.3123 38.2583L73.7106 49.5384L75.6955 108.759V112.906L72.8835 116.722L69.9061 117.717L18.2981 118.712H13.8321L10.3584 112.906L9.03516 43.5666V41.0783L10.3584 38.2583L13.8321 37.0971Z" fill="#001064"/>
<path d="M19.6474 22.9097L64.6207 20.7871L69.0126 24.1479L83.2425 36.1759L85.3506 99.3229V103.745L82.3641 107.813L79.2019 108.875L24.3906 109.936H19.6474L15.9582 103.745L14.5527 29.8081V27.1549L15.9582 24.1479L19.6474 22.9097Z" fill="white"/>
<path fill-rule="evenodd" clip-rule="evenodd" d="M41.3132 84.9286C43.3805 85.2339 45.6546 84.9439 47.9269 84.8251C49.6002 84.7427 51.2825 84.6978 52.9528 84.6519C53.7089 84.6286 54.4781 84.5941 55.222 84.4227C57.6901 83.8424 60.1861 83.9627 62.6812 84.0951C64.123 84.1651 65.5578 84.1732 66.9587 84.5951C67.1128 84.6445 67.2679 84.6818 67.423 84.7191C67.9225 84.8583 68.2419 85.1174 68.0593 85.7148C67.9399 86.1337 67.5002 86.4527 67.033 86.3651C65.9313 86.1517 64.8056 86.0833 63.692 86.0159C60.4387 85.7842 57.1918 85.9204 53.9482 86.3142C51.6137 86.5993 49.2649 86.7607 46.911 86.8359C44.2038 86.9187 41.5184 86.7339 38.8239 86.5115C37.4223 86.3959 36.0808 85.9912 34.6782 85.8877C33.8807 85.8219 33.2468 85.2428 32.6341 84.7023C30.5814 82.8792 30.4278 79.253 31.6533 77.5045C31.8061 77.2722 31.9066 77.0845 31.5973 76.8507C30.3479 75.9147 30.5993 74.6247 30.9434 73.3915C31.132 72.7211 31.5462 72.1183 32.026 71.6067C32.2392 71.3793 32.2652 71.2099 31.975 71.039C31.1973 70.5828 31.0153 69.8329 31.0951 69.0065C31.2197 67.7796 31.7079 66.7175 32.718 65.9679C33.0681 65.7028 33.4404 65.464 33.8228 65.2506C34.1549 65.0575 34.064 64.8295 33.9379 64.5864C33.6222 63.9846 33.2924 63.4062 33.0531 62.7617C32.4948 61.258 32.9282 60.718 34.1828 59.8049C35.2171 59.0573 36.404 58.9715 37.6173 59.0104C40.2875 59.0837 42.9127 59.5576 45.5549 59.8247C46.9062 59.9607 48.2214 60.2407 49.5906 60.1577C50.1655 60.1194 50.1471 59.8974 50.0712 59.4869C49.7776 57.8703 49.485 56.2415 49.1924 54.6127C48.7884 52.4112 48.7761 50.1808 48.6792 47.9435C48.6256 46.6651 48.9426 45.4664 49.2948 44.2827C49.5988 43.2422 50.3914 42.4746 51.0883 41.6869C51.4494 41.288 52.0211 41.1392 52.6345 41.3736C53.2005 41.5918 53.7395 41.8445 54.2211 42.2027C54.7027 42.5609 54.7758 43.1549 54.9273 43.6819C55.9033 47.0697 56.6428 50.5238 57.5433 53.9422C58.3144 56.8599 59.145 59.7947 60.4657 62.5373C61.1205 63.902 61.736 65.3002 62.6444 66.5389C63.0054 67.0341 63.4718 67.2809 63.9925 67.4586C65.611 68.0454 67.1854 68.7265 68.8541 69.1459C69.5218 69.3113 69.8586 69.8046 69.7251 70.2468C69.6067 70.6535 68.7796 71.0997 68.2911 70.9736C66.8389 70.5843 65.4198 70.0875 63.9606 69.7833C62.2386 69.4207 61.3654 68.1972 60.6029 66.8114C59.5428 64.8987 58.8248 62.8184 57.9298 60.8214C56.8097 58.3036 56.2532 55.5873 55.583 52.9229C55.0766 50.9335 54.396 48.991 54.0879 46.9567C53.9227 45.8528 53.6689 44.7907 53.3044 43.7439C53.0056 42.9353 52.3792 42.8591 51.8141 43.523C51.0347 44.4263 50.8224 45.5357 50.6946 46.6521C50.4162 49.1648 50.6131 51.6676 50.9559 54.1702C51.1962 55.8437 51.5482 57.4897 51.9989 59.1193C52.1403 59.6209 52.2315 60.1429 52.2985 60.6629C52.3917 61.3075 51.9966 61.8262 51.3785 61.9466C49.8454 62.2488 48.3099 62.1344 46.7864 62.0209C46.5931 62.005 46.3594 61.8877 46.2338 62.0855C46.095 62.2946 46.2352 62.5144 46.329 62.7059C46.4763 62.9875 46.6357 63.2701 46.8081 63.5416C47.392 64.435 47.2953 65.4682 46.5511 66.2397C46.4042 66.3991 46.2564 66.5706 46.0985 66.7168C45.8088 66.9869 45.8372 67.2342 46.0409 67.5695C46.6107 68.4863 46.955 69.4824 47.0739 70.5579C47.213 71.684 46.807 72.4835 45.7936 72.9756C45.4525 73.1311 45.4697 73.2183 45.6683 73.4674C46.1421 74.07 46.4901 74.7234 46.5332 75.5354C46.5905 76.4711 46.2016 77.2107 45.6365 77.8745C45.2865 78.2866 45.015 78.6317 45.0871 79.2379C45.1693 79.8694 45.0914 80.5244 44.8705 81.1431C44.6627 81.7507 44.2906 82.1364 43.6282 82.2043C41.359 82.4335 39.0836 82.4417 36.8092 82.4377C36.4689 82.4342 36.1385 82.3089 35.8162 82.2333C35.5655 82.1759 35.4294 82.0544 35.4151 81.7837C35.3997 81.5252 35.5768 81.4419 35.765 81.3716C36.5682 81.0704 37.4241 81.1656 38.2547 81.1239C39.647 81.055 41.0495 81.0115 42.4419 80.9427C42.8446 80.9269 43.2634 80.8635 43.423 80.399C43.5806 79.9587 43.3769 79.6234 43.0987 79.3065C42.7419 78.9096 42.3127 78.6537 41.8182 78.4536C39.4381 77.51 36.9774 77.5519 34.4878 77.7997C34.4022 77.8049 34.3268 77.8354 34.2543 77.8294C32.9827 77.9082 32.4267 78.6095 32.3454 79.9013C32.2651 81.1808 32.7655 82.202 33.4129 83.2109C33.6822 83.6374 34.1393 83.6996 34.5563 83.8075C36.7356 84.3793 38.9057 84.7666 41.3132 84.9286ZM41.961 71.3486C41.9571 71.3973 41.9531 71.4459 41.9491 71.4946C42.804 71.6019 43.6559 71.7457 44.5148 71.8043C45.0233 71.834 45.575 71.7816 45.817 71.2013C46.1947 70.3016 45.1602 67.7786 44.0272 67.5014C43.0735 67.2634 42.1529 66.918 41.1782 66.7885C39.6385 66.5757 38.0818 66.4228 36.5462 66.1613C35.0699 65.917 33.3108 66.7517 32.6547 68.0818C32.4367 68.517 32.4522 68.9225 32.7476 69.3266C33.3798 70.224 34.2662 70.6891 35.3285 70.789C37.5367 71.008 39.7499 71.1661 41.961 71.3486ZM44.876 75.5702C44.9705 74.4143 44.6044 73.8329 43.277 73.4048C41.3342 72.7668 39.2914 72.7574 37.2836 72.6163C36.3522 72.5516 35.4048 72.5347 34.4676 72.6901C33.7035 72.8108 33 73.0835 32.4428 73.6499C32.297 73.7971 32.1985 73.9605 32.1816 74.1673C32.0336 75.2331 33.1062 76.5465 34.15 76.2774C34.5728 76.1653 35.0319 76.2032 35.4699 76.2026C38.294 76.1784 41.049 76.5528 43.7372 77.4483C43.9507 77.5149 44.1652 77.5694 44.3089 77.2995C44.5551 76.8176 44.8254 76.3377 44.876 75.5702ZM38.8326 61.1073C38.8356 61.0708 38.8396 61.0221 38.8426 60.9856C38.2868 60.9398 37.7319 60.8817 37.1751 60.848C36.5579 60.8093 36.0012 60.9226 35.4619 61.2701C34.3954 61.966 34.4156 63.0579 35.5449 63.6778C36.6158 64.2684 37.7599 64.7058 38.9363 65.0479C40.7662 65.5786 42.6349 65.6348 44.5022 65.2622C45.3558 65.0877 45.6038 64.4344 45.142 63.6858C44.9695 63.4144 44.7327 63.1866 44.5723 62.9161C44.0519 61.9912 43.2118 61.5544 42.237 61.425C41.1082 61.2461 39.9684 61.201 38.8326 61.1073Z" fill="#001064"/>
<mask id="path-6-outside-2" maskUnits="userSpaceOnUse" x="13.502" y="18.8633" width="74" height="94" fill="black">
<rect fill="white" x="13.502" y="18.8633" width="74" height="94"/>
<path d="M20.3175 22.7914C23.3938 22.6351 26.4634 22.4585 29.5397 22.2751C31.0745 22.1799 32.6093 22.0848 34.1508 21.9829L36.4564 21.8335L38.762 21.6772L43.3663 21.3511L47.9707 21.0046L57.1727 20.3049L61.777 19.972L62.9264 19.8905L63.0684 19.8837C63.1157 19.8837 63.1631 19.8769 63.2172 19.8769C63.3253 19.8701 63.4335 19.8633 63.5417 19.8633C63.7581 19.8633 63.9744 19.8701 64.1908 19.8905C65.0697 19.9652 65.9216 20.2098 66.6992 20.6106C67.0913 20.8076 67.4564 21.0454 67.8012 21.3171L67.9297 21.419L68.0447 21.5142L68.2678 21.6976L68.714 22.0645L70.4854 23.5523L74.0283 26.5279C76.3812 28.5185 78.7341 30.5226 81.0734 32.5268L81.9524 33.2809L82.1688 33.4711L82.2769 33.5662L82.3986 33.6749C82.4798 33.7497 82.5609 33.8244 82.642 33.9059C82.7164 33.9875 82.7976 34.0622 82.8719 34.1437C83.4737 34.7959 83.9402 35.5704 84.2444 36.406C84.4 36.8204 84.5081 37.2552 84.5825 37.69C84.6028 37.7987 84.6163 37.9074 84.6298 38.0161C84.6433 38.1248 84.6569 38.2335 84.6569 38.349L84.6636 38.5121L84.6704 38.5936V38.6683L84.6772 38.9605L84.7312 41.2771C85.022 53.6485 85.1099 66.0199 85.475 78.3913C85.5629 81.4825 85.6575 84.5736 85.7725 87.6647L85.9415 92.2981L86.1241 96.9314L86.3201 101.565L86.3742 102.726L86.3877 103.019L86.3945 103.168V103.324V103.481L86.3877 103.637L86.381 103.793C86.381 103.847 86.3742 103.895 86.3675 103.949C86.3066 104.771 86.0767 105.587 85.7116 106.327C84.9746 107.815 83.6495 108.997 82.0741 109.547C81.682 109.683 81.2763 109.785 80.8639 109.846C80.7624 109.86 80.6543 109.873 80.5528 109.88C80.4514 109.894 80.3432 109.894 80.2418 109.901L80.1607 109.907H80.0863L79.9443 109.914L79.6536 109.928L77.348 110.016L68.119 110.369L63.5079 110.546L58.89 110.709C52.7373 110.926 46.5847 111.103 40.432 111.28L31.203 111.552L26.5851 111.687L24.2795 111.755L23.698 111.769C23.5831 111.769 23.4749 111.769 23.36 111.769L23.0219 111.749C22.5689 111.715 22.1227 111.633 21.6832 111.518C20.811 111.273 19.9794 110.859 19.2627 110.308C18.546 109.751 17.9308 109.058 17.471 108.27C17.0112 107.482 16.707 106.606 16.5785 105.695L16.538 105.356C16.5312 105.24 16.5244 105.131 16.5177 105.016L16.4906 104.432L16.4433 103.27C16.3148 100.179 16.1999 97.0877 16.0917 93.9965C15.9768 90.9054 15.8686 87.8142 15.7672 84.7231C15.6658 81.6319 15.5576 78.5408 15.4697 75.4496C15.2804 69.2605 15.1587 63.0714 15.0505 56.8891C14.9491 50.7 14.8679 44.5177 14.7327 38.3287L14.6786 36.012L14.6245 33.6953L14.5028 29.0484C14.4893 28.2535 14.6313 27.4655 14.9153 26.725C15.1992 25.9912 15.6252 25.3051 16.1593 24.7344C16.6935 24.1569 17.3425 23.6882 18.0525 23.3553C18.7624 23.0224 19.5332 22.8321 20.3175 22.7914ZM20.331 22.9952C19.5737 23.036 18.83 23.2262 18.1471 23.5455C17.4575 23.8784 16.8354 24.3336 16.3284 24.8906C15.8213 25.4477 15.4156 26.1067 15.1519 26.8201C14.895 27.5266 14.7733 28.2875 14.8003 29.0416C14.8679 30.5838 14.9491 32.1328 15.0302 33.6749L15.1519 35.9916L15.2804 38.3083C15.6252 44.4838 16.0241 50.6593 16.4027 56.8348C16.7746 63.0103 17.1329 69.1858 17.4304 75.3681C17.5792 78.4592 17.7144 81.5504 17.8496 84.6348C17.9916 87.7259 18.1201 90.817 18.2485 93.9082C18.377 96.9993 18.4987 100.09 18.6136 103.182L18.6542 104.343L18.6745 104.914C18.6812 104.996 18.6812 105.07 18.688 105.152L18.7151 105.39C18.8029 106.015 19.0125 106.626 19.3236 107.176C19.6413 107.727 20.0605 108.216 20.5609 108.603C21.0612 108.997 21.6359 109.289 22.2376 109.459C22.5419 109.547 22.8529 109.602 23.1707 109.629L23.4073 109.642C23.4884 109.642 23.5696 109.642 23.644 109.642L24.2119 109.636L26.5175 109.595L31.1353 109.513L40.3711 109.357C46.5238 109.255 52.6832 109.14 58.8359 109.072L63.4538 109.017L68.0717 108.977L77.3075 108.902L79.613 108.882H79.9038H80.0458H80.1201H80.1877C80.2756 108.875 80.3635 108.882 80.4514 108.868C80.5393 108.861 80.6272 108.854 80.7151 108.848C81.0667 108.807 81.4115 108.732 81.7496 108.623C82.4257 108.406 83.0545 108.06 83.6021 107.598C84.1498 107.142 84.6028 106.572 84.9408 105.94C85.2789 105.308 85.4885 104.608 85.5561 103.888C85.5629 103.841 85.5696 103.8 85.5696 103.752L85.5764 103.616L85.5832 103.481V103.345V103.209V103.066L85.5764 102.774L85.5494 101.612L85.4277 96.9722L85.2924 92.332L85.1437 87.6919C85.0423 84.6008 84.9341 81.5096 84.8056 78.4185C84.3256 66.0539 83.5751 53.7029 83.0274 41.3451L82.926 39.0284L82.9125 38.7363V38.6615L82.9057 38.6004L82.899 38.4781C82.899 38.3966 82.8854 38.3151 82.8719 38.2335C82.8652 38.152 82.8516 38.0705 82.8314 37.989C82.7705 37.6629 82.6826 37.3436 82.5677 37.0378C82.4527 36.7321 82.304 36.4332 82.1282 36.1547C81.9524 35.8761 81.7496 35.618 81.5265 35.3734C81.4724 35.3122 81.4115 35.2579 81.3574 35.1967C81.3033 35.1356 81.2357 35.0812 81.1749 35.0269L81.0802 34.9454L80.972 34.8503L80.7489 34.6668L79.87 33.9195C77.5171 31.9222 75.1777 29.918 72.8383 27.9003L69.3428 24.8703L67.5984 23.3485L67.1657 22.968L66.9696 22.7846L66.8614 22.6895L66.7668 22.6079C66.5099 22.3973 66.2394 22.2071 65.9419 22.0441C65.3605 21.7248 64.7114 21.5142 64.0488 21.4326C63.8798 21.4123 63.7175 21.3987 63.5485 21.3987C63.4673 21.3987 63.3794 21.3987 63.2983 21.3987C63.2577 21.3987 63.2036 21.3987 63.1563 21.4055L63.0143 21.4123L61.8582 21.453L57.2403 21.6025L48.0113 21.881L43.3934 22.0237L38.7755 22.1799L36.4699 22.2615L34.1644 22.3498C32.6296 22.4109 31.088 22.4721 29.5532 22.54C26.4769 22.6827 23.4006 22.8321 20.331 22.9952Z"/>
</mask>
<path d="M20.3175 22.7914C23.3938 22.6351 26.4634 22.4585 29.5397 22.2751C31.0745 22.1799 32.6093 22.0848 34.1508 21.9829L36.4564 21.8335L38.762 21.6772L43.3663 21.3511L47.9707 21.0046L57.1727 20.3049L61.777 19.972L62.9264 19.8905L63.0684 19.8837C63.1157 19.8837 63.1631 19.8769 63.2172 19.8769C63.3253 19.8701 63.4335 19.8633 63.5417 19.8633C63.7581 19.8633 63.9744 19.8701 64.1908 19.8905C65.0697 19.9652 65.9216 20.2098 66.6992 20.6106C67.0913 20.8076 67.4564 21.0454 67.8012 21.3171L67.9297 21.419L68.0447 21.5142L68.2678 21.6976L68.714 22.0645L70.4854 23.5523L74.0283 26.5279C76.3812 28.5185 78.7341 30.5226 81.0734 32.5268L81.9524 33.2809L82.1688 33.4711L82.2769 33.5662L82.3986 33.6749C82.4798 33.7497 82.5609 33.8244 82.642 33.9059C82.7164 33.9875 82.7976 34.0622 82.8719 34.1437C83.4737 34.7959 83.9402 35.5704 84.2444 36.406C84.4 36.8204 84.5081 37.2552 84.5825 37.69C84.6028 37.7987 84.6163 37.9074 84.6298 38.0161C84.6433 38.1248 84.6569 38.2335 84.6569 38.349L84.6636 38.5121L84.6704 38.5936V38.6683L84.6772 38.9605L84.7312 41.2771C85.022 53.6485 85.1099 66.0199 85.475 78.3913C85.5629 81.4825 85.6575 84.5736 85.7725 87.6647L85.9415 92.2981L86.1241 96.9314L86.3201 101.565L86.3742 102.726L86.3877 103.019L86.3945 103.168V103.324V103.481L86.3877 103.637L86.381 103.793C86.381 103.847 86.3742 103.895 86.3675 103.949C86.3066 104.771 86.0767 105.587 85.7116 106.327C84.9746 107.815 83.6495 108.997 82.0741 109.547C81.682 109.683 81.2763 109.785 80.8639 109.846C80.7624 109.86 80.6543 109.873 80.5528 109.88C80.4514 109.894 80.3432 109.894 80.2418 109.901L80.1607 109.907H80.0863L79.9443 109.914L79.6536 109.928L77.348 110.016L68.119 110.369L63.5079 110.546L58.89 110.709C52.7373 110.926 46.5847 111.103 40.432 111.28L31.203 111.552L26.5851 111.687L24.2795 111.755L23.698 111.769C23.5831 111.769 23.4749 111.769 23.36 111.769L23.0219 111.749C22.5689 111.715 22.1227 111.633 21.6832 111.518C20.811 111.273 19.9794 110.859 19.2627 110.308C18.546 109.751 17.9308 109.058 17.471 108.27C17.0112 107.482 16.707 106.606 16.5785 105.695L16.538 105.356C16.5312 105.24 16.5244 105.131 16.5177 105.016L16.4906 104.432L16.4433 103.27C16.3148 100.179 16.1999 97.0877 16.0917 93.9965C15.9768 90.9054 15.8686 87.8142 15.7672 84.7231C15.6658 81.6319 15.5576 78.5408 15.4697 75.4496C15.2804 69.2605 15.1587 63.0714 15.0505 56.8891C14.9491 50.7 14.8679 44.5177 14.7327 38.3287L14.6786 36.012L14.6245 33.6953L14.5028 29.0484C14.4893 28.2535 14.6313 27.4655 14.9153 26.725C15.1992 25.9912 15.6252 25.3051 16.1593 24.7344C16.6935 24.1569 17.3425 23.6882 18.0525 23.3553C18.7624 23.0224 19.5332 22.8321 20.3175 22.7914ZM20.331 22.9952C19.5737 23.036 18.83 23.2262 18.1471 23.5455C17.4575 23.8784 16.8354 24.3336 16.3284 24.8906C15.8213 25.4477 15.4156 26.1067 15.1519 26.8201C14.895 27.5266 14.7733 28.2875 14.8003 29.0416C14.8679 30.5838 14.9491 32.1328 15.0302 33.6749L15.1519 35.9916L15.2804 38.3083C15.6252 44.4838 16.0241 50.6593 16.4027 56.8348C16.7746 63.0103 17.1329 69.1858 17.4304 75.3681C17.5792 78.4592 17.7144 81.5504 17.8496 84.6348C17.9916 87.7259 18.1201 90.817 18.2485 93.9082C18.377 96.9993 18.4987 100.09 18.6136 103.182L18.6542 104.343L18.6745 104.914C18.6812 104.996 18.6812 105.07 18.688 105.152L18.7151 105.39C18.8029 106.015 19.0125 106.626 19.3236 107.176C19.6413 107.727 20.0605 108.216 20.5609 108.603C21.0612 108.997 21.6359 109.289 22.2376 109.459C22.5419 109.547 22.8529 109.602 23.1707 109.629L23.4073 109.642C23.4884 109.642 23.5696 109.642 23.644 109.642L24.2119 109.636L26.5175 109.595L31.1353 109.513L40.3711 109.357C46.5238 109.255 52.6832 109.14 58.8359 109.072L63.4538 109.017L68.0717 108.977L77.3075 108.902L79.613 108.882H79.9038H80.0458H80.1201H80.1877C80.2756 108.875 80.3635 108.882 80.4514 108.868C80.5393 108.861 80.6272 108.854 80.7151 108.848C81.0667 108.807 81.4115 108.732 81.7496 108.623C82.4257 108.406 83.0545 108.06 83.6021 107.598C84.1498 107.142 84.6028 106.572 84.9408 105.94C85.2789 105.308 85.4885 104.608 85.5561 103.888C85.5629 103.841 85.5696 103.8 85.5696 103.752L85.5764 103.616L85.5832 103.481V103.345V103.209V103.066L85.5764 102.774L85.5494 101.612L85.4277 96.9722L85.2924 92.332L85.1437 87.6919C85.0423 84.6008 84.9341 81.5096 84.8056 78.4185C84.3256 66.0539 83.5751 53.7029 83.0274 41.3451L82.926 39.0284L82.9125 38.7363V38.6615L82.9057 38.6004L82.899 38.4781C82.899 38.3966 82.8854 38.3151 82.8719 38.2335C82.8652 38.152 82.8516 38.0705 82.8314 37.989C82.7705 37.6629 82.6826 37.3436 82.5677 37.0378C82.4527 36.7321 82.304 36.4332 82.1282 36.1547C81.9524 35.8761 81.7496 35.618 81.5265 35.3734C81.4724 35.3122 81.4115 35.2579 81.3574 35.1967C81.3033 35.1356 81.2357 35.0812 81.1749 35.0269L81.0802 34.9454L80.972 34.8503L80.7489 34.6668L79.87 33.9195C77.5171 31.9222 75.1777 29.918 72.8383 27.9003L69.3428 24.8703L67.5984 23.3485L67.1657 22.968L66.9696 22.7846L66.8614 22.6895L66.7668 22.6079C66.5099 22.3973 66.2394 22.2071 65.9419 22.0441C65.3605 21.7248 64.7114 21.5142 64.0488 21.4326C63.8798 21.4123 63.7175 21.3987 63.5485 21.3987C63.4673 21.3987 63.3794 21.3987 63.2983 21.3987C63.2577 21.3987 63.2036 21.3987 63.1563 21.4055L63.0143 21.4123L61.8582 21.453L57.2403 21.6025L48.0113 21.881L43.3934 22.0237L38.7755 22.1799L36.4699 22.2615L34.1644 22.3498C32.6296 22.4109 31.088 22.4721 29.5532 22.54C26.4769 22.6827 23.4006 22.8321 20.331 22.9952Z" fill="#001064"/>
<path d="M20.3175 22.7914C23.3938 22.6351 26.4634 22.4585 29.5397 22.2751C31.0745 22.1799 32.6093 22.0848 34.1508 21.9829L36.4564 21.8335L38.762 21.6772L43.3663 21.3511L47.9707 21.0046L57.1727 20.3049L61.777 19.972L62.9264 19.8905L63.0684 19.8837C63.1157 19.8837 63.1631 19.8769 63.2172 19.8769C63.3253 19.8701 63.4335 19.8633 63.5417 19.8633C63.7581 19.8633 63.9744 19.8701 64.1908 19.8905C65.0697 19.9652 65.9216 20.2098 66.6992 20.6106C67.0913 20.8076 67.4564 21.0454 67.8012 21.3171L67.9297 21.419L68.0447 21.5142L68.2678 21.6976L68.714 22.0645L70.4854 23.5523L74.0283 26.5279C76.3812 28.5185 78.7341 30.5226 81.0734 32.5268L81.9524 33.2809L82.1688 33.4711L82.2769 33.5662L82.3986 33.6749C82.4798 33.7497 82.5609 33.8244 82.642 33.9059C82.7164 33.9875 82.7976 34.0622 82.8719 34.1437C83.4737 34.7959 83.9402 35.5704 84.2444 36.406C84.4 36.8204 84.5081 37.2552 84.5825 37.69C84.6028 37.7987 84.6163 37.9074 84.6298 38.0161C84.6433 38.1248 84.6569 38.2335 84.6569 38.349L84.6636 38.5121L84.6704 38.5936V38.6683L84.6772 38.9605L84.7312 41.2771C85.022 53.6485 85.1099 66.0199 85.475 78.3913C85.5629 81.4825 85.6575 84.5736 85.7725 87.6647L85.9415 92.2981L86.1241 96.9314L86.3201 101.565L86.3742 102.726L86.3877 103.019L86.3945 103.168V103.324V103.481L86.3877 103.637L86.381 103.793C86.381 103.847 86.3742 103.895 86.3675 103.949C86.3066 104.771 86.0767 105.587 85.7116 106.327C84.9746 107.815 83.6495 108.997 82.0741 109.547C81.682 109.683 81.2763 109.785 80.8639 109.846C80.7624 109.86 80.6543 109.873 80.5528 109.88C80.4514 109.894 80.3432 109.894 80.2418 109.901L80.1607 109.907H80.0863L79.9443 109.914L79.6536 109.928L77.348 110.016L68.119 110.369L63.5079 110.546L58.89 110.709C52.7373 110.926 46.5847 111.103 40.432 111.28L31.203 111.552L26.5851 111.687L24.2795 111.755L23.698 111.769C23.5831 111.769 23.4749 111.769 23.36 111.769L23.0219 111.749C22.5689 111.715 22.1227 111.633 21.6832 111.518C20.811 111.273 19.9794 110.859 19.2627 110.308C18.546 109.751 17.9308 109.058 17.471 108.27C17.0112 107.482 16.707 106.606 16.5785 105.695L16.538 105.356C16.5312 105.24 16.5244 105.131 16.5177 105.016L16.4906 104.432L16.4433 103.27C16.3148 100.179 16.1999 97.0877 16.0917 93.9965C15.9768 90.9054 15.8686 87.8142 15.7672 84.7231C15.6658 81.6319 15.5576 78.5408 15.4697 75.4496C15.2804 69.2605 15.1587 63.0714 15.0505 56.8891C14.9491 50.7 14.8679 44.5177 14.7327 38.3287L14.6786 36.012L14.6245 33.6953L14.5028 29.0484C14.4893 28.2535 14.6313 27.4655 14.9153 26.725C15.1992 25.9912 15.6252 25.3051 16.1593 24.7344C16.6935 24.1569 17.3425 23.6882 18.0525 23.3553C18.7624 23.0224 19.5332 22.8321 20.3175 22.7914ZM20.331 22.9952C19.5737 23.036 18.83 23.2262 18.1471 23.5455C17.4575 23.8784 16.8354 24.3336 16.3284 24.8906C15.8213 25.4477 15.4156 26.1067 15.1519 26.8201C14.895 27.5266 14.7733 28.2875 14.8003 29.0416C14.8679 30.5838 14.9491 32.1328 15.0302 33.6749L15.1519 35.9916L15.2804 38.3083C15.6252 44.4838 16.0241 50.6593 16.4027 56.8348C16.7746 63.0103 17.1329 69.1858 17.4304 75.3681C17.5792 78.4592 17.7144 81.5504 17.8496 84.6348C17.9916 87.7259 18.1201 90.817 18.2485 93.9082C18.377 96.9993 18.4987 100.09 18.6136 103.182L18.6542 104.343L18.6745 104.914C18.6812 104.996 18.6812 105.07 18.688 105.152L18.7151 105.39C18.8029 106.015 19.0125 106.626 19.3236 107.176C19.6413 107.727 20.0605 108.216 20.5609 108.603C21.0612 108.997 21.6359 109.289 22.2376 109.459C22.5419 109.547 22.8529 109.602 23.1707 109.629L23.4073 109.642C23.4884 109.642 23.5696 109.642 23.644 109.642L24.2119 109.636L26.5175 109.595L31.1353 109.513L40.3711 109.357C46.5238 109.255 52.6832 109.14 58.8359 109.072L63.4538 109.017L68.0717 108.977L77.3075 108.902L79.613 108.882H79.9038H80.0458H80.1201H80.1877C80.2756 108.875 80.3635 108.882 80.4514 108.868C80.5393 108.861 80.6272 108.854 80.7151 108.848C81.0667 108.807 81.4115 108.732 81.7496 108.623C82.4257 108.406 83.0545 108.06 83.6021 107.598C84.1498 107.142 84.6028 106.572 84.9408 105.94C85.2789 105.308 85.4885 104.608 85.5561 103.888C85.5629 103.841 85.5696 103.8 85.5696 103.752L85.5764 103.616L85.5832 103.481V103.345V103.209V103.066L85.5764 102.774L85.5494 101.612L85.4277 96.9722L85.2924 92.332L85.1437 87.6919C85.0423 84.6008 84.9341 81.5096 84.8056 78.4185C84.3256 66.0539 83.5751 53.7029 83.0274 41.3451L82.926 39.0284L82.9125 38.7363V38.6615L82.9057 38.6004L82.899 38.4781C82.899 38.3966 82.8854 38.3151 82.8719 38.2335C82.8652 38.152 82.8516 38.0705 82.8314 37.989C82.7705 37.6629 82.6826 37.3436 82.5677 37.0378C82.4527 36.7321 82.304 36.4332 82.1282 36.1547C81.9524 35.8761 81.7496 35.618 81.5265 35.3734C81.4724 35.3122 81.4115 35.2579 81.3574 35.1967C81.3033 35.1356 81.2357 35.0812 81.1749 35.0269L81.0802 34.9454L80.972 34.8503L80.7489 34.6668L79.87 33.9195C77.5171 31.9222 75.1777 29.918 72.8383 27.9003L69.3428 24.8703L67.5984 23.3485L67.1657 22.968L66.9696 22.7846L66.8614 22.6895L66.7668 22.6079C66.5099 22.3973 66.2394 22.2071 65.9419 22.0441C65.3605 21.7248 64.7114 21.5142 64.0488 21.4326C63.8798 21.4123 63.7175 21.3987 63.5485 21.3987C63.4673 21.3987 63.3794 21.3987 63.2983 21.3987C63.2577 21.3987 63.2036 21.3987 63.1563 21.4055L63.0143 21.4123L61.8582 21.453L57.2403 21.6025L48.0113 21.881L43.3934 22.0237L38.7755 22.1799L36.4699 22.2615L34.1644 22.3498C32.6296 22.4109 31.088 22.4721 29.5532 22.54C26.4769 22.6827 23.4006 22.8321 20.331 22.9952Z" stroke="#001064" stroke-width="2" mask="url(#path-6-outside-2)"/>
<path d="M63.2168 20.6455C63.4197 21.3249 63.5887 22.0043 63.7577 22.6836C63.9268 23.363 64.0823 24.0492 64.231 24.7353C64.5285 26.1009 64.799 27.4732 65.0559 28.8523L65.2384 29.885C65.2993 30.2315 65.3534 30.5712 65.4142 30.9176C65.4683 31.2641 65.5292 31.6038 65.5833 31.9503L65.6238 32.2084L65.6373 32.2696L65.6509 32.3239L65.6711 32.4326C65.6847 32.5074 65.6982 32.5753 65.7185 32.65L65.7455 32.7587C65.7523 32.7927 65.7658 32.8267 65.7726 32.8674C66.0836 34.002 66.78 35.0075 67.7063 35.7072C67.9361 35.8839 68.1863 36.0401 68.4432 36.176C68.7002 36.3119 68.9638 36.4274 69.2411 36.5225C69.7887 36.7059 70.3702 36.7942 70.9584 36.801L71.1815 36.7942L71.4384 36.7806L71.9591 36.7602C72.3039 36.7467 72.6555 36.7331 73.0003 36.7195L74.0415 36.6855L75.0827 36.6448C76.4755 36.6176 77.8616 36.604 79.2611 36.6312C79.9575 36.6448 80.6539 36.6583 81.3571 36.6923C82.0535 36.7195 82.7567 36.7602 83.4531 36.8146C82.7702 36.9776 82.0806 37.1203 81.3977 37.2562C80.7148 37.3921 80.0251 37.5144 79.3355 37.6298C77.963 37.8608 76.5837 38.0646 75.2044 38.2413L74.17 38.3772L73.1355 38.4994C72.7907 38.5402 72.4459 38.581 72.101 38.6149L71.5804 38.6693L71.3235 38.6965L71.026 38.7168C70.2282 38.7576 69.4101 38.6625 68.6393 38.4247C68.2539 38.3024 67.8753 38.153 67.5169 37.9695C67.1586 37.7861 66.8138 37.5687 66.4893 37.3241C65.1979 36.3458 64.2581 34.8988 63.9132 33.3226C63.8997 33.2751 63.893 33.2275 63.8794 33.1732L63.8524 33.0237C63.8321 32.9218 63.8186 32.8267 63.8051 32.7248L63.7848 32.5753L63.778 32.5006L63.7713 32.4326L63.7442 32.1745C63.7104 31.828 63.6834 31.4815 63.6496 31.1282C63.6225 30.7818 63.5887 30.4353 63.5617 30.082L63.4805 29.0358C63.3791 27.6431 63.298 26.2435 63.2506 24.844C63.2304 24.1443 63.2101 23.4445 63.2033 22.738C63.1966 22.0518 63.1898 21.3453 63.2168 20.6455Z" fill="#001064"/>
<ellipse cx="17.7981" cy="26.3558" rx="17.4949" ry="17.5779" transform="rotate(-0.9971 17.7981 26.3558)" fill="#E9FAF4"/>
<path d="M23.6371 21.6547L22.6952 21.6712L22.6624 19.7784C22.6172 17.1665 20.4707 15.0835 17.871 15.129C15.2714 15.1744 13.1983 17.3312 13.2436 19.9431L13.2764 21.8359L12.3345 21.8523C11.2984 21.8705 10.4654 22.737 10.4835 23.778L10.6474 33.2416C10.6654 34.2826 11.5279 35.1195 12.564 35.1014L23.8666 34.9038C24.9027 34.8857 25.7356 34.0191 25.7176 32.9781L25.5537 23.5145C25.5356 22.4735 24.6732 21.6366 23.6371 21.6547ZM18.1333 30.2708C17.0973 30.2889 16.2348 29.452 16.2168 28.411C16.1987 27.37 17.0317 26.5034 18.0678 26.4853C19.1038 26.4672 19.9663 27.3041 19.9843 28.3451C20.0024 29.3861 19.1694 30.2527 18.1333 30.2708ZM20.9056 21.7025L15.0659 21.8046L15.0332 19.9118C15.0051 18.2936 16.2916 16.9552 17.9022 16.9271C19.5128 16.8989 20.8448 18.1914 20.8729 19.8097L20.9056 21.7025Z" fill="#001064"/>
<path d="M39.1517 15.9194L35.5293 12.2373L35.0999 13.7837L32.5449 19.4011L28.6761 21.9835L34.6177 24.4822L37.9574 28.5851L39.5282 23.5252L44.4598 18.9073L43.9049 17.9184L39.1517 15.9194Z" fill="#FEF6E7"/>
<path d="M48.6427 17.7908C47.9344 17.444 46.9205 17.661 46.1182 17.5943C45.2344 17.5144 44.3666 17.3636 43.53 17.1193C41.8153 16.6196 40.2348 15.7931 38.9344 14.6792C37.5982 13.5336 36.5538 12.0595 35.9034 10.4796C35.8813 10.4161 35.8478 10.345 35.8257 10.2814C35.8125 8.57735 35.5561 6.89156 35.0076 5.37907C34.6845 4.47234 33.0506 4.80046 33.1604 5.77786C33.1811 5.98717 33.2112 6.19462 33.2604 6.39836C33.2749 6.47312 33.297 6.53669 33.3287 6.5984C33.6003 7.90304 33.8588 9.19085 33.8944 10.5512C33.9385 12.2105 33.7507 13.8956 33.3356 15.528C32.9778 16.9456 32.3922 18.3591 31.3613 19.5103C30.2248 20.7791 28.7129 21.4325 27.0143 21.783C26.4741 21.898 26.3667 22.5686 26.9426 22.6891C27.4559 22.7927 27.9626 22.8103 28.4358 22.7569C28.7024 22.8601 28.9577 22.9558 29.2569 23.0235C29.825 23.1552 30.3759 23.2999 30.911 23.5157C31.9982 23.9341 32.9984 24.5149 33.8586 25.2394C35.7107 26.8081 36.7984 29.0689 36.98 31.3898C37.0222 31.915 37.4544 32.1604 37.8986 32.1611C38.5125 32.8366 39.801 32.3043 39.5319 31.3192C38.7851 28.575 39.0095 25.6998 40.9057 23.255C41.775 22.1353 42.8754 21.2421 44.1469 20.5191C44.9718 20.0383 45.8708 19.7371 46.7566 19.419C47.4756 19.4631 48.2182 19.425 48.7514 19.069C49.275 18.7148 49.1641 18.0382 48.6427 17.7908ZM43.357 19.0343C41.764 19.8296 40.3455 21.0176 39.3275 22.3893C38.427 23.6024 37.773 25.0195 37.4242 26.4839C36.8657 25.5842 36.1527 24.7535 35.2944 24.0384C34.293 23.1959 33.0868 22.5195 31.8063 22.0709C31.5206 21.9714 31.2273 21.8831 30.9245 21.7967C32.736 20.6 34.0764 18.4963 34.7053 16.7447C35.0841 15.6914 35.3688 14.5596 35.5608 13.407C36.1103 14.2599 36.7667 15.0532 37.5358 15.7663C38.9539 17.0803 40.7565 18.0865 42.6772 18.6819C42.961 18.772 43.2526 18.851 43.5423 18.9206C43.4924 18.9691 43.4295 19.0007 43.357 19.0343Z" fill="#001064"/>
<path d="M93.7811 51.1644L90.8749 46.1409L89.976 47.6999L85.6288 53.0822L80.7029 54.7958L86.46 59.1883L88.9413 64.5892L92.0631 59.5349L98.7131 55.9096L98.3868 54.6785L93.7811 51.1644Z" fill="#FEF6E7"/>
<path d="M103.57 55.8765C102.897 55.2997 101.735 55.2492 100.882 54.9502C99.9437 54.6139 99.0429 54.205 98.2022 53.7034C96.4788 52.6763 94.9927 51.332 93.8912 49.7546C92.7597 48.1326 92.0372 46.2361 91.7724 44.3358C91.7661 44.2605 91.7496 44.1738 91.7433 44.0985C92.2056 42.2432 92.3984 40.3391 92.2254 38.5408C92.128 37.4644 90.2609 37.3596 90.1068 38.4526C90.0708 38.6859 90.0455 38.9198 90.042 39.1551C90.0368 39.2404 90.0431 39.3157 90.0602 39.3917C89.9904 40.8859 89.9111 42.3582 89.5695 43.8463C89.1533 45.6617 88.478 47.4396 87.5704 49.0961C86.7852 50.5354 85.7536 51.906 84.3115 52.8658C82.7218 53.9235 80.8963 54.2066 78.9527 54.1079C78.3335 54.0803 78.0293 54.7786 78.6213 55.0721C79.1501 55.3296 79.6957 55.4918 80.2248 55.5673C80.4856 55.7547 80.7362 55.9308 81.0424 56.0889C81.6229 56.3924 82.181 56.7052 82.702 57.0907C83.7664 57.8523 84.6907 58.7657 85.4227 59.7958C86.9964 62.0232 87.546 64.7867 87.0942 67.3599C86.9932 67.9424 87.3942 68.3311 87.8766 68.4573C88.3547 69.3646 89.9037 69.1499 89.8868 68.0036C89.8427 64.811 90.8907 61.7503 93.6348 59.6293C94.8924 58.6581 96.338 57.9982 97.9217 57.5716C98.9524 57.2821 100.013 57.2086 101.065 57.1131C101.834 57.364 102.651 57.5323 103.33 57.296C103.998 57.059 104.067 56.2926 103.57 55.8765ZM97.4787 55.7353C95.5254 56.1497 93.6518 57.04 92.1621 58.243C90.8443 59.3069 89.7375 60.6621 88.9489 62.1547C88.5937 61.0195 88.0513 59.9155 87.3186 58.8962C86.4662 57.6981 85.3448 56.6226 84.0789 55.7736C83.7964 55.5849 83.5023 55.4061 83.1974 55.2267C85.5005 54.4379 87.5452 52.5306 88.7184 50.8048C89.4246 49.7674 90.0505 48.618 90.5814 47.4198C90.9399 48.5017 91.4312 49.549 92.0676 50.541C93.2409 52.369 94.9181 53.9713 96.8386 55.1605C97.1217 55.3385 97.4164 55.5066 97.7118 55.664C97.644 55.7027 97.5668 55.7193 97.4787 55.7353Z" fill="#001064"/>
<path d="M66.043 85.4541C70.4298 86.147 78.6854 89.1494 85.1216 92.8447" stroke="#001064" stroke-width="2" stroke-linecap="round"/>
<path d="M68.5703 69.9805C72.7078 71.0583 81.7185 73.3062 84.6607 73.6758" stroke="#001064" stroke-width="2" stroke-linecap="round"/>
</svg>
