<svg width="165" height="201" viewBox="0 0 165 201" fill="none" xmlns="http://www.w3.org/2000/svg">
<mask id="path-1-outside-1" maskUnits="userSpaceOnUse" x="12.4785" y="55.1992" width="108" height="146" fill="black">
<rect fill="white" x="12.4785" y="55.1992" width="108" height="146"/>
<path d="M22.0578 60.7807C26.5962 60.5362 31.1246 60.2598 35.6629 59.9728C37.9271 59.824 40.1913 59.6752 42.4655 59.5157L45.8668 59.2819L49.268 59.0374L56.0606 58.5272L62.8532 57.985L76.4284 56.8902L83.221 56.3693L84.9166 56.2417L85.1261 56.2311C85.1959 56.2311 85.2657 56.2205 85.3455 56.2205C85.5051 56.2098 85.6647 56.1992 85.8243 56.1992C86.1435 56.1992 86.4626 56.2098 86.7818 56.2417C88.0785 56.3587 89.3353 56.7413 90.4823 57.3685C91.0608 57.6768 91.5995 58.0488 92.1082 58.474L92.2977 58.6334L92.4672 58.7823L92.7964 59.0693L93.4547 59.6433L96.068 61.9712L101.295 66.6271C104.766 69.7416 108.237 72.8774 111.688 76.0132L112.985 77.1931L113.304 77.4908L113.463 77.6396L113.643 77.8097C113.763 77.9266 113.882 78.0435 114.002 78.1711C114.112 78.2986 114.231 78.4156 114.341 78.5431C115.229 79.5636 115.917 80.7754 116.366 82.0829C116.595 82.7313 116.755 83.4116 116.865 84.0919C116.895 84.262 116.915 84.432 116.934 84.6021C116.954 84.7722 116.974 84.9423 116.974 85.123L116.984 85.3781L116.994 85.5057V85.6226L117.004 86.0797L117.084 89.7044C117.513 109.061 117.643 128.418 118.181 147.775C118.311 152.612 118.451 157.448 118.62 162.285L118.87 169.534L119.139 176.784L119.428 184.034L119.508 185.851L119.528 186.308L119.538 186.542V186.787V187.031L119.528 187.276L119.518 187.52C119.518 187.605 119.508 187.68 119.498 187.765C119.408 189.051 119.069 190.326 118.53 191.485C117.443 193.813 115.488 195.663 113.164 196.524C112.586 196.736 111.987 196.896 111.379 196.991C111.229 197.013 111.07 197.034 110.92 197.044C110.77 197.066 110.611 197.066 110.461 197.076L110.341 197.087H110.232L110.022 197.098L109.593 197.119L106.192 197.257L92.577 197.81L85.7744 198.086L78.9619 198.341C69.8852 198.681 60.8084 198.958 51.7317 199.234L38.1166 199.659L31.3041 199.872L27.9028 199.978L27.045 200C26.8755 200 26.7159 200 26.5463 200L26.0476 199.968C25.3793 199.914 24.721 199.787 24.0727 199.606C22.786 199.224 21.5591 198.575 20.5018 197.714C19.4445 196.842 18.5368 195.758 17.8586 194.525C17.1803 193.292 16.7315 191.921 16.542 190.496L16.4821 189.965C16.4721 189.784 16.4622 189.614 16.4522 189.433L16.4123 188.519L16.3425 186.702C16.153 181.865 15.9834 177.028 15.8238 172.192C15.6542 167.355 15.4947 162.519 15.345 157.682C15.1954 152.846 15.0358 148.009 14.9062 143.172C14.6269 133.489 14.4473 123.805 14.2877 114.132C14.1381 104.448 14.0184 94.7749 13.8189 85.0911L13.7392 81.4663L13.6594 77.8415L13.4798 70.5707C13.4599 69.3271 13.6693 68.094 14.0883 66.9353C14.5072 65.7873 15.1356 64.7137 15.9236 63.8208C16.7115 62.9173 17.6691 62.1838 18.7164 61.663C19.7637 61.1421 20.9008 60.8445 22.0578 60.7807ZM22.0778 61.0996C20.9606 61.1633 19.8634 61.461 18.856 61.9606C17.8386 62.4814 16.921 63.1936 16.1729 64.0653C15.4248 64.9369 14.8264 65.968 14.4374 67.0842C14.0583 68.1897 13.8788 69.3802 13.9187 70.5601C14.0184 72.9731 14.1381 75.3967 14.2578 77.8097L14.4374 81.4344L14.6269 85.0592C15.1356 94.7217 15.7241 104.384 16.2826 114.047C16.8312 123.709 17.3599 133.372 17.7987 143.045C18.0182 147.881 18.2177 152.718 18.4172 157.544C18.6266 162.381 18.8161 167.217 19.0056 172.054C19.1952 176.89 19.3747 181.727 19.5443 186.563L19.6041 188.381L19.634 189.274C19.644 189.402 19.644 189.519 19.654 189.646L19.6939 190.018C19.8235 190.996 20.1328 191.953 20.5916 192.814C21.0604 193.675 21.6788 194.44 22.4169 195.046C23.155 195.663 24.0028 196.12 24.8906 196.385C25.3394 196.524 25.7982 196.609 26.267 196.651L26.6161 196.672C26.7358 196.672 26.8555 196.672 26.9652 196.672L27.8031 196.662L31.2044 196.598L38.0169 196.47L51.6419 196.226C60.7187 196.066 69.8054 195.886 78.8821 195.779L85.6946 195.694L92.5071 195.631L106.132 195.514L109.533 195.482H109.962H110.172H110.282H110.381C110.511 195.471 110.641 195.482 110.77 195.461C110.9 195.45 111.03 195.439 111.159 195.429C111.678 195.365 112.187 195.248 112.685 195.078C113.683 194.738 114.61 194.196 115.418 193.473C116.226 192.761 116.895 191.868 117.393 190.879C117.892 189.891 118.201 188.796 118.301 187.669C118.311 187.595 118.321 187.531 118.321 187.456L118.331 187.244L118.341 187.031V186.819V186.606V186.383L118.331 185.926L118.291 184.108L118.111 176.848L117.912 169.588L117.693 162.327C117.543 157.491 117.383 152.654 117.194 147.818C116.486 128.471 115.378 109.146 114.571 89.8107L114.421 86.186L114.401 85.7289V85.612L114.391 85.5163L114.381 85.3249C114.381 85.1974 114.361 85.0698 114.341 84.9423C114.331 84.8147 114.311 84.6872 114.281 84.5596C114.192 84.0494 114.062 83.5498 113.892 83.0714C113.723 82.5931 113.503 82.1254 113.244 81.6895C112.985 81.2537 112.685 80.8498 112.356 80.4671C112.276 80.3714 112.187 80.2864 112.107 80.1907C112.027 80.0951 111.927 80.01 111.838 79.925L111.698 79.7974L111.538 79.6486L111.209 79.3616L109.912 78.1923C106.441 75.0672 102.99 71.9314 99.5391 68.7743L94.3823 64.0334L91.8089 61.6523L91.1706 61.0571L90.8813 60.77L90.7217 60.6212L90.5821 60.4937C90.203 60.1641 89.8041 59.8665 89.3652 59.6114C88.5074 59.1118 87.5499 58.7823 86.5724 58.6547C86.323 58.6228 86.0836 58.6016 85.8343 58.6016C85.7146 58.6016 85.5849 58.6016 85.4652 58.6016C85.4053 58.6016 85.3256 58.6016 85.2557 58.6122L85.0463 58.6228L83.3406 58.6866L76.5281 58.9205L62.913 59.3563L56.1005 59.5795L49.288 59.824L45.8867 59.9515L42.4854 60.0897C40.2212 60.1854 37.9471 60.2811 35.6829 60.3874C31.1445 60.6106 26.6062 60.8445 22.0778 61.0996Z"/>
</mask>
<path d="M22.0578 60.7807C26.5962 60.5362 31.1246 60.2598 35.6629 59.9728C37.9271 59.824 40.1913 59.6752 42.4655 59.5157L45.8668 59.2819L49.268 59.0374L56.0606 58.5272L62.8532 57.985L76.4284 56.8902L83.221 56.3693L84.9166 56.2417L85.1261 56.2311C85.1959 56.2311 85.2657 56.2205 85.3455 56.2205C85.5051 56.2098 85.6647 56.1992 85.8243 56.1992C86.1435 56.1992 86.4626 56.2098 86.7818 56.2417C88.0785 56.3587 89.3353 56.7413 90.4823 57.3685C91.0608 57.6768 91.5995 58.0488 92.1082 58.474L92.2977 58.6334L92.4672 58.7823L92.7964 59.0693L93.4547 59.6433L96.068 61.9712L101.295 66.6271C104.766 69.7416 108.237 72.8774 111.688 76.0132L112.985 77.1931L113.304 77.4908L113.463 77.6396L113.643 77.8097C113.763 77.9266 113.882 78.0435 114.002 78.1711C114.112 78.2986 114.231 78.4156 114.341 78.5431C115.229 79.5636 115.917 80.7754 116.366 82.0829C116.595 82.7313 116.755 83.4116 116.865 84.0919C116.895 84.262 116.915 84.432 116.934 84.6021C116.954 84.7722 116.974 84.9423 116.974 85.123L116.984 85.3781L116.994 85.5057V85.6226L117.004 86.0797L117.084 89.7044C117.513 109.061 117.643 128.418 118.181 147.775C118.311 152.612 118.451 157.448 118.62 162.285L118.87 169.534L119.139 176.784L119.428 184.034L119.508 185.851L119.528 186.308L119.538 186.542V186.787V187.031L119.528 187.276L119.518 187.52C119.518 187.605 119.508 187.68 119.498 187.765C119.408 189.051 119.069 190.326 118.53 191.485C117.443 193.813 115.488 195.663 113.164 196.524C112.586 196.736 111.987 196.896 111.379 196.991C111.229 197.013 111.07 197.034 110.92 197.044C110.77 197.066 110.611 197.066 110.461 197.076L110.341 197.087H110.232L110.022 197.098L109.593 197.119L106.192 197.257L92.577 197.81L85.7744 198.086L78.9619 198.341C69.8852 198.681 60.8084 198.958 51.7317 199.234L38.1166 199.659L31.3041 199.872L27.9028 199.978L27.045 200C26.8755 200 26.7159 200 26.5463 200L26.0476 199.968C25.3793 199.914 24.721 199.787 24.0727 199.606C22.786 199.224 21.5591 198.575 20.5018 197.714C19.4445 196.842 18.5368 195.758 17.8586 194.525C17.1803 193.292 16.7315 191.921 16.542 190.496L16.4821 189.965C16.4721 189.784 16.4622 189.614 16.4522 189.433L16.4123 188.519L16.3425 186.702C16.153 181.865 15.9834 177.028 15.8238 172.192C15.6542 167.355 15.4947 162.519 15.345 157.682C15.1954 152.846 15.0358 148.009 14.9062 143.172C14.6269 133.489 14.4473 123.805 14.2877 114.132C14.1381 104.448 14.0184 94.7749 13.8189 85.0911L13.7392 81.4663L13.6594 77.8415L13.4798 70.5707C13.4599 69.3271 13.6693 68.094 14.0883 66.9353C14.5072 65.7873 15.1356 64.7137 15.9236 63.8208C16.7115 62.9173 17.6691 62.1838 18.7164 61.663C19.7637 61.1421 20.9008 60.8445 22.0578 60.7807ZM22.0778 61.0996C20.9606 61.1633 19.8634 61.461 18.856 61.9606C17.8386 62.4814 16.921 63.1936 16.1729 64.0653C15.4248 64.9369 14.8264 65.968 14.4374 67.0842C14.0583 68.1897 13.8788 69.3802 13.9187 70.5601C14.0184 72.9731 14.1381 75.3967 14.2578 77.8097L14.4374 81.4344L14.6269 85.0592C15.1356 94.7217 15.7241 104.384 16.2826 114.047C16.8312 123.709 17.3599 133.372 17.7987 143.045C18.0182 147.881 18.2177 152.718 18.4172 157.544C18.6266 162.381 18.8161 167.217 19.0056 172.054C19.1952 176.89 19.3747 181.727 19.5443 186.563L19.6041 188.381L19.634 189.274C19.644 189.402 19.644 189.519 19.654 189.646L19.6939 190.018C19.8235 190.996 20.1328 191.953 20.5916 192.814C21.0604 193.675 21.6788 194.44 22.4169 195.046C23.155 195.663 24.0028 196.12 24.8906 196.385C25.3394 196.524 25.7982 196.609 26.267 196.651L26.6161 196.672C26.7358 196.672 26.8555 196.672 26.9652 196.672L27.8031 196.662L31.2044 196.598L38.0169 196.47L51.6419 196.226C60.7187 196.066 69.8054 195.886 78.8821 195.779L85.6946 195.694L92.5071 195.631L106.132 195.514L109.533 195.482H109.962H110.172H110.282H110.381C110.511 195.471 110.641 195.482 110.77 195.461C110.9 195.45 111.03 195.439 111.159 195.429C111.678 195.365 112.187 195.248 112.685 195.078C113.683 194.738 114.61 194.196 115.418 193.473C116.226 192.761 116.895 191.868 117.393 190.879C117.892 189.891 118.201 188.796 118.301 187.669C118.311 187.595 118.321 187.531 118.321 187.456L118.331 187.244L118.341 187.031V186.819V186.606V186.383L118.331 185.926L118.291 184.108L118.111 176.848L117.912 169.588L117.693 162.327C117.543 157.491 117.383 152.654 117.194 147.818C116.486 128.471 115.378 109.146 114.571 89.8107L114.421 86.186L114.401 85.7289V85.612L114.391 85.5163L114.381 85.3249C114.381 85.1974 114.361 85.0698 114.341 84.9423C114.331 84.8147 114.311 84.6872 114.281 84.5596C114.192 84.0494 114.062 83.5498 113.892 83.0714C113.723 82.5931 113.503 82.1254 113.244 81.6895C112.985 81.2537 112.685 80.8498 112.356 80.4671C112.276 80.3714 112.187 80.2864 112.107 80.1907C112.027 80.0951 111.927 80.01 111.838 79.925L111.698 79.7974L111.538 79.6486L111.209 79.3616L109.912 78.1923C106.441 75.0672 102.99 71.9314 99.5391 68.7743L94.3823 64.0334L91.8089 61.6523L91.1706 61.0571L90.8813 60.77L90.7217 60.6212L90.5821 60.4937C90.203 60.1641 89.8041 59.8665 89.3652 59.6114C88.5074 59.1118 87.5499 58.7823 86.5724 58.6547C86.323 58.6228 86.0836 58.6016 85.8343 58.6016C85.7146 58.6016 85.5849 58.6016 85.4652 58.6016C85.4053 58.6016 85.3256 58.6016 85.2557 58.6122L85.0463 58.6228L83.3406 58.6866L76.5281 58.9205L62.913 59.3563L56.1005 59.5795L49.288 59.824L45.8867 59.9515L42.4854 60.0897C40.2212 60.1854 37.9471 60.2811 35.6829 60.3874C31.1445 60.6106 26.6062 60.8445 22.0778 61.0996Z" fill="#001064"/>
<path d="M22.0578 60.7807C26.5962 60.5362 31.1246 60.2598 35.6629 59.9728C37.9271 59.824 40.1913 59.6752 42.4655 59.5157L45.8668 59.2819L49.268 59.0374L56.0606 58.5272L62.8532 57.985L76.4284 56.8902L83.221 56.3693L84.9166 56.2417L85.1261 56.2311C85.1959 56.2311 85.2657 56.2205 85.3455 56.2205C85.5051 56.2098 85.6647 56.1992 85.8243 56.1992C86.1435 56.1992 86.4626 56.2098 86.7818 56.2417C88.0785 56.3587 89.3353 56.7413 90.4823 57.3685C91.0608 57.6768 91.5995 58.0488 92.1082 58.474L92.2977 58.6334L92.4672 58.7823L92.7964 59.0693L93.4547 59.6433L96.068 61.9712L101.295 66.6271C104.766 69.7416 108.237 72.8774 111.688 76.0132L112.985 77.1931L113.304 77.4908L113.463 77.6396L113.643 77.8097C113.763 77.9266 113.882 78.0435 114.002 78.1711C114.112 78.2986 114.231 78.4156 114.341 78.5431C115.229 79.5636 115.917 80.7754 116.366 82.0829C116.595 82.7313 116.755 83.4116 116.865 84.0919C116.895 84.262 116.915 84.432 116.934 84.6021C116.954 84.7722 116.974 84.9423 116.974 85.123L116.984 85.3781L116.994 85.5057V85.6226L117.004 86.0797L117.084 89.7044C117.513 109.061 117.643 128.418 118.181 147.775C118.311 152.612 118.451 157.448 118.62 162.285L118.87 169.534L119.139 176.784L119.428 184.034L119.508 185.851L119.528 186.308L119.538 186.542V186.787V187.031L119.528 187.276L119.518 187.52C119.518 187.605 119.508 187.68 119.498 187.765C119.408 189.051 119.069 190.326 118.53 191.485C117.443 193.813 115.488 195.663 113.164 196.524C112.586 196.736 111.987 196.896 111.379 196.991C111.229 197.013 111.07 197.034 110.92 197.044C110.77 197.066 110.611 197.066 110.461 197.076L110.341 197.087H110.232L110.022 197.098L109.593 197.119L106.192 197.257L92.577 197.81L85.7744 198.086L78.9619 198.341C69.8852 198.681 60.8084 198.958 51.7317 199.234L38.1166 199.659L31.3041 199.872L27.9028 199.978L27.045 200C26.8755 200 26.7159 200 26.5463 200L26.0476 199.968C25.3793 199.914 24.721 199.787 24.0727 199.606C22.786 199.224 21.5591 198.575 20.5018 197.714C19.4445 196.842 18.5368 195.758 17.8586 194.525C17.1803 193.292 16.7315 191.921 16.542 190.496L16.4821 189.965C16.4721 189.784 16.4622 189.614 16.4522 189.433L16.4123 188.519L16.3425 186.702C16.153 181.865 15.9834 177.028 15.8238 172.192C15.6542 167.355 15.4947 162.519 15.345 157.682C15.1954 152.846 15.0358 148.009 14.9062 143.172C14.6269 133.489 14.4473 123.805 14.2877 114.132C14.1381 104.448 14.0184 94.7749 13.8189 85.0911L13.7392 81.4663L13.6594 77.8415L13.4798 70.5707C13.4599 69.3271 13.6693 68.094 14.0883 66.9353C14.5072 65.7873 15.1356 64.7137 15.9236 63.8208C16.7115 62.9173 17.6691 62.1838 18.7164 61.663C19.7637 61.1421 20.9008 60.8445 22.0578 60.7807ZM22.0778 61.0996C20.9606 61.1633 19.8634 61.461 18.856 61.9606C17.8386 62.4814 16.921 63.1936 16.1729 64.0653C15.4248 64.9369 14.8264 65.968 14.4374 67.0842C14.0583 68.1897 13.8788 69.3802 13.9187 70.5601C14.0184 72.9731 14.1381 75.3967 14.2578 77.8097L14.4374 81.4344L14.6269 85.0592C15.1356 94.7217 15.7241 104.384 16.2826 114.047C16.8312 123.709 17.3599 133.372 17.7987 143.045C18.0182 147.881 18.2177 152.718 18.4172 157.544C18.6266 162.381 18.8161 167.217 19.0056 172.054C19.1952 176.89 19.3747 181.727 19.5443 186.563L19.6041 188.381L19.634 189.274C19.644 189.402 19.644 189.519 19.654 189.646L19.6939 190.018C19.8235 190.996 20.1328 191.953 20.5916 192.814C21.0604 193.675 21.6788 194.44 22.4169 195.046C23.155 195.663 24.0028 196.12 24.8906 196.385C25.3394 196.524 25.7982 196.609 26.267 196.651L26.6161 196.672C26.7358 196.672 26.8555 196.672 26.9652 196.672L27.8031 196.662L31.2044 196.598L38.0169 196.47L51.6419 196.226C60.7187 196.066 69.8054 195.886 78.8821 195.779L85.6946 195.694L92.5071 195.631L106.132 195.514L109.533 195.482H109.962H110.172H110.282H110.381C110.511 195.471 110.641 195.482 110.77 195.461C110.9 195.45 111.03 195.439 111.159 195.429C111.678 195.365 112.187 195.248 112.685 195.078C113.683 194.738 114.61 194.196 115.418 193.473C116.226 192.761 116.895 191.868 117.393 190.879C117.892 189.891 118.201 188.796 118.301 187.669C118.311 187.595 118.321 187.531 118.321 187.456L118.331 187.244L118.341 187.031V186.819V186.606V186.383L118.331 185.926L118.291 184.108L118.111 176.848L117.912 169.588L117.693 162.327C117.543 157.491 117.383 152.654 117.194 147.818C116.486 128.471 115.378 109.146 114.571 89.8107L114.421 86.186L114.401 85.7289V85.612L114.391 85.5163L114.381 85.3249C114.381 85.1974 114.361 85.0698 114.341 84.9423C114.331 84.8147 114.311 84.6872 114.281 84.5596C114.192 84.0494 114.062 83.5498 113.892 83.0714C113.723 82.5931 113.503 82.1254 113.244 81.6895C112.985 81.2537 112.685 80.8498 112.356 80.4671C112.276 80.3714 112.187 80.2864 112.107 80.1907C112.027 80.0951 111.927 80.01 111.838 79.925L111.698 79.7974L111.538 79.6486L111.209 79.3616L109.912 78.1923C106.441 75.0672 102.99 71.9314 99.5391 68.7743L94.3823 64.0334L91.8089 61.6523L91.1706 61.0571L90.8813 60.77L90.7217 60.6212L90.5821 60.4937C90.203 60.1641 89.8041 59.8665 89.3652 59.6114C88.5074 59.1118 87.5499 58.7823 86.5724 58.6547C86.323 58.6228 86.0836 58.6016 85.8343 58.6016C85.7146 58.6016 85.5849 58.6016 85.4652 58.6016C85.4053 58.6016 85.3256 58.6016 85.2557 58.6122L85.0463 58.6228L83.3406 58.6866L76.5281 58.9205L62.913 59.3563L56.1005 59.5795L49.288 59.824L45.8867 59.9515L42.4854 60.0897C40.2212 60.1854 37.9471 60.2811 35.6829 60.3874C31.1445 60.6106 26.6062 60.8445 22.0778 61.0996Z" stroke="#001064" stroke-width="1.51661" mask="url(#path-1-outside-1)"/>
<path d="M85.3453 57.4219C85.6445 58.4849 85.8939 59.5478 86.1432 60.6108C86.3926 61.6738 86.622 62.7474 86.8414 63.821C87.2803 65.9576 87.6793 68.1049 88.0583 70.2627L88.3276 71.8784C88.4174 72.4206 88.4972 72.9521 88.587 73.4942C88.6668 74.0363 88.7565 74.5678 88.8363 75.1099L88.8962 75.5138L88.9161 75.6095L88.9361 75.6945L88.966 75.8646C88.9859 75.9816 89.0059 76.0879 89.0358 76.2048L89.0757 76.3749C89.0857 76.428 89.1056 76.4812 89.1156 76.5449C89.5744 78.3201 90.6018 79.8933 91.9683 80.9882C92.3074 81.2646 92.6765 81.5091 93.0555 81.7217C93.4345 81.9343 93.8235 82.115 94.2325 82.2638C95.0404 82.5508 95.8982 82.689 96.766 82.6996L97.0951 82.689L97.4742 82.6677L98.2422 82.6358C98.7509 82.6146 99.2696 82.5933 99.7783 82.5721L101.314 82.5189L102.85 82.4551C104.905 82.4126 106.95 82.3913 109.015 82.4339C110.042 82.4551 111.069 82.4764 112.107 82.5295C113.134 82.572 114.171 82.6358 115.199 82.7209C114.191 82.976 113.174 83.1992 112.167 83.4118C111.159 83.6244 110.142 83.8157 109.124 83.9964C107.099 84.3579 105.065 84.6768 103.03 84.9531L101.504 85.1657L99.9778 85.3571C99.4691 85.4208 98.9604 85.4846 98.4517 85.5378L97.6836 85.6228L97.3046 85.6653L96.8657 85.6972C95.6888 85.761 94.4819 85.6122 93.3448 85.2401C92.7762 85.0488 92.2177 84.8149 91.689 84.5279C91.1604 84.2409 90.6517 83.9008 90.1729 83.5181C88.2678 81.9874 86.8813 79.7233 86.3726 77.2571C86.3527 77.1827 86.3427 77.1083 86.3228 77.0233L86.2829 76.7894C86.253 76.63 86.233 76.4812 86.2131 76.3217L86.1831 76.0879L86.1732 75.9709L86.1632 75.8646L86.1233 75.4607C86.0734 74.9186 86.0335 74.3765 85.9836 73.8237C85.9437 73.2816 85.8939 72.7395 85.854 72.1867L85.7343 70.5497C85.5847 68.3706 85.465 66.1809 85.3951 63.9911C85.3652 62.8962 85.3353 61.8014 85.3253 60.6959C85.3154 59.6222 85.3054 58.5167 85.3453 57.4219Z" fill="#001064"/>
<path d="M21.7392 61.8265L88.2815 58.5088L94.7798 63.7618L115.834 82.562L118.953 181.263V188.175L114.535 194.534L109.856 196.193L28.7573 197.852H21.7392L16.2806 188.175L14.2012 72.609V68.4619L16.2806 63.7618L21.7392 61.8265Z" fill="#001064"/>
<path d="M30.875 38.1812L101.548 34.6436L108.449 40.2448L130.81 60.2915L134.123 165.537V172.907L129.43 179.687L124.461 181.456L38.3288 183.225H30.875L25.0777 172.907L22.8691 49.6786V45.2565L25.0777 40.2448L30.875 38.1812Z" fill="white"/>
<path fill-rule="evenodd" clip-rule="evenodd" d="M64.9194 141.547C68.168 142.056 71.7417 141.572 75.3124 141.375C77.9418 141.237 80.5855 141.162 83.2102 141.086C84.3984 141.047 85.6071 140.989 86.7761 140.704C90.6546 139.737 94.5769 139.937 98.4977 140.158C100.763 140.274 103.018 140.288 105.22 140.991C105.462 141.074 105.705 141.136 105.949 141.198C106.734 141.43 107.236 141.862 106.949 142.857C106.761 143.556 106.07 144.087 105.336 143.941C103.605 143.585 101.836 143.471 100.086 143.359C94.9738 142.973 89.8715 143.2 84.7745 143.856C81.1059 144.331 77.415 144.6 73.716 144.726C69.4617 144.864 65.2418 144.556 61.0076 144.185C58.8051 143.992 56.697 143.318 54.4929 143.145C53.2397 143.036 52.2436 142.071 51.2808 141.17C48.0551 138.131 47.8136 132.088 49.7395 129.174C49.9796 128.786 50.1376 128.473 49.6515 128.084C47.6881 126.524 48.0832 124.374 48.6239 122.318C48.9203 121.201 49.5712 120.196 50.3251 119.344C50.6602 118.965 50.701 118.683 50.2451 118.398C49.023 117.637 48.737 116.387 48.8623 115.01C49.0581 112.965 49.8253 111.195 51.4126 109.946C51.9628 109.504 52.5478 109.106 53.1487 108.75C53.6705 108.429 53.5278 108.049 53.3296 107.643C52.8335 106.64 52.3152 105.676 51.9392 104.602C51.0619 102.096 51.7429 101.196 53.7145 99.6741C55.3397 98.4281 57.205 98.2852 59.1115 98.35C63.3075 98.4722 67.4329 99.262 71.5849 99.7071C73.7084 99.9338 75.7751 100.4 77.9267 100.262C78.8301 100.198 78.8013 99.8283 78.682 99.1442C78.2206 96.4498 77.7608 93.7351 77.301 91.0205C76.6662 87.3514 76.6469 83.6341 76.4946 79.9051C76.4103 77.7746 76.9084 75.7766 77.4619 73.8039C77.9396 72.0696 79.1851 70.7904 80.2803 69.4776C80.8477 68.8127 81.7461 68.5647 82.71 68.9553C83.5995 69.3189 84.4464 69.7401 85.2032 70.3372C85.9601 70.9342 86.0749 71.9242 86.3131 72.8025C87.8468 78.4489 89.0088 84.2057 90.4239 89.9029C91.6357 94.7658 92.9408 99.6572 95.0162 104.228C96.0452 106.503 97.0125 108.833 98.44 110.897C99.0072 111.723 99.7401 112.134 100.558 112.43C103.102 113.408 105.576 114.544 108.198 115.243C109.247 115.518 109.777 116.34 109.567 117.077C109.381 117.755 108.081 118.499 107.313 118.289C105.031 117.64 102.801 116.812 100.508 116.305C97.8022 115.701 96.4301 113.661 95.2318 111.352C93.5659 108.164 92.4377 104.697 91.0312 101.368C89.271 97.172 88.3966 92.6449 87.3434 88.2042C86.5476 84.8885 85.4782 81.651 84.994 78.2604C84.7343 76.4208 84.3356 74.6505 83.7627 72.9059C83.2931 71.5582 82.3089 71.4313 81.4208 72.5376C80.1961 74.0432 79.8624 75.8923 79.6616 77.7529C79.2242 81.9406 79.5335 86.112 80.0722 90.2831C80.4498 93.0722 81.003 95.8155 81.7112 98.5314C81.9335 99.3675 82.0767 100.238 82.182 101.104C82.3285 102.179 81.7076 103.043 80.7363 103.244C78.3272 103.747 75.9142 103.557 73.5202 103.368C73.2164 103.341 72.8492 103.145 72.6517 103.475C72.4337 103.824 72.654 104.19 72.8014 104.509C73.0329 104.979 73.2833 105.45 73.5543 105.902C74.4717 107.391 74.3199 109.113 73.1503 110.399C72.9196 110.664 72.6873 110.95 72.4391 111.194C71.9839 111.644 72.0286 112.056 72.3487 112.615C73.244 114.143 73.7851 115.803 73.9719 117.596C74.1905 119.473 73.5525 120.805 71.9601 121.625C71.424 121.885 71.451 122.03 71.7631 122.445C72.5077 123.449 73.0545 124.538 73.1223 125.892C73.2123 127.451 72.6012 128.684 71.7131 129.79C71.1632 130.477 70.7365 131.052 70.8498 132.062C70.979 133.115 70.8566 134.207 70.5095 135.238C70.1829 136.25 69.5981 136.893 68.5572 137.006C64.9914 137.388 61.4157 137.402 57.8416 137.396C57.3068 137.39 56.7877 137.181 56.2813 137.055C55.8872 136.959 55.6735 136.757 55.6509 136.306C55.6267 135.875 55.9051 135.736 56.2008 135.619C57.4629 135.117 58.8079 135.275 60.1131 135.206C62.3011 135.091 64.505 135.019 66.693 134.904C67.3258 134.878 67.9839 134.772 68.2347 133.998C68.4825 133.264 68.1623 132.705 67.7252 132.177C67.1644 131.515 66.49 131.089 65.7129 130.755C61.9728 129.183 58.106 129.253 54.1938 129.666C54.0593 129.674 53.9407 129.725 53.8267 129.715C51.8286 129.846 50.9548 131.015 50.8271 133.168C50.7009 135.301 51.4873 137.003 52.5046 138.684C52.9277 139.395 53.6461 139.499 54.3013 139.678C57.726 140.632 61.1362 141.277 64.9194 141.547ZM65.9374 118.914C65.9312 118.995 65.9249 119.076 65.9187 119.157C67.2621 119.336 68.6008 119.576 69.9505 119.673C70.7495 119.723 71.6165 119.635 71.9968 118.668C72.5903 117.169 70.9646 112.964 69.1843 112.502C67.6856 112.105 66.2389 111.529 64.7072 111.314C62.2878 110.959 59.8415 110.704 57.4283 110.268C55.1085 109.861 52.3442 111.252 51.3131 113.469C50.9705 114.194 50.9949 114.87 51.4591 115.544C52.4525 117.039 53.8455 117.815 55.5149 117.981C58.9849 118.346 62.4627 118.61 65.9374 118.914ZM70.5181 125.95C70.6666 124.023 70.0913 123.054 68.0054 122.341C64.9524 121.277 61.7422 121.262 58.5871 121.026C57.1235 120.919 55.6347 120.891 54.162 121.15C52.9613 121.351 51.8558 121.805 50.9802 122.749C50.751 122.995 50.5962 123.267 50.5696 123.612C50.3372 125.388 52.0226 127.577 53.6629 127.128C54.3272 126.942 55.0488 127.005 55.737 127.004C60.1749 126.963 64.5043 127.587 68.7285 129.08C69.064 129.191 69.4011 129.282 69.6269 128.832C70.0138 128.029 70.4386 127.229 70.5181 125.95ZM61.0213 101.845C61.026 101.784 61.0323 101.703 61.037 101.642C60.1635 101.566 59.2917 101.469 58.4167 101.413C57.4468 101.348 56.572 101.537 55.7245 102.116C54.0485 103.276 54.0803 105.096 55.8549 106.129C57.5377 107.113 59.3357 107.842 61.1842 108.412C64.0598 109.297 66.9964 109.391 69.9307 108.77C71.2721 108.479 71.6618 107.39 70.936 106.142C70.665 105.69 70.2929 105.31 70.0409 104.86C69.223 103.318 67.9028 102.59 66.3711 102.374C64.5972 102.076 62.8061 102.001 61.0213 101.845Z" fill="#001064"/>
<mask id="path-6-outside-2" maskUnits="userSpaceOnUse" x="21.7871" y="32.1035" width="115" height="155" fill="black">
<rect fill="white" x="21.7871" y="32.1035" width="115" height="155"/>
<path d="M31.9258 37.9837C36.76 37.7233 41.5837 37.4289 46.4179 37.1231C48.8298 36.9646 51.2416 36.8061 53.664 36.6363L57.287 36.3872L60.9101 36.1267L68.1455 35.5832L75.381 35.0058L89.8413 33.8395L97.0767 33.2847L98.8829 33.1488L99.106 33.1375C99.1804 33.1375 99.2548 33.1262 99.3398 33.1262C99.5098 33.1148 99.6798 33.1035 99.8498 33.1035C100.19 33.1035 100.53 33.1148 100.87 33.1488C102.251 33.2734 103.59 33.681 104.812 34.349C105.428 34.6774 106.002 35.0737 106.543 35.5266L106.745 35.6965L106.926 35.855L107.276 36.1607L107.978 36.7721L110.761 39.2518L116.329 44.2113C120.026 47.5289 123.724 50.8691 127.4 54.2094L128.781 55.4662L129.121 55.7833L129.291 55.9418L129.482 56.123C129.61 56.2475 129.737 56.3721 129.865 56.5079C129.982 56.6438 130.109 56.7684 130.226 56.9042C131.172 57.9912 131.905 59.282 132.383 60.6748C132.627 61.3655 132.797 62.0901 132.914 62.8148C132.946 62.9959 132.967 63.1771 132.988 63.3583C133.01 63.5394 133.031 63.7206 133.031 63.9131L133.041 64.1849L133.052 64.3207V64.4453L133.063 64.9322L133.148 68.7933C133.605 89.4123 133.743 110.031 134.316 130.65C134.455 135.802 134.603 140.954 134.784 146.106L135.05 153.828L135.336 161.55L135.645 169.273L135.73 171.209L135.751 171.696L135.761 171.945V172.205V172.466L135.751 172.726L135.74 172.987C135.74 173.077 135.73 173.156 135.719 173.247C135.623 174.617 135.262 175.976 134.688 177.21C133.53 179.69 131.448 181.66 128.972 182.577C128.356 182.803 127.718 182.973 127.07 183.075C126.911 183.098 126.741 183.12 126.582 183.132C126.422 183.154 126.252 183.154 126.093 183.166L125.965 183.177H125.849L125.625 183.188L125.169 183.211L121.546 183.358L107.043 183.947L99.7967 184.241L92.54 184.513C82.8714 184.876 73.2029 185.17 63.5344 185.464L49.0316 185.917L41.7749 186.144L38.1519 186.257L37.2382 186.28C37.0575 186.28 36.8875 186.28 36.7069 186.28L36.1757 186.246C35.4638 186.189 34.7626 186.053 34.072 185.861C32.7014 185.453 31.3945 184.762 30.2683 183.845C29.1421 182.917 28.1752 181.762 27.4528 180.448C26.7303 179.135 26.2522 177.674 26.0503 176.157L25.9865 175.591C25.9759 175.398 25.9653 175.217 25.9547 175.025L25.9122 174.051L25.8378 172.115C25.6359 166.963 25.4553 161.811 25.2853 156.659C25.1047 151.507 24.9347 146.355 24.7753 141.203C24.616 136.051 24.446 130.899 24.3078 125.747C24.0103 115.432 23.8191 105.117 23.6491 94.8133C23.4897 84.4981 23.3622 74.1943 23.1497 63.8791L23.0647 60.018L22.9797 56.1569L22.7885 48.4121C22.7672 47.0873 22.9904 45.7738 23.4366 44.5396C23.8828 43.3168 24.5522 42.1732 25.3916 41.222C26.2309 40.2596 27.2509 39.4783 28.3665 38.9235C29.4821 38.3687 30.6933 38.0516 31.9258 37.9837ZM31.947 38.3234C30.7571 38.3913 29.5883 38.7083 28.5152 39.2405C27.4315 39.7953 26.454 40.554 25.6572 41.4825C24.8603 42.4109 24.2228 43.5093 23.8085 44.6982C23.4047 45.8757 23.2135 47.1439 23.256 48.4007C23.3622 50.971 23.4897 53.5527 23.6172 56.123L23.8085 59.9841L24.0103 63.8452C24.5522 74.1377 25.1791 84.4302 25.7741 94.7227C26.3584 105.015 26.9215 115.308 27.389 125.612C27.6228 130.763 27.8353 135.915 28.0477 141.056C28.2709 146.208 28.4727 151.36 28.6746 156.512C28.8765 161.664 29.0677 166.816 29.2483 171.967L29.3121 173.904L29.344 174.855C29.3546 174.991 29.3546 175.115 29.3652 175.251L29.4077 175.647C29.5458 176.689 29.8752 177.708 30.3639 178.625C30.8633 179.542 31.522 180.358 32.3083 181.003C33.0945 181.66 33.9976 182.147 34.9432 182.43C35.4213 182.577 35.9101 182.668 36.4094 182.713L36.7813 182.736C36.9088 182.736 37.0363 182.736 37.1532 182.736L38.0456 182.724L41.6687 182.656L48.9254 182.52L63.4388 182.26C73.1073 182.09 82.7864 181.898 92.455 181.784L99.7117 181.694L106.968 181.626L121.482 181.501L125.105 181.467H125.562H125.785H125.902H126.008C126.146 181.456 126.284 181.467 126.422 181.445C126.56 181.433 126.699 181.422 126.837 181.411C127.389 181.343 127.931 181.218 128.462 181.037C129.525 180.675 130.513 180.097 131.373 179.327C132.234 178.569 132.946 177.618 133.477 176.565C134.008 175.512 134.338 174.345 134.444 173.145C134.455 173.066 134.465 172.998 134.465 172.919L134.476 172.692L134.486 172.466V172.239V172.013V171.775L134.476 171.288L134.433 169.352L134.242 161.618L134.03 153.885L133.796 146.151C133.636 140.999 133.466 135.847 133.265 130.696C132.51 110.088 131.331 89.5028 130.47 68.9065L130.311 65.0454L130.29 64.5585V64.434L130.279 64.332L130.268 64.1282C130.268 63.9924 130.247 63.8565 130.226 63.7206C130.215 63.5847 130.194 63.4489 130.162 63.313C130.067 62.7695 129.928 62.2373 129.748 61.7278C129.567 61.2183 129.333 60.72 129.057 60.2558C128.781 59.7916 128.462 59.3613 128.112 58.9537C128.027 58.8518 127.931 58.7612 127.846 58.6593C127.761 58.5574 127.655 58.4668 127.559 58.3762L127.41 58.2403L127.24 58.0818L126.89 57.7761L125.509 56.5306C121.811 53.2016 118.135 49.8614 114.459 46.4985L108.966 41.4485L106.225 38.9122L105.545 38.2781L105.237 37.9724L105.067 37.8138L104.918 37.678C104.514 37.327 104.089 37.0099 103.622 36.7382C102.708 36.206 101.688 35.855 100.647 35.7191C100.381 35.6851 100.126 35.6625 99.8604 35.6625C99.7329 35.6625 99.5948 35.6625 99.4673 35.6625C99.4035 35.6625 99.3185 35.6625 99.2442 35.6738L99.021 35.6851L97.2042 35.7531L89.9475 36.0022L75.4447 36.4664L68.188 36.7042L60.9313 36.9646L57.3083 37.1005L53.6853 37.2477C51.2734 37.3496 48.851 37.4515 46.4392 37.5647C41.6049 37.8025 36.7707 38.0516 31.947 38.3234Z"/>
</mask>
<path d="M31.9258 37.9837C36.76 37.7233 41.5837 37.4289 46.4179 37.1231C48.8298 36.9646 51.2416 36.8061 53.664 36.6363L57.287 36.3872L60.9101 36.1267L68.1455 35.5832L75.381 35.0058L89.8413 33.8395L97.0767 33.2847L98.8829 33.1488L99.106 33.1375C99.1804 33.1375 99.2548 33.1262 99.3398 33.1262C99.5098 33.1148 99.6798 33.1035 99.8498 33.1035C100.19 33.1035 100.53 33.1148 100.87 33.1488C102.251 33.2734 103.59 33.681 104.812 34.349C105.428 34.6774 106.002 35.0737 106.543 35.5266L106.745 35.6965L106.926 35.855L107.276 36.1607L107.978 36.7721L110.761 39.2518L116.329 44.2113C120.026 47.5289 123.724 50.8691 127.4 54.2094L128.781 55.4662L129.121 55.7833L129.291 55.9418L129.482 56.123C129.61 56.2475 129.737 56.3721 129.865 56.5079C129.982 56.6438 130.109 56.7684 130.226 56.9042C131.172 57.9912 131.905 59.282 132.383 60.6748C132.627 61.3655 132.797 62.0901 132.914 62.8148C132.946 62.9959 132.967 63.1771 132.988 63.3583C133.01 63.5394 133.031 63.7206 133.031 63.9131L133.041 64.1849L133.052 64.3207V64.4453L133.063 64.9322L133.148 68.7933C133.605 89.4123 133.743 110.031 134.316 130.65C134.455 135.802 134.603 140.954 134.784 146.106L135.05 153.828L135.336 161.55L135.645 169.273L135.73 171.209L135.751 171.696L135.761 171.945V172.205V172.466L135.751 172.726L135.74 172.987C135.74 173.077 135.73 173.156 135.719 173.247C135.623 174.617 135.262 175.976 134.688 177.21C133.53 179.69 131.448 181.66 128.972 182.577C128.356 182.803 127.718 182.973 127.07 183.075C126.911 183.098 126.741 183.12 126.582 183.132C126.422 183.154 126.252 183.154 126.093 183.166L125.965 183.177H125.849L125.625 183.188L125.169 183.211L121.546 183.358L107.043 183.947L99.7967 184.241L92.54 184.513C82.8714 184.876 73.2029 185.17 63.5344 185.464L49.0316 185.917L41.7749 186.144L38.1519 186.257L37.2382 186.28C37.0575 186.28 36.8875 186.28 36.7069 186.28L36.1757 186.246C35.4638 186.189 34.7626 186.053 34.072 185.861C32.7014 185.453 31.3945 184.762 30.2683 183.845C29.1421 182.917 28.1752 181.762 27.4528 180.448C26.7303 179.135 26.2522 177.674 26.0503 176.157L25.9865 175.591C25.9759 175.398 25.9653 175.217 25.9547 175.025L25.9122 174.051L25.8378 172.115C25.6359 166.963 25.4553 161.811 25.2853 156.659C25.1047 151.507 24.9347 146.355 24.7753 141.203C24.616 136.051 24.446 130.899 24.3078 125.747C24.0103 115.432 23.8191 105.117 23.6491 94.8133C23.4897 84.4981 23.3622 74.1943 23.1497 63.8791L23.0647 60.018L22.9797 56.1569L22.7885 48.4121C22.7672 47.0873 22.9904 45.7738 23.4366 44.5396C23.8828 43.3168 24.5522 42.1732 25.3916 41.222C26.2309 40.2596 27.2509 39.4783 28.3665 38.9235C29.4821 38.3687 30.6933 38.0516 31.9258 37.9837ZM31.947 38.3234C30.7571 38.3913 29.5883 38.7083 28.5152 39.2405C27.4315 39.7953 26.454 40.554 25.6572 41.4825C24.8603 42.4109 24.2228 43.5093 23.8085 44.6982C23.4047 45.8757 23.2135 47.1439 23.256 48.4007C23.3622 50.971 23.4897 53.5527 23.6172 56.123L23.8085 59.9841L24.0103 63.8452C24.5522 74.1377 25.1791 84.4302 25.7741 94.7227C26.3584 105.015 26.9215 115.308 27.389 125.612C27.6228 130.763 27.8353 135.915 28.0477 141.056C28.2709 146.208 28.4727 151.36 28.6746 156.512C28.8765 161.664 29.0677 166.816 29.2483 171.967L29.3121 173.904L29.344 174.855C29.3546 174.991 29.3546 175.115 29.3652 175.251L29.4077 175.647C29.5458 176.689 29.8752 177.708 30.3639 178.625C30.8633 179.542 31.522 180.358 32.3083 181.003C33.0945 181.66 33.9976 182.147 34.9432 182.43C35.4213 182.577 35.9101 182.668 36.4094 182.713L36.7813 182.736C36.9088 182.736 37.0363 182.736 37.1532 182.736L38.0456 182.724L41.6687 182.656L48.9254 182.52L63.4388 182.26C73.1073 182.09 82.7864 181.898 92.455 181.784L99.7117 181.694L106.968 181.626L121.482 181.501L125.105 181.467H125.562H125.785H125.902H126.008C126.146 181.456 126.284 181.467 126.422 181.445C126.56 181.433 126.699 181.422 126.837 181.411C127.389 181.343 127.931 181.218 128.462 181.037C129.525 180.675 130.513 180.097 131.373 179.327C132.234 178.569 132.946 177.618 133.477 176.565C134.008 175.512 134.338 174.345 134.444 173.145C134.455 173.066 134.465 172.998 134.465 172.919L134.476 172.692L134.486 172.466V172.239V172.013V171.775L134.476 171.288L134.433 169.352L134.242 161.618L134.03 153.885L133.796 146.151C133.636 140.999 133.466 135.847 133.265 130.696C132.51 110.088 131.331 89.5028 130.47 68.9065L130.311 65.0454L130.29 64.5585V64.434L130.279 64.332L130.268 64.1282C130.268 63.9924 130.247 63.8565 130.226 63.7206C130.215 63.5847 130.194 63.4489 130.162 63.313C130.067 62.7695 129.928 62.2373 129.748 61.7278C129.567 61.2183 129.333 60.72 129.057 60.2558C128.781 59.7916 128.462 59.3613 128.112 58.9537C128.027 58.8518 127.931 58.7612 127.846 58.6593C127.761 58.5574 127.655 58.4668 127.559 58.3762L127.41 58.2403L127.24 58.0818L126.89 57.7761L125.509 56.5306C121.811 53.2016 118.135 49.8614 114.459 46.4985L108.966 41.4485L106.225 38.9122L105.545 38.2781L105.237 37.9724L105.067 37.8138L104.918 37.678C104.514 37.327 104.089 37.0099 103.622 36.7382C102.708 36.206 101.688 35.855 100.647 35.7191C100.381 35.6851 100.126 35.6625 99.8604 35.6625C99.7329 35.6625 99.5948 35.6625 99.4673 35.6625C99.4035 35.6625 99.3185 35.6625 99.2442 35.6738L99.021 35.6851L97.2042 35.7531L89.9475 36.0022L75.4447 36.4664L68.188 36.7042L60.9313 36.9646L57.3083 37.1005L53.6853 37.2477C51.2734 37.3496 48.851 37.4515 46.4392 37.5647C41.6049 37.8025 36.7707 38.0516 31.947 38.3234Z" fill="#001064"/>
<path d="M31.9258 37.9837C36.76 37.7233 41.5837 37.4289 46.4179 37.1231C48.8298 36.9646 51.2416 36.8061 53.664 36.6363L57.287 36.3872L60.9101 36.1267L68.1455 35.5832L75.381 35.0058L89.8413 33.8395L97.0767 33.2847L98.8829 33.1488L99.106 33.1375C99.1804 33.1375 99.2548 33.1262 99.3398 33.1262C99.5098 33.1148 99.6798 33.1035 99.8498 33.1035C100.19 33.1035 100.53 33.1148 100.87 33.1488C102.251 33.2734 103.59 33.681 104.812 34.349C105.428 34.6774 106.002 35.0737 106.543 35.5266L106.745 35.6965L106.926 35.855L107.276 36.1607L107.978 36.7721L110.761 39.2518L116.329 44.2113C120.026 47.5289 123.724 50.8691 127.4 54.2094L128.781 55.4662L129.121 55.7833L129.291 55.9418L129.482 56.123C129.61 56.2475 129.737 56.3721 129.865 56.5079C129.982 56.6438 130.109 56.7684 130.226 56.9042C131.172 57.9912 131.905 59.282 132.383 60.6748C132.627 61.3655 132.797 62.0901 132.914 62.8148C132.946 62.9959 132.967 63.1771 132.988 63.3583C133.01 63.5394 133.031 63.7206 133.031 63.9131L133.041 64.1849L133.052 64.3207V64.4453L133.063 64.9322L133.148 68.7933C133.605 89.4123 133.743 110.031 134.316 130.65C134.455 135.802 134.603 140.954 134.784 146.106L135.05 153.828L135.336 161.55L135.645 169.273L135.73 171.209L135.751 171.696L135.761 171.945V172.205V172.466L135.751 172.726L135.74 172.987C135.74 173.077 135.73 173.156 135.719 173.247C135.623 174.617 135.262 175.976 134.688 177.21C133.53 179.69 131.448 181.66 128.972 182.577C128.356 182.803 127.718 182.973 127.07 183.075C126.911 183.098 126.741 183.12 126.582 183.132C126.422 183.154 126.252 183.154 126.093 183.166L125.965 183.177H125.849L125.625 183.188L125.169 183.211L121.546 183.358L107.043 183.947L99.7967 184.241L92.54 184.513C82.8714 184.876 73.2029 185.17 63.5344 185.464L49.0316 185.917L41.7749 186.144L38.1519 186.257L37.2382 186.28C37.0575 186.28 36.8875 186.28 36.7069 186.28L36.1757 186.246C35.4638 186.189 34.7626 186.053 34.072 185.861C32.7014 185.453 31.3945 184.762 30.2683 183.845C29.1421 182.917 28.1752 181.762 27.4528 180.448C26.7303 179.135 26.2522 177.674 26.0503 176.157L25.9865 175.591C25.9759 175.398 25.9653 175.217 25.9547 175.025L25.9122 174.051L25.8378 172.115C25.6359 166.963 25.4553 161.811 25.2853 156.659C25.1047 151.507 24.9347 146.355 24.7753 141.203C24.616 136.051 24.446 130.899 24.3078 125.747C24.0103 115.432 23.8191 105.117 23.6491 94.8133C23.4897 84.4981 23.3622 74.1943 23.1497 63.8791L23.0647 60.018L22.9797 56.1569L22.7885 48.4121C22.7672 47.0873 22.9904 45.7738 23.4366 44.5396C23.8828 43.3168 24.5522 42.1732 25.3916 41.222C26.2309 40.2596 27.2509 39.4783 28.3665 38.9235C29.4821 38.3687 30.6933 38.0516 31.9258 37.9837ZM31.947 38.3234C30.7571 38.3913 29.5883 38.7083 28.5152 39.2405C27.4315 39.7953 26.454 40.554 25.6572 41.4825C24.8603 42.4109 24.2228 43.5093 23.8085 44.6982C23.4047 45.8757 23.2135 47.1439 23.256 48.4007C23.3622 50.971 23.4897 53.5527 23.6172 56.123L23.8085 59.9841L24.0103 63.8452C24.5522 74.1377 25.1791 84.4302 25.7741 94.7227C26.3584 105.015 26.9215 115.308 27.389 125.612C27.6228 130.763 27.8353 135.915 28.0477 141.056C28.2709 146.208 28.4727 151.36 28.6746 156.512C28.8765 161.664 29.0677 166.816 29.2483 171.967L29.3121 173.904L29.344 174.855C29.3546 174.991 29.3546 175.115 29.3652 175.251L29.4077 175.647C29.5458 176.689 29.8752 177.708 30.3639 178.625C30.8633 179.542 31.522 180.358 32.3083 181.003C33.0945 181.66 33.9976 182.147 34.9432 182.43C35.4213 182.577 35.9101 182.668 36.4094 182.713L36.7813 182.736C36.9088 182.736 37.0363 182.736 37.1532 182.736L38.0456 182.724L41.6687 182.656L48.9254 182.52L63.4388 182.26C73.1073 182.09 82.7864 181.898 92.455 181.784L99.7117 181.694L106.968 181.626L121.482 181.501L125.105 181.467H125.562H125.785H125.902H126.008C126.146 181.456 126.284 181.467 126.422 181.445C126.56 181.433 126.699 181.422 126.837 181.411C127.389 181.343 127.931 181.218 128.462 181.037C129.525 180.675 130.513 180.097 131.373 179.327C132.234 178.569 132.946 177.618 133.477 176.565C134.008 175.512 134.338 174.345 134.444 173.145C134.455 173.066 134.465 172.998 134.465 172.919L134.476 172.692L134.486 172.466V172.239V172.013V171.775L134.476 171.288L134.433 169.352L134.242 161.618L134.03 153.885L133.796 146.151C133.636 140.999 133.466 135.847 133.265 130.696C132.51 110.088 131.331 89.5028 130.47 68.9065L130.311 65.0454L130.29 64.5585V64.434L130.279 64.332L130.268 64.1282C130.268 63.9924 130.247 63.8565 130.226 63.7206C130.215 63.5847 130.194 63.4489 130.162 63.313C130.067 62.7695 129.928 62.2373 129.748 61.7278C129.567 61.2183 129.333 60.72 129.057 60.2558C128.781 59.7916 128.462 59.3613 128.112 58.9537C128.027 58.8518 127.931 58.7612 127.846 58.6593C127.761 58.5574 127.655 58.4668 127.559 58.3762L127.41 58.2403L127.24 58.0818L126.89 57.7761L125.509 56.5306C121.811 53.2016 118.135 49.8614 114.459 46.4985L108.966 41.4485L106.225 38.9122L105.545 38.2781L105.237 37.9724L105.067 37.8138L104.918 37.678C104.514 37.327 104.089 37.0099 103.622 36.7382C102.708 36.206 101.688 35.855 100.647 35.7191C100.381 35.6851 100.126 35.6625 99.8604 35.6625C99.7329 35.6625 99.5948 35.6625 99.4673 35.6625C99.4035 35.6625 99.3185 35.6625 99.2442 35.6738L99.021 35.6851L97.2042 35.7531L89.9475 36.0022L75.4447 36.4664L68.188 36.7042L60.9313 36.9646L57.3083 37.1005L53.6853 37.2477C51.2734 37.3496 48.851 37.4515 46.4392 37.5647C41.6049 37.8025 36.7707 38.0516 31.947 38.3234Z" stroke="#001064" stroke-width="1.51661" mask="url(#path-6-outside-2)"/>
<path d="M99.3393 34.4062C99.6581 35.5385 99.9237 36.6708 100.189 37.8031C100.455 38.9354 100.699 40.079 100.933 41.2226C101.401 43.4985 101.826 45.7858 102.229 48.0843L102.516 49.8054C102.612 50.3828 102.697 50.949 102.792 51.5265C102.877 52.1039 102.973 52.6701 103.058 53.2475L103.122 53.6778L103.143 53.7797L103.164 53.8703L103.196 54.0515C103.217 54.176 103.239 54.2892 103.271 54.4138L103.313 54.595C103.324 54.6516 103.345 54.7082 103.356 54.7761C103.844 56.6671 104.939 58.3428 106.394 59.5091C106.755 59.8035 107.149 60.0639 107.552 60.2904C107.956 60.5168 108.37 60.7093 108.806 60.8678C109.667 61.1736 110.58 61.3208 111.505 61.3321L111.855 61.3208L112.259 61.2981L113.077 61.2641C113.619 61.2415 114.172 61.2189 114.713 61.1962L116.35 61.1396L117.986 61.0717C120.174 61.0264 122.353 61.0037 124.552 61.049C125.646 61.0717 126.741 61.0943 127.846 61.1509C128.94 61.1962 130.045 61.2641 131.139 61.3547C130.066 61.6265 128.982 61.8643 127.909 62.0907C126.836 62.3172 125.752 62.521 124.669 62.7135C122.512 63.0985 120.344 63.4381 118.177 63.7325L116.551 63.959L114.926 64.1628C114.384 64.2307 113.842 64.2987 113.3 64.3553L112.482 64.4459L112.078 64.4912L111.611 64.5251C110.357 64.5931 109.072 64.4346 107.86 64.0383C107.255 63.8344 106.66 63.5853 106.097 63.2796C105.534 62.9739 104.992 62.6116 104.482 62.2039C102.452 60.5735 100.976 58.1617 100.434 55.5348C100.412 55.4555 100.402 55.3762 100.381 55.2857L100.338 55.0366C100.306 54.8667 100.285 54.7082 100.264 54.5384L100.232 54.2892L100.221 54.1647L100.211 54.0515L100.168 53.6212C100.115 53.0437 100.072 52.4663 100.019 51.8775C99.9768 51.3 99.9237 50.7225 99.8812 50.1337L99.7537 48.39C99.5943 46.0688 99.4668 43.7363 99.3925 41.4038C99.3606 40.2375 99.3287 39.0713 99.3181 37.8937C99.3075 36.7501 99.2968 35.5725 99.3393 34.4062Z" fill="#001064"/>
<ellipse rx="27.4925" ry="29.2961" transform="matrix(0.999829 -0.0185122 0.016358 0.999866 27.9671 43.9248)" fill="#E9FAF4"/>
<path d="M37.1441 36.0911L35.664 36.1186L35.6125 32.9641C35.5414 28.6108 32.1682 25.1392 28.0831 25.215C23.998 25.2907 20.7402 28.8853 20.8113 33.2386L20.8629 36.3931L19.3827 36.4206C17.7546 36.4508 16.4457 37.895 16.474 39.63L16.7316 55.4027C16.76 57.1377 18.1153 58.5326 19.7434 58.5024L37.5047 58.173C39.1329 58.1428 40.4418 56.6985 40.4135 54.9635L40.1558 39.1908C40.1275 37.4558 38.7722 36.061 37.1441 36.0911ZM28.4953 50.4513C26.8671 50.4815 25.5119 49.0867 25.4835 47.3517C25.4552 45.6167 26.7641 44.1724 28.3922 44.1422C30.0203 44.112 31.3756 45.5069 31.404 47.2419C31.4323 48.9769 30.1234 50.4211 28.4953 50.4513ZM32.8518 36.1708L23.6751 36.341L23.6235 33.1864C23.5795 30.4893 25.601 28.2587 28.132 28.2118C30.663 28.1648 32.7562 30.3191 32.8002 33.0162L32.8518 36.1708Z" fill="#001064"/>
<path d="M61.5261 26.5324L55.8337 20.3955L55.159 22.9728L51.144 32.3351L45.0645 36.6391L54.4012 40.8037L59.6494 47.6418L62.1177 39.2087L69.8674 31.5122L68.9955 29.8641L61.5261 26.5324Z" fill="#FEF6E7"/>
<path d="M76.4401 29.6513C75.327 29.0733 73.7337 29.435 72.473 29.3238C71.0842 29.1907 69.7204 28.9393 68.4058 28.5322C65.7112 27.6993 63.2276 26.3218 61.184 24.4654C59.0843 22.556 57.4431 20.0992 56.4211 17.4661C56.3863 17.3601 56.3338 17.2417 56.299 17.1357C56.2782 14.2956 55.8753 11.4859 55.0133 8.96512C54.5056 7.45389 51.9382 8.00077 52.1106 9.62977C52.1431 9.97861 52.1905 10.3244 52.2678 10.6639C52.2905 10.7885 52.3253 10.8945 52.3751 10.9973C52.8019 13.1717 53.2081 15.3181 53.2641 17.5853C53.3333 20.3508 53.0382 23.1593 52.386 25.8799C51.8237 28.2426 50.9035 30.5985 49.2834 32.5172C47.4975 34.6318 45.1217 35.7209 42.4525 36.305C41.6035 36.4966 41.4348 37.6143 42.3397 37.8152C43.1464 37.9878 43.9426 38.0172 44.6862 37.9281C45.1051 38.1001 45.5063 38.2596 45.9765 38.3725C46.8693 38.592 47.7351 38.8332 48.5758 39.1928C50.2844 39.8901 51.8561 40.8582 53.2078 42.0656C56.1182 44.6802 57.8275 48.4481 58.1129 52.3164C58.1792 53.1916 58.8584 53.6007 59.5564 53.6019C60.5211 54.7277 62.5459 53.8405 62.123 52.1986C60.9494 47.625 61.3021 42.8329 64.2819 38.7584C65.6479 36.8922 67.3772 35.4034 69.3752 34.1985C70.6714 33.3972 72.0841 32.8951 73.4762 32.365C74.606 32.4385 75.7729 32.3751 76.6108 31.7817C77.4337 31.1914 77.2594 30.0637 76.4401 29.6513ZM68.1339 31.7238C65.6306 33.0493 63.4015 35.0293 61.8019 37.3155C60.3867 39.3373 59.3591 41.6992 58.8109 44.1398C57.9333 42.6404 56.8129 41.2558 55.464 40.0639C53.8904 38.6599 51.995 37.5325 49.9827 36.7848C49.5339 36.619 49.0729 36.4719 48.597 36.3278C51.4437 34.3333 53.5501 30.8272 54.5383 27.9078C55.1336 26.1524 55.5811 24.266 55.8827 22.345C56.7462 23.7666 57.7776 25.0887 58.9863 26.2772C61.2147 28.4671 64.0474 30.1442 67.0657 31.1365C67.5117 31.2867 67.9698 31.4183 68.4251 31.5343C68.3467 31.6151 68.2478 31.6679 68.1339 31.7238Z" fill="#001064"/>
<path d="M147.37 85.2728L142.803 76.9002L141.391 79.4986L134.559 88.469L126.819 91.325L135.865 98.6459L139.765 107.647L144.67 99.2235L155.12 93.1814L154.608 91.1295L147.37 85.2728Z" fill="#FEF6E7"/>
<path d="M162.753 93.1268C161.696 92.1654 159.869 92.0813 158.529 91.5831C157.055 91.0226 155.639 90.341 154.318 89.5051C151.61 87.7932 149.275 85.5527 147.544 82.9237C145.766 80.2203 144.63 77.0595 144.214 73.8923C144.204 73.7668 144.179 73.6224 144.169 73.4968C144.895 70.4046 145.198 67.2311 144.926 64.234C144.773 62.44 141.839 62.2654 141.597 64.087C141.54 64.4758 141.501 64.8657 141.495 65.2578C141.487 65.4 141.497 65.5255 141.524 65.6521C141.414 68.1426 141.29 70.5963 140.753 73.0765C140.099 76.1021 139.037 79.0653 137.611 81.8262C136.377 84.225 134.756 86.5093 132.49 88.109C129.992 89.8718 127.123 90.3438 124.069 90.1791C123.096 90.1331 122.618 91.2971 123.548 91.7862C124.379 92.2154 125.237 92.4857 126.068 92.6116C126.478 92.9239 126.872 93.2174 127.353 93.4808C128.265 93.9867 129.142 94.508 129.961 95.1505C131.633 96.4198 133.086 97.9423 134.236 99.659C136.709 103.371 137.573 107.977 136.863 112.266C136.704 113.237 137.334 113.884 138.092 114.095C138.844 115.607 141.278 115.249 141.251 113.339C141.182 108.018 142.829 102.916 147.141 99.3815C149.117 97.7628 151.389 96.663 153.878 95.9521C155.497 95.4696 157.165 95.347 158.817 95.1878C160.025 95.606 161.31 95.8865 162.377 95.4927C163.427 95.0977 163.535 93.8203 162.753 93.1268ZM153.181 92.8914C150.112 93.5821 147.168 95.066 144.827 97.0711C142.756 98.8441 141.017 101.103 139.777 103.59C139.219 101.698 138.367 99.8586 137.216 98.1596C135.876 96.1629 134.114 94.3703 132.125 92.9553C131.681 92.6408 131.219 92.3429 130.739 92.0438C134.358 90.7291 137.572 87.5503 139.415 84.6741C140.525 82.945 141.509 81.0293 142.343 79.0324C142.906 80.8355 143.678 82.581 144.678 84.2343C146.522 87.281 149.158 89.9515 152.176 91.9335C152.621 92.2303 153.084 92.5104 153.548 92.7728C153.441 92.8371 153.32 92.8648 153.181 92.8914Z" fill="#001064"/>
<path d="M103.781 142.422C110.675 143.577 123.648 148.581 133.762 154.739" stroke="#001064" stroke-width="3.03322" stroke-linecap="round"/>
<path d="M107.754 116.633C114.256 118.429 128.415 122.176 133.039 122.792" stroke="#001064" stroke-width="3.03322" stroke-linecap="round"/>
</svg>
