<svg width="311" height="235" viewBox="0 0 311 235" fill="none" xmlns="http://www.w3.org/2000/svg">
<path d="M5 71.9258C12.972 71.6219 20.7894 74.1533 28.4759 75.7646C30.9853 76.2906 37.0914 76.8881 38.8682 78.8564" stroke="#001064" stroke-width="6.80674" stroke-linecap="round" stroke-linejoin="round"/>
<path d="M17.2295 112.973C26.8022 110.408 36.3749 107.843 45.9476 105.278" stroke="#001064" stroke-width="6.80674" stroke-linecap="round" stroke-linejoin="round"/>
<path d="M44.6994 151.165C49.1327 143.343 52.3062 134.768 56.6976 127.02" stroke="#001064" stroke-width="6.80674" stroke-linecap="round" stroke-linejoin="round"/>
<path d="M306.839 124.707C298.867 125.011 291.049 122.48 283.363 120.868C280.854 120.342 274.747 119.745 272.971 117.776" stroke="#001064" stroke-width="6.80674" stroke-linecap="round" stroke-linejoin="round"/>
<path d="M294.609 83.6602C285.037 86.2252 275.464 88.7901 265.891 91.3551" stroke="#001064" stroke-width="6.80674" stroke-linecap="round" stroke-linejoin="round"/>
<path d="M267.139 45.4678C262.706 53.2901 259.533 61.8647 255.141 69.6131" stroke="#001064" stroke-width="6.80674" stroke-linecap="round" stroke-linejoin="round"/>
<path d="M118.626 46.9239C124.31 46.8709 129.974 46.7505 135.638 46.5854C138.48 46.5141 141.302 46.4202 144.145 46.3041L148.398 46.1523L152.651 45.978C155.494 45.8619 158.316 45.7232 161.159 45.5847L169.666 45.1466L186.681 44.2705C189.524 44.1319 192.346 43.9933 195.189 43.8772L196.263 43.8393L196.789 43.8203L197.063 43.7996L197.379 43.8017C198.242 43.7848 199.104 43.88 199.966 44.0648C201.669 44.4118 203.306 45.1393 204.773 46.1569C204.962 46.2925 205.13 46.428 205.318 46.5636C205.486 46.6991 205.674 46.8572 205.842 46.9927C206.009 47.1506 206.177 47.2861 206.344 47.444L206.742 47.8274L208.332 49.3387L211.491 52.3836C213.583 54.4134 215.675 56.4656 217.767 58.4954C221.93 62.5997 226.071 66.7262 230.192 70.8751L231.739 72.4533C232.388 73.1072 232.952 73.8277 233.473 74.6152C234.494 76.1676 235.22 77.9198 235.608 79.7594C235.812 80.6793 235.933 81.5986 235.948 82.5397C235.946 82.7637 235.945 83.0101 235.964 83.2343C235.964 83.3687 235.963 83.4583 235.962 83.5479L235.961 83.8392L235.932 84.9816L235.819 89.5064C235.221 113.654 234.013 137.797 233.626 161.968C233.524 168.017 233.443 174.043 233.425 180.092L233.396 184.617L233.388 189.143C233.368 192.167 233.391 195.192 233.393 198.194C233.394 201.218 233.417 204.243 233.44 207.245L233.467 209.508L233.464 210.068L233.462 210.359L233.46 210.673L233.434 211.3C233.433 211.502 233.432 211.726 233.388 211.927C233.209 213.584 232.736 215.239 232.01 216.735C230.538 219.728 227.913 222.108 224.832 223.163L223.651 223.492C223.251 223.579 222.85 223.644 222.45 223.708C222.05 223.75 221.65 223.77 221.228 223.79L221.081 223.789L220.955 223.788L220.681 223.786L220.155 223.783L215.902 223.823L198.871 223.96L190.366 224.017L181.861 224.052C170.514 224.068 159.168 223.973 147.801 223.877L130.771 223.745L122.267 223.668L118.015 223.618C116.183 223.584 114.312 223.191 112.612 222.396C109.191 220.85 106.431 217.831 105.044 214.192C104.34 212.373 103.974 210.399 103.966 208.45L103.967 208.271L103.968 208.136L103.97 207.845L103.973 207.285L103.981 206.142L103.974 203.88C103.971 197.831 104.01 191.804 104.049 185.756C104.088 179.707 104.148 173.681 104.229 167.632C104.31 161.584 104.37 155.557 104.493 149.509C104.718 137.435 105.111 125.362 105.589 113.267C106.067 101.194 106.587 89.1222 106.959 77.0266L107.094 72.5019L107.207 67.9771L107.413 58.9049C107.465 57.3369 107.77 55.7706 108.369 54.3407C108.946 52.9105 109.776 51.5941 110.814 50.4806C112.807 48.253 115.7 46.9498 118.626 46.9239ZM118.643 47.5961C117.274 47.6321 115.883 47.9368 114.637 48.5113C113.37 49.108 112.228 49.952 111.274 50.9988C110.32 52.0456 109.554 53.2953 109.04 54.6586C108.526 55.9996 108.264 57.4541 108.276 58.9104C108.299 61.9127 108.342 64.9375 108.407 67.9624L108.483 72.4884L108.58 77.0146C108.86 89.092 109.309 101.171 109.694 113.249C110.08 125.327 110.381 137.404 110.535 149.481C110.601 155.53 110.625 161.557 110.67 167.606C110.716 173.656 110.719 179.682 110.722 185.731C110.725 191.78 110.708 197.807 110.669 203.856L110.654 206.118L110.647 207.261L110.643 207.821L110.641 208.112L110.64 208.247L110.64 208.336C110.633 209.411 110.837 210.466 111.188 211.431C111.561 212.42 112.102 213.319 112.792 214.085C113.482 214.852 114.299 215.462 115.201 215.893C116.104 216.325 117.071 216.555 118.06 216.584L122.312 216.701L130.815 216.957L147.842 217.47C159.186 217.812 170.531 218.131 181.875 218.585L190.377 218.931L198.88 219.3L215.884 220.081L220.135 220.266L220.662 220.291L220.935 220.293L221.062 220.294L221.167 220.295C221.461 220.297 221.777 220.299 222.072 220.278L222.978 220.172L223.863 219.976C225.044 219.647 226.164 219.05 227.137 218.25C228.111 217.449 228.96 216.424 229.577 215.286C230.216 214.147 230.625 212.85 230.802 211.53C230.845 211.373 230.846 211.194 230.847 211.037L230.892 210.544L230.915 210.298L230.917 210.007L230.92 209.447L230.977 207.184C231.039 204.16 231.121 201.136 231.162 198.134C231.223 195.11 231.264 192.086 231.304 189.084L231.375 184.559L231.425 180.034C231.485 173.985 231.524 167.959 231.5 161.91C231.508 137.759 230.675 113.58 230.472 89.4272L230.438 84.9014L230.425 83.7587L230.426 83.4675C230.427 83.3779 230.428 83.2658 230.428 83.1986L230.41 82.7728C230.371 82.1901 230.291 81.6295 230.147 81.0909C229.88 79.9914 229.403 78.9353 228.798 78.0353C228.485 77.5852 228.13 77.1572 227.754 76.7739L226.206 75.2405C222.064 71.1364 217.923 66.9874 213.824 62.8163C211.774 60.742 209.724 58.6452 207.696 56.5262L204.643 53.37L203.116 51.7919L202.74 51.4086L202.447 51.1155L202.133 50.8222L201.819 50.5514C200.939 49.8512 199.932 49.3518 198.86 49.0761C198.335 48.9383 197.788 48.8451 197.22 48.8191L197.009 48.8177L196.757 48.8161L196.231 48.8127L195.157 48.7834C192.315 48.7427 189.474 48.6572 186.633 48.5941L169.732 48.0819L161.207 47.8478C158.366 47.7847 155.524 47.7216 152.683 47.6585L148.431 47.5863L144.179 47.5365C141.337 47.4958 138.495 47.4775 135.674 47.4817C129.99 47.49 124.306 47.5206 118.643 47.5961Z" fill="#001064"/>
<path d="M108.415 29.6147L192.915 37.6521C195.931 37.9444 198.712 39.3105 200.713 41.5134L225.245 68.3586C227.45 70.7822 228.494 73.9564 228.14 77.1286L214.521 198.225C213.821 204.504 207.891 208.968 201.356 208.174L90.6428 194.529C84.2234 193.725 79.6194 188.152 80.2848 181.979L95.6074 39.6472C96.2729 33.4741 101.976 28.9846 108.415 29.6147Z" fill="white"/>
<path d="M108.126 29.4598C114.182 30.0263 120.243 30.5494 126.31 31.0072C129.332 31.2458 132.378 31.465 135.402 31.6819L139.95 31.9975L144.5 32.2913C147.526 32.4864 150.577 32.6622 153.605 32.8356L162.715 33.3364L180.936 34.338C183.964 34.5113 187.015 34.6871 190.041 34.8822L192.317 35.0183L192.614 35.0284C192.705 35.0381 192.795 35.0479 192.911 35.0384C193.137 35.0629 193.366 35.0657 193.59 35.1119C194.043 35.1608 194.514 35.2557 194.962 35.3481C196.776 35.742 198.506 36.4787 200.065 37.5268C200.833 38.0496 201.549 38.6327 202.213 39.2762L202.461 39.5229L202.669 39.7213L203.061 40.1155L203.845 40.9258L206.931 44.162C208.989 46.3195 211.045 48.4987 213.078 50.6755C217.166 55.0314 221.205 59.426 225.241 63.8423L226.757 65.5014L227.124 65.915L227.307 66.1326L227.53 66.3986C227.695 66.5704 227.835 66.7614 227.977 66.9306C228.117 67.1217 228.259 67.2909 228.398 67.482C229.494 69.0076 230.248 70.7164 230.649 72.5189C230.85 73.4201 230.957 74.3333 230.974 75.2367C230.973 75.4565 230.993 75.7005 230.969 75.9179C230.968 76.1377 230.965 76.3792 230.942 76.5966L230.904 76.9443L230.885 77.1182L230.871 77.2486L230.812 77.792L230.252 82.1294C227.29 105.294 223.649 128.385 220.914 151.574C220.219 157.37 219.547 163.169 218.942 168.975L218.472 173.322L218.025 177.672C217.71 180.584 217.443 183.48 217.151 186.395C216.859 189.31 216.592 192.206 216.322 195.123L216.133 197.302L216.074 197.845C216.065 197.932 216.055 198.019 216.043 198.127L216.01 198.432L215.922 199.038L215.867 199.34C215.855 199.448 215.823 199.533 215.788 199.639C215.433 201.228 214.764 202.761 213.793 204.107C211.898 206.805 208.846 208.762 205.429 209.426L204.148 209.618L202.859 209.676C202.424 209.673 201.991 209.649 201.559 209.624L201.4 209.607L201.264 209.592L200.97 209.56L200.404 209.499L195.87 209.053L177.704 207.332L168.612 206.459L159.523 205.543C147.421 204.323 135.333 202.972 123.24 201.665L105.103 199.683L96.0621 198.75L91.5352 198.239L90.969 198.178L90.6746 198.146L90.5388 198.131C90.4935 198.126 90.4482 198.122 90.3802 198.114C89.8844 198.039 89.4112 197.965 88.9176 197.868C88.4491 197.752 87.9603 197.611 87.4918 197.494C87.028 197.334 86.5665 197.152 86.1027 196.992C82.4406 195.475 79.4591 192.536 77.9412 188.986C77.1709 187.209 76.7818 185.298 76.7824 183.385C76.7887 182.902 76.8154 182.443 76.8445 181.962C76.8515 181.897 76.8562 181.854 76.8609 181.81L76.875 181.68L76.9055 181.397L76.9643 180.854L77.1765 178.678C77.7584 172.87 78.363 167.064 78.9901 161.26C79.6173 155.457 80.2672 149.656 80.9396 143.857C81.6121 138.059 82.262 132.258 82.9571 126.462C84.37 114.872 85.9414 103.3 87.6261 91.7394C89.2881 80.1766 91.0407 68.6237 92.5895 57.0487L93.1725 52.7138L93.7329 48.3765L94.8381 39.6342C95.0454 38.1393 95.5496 36.6545 96.309 35.3513C97.0911 34.0504 98.1129 32.8635 99.3353 31.9401C101.785 30.0499 104.999 29.1438 108.126 29.4598ZM108.056 30.1119C106.581 29.9745 105.099 30.1222 103.679 30.5405C102.282 30.9612 100.95 31.6308 99.8224 32.5205C98.6953 33.4102 97.7508 34.5176 97.0664 35.7629C96.3819 37.0083 95.9598 38.3701 95.8095 39.7611C95.6545 41.1957 95.5424 42.6569 95.4303 44.118L95.0737 48.4774L94.7398 52.8392L94.4058 57.201C93.5591 68.8519 92.8709 80.5199 92.1147 92.1805C91.3585 103.841 90.5344 115.494 89.5292 127.128C89.0378 132.946 88.4786 138.757 87.9193 144.568C87.3827 150.381 86.8235 156.192 86.2416 162C85.6597 167.808 85.0551 173.614 84.4506 179.42L84.2157 181.594L84.157 182.137L84.1264 182.42L84.1123 182.55C84.1076 182.593 84.1029 182.637 84.1006 182.659C84.0951 182.922 84.0692 183.161 84.0637 183.424C84.0688 184.436 84.2575 185.446 84.6594 186.391C85.0613 187.336 85.6312 188.211 86.376 188.952C87.0981 189.689 87.9952 190.292 88.9564 190.726C89.1985 190.818 89.4405 190.91 89.7052 191.005C89.9723 191.077 90.2167 191.148 90.4611 191.218C90.7305 191.269 90.9796 191.296 91.2467 191.369C91.2693 191.372 91.3146 191.376 91.3599 191.381L91.4958 191.396L91.7902 191.428L92.3563 191.489L96.8761 192.065L105.913 193.24L124.011 195.592C136.075 197.159 148.143 198.705 160.196 200.382L169.224 201.643L178.247 202.948L196.316 205.561L200.829 206.203L201.392 206.285L201.687 206.317L201.823 206.332L201.936 206.344C202.253 206.378 202.593 206.415 202.912 206.428L203.898 206.424L204.87 206.331C206.151 206.14 207.412 205.705 208.559 205.059C209.683 204.411 210.694 203.53 211.491 202.517C212.288 201.504 212.875 200.314 213.192 199.073C213.224 198.988 213.254 198.925 213.263 198.838L213.312 198.602L213.409 198.129L213.457 197.892C213.466 197.805 213.476 197.718 213.485 197.631L213.544 197.088L213.824 194.919C214.184 192.011 214.565 189.128 214.902 186.218C215.262 183.31 215.597 180.422 215.935 177.512L216.427 173.167L216.919 168.822C217.569 163.021 218.174 157.215 218.756 151.407C221.083 128.174 222.528 104.845 224.631 81.5659L225.033 77.2114L225.092 76.668L225.106 76.5376L225.118 76.4289L225.139 76.2333C225.153 76.1029 225.144 75.97 225.161 75.8179C225.175 75.6875 225.166 75.5546 225.16 75.4C225.128 74.8468 225.049 74.3105 224.924 73.7693C224.649 72.7061 224.164 71.6861 223.526 70.8035C223.447 70.6851 223.366 70.5884 223.265 70.4674C223.186 70.349 223.082 70.2498 223.001 70.1531L222.856 70.0055L222.671 69.8096L222.281 69.3936L220.763 67.7562C216.699 63.3809 212.661 58.9864 208.65 54.5508C206.644 52.333 204.661 50.1177 202.658 47.8782L199.698 44.5238L198.965 43.6749L198.598 43.2614L198.413 43.0655L198.268 42.9179C197.878 42.5019 197.462 42.1052 196.995 41.7688C196.062 41.0742 194.997 40.5413 193.861 40.2426C193.571 40.1673 193.281 40.0921 192.989 40.0385C192.833 39.9996 192.697 39.9849 192.539 39.9678C192.471 39.9605 192.357 39.9482 192.267 39.9384L191.972 39.9066L189.71 39.6402C186.68 39.2687 183.673 38.8997 180.643 38.5283L162.519 36.2177L153.456 35.0624C150.426 34.691 147.422 34.3003 144.389 33.9506L139.865 33.4176L135.338 32.9064C132.306 32.5567 129.294 32.2312 126.259 31.9033C120.167 31.2449 114.114 30.6566 108.056 30.1119Z" fill="#001064"/>
<path d="M192.623 37.5101C192.985 38.8246 193.277 40.1535 193.523 41.4775C193.792 42.8039 193.993 44.1231 194.194 45.4422C194.574 48.0779 194.883 50.7281 195.102 53.3685C195.212 54.6778 195.298 56.0064 195.383 57.335C195.426 57.9993 195.446 58.6612 195.491 59.3038L195.507 59.7893L195.518 59.9004L195.532 59.9898L195.558 60.1686L195.588 60.5237L195.615 60.7025C195.631 60.7701 195.649 60.8161 195.641 60.8813C195.79 61.8428 196.126 62.7587 196.585 63.6C197.044 64.4412 197.623 65.2294 198.33 65.8995C198.517 66.0737 198.659 66.243 198.871 66.3978L199.145 66.6253L199.291 66.7511L199.441 66.8552L199.739 67.0633C199.845 67.1408 199.928 67.2158 200.037 67.2715L200.686 67.6275C201.554 68.0731 202.529 68.3764 203.521 68.5276L203.904 68.5909L204.425 68.6472L205.441 68.7791C206.121 68.8525 206.798 68.9477 207.475 69.0428C208.829 69.2331 210.206 69.4259 211.557 69.638C214.283 70.0645 217 70.578 219.707 71.1784C221.072 71.4799 222.412 71.8006 223.77 72.1673C225.128 72.5339 226.463 72.8981 227.81 73.3734C226.429 73.642 225.033 73.8429 223.641 74.0004C222.247 74.1796 220.883 74.296 219.496 74.41C216.724 74.6162 213.982 74.7597 211.227 74.8138C209.85 74.8408 208.474 74.8461 207.099 74.8514C206.413 74.8432 205.726 74.835 205.04 74.8268L204.011 74.8036L203.486 74.7908L202.849 74.744C201.121 74.6232 199.381 74.1932 197.786 73.4711C197.393 73.2967 197.004 73.0787 196.613 72.8825C196.416 72.7953 196.246 72.667 196.052 72.5581L195.494 72.2119L195.216 72.0279L194.963 71.8246L194.457 71.4181C194.118 71.1616 193.807 70.8641 193.495 70.5665C191.005 68.1645 189.434 64.8942 189.2 61.5485C189.189 61.4374 189.176 61.348 189.165 61.2368L189.153 60.9277L189.151 60.3117L189.161 60.005L189.155 59.8504L189.169 59.72L189.2 59.2176C189.248 58.5631 189.296 57.9086 189.344 57.254C189.462 55.9475 189.583 54.6191 189.723 53.315C190.008 50.685 190.383 48.0648 190.828 45.4302C191.062 44.1141 191.318 42.8005 191.597 41.4893C191.904 40.1371 192.228 38.8308 192.623 37.5101Z" fill="#001064"/>
<path d="M161.409 94.3463C161.001 94.294 160.606 94.1436 160.326 93.9081C159.488 93.2017 159.447 91.9982 160.182 91.1936C165.442 85.4764 173.25 82.3821 181.094 82.7872C189.041 83.2055 196.397 87.1428 200.949 93.3174C201.556 94.1939 201.393 95.3713 200.467 96.0516C199.555 96.6338 198.329 96.4769 197.621 95.5873C193.866 90.4135 187.375 86.9863 180.872 86.653C174.267 86.3067 167.548 89.0412 163.152 93.7706C162.676 94.2089 162.022 94.4248 161.409 94.3463Z" fill="#001064" stroke="#001C63" stroke-width="2.98642"/>
<path d="M141.687 140.746C140.359 140.576 139.072 140.111 138.029 139.379C135.475 137.554 133.954 134.264 134.034 130.679C134.032 127.683 135.052 124.818 136.031 122.248L142.115 104.554C143.474 100.734 144.99 96.5343 144.089 92.5246C143.167 87.9132 138.786 84.257 133.856 83.8255C129.015 83.5052 124.121 86.5733 122.476 90.9559C122.122 92.009 120.917 92.4539 119.923 92.1269C118.827 91.7868 118.363 90.629 118.703 89.674C120.885 83.6626 127.589 79.5283 134.181 79.9728C140.772 80.4173 146.727 85.4732 148.044 91.733C149.116 96.763 147.288 101.721 145.901 105.738L139.729 123.32C138.879 125.708 138.016 128.194 137.997 130.588C137.978 132.982 138.83 135.088 140.343 136.18C141.092 136.775 142.202 137.017 143.264 136.854C143.686 136.808 144.544 136.618 145.061 135.885C145.694 135.068 146.974 134.832 147.927 135.454C148.779 136.062 149.025 137.292 148.378 138.207C147.358 139.575 145.792 140.373 143.988 140.641C143.13 140.831 142.402 140.837 141.687 140.746Z" fill="#001064" stroke="#001C63" stroke-width="2.98642"/>
<path d="M146.646 165.051C137.963 163.939 129.709 160.486 122.978 155.031C122.14 154.324 121.997 153.108 122.731 152.303C123.466 151.499 124.733 151.361 125.571 152.068C132.403 157.536 141.08 160.943 149.946 161.479C158.812 162.015 167.853 159.777 175.354 155.146C176.266 154.564 177.58 154.832 178.085 155.695C178.691 156.572 178.413 157.834 177.514 158.318C169.333 163.362 159.434 165.789 149.635 165.234C148.689 165.312 147.667 165.181 146.646 165.051Z" fill="#001064" stroke="#001C63" stroke-width="2.98642"/>
<path fill-rule="evenodd" clip-rule="evenodd" d="M171.449 113.853C172.033 114.218 172.745 114.274 173.651 114.076C173.95 114.011 174.099 113.88 174.734 113.184C175.316 112.546 175.901 111.598 176.489 110.567C176.918 109.817 177.239 108.891 177.49 107.818C177.752 106.699 178.622 106.08 179.433 106.436C180.244 106.793 180.689 107.989 180.427 109.108C180.103 110.491 179.636 111.919 178.912 113.188C178.319 114.226 177.541 115.531 176.648 116.509C176.618 116.543 176.586 116.577 176.554 116.613C176.004 117.219 175.271 118.027 174.12 118.278C172.925 118.538 171.524 118.578 170.165 117.729C169.436 117.273 168.647 116.504 167.991 115.611C167.353 114.743 166.684 113.544 166.425 112.156C166.059 110.196 165.953 108.49 165.965 106.549C165.973 105.375 166.67 104.427 167.522 104.433C168.374 104.438 169.059 105.395 169.051 106.569C169.04 108.233 169.129 109.557 169.414 111.08C169.475 111.407 169.708 111.958 170.164 112.578C170.602 113.175 171.098 113.634 171.449 113.853Z" fill="#001064" stroke="#001C63" stroke-width="2.98642" stroke-linecap="round" stroke-linejoin="round"/>
<path fill-rule="evenodd" clip-rule="evenodd" d="M125.298 111.109C124.301 110.993 123.276 110.664 122.43 110.118C119.666 108.336 119.117 105.129 118.787 103.205C118.77 103.104 118.753 103.006 118.737 102.912C118.553 101.863 119.235 100.859 120.26 100.67C121.285 100.482 122.265 101.18 122.449 102.229C122.851 104.524 123.183 106.039 124.441 106.85C124.733 107.038 125.196 107.21 125.726 107.272C126.26 107.334 126.699 107.267 126.968 107.151C127.627 106.866 127.936 106.72 128.233 106.476C128.363 106.368 128.436 106.282 128.505 106.18C128.588 106.059 128.656 105.934 128.792 105.683C128.816 105.64 128.841 105.593 128.869 105.542C129.039 105.232 129.203 104.901 129.322 104.59C129.381 104.437 129.422 104.307 129.447 104.202C129.459 104.15 129.466 104.11 129.47 104.08C129.474 104.051 129.474 104.037 129.474 104.037C129.481 102.97 130.331 102.111 131.373 102.118C132.414 102.125 133.253 102.995 133.246 104.061C133.241 104.793 133.031 105.486 132.833 106.001C132.626 106.542 132.37 107.044 132.16 107.427C132.136 107.472 132.111 107.519 132.085 107.567C131.797 108.101 131.413 108.812 130.596 109.485C129.855 110.094 129.095 110.423 128.496 110.681C128.476 110.69 128.455 110.699 128.434 110.708C127.416 111.148 126.29 111.225 125.298 111.109Z" fill="#001064" stroke="#001C63" stroke-width="2.98642" stroke-linecap="round" stroke-linejoin="round"/>
</svg>
