<svg width="40" height="49" viewBox="0 0 40 49" fill="none" xmlns="http://www.w3.org/2000/svg">
<path d="M29.2451 5.76172H9.1089C8.29414 5.76172 7.61905 6.41684 7.61905 7.21754V46.5459C7.61905 47.3466 8.27086 48.0017 9.1089 48.0017H38.5102C39.3249 48.0017 40 47.3466 40 46.5459V14.0357C40 13.6474 39.837 13.2835 39.5577 13.0166L32.5973 6.19847C32.318 5.93156 31.9455 5.78598 31.5498 5.78598L29.2451 5.76172Z" fill="#001064"/>
<path d="M22.5791 0.960938H2.44288C1.62812 0.960938 0.953033 1.60117 0.953033 2.38368V40.8182C0.953033 41.6007 1.60484 42.2409 2.44288 42.2409H31.8441C32.6589 42.2409 33.334 41.6007 33.334 40.8182V9.04683C33.334 8.66744 33.171 8.31175 32.8917 8.05092L25.9313 1.38776C25.6519 1.12692 25.2795 0.98465 24.8837 0.98465L22.5791 0.960938Z" fill="white"/>
<path fill-rule="evenodd" clip-rule="evenodd" d="M23.2019 0H2.53454C1.20734 0 0.00018692 1.02368 0.00018692 2.41668V40.7833C0.00018692 42.1665 1.17292 43.2 2.53454 43.2H32.7039C34.0311 43.2 35.2383 42.1763 35.2383 40.7833V9.06807C35.2383 8.39316 34.9401 7.77947 34.4635 7.34411L27.3207 0.692165L27.3161 0.687982C26.8345 0.250542 26.2079 0.0249982 25.5674 0.0236768L23.2019 0ZM23.1918 1.99291L25.5566 2.01658H25.5617C25.7293 2.01658 25.8635 2.07362 25.9538 2.15407L33.0948 8.80427L33.0994 8.80845C33.193 8.89356 33.2271 8.98798 33.2271 9.06807V40.7833C33.2271 40.9526 33.0488 41.2071 32.7039 41.2071H2.53454C2.17628 41.2071 2.01134 40.9624 2.01134 40.7833V2.41668C2.01134 2.24744 2.18963 1.99291 2.53454 1.99291H23.1918Z" fill="#001066"/>
<path d="M26.6888 0.960938L26.6661 7.10494C26.6661 7.94494 27.3464 8.64094 28.2081 8.64094H34.2852" fill="#001C63"/>
<rect x="6.66602" y="14.3984" width="20.9524" height="2" fill="#001C63"/>
<rect x="6.66602" y="21.1211" width="10.4762" height="2" fill="#001C63"/>
<rect x="6.66602" y="27.8398" width="16.1905" height="2" fill="#001C63"/>
</svg>
