<svg width="135" height="125" viewBox="0 0 135 125" fill="none" xmlns="http://www.w3.org/2000/svg">
<path d="M24.3213 27.2564L60.4965 25.012C61.9603 24.9212 63.4538 26.2052 63.7968 27.8666L80.1152 106.891C80.4582 108.552 79.5679 109.984 78.0624 110.077L25.2424 113.354C23.7786 113.445 22.2851 112.161 21.9421 110.5L8.54498 45.6222C8.37864 44.8167 8.51545 44.0434 8.90295 43.4585L18.4862 28.5362C18.8737 27.9513 19.4805 27.6077 20.1914 27.5636L24.3213 27.2564Z" stroke="#001066" stroke-width="4.4086"/>
<rect width="72.6463" height="74.9278" rx="18.6544" transform="matrix(0.998403 0.060023 -0.139695 0.99048 49.0312 43.3667)" fill="#001C63"/>
<rect x="2.54842" y="3.11762" width="66.7109" height="68.9923" rx="15.6866" transform="matrix(0.998403 0.060023 -0.139695 0.99048 60.9103 44.3015)" fill="#FFC47F" stroke="#001C63" stroke-width="5.93548"/>
<mask id="mask0" mask-type="alpha" maskUnits="userSpaceOnUse" x="56" y="49" width="72" height="70">
<rect width="64.7169" height="67.2535" rx="12.7189" transform="matrix(0.998402 0.0600305 -0.139677 0.99048 64.4121 48.5107)" fill="white"/>
</mask>
<g mask="url(#mask0)">
<rect width="22.5665" height="94.1043" transform="matrix(0.771635 0.563436 -0.608288 0.84642 122.34 43.499)" fill="white"/>
<rect width="7.79615" height="93.1178" transform="matrix(0.768374 0.567488 -0.603557 0.849422 144.15 61.9307)" fill="white"/>
</g>
<ellipse rx="8.37524" ry="8.86497" transform="matrix(0.997147 0.0727316 -0.115582 0.992959 91.6236 82.5318)" fill="#001C63"/>
<rect width="8.00594" height="17.3081" transform="matrix(0.995752 0.0920716 -0.0913799 0.995816 87.8789 82.1279)" fill="#001C63"/>
<path d="M55.5078 25.3812C57.7836 19.2743 60.5984 14.6601 65.0598 9.98816C67.2408 7.70432 72.3476 4.30998 75.3814 3.7948C79.1683 3.15173 83.0296 2.3856 86.8984 3.79478C96.0508 7.1284 100.575 15.9979 103.078 25.3197C103.75 27.8211 103.871 30.267 103.871 32.8534C103.871 36.1792 104.135 39.4869 104.135 42.8164C104.135 44.2719 104.135 45.7274 104.135 47.1829C104.135 47.7785 104.366 51.7181 103.343 50.2886" stroke="#001064" stroke-width="5" stroke-linecap="round" stroke-linejoin="round"/>
</svg>
