<svg width="209" height="198" viewBox="0 0 209 198" fill="none" xmlns="http://www.w3.org/2000/svg">
<path d="M36.8723 46.4728L104.063 38.8565C106.782 38.5483 109.272 40.3902 109.563 42.9536L123.384 164.884C123.675 167.447 121.738 169.791 118.941 170.108L20.8346 181.229C18.1159 181.537 15.6255 179.695 15.335 177.132L3.98787 77.0288C3.84699 75.7859 4.25866 74.5591 5.09393 73.599L25.8453 49.139C26.6805 48.1788 27.8705 47.5719 29.1911 47.4222L36.8723 46.4728Z" stroke="#001066" stroke-width="4.4086"/>
<rect x="66.1426" y="68.3018" width="124.645" height="116.166" rx="18.6544" transform="rotate(5.26286 66.1426 68.3018)" fill="#001C63"/>
<rect x="87.4018" y="73.2404" width="118.71" height="110.23" rx="15.6866" transform="rotate(5.26286 87.4018 73.2404)" fill="#FFC47F" stroke="#001C63" stroke-width="5.93548"/>
<mask id="mask0" mask-type="alpha" maskUnits="userSpaceOnUse" x="83" y="77" width="119" height="113">
<rect x="91.7734" y="76.6233" width="111.078" height="104.295" rx="12.7189" transform="rotate(5.26286 91.7734 76.6233)" fill="white"/>
</mask>
<g mask="url(#mask0)">
<rect x="188.649" y="68.5166" width="38.1567" height="156.018" transform="rotate(35.2629 188.649 68.5166)" fill="white"/>
<rect x="225.755" y="98.3315" width="13.3699" height="156.018" transform="rotate(35.2629 225.755 98.3315)" fill="white"/>
</g>
<circle cx="141.649" cy="131.661" r="14" transform="rotate(5.26286 141.649 131.661)" fill="#001C63"/>
<rect x="135.568" y="131.001" width="13" height="28" transform="rotate(5.26286 135.568 131.001)" fill="#001C63"/>
<path d="M83 39.2057C86.6956 29.3267 91.2663 21.8623 98.511 14.3046C102.053 10.6101 110.345 5.11912 115.272 4.28572C121.421 3.24545 127.691 2.00608 133.974 4.2857C148.836 9.67843 156.182 24.0264 160.247 39.1062C161.338 43.1527 161.535 47.1093 161.535 51.2934C161.535 56.6735 161.964 62.0242 161.964 67.4103C161.964 69.7648 161.964 72.1194 161.964 74.4739C161.964 75.4375 162.339 81.8105 160.676 79.498" stroke="#001064" stroke-width="5" stroke-linecap="round" stroke-linejoin="round"/>
</svg>
