<svg width="18" height="18" viewBox="0 0 18 18" fill="none" xmlns="http://www.w3.org/2000/svg">
<path d="M13.1038 1.6686C13.3158 1.45667 13.5674 1.28855 13.8443 1.17385C14.1212 1.05916 14.418 1.00012 14.7177 1.00012C15.0174 1.00012 15.3142 1.05916 15.5911 1.17385C15.868 1.28855 16.1196 1.45667 16.3315 1.6686C16.5435 1.88053 16.7116 2.13213 16.8263 2.40904C16.941 2.68594 17 2.98272 17 3.28244C17 3.58216 16.941 3.87895 16.8263 4.15585C16.7116 4.43275 16.5435 4.68435 16.3315 4.89629L5.43807 15.7897L1 17.0001L2.21038 12.562L13.1038 1.6686Z" stroke="#C3C5D2" stroke-width="2" stroke-linecap="round" stroke-linejoin="round"/>
</svg>
