<svg width="208" height="267" viewBox="0 0 208 267" fill="none" xmlns="http://www.w3.org/2000/svg">
<mask id="path-1-outside-1" maskUnits="userSpaceOnUse" x="0" y="19.9375" width="195" height="247" fill="black">
<rect fill="white" y="19.9375" width="195" height="247"/>
<path d="M16.5317 28.7207C24.7478 28.3054 32.9458 27.8358 41.1619 27.3483C45.261 27.0954 49.36 26.8426 53.4771 26.5718L59.6346 26.1745L65.7922 25.7591L78.0892 24.8923L90.3863 23.9713L114.962 22.1113L127.259 21.2264L130.329 21.0097L130.708 20.9917C130.835 20.9917 130.961 20.9736 131.106 20.9736C131.395 20.9556 131.684 20.9375 131.972 20.9375C132.55 20.9375 133.128 20.9556 133.706 21.0097C136.053 21.2084 138.329 21.8585 140.405 22.9239C141.453 23.4476 142.428 24.0797 143.349 24.802L143.692 25.0729L143.999 25.3257L144.595 25.8133L145.786 26.7885L150.517 30.7433L159.979 38.6529C166.263 43.944 172.547 49.2713 178.795 54.5985L181.143 56.603L181.72 57.1087L182.009 57.3615L182.334 57.6504C182.551 57.8491 182.768 58.0477 182.984 58.2644C183.183 58.4811 183.4 58.6798 183.598 58.8965C185.206 60.6301 186.451 62.6887 187.264 64.9099C187.679 66.0115 187.968 67.1673 188.167 68.323C188.221 68.6119 188.257 68.9009 188.293 69.1898C188.329 69.4787 188.366 69.7677 188.366 70.0747L188.384 70.5081L188.402 70.7248V70.9234L188.42 71.6999L188.564 77.8579C189.341 110.742 189.575 143.627 190.551 176.511C190.785 184.728 191.038 192.945 191.345 201.161L191.796 213.477L192.284 225.793L192.808 238.109L192.952 241.197L192.988 241.974L193.006 242.371V242.786V243.202L192.988 243.617L192.97 244.032C192.97 244.177 192.952 244.303 192.934 244.448C192.772 246.633 192.158 248.8 191.183 250.768C189.214 254.723 185.675 257.865 181.468 259.328C180.42 259.689 179.337 259.96 178.235 260.122C177.965 260.158 177.676 260.195 177.405 260.213C177.134 260.249 176.845 260.249 176.574 260.267L176.357 260.285H176.159L175.78 260.303L175.003 260.339L168.846 260.574L144.197 261.513L131.882 261.982L119.549 262.416C103.117 262.994 86.6846 263.463 70.2523 263.933L45.604 264.655L33.2709 265.016L27.1133 265.197L25.5604 265.233C25.2534 265.233 24.9645 265.233 24.6575 265.233L23.7546 265.179C22.5448 265.088 21.353 264.872 20.1793 264.565C17.8499 263.915 15.6288 262.813 13.7147 261.35C11.8007 259.869 10.1574 258.028 8.92954 255.933C7.70164 253.838 6.88906 251.508 6.54597 249.089L6.43762 248.186C6.41957 247.879 6.40151 247.59 6.38345 247.283L6.31122 245.73L6.18482 242.642C5.84173 234.425 5.53476 226.208 5.24584 217.992C4.93886 209.775 4.64995 201.559 4.37909 193.342C4.10823 185.125 3.81931 176.909 3.58456 168.692C3.07896 152.241 2.75392 135.79 2.465 119.356C2.19414 102.905 1.97746 86.4718 1.61631 70.0205L1.47185 63.8625L1.32739 57.7046L1.00236 45.3526C0.966244 43.2397 1.34545 41.145 2.10386 39.1766C2.86227 37.2263 3.99988 35.4024 5.42641 33.8854C6.85294 32.3505 8.58645 31.1044 10.4825 30.2196C12.3785 29.3347 14.437 28.8291 16.5317 28.7207ZM16.5678 29.2625C14.5454 29.3708 12.5591 29.8765 10.7353 30.7252C8.89343 31.6101 7.23215 32.82 5.87785 34.3008C4.52354 35.7816 3.4401 37.5333 2.73587 39.4294C2.04969 41.3075 1.72465 43.33 1.79688 45.3345C1.97746 49.4338 2.19414 53.5511 2.41083 57.6504L2.73587 63.8084L3.07896 69.9663C3.99988 86.3815 5.06527 102.797 6.07648 119.212C7.06963 135.627 8.02667 152.042 8.8212 168.475C9.21846 176.692 9.57961 184.909 9.94075 193.107C10.32 201.324 10.663 209.54 11.0061 217.757C11.3492 225.974 11.6743 234.19 11.9812 242.407L12.0896 245.495L12.1438 247.012C12.1618 247.229 12.1618 247.427 12.1799 247.644L12.2521 248.276C12.4868 249.937 13.0466 251.563 13.8773 253.025C14.726 254.488 15.8455 255.788 17.1818 256.818C18.518 257.865 20.0529 258.642 21.66 259.093C22.4726 259.328 23.3032 259.472 24.1519 259.544L24.7839 259.581C25.0006 259.581 25.2173 259.581 25.4159 259.581L26.9327 259.562L33.0903 259.454L45.4235 259.237L70.0898 258.822C86.522 258.551 102.972 258.244 119.404 258.064L131.738 257.919L144.071 257.811L168.737 257.612L174.895 257.558H175.671H176.05H176.249H176.43C176.664 257.54 176.899 257.558 177.134 257.522C177.369 257.504 177.603 257.486 177.838 257.468C178.777 257.359 179.698 257.161 180.601 256.872C182.407 256.294 184.086 255.373 185.549 254.145C187.011 252.935 188.221 251.418 189.124 249.739C190.027 248.059 190.587 246.199 190.767 244.285C190.785 244.159 190.803 244.05 190.803 243.924L190.821 243.563L190.839 243.202V242.84V242.479V242.1L190.821 241.323L190.749 238.235L190.424 225.901L190.063 213.567L189.666 201.234C189.395 193.017 189.106 184.8 188.763 176.584C187.481 143.717 185.476 110.887 184.014 78.0385L183.743 71.8805L183.707 71.104V70.9054L183.689 70.7428L183.671 70.4178C183.671 70.2011 183.635 69.9844 183.598 69.7677C183.58 69.551 183.544 69.3343 183.49 69.1176C183.328 68.2508 183.093 67.402 182.786 66.5894C182.479 65.7768 182.082 64.9822 181.612 64.2418C181.143 63.5014 180.601 62.8152 180.005 62.1651C179.861 62.0025 179.698 61.8581 179.554 61.6955C179.409 61.533 179.229 61.3885 179.066 61.2441L178.813 61.0274L178.524 60.7745L177.928 60.287L175.581 58.3005C169.297 52.9913 163.049 47.6641 156.801 42.3007L147.466 34.2466L142.807 30.2015L141.651 29.1902L141.128 28.7027L140.839 28.4498L140.586 28.2331C139.9 27.6733 139.177 27.1677 138.383 26.7343C136.83 25.8855 135.096 25.3257 133.327 25.109C132.875 25.0548 132.442 25.0187 131.99 25.0187C131.774 25.0187 131.539 25.0187 131.322 25.0187C131.214 25.0187 131.07 25.0187 130.943 25.0368L130.564 25.0548L127.476 25.1632L115.143 25.5605L90.4947 26.3009L78.1615 26.6801L65.8283 27.0954L59.6707 27.3121L53.5132 27.5469C49.4142 27.7094 45.2971 27.872 41.1981 28.0525C32.982 28.4318 24.7659 28.8291 16.5678 29.2625Z"/>
</mask>
<path d="M16.5317 28.7207C24.7478 28.3054 32.9458 27.8358 41.1619 27.3483C45.261 27.0954 49.36 26.8426 53.4771 26.5718L59.6346 26.1745L65.7922 25.7591L78.0892 24.8923L90.3863 23.9713L114.962 22.1113L127.259 21.2264L130.329 21.0097L130.708 20.9917C130.835 20.9917 130.961 20.9736 131.106 20.9736C131.395 20.9556 131.684 20.9375 131.972 20.9375C132.55 20.9375 133.128 20.9556 133.706 21.0097C136.053 21.2084 138.329 21.8585 140.405 22.9239C141.453 23.4476 142.428 24.0797 143.349 24.802L143.692 25.0729L143.999 25.3257L144.595 25.8133L145.786 26.7885L150.517 30.7433L159.979 38.6529C166.263 43.944 172.547 49.2713 178.795 54.5985L181.143 56.603L181.72 57.1087L182.009 57.3615L182.334 57.6504C182.551 57.8491 182.768 58.0477 182.984 58.2644C183.183 58.4811 183.4 58.6798 183.598 58.8965C185.206 60.6301 186.451 62.6887 187.264 64.9099C187.679 66.0115 187.968 67.1673 188.167 68.323C188.221 68.6119 188.257 68.9009 188.293 69.1898C188.329 69.4787 188.366 69.7677 188.366 70.0747L188.384 70.5081L188.402 70.7248V70.9234L188.42 71.6999L188.564 77.8579C189.341 110.742 189.575 143.627 190.551 176.511C190.785 184.728 191.038 192.945 191.345 201.161L191.796 213.477L192.284 225.793L192.808 238.109L192.952 241.197L192.988 241.974L193.006 242.371V242.786V243.202L192.988 243.617L192.97 244.032C192.97 244.177 192.952 244.303 192.934 244.448C192.772 246.633 192.158 248.8 191.183 250.768C189.214 254.723 185.675 257.865 181.468 259.328C180.42 259.689 179.337 259.96 178.235 260.122C177.965 260.158 177.676 260.195 177.405 260.213C177.134 260.249 176.845 260.249 176.574 260.267L176.357 260.285H176.159L175.78 260.303L175.003 260.339L168.846 260.574L144.197 261.513L131.882 261.982L119.549 262.416C103.117 262.994 86.6846 263.463 70.2523 263.933L45.604 264.655L33.2709 265.016L27.1133 265.197L25.5604 265.233C25.2534 265.233 24.9645 265.233 24.6575 265.233L23.7546 265.179C22.5448 265.088 21.353 264.872 20.1793 264.565C17.8499 263.915 15.6288 262.813 13.7147 261.35C11.8007 259.869 10.1574 258.028 8.92954 255.933C7.70164 253.838 6.88906 251.508 6.54597 249.089L6.43762 248.186C6.41957 247.879 6.40151 247.59 6.38345 247.283L6.31122 245.73L6.18482 242.642C5.84173 234.425 5.53476 226.208 5.24584 217.992C4.93886 209.775 4.64995 201.559 4.37909 193.342C4.10823 185.125 3.81931 176.909 3.58456 168.692C3.07896 152.241 2.75392 135.79 2.465 119.356C2.19414 102.905 1.97746 86.4718 1.61631 70.0205L1.47185 63.8625L1.32739 57.7046L1.00236 45.3526C0.966244 43.2397 1.34545 41.145 2.10386 39.1766C2.86227 37.2263 3.99988 35.4024 5.42641 33.8854C6.85294 32.3505 8.58645 31.1044 10.4825 30.2196C12.3785 29.3347 14.437 28.8291 16.5317 28.7207ZM16.5678 29.2625C14.5454 29.3708 12.5591 29.8765 10.7353 30.7252C8.89343 31.6101 7.23215 32.82 5.87785 34.3008C4.52354 35.7816 3.4401 37.5333 2.73587 39.4294C2.04969 41.3075 1.72465 43.33 1.79688 45.3345C1.97746 49.4338 2.19414 53.5511 2.41083 57.6504L2.73587 63.8084L3.07896 69.9663C3.99988 86.3815 5.06527 102.797 6.07648 119.212C7.06963 135.627 8.02667 152.042 8.8212 168.475C9.21846 176.692 9.57961 184.909 9.94075 193.107C10.32 201.324 10.663 209.54 11.0061 217.757C11.3492 225.974 11.6743 234.19 11.9812 242.407L12.0896 245.495L12.1438 247.012C12.1618 247.229 12.1618 247.427 12.1799 247.644L12.2521 248.276C12.4868 249.937 13.0466 251.563 13.8773 253.025C14.726 254.488 15.8455 255.788 17.1818 256.818C18.518 257.865 20.0529 258.642 21.66 259.093C22.4726 259.328 23.3032 259.472 24.1519 259.544L24.7839 259.581C25.0006 259.581 25.2173 259.581 25.4159 259.581L26.9327 259.562L33.0903 259.454L45.4235 259.237L70.0898 258.822C86.522 258.551 102.972 258.244 119.404 258.064L131.738 257.919L144.071 257.811L168.737 257.612L174.895 257.558H175.671H176.05H176.249H176.43C176.664 257.54 176.899 257.558 177.134 257.522C177.369 257.504 177.603 257.486 177.838 257.468C178.777 257.359 179.698 257.161 180.601 256.872C182.407 256.294 184.086 255.373 185.549 254.145C187.011 252.935 188.221 251.418 189.124 249.739C190.027 248.059 190.587 246.199 190.767 244.285C190.785 244.159 190.803 244.05 190.803 243.924L190.821 243.563L190.839 243.202V242.84V242.479V242.1L190.821 241.323L190.749 238.235L190.424 225.901L190.063 213.567L189.666 201.234C189.395 193.017 189.106 184.8 188.763 176.584C187.481 143.717 185.476 110.887 184.014 78.0385L183.743 71.8805L183.707 71.104V70.9054L183.689 70.7428L183.671 70.4178C183.671 70.2011 183.635 69.9844 183.598 69.7677C183.58 69.551 183.544 69.3343 183.49 69.1176C183.328 68.2508 183.093 67.402 182.786 66.5894C182.479 65.7768 182.082 64.9822 181.612 64.2418C181.143 63.5014 180.601 62.8152 180.005 62.1651C179.861 62.0025 179.698 61.8581 179.554 61.6955C179.409 61.533 179.229 61.3885 179.066 61.2441L178.813 61.0274L178.524 60.7745L177.928 60.287L175.581 58.3005C169.297 52.9913 163.049 47.6641 156.801 42.3007L147.466 34.2466L142.807 30.2015L141.651 29.1902L141.128 28.7027L140.839 28.4498L140.586 28.2331C139.9 27.6733 139.177 27.1677 138.383 26.7343C136.83 25.8855 135.096 25.3257 133.327 25.109C132.875 25.0548 132.442 25.0187 131.99 25.0187C131.774 25.0187 131.539 25.0187 131.322 25.0187C131.214 25.0187 131.07 25.0187 130.943 25.0368L130.564 25.0548L127.476 25.1632L115.143 25.5605L90.4947 26.3009L78.1615 26.6801L65.8283 27.0954L59.6707 27.3121L53.5132 27.5469C49.4142 27.7094 45.2971 27.872 41.1981 28.0525C32.982 28.4318 24.7659 28.8291 16.5678 29.2625Z" fill="#001064"/>
<path d="M16.5317 28.7207C24.7478 28.3054 32.9458 27.8358 41.1619 27.3483C45.261 27.0954 49.36 26.8426 53.4771 26.5718L59.6346 26.1745L65.7922 25.7591L78.0892 24.8923L90.3863 23.9713L114.962 22.1113L127.259 21.2264L130.329 21.0097L130.708 20.9917C130.835 20.9917 130.961 20.9736 131.106 20.9736C131.395 20.9556 131.684 20.9375 131.972 20.9375C132.55 20.9375 133.128 20.9556 133.706 21.0097C136.053 21.2084 138.329 21.8585 140.405 22.9239C141.453 23.4476 142.428 24.0797 143.349 24.802L143.692 25.0729L143.999 25.3257L144.595 25.8133L145.786 26.7885L150.517 30.7433L159.979 38.6529C166.263 43.944 172.547 49.2713 178.795 54.5985L181.143 56.603L181.72 57.1087L182.009 57.3615L182.334 57.6504C182.551 57.8491 182.768 58.0477 182.984 58.2644C183.183 58.4811 183.4 58.6798 183.598 58.8965C185.206 60.6301 186.451 62.6887 187.264 64.9099C187.679 66.0115 187.968 67.1673 188.167 68.323C188.221 68.6119 188.257 68.9009 188.293 69.1898C188.329 69.4787 188.366 69.7677 188.366 70.0747L188.384 70.5081L188.402 70.7248V70.9234L188.42 71.6999L188.564 77.8579C189.341 110.742 189.575 143.627 190.551 176.511C190.785 184.728 191.038 192.945 191.345 201.161L191.796 213.477L192.284 225.793L192.808 238.109L192.952 241.197L192.988 241.974L193.006 242.371V242.786V243.202L192.988 243.617L192.97 244.032C192.97 244.177 192.952 244.303 192.934 244.448C192.772 246.633 192.158 248.8 191.183 250.768C189.214 254.723 185.675 257.865 181.468 259.328C180.42 259.689 179.337 259.96 178.235 260.122C177.965 260.158 177.676 260.195 177.405 260.213C177.134 260.249 176.845 260.249 176.574 260.267L176.357 260.285H176.159L175.78 260.303L175.003 260.339L168.846 260.574L144.197 261.513L131.882 261.982L119.549 262.416C103.117 262.994 86.6846 263.463 70.2523 263.933L45.604 264.655L33.2709 265.016L27.1133 265.197L25.5604 265.233C25.2534 265.233 24.9645 265.233 24.6575 265.233L23.7546 265.179C22.5448 265.088 21.353 264.872 20.1793 264.565C17.8499 263.915 15.6288 262.813 13.7147 261.35C11.8007 259.869 10.1574 258.028 8.92954 255.933C7.70164 253.838 6.88906 251.508 6.54597 249.089L6.43762 248.186C6.41957 247.879 6.40151 247.59 6.38345 247.283L6.31122 245.73L6.18482 242.642C5.84173 234.425 5.53476 226.208 5.24584 217.992C4.93886 209.775 4.64995 201.559 4.37909 193.342C4.10823 185.125 3.81931 176.909 3.58456 168.692C3.07896 152.241 2.75392 135.79 2.465 119.356C2.19414 102.905 1.97746 86.4718 1.61631 70.0205L1.47185 63.8625L1.32739 57.7046L1.00236 45.3526C0.966244 43.2397 1.34545 41.145 2.10386 39.1766C2.86227 37.2263 3.99988 35.4024 5.42641 33.8854C6.85294 32.3505 8.58645 31.1044 10.4825 30.2196C12.3785 29.3347 14.437 28.8291 16.5317 28.7207ZM16.5678 29.2625C14.5454 29.3708 12.5591 29.8765 10.7353 30.7252C8.89343 31.6101 7.23215 32.82 5.87785 34.3008C4.52354 35.7816 3.4401 37.5333 2.73587 39.4294C2.04969 41.3075 1.72465 43.33 1.79688 45.3345C1.97746 49.4338 2.19414 53.5511 2.41083 57.6504L2.73587 63.8084L3.07896 69.9663C3.99988 86.3815 5.06527 102.797 6.07648 119.212C7.06963 135.627 8.02667 152.042 8.8212 168.475C9.21846 176.692 9.57961 184.909 9.94075 193.107C10.32 201.324 10.663 209.54 11.0061 217.757C11.3492 225.974 11.6743 234.19 11.9812 242.407L12.0896 245.495L12.1438 247.012C12.1618 247.229 12.1618 247.427 12.1799 247.644L12.2521 248.276C12.4868 249.937 13.0466 251.563 13.8773 253.025C14.726 254.488 15.8455 255.788 17.1818 256.818C18.518 257.865 20.0529 258.642 21.66 259.093C22.4726 259.328 23.3032 259.472 24.1519 259.544L24.7839 259.581C25.0006 259.581 25.2173 259.581 25.4159 259.581L26.9327 259.562L33.0903 259.454L45.4235 259.237L70.0898 258.822C86.522 258.551 102.972 258.244 119.404 258.064L131.738 257.919L144.071 257.811L168.737 257.612L174.895 257.558H175.671H176.05H176.249H176.43C176.664 257.54 176.899 257.558 177.134 257.522C177.369 257.504 177.603 257.486 177.838 257.468C178.777 257.359 179.698 257.161 180.601 256.872C182.407 256.294 184.086 255.373 185.549 254.145C187.011 252.935 188.221 251.418 189.124 249.739C190.027 248.059 190.587 246.199 190.767 244.285C190.785 244.159 190.803 244.05 190.803 243.924L190.821 243.563L190.839 243.202V242.84V242.479V242.1L190.821 241.323L190.749 238.235L190.424 225.901L190.063 213.567L189.666 201.234C189.395 193.017 189.106 184.8 188.763 176.584C187.481 143.717 185.476 110.887 184.014 78.0385L183.743 71.8805L183.707 71.104V70.9054L183.689 70.7428L183.671 70.4178C183.671 70.2011 183.635 69.9844 183.598 69.7677C183.58 69.551 183.544 69.3343 183.49 69.1176C183.328 68.2508 183.093 67.402 182.786 66.5894C182.479 65.7768 182.082 64.9822 181.612 64.2418C181.143 63.5014 180.601 62.8152 180.005 62.1651C179.861 62.0025 179.698 61.8581 179.554 61.6955C179.409 61.533 179.229 61.3885 179.066 61.2441L178.813 61.0274L178.524 60.7745L177.928 60.287L175.581 58.3005C169.297 52.9913 163.049 47.6641 156.801 42.3007L147.466 34.2466L142.807 30.2015L141.651 29.1902L141.128 28.7027L140.839 28.4498L140.586 28.2331C139.9 27.6733 139.177 27.1677 138.383 26.7343C136.83 25.8855 135.096 25.3257 133.327 25.109C132.875 25.0548 132.442 25.0187 131.99 25.0187C131.774 25.0187 131.539 25.0187 131.322 25.0187C131.214 25.0187 131.07 25.0187 130.943 25.0368L130.564 25.0548L127.476 25.1632L115.143 25.5605L90.4947 26.3009L78.1615 26.6801L65.8283 27.0954L59.6707 27.3121L53.5132 27.5469C49.4142 27.7094 45.2971 27.872 41.1981 28.0525C32.982 28.4318 24.7659 28.8291 16.5678 29.2625Z" stroke="#001064" stroke-width="2" mask="url(#path-1-outside-1)"/>
<path d="M183.5 62.4375L137.5 24.4375H131.5L18 28.9375H14.5L6.5 32.9375L2 39.4375L1.5 46.4375L2.5 68.9375L10 241.938V250.438L17 259.438L27 262.938L172 259.438H181L188.5 253.438L192 243.938L186.5 83.9375L185 68.9375L183.5 62.4375Z" fill="#001064"/>
<path d="M195 41.4375L156.5 7.9375L153 5.4375L147 3.9375H134L28.5 9.4375L22.5 11.9375L17 17.4375L15.5 24.4375L17 51.4375L22.5 214.938L24 230.438L29 238.438L36.5 241.938L191 239.438L200 234.938L204.5 229.438L206.5 221.438L201 106.938L200 50.4375L195 41.4375Z" fill="#FFEDE9"/>
<rect width="131.774" height="26.6297" transform="matrix(0.999305 -0.0372765 0.0644246 0.997923 39.208 64.9844)" fill="#FFE9BE"/>
<rect width="131.774" height="26.6297" transform="matrix(0.999305 -0.0372765 0.0644246 0.997923 43.873 138.488)" fill="#DED3FF"/>
<rect width="131.774" height="26.6297" transform="matrix(0.999305 -0.0372765 0.0644246 0.997923 43.873 178.156)" fill="#BAF0DF"/>
<rect width="70.366" height="26.6297" transform="matrix(0.999305 -0.0372765 0.0644246 0.997923 44.3115 99.4531)" fill="white"/>
<rect width="48.1909" height="26.6297" transform="matrix(0.999305 -0.0372765 0.0644246 0.997923 126.713 96.8672)" fill="#D3ECFF"/>
<mask id="path-9-outside-2" maskUnits="userSpaceOnUse" x="13.9941" y="0" width="195" height="247" fill="black">
<rect fill="white" x="13.9941" width="195" height="247"/>
<path d="M30.5258 8.78321C38.7419 8.36787 46.94 7.89835 55.1561 7.41077C59.2551 7.15795 63.3541 6.90513 67.4712 6.63425L73.6288 6.23696L79.7863 5.82162L92.0834 4.95481L104.38 4.03383L128.957 2.1738L141.254 1.28894L144.323 1.07223L144.703 1.05418C144.829 1.05418 144.955 1.03612 145.1 1.03612C145.389 1.01806 145.678 1 145.967 1C146.544 1 147.122 1.01806 147.7 1.07223C150.048 1.27088 152.323 1.92098 154.399 2.98643C155.447 3.51013 156.422 4.14218 157.343 4.86452L157.686 5.1354L157.993 5.38822L158.589 5.87579L159.78 6.85095L164.511 10.8058L173.974 18.7154C180.258 24.0065 186.541 29.3338 192.789 34.661L195.137 36.6655L195.715 37.1712L196.004 37.424L196.329 37.7129C196.545 37.9116 196.762 38.1102 196.979 38.3269C197.177 38.5436 197.394 38.7423 197.593 38.959C199.2 40.6926 200.446 42.7512 201.258 44.9724C201.674 46.074 201.962 47.2298 202.161 48.3855C202.215 48.6744 202.251 48.9634 202.287 49.2523C202.324 49.5412 202.36 49.8302 202.36 50.1372L202.378 50.5706L202.396 50.7873V50.9859L202.414 51.7624L202.558 57.9204C203.335 90.8049 203.57 123.689 204.545 156.574C204.779 164.791 205.032 173.007 205.339 181.224L205.791 193.54L206.278 205.856L206.802 218.171L206.946 221.259L206.982 222.036L207 222.433V222.849V223.264L206.982 223.679L206.964 224.095C206.964 224.239 206.946 224.366 206.928 224.51C206.766 226.695 206.152 228.862 205.177 230.831C203.208 234.785 199.669 237.927 195.462 239.39C194.414 239.751 193.331 240.022 192.23 240.185C191.959 240.221 191.67 240.257 191.399 240.275C191.128 240.311 190.839 240.311 190.568 240.329L190.352 240.347H190.153L189.774 240.365L188.997 240.402L182.84 240.636L158.191 241.575L145.876 242.045L133.543 242.478C117.111 243.056 100.679 243.526 84.2465 243.995L59.5982 244.717L47.265 245.079L41.1074 245.259L39.5545 245.295C39.2475 245.295 38.9586 245.295 38.6516 245.295L37.7488 245.241C36.5389 245.151 35.3471 244.934 34.1734 244.627C31.844 243.977 29.623 242.876 27.7089 241.413C25.7948 239.932 24.1516 238.09 22.9237 235.995C21.6958 233.9 20.8832 231.571 20.5401 229.151L20.4318 228.248C20.4137 227.941 20.3957 227.652 20.3776 227.345L20.3054 225.792L20.179 222.704C19.8359 214.488 19.5289 206.271 19.24 198.054C18.933 189.838 18.6441 181.621 18.3732 173.404C18.1024 165.188 17.8134 156.971 17.5787 148.755C17.0731 132.303 16.7481 115.852 16.4591 99.4188C16.1883 82.9675 15.9716 66.5343 15.6104 50.083L15.466 43.925L15.3215 37.7671L14.9965 25.4151C14.9604 23.3022 15.3396 21.2075 16.098 19.2391C16.8564 17.2888 17.994 15.4649 19.4206 13.9479C20.8471 12.413 22.5806 11.1669 24.4766 10.2821C26.3726 9.3972 28.4312 8.89156 30.5258 8.78321ZM30.5619 9.32497C28.5395 9.43332 26.5532 9.93896 24.7294 10.7877C22.8876 11.6726 21.2263 12.8825 19.872 14.3633C18.5177 15.8441 17.4342 17.5958 16.73 19.4919C16.0438 21.37 15.7188 23.3925 15.791 25.397C15.9716 29.4963 16.1883 33.6136 16.405 37.7129L16.73 43.8709L17.0731 50.0288C17.994 66.444 19.0594 82.8592 20.0706 99.2744C21.0638 115.69 22.0208 132.105 22.8153 148.538C23.2126 156.755 23.5737 164.971 23.9349 173.17C24.3141 181.386 24.6572 189.603 25.0003 197.82C25.3434 206.036 25.6684 214.253 25.9754 222.469L26.0837 225.557L26.1379 227.074C26.156 227.291 26.156 227.49 26.174 227.706L26.2462 228.338C26.481 230 27.0408 231.625 27.8714 233.088C28.7201 234.551 29.8397 235.851 31.1759 236.88C32.5121 237.927 34.047 238.704 35.6541 239.155C36.4667 239.39 37.2973 239.535 38.146 239.607L38.778 239.643C38.9947 239.643 39.2114 239.643 39.4101 239.643L40.9269 239.625L47.0844 239.517L59.4176 239.3L84.084 238.885C100.516 238.614 116.966 238.307 133.399 238.126L145.732 237.982L158.065 237.873L182.731 237.675L188.889 237.621H189.665H190.045H190.243H190.424C190.659 237.602 190.893 237.62 191.128 237.584C191.363 237.566 191.598 237.548 191.832 237.53C192.771 237.422 193.692 237.223 194.595 236.934C196.401 236.356 198.08 235.435 199.543 234.207C201.005 232.998 202.215 231.481 203.118 229.801C204.021 228.122 204.581 226.262 204.761 224.348C204.779 224.221 204.797 224.113 204.797 223.986L204.816 223.625L204.834 223.264V222.903V222.542V222.162L204.816 221.386L204.743 218.298L204.418 205.964L204.057 193.63L203.66 181.296C203.389 173.079 203.1 164.863 202.757 156.646C201.475 123.78 199.471 90.9494 198.008 58.101L197.737 51.943L197.701 51.1665V50.9679L197.683 50.8053L197.665 50.4803C197.665 50.2636 197.629 50.0469 197.593 49.8302C197.575 49.6135 197.538 49.3968 197.484 49.1801C197.322 48.3133 197.087 47.4645 196.78 46.6519C196.473 45.8393 196.076 45.0447 195.606 44.3043C195.137 43.5639 194.595 42.8777 193.999 42.2276C193.855 42.065 193.692 41.9206 193.548 41.758C193.403 41.5955 193.223 41.451 193.06 41.3066L192.807 41.0899L192.518 40.837L191.923 40.3495L189.575 38.363C183.291 33.0538 177.043 27.7266 170.795 22.3632L161.46 14.3091L156.801 10.264L155.645 9.25273L155.122 8.76515L154.833 8.51233L154.58 8.29563C153.894 7.73582 153.171 7.23018 152.377 6.79678C150.824 5.94803 149.09 5.38822 147.321 5.17151C146.869 5.11734 146.436 5.08122 145.985 5.08122C145.768 5.08122 145.533 5.08122 145.316 5.08122C145.208 5.08122 145.064 5.08122 144.937 5.09928L144.558 5.11734L141.47 5.22569L129.137 5.62298L104.489 6.36337L92.1556 6.7426L79.8224 7.15795L73.6649 7.37465L67.5073 7.60941C63.4083 7.77194 59.2912 7.93446 55.1922 8.11505C46.9761 8.49428 38.76 8.89156 30.5619 9.32497Z"/>
</mask>
<path d="M30.5258 8.78321C38.7419 8.36787 46.94 7.89835 55.1561 7.41077C59.2551 7.15795 63.3541 6.90513 67.4712 6.63425L73.6288 6.23696L79.7863 5.82162L92.0834 4.95481L104.38 4.03383L128.957 2.1738L141.254 1.28894L144.323 1.07223L144.703 1.05418C144.829 1.05418 144.955 1.03612 145.1 1.03612C145.389 1.01806 145.678 1 145.967 1C146.544 1 147.122 1.01806 147.7 1.07223C150.048 1.27088 152.323 1.92098 154.399 2.98643C155.447 3.51013 156.422 4.14218 157.343 4.86452L157.686 5.1354L157.993 5.38822L158.589 5.87579L159.78 6.85095L164.511 10.8058L173.974 18.7154C180.258 24.0065 186.541 29.3338 192.789 34.661L195.137 36.6655L195.715 37.1712L196.004 37.424L196.329 37.7129C196.545 37.9116 196.762 38.1102 196.979 38.3269C197.177 38.5436 197.394 38.7423 197.593 38.959C199.2 40.6926 200.446 42.7512 201.258 44.9724C201.674 46.074 201.962 47.2298 202.161 48.3855C202.215 48.6744 202.251 48.9634 202.287 49.2523C202.324 49.5412 202.36 49.8302 202.36 50.1372L202.378 50.5706L202.396 50.7873V50.9859L202.414 51.7624L202.558 57.9204C203.335 90.8049 203.57 123.689 204.545 156.574C204.779 164.791 205.032 173.007 205.339 181.224L205.791 193.54L206.278 205.856L206.802 218.171L206.946 221.259L206.982 222.036L207 222.433V222.849V223.264L206.982 223.679L206.964 224.095C206.964 224.239 206.946 224.366 206.928 224.51C206.766 226.695 206.152 228.862 205.177 230.831C203.208 234.785 199.669 237.927 195.462 239.39C194.414 239.751 193.331 240.022 192.23 240.185C191.959 240.221 191.67 240.257 191.399 240.275C191.128 240.311 190.839 240.311 190.568 240.329L190.352 240.347H190.153L189.774 240.365L188.997 240.402L182.84 240.636L158.191 241.575L145.876 242.045L133.543 242.478C117.111 243.056 100.679 243.526 84.2465 243.995L59.5982 244.717L47.265 245.079L41.1074 245.259L39.5545 245.295C39.2475 245.295 38.9586 245.295 38.6516 245.295L37.7488 245.241C36.5389 245.151 35.3471 244.934 34.1734 244.627C31.844 243.977 29.623 242.876 27.7089 241.413C25.7948 239.932 24.1516 238.09 22.9237 235.995C21.6958 233.9 20.8832 231.571 20.5401 229.151L20.4318 228.248C20.4137 227.941 20.3957 227.652 20.3776 227.345L20.3054 225.792L20.179 222.704C19.8359 214.488 19.5289 206.271 19.24 198.054C18.933 189.838 18.6441 181.621 18.3732 173.404C18.1024 165.188 17.8134 156.971 17.5787 148.755C17.0731 132.303 16.7481 115.852 16.4591 99.4188C16.1883 82.9675 15.9716 66.5343 15.6104 50.083L15.466 43.925L15.3215 37.7671L14.9965 25.4151C14.9604 23.3022 15.3396 21.2075 16.098 19.2391C16.8564 17.2888 17.994 15.4649 19.4206 13.9479C20.8471 12.413 22.5806 11.1669 24.4766 10.2821C26.3726 9.3972 28.4312 8.89156 30.5258 8.78321ZM30.5619 9.32497C28.5395 9.43332 26.5532 9.93896 24.7294 10.7877C22.8876 11.6726 21.2263 12.8825 19.872 14.3633C18.5177 15.8441 17.4342 17.5958 16.73 19.4919C16.0438 21.37 15.7188 23.3925 15.791 25.397C15.9716 29.4963 16.1883 33.6136 16.405 37.7129L16.73 43.8709L17.0731 50.0288C17.994 66.444 19.0594 82.8592 20.0706 99.2744C21.0638 115.69 22.0208 132.105 22.8153 148.538C23.2126 156.755 23.5737 164.971 23.9349 173.17C24.3141 181.386 24.6572 189.603 25.0003 197.82C25.3434 206.036 25.6684 214.253 25.9754 222.469L26.0837 225.557L26.1379 227.074C26.156 227.291 26.156 227.49 26.174 227.706L26.2462 228.338C26.481 230 27.0408 231.625 27.8714 233.088C28.7201 234.551 29.8397 235.851 31.1759 236.88C32.5121 237.927 34.047 238.704 35.6541 239.155C36.4667 239.39 37.2973 239.535 38.146 239.607L38.778 239.643C38.9947 239.643 39.2114 239.643 39.4101 239.643L40.9269 239.625L47.0844 239.517L59.4176 239.3L84.084 238.885C100.516 238.614 116.966 238.307 133.399 238.126L145.732 237.982L158.065 237.873L182.731 237.675L188.889 237.621H189.665H190.045H190.243H190.424C190.659 237.602 190.893 237.62 191.128 237.584C191.363 237.566 191.598 237.548 191.832 237.53C192.771 237.422 193.692 237.223 194.595 236.934C196.401 236.356 198.08 235.435 199.543 234.207C201.005 232.998 202.215 231.481 203.118 229.801C204.021 228.122 204.581 226.262 204.761 224.348C204.779 224.221 204.797 224.113 204.797 223.986L204.816 223.625L204.834 223.264V222.903V222.542V222.162L204.816 221.386L204.743 218.298L204.418 205.964L204.057 193.63L203.66 181.296C203.389 173.079 203.1 164.863 202.757 156.646C201.475 123.78 199.471 90.9494 198.008 58.101L197.737 51.943L197.701 51.1665V50.9679L197.683 50.8053L197.665 50.4803C197.665 50.2636 197.629 50.0469 197.593 49.8302C197.575 49.6135 197.538 49.3968 197.484 49.1801C197.322 48.3133 197.087 47.4645 196.78 46.6519C196.473 45.8393 196.076 45.0447 195.606 44.3043C195.137 43.5639 194.595 42.8777 193.999 42.2276C193.855 42.065 193.692 41.9206 193.548 41.758C193.403 41.5955 193.223 41.451 193.06 41.3066L192.807 41.0899L192.518 40.837L191.923 40.3495L189.575 38.363C183.291 33.0538 177.043 27.7266 170.795 22.3632L161.46 14.3091L156.801 10.264L155.645 9.25273L155.122 8.76515L154.833 8.51233L154.58 8.29563C153.894 7.73582 153.171 7.23018 152.377 6.79678C150.824 5.94803 149.09 5.38822 147.321 5.17151C146.869 5.11734 146.436 5.08122 145.985 5.08122C145.768 5.08122 145.533 5.08122 145.316 5.08122C145.208 5.08122 145.064 5.08122 144.937 5.09928L144.558 5.11734L141.47 5.22569L129.137 5.62298L104.489 6.36337L92.1556 6.7426L79.8224 7.15795L73.6649 7.37465L67.5073 7.60941C63.4083 7.77194 59.2912 7.93446 55.1922 8.11505C46.9761 8.49428 38.76 8.89156 30.5619 9.32497Z" fill="#001064"/>
<path d="M30.5258 8.78321C38.7419 8.36787 46.94 7.89835 55.1561 7.41077C59.2551 7.15795 63.3541 6.90513 67.4712 6.63425L73.6288 6.23696L79.7863 5.82162L92.0834 4.95481L104.38 4.03383L128.957 2.1738L141.254 1.28894L144.323 1.07223L144.703 1.05418C144.829 1.05418 144.955 1.03612 145.1 1.03612C145.389 1.01806 145.678 1 145.967 1C146.544 1 147.122 1.01806 147.7 1.07223C150.048 1.27088 152.323 1.92098 154.399 2.98643C155.447 3.51013 156.422 4.14218 157.343 4.86452L157.686 5.1354L157.993 5.38822L158.589 5.87579L159.78 6.85095L164.511 10.8058L173.974 18.7154C180.258 24.0065 186.541 29.3338 192.789 34.661L195.137 36.6655L195.715 37.1712L196.004 37.424L196.329 37.7129C196.545 37.9116 196.762 38.1102 196.979 38.3269C197.177 38.5436 197.394 38.7423 197.593 38.959C199.2 40.6926 200.446 42.7512 201.258 44.9724C201.674 46.074 201.962 47.2298 202.161 48.3855C202.215 48.6744 202.251 48.9634 202.287 49.2523C202.324 49.5412 202.36 49.8302 202.36 50.1372L202.378 50.5706L202.396 50.7873V50.9859L202.414 51.7624L202.558 57.9204C203.335 90.8049 203.57 123.689 204.545 156.574C204.779 164.791 205.032 173.007 205.339 181.224L205.791 193.54L206.278 205.856L206.802 218.171L206.946 221.259L206.982 222.036L207 222.433V222.849V223.264L206.982 223.679L206.964 224.095C206.964 224.239 206.946 224.366 206.928 224.51C206.766 226.695 206.152 228.862 205.177 230.831C203.208 234.785 199.669 237.927 195.462 239.39C194.414 239.751 193.331 240.022 192.23 240.185C191.959 240.221 191.67 240.257 191.399 240.275C191.128 240.311 190.839 240.311 190.568 240.329L190.352 240.347H190.153L189.774 240.365L188.997 240.402L182.84 240.636L158.191 241.575L145.876 242.045L133.543 242.478C117.111 243.056 100.679 243.526 84.2465 243.995L59.5982 244.717L47.265 245.079L41.1074 245.259L39.5545 245.295C39.2475 245.295 38.9586 245.295 38.6516 245.295L37.7488 245.241C36.5389 245.151 35.3471 244.934 34.1734 244.627C31.844 243.977 29.623 242.876 27.7089 241.413C25.7948 239.932 24.1516 238.09 22.9237 235.995C21.6958 233.9 20.8832 231.571 20.5401 229.151L20.4318 228.248C20.4137 227.941 20.3957 227.652 20.3776 227.345L20.3054 225.792L20.179 222.704C19.8359 214.488 19.5289 206.271 19.24 198.054C18.933 189.838 18.6441 181.621 18.3732 173.404C18.1024 165.188 17.8134 156.971 17.5787 148.755C17.0731 132.303 16.7481 115.852 16.4591 99.4188C16.1883 82.9675 15.9716 66.5343 15.6104 50.083L15.466 43.925L15.3215 37.7671L14.9965 25.4151C14.9604 23.3022 15.3396 21.2075 16.098 19.2391C16.8564 17.2888 17.994 15.4649 19.4206 13.9479C20.8471 12.413 22.5806 11.1669 24.4766 10.2821C26.3726 9.3972 28.4312 8.89156 30.5258 8.78321ZM30.5619 9.32497C28.5395 9.43332 26.5532 9.93896 24.7294 10.7877C22.8876 11.6726 21.2263 12.8825 19.872 14.3633C18.5177 15.8441 17.4342 17.5958 16.73 19.4919C16.0438 21.37 15.7188 23.3925 15.791 25.397C15.9716 29.4963 16.1883 33.6136 16.405 37.7129L16.73 43.8709L17.0731 50.0288C17.994 66.444 19.0594 82.8592 20.0706 99.2744C21.0638 115.69 22.0208 132.105 22.8153 148.538C23.2126 156.755 23.5737 164.971 23.9349 173.17C24.3141 181.386 24.6572 189.603 25.0003 197.82C25.3434 206.036 25.6684 214.253 25.9754 222.469L26.0837 225.557L26.1379 227.074C26.156 227.291 26.156 227.49 26.174 227.706L26.2462 228.338C26.481 230 27.0408 231.625 27.8714 233.088C28.7201 234.551 29.8397 235.851 31.1759 236.88C32.5121 237.927 34.047 238.704 35.6541 239.155C36.4667 239.39 37.2973 239.535 38.146 239.607L38.778 239.643C38.9947 239.643 39.2114 239.643 39.4101 239.643L40.9269 239.625L47.0844 239.517L59.4176 239.3L84.084 238.885C100.516 238.614 116.966 238.307 133.399 238.126L145.732 237.982L158.065 237.873L182.731 237.675L188.889 237.621H189.665H190.045H190.243H190.424C190.659 237.602 190.893 237.62 191.128 237.584C191.363 237.566 191.598 237.548 191.832 237.53C192.771 237.422 193.692 237.223 194.595 236.934C196.401 236.356 198.08 235.435 199.543 234.207C201.005 232.998 202.215 231.481 203.118 229.801C204.021 228.122 204.581 226.262 204.761 224.348C204.779 224.221 204.797 224.113 204.797 223.986L204.816 223.625L204.834 223.264V222.903V222.542V222.162L204.816 221.386L204.743 218.298L204.418 205.964L204.057 193.63L203.66 181.296C203.389 173.079 203.1 164.863 202.757 156.646C201.475 123.78 199.471 90.9494 198.008 58.101L197.737 51.943L197.701 51.1665V50.9679L197.683 50.8053L197.665 50.4803C197.665 50.2636 197.629 50.0469 197.593 49.8302C197.575 49.6135 197.538 49.3968 197.484 49.1801C197.322 48.3133 197.087 47.4645 196.78 46.6519C196.473 45.8393 196.076 45.0447 195.606 44.3043C195.137 43.5639 194.595 42.8777 193.999 42.2276C193.855 42.065 193.692 41.9206 193.548 41.758C193.403 41.5955 193.223 41.451 193.06 41.3066L192.807 41.0899L192.518 40.837L191.923 40.3495L189.575 38.363C183.291 33.0538 177.043 27.7266 170.795 22.3632L161.46 14.3091L156.801 10.264L155.645 9.25273L155.122 8.76515L154.833 8.51233L154.58 8.29563C153.894 7.73582 153.171 7.23018 152.377 6.79678C150.824 5.94803 149.09 5.38822 147.321 5.17151C146.869 5.11734 146.436 5.08122 145.985 5.08122C145.768 5.08122 145.533 5.08122 145.316 5.08122C145.208 5.08122 145.064 5.08122 144.937 5.09928L144.558 5.11734L141.47 5.22569L129.137 5.62298L104.489 6.36337L92.1556 6.7426L79.8224 7.15795L73.6649 7.37465L67.5073 7.60941C63.4083 7.77194 59.2912 7.93446 55.1922 8.11505C46.9761 8.49428 38.76 8.89156 30.5619 9.32497Z" stroke="#001064" stroke-width="2" mask="url(#path-9-outside-2)"/>
<path d="M145.099 3.07812C145.641 4.88397 146.092 6.68982 146.544 8.49567C146.995 10.3015 147.41 12.1254 147.808 13.9493C148.602 17.5791 149.325 21.2269 150.011 24.8928L150.498 27.6377C150.661 28.5587 150.805 29.4616 150.968 30.3826C151.112 31.3036 151.275 32.2065 151.419 33.1275L151.528 33.8137L151.564 33.9762L151.6 34.1207L151.654 34.4096C151.69 34.6083 151.726 34.7888 151.78 34.9875L151.853 35.2764C151.871 35.3667 151.907 35.457 151.925 35.5654C152.755 38.5811 154.615 41.2538 157.089 43.1138C157.703 43.5833 158.371 43.9987 159.057 44.3598C159.744 44.721 160.448 45.028 161.188 45.2808C162.651 45.7684 164.204 46.0032 165.775 46.0212L166.371 46.0032L167.057 45.9671L168.447 45.9129C169.368 45.8768 170.307 45.8406 171.228 45.8045L174.009 45.7142L176.79 45.6059C180.51 45.5336 184.211 45.4975 187.949 45.5698C189.809 45.6059 191.669 45.642 193.547 45.7323C195.407 45.8045 197.285 45.9129 199.145 46.0573C197.321 46.4907 195.479 46.87 193.655 47.2311C191.832 47.5923 189.99 47.9174 188.148 48.2244C184.482 48.8384 180.799 49.3801 177.115 49.8496L174.352 50.2108L171.589 50.5359C170.668 50.6442 169.747 50.7526 168.827 50.8428L167.436 50.9873L166.75 51.0596L165.955 51.1137C163.825 51.2221 161.64 50.9693 159.581 50.3372C158.552 50.0122 157.541 49.6149 156.584 49.1273C155.627 48.6397 154.706 48.0618 153.839 47.4117C150.39 44.8113 147.88 40.9649 146.959 36.7753C146.923 36.6489 146.905 36.5225 146.869 36.378L146.797 35.9807C146.742 35.7098 146.706 35.457 146.67 35.1861L146.616 34.7888L146.598 34.5902L146.58 34.4096L146.508 33.7234C146.417 32.8024 146.345 31.8814 146.255 30.9424C146.183 30.0214 146.092 29.1004 146.02 28.1614L145.803 25.3804C145.533 21.6784 145.316 17.9583 145.189 14.2383C145.135 12.3783 145.081 10.5182 145.063 8.64014C145.045 6.81623 145.027 4.93815 145.099 3.07812Z" fill="#001064"/>
</svg>
