<svg width="151" height="192" viewBox="0 0 151 192" fill="none" xmlns="http://www.w3.org/2000/svg">
<mask id="path-1-outside-1" maskUnits="userSpaceOnUse" x="0" y="14.3535" width="140" height="178" fill="black">
<rect fill="white" y="14.3535" width="140" height="178"/>
<path d="M12.1819 20.957C18.0971 20.658 23.9992 20.3199 29.9143 19.9689C32.8654 19.7869 35.8165 19.6049 38.7805 19.4099L43.2136 19.1238L47.6467 18.8248L56.4999 18.2008L65.3531 17.5377L83.0465 16.1986L91.8997 15.5615L94.1098 15.4055L94.3828 15.3925C94.4738 15.3925 94.5648 15.3795 94.6688 15.3795C94.8768 15.3665 95.0848 15.3535 95.2928 15.3535C95.7088 15.3535 96.1248 15.3665 96.5408 15.4055C98.2309 15.5485 99.8689 16.0166 101.364 16.7836C102.118 17.1607 102.82 17.6157 103.483 18.1358L103.73 18.3308L103.951 18.5128L104.38 18.8638L105.238 19.5659L108.644 22.4131L115.456 28.1076C119.98 31.9169 124.504 35.7523 129.003 39.5876L130.693 41.0307L131.109 41.3947L131.317 41.5767L131.551 41.7848C131.707 41.9278 131.863 42.0708 132.019 42.2268C132.162 42.3828 132.318 42.5258 132.461 42.6818C133.618 43.93 134.515 45.4121 135.1 47.0112C135.399 47.8043 135.607 48.6364 135.75 49.4684C135.789 49.6764 135.815 49.8845 135.841 50.0925C135.867 50.3005 135.893 50.5085 135.893 50.7295L135.906 51.0416L135.919 51.1976V51.3406L135.932 51.8996L136.036 56.333C136.595 80.008 136.764 103.683 137.466 127.358C137.635 133.274 137.817 139.189 138.038 145.105L138.363 153.971L138.714 162.838L139.091 171.705L139.195 173.928L139.221 174.487L139.234 174.773V175.072V175.371L139.221 175.67L139.208 175.969C139.208 176.073 139.195 176.164 139.182 176.268C139.065 177.841 138.623 179.401 137.921 180.819C136.504 183.666 133.956 185.928 130.927 186.981C130.173 187.241 129.393 187.436 128.6 187.553C128.405 187.579 128.197 187.605 128.002 187.618C127.807 187.644 127.599 187.644 127.404 187.657L127.248 187.67H127.105L126.832 187.683L126.272 187.709L121.839 187.878L104.094 188.554L95.2278 188.892L86.3486 189.204C74.5183 189.62 62.6881 189.958 50.8578 190.296L33.1124 190.816L24.2332 191.076L19.8001 191.206L18.6821 191.233C18.4611 191.233 18.2531 191.233 18.0321 191.233L17.3821 191.193C16.511 191.128 15.653 190.972 14.808 190.751C13.131 190.283 11.5319 189.49 10.1539 188.437C8.77587 187.371 7.59285 186.045 6.70883 184.537C5.82481 183.029 5.23979 181.352 4.99279 179.61L4.91479 178.959C4.90178 178.738 4.88878 178.53 4.87578 178.309L4.82378 177.191L4.73278 174.968C4.48578 169.053 4.26477 163.137 4.05677 157.222C3.83576 151.306 3.62776 145.391 3.43275 139.475C3.23775 133.56 3.02974 127.644 2.86074 121.729C2.49673 109.885 2.26273 98.0406 2.05472 86.2096C1.85972 74.3655 1.70371 62.5345 1.44371 50.6905L1.33971 46.2571L1.2357 41.8238L1.0017 32.931C0.975697 31.4099 1.2487 29.9018 1.79472 28.4846C2.34073 27.0805 3.15975 25.7674 4.18677 24.6753C5.21379 23.5702 6.46182 22.6731 7.82685 22.0361C9.19188 21.399 10.6739 21.035 12.1819 20.957ZM12.2079 21.347C10.7519 21.425 9.32188 21.7891 8.00885 22.4001C6.68283 23.0372 5.4868 23.9082 4.51178 24.9743C3.53675 26.0404 2.75674 27.3015 2.24973 28.6667C1.75571 30.0188 1.52171 31.4749 1.57371 32.918C1.70371 35.8693 1.85972 38.8335 2.01572 41.7848L2.24973 46.2181L2.49673 50.6515C3.15975 62.4695 3.92676 74.2875 4.65478 86.1055C5.3698 97.9236 6.05881 109.742 6.63082 121.573C6.91683 127.488 7.17684 133.404 7.43684 139.306C7.70985 145.222 7.95685 151.137 8.20386 157.053C8.45086 162.968 8.68487 168.884 8.90587 174.799L8.98388 177.022L9.02288 178.114C9.03588 178.27 9.03588 178.413 9.04888 178.569L9.10088 179.024C9.26988 180.221 9.67289 181.391 10.2709 182.444C10.8819 183.497 11.6879 184.433 12.65 185.174C13.612 185.928 14.717 186.487 15.874 186.812C16.459 186.981 17.0571 187.085 17.6681 187.137L18.1231 187.163C18.2791 187.163 18.4351 187.163 18.5781 187.163L19.6701 187.15L24.1032 187.072L32.9824 186.916L50.7408 186.617C62.5711 186.422 74.4143 186.201 86.2446 186.071L95.1238 185.967L104.003 185.889L121.761 185.746L126.194 185.707H126.754H127.027H127.17H127.3C127.469 185.694 127.638 185.707 127.807 185.681C127.976 185.668 128.145 185.655 128.314 185.642C128.99 185.564 129.653 185.421 130.303 185.213C131.603 184.797 132.812 184.134 133.865 183.25C134.918 182.379 135.789 181.287 136.439 180.078C137.089 178.868 137.492 177.529 137.622 176.151C137.635 176.06 137.648 175.982 137.648 175.891L137.661 175.631L137.674 175.371V175.111V174.851V174.578L137.661 174.019L137.609 171.796L137.375 162.916L137.115 154.036L136.829 145.157C136.634 139.241 136.426 133.326 136.179 127.41C135.256 103.748 133.813 80.112 132.76 56.463L132.565 52.0296L132.539 51.4706V51.3276L132.526 51.2106L132.513 50.9766C132.513 50.8205 132.487 50.6645 132.461 50.5085C132.448 50.3525 132.422 50.1965 132.383 50.0405C132.266 49.4164 132.097 48.8054 131.876 48.2203C131.655 47.6353 131.369 47.0632 131.031 46.5302C130.693 45.9971 130.303 45.5031 129.874 45.035C129.77 44.918 129.653 44.814 129.549 44.697C129.445 44.58 129.315 44.476 129.198 44.372L129.016 44.216L128.808 44.034L128.379 43.6829L126.688 42.2528C122.164 38.4305 117.666 34.5952 113.168 30.7338L106.447 24.9353L103.093 22.0231L102.261 21.295L101.884 20.944L101.676 20.762L101.494 20.606C101 20.2029 100.48 19.8389 99.9079 19.5269C98.7899 18.9158 97.5418 18.5128 96.2678 18.3568C95.9428 18.3178 95.6308 18.2918 95.3058 18.2918C95.1498 18.2918 94.9808 18.2918 94.8248 18.2918C94.7468 18.2918 94.6428 18.2918 94.5518 18.3048L94.2788 18.3178L92.0557 18.3958L83.1765 18.6818L65.4311 19.2148L56.5519 19.4879L47.6727 19.7869L43.2396 19.9429L38.8065 20.1119C35.8555 20.2289 32.8914 20.3459 29.9403 20.476C24.0252 20.749 18.1101 21.035 12.2079 21.347Z"/>
</mask>
<path d="M12.1819 20.957C18.0971 20.658 23.9992 20.3199 29.9143 19.9689C32.8654 19.7869 35.8165 19.6049 38.7805 19.4099L43.2136 19.1238L47.6467 18.8248L56.4999 18.2008L65.3531 17.5377L83.0465 16.1986L91.8997 15.5615L94.1098 15.4055L94.3828 15.3925C94.4738 15.3925 94.5648 15.3795 94.6688 15.3795C94.8768 15.3665 95.0848 15.3535 95.2928 15.3535C95.7088 15.3535 96.1248 15.3665 96.5408 15.4055C98.2309 15.5485 99.8689 16.0166 101.364 16.7836C102.118 17.1607 102.82 17.6157 103.483 18.1358L103.73 18.3308L103.951 18.5128L104.38 18.8638L105.238 19.5659L108.644 22.4131L115.456 28.1076C119.98 31.9169 124.504 35.7523 129.003 39.5876L130.693 41.0307L131.109 41.3947L131.317 41.5767L131.551 41.7848C131.707 41.9278 131.863 42.0708 132.019 42.2268C132.162 42.3828 132.318 42.5258 132.461 42.6818C133.618 43.93 134.515 45.4121 135.1 47.0112C135.399 47.8043 135.607 48.6364 135.75 49.4684C135.789 49.6764 135.815 49.8845 135.841 50.0925C135.867 50.3005 135.893 50.5085 135.893 50.7295L135.906 51.0416L135.919 51.1976V51.3406L135.932 51.8996L136.036 56.333C136.595 80.008 136.764 103.683 137.466 127.358C137.635 133.274 137.817 139.189 138.038 145.105L138.363 153.971L138.714 162.838L139.091 171.705L139.195 173.928L139.221 174.487L139.234 174.773V175.072V175.371L139.221 175.67L139.208 175.969C139.208 176.073 139.195 176.164 139.182 176.268C139.065 177.841 138.623 179.401 137.921 180.819C136.504 183.666 133.956 185.928 130.927 186.981C130.173 187.241 129.393 187.436 128.6 187.553C128.405 187.579 128.197 187.605 128.002 187.618C127.807 187.644 127.599 187.644 127.404 187.657L127.248 187.67H127.105L126.832 187.683L126.272 187.709L121.839 187.878L104.094 188.554L95.2278 188.892L86.3486 189.204C74.5183 189.62 62.6881 189.958 50.8578 190.296L33.1124 190.816L24.2332 191.076L19.8001 191.206L18.6821 191.233C18.4611 191.233 18.2531 191.233 18.0321 191.233L17.3821 191.193C16.511 191.128 15.653 190.972 14.808 190.751C13.131 190.283 11.5319 189.49 10.1539 188.437C8.77587 187.371 7.59285 186.045 6.70883 184.537C5.82481 183.029 5.23979 181.352 4.99279 179.61L4.91479 178.959C4.90178 178.738 4.88878 178.53 4.87578 178.309L4.82378 177.191L4.73278 174.968C4.48578 169.053 4.26477 163.137 4.05677 157.222C3.83576 151.306 3.62776 145.391 3.43275 139.475C3.23775 133.56 3.02974 127.644 2.86074 121.729C2.49673 109.885 2.26273 98.0406 2.05472 86.2096C1.85972 74.3655 1.70371 62.5345 1.44371 50.6905L1.33971 46.2571L1.2357 41.8238L1.0017 32.931C0.975697 31.4099 1.2487 29.9018 1.79472 28.4846C2.34073 27.0805 3.15975 25.7674 4.18677 24.6753C5.21379 23.5702 6.46182 22.6731 7.82685 22.0361C9.19188 21.399 10.6739 21.035 12.1819 20.957ZM12.2079 21.347C10.7519 21.425 9.32188 21.7891 8.00885 22.4001C6.68283 23.0372 5.4868 23.9082 4.51178 24.9743C3.53675 26.0404 2.75674 27.3015 2.24973 28.6667C1.75571 30.0188 1.52171 31.4749 1.57371 32.918C1.70371 35.8693 1.85972 38.8335 2.01572 41.7848L2.24973 46.2181L2.49673 50.6515C3.15975 62.4695 3.92676 74.2875 4.65478 86.1055C5.3698 97.9236 6.05881 109.742 6.63082 121.573C6.91683 127.488 7.17684 133.404 7.43684 139.306C7.70985 145.222 7.95685 151.137 8.20386 157.053C8.45086 162.968 8.68487 168.884 8.90587 174.799L8.98388 177.022L9.02288 178.114C9.03588 178.27 9.03588 178.413 9.04888 178.569L9.10088 179.024C9.26988 180.221 9.67289 181.391 10.2709 182.444C10.8819 183.497 11.6879 184.433 12.65 185.174C13.612 185.928 14.717 186.487 15.874 186.812C16.459 186.981 17.0571 187.085 17.6681 187.137L18.1231 187.163C18.2791 187.163 18.4351 187.163 18.5781 187.163L19.6701 187.15L24.1032 187.072L32.9824 186.916L50.7408 186.617C62.5711 186.422 74.4143 186.201 86.2446 186.071L95.1238 185.967L104.003 185.889L121.761 185.746L126.194 185.707H126.754H127.027H127.17H127.3C127.469 185.694 127.638 185.707 127.807 185.681C127.976 185.668 128.145 185.655 128.314 185.642C128.99 185.564 129.653 185.421 130.303 185.213C131.603 184.797 132.812 184.134 133.865 183.25C134.918 182.379 135.789 181.287 136.439 180.078C137.089 178.868 137.492 177.529 137.622 176.151C137.635 176.06 137.648 175.982 137.648 175.891L137.661 175.631L137.674 175.371V175.111V174.851V174.578L137.661 174.019L137.609 171.796L137.375 162.916L137.115 154.036L136.829 145.157C136.634 139.241 136.426 133.326 136.179 127.41C135.256 103.748 133.813 80.112 132.76 56.463L132.565 52.0296L132.539 51.4706V51.3276L132.526 51.2106L132.513 50.9766C132.513 50.8205 132.487 50.6645 132.461 50.5085C132.448 50.3525 132.422 50.1965 132.383 50.0405C132.266 49.4164 132.097 48.8054 131.876 48.2203C131.655 47.6353 131.369 47.0632 131.031 46.5302C130.693 45.9971 130.303 45.5031 129.874 45.035C129.77 44.918 129.653 44.814 129.549 44.697C129.445 44.58 129.315 44.476 129.198 44.372L129.016 44.216L128.808 44.034L128.379 43.6829L126.688 42.2528C122.164 38.4305 117.666 34.5952 113.168 30.7338L106.447 24.9353L103.093 22.0231L102.261 21.295L101.884 20.944L101.676 20.762L101.494 20.606C101 20.2029 100.48 19.8389 99.9079 19.5269C98.7899 18.9158 97.5418 18.5128 96.2678 18.3568C95.9428 18.3178 95.6308 18.2918 95.3058 18.2918C95.1498 18.2918 94.9808 18.2918 94.8248 18.2918C94.7468 18.2918 94.6428 18.2918 94.5518 18.3048L94.2788 18.3178L92.0557 18.3958L83.1765 18.6818L65.4311 19.2148L56.5519 19.4879L47.6727 19.7869L43.2396 19.9429L38.8065 20.1119C35.8555 20.2289 32.8914 20.3459 29.9403 20.476C24.0252 20.749 18.1101 21.035 12.2079 21.347Z" fill="#001064"/>
<path d="M12.1819 20.957C18.0971 20.658 23.9992 20.3199 29.9143 19.9689C32.8654 19.7869 35.8165 19.6049 38.7805 19.4099L43.2136 19.1238L47.6467 18.8248L56.4999 18.2008L65.3531 17.5377L83.0465 16.1986L91.8997 15.5615L94.1098 15.4055L94.3828 15.3925C94.4738 15.3925 94.5648 15.3795 94.6688 15.3795C94.8768 15.3665 95.0848 15.3535 95.2928 15.3535C95.7088 15.3535 96.1248 15.3665 96.5408 15.4055C98.2309 15.5485 99.8689 16.0166 101.364 16.7836C102.118 17.1607 102.82 17.6157 103.483 18.1358L103.73 18.3308L103.951 18.5128L104.38 18.8638L105.238 19.5659L108.644 22.4131L115.456 28.1076C119.98 31.9169 124.504 35.7523 129.003 39.5876L130.693 41.0307L131.109 41.3947L131.317 41.5767L131.551 41.7848C131.707 41.9278 131.863 42.0708 132.019 42.2268C132.162 42.3828 132.318 42.5258 132.461 42.6818C133.618 43.93 134.515 45.4121 135.1 47.0112C135.399 47.8043 135.607 48.6364 135.75 49.4684C135.789 49.6764 135.815 49.8845 135.841 50.0925C135.867 50.3005 135.893 50.5085 135.893 50.7295L135.906 51.0416L135.919 51.1976V51.3406L135.932 51.8996L136.036 56.333C136.595 80.008 136.764 103.683 137.466 127.358C137.635 133.274 137.817 139.189 138.038 145.105L138.363 153.971L138.714 162.838L139.091 171.705L139.195 173.928L139.221 174.487L139.234 174.773V175.072V175.371L139.221 175.67L139.208 175.969C139.208 176.073 139.195 176.164 139.182 176.268C139.065 177.841 138.623 179.401 137.921 180.819C136.504 183.666 133.956 185.928 130.927 186.981C130.173 187.241 129.393 187.436 128.6 187.553C128.405 187.579 128.197 187.605 128.002 187.618C127.807 187.644 127.599 187.644 127.404 187.657L127.248 187.67H127.105L126.832 187.683L126.272 187.709L121.839 187.878L104.094 188.554L95.2278 188.892L86.3486 189.204C74.5183 189.62 62.6881 189.958 50.8578 190.296L33.1124 190.816L24.2332 191.076L19.8001 191.206L18.6821 191.233C18.4611 191.233 18.2531 191.233 18.0321 191.233L17.3821 191.193C16.511 191.128 15.653 190.972 14.808 190.751C13.131 190.283 11.5319 189.49 10.1539 188.437C8.77587 187.371 7.59285 186.045 6.70883 184.537C5.82481 183.029 5.23979 181.352 4.99279 179.61L4.91479 178.959C4.90178 178.738 4.88878 178.53 4.87578 178.309L4.82378 177.191L4.73278 174.968C4.48578 169.053 4.26477 163.137 4.05677 157.222C3.83576 151.306 3.62776 145.391 3.43275 139.475C3.23775 133.56 3.02974 127.644 2.86074 121.729C2.49673 109.885 2.26273 98.0406 2.05472 86.2096C1.85972 74.3655 1.70371 62.5345 1.44371 50.6905L1.33971 46.2571L1.2357 41.8238L1.0017 32.931C0.975697 31.4099 1.2487 29.9018 1.79472 28.4846C2.34073 27.0805 3.15975 25.7674 4.18677 24.6753C5.21379 23.5702 6.46182 22.6731 7.82685 22.0361C9.19188 21.399 10.6739 21.035 12.1819 20.957ZM12.2079 21.347C10.7519 21.425 9.32188 21.7891 8.00885 22.4001C6.68283 23.0372 5.4868 23.9082 4.51178 24.9743C3.53675 26.0404 2.75674 27.3015 2.24973 28.6667C1.75571 30.0188 1.52171 31.4749 1.57371 32.918C1.70371 35.8693 1.85972 38.8335 2.01572 41.7848L2.24973 46.2181L2.49673 50.6515C3.15975 62.4695 3.92676 74.2875 4.65478 86.1055C5.3698 97.9236 6.05881 109.742 6.63082 121.573C6.91683 127.488 7.17684 133.404 7.43684 139.306C7.70985 145.222 7.95685 151.137 8.20386 157.053C8.45086 162.968 8.68487 168.884 8.90587 174.799L8.98388 177.022L9.02288 178.114C9.03588 178.27 9.03588 178.413 9.04888 178.569L9.10088 179.024C9.26988 180.221 9.67289 181.391 10.2709 182.444C10.8819 183.497 11.6879 184.433 12.65 185.174C13.612 185.928 14.717 186.487 15.874 186.812C16.459 186.981 17.0571 187.085 17.6681 187.137L18.1231 187.163C18.2791 187.163 18.4351 187.163 18.5781 187.163L19.6701 187.15L24.1032 187.072L32.9824 186.916L50.7408 186.617C62.5711 186.422 74.4143 186.201 86.2446 186.071L95.1238 185.967L104.003 185.889L121.761 185.746L126.194 185.707H126.754H127.027H127.17H127.3C127.469 185.694 127.638 185.707 127.807 185.681C127.976 185.668 128.145 185.655 128.314 185.642C128.99 185.564 129.653 185.421 130.303 185.213C131.603 184.797 132.812 184.134 133.865 183.25C134.918 182.379 135.789 181.287 136.439 180.078C137.089 178.868 137.492 177.529 137.622 176.151C137.635 176.06 137.648 175.982 137.648 175.891L137.661 175.631L137.674 175.371V175.111V174.851V174.578L137.661 174.019L137.609 171.796L137.375 162.916L137.115 154.036L136.829 145.157C136.634 139.241 136.426 133.326 136.179 127.41C135.256 103.748 133.813 80.112 132.76 56.463L132.565 52.0296L132.539 51.4706V51.3276L132.526 51.2106L132.513 50.9766C132.513 50.8205 132.487 50.6645 132.461 50.5085C132.448 50.3525 132.422 50.1965 132.383 50.0405C132.266 49.4164 132.097 48.8054 131.876 48.2203C131.655 47.6353 131.369 47.0632 131.031 46.5302C130.693 45.9971 130.303 45.5031 129.874 45.035C129.77 44.918 129.653 44.814 129.549 44.697C129.445 44.58 129.315 44.476 129.198 44.372L129.016 44.216L128.808 44.034L128.379 43.6829L126.688 42.2528C122.164 38.4305 117.666 34.5952 113.168 30.7338L106.447 24.9353L103.093 22.0231L102.261 21.295L101.884 20.944L101.676 20.762L101.494 20.606C101 20.2029 100.48 19.8389 99.9079 19.5269C98.7899 18.9158 97.5418 18.5128 96.2678 18.3568C95.9428 18.3178 95.6308 18.2918 95.3058 18.2918C95.1498 18.2918 94.9808 18.2918 94.8248 18.2918C94.7468 18.2918 94.6428 18.2918 94.5518 18.3048L94.2788 18.3178L92.0557 18.3958L83.1765 18.6818L65.4311 19.2148L56.5519 19.4879L47.6727 19.7869L43.2396 19.9429L38.8065 20.1119C35.8555 20.2289 32.8914 20.3459 29.9403 20.476C24.0252 20.749 18.1101 21.035 12.2079 21.347Z" stroke="#001064" stroke-width="1.43989" mask="url(#path-1-outside-1)"/>
<path d="M132.39 45.2319L99.2727 17.874H94.9531L13.2394 21.1138H10.7196L4.96007 23.9935L1.72032 28.6732L1.36035 33.7128L2.0803 49.9115L7.47988 174.462V180.581L12.5195 187.061L19.7189 189.581L124.111 187.061H130.59L135.99 182.741L138.51 175.902L134.55 60.7107L133.47 49.9115L132.39 45.2319Z" fill="#001064"/>
<path d="M140.669 30.1131L112.952 5.99501L110.432 4.19515L106.112 3.11523H96.7528L20.7987 7.07493L16.4791 8.87479L12.5194 12.8345L11.4395 17.8741L12.5194 37.3126L16.4791 155.023L17.559 166.183L21.1587 171.942L26.5583 174.462L137.79 172.662L144.269 169.422L147.509 165.463L148.949 159.703L144.989 77.2695L144.269 36.5926L140.669 30.1131Z" fill="#FFEDE9"/>
<rect width="94.8702" height="19.1719" transform="matrix(0.999305 -0.0372765 0.0644246 0.997923 28.5078 47.0654)" fill="#FFE9BE"/>
<rect width="94.8702" height="19.1719" transform="matrix(0.999305 -0.0372765 0.0644246 0.997923 31.8662 99.9844)" fill="#DED3FF"/>
<rect width="94.8702" height="19.1719" transform="matrix(0.999305 -0.0372765 0.0644246 0.997923 31.8662 128.542)" fill="#BAF0DF"/>
<rect width="50.6596" height="19.1719" transform="matrix(0.999305 -0.0372765 0.0644246 0.997923 32.1816 71.8809)" fill="white"/>
<rect width="34.6947" height="19.1719" transform="matrix(0.999305 -0.0372765 0.0644246 0.997923 91.5068 70.0195)" fill="#D3ECFF"/>
<mask id="path-9-outside-2" maskUnits="userSpaceOnUse" x="10.0752" y="0" width="140" height="178" fill="black">
<rect fill="white" x="10.0752" width="140" height="178"/>
<path d="M22.2571 6.60348C28.1723 6.30445 34.0744 5.96642 39.9895 5.61539C42.9406 5.43338 45.8917 5.25136 48.8557 5.05635L53.2888 4.77032L57.7219 4.4713L66.5751 3.84724L75.4283 3.18419L93.1217 1.84507L101.975 1.20802L104.185 1.052L104.458 1.039C104.549 1.039 104.64 1.026 104.744 1.026C104.952 1.013 105.16 1 105.368 1C105.784 1 106.2 1.013 106.616 1.052C108.306 1.19502 109.944 1.66306 111.439 2.43012C112.193 2.80715 112.895 3.26219 113.558 3.78224L113.805 3.97725L114.026 4.15927L114.455 4.5103L115.313 5.21236L118.719 8.0596L125.531 13.7541C130.056 17.5634 134.58 21.3987 139.078 25.2341L140.768 26.6772L141.184 27.0412L141.392 27.2232L141.626 27.4313C141.782 27.5743 141.938 27.7173 142.094 27.8733C142.237 28.0293 142.393 28.1723 142.536 28.3283C143.693 29.5764 144.59 31.0586 145.175 32.6577C145.474 33.4508 145.682 34.2828 145.825 35.1149C145.864 35.3229 145.89 35.5309 145.916 35.739C145.942 35.947 145.968 36.155 145.968 36.376L145.981 36.688L145.994 36.8441V36.9871L146.007 37.5461L146.111 41.9795C146.67 65.6545 146.839 89.3295 147.541 113.005C147.71 118.92 147.892 124.836 148.113 130.751L148.438 139.618L148.789 148.485L149.166 157.351L149.27 159.575L149.296 160.134L149.309 160.42V160.719V161.018L149.296 161.317L149.283 161.616C149.283 161.72 149.27 161.811 149.257 161.915C149.14 163.488 148.698 165.048 147.996 166.465C146.579 169.312 144.031 171.575 141.002 172.628C140.248 172.888 139.468 173.083 138.675 173.2C138.48 173.226 138.272 173.252 138.077 173.265C137.882 173.291 137.674 173.291 137.479 173.304L137.323 173.317H137.18L136.907 173.33L136.348 173.356L131.915 173.525L114.169 174.201L105.303 174.539L96.4238 174.851C84.5935 175.267 72.7633 175.605 60.933 175.943L43.1876 176.463L34.3084 176.723L29.8753 176.853L28.7573 176.879C28.5363 176.879 28.3283 176.879 28.1073 176.879L27.4573 176.84C26.5862 176.775 25.7282 176.619 24.8832 176.398C23.2062 175.93 21.6071 175.137 20.2291 174.084C18.8511 173.018 17.668 171.692 16.784 170.183C15.9 168.675 15.315 166.998 15.068 165.256L14.99 164.606C14.977 164.385 14.964 164.177 14.951 163.956L14.899 162.838L14.808 160.615C14.561 154.699 14.34 148.784 14.132 142.868C13.911 136.953 13.703 131.037 13.5079 125.122C13.3129 119.206 13.1049 113.291 12.9359 107.375C12.5719 95.5311 12.3379 83.687 12.1299 71.856C11.9349 60.012 11.7789 48.181 11.5189 36.337L11.4149 31.9036L11.3109 27.4703L11.0769 18.5775C11.0509 17.0564 11.3239 15.5482 11.8699 14.1311C12.4159 12.727 13.2349 11.4139 14.262 10.3218C15.289 9.2167 16.537 8.31962 17.902 7.68257C19.2671 7.04552 20.7491 6.68148 22.2571 6.60348ZM22.2831 6.99351C20.8271 7.07152 19.3971 7.43555 18.084 8.0466C16.758 8.68366 15.562 9.55473 14.587 10.6208C13.6119 11.6869 12.8319 12.948 12.3249 14.3131C11.8309 15.6652 11.5969 17.1214 11.6489 18.5645C11.7789 21.5157 11.9349 24.48 12.0909 27.4313L12.3249 31.8646L12.5719 36.298C13.2349 48.116 14.002 59.934 14.73 71.752C15.445 83.57 16.134 95.388 16.706 107.219C16.992 113.135 17.252 119.05 17.512 124.953C17.785 130.868 18.032 136.784 18.2791 142.699C18.5261 148.615 18.7601 154.53 18.9811 160.446L19.0591 162.669L19.0981 163.761C19.1111 163.917 19.1111 164.06 19.1241 164.216L19.1761 164.671C19.3451 165.867 19.7481 167.037 20.3461 168.09C20.9571 169.143 21.7631 170.079 22.7252 170.82C23.6872 171.575 24.7922 172.134 25.9492 172.459C26.5342 172.628 27.1323 172.732 27.7433 172.784L28.1983 172.81C28.3543 172.81 28.5103 172.81 28.6533 172.81L29.7453 172.797L34.1784 172.719L43.0576 172.563L60.816 172.264C72.6463 172.069 84.4895 171.848 96.3198 171.718L105.199 171.614L114.078 171.536L131.837 171.393L136.27 171.354H136.829H137.102H137.245H137.375C137.544 171.341 137.713 171.354 137.882 171.328C138.051 171.315 138.22 171.302 138.389 171.289C139.065 171.211 139.728 171.067 140.378 170.859C141.678 170.443 142.887 169.78 143.94 168.896C144.993 168.025 145.864 166.933 146.514 165.724C147.164 164.515 147.567 163.176 147.697 161.798C147.71 161.707 147.723 161.629 147.723 161.538L147.736 161.278L147.749 161.018V160.758V160.498V160.225L147.736 159.666L147.684 157.442L147.45 148.563L147.19 139.683L146.904 130.803C146.709 124.888 146.501 118.972 146.254 113.057C145.331 89.3945 143.888 65.7585 142.835 42.1095L142.64 37.6761L142.614 37.1171V36.9741L142.601 36.8571L142.588 36.623C142.588 36.467 142.562 36.311 142.536 36.155C142.523 35.999 142.497 35.843 142.458 35.687C142.341 35.0629 142.172 34.4519 141.951 33.8668C141.73 33.2818 141.444 32.7097 141.106 32.1767C140.768 31.6436 140.378 31.1496 139.949 30.6815C139.845 30.5645 139.728 30.4605 139.624 30.3435C139.52 30.2265 139.39 30.1225 139.273 30.0185L139.091 29.8625L138.883 29.6804L138.454 29.3294L136.764 27.8993C132.24 24.077 127.741 20.2416 123.243 16.3803L116.522 10.5818L113.168 7.66957L112.336 6.94151L111.959 6.59048L111.751 6.40846L111.569 6.25245C111.075 5.84941 110.555 5.48538 109.983 5.17336C108.865 4.5623 107.617 4.15927 106.343 4.00326C106.018 3.96425 105.706 3.93825 105.381 3.93825C105.225 3.93825 105.056 3.93825 104.9 3.93825C104.822 3.93825 104.718 3.93825 104.627 3.95125L104.354 3.96425L102.131 4.04226L93.2517 4.32828L75.5063 4.86133L66.6271 5.13435L57.7479 5.43338L53.3148 5.58939L48.8817 5.75841C45.9307 5.87542 42.9666 5.99243 40.0155 6.12244C34.1004 6.39546 28.1853 6.68148 22.2831 6.99351Z"/>
</mask>
<path d="M22.2571 6.60348C28.1723 6.30445 34.0744 5.96642 39.9895 5.61539C42.9406 5.43338 45.8917 5.25136 48.8557 5.05635L53.2888 4.77032L57.7219 4.4713L66.5751 3.84724L75.4283 3.18419L93.1217 1.84507L101.975 1.20802L104.185 1.052L104.458 1.039C104.549 1.039 104.64 1.026 104.744 1.026C104.952 1.013 105.16 1 105.368 1C105.784 1 106.2 1.013 106.616 1.052C108.306 1.19502 109.944 1.66306 111.439 2.43012C112.193 2.80715 112.895 3.26219 113.558 3.78224L113.805 3.97725L114.026 4.15927L114.455 4.5103L115.313 5.21236L118.719 8.0596L125.531 13.7541C130.056 17.5634 134.58 21.3987 139.078 25.2341L140.768 26.6772L141.184 27.0412L141.392 27.2232L141.626 27.4313C141.782 27.5743 141.938 27.7173 142.094 27.8733C142.237 28.0293 142.393 28.1723 142.536 28.3283C143.693 29.5764 144.59 31.0586 145.175 32.6577C145.474 33.4508 145.682 34.2828 145.825 35.1149C145.864 35.3229 145.89 35.5309 145.916 35.739C145.942 35.947 145.968 36.155 145.968 36.376L145.981 36.688L145.994 36.8441V36.9871L146.007 37.5461L146.111 41.9795C146.67 65.6545 146.839 89.3295 147.541 113.005C147.71 118.92 147.892 124.836 148.113 130.751L148.438 139.618L148.789 148.485L149.166 157.351L149.27 159.575L149.296 160.134L149.309 160.42V160.719V161.018L149.296 161.317L149.283 161.616C149.283 161.72 149.27 161.811 149.257 161.915C149.14 163.488 148.698 165.048 147.996 166.465C146.579 169.312 144.031 171.575 141.002 172.628C140.248 172.888 139.468 173.083 138.675 173.2C138.48 173.226 138.272 173.252 138.077 173.265C137.882 173.291 137.674 173.291 137.479 173.304L137.323 173.317H137.18L136.907 173.33L136.348 173.356L131.915 173.525L114.169 174.201L105.303 174.539L96.4238 174.851C84.5935 175.267 72.7633 175.605 60.933 175.943L43.1876 176.463L34.3084 176.723L29.8753 176.853L28.7573 176.879C28.5363 176.879 28.3283 176.879 28.1073 176.879L27.4573 176.84C26.5862 176.775 25.7282 176.619 24.8832 176.398C23.2062 175.93 21.6071 175.137 20.2291 174.084C18.8511 173.018 17.668 171.692 16.784 170.183C15.9 168.675 15.315 166.998 15.068 165.256L14.99 164.606C14.977 164.385 14.964 164.177 14.951 163.956L14.899 162.838L14.808 160.615C14.561 154.699 14.34 148.784 14.132 142.868C13.911 136.953 13.703 131.037 13.5079 125.122C13.3129 119.206 13.1049 113.291 12.9359 107.375C12.5719 95.5311 12.3379 83.687 12.1299 71.856C11.9349 60.012 11.7789 48.181 11.5189 36.337L11.4149 31.9036L11.3109 27.4703L11.0769 18.5775C11.0509 17.0564 11.3239 15.5482 11.8699 14.1311C12.4159 12.727 13.2349 11.4139 14.262 10.3218C15.289 9.2167 16.537 8.31962 17.902 7.68257C19.2671 7.04552 20.7491 6.68148 22.2571 6.60348ZM22.2831 6.99351C20.8271 7.07152 19.3971 7.43555 18.084 8.0466C16.758 8.68366 15.562 9.55473 14.587 10.6208C13.6119 11.6869 12.8319 12.948 12.3249 14.3131C11.8309 15.6652 11.5969 17.1214 11.6489 18.5645C11.7789 21.5157 11.9349 24.48 12.0909 27.4313L12.3249 31.8646L12.5719 36.298C13.2349 48.116 14.002 59.934 14.73 71.752C15.445 83.57 16.134 95.388 16.706 107.219C16.992 113.135 17.252 119.05 17.512 124.953C17.785 130.868 18.032 136.784 18.2791 142.699C18.5261 148.615 18.7601 154.53 18.9811 160.446L19.0591 162.669L19.0981 163.761C19.1111 163.917 19.1111 164.06 19.1241 164.216L19.1761 164.671C19.3451 165.867 19.7481 167.037 20.3461 168.09C20.9571 169.143 21.7631 170.079 22.7252 170.82C23.6872 171.575 24.7922 172.134 25.9492 172.459C26.5342 172.628 27.1323 172.732 27.7433 172.784L28.1983 172.81C28.3543 172.81 28.5103 172.81 28.6533 172.81L29.7453 172.797L34.1784 172.719L43.0576 172.563L60.816 172.264C72.6463 172.069 84.4895 171.848 96.3198 171.718L105.199 171.614L114.078 171.536L131.837 171.393L136.27 171.354H136.829H137.102H137.245H137.375C137.544 171.341 137.713 171.354 137.882 171.328C138.051 171.315 138.22 171.302 138.389 171.289C139.065 171.211 139.728 171.067 140.378 170.859C141.678 170.443 142.887 169.78 143.94 168.896C144.993 168.025 145.864 166.933 146.514 165.724C147.164 164.515 147.567 163.176 147.697 161.798C147.71 161.707 147.723 161.629 147.723 161.538L147.736 161.278L147.749 161.018V160.758V160.498V160.225L147.736 159.666L147.684 157.442L147.45 148.563L147.19 139.683L146.904 130.803C146.709 124.888 146.501 118.972 146.254 113.057C145.331 89.3945 143.888 65.7585 142.835 42.1095L142.64 37.6761L142.614 37.1171V36.9741L142.601 36.8571L142.588 36.623C142.588 36.467 142.562 36.311 142.536 36.155C142.523 35.999 142.497 35.843 142.458 35.687C142.341 35.0629 142.172 34.4519 141.951 33.8668C141.73 33.2818 141.444 32.7097 141.106 32.1767C140.768 31.6436 140.378 31.1496 139.949 30.6815C139.845 30.5645 139.728 30.4605 139.624 30.3435C139.52 30.2265 139.39 30.1225 139.273 30.0185L139.091 29.8625L138.883 29.6804L138.454 29.3294L136.764 27.8993C132.24 24.077 127.741 20.2416 123.243 16.3803L116.522 10.5818L113.168 7.66957L112.336 6.94151L111.959 6.59048L111.751 6.40846L111.569 6.25245C111.075 5.84941 110.555 5.48538 109.983 5.17336C108.865 4.5623 107.617 4.15927 106.343 4.00326C106.018 3.96425 105.706 3.93825 105.381 3.93825C105.225 3.93825 105.056 3.93825 104.9 3.93825C104.822 3.93825 104.718 3.93825 104.627 3.95125L104.354 3.96425L102.131 4.04226L93.2517 4.32828L75.5063 4.86133L66.6271 5.13435L57.7479 5.43338L53.3148 5.58939L48.8817 5.75841C45.9307 5.87542 42.9666 5.99243 40.0155 6.12244C34.1004 6.39546 28.1853 6.68148 22.2831 6.99351Z" fill="#001064"/>
<path d="M22.2571 6.60348C28.1723 6.30445 34.0744 5.96642 39.9895 5.61539C42.9406 5.43338 45.8917 5.25136 48.8557 5.05635L53.2888 4.77032L57.7219 4.4713L66.5751 3.84724L75.4283 3.18419L93.1217 1.84507L101.975 1.20802L104.185 1.052L104.458 1.039C104.549 1.039 104.64 1.026 104.744 1.026C104.952 1.013 105.16 1 105.368 1C105.784 1 106.2 1.013 106.616 1.052C108.306 1.19502 109.944 1.66306 111.439 2.43012C112.193 2.80715 112.895 3.26219 113.558 3.78224L113.805 3.97725L114.026 4.15927L114.455 4.5103L115.313 5.21236L118.719 8.0596L125.531 13.7541C130.056 17.5634 134.58 21.3987 139.078 25.2341L140.768 26.6772L141.184 27.0412L141.392 27.2232L141.626 27.4313C141.782 27.5743 141.938 27.7173 142.094 27.8733C142.237 28.0293 142.393 28.1723 142.536 28.3283C143.693 29.5764 144.59 31.0586 145.175 32.6577C145.474 33.4508 145.682 34.2828 145.825 35.1149C145.864 35.3229 145.89 35.5309 145.916 35.739C145.942 35.947 145.968 36.155 145.968 36.376L145.981 36.688L145.994 36.8441V36.9871L146.007 37.5461L146.111 41.9795C146.67 65.6545 146.839 89.3295 147.541 113.005C147.71 118.92 147.892 124.836 148.113 130.751L148.438 139.618L148.789 148.485L149.166 157.351L149.27 159.575L149.296 160.134L149.309 160.42V160.719V161.018L149.296 161.317L149.283 161.616C149.283 161.72 149.27 161.811 149.257 161.915C149.14 163.488 148.698 165.048 147.996 166.465C146.579 169.312 144.031 171.575 141.002 172.628C140.248 172.888 139.468 173.083 138.675 173.2C138.48 173.226 138.272 173.252 138.077 173.265C137.882 173.291 137.674 173.291 137.479 173.304L137.323 173.317H137.18L136.907 173.33L136.348 173.356L131.915 173.525L114.169 174.201L105.303 174.539L96.4238 174.851C84.5935 175.267 72.7633 175.605 60.933 175.943L43.1876 176.463L34.3084 176.723L29.8753 176.853L28.7573 176.879C28.5363 176.879 28.3283 176.879 28.1073 176.879L27.4573 176.84C26.5862 176.775 25.7282 176.619 24.8832 176.398C23.2062 175.93 21.6071 175.137 20.2291 174.084C18.8511 173.018 17.668 171.692 16.784 170.183C15.9 168.675 15.315 166.998 15.068 165.256L14.99 164.606C14.977 164.385 14.964 164.177 14.951 163.956L14.899 162.838L14.808 160.615C14.561 154.699 14.34 148.784 14.132 142.868C13.911 136.953 13.703 131.037 13.5079 125.122C13.3129 119.206 13.1049 113.291 12.9359 107.375C12.5719 95.5311 12.3379 83.687 12.1299 71.856C11.9349 60.012 11.7789 48.181 11.5189 36.337L11.4149 31.9036L11.3109 27.4703L11.0769 18.5775C11.0509 17.0564 11.3239 15.5482 11.8699 14.1311C12.4159 12.727 13.2349 11.4139 14.262 10.3218C15.289 9.2167 16.537 8.31962 17.902 7.68257C19.2671 7.04552 20.7491 6.68148 22.2571 6.60348ZM22.2831 6.99351C20.8271 7.07152 19.3971 7.43555 18.084 8.0466C16.758 8.68366 15.562 9.55473 14.587 10.6208C13.6119 11.6869 12.8319 12.948 12.3249 14.3131C11.8309 15.6652 11.5969 17.1214 11.6489 18.5645C11.7789 21.5157 11.9349 24.48 12.0909 27.4313L12.3249 31.8646L12.5719 36.298C13.2349 48.116 14.002 59.934 14.73 71.752C15.445 83.57 16.134 95.388 16.706 107.219C16.992 113.135 17.252 119.05 17.512 124.953C17.785 130.868 18.032 136.784 18.2791 142.699C18.5261 148.615 18.7601 154.53 18.9811 160.446L19.0591 162.669L19.0981 163.761C19.1111 163.917 19.1111 164.06 19.1241 164.216L19.1761 164.671C19.3451 165.867 19.7481 167.037 20.3461 168.09C20.9571 169.143 21.7631 170.079 22.7252 170.82C23.6872 171.575 24.7922 172.134 25.9492 172.459C26.5342 172.628 27.1323 172.732 27.7433 172.784L28.1983 172.81C28.3543 172.81 28.5103 172.81 28.6533 172.81L29.7453 172.797L34.1784 172.719L43.0576 172.563L60.816 172.264C72.6463 172.069 84.4895 171.848 96.3198 171.718L105.199 171.614L114.078 171.536L131.837 171.393L136.27 171.354H136.829H137.102H137.245H137.375C137.544 171.341 137.713 171.354 137.882 171.328C138.051 171.315 138.22 171.302 138.389 171.289C139.065 171.211 139.728 171.067 140.378 170.859C141.678 170.443 142.887 169.78 143.94 168.896C144.993 168.025 145.864 166.933 146.514 165.724C147.164 164.515 147.567 163.176 147.697 161.798C147.71 161.707 147.723 161.629 147.723 161.538L147.736 161.278L147.749 161.018V160.758V160.498V160.225L147.736 159.666L147.684 157.442L147.45 148.563L147.19 139.683L146.904 130.803C146.709 124.888 146.501 118.972 146.254 113.057C145.331 89.3945 143.888 65.7585 142.835 42.1095L142.64 37.6761L142.614 37.1171V36.9741L142.601 36.8571L142.588 36.623C142.588 36.467 142.562 36.311 142.536 36.155C142.523 35.999 142.497 35.843 142.458 35.687C142.341 35.0629 142.172 34.4519 141.951 33.8668C141.73 33.2818 141.444 32.7097 141.106 32.1767C140.768 31.6436 140.378 31.1496 139.949 30.6815C139.845 30.5645 139.728 30.4605 139.624 30.3435C139.52 30.2265 139.39 30.1225 139.273 30.0185L139.091 29.8625L138.883 29.6804L138.454 29.3294L136.764 27.8993C132.24 24.077 127.741 20.2416 123.243 16.3803L116.522 10.5818L113.168 7.66957L112.336 6.94151L111.959 6.59048L111.751 6.40846L111.569 6.25245C111.075 5.84941 110.555 5.48538 109.983 5.17336C108.865 4.5623 107.617 4.15927 106.343 4.00326C106.018 3.96425 105.706 3.93825 105.381 3.93825C105.225 3.93825 105.056 3.93825 104.9 3.93825C104.822 3.93825 104.718 3.93825 104.627 3.95125L104.354 3.96425L102.131 4.04226L93.2517 4.32828L75.5063 4.86133L66.6271 5.13435L57.7479 5.43338L53.3148 5.58939L48.8817 5.75841C45.9307 5.87542 42.9666 5.99243 40.0155 6.12244C34.1004 6.39546 28.1853 6.68148 22.2831 6.99351Z" stroke="#001064" stroke-width="1.43989" mask="url(#path-9-outside-2)"/>
<path d="M104.744 2.49512C105.134 3.79523 105.459 5.09534 105.784 6.39545C106.109 7.69556 106.408 9.00867 106.694 10.3218C107.266 12.935 107.786 15.5612 108.28 18.2005L108.631 20.1766C108.748 20.8397 108.852 21.4897 108.969 22.1528C109.073 22.8158 109.19 23.4659 109.294 24.129L109.372 24.623L109.398 24.74L109.424 24.844L109.463 25.052C109.489 25.195 109.515 25.3251 109.554 25.4681L109.606 25.6761C109.619 25.7411 109.645 25.8061 109.658 25.8841C110.256 28.0553 111.595 29.9795 113.376 31.3186C113.818 31.6566 114.299 31.9556 114.793 32.2156C115.287 32.4757 115.794 32.6967 116.327 32.8787C117.38 33.2297 118.498 33.3987 119.629 33.4117L120.058 33.3987L120.552 33.3727L121.553 33.3337C122.216 33.3077 122.892 33.2817 123.555 33.2557L125.557 33.1907L127.559 33.1127C130.237 33.0607 132.902 33.0347 135.593 33.0867C136.932 33.1127 138.271 33.1387 139.623 33.2037C140.963 33.2557 142.315 33.3337 143.654 33.4378C142.341 33.7498 141.015 34.0228 139.701 34.2828C138.388 34.5428 137.062 34.7769 135.736 34.9979C133.097 35.4399 130.445 35.83 127.793 36.168L125.804 36.428L123.815 36.662C123.152 36.74 122.489 36.818 121.826 36.883L120.825 36.9871L120.331 37.0391L119.759 37.0781C118.225 37.1561 116.652 36.9741 115.17 36.519C114.429 36.285 113.701 35.999 113.012 35.6479C112.323 35.2969 111.66 34.8809 111.036 34.4128C108.553 32.5407 106.746 29.7714 106.083 26.7552C106.057 26.6642 106.044 26.5732 106.018 26.4692L105.966 26.1831C105.927 25.9881 105.901 25.8061 105.875 25.6111L105.836 25.3251L105.823 25.182L105.81 25.052L105.758 24.558C105.693 23.8949 105.641 23.2319 105.576 22.5558C105.524 21.8928 105.459 21.2297 105.407 20.5537L105.251 18.5515C105.056 15.8863 104.9 13.208 104.809 10.5298C104.77 9.19069 104.731 7.85157 104.718 6.49946C104.705 5.18635 104.692 3.83423 104.744 2.49512Z" fill="#001064"/>
</svg>
