<svg width="146" height="46" viewBox="0 0 146 46" fill="none" xmlns="http://www.w3.org/2000/svg">
<path d="M27 17H29H45" stroke="#6670A2" stroke-width="1.5" stroke-linecap="round" stroke-linejoin="round"/>
<path d="M32 17V15C32 14.4696 32.2107 13.9609 32.5858 13.5858C32.9609 13.2107 33.4696 13 34 13H38C38.5304 13 39.0391 13.2107 39.4142 13.5858C39.7893 13.9609 40 14.4696 40 15V17M43 17V31C43 31.5304 42.7893 32.0391 42.4142 32.4142C42.0391 32.7893 41.5304 33 41 33H31C30.4696 33 29.9609 32.7893 29.5858 32.4142C29.2107 32.0391 29 31.5304 29 31V17H43Z" stroke="#6670A2" stroke-width="1.5" stroke-linecap="round" stroke-linejoin="round"/>
<path d="M34 22V28" stroke="#6670A2" stroke-width="1.5" stroke-linecap="round" stroke-linejoin="round"/>
<path d="M38 22V28" stroke="#6670A2" stroke-width="1.5" stroke-linecap="round" stroke-linejoin="round"/>
<path d="M57.953 28H59.519V22.402H61.499L65.333 28H67.079L63.137 22.294C64.901 21.952 66.323 20.908 66.323 18.784V18.712C66.323 16.138 64.289 15.13 61.823 15.13H57.953V28ZM59.519 21.16V16.39H61.931C63.677 16.39 64.757 16.966 64.757 18.712V18.784C64.757 20.368 63.767 21.16 61.931 21.16H59.519ZM72.2361 28.162C74.3601 28.162 75.9261 27.172 76.2501 25.282H74.7561C74.5581 26.38 73.7121 26.92 72.2541 26.92C70.3281 26.92 69.3021 25.732 69.2301 23.59H76.3221V23.104C76.3221 19.738 74.2701 18.424 72.0921 18.424C69.5001 18.424 67.6821 20.404 67.6821 23.248V23.392C67.6821 26.29 69.5721 28.162 72.2361 28.162ZM69.2841 22.384C69.5361 20.71 70.5621 19.666 72.0921 19.666C73.6401 19.666 74.6481 20.44 74.7921 22.384H69.2841ZM78.1145 28H79.6085V22.24C79.6085 20.548 80.8685 19.72 82.0925 19.72C83.3885 19.72 84.0905 20.404 84.0905 22.06V28H85.5845V22.24C85.5845 20.548 86.8445 19.72 88.0685 19.72C89.3645 19.72 90.0665 20.404 90.0665 22.06V28H91.5605V22.168C91.5605 19.432 90.0845 18.424 88.3925 18.424C87.2225 18.424 85.8185 18.964 85.1705 20.188C84.6845 18.928 83.6225 18.424 82.4165 18.424C81.0665 18.424 80.0405 19.144 79.6085 20.026V18.586H78.1145V28ZM97.9034 28.162C100.585 28.162 102.547 26.2 102.547 23.356V23.212C102.547 20.386 100.585 18.424 97.9214 18.424C95.2574 18.424 93.2954 20.404 93.2954 23.23V23.374C93.2954 26.128 95.2214 28.162 97.9034 28.162ZM97.9214 26.92C96.0134 26.92 94.8434 25.516 94.8434 23.374V23.23C94.8434 21.07 96.0314 19.666 97.9214 19.666C99.7934 19.666 100.999 21.07 100.999 23.248V23.374C100.999 25.498 99.8114 26.92 97.9214 26.92ZM106.455 28H108.363L111.747 18.586H110.199L107.445 26.488L104.655 18.586H103.035L106.455 28ZM116.801 28.162C118.925 28.162 120.491 27.172 120.815 25.282H119.321C119.123 26.38 118.277 26.92 116.819 26.92C114.893 26.92 113.867 25.732 113.795 23.59H120.887V23.104C120.887 19.738 118.835 18.424 116.657 18.424C114.065 18.424 112.247 20.404 112.247 23.248V23.392C112.247 26.29 114.137 28.162 116.801 28.162ZM113.849 22.384C114.101 20.71 115.127 19.666 116.657 19.666C118.205 19.666 119.213 20.44 119.357 22.384H113.849Z" fill="#6670A2"/>
<path d="M7 1H139V-1H7V1ZM145 7V39H147V7H145ZM139 45H7V47H139V45ZM1 39V7H-1V39H1ZM7 45C3.68629 45 1 42.3137 1 39H-1C-1 43.4183 2.58172 47 7 47V45ZM145 39C145 42.3137 142.314 45 139 45V47C143.418 47 147 43.4183 147 39H145ZM139 1C142.314 1 145 3.68629 145 7H147C147 2.58172 143.418 -1 139 -1V1ZM7 -1C2.58172 -1 -1 2.58172 -1 7H1C1 3.68629 3.68629 1 7 1V-1Z" fill="#6670A2"/>
</svg>
