<svg width="251" height="237" viewBox="0 0 251 237" fill="none" xmlns="http://www.w3.org/2000/svg">
<path d="M21.6978 209H28.6578V207.864H23.0898V203.72H27.3458V202.584H23.0898V198.696H28.3698V197.56H21.6978V209ZM30.6643 209H31.9923V203.928C31.9923 202.424 33.0963 201.64 34.3283 201.64C35.6723 201.64 36.2963 202.296 36.2963 203.768V209H37.6243V203.864C37.6243 201.432 36.4083 200.488 34.6803 200.488C33.3043 200.488 32.3763 201.176 31.9923 201.96V200.632H30.6643V209ZM43.6988 209.144C45.7148 209.144 47.1708 207.8 47.3468 205.992H46.1148C45.9708 207.352 44.8988 208.04 43.7148 208.04C42.0988 208.04 40.9788 206.952 40.9788 204.904V204.776C40.9788 202.808 42.1468 201.592 43.6668 201.592C44.8188 201.592 45.7788 202.088 45.9868 203.416H47.2988C47.0428 201.288 45.4108 200.488 43.6668 200.488C41.4268 200.488 39.6028 202.216 39.6028 204.776V204.904C39.6028 207.496 41.3628 209.144 43.6988 209.144ZM49.3518 209H50.6798V204.408C50.6798 202.344 51.7518 201.816 53.4318 201.736V200.488C51.9278 200.536 51.2078 201.192 50.6798 202.136V200.632H49.3518V209ZM56.1976 211.912H57.5416L62.1656 200.632H60.8056L58.4856 206.632L55.9256 200.632H54.5016L57.7816 208.136L56.1976 211.912ZM63.9143 211.912H65.2423V207.624C65.7223 208.456 66.6983 209.144 68.0743 209.144C70.3783 209.144 71.8823 207.384 71.8823 204.824V204.696C71.8823 202.088 70.2663 200.488 68.0743 200.488C66.8583 200.488 65.7223 201.224 65.2423 202.04V200.632H63.9143V211.912ZM67.9463 208.04C66.3143 208.04 65.1943 207.032 65.1943 204.888V204.76C65.1943 202.616 66.3783 201.592 67.9303 201.592C69.3383 201.592 70.5063 202.648 70.5063 204.76V204.888C70.5063 206.92 69.6103 208.04 67.9463 208.04ZM76.4896 209.112C77.0336 209.112 77.3536 209.032 77.6256 208.936V207.816C77.3376 207.928 77.0176 207.992 76.6016 207.992C75.9296 207.992 75.5616 207.592 75.5616 206.776V201.752H77.5136V200.632H75.5616V198.728H74.2336V200.632H73.0336V201.752H74.2336V206.904C74.2336 208.216 74.9696 209.112 76.4896 209.112ZM83.0571 209.144C84.9451 209.144 86.3371 208.264 86.6251 206.584H85.2971C85.1211 207.56 84.3691 208.04 83.0731 208.04C81.3611 208.04 80.4491 206.984 80.3851 205.08H86.6891V204.648C86.6891 201.656 84.8651 200.488 82.9291 200.488C80.6251 200.488 79.0091 202.248 79.0091 204.776V204.904C79.0091 207.48 80.6891 209.144 83.0571 209.144ZM80.4331 204.008C80.6571 202.52 81.5691 201.592 82.9291 201.592C84.3051 201.592 85.2011 202.28 85.3291 204.008H80.4331ZM91.8788 209.144C93.0948 209.144 94.2628 208.376 94.7428 207.56V209H96.0708V196.632H94.7428V201.976C94.2628 201.16 93.3988 200.488 92.0068 200.488C89.7028 200.488 88.1028 202.296 88.1028 204.856V204.984C88.1028 207.592 89.6868 209.144 91.8788 209.144ZM92.0228 208.04C90.6148 208.04 89.4788 207.032 89.4788 204.92V204.792C89.4788 202.76 90.4708 201.592 92.1348 201.592C93.7668 201.592 94.7908 202.6 94.7908 204.744V204.872C94.7908 207.016 93.5748 208.04 92.0228 208.04ZM105.088 209.144C106.32 209.144 107.072 208.728 107.696 207.944V209H109.024V203.48C109.024 201.144 107.568 200.488 105.968 200.488C104.352 200.488 102.832 201.192 102.656 203.096H103.984C104.112 202.072 104.752 201.592 105.904 201.592C107.184 201.592 107.696 202.152 107.696 203.48V204.088H106.496C104.352 204.088 102.304 204.744 102.304 206.68C102.304 208.392 103.536 209.144 105.088 209.144ZM105.216 208.088C104.048 208.088 103.632 207.544 103.632 206.68C103.632 205.448 104.864 205.032 106.544 205.032H107.696V206.072C107.696 207.368 106.624 208.088 105.216 208.088ZM111.633 209H112.961V203.928C112.961 202.424 114.065 201.64 115.297 201.64C116.641 201.64 117.265 202.296 117.265 203.768V209H118.593V203.864C118.593 201.432 117.377 200.488 115.649 200.488C114.273 200.488 113.345 201.176 112.961 201.96V200.632H111.633V209ZM124.348 209.144C125.564 209.144 126.732 208.376 127.212 207.56V209H128.54V196.632H127.212V201.976C126.732 201.16 125.868 200.488 124.476 200.488C122.172 200.488 120.572 202.296 120.572 204.856V204.984C120.572 207.592 122.156 209.144 124.348 209.144ZM124.492 208.04C123.084 208.04 121.948 207.032 121.948 204.92V204.792C121.948 202.76 122.94 201.592 124.604 201.592C126.236 201.592 127.26 202.6 127.26 204.744V204.872C127.26 207.016 126.044 208.04 124.492 208.04ZM138.053 209.144C140.085 209.144 141.125 208.12 141.125 206.6C141.125 204.824 139.909 204.44 138.181 204.12C136.645 203.848 136.229 203.544 136.229 202.792C136.229 202.072 136.853 201.592 137.813 201.592C138.869 201.592 139.381 201.992 139.573 202.904H140.853C140.629 201.096 139.333 200.488 137.829 200.488C136.517 200.488 134.997 201.288 134.997 202.84C134.997 204.296 135.733 204.904 137.909 205.304C139.205 205.544 139.861 205.832 139.861 206.712C139.861 207.608 139.301 208.04 138.037 208.04C136.693 208.04 136.165 207.416 136.069 206.424H134.773C134.853 208.136 136.053 209.144 138.053 209.144ZM146.573 209.144C148.461 209.144 149.853 208.264 150.141 206.584H148.813C148.637 207.56 147.885 208.04 146.589 208.04C144.877 208.04 143.965 206.984 143.901 205.08H150.205V204.648C150.205 201.656 148.381 200.488 146.445 200.488C144.141 200.488 142.525 202.248 142.525 204.776V204.904C142.525 207.48 144.205 209.144 146.573 209.144ZM143.949 204.008C144.173 202.52 145.085 201.592 146.445 201.592C147.821 201.592 148.717 202.28 148.845 204.008H143.949ZM155.714 209.144C157.73 209.144 159.186 207.8 159.362 205.992H158.13C157.986 207.352 156.914 208.04 155.73 208.04C154.114 208.04 152.994 206.952 152.994 204.904V204.776C152.994 202.808 154.162 201.592 155.682 201.592C156.834 201.592 157.794 202.088 158.002 203.416H159.314C159.058 201.288 157.426 200.488 155.682 200.488C153.442 200.488 151.618 202.216 151.618 204.776V204.904C151.618 207.496 153.378 209.144 155.714 209.144ZM164.199 209.144C165.543 209.144 166.471 208.456 166.855 207.672V209H168.183V200.632H166.855V205.704C166.855 207.208 165.735 207.992 164.551 207.992C163.239 207.992 162.615 207.336 162.615 205.864V200.632H161.287V205.928C161.287 208.232 162.535 209.144 164.199 209.144ZM170.867 209H172.195V204.408C172.195 202.344 173.267 201.816 174.947 201.736V200.488C173.443 200.536 172.723 201.192 172.195 202.136V200.632H170.867V209ZM180.073 209.144C181.961 209.144 183.353 208.264 183.641 206.584H182.313C182.137 207.56 181.385 208.04 180.089 208.04C178.377 208.04 177.465 206.984 177.401 205.08H183.705V204.648C183.705 201.656 181.881 200.488 179.945 200.488C177.641 200.488 176.025 202.248 176.025 204.776V204.904C176.025 207.48 177.705 209.144 180.073 209.144ZM177.449 204.008C177.673 202.52 178.585 201.592 179.945 201.592C181.321 201.592 182.217 202.28 182.345 204.008H177.449ZM188.894 209.144C190.11 209.144 191.278 208.376 191.758 207.56V209H193.086V196.632H191.758V201.976C191.278 201.16 190.414 200.488 189.022 200.488C186.718 200.488 185.118 202.296 185.118 204.856V204.984C185.118 207.592 186.702 209.144 188.894 209.144ZM189.038 208.04C187.63 208.04 186.494 207.032 186.494 204.92V204.792C186.494 202.76 187.486 201.592 189.15 201.592C190.782 201.592 191.806 202.6 191.806 204.744V204.872C191.806 207.016 190.59 208.04 189.038 208.04ZM203.16 209.144C204.376 209.144 205.544 208.376 206.024 207.56V209H207.352V196.632H206.024V201.976C205.544 201.16 204.68 200.488 203.288 200.488C200.984 200.488 199.384 202.296 199.384 204.856V204.984C199.384 207.592 200.968 209.144 203.16 209.144ZM203.304 208.04C201.896 208.04 200.76 207.032 200.76 204.92V204.792C200.76 202.76 201.752 201.592 203.416 201.592C205.048 201.592 206.072 202.6 206.072 204.744V204.872C206.072 207.016 204.856 208.04 203.304 208.04ZM212.135 209.144C213.367 209.144 214.119 208.728 214.743 207.944V209H216.071V203.48C216.071 201.144 214.615 200.488 213.015 200.488C211.399 200.488 209.879 201.192 209.703 203.096H211.031C211.159 202.072 211.799 201.592 212.951 201.592C214.231 201.592 214.743 202.152 214.743 203.48V204.088H213.543C211.399 204.088 209.351 204.744 209.351 206.68C209.351 208.392 210.583 209.144 212.135 209.144ZM212.263 208.088C211.095 208.088 210.679 207.544 210.679 206.68C210.679 205.448 211.911 205.032 213.591 205.032H214.743V206.072C214.743 207.368 213.671 208.088 212.263 208.088ZM221.224 209.112C221.768 209.112 222.088 209.032 222.36 208.936V207.816C222.072 207.928 221.752 207.992 221.336 207.992C220.664 207.992 220.296 207.592 220.296 206.776V201.752H222.248V200.632H220.296V198.728H218.968V200.632H217.768V201.752H218.968V206.904C218.968 208.216 219.704 209.112 221.224 209.112ZM226.542 209.144C227.774 209.144 228.526 208.728 229.15 207.944V209H230.478V203.48C230.478 201.144 229.022 200.488 227.422 200.488C225.806 200.488 224.286 201.192 224.11 203.096H225.438C225.566 202.072 226.206 201.592 227.358 201.592C228.638 201.592 229.15 202.152 229.15 203.48V204.088H227.95C225.806 204.088 223.758 204.744 223.758 206.68C223.758 208.392 224.99 209.144 226.542 209.144ZM226.67 208.088C225.502 208.088 225.086 207.544 225.086 206.68C225.086 205.448 226.318 205.032 227.998 205.032H229.15V206.072C229.15 207.368 228.078 208.088 226.67 208.088ZM44.2552 231.112C44.7992 231.112 45.1192 231.032 45.3912 230.936V229.816C45.1032 229.928 44.7832 229.992 44.3672 229.992C43.6952 229.992 43.3272 229.592 43.3272 228.776V223.752H45.2792V222.632H43.3272V220.728H41.9992V222.632H40.7992V223.752H41.9992V228.904C41.9992 230.216 42.7352 231.112 44.2552 231.112ZM50.8707 231.144C53.2547 231.144 54.9987 229.4 54.9987 226.872V226.744C54.9987 224.232 53.2547 222.488 50.8867 222.488C48.5187 222.488 46.7747 224.248 46.7747 226.76V226.888C46.7747 229.336 48.4867 231.144 50.8707 231.144ZM50.8867 230.04C49.1907 230.04 48.1507 228.792 48.1507 226.888V226.76C48.1507 224.84 49.2067 223.592 50.8867 223.592C52.5507 223.592 53.6227 224.84 53.6227 226.776V226.888C53.6227 228.776 52.5667 230.04 50.8867 230.04ZM61.2893 233.912H62.6173V229.624C63.0973 230.456 64.0733 231.144 65.4493 231.144C67.7533 231.144 69.2573 229.384 69.2573 226.824V226.696C69.2573 224.088 67.6413 222.488 65.4493 222.488C64.2333 222.488 63.0973 223.224 62.6173 224.04V222.632H61.2893V233.912ZM65.3213 230.04C63.6893 230.04 62.5693 229.032 62.5693 226.888V226.76C62.5693 224.616 63.7533 223.592 65.3053 223.592C66.7133 223.592 67.8813 224.648 67.8813 226.76V226.888C67.8813 228.92 66.9853 230.04 65.3213 230.04ZM71.3206 231H72.6486V226.408C72.6486 224.344 73.7206 223.816 75.4006 223.736V222.488C73.8966 222.536 73.1766 223.192 72.6486 224.136V222.632H71.3206V231ZM80.5738 231.144C82.9578 231.144 84.7018 229.4 84.7018 226.872V226.744C84.7018 224.232 82.9578 222.488 80.5898 222.488C78.2218 222.488 76.4778 224.248 76.4778 226.76V226.888C76.4778 229.336 78.1898 231.144 80.5738 231.144ZM80.5898 230.04C78.8938 230.04 77.8538 228.792 77.8538 226.888V226.76C77.8538 224.84 78.9098 223.592 80.5898 223.592C82.2538 223.592 83.3258 224.84 83.3258 226.776V226.888C83.3258 228.776 82.2698 230.04 80.5898 230.04ZM89.3021 231.112C89.8461 231.112 90.1661 231.032 90.4381 230.936V229.816C90.1501 229.928 89.8301 229.992 89.4141 229.992C88.7421 229.992 88.3741 229.592 88.3741 228.776V223.752H90.3261V222.632H88.3741V220.728H87.0461V222.632H85.8461V223.752H87.0461V228.904C87.0461 230.216 87.7821 231.112 89.3021 231.112ZM95.8696 231.144C97.7576 231.144 99.1496 230.264 99.4376 228.584H98.1096C97.9336 229.56 97.1816 230.04 95.8856 230.04C94.1736 230.04 93.2616 228.984 93.1976 227.08H99.5016V226.648C99.5016 223.656 97.6776 222.488 95.7416 222.488C93.4376 222.488 91.8216 224.248 91.8216 226.776V226.904C91.8216 229.48 93.5016 231.144 95.8696 231.144ZM93.2456 226.008C93.4696 224.52 94.3816 223.592 95.7416 223.592C97.1176 223.592 98.0136 224.28 98.1416 226.008H93.2456ZM105.011 231.144C107.027 231.144 108.483 229.8 108.659 227.992H107.427C107.283 229.352 106.211 230.04 105.027 230.04C103.411 230.04 102.291 228.952 102.291 226.904V226.776C102.291 224.808 103.459 223.592 104.979 223.592C106.131 223.592 107.091 224.088 107.299 225.416H108.611C108.355 223.288 106.723 222.488 104.979 222.488C102.739 222.488 100.915 224.216 100.915 226.776V226.904C100.915 229.496 102.675 231.144 105.011 231.144ZM113.208 231.112C113.752 231.112 114.072 231.032 114.344 230.936V229.816C114.056 229.928 113.736 229.992 113.32 229.992C112.648 229.992 112.28 229.592 112.28 228.776V223.752H114.232V222.632H112.28V220.728H110.952V222.632H109.752V223.752H110.952V228.904C110.952 230.216 111.688 231.112 113.208 231.112ZM121.338 233.912H122.682L127.306 222.632H125.946L123.626 228.632L121.066 222.632H119.642L122.922 230.136L121.338 233.912ZM132.293 231.144C134.677 231.144 136.421 229.4 136.421 226.872V226.744C136.421 224.232 134.677 222.488 132.309 222.488C129.941 222.488 128.197 224.248 128.197 226.76V226.888C128.197 229.336 129.909 231.144 132.293 231.144ZM132.309 230.04C130.613 230.04 129.573 228.792 129.573 226.888V226.76C129.573 224.84 130.629 223.592 132.309 223.592C133.973 223.592 135.045 224.84 135.045 226.776V226.888C135.045 228.776 133.989 230.04 132.309 230.04ZM141.309 231.144C142.653 231.144 143.581 230.456 143.965 229.672V231H145.293V222.632H143.965V227.704C143.965 229.208 142.845 229.992 141.661 229.992C140.349 229.992 139.725 229.336 139.725 227.864V222.632H138.397V227.928C138.397 230.232 139.645 231.144 141.309 231.144ZM147.977 231H149.305V226.408C149.305 224.344 150.377 223.816 152.057 223.736V222.488C150.553 222.536 149.833 223.192 149.305 224.136V222.632H147.977V231ZM158.227 233.912H159.555V229.624C160.035 230.456 161.011 231.144 162.387 231.144C164.691 231.144 166.195 229.384 166.195 226.824V226.696C166.195 224.088 164.579 222.488 162.387 222.488C161.171 222.488 160.035 223.224 159.555 224.04V222.632H158.227V233.912ZM162.259 230.04C160.627 230.04 159.507 229.032 159.507 226.888V226.76C159.507 224.616 160.691 223.592 162.243 223.592C163.651 223.592 164.819 224.648 164.819 226.76V226.888C164.819 228.92 163.923 230.04 162.259 230.04ZM168.258 231H169.586V226.408C169.586 224.344 170.658 223.816 172.338 223.736V222.488C170.834 222.536 170.114 223.192 169.586 224.136V222.632H168.258V231ZM174.946 220.888C175.426 220.888 175.826 220.488 175.826 220.008C175.826 219.528 175.426 219.128 174.946 219.128C174.466 219.128 174.066 219.528 174.066 220.008C174.066 220.488 174.466 220.888 174.946 220.888ZM174.306 231H175.634V222.632H174.306V231ZM180.448 231H182.144L185.152 222.632H183.776L181.328 229.656L178.848 222.632H177.408L180.448 231ZM188.917 231.144C190.149 231.144 190.901 230.728 191.525 229.944V231H192.853V225.48C192.853 223.144 191.397 222.488 189.797 222.488C188.181 222.488 186.661 223.192 186.485 225.096H187.813C187.941 224.072 188.581 223.592 189.733 223.592C191.013 223.592 191.525 224.152 191.525 225.48V226.088H190.325C188.181 226.088 186.133 226.744 186.133 228.68C186.133 230.392 187.365 231.144 188.917 231.144ZM189.045 230.088C187.877 230.088 187.461 229.544 187.461 228.68C187.461 227.448 188.693 227.032 190.373 227.032H191.525V228.072C191.525 229.368 190.453 230.088 189.045 230.088ZM198.933 231.144C200.949 231.144 202.405 229.8 202.581 227.992H201.349C201.205 229.352 200.133 230.04 198.949 230.04C197.333 230.04 196.213 228.952 196.213 226.904V226.776C196.213 224.808 197.381 223.592 198.901 223.592C200.053 223.592 201.013 224.088 201.221 225.416H202.533C202.277 223.288 200.645 222.488 198.901 222.488C196.661 222.488 194.837 224.216 194.837 226.776V226.904C194.837 229.496 196.597 231.144 198.933 231.144ZM205.26 233.912H206.604L211.228 222.632H209.868L207.548 228.632L204.988 222.632H203.564L206.844 230.136L205.26 233.912Z" fill="#001064"/>
<path d="M90.193 166.22C93.669 166.22 95.979 164.086 95.979 161.358C95.979 158.212 94.065 157.156 90.369 156.65C87.641 156.254 87.113 155.616 87.113 154.34C87.113 153.13 88.037 152.272 89.819 152.272C91.623 152.272 92.569 152.976 92.855 154.626H95.539C95.231 151.612 93.207 150.072 89.819 150.072C86.541 150.072 84.341 152.008 84.341 154.582C84.341 157.53 86.123 158.674 89.885 159.18C92.437 159.598 93.163 160.148 93.163 161.6C93.163 163.052 91.931 164.02 90.193 164.02C87.531 164.02 86.893 162.7 86.695 161.116H83.879C84.099 164.086 85.903 166.22 90.193 166.22ZM103.173 166.22C106.121 166.22 108.079 164.9 108.453 162.48H105.879C105.681 163.602 104.845 164.24 103.239 164.24C101.259 164.24 100.159 163.008 100.071 160.83H108.497V160.06C108.497 155.946 105.923 154.252 103.063 154.252C99.7853 154.252 97.3433 156.628 97.3433 160.192V160.368C97.3433 163.998 99.7853 166.22 103.173 166.22ZM100.115 159.048C100.379 157.266 101.457 156.188 103.063 156.188C104.713 156.188 105.725 157.068 105.857 159.048H100.115ZM115.413 166.22C118.537 166.22 120.539 164.35 120.737 161.71H118.295C118.141 163.338 116.931 164.174 115.523 164.174C113.565 164.174 112.333 162.854 112.333 160.346V160.17C112.333 157.794 113.631 156.386 115.457 156.386C116.865 156.386 117.877 157.024 118.097 158.564H120.671C120.363 155.396 117.965 154.252 115.413 154.252C112.201 154.252 109.605 156.562 109.605 160.214V160.39C109.605 164.064 112.113 166.22 115.413 166.22ZM126.379 166.22C128.249 166.22 129.459 165.318 130.031 164.196V166H132.693V154.494H130.031V161.336C130.031 163.162 128.777 164.086 127.347 164.086C125.807 164.086 125.081 163.294 125.081 161.556V154.494H122.419V161.864C122.419 164.922 124.113 166.22 126.379 166.22ZM135.35 166H138.012V160.016C138.012 157.574 139.42 156.826 141.752 156.804V154.318C139.816 154.34 138.738 155.198 138.012 156.65V154.494H135.35V166ZM148.417 166.22C151.365 166.22 153.323 164.9 153.697 162.48H151.123C150.925 163.602 150.089 164.24 148.483 164.24C146.503 164.24 145.403 163.008 145.315 160.83H153.741V160.06C153.741 155.946 151.167 154.252 148.307 154.252C145.029 154.252 142.587 156.628 142.587 160.192V160.368C142.587 163.998 145.029 166.22 148.417 166.22ZM145.359 159.048C145.623 157.266 146.701 156.188 148.307 156.188C149.957 156.188 150.969 157.068 151.101 159.048H145.359ZM159.931 166.22C161.625 166.22 163.099 165.208 163.715 164.064V166H166.377V149.17H163.715V156.254C163.077 155.11 161.911 154.252 160.041 154.252C157.049 154.252 154.871 156.584 154.871 160.258V160.434C154.871 164.174 157.049 166.22 159.931 166.22ZM160.591 164.108C158.875 164.108 157.599 162.898 157.599 160.368V160.192C157.599 157.706 158.743 156.342 160.701 156.342C162.637 156.342 163.803 157.596 163.803 160.126V160.302C163.803 162.876 162.439 164.108 160.591 164.108Z" fill="#001064"/>
<circle cx="126" cy="47" r="42" fill="#F3EEFF"/>
<g clip-path="url(#clip0)">
<path fill-rule="evenodd" clip-rule="evenodd" d="M113.999 73.0199C117.453 73.2121 121.195 72.4434 124.841 71.963C127.624 71.5787 130.31 71.2905 133.093 71.0022C134.34 70.9061 135.588 70.714 136.835 70.3296C140.865 69.0806 144.991 68.8884 149.117 68.7924C151.516 68.6963 153.915 68.5041 156.217 69.0806C156.505 69.1767 156.697 69.1767 156.985 69.1767C157.849 69.3688 158.424 69.7532 158.136 70.714C157.945 71.3865 157.273 71.963 156.505 71.963C154.682 71.7709 152.763 71.7709 150.94 71.8669C145.567 71.963 140.193 72.6356 134.916 73.6925C131.078 74.4611 127.24 75.0376 123.402 75.518C118.988 75.9984 114.478 76.0945 110.064 76.0945C107.762 76.0945 105.459 75.6141 103.156 75.6141C101.813 75.6141 100.661 74.7494 99.6057 73.9807C95.9595 71.2905 95.2879 65.3334 97.015 62.3549C97.3028 61.7784 97.3988 61.4902 96.919 61.1059C94.7121 59.7607 95 57.5509 95.3838 55.5332C95.5757 54.3802 96.2474 53.3233 96.919 52.4586C97.2069 52.0743 97.3028 51.786 96.7271 51.4978C95.3838 50.9213 95 49.6722 95 48.3271C95 46.3094 95.6717 44.4839 97.3028 43.1387C97.8786 42.6583 98.4543 42.1779 99.03 41.7936C99.5097 41.4093 99.4138 41.121 99.1259 40.7367C98.5502 39.7759 97.8786 38.9112 97.3988 37.8543C96.2474 35.4523 96.919 34.4915 98.8381 32.8581C100.469 31.513 102.388 31.2247 104.403 31.1286C108.817 30.8404 113.231 31.3208 117.645 31.4169C119.852 31.4169 122.058 31.7051 124.361 31.4169C125.321 31.3208 125.225 30.9365 125.033 30.2639C124.361 27.6697 123.594 24.9795 122.922 22.3853C121.963 18.8303 121.675 15.1792 121.195 11.5281C120.907 9.41435 121.291 7.39665 121.675 5.47503C122.058 3.74557 123.21 2.30436 124.265 0.959225C124.841 0.286659 125.705 -0.0976646 126.76 0.190578C127.72 0.478821 128.679 0.863144 129.447 1.34355C130.31 1.82395 130.502 2.88084 130.79 3.64949C132.901 9.1261 134.532 14.6027 136.451 20.0793C138.082 24.7873 139.906 29.4953 142.4 33.7228C143.648 35.8366 144.895 38.0465 146.526 39.9681C147.198 40.7367 147.966 41.025 148.829 41.3132C151.612 42.0819 154.298 42.9466 157.081 43.427C158.232 43.6191 158.808 44.3878 158.712 45.1564C158.52 45.829 157.273 46.6937 156.409 46.5016C154.01 46.0212 151.516 45.4447 149.117 45.1564C146.238 44.7721 144.607 42.9466 143.168 40.7367C141.153 37.7582 139.714 34.3954 137.987 31.3208C135.78 27.3815 134.532 22.9618 133.093 18.6381C132.037 15.4674 130.598 12.3929 129.831 9.03002C129.447 7.20448 128.871 5.57111 128.103 3.84165C127.528 2.5926 126.472 2.49652 125.609 3.64949C124.457 5.18679 124.265 7.1084 124.169 8.93394C124.073 13.0654 124.745 17.1969 125.609 21.2323C126.184 23.9226 127.048 26.6128 128.007 29.207C128.295 29.9757 128.487 30.8404 128.679 31.7051C128.871 32.762 128.391 33.6267 127.336 33.915C124.841 34.5875 122.346 34.6836 119.756 34.6836C119.468 34.6836 119.084 34.4915 118.796 34.8758C118.604 35.2601 118.892 35.5484 119.084 35.8366C119.372 36.317 119.66 36.7013 119.948 37.1817C121.003 38.6229 121.003 40.2563 119.852 41.6014C119.66 41.8897 119.372 42.1779 119.18 42.4662C118.7 42.9466 118.796 43.3309 119.18 43.9074C120.235 45.3486 120.907 46.8859 121.291 48.7114C121.675 50.537 121.099 51.8821 119.468 52.8429C118.892 53.1312 118.988 53.3233 119.372 53.7076C120.235 54.6685 120.907 55.6293 121.099 56.9744C121.291 58.5117 120.811 59.7607 119.948 60.9137C119.468 61.5863 118.988 62.2589 119.18 63.2197C119.372 64.2766 119.372 65.3334 119.084 66.3903C118.796 67.4472 118.22 68.1198 117.165 68.3119C113.423 68.9845 109.681 69.3688 105.939 69.6571C105.363 69.6571 104.787 69.561 104.307 69.4649C103.924 69.3688 103.636 69.2728 103.54 68.7924C103.444 68.408 103.732 68.2159 104.019 68.0237C105.267 67.4472 106.706 67.4472 108.049 67.2551C110.352 66.9668 112.655 66.6786 114.958 66.3903C115.63 66.2942 116.301 66.1982 116.493 65.3334C116.685 64.5648 116.301 64.0844 115.822 63.604C115.15 63.0275 114.478 62.6432 113.615 62.3549C109.585 61.1059 105.459 61.4902 101.429 62.2589C101.717 62.3549 101.621 62.451 101.525 62.451C99.4138 62.7393 98.6462 63.9883 98.6462 66.1021C98.6462 68.2159 99.7016 69.8492 100.853 71.3865C101.333 72.0591 102.1 72.0591 102.772 72.2513C106.418 72.8277 109.969 73.116 113.999 73.0199ZM113.231 50.7291C113.231 50.8252 113.231 50.9213 113.231 51.0174C114.67 51.1135 116.109 51.2095 117.453 51.2095C118.316 51.2095 119.18 51.0174 119.564 50.0566C120.043 48.5193 118.028 44.58 116.109 44.1956C114.478 43.9074 112.943 43.5231 111.312 43.427C108.721 43.3309 106.13 43.2348 103.636 43.0427C101.141 42.8505 98.3583 44.4839 97.4948 46.6937C97.2069 47.4624 97.3028 48.135 97.7826 48.7114C98.934 50.0566 100.469 50.7291 102.196 50.7291C105.939 50.7291 109.585 50.7291 113.231 50.7291ZM118.604 57.2626C118.604 55.341 117.933 54.4763 115.63 53.8998C112.367 53.1312 109.009 53.4194 105.651 53.4194C104.115 53.4194 102.58 53.5155 101.045 53.8998C99.7976 54.188 98.7421 54.7645 97.8786 55.7253C97.6867 56.0136 97.4948 56.3018 97.4948 56.5901C97.3988 58.3195 99.3178 60.3372 101.045 59.7607C101.717 59.5686 102.484 59.5686 103.156 59.5686C107.762 59.1843 112.367 59.3764 116.973 60.5294C117.357 60.6255 117.741 60.7215 117.933 60.2411C118.316 59.2803 118.604 58.5117 118.604 57.2626ZM106.706 34.3954C106.706 34.2993 106.706 34.2993 106.706 34.2032C105.747 34.2032 104.883 34.2032 103.924 34.2032C102.868 34.2032 102.004 34.4915 101.141 35.164C99.5097 36.4131 99.7016 38.2386 101.621 39.1033C103.444 39.9681 105.459 40.4485 107.378 40.9289C110.448 41.5054 113.519 41.4093 116.589 40.5446C117.933 40.1602 118.316 39.0073 117.453 37.8543C117.165 37.47 116.685 37.0856 116.397 36.7013C115.438 35.2601 113.999 34.6836 112.367 34.5875C110.448 34.2993 108.625 34.3954 106.706 34.3954Z" fill="#001064"/>
</g>
<defs>
<clipPath id="clip0">
<rect width="64" height="76" fill="white" transform="translate(95)"/>
</clipPath>
</defs>
</svg>
