<svg width="172" height="120" viewBox="0 0 172 120" fill="none" xmlns="http://www.w3.org/2000/svg">
<path d="M52.2487 48.9133L40.8902 48.5872L39.2676 6.52199C39.2676 3.13069 42.0802 2.28286 43.4864 2.28286L104.173 0.978516L107.419 1.95678L127.864 19.2394L129.162 21.1959V33.5872L125.268 35.8698L114.234 40.1089L97.0337 43.3698L80.8072 43.6959L66.528 40.7611L55.8185 37.1742L47.0563 33.5872L44.46 35.2176V38.1524L49.0034 42.7176L58.4148 47.2829L52.2487 48.9133Z" fill="#E9F7FF"/>
<path d="M41.8633 76.9569V70.7613C60.0369 72.8483 77.9941 69.8917 84.7011 68.1526C97.163 66.0656 119.966 57.9352 129.811 54.1309L132.082 111.522C132.342 115.435 129.811 116.631 128.512 116.74L48.3539 119.348C44.1999 119.348 43.1614 117.174 43.1614 116.087L42.1878 97.5004L47.0557 99.4569L68.4746 104.348L98.9803 107.935L115.531 106.957L120.399 105.327L121.373 103.044L123.969 101.413V99.4569L122.022 98.1526H124.943L127.214 96.5222L127.539 94.8917L125.916 93.2613L119.75 92.9352L118.127 91.6309L125.916 89.3483L127.539 87.0656L125.916 84.4569L122.671 83.8048L114.882 85.7613L98.6558 85.1091L97.0331 83.8048L103.524 81.5222L111.312 75.6526L112.286 72.7178L110.014 70.7613H107.418L102.875 72.7178L87.6218 77.9352L78.8595 79.8917L68.1501 80.2178L55.169 79.8917L46.4067 78.2613L41.8633 76.9569Z" fill="#E9F7FF"/>
<path d="M149.023 42.6611C141.466 46.8671 133.679 50.6667 125.708 53.9979C111.624 59.8828 96.9143 64.2567 81.9405 67.1727C74.1629 68.6837 66.2708 69.8589 58.3611 70.283C54.3358 70.4951 50.3017 70.5128 46.2852 70.1151C44.2417 69.9119 42.2159 69.5673 40.2164 69.1343C39.2652 68.9311 38.3227 68.7102 37.3802 68.4716C36.9927 68.3744 36.3497 68.2684 36.0678 67.9326C35.9005 67.7294 35.9005 67.4908 35.9533 67.3494C36.015 67.3671 36.0766 67.3848 36.1295 67.3936C36.2792 67.8001 36.8077 67.8619 37.1336 67.6498C37.6973 67.7824 38.261 67.9149 38.8159 68.0298C40.6745 68.4363 42.5594 68.7279 44.4531 68.9222C46.3821 69.1166 48.4696 69.5054 50.4074 69.2845C51.5437 69.1608 51.5701 67.5791 50.4074 67.482C48.822 67.3494 47.1925 67.535 45.5982 67.4378C43.9951 67.3494 42.392 67.102 40.8066 66.8104C39.3797 66.5453 37.9616 66.2184 36.5611 65.8296C36.5435 65.8296 36.5258 65.8207 36.5082 65.8207C36.3056 65.7236 36.0942 65.6705 35.874 65.6617C34.6321 65.3613 33.0026 64.9813 32.386 64.0093C31.3819 62.4277 33.6368 62.2509 34.6497 62.3305C36.1471 62.4453 37.6445 62.6662 39.133 62.8341C40.6921 63.0108 42.2423 63.1699 43.8013 63.3378C45.3251 63.4968 46.9458 63.8414 48.4696 63.7354C48.681 63.7177 48.822 63.594 48.8836 63.435C48.9012 63.4261 48.91 63.4173 48.9277 63.4173C49.5354 63.0727 49.4121 62.2951 48.9277 61.924C48.223 61.385 47.4919 61.5352 46.6464 61.4822C45.8712 61.438 45.1049 61.3673 44.3386 61.3055C42.6475 61.1641 40.9563 60.9962 39.2652 60.8106C37.5123 60.6162 35.7595 60.3512 34.0155 60.0684C32.8352 59.8828 30.2545 59.874 29.6115 58.6546C28.5897 56.746 32.4829 56.9669 33.399 56.9581C35.0725 56.9492 36.7549 56.9492 38.4284 56.9404C41.0884 56.9315 43.8806 57.1348 46.5759 56.9404C47.2982 57.0464 48.0204 57.1525 48.7427 57.2585C49.8613 57.4175 50.3546 55.6945 49.2183 55.5178C47.3862 55.2438 45.5542 54.9964 43.7133 54.749C42.7884 54.6253 41.8636 54.5016 40.9475 54.3779C39.7937 54.0863 38.6486 53.724 37.4859 53.4589C37.5035 53.4324 37.53 53.3971 37.5476 53.3706C35.9357 52.9994 34.3326 52.6018 32.7384 52.16C31.6902 51.8684 29.1535 51.082 29.7788 49.5003C30.6332 47.3443 34.13 48.599 35.6362 48.9436C44.048 50.8523 52.8473 50.6402 61.1709 48.4135C62.2543 48.1219 62.3248 46.3723 61.1709 46.1249C56.5203 45.1441 52.1074 43.2796 48.2142 40.5316C47.0515 39.7098 43.5723 37.3152 45.1314 35.5568C46.7609 33.7189 49.9758 35.8661 51.6141 36.6172C66.9931 43.6861 84.2658 46.2839 101.001 43.7745C116.838 41.4064 132.006 34.6202 144.487 24.5204C145.147 23.9902 144.214 23.0448 143.553 23.5838C139.413 26.9769 134.974 29.9723 130.297 32.5348L130.279 32.093L130.068 25.943L129.962 22.868L129.953 22.4793C129.953 22.4262 129.945 22.329 129.945 22.2495C129.945 22.17 129.936 22.0905 129.927 22.0109C129.892 21.6928 129.821 21.3747 129.724 21.0655C129.531 20.4469 129.222 19.8726 128.817 19.3778C128.764 19.3159 128.712 19.254 128.659 19.1922C128.606 19.1303 128.553 19.0685 128.491 19.0155C128.438 18.9625 128.377 18.9006 128.315 18.8476L128.227 18.7681C128.192 18.7416 128.174 18.715 128.148 18.6974L127.566 18.1937L126.404 17.1864L124.087 15.1717L119.445 11.1424L110.144 3.1015L108.981 2.10301L108.4 1.59935L108.109 1.35194L107.96 1.22823L107.88 1.15754L107.792 1.08685C107.299 0.698059 106.744 0.397628 106.145 0.212068C105.846 0.123707 105.537 0.0530171 105.229 0.0265086L105 0.00883619C104.921 0.00883619 104.842 0 104.762 0H104.533L104.339 0.00883619L98.209 0.212068C94.0956 0.344611 90.0087 0.494826 85.9217 0.653878L73.652 1.13103L67.5216 1.36077L61.3911 1.58168L55.2519 1.78491L49.1214 1.97047L46.0562 2.05883L44.5236 2.10301L43.7573 2.12068L43.3697 2.12952C43.2464 2.12952 43.1055 2.14719 42.9822 2.15603C42.4625 2.20905 41.9516 2.35926 41.4848 2.59784C41.018 2.83642 40.5952 3.17219 40.2517 3.56098C39.9082 3.95861 39.6351 4.41809 39.4589 4.91292C39.2828 5.40775 39.2035 5.93792 39.2211 6.45925C39.5118 14.6592 39.7496 22.868 39.9434 31.0769L40.0755 37.2357L40.1988 43.3945L40.2781 47.3796C38.5605 47.1411 36.8517 46.8141 35.1518 46.4076C33.3902 45.9923 31.5316 45.6389 29.8229 46.4342C28.5369 47.0262 27.4799 48.2279 27.383 49.7035C27.1716 52.9199 30.7741 54.104 33.258 54.6783C33.9627 54.8462 34.6761 55.0053 35.3808 55.1731C35.4248 55.2085 35.4689 55.2438 35.5217 55.2703C33.1611 55.2527 27.2157 54.4663 27.5416 58.4779C27.6737 60.0772 29.0301 61.0934 30.4482 61.491C30.7477 61.5794 31.056 61.6501 31.3643 61.7119C30.8798 62.1184 30.6068 62.7369 30.6861 63.6559C30.8094 65.1139 31.9985 65.971 33.2404 66.457C33.5927 66.5983 33.9539 66.722 34.3238 66.8457C33.9715 67.9768 34.9404 69.258 35.9533 69.744C37.4067 70.4421 39.1418 70.7602 40.8154 71.0164C40.8594 72.6423 40.9035 74.2681 40.9475 75.894L42.6475 76.38C42.577 74.6746 42.5065 72.9604 42.4273 71.255C42.5242 71.2727 42.6122 71.2815 42.7003 71.2992C45.0961 71.6791 47.5096 71.9972 49.9318 72.1916C67.6537 73.6408 85.4901 69.9119 102.472 65.0167C111.509 62.41 120.397 59.2731 129.073 55.615L129.584 69.0636C129.901 77.2636 130.209 85.4724 130.552 93.6724L130.808 99.8224L131.081 105.972L131.354 112.122C131.363 112.246 131.363 112.379 131.372 112.502V112.829L131.336 113.156C131.319 113.262 131.292 113.368 131.275 113.483C131.169 113.907 130.984 114.314 130.72 114.676C130.209 115.401 129.416 115.913 128.544 116.081L128.377 116.116L128.209 116.134L128.042 116.152C127.989 116.16 127.919 116.16 127.857 116.16L127.091 116.196L125.558 116.267L122.493 116.399L116.363 116.664C112.276 116.832 108.189 117 104.102 117.159C95.9277 117.468 87.745 117.751 79.5623 117.99C71.3795 118.228 63.2056 118.414 55.0229 118.582L48.8836 118.705L47.351 118.741C46.9194 118.75 46.4878 118.67 46.0826 118.52C45.2811 118.219 44.6029 117.601 44.2329 116.832C44.048 116.452 43.9335 116.037 43.8982 115.613L43.8894 115.454C43.8894 115.427 43.8894 115.401 43.8894 115.365V115.268L43.8806 114.879L43.863 114.111L43.7837 111.036L43.6164 104.877C43.5635 102.844 43.5019 100.803 43.4402 98.7709C46.6111 99.8224 49.7997 100.812 53.0058 101.731C70.0759 106.626 88.0269 110.355 105.846 108.906C108.277 108.712 110.708 108.393 113.121 108.014C115.314 107.669 117.886 107.422 119.912 106.458C120.934 105.972 121.903 104.682 121.551 103.56C121.92 103.436 122.282 103.313 122.634 103.171C123.885 102.685 125.083 101.819 125.206 100.37C125.285 99.4513 125.003 98.8327 124.519 98.4263C124.827 98.3556 125.135 98.2849 125.435 98.2054C126.862 97.7989 128.227 96.7827 128.359 95.1922C128.685 91.1806 122.704 91.967 120.326 91.9847C120.379 91.9582 120.423 91.9228 120.467 91.8875C121.181 91.7196 121.894 91.5606 122.608 91.3927C125.109 90.8183 128.738 89.6343 128.518 86.4179C128.421 84.9511 127.364 83.7494 126.06 83.1485C124.343 82.3621 122.467 82.7067 120.696 83.122C116.777 84.0321 112.822 84.5711 108.796 84.5888C105.758 84.6065 102.745 84.3502 99.7593 83.8377C102.349 82.9364 104.833 81.7436 107.158 80.2679C109.721 78.6421 114.733 75.3638 112.707 71.635C110.584 67.7205 105.775 70.4244 102.957 71.7145C98.764 73.6408 94.4127 75.2048 89.9647 76.433C72.736 81.1869 54.1156 80.6655 37.2569 74.7011C27.9732 71.4229 19.3148 66.5188 11.6782 60.2981C11.0175 59.7591 10.0751 60.7046 10.7445 61.2348C23.2784 71.3257 38.5253 78.1119 54.4592 80.48C71.2915 82.9895 88.6522 80.3916 104.128 73.3227C105.784 72.5628 109.008 70.4244 110.655 72.2623C112.223 74.0119 108.717 76.4153 107.554 77.2371C103.635 79.9852 99.1956 81.8496 94.5184 82.8304C93.3558 83.0778 93.4351 84.8274 94.5184 85.119C102.895 87.3457 111.738 87.5578 120.203 85.6492C121.718 85.3045 125.232 84.0498 126.096 86.2058C126.73 87.7963 124.167 88.5828 123.118 88.8655C121.524 89.3073 119.903 89.6961 118.283 90.0761C118.3 90.1026 118.327 90.1379 118.344 90.1644C117.173 90.4295 116.028 90.7918 114.865 91.0834C113.94 91.2071 113.007 91.3308 112.082 91.4545C110.232 91.7019 108.391 91.9494 106.55 92.2233C105.405 92.3912 105.899 94.1142 107.026 93.964C107.748 93.8668 108.479 93.7519 109.202 93.6459C111.914 93.8403 114.724 93.6371 117.402 93.6459C119.084 93.6547 120.775 93.6547 122.458 93.6636C123.374 93.6636 127.293 93.4427 126.263 95.3601C125.611 96.5795 123.013 96.5884 121.832 96.7739C120.08 97.0478 118.318 97.3129 116.548 97.5161C114.848 97.7105 113.148 97.8696 111.448 98.011C110.673 98.0728 109.897 98.1435 109.122 98.1877C108.268 98.2407 107.537 98.0905 106.823 98.6295C106.33 99.0006 106.207 99.7782 106.823 100.123C106.841 100.132 106.85 100.141 106.867 100.141C106.929 100.3 107.07 100.432 107.281 100.441C108.814 100.547 110.444 100.194 111.976 100.043C113.544 99.8843 115.103 99.7164 116.671 99.5396C118.168 99.3717 119.674 99.1508 121.181 99.036C122.202 98.9565 124.466 99.1243 123.453 100.715C122.837 101.687 121.189 102.067 119.947 102.367C119.727 102.376 119.507 102.429 119.304 102.526C119.287 102.526 119.269 102.535 119.252 102.535C117.842 102.924 116.415 103.251 114.98 103.516C113.394 103.808 111.774 104.046 110.162 104.143C108.55 104.232 106.92 104.055 105.326 104.187C104.163 104.285 104.181 105.866 105.326 105.99C107.273 106.202 109.369 105.822 111.316 105.628C113.218 105.433 115.121 105.142 116.988 104.735C117.552 104.612 118.115 104.488 118.679 104.355C119.005 104.567 119.533 104.514 119.683 104.099C119.745 104.081 119.807 104.064 119.859 104.055C119.912 104.196 119.912 104.435 119.745 104.638C119.463 104.974 118.82 105.08 118.424 105.177C117.481 105.416 116.53 105.637 115.57 105.84C113.553 106.264 111.518 106.617 109.466 106.821C105.423 107.218 101.371 107.201 97.3194 106.989C89.3569 106.564 81.4208 105.389 73.5992 103.878C58.5461 100.971 43.7485 96.5972 29.5762 90.7034C21.5609 87.3722 13.7216 83.5815 6.12905 79.3666C4.5612 78.5007 3.19595 80.4623 4.28815 81.7612C4.71094 82.2649 5.24824 82.5211 5.80315 82.8392C6.00573 82.9541 6.20832 82.9895 6.41091 82.963C17.7381 88.9627 29.5498 94.0612 41.6874 98.1877C41.7755 100.432 41.8724 102.685 41.9693 104.93L42.2423 111.08L42.3832 114.155L42.4185 114.923L42.4361 115.312L42.4449 115.409C42.4449 115.445 42.4449 115.471 42.4537 115.515L42.4713 115.736C42.533 116.337 42.7091 116.92 42.9822 117.451C43.5371 118.52 44.4972 119.35 45.6158 119.739C46.1795 119.934 46.7697 120.022 47.3598 119.995L48.8924 119.925L55.0229 119.642C63.1968 119.262 71.3707 118.909 79.5535 118.599C87.7274 118.29 95.9101 118.034 104.093 117.795C108.18 117.68 112.276 117.574 116.363 117.468L122.502 117.327L125.567 117.256L127.1 117.221L127.866 117.203C127.928 117.203 127.989 117.203 128.06 117.194L128.271 117.177L128.483 117.159L128.694 117.124C129.266 117.026 129.813 116.814 130.315 116.514C130.808 116.214 131.248 115.807 131.592 115.348C131.944 114.879 132.2 114.349 132.358 113.784C132.393 113.642 132.429 113.501 132.455 113.351L132.508 112.918L132.517 112.476C132.517 112.343 132.508 112.22 132.508 112.087L132.367 105.928L132.217 99.7694L132.059 93.6106C131.856 85.4017 131.601 77.2018 131.363 68.9929L130.94 54.7844C136.982 52.1777 142.91 49.3324 148.715 46.2398C148.909 46.2574 149.111 46.2221 149.314 46.1161C149.877 45.798 150.406 45.5417 150.82 45.038C151.939 43.7568 150.582 41.7863 149.023 42.6611ZM106.621 2.50948L108.893 4.52413L118.115 12.6534L122.731 16.7092L125.039 18.7327L126.192 19.7489L126.774 20.2525C126.8 20.2702 126.827 20.2967 126.835 20.3144L126.888 20.3674C126.923 20.4028 126.959 20.4293 126.994 20.4646C127.029 20.5 127.064 20.5353 127.091 20.5706C127.126 20.606 127.152 20.6413 127.179 20.6767C127.293 20.8181 127.399 20.9771 127.478 21.1362C127.743 21.1627 128.007 21.1892 128.271 21.2245C124.748 21.2775 121.233 21.4631 117.719 21.6928C115.949 21.8077 114.169 21.9491 112.399 22.0905C111.959 22.1258 111.509 22.1612 111.069 22.2053L110.99 22.2142H110.919C110.875 22.2142 110.822 22.223 110.778 22.223C110.681 22.223 110.593 22.223 110.496 22.223C110.311 22.2142 110.126 22.1965 109.941 22.1523C109.21 22.0109 108.515 21.6398 107.995 21.1096C107.466 20.5795 107.105 19.8903 106.991 19.148C106.973 19.0597 106.964 18.9625 106.955 18.8741C106.947 18.7769 106.938 18.6974 106.938 18.5737L106.911 17.9021L106.85 16.5678C106.806 15.6754 106.771 14.7829 106.718 13.8993C106.674 13.0069 106.621 12.1232 106.568 11.2308C106.374 8.17347 106.154 5.10732 105.846 2.04999C106.136 2.15603 106.392 2.31508 106.621 2.50948ZM105.67 1.07801C105.661 1.36077 105.643 1.64353 105.634 1.93512C105.643 1.62586 105.652 1.32543 105.661 1.01616C105.661 1.03383 105.67 1.06034 105.67 1.07801ZM41.0356 43.3592L40.7185 37.2092L40.419 31.0592C40.0315 22.8592 39.688 14.6592 39.4061 6.45042C39.3885 5.94675 39.4678 5.44309 39.6351 4.97477C39.8025 4.50645 40.0579 4.06465 40.3926 3.69353C41.0532 2.94245 41.9957 2.45646 42.991 2.3681C43.1143 2.35926 43.2376 2.35043 43.3697 2.35043L43.7573 2.34159L44.5236 2.32392L46.0562 2.29741L49.1214 2.24439L55.2607 2.15603L61.3999 2.08534L67.5392 2.03232L73.6785 1.99698L85.957 1.92629C90.0527 1.89978 94.1397 1.87327 98.2355 1.82909L104.375 1.7584H104.569H104.718L104.868 1.76724L105.018 1.78491C105.211 1.81142 105.414 1.8556 105.599 1.91745C105.617 1.92629 105.625 1.92629 105.643 1.93512C105.52 5.03663 105.485 8.13813 105.493 11.2396C105.493 12.1321 105.502 13.0245 105.511 13.917C105.52 14.8094 105.537 15.7019 105.546 16.5944L105.573 17.9286L105.59 18.6002C105.59 18.7062 105.599 18.8476 105.608 18.9713C105.625 19.1038 105.634 19.2275 105.652 19.3601C105.81 20.3851 106.304 21.3571 107.026 22.0905C107.748 22.8239 108.7 23.3275 109.712 23.5131C109.968 23.5573 110.223 23.5838 110.479 23.5926C110.611 23.6015 110.734 23.5926 110.866 23.5926C110.928 23.5926 110.99 23.5838 111.06 23.5749L111.157 23.5661L111.236 23.5573C111.677 23.5131 112.117 23.4689 112.557 23.4159C114.328 23.2215 116.09 23.0183 117.851 22.7885C121.366 22.3467 124.871 21.8519 128.359 21.2245C128.465 21.2334 128.571 21.2422 128.685 21.2599C128.333 21.304 127.972 21.3394 127.619 21.3747C127.663 21.4719 127.699 21.578 127.734 21.684C127.787 21.8696 127.831 22.0551 127.848 22.2407C127.857 22.2849 127.857 22.3379 127.857 22.3821C127.857 22.4351 127.866 22.4704 127.866 22.5411L127.875 22.9299L127.98 26.0049L128.192 32.1549L128.245 33.604C124.968 35.2829 121.577 36.7497 118.107 37.9779C101.336 43.9424 82.8213 44.4637 65.6983 39.7098C61.2766 38.4816 56.9519 36.9176 52.7856 34.9913C49.9846 33.7012 45.2018 30.9973 43.0879 34.9118C41.0708 38.6406 46.0474 41.9189 48.6018 43.5447C50.9095 45.0115 53.3846 46.2044 55.9565 47.1145C52.997 47.627 49.9934 47.8833 46.9723 47.8656C45.0521 47.8568 43.1407 47.7242 41.2558 47.4945L41.0356 43.3592Z" fill="#001064"/>
<path d="M171.704 61.0359C171.132 60.6035 170.19 60.6208 169.486 60.4219C168.712 60.1971 167.964 59.9117 167.26 59.5485C165.817 58.8049 164.55 57.7932 163.582 56.5739C162.588 55.3201 161.911 53.8241 161.603 52.3022C161.594 52.2417 161.576 52.1725 161.567 52.1119C161.849 50.59 161.911 49.0422 161.682 47.5981C161.55 46.7334 160.036 46.742 159.966 47.6327C159.948 47.8229 159.94 48.0132 159.948 48.2034C159.948 48.2726 159.957 48.3331 159.975 48.3936C159.992 49.6043 160.001 50.7976 159.799 52.0168C159.552 53.5041 159.095 54.9742 158.444 56.3577C157.881 57.5597 157.115 58.7184 155.998 59.5658C154.766 60.4997 153.305 60.8197 151.73 60.837C151.229 60.8456 151.018 61.425 151.51 61.6325C151.95 61.8141 152.399 61.9179 152.83 61.9525C153.05 62.0908 153.261 62.2205 153.516 62.3329C154 62.5491 154.467 62.774 154.907 63.0593C155.804 63.6214 156.596 64.3132 157.238 65.1087C158.62 66.8295 159.201 69.0345 158.963 71.1358C158.91 71.6114 159.253 71.9054 159.649 71.9832C160.08 72.6923 161.321 72.4415 161.251 71.5163C161.057 68.9394 161.752 66.4144 163.864 64.5639C164.832 63.7165 165.967 63.1112 167.225 62.6875C168.043 62.4021 168.897 62.2897 169.741 62.16C170.375 62.3243 171.044 62.4194 171.58 62.1946C172.108 61.9698 172.126 61.3472 171.704 61.0359ZM166.776 61.2261C165.219 61.6585 163.749 62.4713 162.606 63.5176C161.594 64.4429 160.767 65.5929 160.204 66.8381C159.86 65.9388 159.368 65.0741 158.725 64.2872C157.977 63.362 157.018 62.5491 155.954 61.9265C155.716 61.7882 155.47 61.6585 155.215 61.5288C157.036 60.7765 158.593 59.1335 159.456 57.6807C159.975 56.8074 160.424 55.8475 160.793 54.8531C161.136 55.7092 161.585 56.5307 162.148 57.3003C163.186 58.7184 164.621 59.929 166.231 60.7937C166.468 60.9235 166.715 61.0445 166.961 61.1569C166.908 61.1915 166.847 61.2088 166.776 61.2261Z" fill="#001064"/>
<path d="M19.4082 14.9408C13.6642 13.9994 9.66727 8.67037 10.1612 3.06717C10.3167 2.3085 10.4539 1.54983 10.5911 0.800299C10.7374 -0.00407554 9.42032 -0.342278 9.18251 0.452955C8.89897 1.39444 8.72519 2.3542 8.64287 3.31397C8.24043 5.2792 7.66421 7.22615 6.55749 8.89889C5.88981 9.9135 5.03005 10.8184 4.00565 11.4765C3.61236 11.7233 3.21906 11.9244 2.80747 12.0798C2.78003 12.0524 2.74345 12.0341 2.71601 12.0067C2.07576 11.5222 1.37149 11.9519 1.17027 12.5369C0.895877 12.5917 0.621485 12.6465 0.337947 12.6922C-0.0279091 12.7562 -0.155959 13.3595 0.255629 13.4783C0.65807 13.588 1.06966 13.6337 1.4721 13.6246C1.48125 13.6337 1.49954 13.6429 1.50868 13.6611C4.72822 16.0743 6.57579 20.0961 6.25566 24.1089C6.15505 25.3977 8.01177 25.5897 8.23129 24.3282C9.13678 19.1821 14.1033 15.9189 19.1887 16.8329C20.4143 17.0523 20.6064 15.1694 19.4082 14.9408ZM7.89287 19.9316C7.26177 17.3083 5.88066 14.886 3.89589 13.003C5.26785 12.3358 6.49347 11.2206 7.34408 10.0963C8.01177 9.21881 8.52397 8.26818 8.93556 7.26272C9.25568 8.64295 9.80446 9.97748 10.5911 11.2023C11.6063 12.7928 12.9874 14.0999 14.5697 15.0688C11.8258 15.7909 9.42946 17.5368 7.89287 19.9316Z" fill="#001064"/>
<path d="M28.3168 33.0014C27.0729 32.5078 25.893 32.0874 24.7863 31.3013C23.707 30.5426 22.7741 29.5737 22.0332 28.4768C21.2192 27.2703 20.6521 25.9083 20.3503 24.4824C20.2588 24.0436 20.1857 23.5866 20.1491 23.1387C20.1582 23.093 20.1674 23.0564 20.1674 23.0016C20.1674 22.8462 20.1674 22.6817 20.1582 22.5171C20.1948 21.8773 20.1948 21.2374 20.1582 20.6067C20.0942 19.5281 18.4021 19.4002 18.4478 20.5153C18.6033 24.6012 17.3594 31.6577 12.338 32.1605C12.1368 32.1513 11.9356 32.1605 11.7252 32.1879C11.6246 32.1879 11.524 32.1879 11.4234 32.1788C10.9844 32.1513 10.8563 32.8003 11.2862 32.9374C11.5332 33.0197 11.771 33.0745 12.0179 33.1111C12.8045 33.367 13.5545 33.6138 14.2314 34.1531C15.0271 34.7747 15.6765 35.6248 16.1429 36.5114C17.2497 38.6138 17.3777 41.0909 17.5058 43.4217C17.5332 43.9519 18.0545 44.1804 18.4387 44.0707C18.4753 44.089 18.521 44.1073 18.5667 44.1164C18.8228 44.1621 19.1247 44.0159 19.1978 43.7508C19.2985 43.3852 19.3259 42.983 19.3442 42.5899C19.3899 42.4985 19.4265 42.398 19.4356 42.2883C19.7283 40.1585 20.6155 38.2024 22.2344 36.7308C23.0119 36.027 23.9265 35.4694 24.9052 35.0855C25.5454 34.8387 26.204 34.6924 26.8625 34.5553C27.2284 34.6742 27.5942 34.7656 27.9692 34.8295C29.0759 35.0215 29.2406 33.3762 28.3168 33.0014ZM21.1277 35.5151C19.9478 36.548 19.0149 37.8734 18.4204 39.3267C18.1734 37.9648 17.771 36.6485 17.0393 35.4602C16.4448 34.5005 15.521 33.4859 14.4417 32.8369C15.9234 32.2793 17.1948 31.0727 18.0363 29.6925C18.5484 28.8516 18.9692 27.9375 19.2985 26.9869C19.6369 27.9284 20.0759 28.8242 20.6338 29.6468C21.6216 31.1184 23.021 32.4895 24.6125 33.4676C23.2954 33.9338 22.0698 34.6924 21.1277 35.5151Z" fill="#001064"/>
</svg>
