<svg width="280" height="195" viewBox="0 0 280 195" fill="none" xmlns="http://www.w3.org/2000/svg">
<path d="M85.0559 79.4839L66.5653 78.954L63.9238 10.598C63.9238 5.08713 68.5024 3.70941 70.7918 3.70941L169.584 1.58984L174.867 3.17952L208.15 31.2638L210.263 34.4431V54.579L203.924 58.2882L185.962 65.1768L157.962 70.4757L131.546 71.0056L108.301 66.2366L90.8672 60.4078L76.6031 54.579L72.3767 57.2284V61.9975L79.7729 69.4159L95.0936 76.8344L85.0559 79.4839Z" fill="#E9F7FF"/>
<path d="M68.1504 125.055V114.987C97.7353 118.379 126.968 113.574 137.886 110.748C158.173 107.357 195.295 94.145 211.32 87.9629L215.018 181.224C215.441 187.582 211.32 189.525 209.207 189.702L78.7164 193.941C71.9542 193.941 70.2636 190.409 70.2636 188.642L68.6787 158.438L76.6032 161.618L111.471 169.566L161.132 175.395L188.075 173.805L195.999 171.156L197.584 167.447L201.811 164.797V161.618L198.641 159.498H203.396L207.094 156.849L207.622 154.199L204.981 151.55L194.943 151.02L192.301 148.9L204.981 145.191L207.622 141.482L204.981 137.243L199.698 136.183L187.018 139.362L160.603 138.303L157.962 136.183L168.528 132.474L181.207 122.936L182.792 118.167L179.094 114.987H174.867L167.471 118.167L142.641 126.645L128.377 129.824L110.943 130.354L89.8108 129.824L75.5466 127.175L68.1504 125.055Z" fill="#E9F7FF"/>
<path d="M242.595 69.3243C230.293 76.1591 217.617 82.3334 204.641 87.7466C181.713 97.3096 157.767 104.417 133.391 109.156C120.73 111.611 107.883 113.521 95.0063 114.21C88.4535 114.555 81.8864 114.583 75.3479 113.937C72.0213 113.607 68.7234 113.047 65.4685 112.343C63.9199 112.013 62.3856 111.654 60.8514 111.266C60.2205 111.108 59.1738 110.936 58.7149 110.39C58.4425 110.06 58.4425 109.673 58.5285 109.443C58.6289 109.472 58.7293 109.5 58.8153 109.515C59.059 110.175 59.9194 110.276 60.4499 109.931C61.3676 110.146 62.2853 110.362 63.1886 110.548C66.2141 111.209 69.2826 111.683 72.3654 111.999C75.5056 112.315 78.9039 112.946 82.0584 112.587C83.9081 112.386 83.9512 109.816 82.0584 109.658C79.4775 109.443 76.8248 109.744 74.2295 109.586C71.6198 109.443 69.0102 109.041 66.4292 108.567C64.1063 108.136 61.7978 107.605 59.5179 106.973C59.4892 106.973 59.4605 106.959 59.4319 106.959C59.1021 106.801 58.7579 106.715 58.3995 106.7C56.3777 106.212 53.725 105.595 52.7213 104.015C51.0867 101.445 54.7574 101.158 56.4064 101.287C58.844 101.474 61.2816 101.833 63.7048 102.105C66.2428 102.393 68.7664 102.651 71.3044 102.924C73.785 103.182 76.4233 103.742 78.9039 103.57C79.248 103.541 79.4775 103.34 79.5778 103.082C79.6065 103.067 79.6208 103.053 79.6495 103.053C80.6389 102.493 80.4382 101.23 79.6495 100.626C78.5024 99.7506 77.3123 99.9947 75.9358 99.9086C74.674 99.8368 73.4265 99.7219 72.179 99.6214C69.426 99.3916 66.6729 99.1188 63.9199 98.8173C61.0665 98.5014 58.2131 98.0706 55.374 97.6111C53.4526 97.3096 49.2513 97.2952 48.2046 95.3137C46.5413 92.2122 52.879 92.5712 54.3703 92.5568C57.0946 92.5425 59.8333 92.5425 62.5577 92.5281C66.888 92.5138 71.4334 92.844 75.8211 92.5281C76.9968 92.7004 78.1726 92.8727 79.3484 93.045C81.1694 93.3035 81.9724 90.5035 80.1227 90.2164C77.1402 89.7712 74.1578 89.3692 71.161 88.9671C69.6554 88.7661 68.1498 88.5651 66.6586 88.3641C64.7802 87.8902 62.9162 87.3015 61.0235 86.8708C61.0521 86.8277 61.0952 86.7702 61.1238 86.7272C58.4998 86.1241 55.8902 85.478 53.2949 84.76C51.5885 84.2862 47.459 83.0082 48.477 80.438C49.8679 76.9345 55.5604 78.9734 58.0123 79.5334C71.7058 82.6349 86.0303 82.2903 99.5804 78.6719C101.344 78.198 101.459 75.355 99.5804 74.9529C92.0096 73.3591 84.8258 70.3294 78.4881 65.8638C76.5954 64.5285 70.9315 60.6372 73.4695 57.7798C76.1222 54.7932 81.3558 58.2824 84.0229 59.5029C109.058 70.9899 137.177 75.2114 164.42 71.1335C190.201 67.2853 214.893 56.2578 235.211 39.8457C236.286 38.9841 234.766 37.4478 233.691 38.3236C226.952 43.8374 219.725 48.7051 212.111 52.8691L212.082 52.1512L211.738 42.1574L211.566 37.1606L211.552 36.5288C211.552 36.4426 211.538 36.2847 211.538 36.1555C211.538 36.0262 211.523 35.897 211.509 35.7678C211.452 35.2509 211.337 34.7339 211.179 34.2314C210.864 33.2263 210.362 32.2929 209.702 31.4889C209.616 31.3883 209.53 31.2878 209.444 31.1873C209.358 31.0868 209.272 30.9863 209.172 30.9001C209.086 30.814 208.985 30.7135 208.885 30.6273L208.742 30.4981C208.684 30.455 208.655 30.4119 208.612 30.3832L207.666 29.5648L205.773 27.9279L202.002 24.6541L194.446 18.1064L179.304 5.03994L177.411 3.41739L176.465 2.59894L175.992 2.1969L175.748 1.99587L175.619 1.881L175.476 1.76613C174.673 1.13435 173.769 0.646146 172.794 0.344611C172.307 0.201023 171.805 0.0861528 171.303 0.0430764L170.93 0.0143588C170.801 0.0143588 170.672 0 170.543 0H170.17L169.855 0.0143588L159.875 0.344611C153.179 0.559993 146.526 0.804093 139.872 1.06255L119.898 1.83793L109.919 2.21126L99.9389 2.57023L89.9448 2.90048L79.965 3.20201L74.9751 3.3456L72.4801 3.41739L71.2327 3.44611L70.6018 3.46047C70.401 3.46047 70.1716 3.48919 69.9709 3.50355C69.1249 3.5897 68.2932 3.8338 67.5333 4.22149C66.7733 4.60918 66.085 5.15481 65.5258 5.7866C64.9666 6.43274 64.5221 7.1794 64.2353 7.98349C63.9486 8.78759 63.8195 9.64911 63.8482 10.4963C64.3214 23.8213 64.7085 37.1606 65.024 50.4999L65.2391 60.508L65.4398 70.5161L65.5689 76.9919C62.7728 76.6042 59.9911 76.0729 57.2237 75.4124C54.3559 74.7376 51.3304 74.1632 48.5487 75.4555C46.4553 76.4175 44.7346 78.3703 44.5769 80.7683C44.2328 85.9949 50.0973 87.919 54.1408 88.8523C55.2879 89.1251 56.4494 89.3835 57.5965 89.6564C57.6682 89.7138 57.7399 89.7712 57.8259 89.8143C53.9831 89.7856 44.3044 88.5077 44.835 95.0266C45.0501 97.6255 47.2582 99.2768 49.5668 99.9229C50.0543 100.066 50.5562 100.181 51.058 100.282C50.2694 100.942 49.8249 101.948 49.9539 103.441C50.1547 105.81 52.0904 107.203 54.1122 107.993C54.6857 108.222 55.2736 108.423 55.8758 108.624C55.3023 110.462 56.8796 112.544 58.5285 113.334C60.8944 114.468 63.7192 114.985 66.4435 115.402C66.5152 118.044 66.5869 120.686 66.6586 123.328L69.426 124.117C69.3113 121.346 69.1966 118.561 69.0675 115.789C69.2252 115.818 69.3686 115.832 69.512 115.861C73.4122 116.479 77.341 116.996 81.2841 117.311C110.134 119.666 139.17 113.607 166.815 105.652C181.527 101.416 195.994 96.3188 210.118 90.3743L210.95 112.228C211.466 125.553 211.968 138.893 212.527 152.218L212.943 162.211L213.387 172.205L213.832 182.199C213.846 182.4 213.846 182.615 213.86 182.816V183.348L213.803 183.879C213.774 184.051 213.731 184.223 213.703 184.41C213.531 185.099 213.23 185.76 212.799 186.349C211.968 187.526 210.677 188.359 209.258 188.632L208.985 188.689L208.713 188.718L208.44 188.746C208.354 188.761 208.24 188.761 208.139 188.761L206.892 188.818L204.397 188.933L199.407 189.149L189.427 189.579C182.774 189.852 176.121 190.125 169.468 190.383C156.161 190.886 142.84 191.345 129.52 191.733C116.199 192.121 102.893 192.422 89.572 192.695L79.5778 192.896L77.0829 192.954C76.3803 192.968 75.6777 192.839 75.0181 192.595C73.7133 192.106 72.6092 191.101 72.007 189.852C71.7058 189.235 71.5194 188.56 71.4621 187.871L71.4477 187.612C71.4477 187.569 71.4477 187.526 71.4477 187.469V187.311L71.4334 186.679L71.4047 185.43L71.2757 180.433L71.0032 170.425C70.9172 167.122 70.8168 163.805 70.7165 160.503C75.8784 162.211 81.0691 163.82 86.2884 165.313C114.077 173.268 143.299 179.327 172.307 176.972C176.264 176.656 180.222 176.139 184.151 175.522C187.721 174.962 191.908 174.56 195.206 172.995C196.869 172.205 198.446 170.109 197.873 168.285C198.475 168.084 199.063 167.883 199.636 167.653C201.672 166.864 203.623 165.456 203.823 163.102C203.952 161.608 203.494 160.603 202.705 159.943C203.207 159.828 203.709 159.713 204.196 159.584C206.519 158.923 208.742 157.272 208.957 154.687C209.487 148.168 199.751 149.446 195.88 149.475C195.966 149.432 196.037 149.375 196.109 149.317C197.27 149.044 198.432 148.786 199.593 148.513C203.666 147.58 209.573 145.656 209.215 140.429C209.057 138.046 207.336 136.093 205.214 135.116C202.418 133.838 199.364 134.398 196.482 135.073C190.101 136.552 183.663 137.428 177.11 137.457C172.163 137.486 167.259 137.069 162.399 136.236C166.614 134.772 170.658 132.833 174.443 130.435C178.616 127.793 186.775 122.466 183.477 116.407C180.021 110.046 172.192 114.44 167.604 116.536C160.778 119.666 153.695 122.208 146.454 124.204C118.407 131.929 88.0951 131.082 60.6507 121.389C45.5376 116.062 31.4426 108.093 19.0109 97.9845C17.9354 97.1086 16.4012 98.645 17.4909 99.5065C37.895 115.904 62.7154 126.932 88.6543 130.78C116.056 134.858 144.317 130.636 169.511 119.149C172.206 117.914 177.454 114.44 180.136 117.426C182.688 120.269 176.981 124.175 175.088 125.51C168.708 129.976 161.481 133.006 153.867 134.599C151.974 135.001 152.103 137.845 153.867 138.318C167.503 141.937 181.899 142.281 195.679 139.18C198.145 138.62 203.866 136.581 205.272 140.084C206.304 142.669 202.131 143.947 200.425 144.406C197.83 145.124 195.191 145.756 192.553 146.374C192.582 146.417 192.625 146.474 192.653 146.517C190.746 146.948 188.882 147.537 186.99 148.011C185.484 148.212 183.964 148.413 182.459 148.614C179.447 149.016 176.451 149.418 173.454 149.863C171.59 150.136 172.393 152.936 174.228 152.692C175.404 152.534 176.594 152.347 177.77 152.175C182.186 152.49 186.76 152.16 191.119 152.175C193.858 152.189 196.611 152.189 199.35 152.203C200.841 152.203 207.222 151.844 205.544 154.96C204.483 156.942 200.253 156.956 198.332 157.258C195.478 157.703 192.61 158.133 189.728 158.464C186.961 158.78 184.194 159.038 181.426 159.268C180.164 159.368 178.903 159.483 177.641 159.555C176.25 159.641 175.06 159.397 173.898 160.273C173.095 160.876 172.895 162.14 173.898 162.7C173.927 162.714 173.941 162.728 173.97 162.728C174.07 162.987 174.3 163.202 174.644 163.217C177.139 163.389 179.792 162.814 182.286 162.57C184.839 162.312 187.377 162.039 189.929 161.752C192.367 161.479 194.819 161.12 197.27 160.933C198.934 160.804 202.619 161.077 200.97 163.662C199.966 165.241 197.285 165.859 195.263 166.347C194.905 166.361 194.546 166.447 194.216 166.605C194.188 166.605 194.159 166.62 194.13 166.62C191.836 167.251 189.513 167.783 187.176 168.213C184.595 168.687 181.957 169.075 179.333 169.233C176.709 169.376 174.056 169.089 171.461 169.305C169.568 169.463 169.597 172.033 171.461 172.234C174.63 172.578 178.042 171.961 181.211 171.645C184.308 171.329 187.405 170.855 190.445 170.195C191.363 169.994 192.281 169.793 193.198 169.577C193.729 169.922 194.589 169.836 194.833 169.161C194.933 169.132 195.034 169.104 195.12 169.089C195.206 169.319 195.206 169.707 194.933 170.037C194.474 170.583 193.428 170.755 192.782 170.913C191.248 171.301 189.7 171.659 188.137 171.99C184.853 172.679 181.541 173.253 178.2 173.584C171.618 174.23 165.023 174.201 158.427 173.856C145.464 173.167 132.545 171.257 119.812 168.802C95.3075 164.078 71.2183 156.97 48.1472 147.393C35.099 141.98 22.3374 135.82 9.97742 128.971C7.42512 127.564 5.20261 130.751 6.98062 132.862C7.66888 133.68 8.54355 134.097 9.44689 134.614C9.77668 134.8 10.1065 134.858 10.4363 134.815C28.8759 144.564 48.1042 152.849 67.8631 159.555C68.0064 163.202 68.1642 166.864 68.3219 170.511L68.7664 180.505L68.9958 185.501L69.0532 186.751L69.0818 187.382L69.0962 187.54C69.0962 187.598 69.0962 187.641 69.1105 187.713L69.1392 188.072C69.2396 189.048 69.5264 189.996 69.9709 190.857C70.8742 192.595 72.4371 193.944 74.2581 194.576C75.1758 194.892 76.1365 195.036 77.0972 194.993L79.5922 194.878L89.572 194.418C102.878 193.801 116.185 193.226 129.505 192.724C142.812 192.221 156.133 191.805 169.453 191.417C176.106 191.231 182.774 191.058 189.427 190.886L199.421 190.656L204.411 190.541L206.906 190.484L208.154 190.455C208.254 190.455 208.354 190.455 208.469 190.441L208.813 190.412L209.157 190.383L209.501 190.326C210.433 190.168 211.322 189.823 212.14 189.335C212.943 188.847 213.66 188.186 214.219 187.44C214.792 186.679 215.208 185.817 215.466 184.898C215.524 184.669 215.581 184.439 215.624 184.195L215.71 183.491L215.724 182.773C215.724 182.558 215.71 182.357 215.71 182.141L215.481 172.133L215.237 162.125L214.979 152.117C214.649 138.778 214.233 125.453 213.846 112.114L213.158 89.0246C222.994 84.7887 232.644 80.1652 242.093 75.1396C242.409 75.1683 242.739 75.1109 243.069 74.9386C243.986 74.4217 244.847 74.0053 245.52 73.1868C247.341 71.1048 245.133 67.9028 242.595 69.3243ZM173.568 4.0779L177.268 7.35171L192.281 20.5618L199.794 27.1525L203.551 30.4407L205.429 32.0919L206.376 32.9104C206.419 32.9391 206.462 32.9822 206.476 33.0109L206.562 33.097C206.619 33.1545 206.677 33.1975 206.734 33.255C206.791 33.3124 206.849 33.3699 206.892 33.4273C206.949 33.4847 206.992 33.5422 207.035 33.5996C207.222 33.8293 207.394 34.0878 207.523 34.3463C207.953 34.3893 208.383 34.4324 208.813 34.4898C203.078 34.576 197.357 34.8775 191.635 35.2509C188.753 35.4375 185.857 35.6673 182.975 35.897C182.258 35.9544 181.527 36.0119 180.81 36.0837L180.681 36.098H180.566C180.494 36.098 180.408 36.1124 180.336 36.1124C180.179 36.1124 180.035 36.1124 179.878 36.1124C179.576 36.098 179.275 36.0693 178.974 35.9975C177.784 35.7678 176.651 35.1647 175.805 34.3032C174.945 33.4417 174.357 32.3217 174.171 31.1155C174.142 30.9719 174.128 30.814 174.113 30.6704C174.099 30.5125 174.085 30.3832 174.085 30.1822L174.042 29.0909L173.941 26.9228C173.87 25.4725 173.812 24.0223 173.726 22.5864C173.655 21.1362 173.568 19.7003 173.482 18.25C173.167 13.2819 172.809 8.29939 172.307 3.33124C172.78 3.50355 173.196 3.76201 173.568 4.0779ZM172.02 1.75177C172.006 2.21126 171.977 2.67074 171.963 3.14458C171.977 2.64202 171.991 2.15382 172.006 1.65126C172.006 1.67998 172.02 1.72306 172.02 1.75177ZM66.802 70.4586L66.2858 60.4649L65.7983 50.4712C65.1674 37.1462 64.6082 23.8213 64.1493 10.4819C64.1206 9.66347 64.2497 8.84502 64.5221 8.08401C64.7946 7.32299 65.2104 6.60505 65.7553 6.00198C66.8307 4.78148 68.3649 3.99175 69.9852 3.84816C70.1859 3.8338 70.3867 3.81944 70.6018 3.81944L71.2327 3.80508L72.4801 3.77636L74.9751 3.73329L79.965 3.64714L89.9591 3.50355L99.9532 3.38868L109.947 3.30252L119.941 3.24509L139.93 3.13022C146.597 3.08714 153.25 3.04407 159.918 2.97227L169.912 2.8574H170.228H170.471L170.715 2.87176L170.959 2.90048C171.274 2.94355 171.604 3.01535 171.905 3.11586C171.934 3.13022 171.948 3.13022 171.977 3.14458C171.776 8.18452 171.719 13.2245 171.733 18.2644C171.733 19.7146 171.747 21.1649 171.762 22.6151C171.776 24.0654 171.805 25.5156 171.819 26.9658L171.862 29.134L171.891 30.2253C171.891 30.3976 171.905 30.6273 171.92 30.8283C171.948 31.0437 171.963 31.2448 171.991 31.4601C172.249 33.1258 173.052 34.7052 174.228 35.897C175.404 37.0888 176.952 37.9072 178.601 38.2088C179.017 38.2806 179.433 38.3236 179.849 38.338C180.064 38.3524 180.265 38.338 180.48 38.338C180.58 38.338 180.681 38.3236 180.795 38.3093L180.953 38.2949L181.082 38.2806C181.799 38.2088 182.516 38.137 183.233 38.0508C186.115 37.7349 188.983 37.4047 191.85 37.0313C197.572 36.3134 203.278 35.5093 208.957 34.4898C209.129 34.5042 209.301 34.5186 209.487 34.5473C208.914 34.6191 208.326 34.6765 207.752 34.7339C207.824 34.8919 207.881 35.0642 207.939 35.2365C208.025 35.538 208.096 35.8396 208.125 36.1411C208.139 36.2129 208.139 36.299 208.139 36.3708C208.139 36.457 208.154 36.5144 208.154 36.6293L208.168 37.2611L208.34 42.258L208.684 52.2517L208.77 54.6065C203.436 57.3347 197.916 59.7183 192.266 61.7141C164.965 71.4063 134.825 72.2535 106.951 64.5285C99.7525 62.5326 92.7122 59.9911 85.9299 56.8609C81.3702 54.7645 73.5842 50.3707 70.1429 56.7316C66.8593 62.791 74.9607 68.1182 79.119 70.7602C82.8757 73.1437 86.9049 75.0822 91.0919 76.5611C86.274 77.3939 81.3845 77.8103 76.4663 77.7816C73.3405 77.7673 70.229 77.5519 67.1605 77.1786L66.802 70.4586Z" fill="#001064"/>
<path d="M279.518 99.1828C278.587 98.4802 277.054 98.5083 275.908 98.1851C274.648 97.8198 273.43 97.3561 272.284 96.7659C269.935 95.5575 267.873 93.9134 266.297 91.9321C264.679 89.8946 263.576 87.4637 263.074 84.9906C263.06 84.8922 263.031 84.7798 263.017 84.6814C263.475 82.2083 263.576 79.6931 263.203 77.3464C262.988 75.9413 260.525 75.9553 260.41 77.4026C260.381 77.7118 260.367 78.0209 260.381 78.3301C260.381 78.4425 260.396 78.5408 260.424 78.6392C260.453 80.6064 260.467 82.5456 260.138 84.5269C259.737 86.9438 258.992 89.3325 257.932 91.5808C257.015 93.534 255.769 95.4169 253.95 96.794C251.945 98.3116 249.567 98.8315 247.003 98.8596C246.187 98.8737 245.843 99.8151 246.645 100.152C247.361 100.447 248.092 100.616 248.794 100.672C249.152 100.897 249.495 101.108 249.911 101.291C250.699 101.642 251.458 102.007 252.174 102.471C253.635 103.384 254.924 104.508 255.97 105.801C258.219 108.597 259.164 112.181 258.777 115.595C258.691 116.368 259.25 116.846 259.894 116.972C260.596 118.125 262.616 117.717 262.501 116.213C262.186 112.026 263.318 107.923 266.755 104.916C268.331 103.539 270.179 102.555 272.227 101.867C273.559 101.403 274.949 101.22 276.324 101.01C277.355 101.277 278.443 101.431 279.317 101.066C280.177 100.7 280.205 99.6887 279.518 99.1828ZM271.497 99.4919C268.961 100.195 266.569 101.515 264.707 103.216C263.06 104.719 261.714 106.588 260.797 108.611C260.238 107.15 259.436 105.745 258.39 104.466C257.173 102.963 255.612 101.642 253.879 100.63C253.492 100.405 253.091 100.195 252.675 99.9837C255.64 98.7612 258.176 96.0914 259.579 93.7307C260.424 92.3115 261.155 90.7518 261.756 89.1358C262.315 90.5269 263.046 91.8619 263.962 93.1125C265.653 95.4169 267.987 97.3842 270.608 98.7894C270.995 99.0001 271.396 99.1968 271.797 99.3795C271.711 99.4357 271.611 99.4638 271.497 99.4919Z" fill="#001064"/>
<path d="M31.5947 24.2789C22.2441 22.7489 15.7374 14.0894 16.5414 4.98416C16.7946 3.75131 17.0179 2.51847 17.2412 1.30049C17.4795 -0.00662275 15.3354 -0.556202 14.9483 0.736053C14.4867 2.26596 14.2038 3.82558 14.0698 5.3852C13.4146 8.5787 12.4766 11.7425 10.675 14.4607C9.58805 16.1094 8.18844 17.5799 6.52082 18.6494C5.88057 19.0504 5.24033 19.3772 4.5703 19.6297C4.52563 19.5852 4.46607 19.5554 4.42141 19.5109C3.37914 18.7236 2.23266 19.4218 1.90509 20.3724C1.4584 20.4615 1.01172 20.5506 0.550145 20.6249C-0.0454334 20.7289 -0.253886 21.7092 0.41614 21.9023C1.07128 22.0805 1.7413 22.1548 2.39644 22.14C2.41133 22.1548 2.44111 22.1697 2.456 22.1994C7.69709 26.1207 10.7048 32.6562 10.1836 39.1769C10.0198 41.2713 13.0424 41.5832 13.3998 39.5334C14.8738 31.1709 22.9588 25.8682 31.2373 27.3535C33.2325 27.71 33.5452 24.6502 31.5947 24.2789ZM12.8488 32.3889C11.8215 28.1259 9.57316 24.1897 6.34215 21.1299C8.57557 20.0456 10.5708 18.2335 11.9555 16.4065C13.0424 14.9806 13.8762 13.4358 14.5462 11.8019C15.0674 14.0448 15.9607 16.2134 17.2412 18.2038C18.894 20.7883 21.1423 22.9123 23.7182 24.4868C19.2513 25.6602 15.3503 28.4973 12.8488 32.3889Z" fill="#001064"/>
<path d="M46.0965 53.628C44.0716 52.8259 42.1508 52.1427 40.3492 50.8653C38.5923 49.6324 37.0735 48.058 35.8675 46.2756C34.5423 44.3149 33.6192 42.1017 33.1278 39.7846C32.9789 39.0716 32.8598 38.3289 32.8003 37.6011C32.8151 37.5268 32.83 37.4674 32.83 37.3783C32.83 37.1258 32.83 36.8584 32.8151 36.5911C32.8747 35.5513 32.8747 34.5116 32.8151 33.4867C32.7109 31.734 29.9564 31.526 30.0308 33.3381C30.2839 39.9777 28.259 51.4446 20.0846 52.2615C19.7571 52.2467 19.4295 52.2615 19.0871 52.3061C18.9233 52.3061 18.7595 52.3061 18.5957 52.2912C17.881 52.2467 17.6726 53.3013 18.3724 53.5241C18.7744 53.6577 19.1615 53.7469 19.5635 53.8063C20.844 54.2222 22.0649 54.6232 23.1668 55.4996C24.4621 56.5096 25.5193 57.891 26.2787 59.3318C28.0803 62.7481 28.2887 66.7734 28.4972 70.561C28.5419 71.4225 29.3906 71.7939 30.0159 71.6156C30.0755 71.6453 30.1499 71.675 30.2244 71.6899C30.6413 71.7642 31.1326 71.5265 31.2517 71.0958C31.4155 70.5016 31.4602 69.8481 31.49 69.2094C31.5644 69.0608 31.624 68.8974 31.6389 68.7192C32.1153 65.2583 33.5596 62.0797 36.1951 59.6883C37.4607 58.5445 38.9496 57.6385 40.5428 57.0146C41.585 56.6136 42.6571 56.3759 43.7291 56.1531C44.3247 56.3462 44.9203 56.4948 45.5307 56.5987C47.3324 56.9107 47.6004 54.237 46.0965 53.628ZM34.3934 57.7127C32.4727 59.3912 30.954 61.545 29.9861 63.9067C29.5841 61.6935 28.929 59.5546 27.7378 57.6236C26.77 56.064 25.2662 54.4153 23.5092 53.3607C25.9213 52.4546 27.991 50.4939 29.3608 48.2511C30.1946 46.8845 30.8795 45.3992 31.4155 43.8544C31.9664 45.3843 32.6811 46.84 33.5894 48.1768C35.1975 50.5682 37.4755 52.7962 40.0663 54.3856C37.9222 55.1431 35.927 56.3759 34.3934 57.7127Z" fill="#001064"/>
</svg>
