<svg width="156" height="11" viewBox="0 0 156 11" fill="none" xmlns="http://www.w3.org/2000/svg">
<path d="M14.3109 1.59046C45.739 1.59046 77.1713 0.674589 108.597 1.12417C121.392 1.30722 134.175 1.59046 146.973 1.59046C148.815 1.59046 150.658 1.59046 152.5 1.59046C154.744 1.59046 148.06 2.20735 145.846 2.55634C112.568 7.80324 78.4341 9.44022 44.7302 9.95036C41.3741 10.0012 38.0172 9.98367 34.6609 9.98367C33.1806 9.98367 33.0942 10.0597 34.52 9.88375C50.6034 7.8992 66.6169 7.50099 82.8247 6.98609C96.3654 6.55592 109.904 5.90151 123.454 5.78706C127.719 5.75104 114.954 6.23791 114.371 6.25335C79.7901 7.16841 45.2565 4.58803 10.6846 4.58803C-37.428 4.58803 106.887 2.18997 155 2.18997" stroke="#001066" stroke-width="2" stroke-linecap="round" stroke-linejoin="round"/>
</svg>
