<svg width="251" height="237" viewBox="0 0 251 237" fill="none" xmlns="http://www.w3.org/2000/svg">
<path d="M31.6594 209.144C33.9314 209.144 35.6114 207.688 35.6114 205.768C35.6114 203.608 34.2674 202.84 31.7234 202.44C29.3874 202.088 28.9714 201.512 28.9714 200.392C28.9714 199.32 29.7874 198.536 31.3554 198.536C32.9394 198.536 33.7714 199.128 34.0434 200.568H35.2914C35.0674 198.536 33.6434 197.416 31.3554 197.416C29.1954 197.416 27.6754 198.76 27.6754 200.52C27.6754 202.552 29.0994 203.304 31.4994 203.672C33.6754 204.024 34.2674 204.568 34.2674 205.864C34.2674 207.16 33.1314 208.024 31.6594 208.024C29.3554 208.024 28.8114 206.872 28.6354 205.512H27.2914C27.4994 207.464 28.6034 209.144 31.6594 209.144ZM38.5707 198.888C39.0507 198.888 39.4507 198.488 39.4507 198.008C39.4507 197.528 39.0507 197.128 38.5707 197.128C38.0907 197.128 37.6907 197.528 37.6907 198.008C37.6907 198.488 38.0907 198.888 38.5707 198.888ZM37.9307 209H39.2587V200.632H37.9307V209ZM41.9768 209H43.3048V203.88C43.3048 202.376 44.4248 201.64 45.5128 201.64C46.6648 201.64 47.2888 202.248 47.2888 203.72V209H48.6168V203.88C48.6168 202.376 49.7368 201.64 50.8248 201.64C51.9768 201.64 52.6008 202.248 52.6008 203.72V209H53.9288V203.816C53.9288 201.384 52.6168 200.488 51.1128 200.488C50.0728 200.488 48.8248 200.968 48.2488 202.056C47.8168 200.936 46.8728 200.488 45.8008 200.488C44.6008 200.488 43.6888 201.128 43.3048 201.912V200.632H41.9768V209ZM56.5393 211.912H57.8673V207.624C58.3473 208.456 59.3233 209.144 60.6993 209.144C63.0033 209.144 64.5073 207.384 64.5073 204.824V204.696C64.5073 202.088 62.8913 200.488 60.6993 200.488C59.4833 200.488 58.3473 201.224 57.8673 202.04V200.632H56.5393V211.912ZM60.5713 208.04C58.9393 208.04 57.8193 207.032 57.8193 204.888V204.76C57.8193 202.616 59.0033 201.592 60.5553 201.592C61.9633 201.592 63.1313 202.648 63.1313 204.76V204.888C63.1313 206.92 62.2353 208.04 60.5713 208.04ZM66.6026 209H67.9466V196.632H66.6026V209ZM74.0883 209.144C75.9763 209.144 77.3683 208.264 77.6563 206.584H76.3283C76.1523 207.56 75.4003 208.04 74.1043 208.04C72.3923 208.04 71.4803 206.984 71.4163 205.08H77.7203V204.648C77.7203 201.656 75.8963 200.488 73.9603 200.488C71.6563 200.488 70.0403 202.248 70.0403 204.776V204.904C70.0403 207.48 71.7203 209.144 74.0883 209.144ZM71.4643 204.008C71.6883 202.52 72.6003 201.592 73.9603 201.592C75.3363 201.592 76.2323 202.28 76.3603 204.008H71.4643ZM86.0884 209.144C87.3204 209.144 88.0724 208.728 88.6964 207.944V209H90.0244V203.48C90.0244 201.144 88.5684 200.488 86.9684 200.488C85.3524 200.488 83.8324 201.192 83.6564 203.096H84.9844C85.1124 202.072 85.7524 201.592 86.9044 201.592C88.1844 201.592 88.6964 202.152 88.6964 203.48V204.088H87.4964C85.3524 204.088 83.3044 204.744 83.3044 206.68C83.3044 208.392 84.5364 209.144 86.0884 209.144ZM86.2164 208.088C85.0484 208.088 84.6324 207.544 84.6324 206.68C84.6324 205.448 85.8644 205.032 87.5444 205.032H88.6964V206.072C88.6964 207.368 87.6244 208.088 86.2164 208.088ZM92.6331 209H93.9611V203.928C93.9611 202.424 95.0651 201.64 96.2971 201.64C97.6411 201.64 98.2651 202.296 98.2651 203.768V209H99.5931V203.864C99.5931 201.432 98.3771 200.488 96.6491 200.488C95.2731 200.488 94.3451 201.176 93.9611 201.96V200.632H92.6331V209ZM105.348 209.144C106.564 209.144 107.732 208.376 108.212 207.56V209H109.54V196.632H108.212V201.976C107.732 201.16 106.868 200.488 105.476 200.488C103.172 200.488 101.572 202.296 101.572 204.856V204.984C101.572 207.592 103.156 209.144 105.348 209.144ZM105.492 208.04C104.084 208.04 102.948 207.032 102.948 204.92V204.792C102.948 202.76 103.94 201.592 105.604 201.592C107.236 201.592 108.26 202.6 108.26 204.744V204.872C108.26 207.016 107.044 208.04 105.492 208.04ZM119.053 209.144C121.085 209.144 122.125 208.12 122.125 206.6C122.125 204.824 120.909 204.44 119.181 204.12C117.645 203.848 117.229 203.544 117.229 202.792C117.229 202.072 117.853 201.592 118.813 201.592C119.869 201.592 120.381 201.992 120.573 202.904H121.853C121.629 201.096 120.333 200.488 118.829 200.488C117.517 200.488 115.997 201.288 115.997 202.84C115.997 204.296 116.733 204.904 118.909 205.304C120.205 205.544 120.861 205.832 120.861 206.712C120.861 207.608 120.301 208.04 119.037 208.04C117.693 208.04 117.165 207.416 117.069 206.424H115.773C115.853 208.136 117.053 209.144 119.053 209.144ZM127.573 209.144C129.461 209.144 130.853 208.264 131.141 206.584H129.813C129.637 207.56 128.885 208.04 127.589 208.04C125.877 208.04 124.965 206.984 124.901 205.08H131.205V204.648C131.205 201.656 129.381 200.488 127.445 200.488C125.141 200.488 123.525 202.248 123.525 204.776V204.904C123.525 207.48 125.205 209.144 127.573 209.144ZM124.949 204.008C125.173 202.52 126.085 201.592 127.445 201.592C128.821 201.592 129.717 202.28 129.845 204.008H124.949ZM135.417 209.144C136.649 209.144 137.401 208.728 138.025 207.944V209H139.353V203.48C139.353 201.144 137.897 200.488 136.297 200.488C134.681 200.488 133.161 201.192 132.985 203.096H134.313C134.441 202.072 135.081 201.592 136.233 201.592C137.513 201.592 138.025 202.152 138.025 203.48V204.088H136.825C134.681 204.088 132.633 204.744 132.633 206.68C132.633 208.392 133.865 209.144 135.417 209.144ZM135.545 208.088C134.377 208.088 133.961 207.544 133.961 206.68C133.961 205.448 135.193 205.032 136.873 205.032H138.025V206.072C138.025 207.368 136.953 208.088 135.545 208.088ZM141.961 209H143.289V203.88C143.289 202.376 144.409 201.64 145.497 201.64C146.649 201.64 147.273 202.248 147.273 203.72V209H148.601V203.88C148.601 202.376 149.721 201.64 150.809 201.64C151.961 201.64 152.585 202.248 152.585 203.72V209H153.913V203.816C153.913 201.384 152.601 200.488 151.097 200.488C150.057 200.488 148.809 200.968 148.233 202.056C147.801 200.936 146.857 200.488 145.785 200.488C144.585 200.488 143.673 201.128 143.289 201.912V200.632H141.961V209ZM156.556 209H157.9V196.632H156.556V209ZM164.041 209.144C165.929 209.144 167.321 208.264 167.609 206.584H166.281C166.105 207.56 165.353 208.04 164.057 208.04C162.345 208.04 161.433 206.984 161.369 205.08H167.673V204.648C167.673 201.656 165.849 200.488 163.913 200.488C161.609 200.488 159.993 202.248 159.993 204.776V204.904C159.993 207.48 161.673 209.144 164.041 209.144ZM161.417 204.008C161.641 202.52 162.553 201.592 163.913 201.592C165.289 201.592 166.185 202.28 166.313 204.008H161.417ZM172.381 209.144C174.413 209.144 175.453 208.12 175.453 206.6C175.453 204.824 174.237 204.44 172.509 204.12C170.973 203.848 170.557 203.544 170.557 202.792C170.557 202.072 171.181 201.592 172.141 201.592C173.197 201.592 173.709 201.992 173.901 202.904H175.181C174.957 201.096 173.661 200.488 172.157 200.488C170.845 200.488 169.325 201.288 169.325 202.84C169.325 204.296 170.061 204.904 172.237 205.304C173.533 205.544 174.189 205.832 174.189 206.712C174.189 207.608 173.629 208.04 172.365 208.04C171.021 208.04 170.493 207.416 170.397 206.424H169.101C169.181 208.136 170.381 209.144 172.381 209.144ZM180.069 209.144C182.101 209.144 183.141 208.12 183.141 206.6C183.141 204.824 181.925 204.44 180.197 204.12C178.661 203.848 178.245 203.544 178.245 202.792C178.245 202.072 178.869 201.592 179.829 201.592C180.885 201.592 181.397 201.992 181.589 202.904H182.869C182.645 201.096 181.349 200.488 179.845 200.488C178.533 200.488 177.013 201.288 177.013 202.84C177.013 204.296 177.749 204.904 179.925 205.304C181.221 205.544 181.877 205.832 181.877 206.712C181.877 207.608 181.317 208.04 180.053 208.04C178.709 208.04 178.181 207.416 178.085 206.424H176.789C176.869 208.136 178.069 209.144 180.069 209.144ZM191.079 209H192.535L194.487 202.728L196.231 209H197.703L200.311 200.632H198.951L196.983 207.368L195.079 200.632H193.927L191.895 207.368L189.943 200.632H188.503L191.079 209ZM204.042 209.144C205.274 209.144 206.026 208.728 206.65 207.944V209H207.978V203.48C207.978 201.144 206.522 200.488 204.922 200.488C203.306 200.488 201.786 201.192 201.61 203.096H202.938C203.066 202.072 203.706 201.592 204.858 201.592C206.138 201.592 206.65 202.152 206.65 203.48V204.088H205.45C203.306 204.088 201.258 204.744 201.258 206.68C201.258 208.392 202.49 209.144 204.042 209.144ZM204.17 208.088C203.002 208.088 202.586 207.544 202.586 206.68C202.586 205.448 203.818 205.032 205.498 205.032H206.65V206.072C206.65 207.368 205.578 208.088 204.17 208.088ZM211.104 211.912H212.448L217.072 200.632H215.712L213.392 206.632L210.832 200.632H209.408L212.688 208.136L211.104 211.912ZM45.4019 231.144C47.7859 231.144 49.5299 229.4 49.5299 226.872V226.744C49.5299 224.232 47.7859 222.488 45.4179 222.488C43.0499 222.488 41.3059 224.248 41.3059 226.76V226.888C41.3059 229.336 43.0179 231.144 45.4019 231.144ZM45.4179 230.04C43.7219 230.04 42.6819 228.792 42.6819 226.888V226.76C42.6819 224.84 43.7379 223.592 45.4179 223.592C47.0819 223.592 48.1539 224.84 48.1539 226.776V226.888C48.1539 228.776 47.0979 230.04 45.4179 230.04ZM51.8742 231H53.2022V223.752H55.2502V222.632H53.2022V221.128C53.2022 220.28 53.5542 219.688 54.4182 219.688C54.7862 219.688 55.1222 219.768 55.3622 219.864V218.744C55.0262 218.632 54.8022 218.584 54.3702 218.584C52.7062 218.584 51.8742 219.576 51.8742 221.272V222.632H50.6742V223.752H51.8742V231ZM63.0318 231H64.4878L66.4398 224.728L68.1838 231H69.6558L72.2638 222.632H70.9038L68.9358 229.368L67.0318 222.632H65.8798L63.8478 229.368L61.8958 222.632H60.4558L63.0318 231ZM74.0549 231H75.3829V226.408C75.3829 224.344 76.4549 223.816 78.1349 223.736V222.488C76.6309 222.536 75.9109 223.192 75.3829 224.136V222.632H74.0549V231ZM80.7426 220.888C81.2226 220.888 81.6226 220.488 81.6226 220.008C81.6226 219.528 81.2226 219.128 80.7426 219.128C80.2626 219.128 79.8626 219.528 79.8626 220.008C79.8626 220.488 80.2626 220.888 80.7426 220.888ZM80.1026 231H81.4306V222.632H80.1026V231ZM86.6927 231.112C87.2367 231.112 87.5567 231.032 87.8287 230.936V229.816C87.5407 229.928 87.2207 229.992 86.8047 229.992C86.1327 229.992 85.7647 229.592 85.7647 228.776V223.752H87.7167V222.632H85.7647V220.728H84.4367V222.632H83.2367V223.752H84.4367V228.904C84.4367 230.216 85.1727 231.112 86.6927 231.112ZM90.5082 220.888C90.9882 220.888 91.3882 220.488 91.3882 220.008C91.3882 219.528 90.9882 219.128 90.5082 219.128C90.0282 219.128 89.6282 219.528 89.6282 220.008C89.6282 220.488 90.0282 220.888 90.5082 220.888ZM89.8682 231H91.1962V222.632H89.8682V231ZM93.9143 231H95.2423V225.928C95.2423 224.424 96.3463 223.64 97.5783 223.64C98.9223 223.64 99.5463 224.296 99.5463 225.768V231H100.874V225.864C100.874 223.432 99.6583 222.488 97.9303 222.488C96.5543 222.488 95.6263 223.176 95.2423 223.96V222.632H93.9143V231ZM106.821 234.056C109.157 234.056 110.805 232.872 110.821 230.44V222.632H109.493V223.976C109.013 223.16 108.149 222.488 106.757 222.488C104.453 222.488 102.853 224.376 102.853 226.648V226.76C102.853 229.064 104.469 230.728 106.661 230.728C107.877 230.728 109.013 229.96 109.493 229.144V230.36C109.493 232.152 108.453 232.936 106.805 232.936C105.381 232.936 104.581 232.44 104.389 231.48H103.029C103.253 232.888 104.341 234.056 106.821 234.056ZM106.805 229.624C105.397 229.624 104.229 228.536 104.229 226.712V226.584C104.229 224.824 105.221 223.592 106.885 223.592C108.517 223.592 109.541 224.68 109.541 226.552V226.664C109.541 228.536 108.357 229.624 106.805 229.624ZM118.494 233.912H119.838L124.462 222.632H123.102L120.782 228.632L118.222 222.632H116.798L120.078 230.136L118.494 233.912ZM129.449 231.144C131.833 231.144 133.577 229.4 133.577 226.872V226.744C133.577 224.232 131.833 222.488 129.465 222.488C127.097 222.488 125.353 224.248 125.353 226.76V226.888C125.353 229.336 127.065 231.144 129.449 231.144ZM129.465 230.04C127.769 230.04 126.729 228.792 126.729 226.888V226.76C126.729 224.84 127.785 223.592 129.465 223.592C131.129 223.592 132.201 224.84 132.201 226.776V226.888C132.201 228.776 131.145 230.04 129.465 230.04ZM138.465 231.144C139.809 231.144 140.737 230.456 141.121 229.672V231H142.449V222.632H141.121V227.704C141.121 229.208 140.001 229.992 138.817 229.992C137.505 229.992 136.881 229.336 136.881 227.864V222.632H135.553V227.928C135.553 230.232 136.801 231.144 138.465 231.144ZM145.133 231H146.461V226.408C146.461 224.344 147.533 223.816 149.213 223.736V222.488C147.709 222.536 146.989 223.192 146.461 224.136V222.632H145.133V231ZM155.415 231H156.759V218.632H155.415V231ZM162.901 231.144C164.789 231.144 166.181 230.264 166.469 228.584H165.141C164.965 229.56 164.213 230.04 162.917 230.04C161.205 230.04 160.293 228.984 160.229 227.08H166.533V226.648C166.533 223.656 164.709 222.488 162.773 222.488C160.469 222.488 158.853 224.248 158.853 226.776V226.904C158.853 229.48 160.533 231.144 162.901 231.144ZM160.277 226.008C160.501 224.52 161.413 223.592 162.773 223.592C164.149 223.592 165.045 224.28 165.173 226.008H160.277ZM171.915 234.056C174.251 234.056 175.899 232.872 175.915 230.44V222.632H174.587V223.976C174.107 223.16 173.243 222.488 171.851 222.488C169.547 222.488 167.947 224.376 167.947 226.648V226.76C167.947 229.064 169.563 230.728 171.755 230.728C172.971 230.728 174.107 229.96 174.587 229.144V230.36C174.587 232.152 173.547 232.936 171.899 232.936C170.475 232.936 169.675 232.44 169.483 231.48H168.123C168.347 232.888 169.435 234.056 171.915 234.056ZM171.899 229.624C170.491 229.624 169.323 228.536 169.323 226.712V226.584C169.323 224.824 170.315 223.592 171.979 223.592C173.611 223.592 174.635 224.68 174.635 226.552V226.664C174.635 228.536 173.451 229.624 171.899 229.624ZM180.698 231.144C181.93 231.144 182.682 230.728 183.306 229.944V231H184.634V225.48C184.634 223.144 183.178 222.488 181.578 222.488C179.962 222.488 178.442 223.192 178.266 225.096H179.594C179.722 224.072 180.362 223.592 181.514 223.592C182.794 223.592 183.306 224.152 183.306 225.48V226.088H182.106C179.962 226.088 177.914 226.744 177.914 228.68C177.914 230.392 179.146 231.144 180.698 231.144ZM180.826 230.088C179.658 230.088 179.242 229.544 179.242 228.68C179.242 227.448 180.474 227.032 182.154 227.032H183.306V228.072C183.306 229.368 182.234 230.088 180.826 230.088ZM190.714 231.144C192.73 231.144 194.186 229.8 194.362 227.992H193.13C192.986 229.352 191.914 230.04 190.73 230.04C189.114 230.04 187.994 228.952 187.994 226.904V226.776C187.994 224.808 189.162 223.592 190.682 223.592C191.834 223.592 192.794 224.088 193.002 225.416H194.314C194.058 223.288 192.426 222.488 190.682 222.488C188.442 222.488 186.618 224.216 186.618 226.776V226.904C186.618 229.496 188.378 231.144 190.714 231.144ZM197.041 233.912H198.385L203.009 222.632H201.649L199.329 228.632L196.769 222.632H195.345L198.625 230.136L197.041 233.912Z" fill="#001064"/>
<path d="M97.5055 166.22C100.981 166.22 103.291 164.086 103.291 161.358C103.291 158.212 101.377 157.156 97.6815 156.65C94.9535 156.254 94.4255 155.616 94.4255 154.34C94.4255 153.13 95.3495 152.272 97.1315 152.272C98.9355 152.272 99.8815 152.976 100.167 154.626H102.851C102.543 151.612 100.519 150.072 97.1315 150.072C93.8535 150.072 91.6535 152.008 91.6535 154.582C91.6535 157.53 93.4355 158.674 97.1975 159.18C99.7495 159.598 100.475 160.148 100.475 161.6C100.475 163.052 99.2435 164.02 97.5055 164.02C94.8435 164.02 94.2055 162.7 94.0075 161.116H91.1915C91.4115 164.086 93.2155 166.22 97.5055 166.22ZM106.768 152.602C107.648 152.602 108.352 151.942 108.352 151.084C108.352 150.204 107.648 149.544 106.768 149.544C105.888 149.544 105.184 150.204 105.184 151.084C105.184 151.942 105.888 152.602 106.768 152.602ZM105.47 166H108.132V154.494H105.47V166ZM110.877 166H113.539V159.114C113.539 157.354 114.749 156.474 116.069 156.474C117.367 156.474 118.115 157.2 118.115 158.894V166H120.777V159.114C120.777 157.354 121.987 156.474 123.307 156.474C124.627 156.474 125.353 157.2 125.353 158.894V166H128.015V158.718C128.015 155.55 126.299 154.252 124.187 154.252C122.757 154.252 121.173 154.89 120.293 156.32C119.721 154.89 118.533 154.252 117.037 154.252C115.343 154.252 114.089 155.176 113.539 156.254V154.494H110.877V166ZM130.572 169.938H133.234V164.196C133.85 165.318 135.17 166.22 136.996 166.22C139.966 166.22 142.1 163.976 142.1 160.28V160.104C142.1 156.386 139.878 154.252 136.996 154.252C135.302 154.252 133.872 155.242 133.234 156.342V154.494H130.572V169.938ZM136.336 164.108C134.4 164.108 133.146 162.898 133.146 160.324V160.148C133.146 157.596 134.466 156.342 136.314 156.342C138.052 156.342 139.372 157.596 139.372 160.148V160.324C139.372 162.788 138.294 164.108 136.336 164.108ZM144.06 166H146.722V149.17H144.06V166ZM154.527 166.22C157.475 166.22 159.433 164.9 159.807 162.48H157.233C157.035 163.602 156.199 164.24 154.593 164.24C152.613 164.24 151.513 163.008 151.425 160.83H159.851V160.06C159.851 155.946 157.277 154.252 154.417 154.252C151.139 154.252 148.697 156.628 148.697 160.192V160.368C148.697 163.998 151.139 166.22 154.527 166.22ZM151.469 159.048C151.733 157.266 152.811 156.188 154.417 156.188C156.067 156.188 157.079 157.068 157.211 159.048H151.469Z" fill="#001064"/>
<circle cx="122" cy="47" r="42" fill="#D3ECFF"/>
<path fill-rule="evenodd" clip-rule="evenodd" d="M145.019 8.63163C145.019 13.4316 144.019 18.1316 143.119 22.8316C142.719 24.8316 142.419 26.7316 142.319 28.7316C142.119 31.8316 141.319 34.8316 140.819 37.9316C140.419 40.2316 140.219 42.5316 140.119 44.8316C140.119 46.1316 140.819 47.2316 141.419 48.3316C142.619 50.9316 144.119 53.5316 145.219 56.2316C145.319 56.5316 145.519 56.9316 145.719 57.2316C147.119 59.7316 145.919 61.8316 144.819 63.9316C143.319 66.8316 141.219 69.2316 139.119 71.8316C136.619 75.0316 135.519 78.5316 136.019 82.5316C136.219 83.7316 135.419 84.1316 134.719 84.6316C134.119 85.0316 133.619 84.8316 133.219 84.5316C132.819 84.2316 132.519 83.9316 132.619 83.3316C132.819 81.7316 132.919 80.0316 133.119 78.4316C133.319 75.8316 134.419 73.7316 135.719 71.5316C137.219 69.0316 139.119 66.8316 141.019 64.6316C142.319 63.1316 143.019 61.3316 143.719 59.4316C143.919 58.8316 143.819 58.2316 143.519 57.7316C141.619 54.0316 139.519 50.4316 137.219 46.9316C135.419 44.1316 133.319 41.6316 130.519 39.7316C129.619 39.1316 128.719 38.7316 127.719 38.6316C126.119 38.4316 125.019 40.1316 125.419 41.9316C125.819 43.5316 126.419 45.1316 127.319 46.6316C128.519 48.7316 129.919 50.6316 131.119 52.6316C132.619 54.9316 132.119 55.0316 131.019 56.7316C129.119 59.4316 127.419 62.3316 126.119 65.4316C125.219 67.6316 125.119 69.9316 125.019 72.2316C125.019 72.9316 124.819 73.6316 124.119 73.7316C123.419 73.8316 122.919 73.2316 122.719 72.4316C121.819 68.7316 123.019 65.4316 124.519 62.2316C125.619 59.7316 127.419 57.6316 128.219 55.0316C128.419 54.4316 128.419 54.0316 128.119 53.5316C126.919 51.3316 125.819 49.0316 124.619 46.8316C122.919 43.5316 122.219 40.2316 123.219 36.5316C123.319 36.0316 123.019 35.5316 122.819 35.1316C121.219 31.4316 120.419 27.5316 119.219 23.6316C118.219 20.5316 117.319 17.5316 115.919 14.6316C115.419 13.5316 115.219 12.4316 114.819 11.3316C114.319 9.63163 113.719 7.93163 113.119 6.23163C113.019 5.83163 112.719 5.43163 112.419 5.03163C111.419 4.03163 110.219 4.23163 109.619 5.53163C108.919 7.13163 108.919 8.83163 109.219 10.6316C110.919 18.4316 113.119 25.9316 116.719 33.1316C117.319 34.2316 117.819 35.4316 118.319 36.5316C118.619 37.2316 118.519 37.9316 118.519 38.7316C118.419 42.0316 119.219 45.1316 120.219 48.2316C120.719 49.9316 120.019 52.9316 118.619 54.0316C117.919 54.6316 117.119 54.6316 116.219 54.0316C115.819 53.7316 115.419 53.4316 115.019 53.1316C114.519 52.8316 114.319 52.9316 114.319 53.5316C114.319 54.5316 114.219 55.4316 114.019 56.4316C113.719 57.5316 113.219 58.5316 112.119 58.7316C110.819 59.0316 109.519 58.7316 108.519 57.5316C105.419 53.6316 103.319 49.3316 102.619 44.4316C102.519 43.9316 102.519 43.4316 102.919 43.0316C103.219 42.7316 103.619 42.9316 103.919 43.0316C104.419 43.2316 104.419 43.7316 104.519 44.1316C105.019 47.1316 106.319 49.8316 107.619 52.5316C108.119 53.6316 108.819 54.6316 109.719 55.5316C110.219 55.9316 110.619 56.1316 111.219 55.8316C111.819 55.5316 111.919 55.0316 111.819 54.4316C111.719 51.5316 111.019 48.7316 109.419 46.2316C108.019 44.0316 107.319 41.5316 106.519 39.1316C106.319 38.4316 105.919 38.2316 105.319 38.3316C104.919 38.4316 104.519 38.4316 104.019 38.5316C101.019 39.0316 99.4191 41.2316 99.7191 44.2316C99.8191 45.4316 99.8191 46.6316 99.8191 47.9316C99.9191 50.4316 100.919 52.5316 101.919 54.7316C103.319 57.7316 104.719 60.7316 106.119 63.7316C107.419 66.3316 109.019 68.7316 110.619 71.0316C111.719 72.6316 112.619 74.2316 113.419 75.9316C113.919 76.9316 113.619 78.0316 113.719 79.0316C113.919 80.9316 114.119 82.8316 114.019 84.7316C114.019 85.6316 113.419 86.2316 112.519 86.3316C111.619 86.4316 111.219 85.8316 111.219 85.0316C111.019 83.3316 110.719 81.6316 110.719 80.0316C110.719 77.7316 109.919 75.7316 108.719 73.8316C105.919 69.3316 103.319 64.6316 101.119 59.7316C100.419 58.2316 99.5191 56.8316 98.9191 55.3316C97.8191 52.8316 97.5191 50.1316 97.2191 47.5316C97.1191 46.2316 97.1191 44.9316 97.0191 43.5316C96.8191 41.1316 98.2191 39.6316 99.7191 38.0316C101.219 36.4316 103.319 35.8316 105.319 35.2316C105.919 35.0316 106.419 34.7316 106.719 34.1316C107.519 32.4316 108.719 31.0316 110.319 30.1316C110.719 29.9316 110.819 29.6316 110.719 29.2316C108.919 23.4316 107.419 17.5316 106.319 11.6316C105.719 8.63163 106.019 5.73163 107.119 2.93163C107.619 1.63163 110.619 -0.268367 111.919 0.0316327C113.119 0.131633 113.519 1.33163 114.119 2.33163C114.619 3.13163 114.919 4.03163 115.219 4.93163C117.119 10.9316 119.319 16.8316 121.519 22.7316C122.519 25.2316 123.119 27.8316 124.019 30.3316C124.519 31.6316 125.119 32.8316 125.519 34.1316C125.619 34.5316 125.919 34.6316 126.319 34.7316C127.119 34.8316 127.919 35.0316 128.619 35.2316C129.119 35.3316 129.319 35.3316 129.419 34.7316C129.819 32.0316 130.119 29.4316 130.619 26.8316C130.819 25.7316 131.119 24.6316 131.419 23.5316C132.219 19.5316 133.119 15.5316 134.419 11.6316C135.119 9.43163 135.619 7.23163 136.819 5.23163C137.719 3.73163 139.119 2.63163 140.719 2.03163C141.819 1.63163 143.119 2.03163 143.719 3.03163C144.919 4.83163 145.019 4.93163 145.019 8.63163ZM142.419 9.03163C142.419 8.53163 142.419 7.93163 142.319 7.43163C142.219 6.43163 142.119 5.33163 140.919 4.93163C140.119 4.63163 139.119 5.23163 138.519 6.63163C137.619 8.43163 136.819 10.2316 136.319 12.2316C135.419 15.7316 134.519 19.2316 133.819 22.7316C132.919 27.0316 132.419 31.3316 131.919 35.7316C131.919 36.1316 131.719 36.7316 132.019 37.0316C133.419 38.5316 134.919 39.8316 136.519 41.0316C136.819 41.2316 137.019 41.2316 137.119 40.7316C137.319 38.0316 138.119 35.4316 138.719 32.7316C139.519 29.1316 140.019 25.4316 140.819 21.8316C141.619 17.6316 142.119 13.3316 142.419 9.03163ZM109.019 36.6316C109.119 37.1316 109.119 37.8316 109.319 38.5316C110.219 41.7316 111.619 44.7316 113.019 47.7316C113.719 49.1316 114.819 50.1316 116.419 50.5316C117.019 50.7316 117.419 50.3316 117.819 50.0316C118.219 49.7316 117.919 49.3316 117.819 49.0316C117.219 47.0316 116.619 45.1316 116.419 43.0316C116.019 39.4316 115.219 36.0316 113.119 32.9316C112.919 32.6316 112.819 32.2316 112.219 32.3316C110.919 32.7316 109.019 35.0316 109.019 36.6316Z" fill="#001064"/>
</svg>
