<svg width="16" height="17" viewBox="0 0 16 17" fill="none" xmlns="http://www.w3.org/2000/svg">
<g clip-path="url(#clip0)">
<path d="M8 0.5C3.5888 0.5 0 4.08885 0 8.50005C0 12.9112 3.5888 16.5 8 16.5C12.4112 16.5 16 12.9112 16 8.50005C16 4.08885 12.4112 0.5 8 0.5ZM8 15.0455C4.39079 15.0455 1.45455 12.1092 1.45455 8.50005C1.45455 4.89088 4.39079 1.95455 8 1.95455C11.6092 1.95455 14.5455 4.89088 14.5455 8.50005C14.5455 12.1092 11.6092 15.0455 8 15.0455Z" fill="#C3C5D2"/>
<path d="M8.00075 3.89404C7.46616 3.89404 7.03125 4.32924 7.03125 4.86418C7.03125 5.39862 7.46616 5.83344 8.00075 5.83344C8.53535 5.83344 8.97026 5.39862 8.97026 4.86418C8.97026 4.32924 8.53535 3.89404 8.00075 3.89404Z" fill="#C3C5D2"/>
<path d="M8.00071 7.28784C7.59906 7.28784 7.27344 7.61347 7.27344 8.01511V12.3788C7.27344 12.7804 7.59906 13.106 8.00071 13.106C8.40236 13.106 8.72798 12.7804 8.72798 12.3788V8.01511C8.72798 7.61347 8.40236 7.28784 8.00071 7.28784Z" fill="#C3C5D2"/>
</g>
<defs>
<clipPath id="clip0">
<rect width="16" height="16" fill="white" transform="translate(0 0.5)"/>
</clipPath>
</defs>
</svg>
