<svg width="20" height="21" viewBox="0 0 20 21" fill="none" xmlns="http://www.w3.org/2000/svg">
<g clip-path="url(#clip0)">
<path d="M10 0.500122C4.486 0.500122 0 4.98618 0 10.5002C0 16.0142 4.486 20.5001 10 20.5001C15.514 20.5001 20 16.0142 20 10.5002C20 4.98618 15.514 0.500122 10 0.500122ZM10 18.6819C5.48848 18.6819 1.81818 15.0116 1.81818 10.5002C1.81818 5.98873 5.48848 2.3183 10 2.3183C14.5115 2.3183 18.1818 5.98873 18.1818 10.5002C18.1818 15.0116 14.5115 18.6819 10 18.6819Z" fill="#C3C5D2"/>
<path d="M9.99899 4.74255C9.33075 4.74255 8.78711 5.28655 8.78711 5.95522C8.78711 6.62328 9.33075 7.1668 9.99899 7.1668C10.6672 7.1668 11.2109 6.62328 11.2109 5.95522C11.2109 5.28655 10.6672 4.74255 9.99899 4.74255Z" fill="#C3C5D2"/>
<path d="M10.0009 8.98499C9.49883 8.98499 9.0918 9.39202 9.0918 9.89408V15.3486C9.0918 15.8507 9.49883 16.2577 10.0009 16.2577C10.5029 16.2577 10.91 15.8507 10.91 15.3486V9.89408C10.91 9.39202 10.5029 8.98499 10.0009 8.98499Z" fill="#C3C5D2"/>
</g>
<defs>
<clipPath id="clip0">
<rect width="20" height="20" fill="white" transform="translate(0 0.500122)"/>
</clipPath>
</defs>
</svg>
