<svg width="451" height="406" viewBox="0 0 451 406" fill="none" xmlns="http://www.w3.org/2000/svg">
<rect width="138.225" height="27.9333" transform="matrix(0.999305 -0.0372765 0.0644246 0.997923 167.378 135.884)" fill="white"/>
<rect width="138.225" height="27.9333" transform="matrix(0.999305 -0.0372765 0.0644246 0.997923 172.272 212.987)" fill="white"/>
<rect width="138.225" height="27.9333" transform="matrix(0.999305 -0.0372765 0.0644246 0.997923 172.272 254.598)" fill="white"/>
<rect width="73.8107" height="27.9333" transform="matrix(0.999305 -0.0372765 0.0644246 0.997923 172.731 172.044)" fill="white"/>
<rect width="50.55" height="27.9333" transform="matrix(0.999305 -0.0372765 0.0644246 0.997923 259.167 169.331)" fill="white"/>
<path d="M300.485 326.21L293.735 343.817C291.686 341.405 289.878 341.285 287.106 341.164C290.24 334.652 292.168 330.431 293.856 323.557C296.869 323.557 298.315 324.401 300.485 326.21Z" fill="#D3EDFF"/>
<path d="M407.758 191.506L394.62 198.5C394.62 195.968 393.656 195.003 392.089 193.556C397.272 191.264 400.647 189.817 405.227 186.561C407.035 188.008 407.397 189.335 407.758 191.506Z" fill="#D3E1FF"/>
<path d="M137.89 293.409C142.35 293.65 146.689 292.203 150.666 289.067C148.497 287.982 148.256 285.208 149.099 283.158C145.845 285.57 142.35 287.138 136.203 287.982C135.479 287.982 136.323 290.635 137.046 292.082C137.287 292.444 137.649 292.926 137.89 293.409Z" fill="#D3E1FF"/>
<path d="M116.795 241.071C119.809 240.468 122.822 242.397 123.425 245.412C124.027 248.427 122.099 251.442 119.086 252.045C116.072 252.648 113.059 250.718 112.456 247.703C111.854 244.688 113.782 241.674 116.795 241.071Z" fill="#D3EDFF"/>
<path d="M76.0562 269.169C77.5026 267.601 80.0337 267.601 81.6006 269.048C83.1675 270.495 83.1675 273.028 81.7212 274.595C80.2748 276.163 77.7436 276.163 76.1767 274.716C74.6098 273.148 74.4893 270.736 76.0562 269.169Z" fill="#DED3FF"/>
<path d="M68.2205 81.5222L86.6618 73.9247C86.3002 77.3013 87.5055 78.7485 89.434 80.9192C82.2021 83.2105 77.5014 84.7783 70.9927 88.5167C68.7026 86.2254 68.4615 84.4165 68.2205 81.5222Z" fill="#DED3FF"/>
<path d="M197.915 392.9C199.603 395.794 203.098 395.191 205.75 396.397C205.629 393.865 206.353 390.85 208.281 389.162C205.509 389.282 203.339 387.111 202.254 384.579C199.362 388.438 198.277 390.126 197.915 392.9Z" fill="#BAF0DF"/>
<path d="M63.1588 194.882C63.882 196.812 62.7972 198.862 60.9892 199.465C59.0607 200.188 57.0117 199.103 56.409 197.294C55.6858 195.365 56.7706 193.314 58.5786 192.711C60.5071 191.988 62.5561 192.953 63.1588 194.882Z" fill="#D3EDFF"/>
<path d="M327.97 187.284L344.483 177.034C344.724 180.29 346.05 181.496 348.22 183.305C341.711 186.681 337.372 188.973 331.707 193.555C329.176 191.626 328.573 190.058 327.97 187.284Z" fill="#D3E1FF"/>
<path d="M336.045 150.141C337.491 149.297 339.419 149.9 340.143 151.468C340.986 152.915 340.384 154.844 338.817 155.568C337.37 156.412 335.442 155.809 334.719 154.241C333.995 152.794 334.598 150.985 336.045 150.141Z" fill="#D3EDFF"/>
<path d="M376.907 284.002L385.344 301.85C381.969 301.609 380.644 302.936 378.595 304.865C375.943 297.871 374.135 293.288 370.157 287.017C372.206 284.726 374.014 284.364 376.907 284.002Z" fill="#FFE9BE"/>
<path d="M155.729 148.212L147.654 158.824C146.69 156.774 145.484 156.412 143.676 155.809C147.051 152.071 149.221 149.538 151.752 145.197C153.801 145.679 154.645 146.644 155.729 148.212Z" fill="#D3EDFF"/>
<path d="M356.292 369.383L344.601 352.259C348.096 351.897 349.181 350.329 351.109 347.917C354.966 354.791 357.618 359.133 362.801 365.042C360.993 367.936 359.185 368.66 356.292 369.383Z" fill="#FFD9D1"/>
<path d="M127.403 209.836C126.801 211.403 124.993 212.127 123.426 211.403C121.859 210.8 121.136 208.991 121.859 207.424C122.461 205.856 124.269 205.132 125.836 205.856C127.403 206.58 128.126 208.388 127.403 209.836Z" fill="#DED3FF"/>
<path d="M423.794 192.229C426.325 192.229 427.41 189.696 429.097 188.37C427.289 187.405 425.602 185.837 425.24 183.908C424.276 185.837 421.986 186.44 419.816 186.199C421.383 189.817 422.106 191.023 423.794 192.229Z" fill="#FFD9D1"/>
<path d="M78.5866 242.035C74.8501 240.949 72.3189 244.326 69.3056 245.411C71.4752 247.462 73.2832 250.476 72.9216 253.491C75.2117 251.2 78.7071 251.2 81.5999 252.406C80.9972 246.979 80.5151 244.567 78.5866 242.035Z" fill="#BAF0DF"/>
<path d="M368.829 16.2804L357.74 4.10024C360.391 3.37667 361.115 2.05012 362.32 0C366.177 4.94441 368.708 8.07989 373.409 12.1801C372.324 14.592 370.998 15.3156 368.829 16.2804Z" fill="#D3E1FF"/>
<path d="M189.597 362.509C192.008 362.148 192.611 359.615 194.057 358.289C192.249 357.686 190.441 356.359 189.959 354.671C189.236 356.6 187.307 357.444 185.258 357.444C187.066 360.218 187.91 361.545 189.597 362.509Z" fill="#D3EDFF"/>
<path d="M343.998 259.642H332.066C333.03 257.833 332.668 256.748 332.066 255.18C336.646 255.542 339.539 255.783 343.998 255.18C344.842 256.989 344.601 258.074 343.998 259.642Z" fill="#D3E1FF"/>
<path d="M373.287 257.954C373.408 259.883 371.961 261.692 370.033 261.813C368.104 261.933 366.296 260.486 366.176 258.557C366.055 256.627 367.502 254.818 369.43 254.698C371.359 254.577 373.046 256.024 373.287 257.954Z" fill="#D3EDFF"/>
<path d="M281.203 56.8007C280.842 59.2126 283.132 60.6598 284.096 62.5893C285.301 61.0216 287.109 59.5744 289.038 59.5744C287.351 58.2479 287.109 56.0771 287.712 54.027C284.217 54.8712 282.77 55.3536 281.203 56.8007Z" fill="#BAF0DF"/>
<path d="M270.958 373.364C268.668 376.137 270.596 379.514 270.355 382.529C272.886 381.443 276.141 380.961 278.551 382.408C277.346 379.635 278.672 376.74 280.841 374.69C275.659 373.002 273.61 372.64 270.958 373.364Z" fill="#DED3FF"/>
<path d="M132.949 111.55C135.601 114.686 139.337 116.857 143.918 117.459C143.194 115.289 145.002 113.359 146.931 112.636C143.194 111.912 139.94 110.586 135.48 106.968C134.998 106.485 133.793 108.656 133.311 110.103C133.07 110.465 132.949 110.947 132.949 111.55Z" fill="#D3E1FF"/>
<path d="M161.514 84.779C162.238 88.2763 166.095 88.9999 168.264 91.1706C169.108 88.5175 170.795 85.6232 173.447 84.6584C170.554 83.8143 169.108 80.7994 168.867 77.9051C164.166 80.92 162.72 82.2465 161.514 84.779Z" fill="#FFD9D1"/>
<path d="M242.391 338.39C244.801 336.943 247.935 337.667 249.381 340.079C250.828 342.49 250.105 345.626 247.694 347.073C245.283 348.52 242.149 347.797 240.703 345.385C239.257 342.973 239.98 339.837 242.391 338.39Z" fill="#D3EDFF"/>
<path d="M0.843872 270.616L11.2096 259.401C12.0533 261.813 13.3792 262.416 15.4282 263.38C11.2096 267.36 8.43737 270.013 5.06248 274.596C2.77238 273.631 1.92866 272.546 0.843872 270.616Z" fill="#D3E1FF"/>
<path d="M114.869 163.768C112.338 164.613 109.686 163.286 108.722 160.874C107.878 158.342 109.204 155.689 111.615 154.724C114.146 153.88 116.798 155.206 117.762 157.618C118.606 160.151 117.28 162.924 114.869 163.768Z" fill="#DED3FF"/>
<path d="M173.448 301.007C167.662 303.419 162.841 307.76 159.707 314.152C163.203 314.152 165.011 317.649 165.252 320.905C168.024 315.84 171.64 311.74 178.872 306.916C179.836 306.433 177.184 303.66 175.376 302.213C174.774 301.851 174.171 301.489 173.448 301.007Z" fill="#D3E1FF"/>
<path d="M258.542 13.5073L270.113 21.5872C267.943 22.6726 267.581 23.8785 266.979 25.9286C262.881 22.552 260.108 20.2607 255.408 17.8488C256.01 15.5574 256.854 14.7133 258.542 13.5073Z" fill="#D3E1FF"/>
<path d="M52.1935 256.868L34.2342 268.687C33.9932 265.069 32.3057 263.863 29.8951 261.813C37.127 257.954 41.7072 255.301 47.8543 249.994C50.7471 251.924 51.4703 253.733 52.1935 256.868Z" fill="#DED3FF"/>
<path d="M325.197 328.985L327.488 343.215C325.197 342.371 323.992 343.094 322.184 344.059C321.702 338.632 321.461 335.014 319.894 329.829C321.823 328.623 323.148 328.623 325.197 328.985Z" fill="#FFD9D1"/>
<path d="M27.8448 169.196L25.1931 148.333C28.4475 149.659 30.2555 148.815 33.0277 147.489C33.3893 155.448 33.6304 160.633 35.6794 168.352C32.6661 170.04 30.8581 169.919 27.8448 169.196Z" fill="#D3E1FF"/>
<path d="M377.627 126.988C374.975 122.405 369.19 123.37 365.092 121.561C365.333 125.661 364.248 130.485 361.235 133.138C365.694 132.897 369.19 136.273 370.998 140.253C375.819 133.741 377.265 131.088 377.627 126.988Z" fill="#D3E1FF"/>
<path d="M164.407 361.424C165.491 359.133 163.683 357.203 163.322 355.033C161.755 356.118 159.585 356.962 157.777 356.48C158.983 358.168 158.621 360.459 157.416 362.148C161.393 362.509 162.719 362.389 164.407 361.424Z" fill="#DED3FF"/>
<path d="M123.186 275.922L110.892 281.469C111.013 279.178 110.169 278.213 108.843 276.766C113.664 275.078 116.798 273.872 121.137 271.219C122.704 272.786 123.066 273.992 123.186 275.922Z" fill="#D3E1FF"/>
<path d="M371.722 58.7308C370.276 61.2633 372.204 63.7958 372.566 66.3283C374.494 65.1223 377.146 64.2782 379.195 65.0017C377.869 62.831 378.472 60.2985 379.918 58.2484C375.82 57.766 374.012 57.6454 371.722 58.7308Z" fill="#D3EDFF"/>
<path d="M186.827 276.887C188.153 273.631 188.273 270.013 186.948 266.154C185.622 267.481 183.452 266.878 182.126 265.792C183.09 268.928 183.332 271.943 182.367 276.766C182.247 277.369 184.296 277.369 185.622 277.249C185.863 277.128 186.345 277.008 186.827 276.887Z" fill="#FFD9D1"/>
<path d="M205.146 285.087L202.494 274.354C204.302 274.837 205.146 274.234 206.472 273.389C207.195 277.49 207.677 280.263 209.124 284.122C207.677 285.208 206.713 285.208 205.146 285.087Z" fill="#FFE9BE"/>
<path d="M62.5581 322.593C61.3527 326.09 64.366 328.743 65.3303 331.758C67.3793 329.829 70.5132 328.14 73.2854 328.623C71.1158 326.331 71.3569 322.955 72.6827 320.181C67.0177 320.543 64.9687 320.905 62.5581 322.593Z" fill="#DED3FF"/>
<path d="M91.2436 151.348L85.0964 163.648C83.7706 161.719 82.4447 161.598 80.5162 161.236C83.2885 156.774 84.9759 153.88 86.6634 148.936C88.8329 149.177 89.7972 149.9 91.2436 151.348Z" fill="#DED3FF"/>
<path d="M69.7894 287.62C66.6555 282.434 61.7137 278.334 55.205 276.284C55.6872 279.661 52.5533 281.952 49.54 282.555C54.7229 284.485 59.1826 287.379 64.8476 293.65C65.4502 294.494 67.7403 291.6 68.8251 289.67C69.1867 289.067 69.4278 288.344 69.7894 287.62Z" fill="#D3E1FF"/>
<path d="M274.453 77.1817C272.043 75.2522 268.909 74.0462 265.293 74.2874C266.136 75.8552 265.052 77.5435 263.726 78.3877C266.619 78.3877 269.27 78.9906 273.248 81.0407C273.73 81.2819 274.333 79.473 274.453 78.3877C274.453 78.0259 274.453 77.5435 274.453 77.1817Z" fill="#FFD9D1"/>
<path d="M371.719 187.284C372.563 189.576 375.215 189.576 376.902 190.661C377.143 188.852 377.987 186.681 379.554 185.837C377.505 185.596 376.179 183.908 375.697 181.857C373.286 184.149 372.201 185.355 371.719 187.284Z" fill="#D3EDFF"/>
<path d="M68.5843 143.508L56.1695 157.015C55.2053 154.121 53.6383 153.397 51.1072 152.312C56.1695 147.608 59.5444 144.473 63.522 138.805C66.2942 139.77 67.379 141.096 68.5843 143.508Z" fill="#D3E1FF"/>
<path d="M46.0431 114.445C50.1411 117.098 54.4803 113.842 58.5784 113.601C56.6499 110.345 55.4445 106.004 56.8909 102.506C53.275 104.557 49.0564 103.351 45.9225 100.818C44.7172 108.174 44.5967 110.948 46.0431 114.445Z" fill="#D3E1FF"/>
<path d="M321.339 299.68C320.013 297.027 321.098 293.891 323.749 292.565C326.401 291.238 329.535 292.323 330.861 294.976C332.187 297.63 331.102 300.765 328.45 302.092C325.798 303.418 322.665 302.212 321.339 299.68Z" fill="#D3E1FF"/>
<path d="M98.837 227.081L108.359 229.975C107.154 231.181 107.154 232.146 107.274 233.593C103.779 232.146 101.368 231.302 97.7522 230.699C97.5111 229.131 97.9932 228.287 98.837 227.081Z" fill="#BAF0DF"/>
<path d="M422.105 118.304C419.212 115.048 415.234 112.998 410.292 112.395C411.136 114.687 409.328 116.737 407.279 117.581C411.257 118.184 414.752 119.51 419.573 123.128C420.056 123.611 421.261 121.199 421.864 119.752C421.864 119.39 421.984 118.907 422.105 118.304Z" fill="#FFD9D1"/>
<path d="M101.127 363.233C97.0292 364.801 93.4133 367.695 91.1232 372.157C93.5338 372.278 94.8597 374.81 94.8597 376.981C96.9087 373.484 99.5604 370.71 104.864 367.454C105.466 367.092 103.779 365.163 102.574 364.077C102.092 363.836 101.609 363.595 101.127 363.233Z" fill="#FFD9D1"/>
<path d="M370.033 151.106C367.622 153.035 366.055 155.93 365.573 159.427C367.261 158.945 368.586 160.271 369.189 161.718C369.792 158.945 370.756 156.412 373.528 153.035C373.89 152.674 372.202 151.709 371.238 151.347C370.877 151.347 370.515 151.227 370.033 151.106Z" fill="#FFD9D1"/>
<path d="M248.417 84.0553C249.02 79.5932 248.055 75.0106 245.283 70.6692C243.957 72.8399 241.185 72.7193 239.136 71.634C241.185 75.2518 242.511 78.8697 242.752 85.1406C242.752 85.8642 245.404 85.2612 246.971 84.6582C247.453 84.6582 247.935 84.417 248.417 84.0553Z" fill="#D3E1FF"/>
<path d="M123.426 185.355C124.51 186.682 124.39 188.612 123.184 189.697C121.859 190.782 119.93 190.662 118.845 189.456C117.761 188.129 117.881 186.2 119.086 185.114C120.292 184.029 122.341 184.15 123.426 185.355Z" fill="#D3E1FF"/>
<path d="M313.746 96.8386C315.072 101.662 320.496 102.265 323.871 104.919C324.714 101.18 326.764 96.9592 330.259 95.2709C326.161 94.3061 323.75 90.4471 323.148 86.3468C317.483 90.8089 315.192 92.9796 313.746 96.8386Z" fill="#BAF0DF"/>
<path d="M147.293 233.955C144.159 235.643 140.423 234.437 138.736 231.302C137.048 228.167 138.253 224.428 141.387 222.74C144.521 221.051 148.258 222.257 149.945 225.393C151.512 228.528 150.307 232.387 147.293 233.955Z" fill="#FFD9D1"/>
<path d="M325.076 179.084L318.568 168.834C320.617 168.713 321.34 167.748 322.425 166.422C324.594 170.522 326.041 173.175 328.933 176.672C327.849 178.24 326.764 178.602 325.076 179.084Z" fill="#FFD9D1"/>
<path d="M195.383 297.75C194.539 301.247 191.044 303.539 187.428 302.695C183.933 301.85 181.643 298.353 182.486 294.735C183.33 291.238 186.825 288.947 190.441 289.791C194.057 290.635 196.227 294.132 195.383 297.75Z" fill="#FFE9BE"/>
<path d="M344.841 317.527C342.43 317.768 341.707 320.18 340.14 321.627C341.827 322.351 343.635 323.677 344.117 325.486C344.961 323.557 346.89 322.833 348.939 322.954C347.131 319.577 346.408 318.492 344.841 317.527Z" fill="#FFD9D1"/>
<path d="M40.7407 219.242C43.8745 220.448 45.4414 223.825 44.3566 227.081C43.1513 230.216 39.7764 231.784 36.5221 230.699C33.3882 229.493 31.8213 226.116 32.9061 222.86C34.1114 219.725 37.6068 218.157 40.7407 219.242Z" fill="#D3EDFF"/>
<path d="M180.075 18.8136C179.834 21.3461 182.485 22.552 183.57 24.4816C184.655 22.7932 186.342 21.1049 188.391 20.8637C186.584 19.6577 185.981 17.3664 186.463 15.3163C182.968 16.5223 181.401 17.1252 180.075 18.8136Z" fill="#BAF0DF"/>
<path d="M180.077 51.3741C177.305 51.4947 176.341 54.2684 174.412 55.7156C176.341 56.6803 178.269 58.3687 178.751 60.4188C179.836 58.3687 182.126 57.5245 184.416 57.7657C182.729 54.2684 181.885 52.7007 180.077 51.3741Z" fill="#D3E1FF"/>
<path d="M268.427 323.437C269.512 326.09 272.525 325.969 274.574 327.296C274.815 325.125 275.659 322.713 277.587 321.507C275.177 321.266 273.73 319.216 273.007 317.045C269.873 320.06 268.909 321.387 268.427 323.437Z" fill="#FFE9BE"/>
<path d="M415.716 343.214C419.332 342.249 422.586 339.958 424.997 336.34C422.948 336.098 421.984 333.807 422.104 331.878C420.055 334.651 417.645 336.943 412.823 339.234C412.221 339.475 413.547 341.284 414.511 342.369C414.872 342.611 415.234 342.972 415.716 343.214Z" fill="#FFE9BE"/>
<path d="M386.306 234.317L377.627 242.758C377.025 240.829 376.06 240.226 374.493 239.502C377.989 236.608 380.279 234.558 383.172 231.061C384.98 231.784 385.582 232.628 386.306 234.317Z" fill="#D3E1FF"/>
<path d="M150.184 133.982C150.063 129.399 145.242 127.711 142.831 124.696C141.264 127.952 138.492 131.208 135.117 131.932C138.613 133.62 139.939 137.6 139.577 141.338C146.086 138.323 148.255 136.876 150.184 133.982Z" fill="#D3E1FF"/>
<path d="M450.91 233.593C448.74 230.337 444.642 231.181 441.508 230.096C441.87 233.111 441.267 236.728 439.098 238.658C442.352 238.296 445.004 240.587 446.45 243.482C449.825 238.658 450.789 236.608 450.91 233.593Z" fill="#D3E1FF"/>
<path d="M148.256 68.3782L159.827 70.1872C158.621 71.7549 158.862 72.8403 159.103 74.5286C154.764 73.4432 151.992 72.8403 147.532 72.7197C147.05 70.9107 147.412 69.946 148.256 68.3782Z" fill="#FFE9BE"/>
<path d="M97.7519 52.2183C101.97 52.7007 106.31 51.7359 110.287 48.8417C108.238 47.6357 108.238 44.9826 109.202 43.0531C105.828 45.1032 102.453 46.4297 96.426 46.9121C95.7028 46.9121 96.3055 49.4446 96.9081 50.8918C97.1492 51.2536 97.5108 51.7359 97.7519 52.2183Z" fill="#D3E1FF"/>
<path d="M371.719 214.419C376.661 219.122 383.29 222.016 391.125 222.258C389.558 218.76 392.21 215.384 395.344 213.695C389.076 213.092 383.411 211.525 375.335 206.339C374.492 205.615 372.804 209.475 372.201 211.886C371.84 212.731 371.84 213.575 371.719 214.419Z" fill="#FFE9BE"/>
<path d="M426.229 216.636C426.362 214.576 424.8 212.798 422.741 212.665C420.682 212.531 418.905 214.094 418.772 216.154C418.639 218.215 420.2 219.993 422.26 220.126C424.319 220.259 426.096 218.696 426.229 216.636Z" fill="#D3EDFF"/>
<path d="M128.37 49.5648C131.624 48.6 134.999 50.2883 136.084 53.5444C137.048 56.8005 135.361 60.1772 132.106 61.2625C128.852 62.2273 125.477 60.5389 124.392 57.2829C123.308 54.0268 125.116 50.5295 128.37 49.5648Z" fill="#D3EDFF"/>
<path d="M394.862 27.1341C396.309 26.1693 398.237 26.6517 399.202 28.0988C400.166 29.546 399.684 31.4755 398.237 32.4403C396.791 33.405 394.862 32.9226 393.898 31.4755C393.054 29.9078 393.416 27.9782 394.862 27.1341Z" fill="#BAF0DF"/>
<path d="M397.035 150.623C397.155 148.935 398.602 147.608 400.41 147.729C402.097 147.849 403.423 149.297 403.303 151.106C403.182 152.794 401.736 154.12 399.928 154C398.24 153.879 396.914 152.312 397.035 150.623Z" fill="#D3EDFF"/>
<path d="M144.399 402.788C142.711 402.668 141.386 401.221 141.506 399.532C141.627 397.844 143.073 396.518 144.76 396.638C146.448 396.759 147.774 398.206 147.653 399.894C147.533 401.583 146.086 402.909 144.399 402.788Z" fill="#D3EDFF"/>
<path d="M322.303 62.4681C324.231 65.6036 327.245 68.0155 331.222 69.3421C330.981 67.292 332.789 65.8448 334.597 65.483C331.463 64.2771 328.691 62.5887 325.195 58.8503C324.834 58.3679 323.388 60.1768 322.785 61.2622C322.664 61.5034 322.544 61.9857 322.303 62.4681Z" fill="#DED3FF"/>
<path d="M368.103 392.176C368.706 394.106 367.621 396.156 365.692 396.759C363.764 397.362 361.715 396.276 361.112 394.347C360.509 392.417 361.594 390.367 363.523 389.764C365.451 389.161 367.5 390.247 368.103 392.176Z" fill="#BAF0DF"/>
<path d="M163.201 263.018C160.55 262.898 159.344 265.672 157.536 266.878C159.344 267.842 161.152 269.651 161.393 271.701C162.478 269.772 164.889 269.169 167.058 269.41C165.612 265.913 164.889 264.345 163.201 263.018Z" fill="#BAF0DF"/>
<path d="M28.5683 321.266C33.7512 320.422 38.5724 317.768 42.4295 313.186C39.6572 312.462 38.693 309.206 39.1751 306.553C35.9207 310.05 32.1843 312.703 25.3139 315.236C24.4702 315.477 26.0371 318.251 27.2424 319.698C27.604 320.301 28.0862 320.783 28.5683 321.266Z" fill="#DED3FF"/>
<path d="M89.0747 204.289C90.7621 199.948 87.0256 196.692 85.9409 192.953C83.2892 195.365 79.4321 197.174 76.0573 196.571C78.5884 199.465 78.2268 203.566 76.5394 206.942C83.5302 206.701 86.0614 206.219 89.0747 204.289Z" fill="#FFE9BE"/>
<path d="M148.016 250.357C144.279 246.859 139.217 249.271 134.998 248.668C136.324 252.407 136.686 257.231 134.516 260.487C138.614 259.039 142.713 261.21 145.485 264.466C147.895 257.592 148.739 254.457 148.016 250.357Z" fill="#D3EDFF"/>
<path d="M424.636 75.9755C423.31 72.5989 419.333 72.7195 416.681 71.1517C416.44 73.9254 415.235 77.0609 412.945 78.508C415.958 78.7492 418.007 81.4023 418.851 84.2966C422.708 80.1964 424.034 78.6286 424.636 75.9755Z" fill="#FFD9D1"/>
<path d="M438.136 145.8C437.895 143.87 439.341 142.182 441.27 142.061C443.198 141.82 444.886 143.267 445.006 145.197C445.247 147.126 443.801 148.814 441.872 148.935C439.944 149.176 438.256 147.729 438.136 145.8Z" fill="#D3EDFF"/>
<path d="M441.632 268.446C440.427 270.737 442.235 272.787 442.476 274.958C444.163 273.872 446.333 273.149 448.261 273.752C447.056 271.943 447.538 269.652 448.864 267.963C444.887 267.481 443.44 267.602 441.632 268.446Z" fill="#D3E1FF"/>
<path d="M124.753 356.118C127.646 358.168 128.248 362.269 126.079 365.163C124.03 368.057 119.931 368.66 117.039 366.489C114.146 364.439 113.543 360.339 115.713 357.445C117.882 354.55 121.981 353.947 124.753 356.118Z" fill="#D3E1FF"/>
<path d="M343.034 119.39L333.633 126.023C333.391 124.093 332.548 123.49 331.222 122.405C334.958 120.113 337.49 118.666 340.623 115.772C342.19 116.857 342.552 117.822 343.034 119.39Z" fill="#D3E1FF"/>
<path d="M0 183.064C3.01329 188.129 7.71403 192.229 14.2227 194.279C13.8612 191.023 16.8744 188.732 19.7672 188.129C14.7049 186.079 10.3657 183.305 4.9418 177.034C4.33914 176.19 2.04904 179.084 0.964253 180.893C0.602658 181.617 0.361595 182.22 0 183.064Z" fill="#FFD9D1"/>
<path d="M318.687 37.5051L331.704 36.4198C330.86 38.4699 331.342 39.5552 332.066 41.3642C327.124 41.3642 323.869 41.4848 319.048 42.4495C318.084 40.52 318.204 39.314 318.687 37.5051Z" fill="#D3E1FF"/>
<path d="M115.953 98.0446C117.037 94.3061 116.676 90.3265 114.747 86.3468C113.421 88.0352 111.011 87.6734 109.444 86.588C110.89 89.9647 111.493 93.2208 111.011 98.527C110.89 99.1299 113.18 98.8887 114.627 98.6475C114.988 98.4064 115.47 98.1652 115.953 98.0446Z" fill="#BAF0DF"/>
<path d="M387.753 356.842C391.852 351.415 393.901 344.661 393.298 336.943C390.044 338.873 386.307 336.582 384.379 333.808C384.499 340.079 383.535 345.867 379.316 354.309C378.714 355.274 382.691 356.48 385.102 356.842C385.945 356.842 386.789 356.842 387.753 356.842Z" fill="#D3E1FF"/>
<path d="M288.795 97.8027C287.228 100.576 286.625 103.832 287.228 107.33C288.674 106.244 290.482 107.089 291.567 108.294C291.205 105.4 291.326 102.626 292.772 98.4057C293.013 97.9233 291.085 97.5615 289.88 97.5615C289.638 97.8027 289.277 97.8027 288.795 97.8027Z" fill="#FFE9BE"/>
<path d="M400.527 258.315C396.55 256.024 392.572 259.159 388.715 259.642C390.644 262.657 391.97 266.757 390.764 270.134C394.139 268.083 398.117 269.048 401.251 271.339C402.094 264.224 401.974 261.571 400.527 258.315Z" fill="#D3E1FF"/>
<path d="M231.181 305.951C233.351 312.222 237.811 317.528 244.319 321.146C244.56 317.528 248.297 315.719 251.672 315.598C246.489 312.342 242.391 308.483 237.69 300.524C237.208 299.559 234.195 302.092 232.628 303.9C232.146 304.503 231.664 305.227 231.181 305.951Z" fill="#D3EDFF"/>
<path d="M118.845 314.392C119.327 319.337 121.617 324.04 125.836 327.899C126.68 325.246 129.693 324.643 132.224 325.125C129.09 321.869 126.68 318.131 124.631 311.498C124.51 310.654 121.738 312.101 120.291 313.066C119.809 313.548 119.327 313.91 118.845 314.392Z" fill="#D3EDFF"/>
<path d="M66.6546 223.583C67.4984 221.895 69.4269 221.292 71.1143 222.016C72.8017 222.86 73.4044 224.789 72.6812 226.478C71.8375 228.166 69.909 228.769 68.2215 228.045C66.5341 227.201 65.9314 225.272 66.6546 223.583Z" fill="#FFE9BE"/>
<path d="M97.6317 318.131L87.1454 318.613C87.8686 317.045 87.507 316.08 87.0249 314.633C91.0024 314.754 93.6541 314.875 97.5112 314.151C98.2343 315.719 97.9933 316.683 97.6317 318.131Z" fill="#FFD9D1"/>
<path d="M349.662 287.982C351.47 287.5 353.157 288.585 353.64 290.394C354.122 292.203 353.037 293.891 351.229 294.374C349.421 294.856 347.734 293.771 347.251 291.962C346.769 290.153 347.854 288.465 349.662 287.982Z" fill="#D3EDFF"/>
<path d="M227.083 51.9771C233.23 49.6858 238.533 45.2238 242.149 38.591C238.533 38.4704 236.605 34.732 236.484 31.3553C233.35 36.5409 229.493 40.7617 221.538 45.5855C220.574 46.0679 223.226 49.0828 225.034 50.6505C225.636 51.1329 226.359 51.4947 227.083 51.9771Z" fill="#D3E1FF"/>
<path d="M153.076 187.164C155.728 183.064 152.715 178.843 152.474 174.743C149.219 176.552 144.88 177.637 141.385 176.19C143.313 179.808 141.987 183.908 139.456 187.044C146.929 188.37 149.581 188.491 153.076 187.164Z" fill="#FFD9D1"/>
<path d="M217.321 336.461C214.308 339.114 212.138 342.732 211.535 347.315C213.705 346.591 215.513 348.4 216.357 350.33C217.08 346.712 218.406 343.456 221.901 338.994C222.383 338.511 220.214 337.306 218.888 336.823C218.285 336.582 217.803 336.582 217.321 336.461Z" fill="#DED3FF"/>
<path d="M207.557 320.904C204.543 322.352 200.807 321.025 199.36 318.01C197.914 314.995 199.24 311.257 202.253 309.81C205.266 308.363 209.003 309.689 210.449 312.704C211.896 315.84 210.57 319.457 207.557 320.904Z" fill="#DED3FF"/>
<path d="M147.291 326.935C149.822 328.502 150.546 331.758 148.979 334.17C147.412 336.703 144.158 337.426 141.747 335.859C139.216 334.291 138.493 331.035 140.059 328.623C141.626 326.211 144.881 325.367 147.291 326.935Z" fill="#D3EDFF"/>
<path d="M251.55 393.864V405.441C249.863 404.477 248.778 404.838 247.211 405.441C247.573 400.979 247.693 398.206 247.211 393.864C248.899 393.02 249.863 393.261 251.55 393.864Z" fill="#D3E1FF"/>
<path d="M426.563 296.665L417.402 313.428C415.715 310.654 413.907 310.413 411.134 309.93C415.112 303.901 417.643 299.921 420.295 293.168C423.308 293.529 424.634 294.615 426.563 296.665Z" fill="#DED3FF"/>
<path d="M187.667 90.2055C188.029 92.3762 186.583 94.4263 184.413 94.7881C182.243 95.1499 180.194 93.7027 179.833 91.532C179.471 89.3613 180.918 87.3112 183.087 86.9494C185.257 86.7082 187.306 88.1553 187.667 90.2055Z" fill="#D3EDFF"/>
<path d="M227.446 371.193C224.433 369.143 223.589 365.043 225.638 362.028C227.687 359.013 231.785 358.169 234.798 360.219C237.812 362.269 238.655 366.369 236.606 369.384C234.557 372.399 230.459 373.243 227.446 371.193Z" fill="#BAF0DF"/>
<path d="M75.5743 112.395C75.9359 110.104 78.1054 108.415 80.5161 108.777C82.8062 109.139 84.4936 111.31 84.132 113.721C83.7704 116.133 81.6009 117.701 79.1902 117.339C76.7796 116.857 75.0922 114.686 75.5743 112.395Z" fill="#FFD9D1"/>
<path d="M313.748 377.705L303.141 380.72C303.503 378.911 303.021 378.066 302.056 376.74C306.154 375.896 308.806 375.413 312.663 373.725C313.869 375.052 313.869 376.137 313.748 377.705Z" fill="#DED3FF"/>
<path d="M112.217 140.855C115.23 139.77 115.23 136.152 116.797 133.981C114.266 133.74 111.494 132.534 110.288 130.363C109.927 133.016 107.637 134.825 104.985 135.428C108.36 139.046 109.806 140.252 112.217 140.855Z" fill="#DED3FF"/>
<path d="M154.764 219.724C152.835 217.915 152.835 214.901 154.643 212.971C156.451 211.041 159.465 211.041 161.393 212.85C163.322 214.659 163.322 217.674 161.514 219.604C159.585 221.533 156.572 221.654 154.764 219.724Z" fill="#D3E1FF"/>
<mask id="path-114-outside-1" maskUnits="userSpaceOnUse" x="140.979" y="67.7722" width="204" height="259" fill="black">
<rect fill="white" x="140.979" y="67.7722" width="204" height="259"/>
<path d="M158.271 76.9364C166.889 76.5007 175.488 76.0082 184.107 75.4968C188.406 75.2316 192.706 74.9664 197.025 74.6822L203.484 74.2655L209.943 73.8298L222.842 72.9206L235.741 71.9545L261.52 70.0034L274.419 69.0752L277.639 68.8479L278.037 68.829C278.169 68.829 278.302 68.81 278.454 68.81C278.757 68.7911 279.06 68.7722 279.363 68.7722C279.969 68.7722 280.575 68.7911 281.181 68.8479C283.643 69.0563 286.03 69.7382 288.208 70.8558C289.307 71.4052 290.33 72.0682 291.296 72.8259L291.656 73.11L291.978 73.3752L292.603 73.8866L293.853 74.9095L298.815 79.058L308.741 87.3548C315.332 92.9049 321.924 98.493 328.478 104.081L330.94 106.184L331.546 106.714L331.849 106.979L332.19 107.282C332.417 107.491 332.645 107.699 332.872 107.926C333.08 108.154 333.308 108.362 333.516 108.589C335.202 110.408 336.509 112.567 337.361 114.897C337.797 116.053 338.1 117.265 338.308 118.477C338.365 118.78 338.403 119.084 338.441 119.387C338.479 119.69 338.517 119.993 338.517 120.315L338.535 120.769L338.554 120.997V121.205L338.573 122.02L338.725 128.479C339.539 162.973 339.786 197.468 340.808 231.962C341.055 240.581 341.32 249.2 341.642 257.819L342.115 270.737L342.627 283.656L343.176 296.575L343.328 299.814L343.366 300.629L343.384 301.045V301.481V301.917L343.366 302.353L343.347 302.788C343.347 302.94 343.328 303.072 343.309 303.224C343.138 305.516 342.494 307.789 341.471 309.854C339.407 314.002 335.694 317.298 331.281 318.833C330.182 319.211 329.046 319.496 327.89 319.666C327.606 319.704 327.303 319.742 327.019 319.761C326.735 319.799 326.432 319.799 326.148 319.818L325.921 319.836H325.712L325.314 319.855L324.5 319.893L318.041 320.14L292.186 321.125L279.268 321.617L266.331 322.072C249.094 322.678 231.858 323.17 214.621 323.663L188.766 324.421L175.829 324.799L169.37 324.989L167.741 325.027C167.419 325.027 167.116 325.027 166.794 325.027L165.847 324.97C164.578 324.875 163.328 324.648 162.097 324.326C159.653 323.644 157.324 322.488 155.316 320.954C153.308 319.401 151.584 317.469 150.296 315.271C149.008 313.074 148.156 310.63 147.796 308.092L147.683 307.145C147.664 306.823 147.645 306.52 147.626 306.198L147.55 304.569L147.417 301.33C147.057 292.711 146.735 284.092 146.432 275.473C146.11 266.854 145.807 258.235 145.523 249.617C145.239 240.998 144.936 232.379 144.69 223.76C144.159 206.503 143.818 189.247 143.515 172.009C143.231 154.752 143.004 137.515 142.625 120.258L142.474 113.799L142.322 107.339L141.981 94.3825C141.943 92.1662 142.341 89.9688 143.137 87.9041C143.932 85.8583 145.125 83.9451 146.622 82.354C148.118 80.7438 149.937 79.4368 151.925 78.5086C153.914 77.5804 156.074 77.05 158.271 76.9364ZM158.309 77.5047C156.187 77.6183 154.104 78.1487 152.191 79.039C150.259 79.9672 148.516 81.2363 147.095 82.7896C145.675 84.3429 144.538 86.1803 143.8 88.1693C143.08 90.1393 142.739 92.2609 142.815 94.3635C143.004 98.6635 143.231 102.982 143.459 107.282L143.8 113.742L144.159 120.201C145.125 137.42 146.243 154.639 147.304 171.857C148.345 189.076 149.349 206.295 150.183 223.533C150.599 232.151 150.978 240.77 151.357 249.37C151.755 257.989 152.115 266.608 152.475 275.227C152.835 283.846 153.176 292.465 153.498 301.083L153.611 304.323L153.668 305.914C153.687 306.141 153.687 306.349 153.706 306.577L153.782 307.24C154.028 308.982 154.615 310.687 155.486 312.222C156.377 313.756 157.551 315.12 158.953 316.199C160.354 317.298 161.964 318.113 163.65 318.586C164.502 318.833 165.374 318.984 166.264 319.06L166.927 319.098C167.154 319.098 167.382 319.098 167.59 319.098L169.181 319.079L175.64 318.965L188.577 318.738L214.451 318.302C231.687 318.018 248.943 317.696 266.18 317.507L279.116 317.355L292.053 317.241L317.927 317.033L324.386 316.976H325.201H325.599H325.807H325.996C326.243 316.957 326.489 316.976 326.735 316.938C326.981 316.919 327.227 316.9 327.474 316.881C328.459 316.768 329.425 316.559 330.372 316.256C332.266 315.65 334.027 314.684 335.562 313.396C337.096 312.127 338.365 310.536 339.312 308.774C340.259 307.012 340.846 305.061 341.036 303.053C341.055 302.921 341.074 302.807 341.074 302.675L341.093 302.296L341.112 301.917V301.538V301.159V300.761L341.093 299.947L341.017 296.708L340.676 283.77L340.297 270.832L339.88 257.894C339.596 249.276 339.293 240.657 338.933 232.038C337.588 197.562 335.486 163.125 333.952 128.668L333.668 122.209L333.63 121.395V121.186L333.611 121.016L333.592 120.675C333.592 120.447 333.554 120.22 333.516 119.993C333.497 119.765 333.459 119.538 333.402 119.311C333.232 118.402 332.986 117.511 332.664 116.659C332.342 115.806 331.925 114.973 331.432 114.196C330.94 113.42 330.372 112.7 329.747 112.018C329.595 111.847 329.425 111.696 329.273 111.525C329.122 111.355 328.932 111.203 328.762 111.052L328.497 110.825L328.193 110.559L327.568 110.048L325.106 107.964C318.514 102.395 311.961 96.8071 305.407 91.1812L295.614 82.7328L290.728 78.4897L289.515 77.4289L288.966 76.9174L288.663 76.6522L288.398 76.4249C287.678 75.8377 286.92 75.3073 286.087 74.8527C284.458 73.9624 282.64 73.3752 280.783 73.1479C280.31 73.0911 279.855 73.0532 279.382 73.0532C279.154 73.0532 278.908 73.0532 278.681 73.0532C278.567 73.0532 278.416 73.0532 278.283 73.0721L277.885 73.0911L274.646 73.2047L261.709 73.6214L235.854 74.3981L222.918 74.7959L209.981 75.2316L203.522 75.4589L197.063 75.7051C192.763 75.8756 188.444 76.0461 184.145 76.2355C175.526 76.6333 166.908 77.05 158.309 77.5047Z"/>
</mask>
<path d="M158.271 76.9364C166.889 76.5007 175.488 76.0082 184.107 75.4968C188.406 75.2316 192.706 74.9664 197.025 74.6822L203.484 74.2655L209.943 73.8298L222.842 72.9206L235.741 71.9545L261.52 70.0034L274.419 69.0752L277.639 68.8479L278.037 68.829C278.169 68.829 278.302 68.81 278.454 68.81C278.757 68.7911 279.06 68.7722 279.363 68.7722C279.969 68.7722 280.575 68.7911 281.181 68.8479C283.643 69.0563 286.03 69.7382 288.208 70.8558C289.307 71.4052 290.33 72.0682 291.296 72.8259L291.656 73.11L291.978 73.3752L292.603 73.8866L293.853 74.9095L298.815 79.058L308.741 87.3548C315.332 92.9049 321.924 98.493 328.478 104.081L330.94 106.184L331.546 106.714L331.849 106.979L332.19 107.282C332.417 107.491 332.645 107.699 332.872 107.926C333.08 108.154 333.308 108.362 333.516 108.589C335.202 110.408 336.509 112.567 337.361 114.897C337.797 116.053 338.1 117.265 338.308 118.477C338.365 118.78 338.403 119.084 338.441 119.387C338.479 119.69 338.517 119.993 338.517 120.315L338.535 120.769L338.554 120.997V121.205L338.573 122.02L338.725 128.479C339.539 162.973 339.786 197.468 340.808 231.962C341.055 240.581 341.32 249.2 341.642 257.819L342.115 270.737L342.627 283.656L343.176 296.575L343.328 299.814L343.366 300.629L343.384 301.045V301.481V301.917L343.366 302.353L343.347 302.788C343.347 302.94 343.328 303.072 343.309 303.224C343.138 305.516 342.494 307.789 341.471 309.854C339.407 314.002 335.694 317.298 331.281 318.833C330.182 319.211 329.046 319.496 327.89 319.666C327.606 319.704 327.303 319.742 327.019 319.761C326.735 319.799 326.432 319.799 326.148 319.818L325.921 319.836H325.712L325.314 319.855L324.5 319.893L318.041 320.14L292.186 321.125L279.268 321.617L266.331 322.072C249.094 322.678 231.858 323.17 214.621 323.663L188.766 324.421L175.829 324.799L169.37 324.989L167.741 325.027C167.419 325.027 167.116 325.027 166.794 325.027L165.847 324.97C164.578 324.875 163.328 324.648 162.097 324.326C159.653 323.644 157.324 322.488 155.316 320.954C153.308 319.401 151.584 317.469 150.296 315.271C149.008 313.074 148.156 310.63 147.796 308.092L147.683 307.145C147.664 306.823 147.645 306.52 147.626 306.198L147.55 304.569L147.417 301.33C147.057 292.711 146.735 284.092 146.432 275.473C146.11 266.854 145.807 258.235 145.523 249.617C145.239 240.998 144.936 232.379 144.69 223.76C144.159 206.503 143.818 189.247 143.515 172.009C143.231 154.752 143.004 137.515 142.625 120.258L142.474 113.799L142.322 107.339L141.981 94.3825C141.943 92.1662 142.341 89.9688 143.137 87.9041C143.932 85.8583 145.125 83.9451 146.622 82.354C148.118 80.7438 149.937 79.4368 151.925 78.5086C153.914 77.5804 156.074 77.05 158.271 76.9364ZM158.309 77.5047C156.187 77.6183 154.104 78.1487 152.191 79.039C150.259 79.9672 148.516 81.2363 147.095 82.7896C145.675 84.3429 144.538 86.1803 143.8 88.1693C143.08 90.1393 142.739 92.2609 142.815 94.3635C143.004 98.6635 143.231 102.982 143.459 107.282L143.8 113.742L144.159 120.201C145.125 137.42 146.243 154.639 147.304 171.857C148.345 189.076 149.349 206.295 150.183 223.533C150.599 232.151 150.978 240.77 151.357 249.37C151.755 257.989 152.115 266.608 152.475 275.227C152.835 283.846 153.176 292.465 153.498 301.083L153.611 304.323L153.668 305.914C153.687 306.141 153.687 306.349 153.706 306.577L153.782 307.24C154.028 308.982 154.615 310.687 155.486 312.222C156.377 313.756 157.551 315.12 158.953 316.199C160.354 317.298 161.964 318.113 163.65 318.586C164.502 318.833 165.374 318.984 166.264 319.06L166.927 319.098C167.154 319.098 167.382 319.098 167.59 319.098L169.181 319.079L175.64 318.965L188.577 318.738L214.451 318.302C231.687 318.018 248.943 317.696 266.18 317.507L279.116 317.355L292.053 317.241L317.927 317.033L324.386 316.976H325.201H325.599H325.807H325.996C326.243 316.957 326.489 316.976 326.735 316.938C326.981 316.919 327.227 316.9 327.474 316.881C328.459 316.768 329.425 316.559 330.372 316.256C332.266 315.65 334.027 314.684 335.562 313.396C337.096 312.127 338.365 310.536 339.312 308.774C340.259 307.012 340.846 305.061 341.036 303.053C341.055 302.921 341.074 302.807 341.074 302.675L341.093 302.296L341.112 301.917V301.538V301.159V300.761L341.093 299.947L341.017 296.708L340.676 283.77L340.297 270.832L339.88 257.894C339.596 249.276 339.293 240.657 338.933 232.038C337.588 197.562 335.486 163.125 333.952 128.668L333.668 122.209L333.63 121.395V121.186L333.611 121.016L333.592 120.675C333.592 120.447 333.554 120.22 333.516 119.993C333.497 119.765 333.459 119.538 333.402 119.311C333.232 118.402 332.986 117.511 332.664 116.659C332.342 115.806 331.925 114.973 331.432 114.196C330.94 113.42 330.372 112.7 329.747 112.018C329.595 111.847 329.425 111.696 329.273 111.525C329.122 111.355 328.932 111.203 328.762 111.052L328.497 110.825L328.193 110.559L327.568 110.048L325.106 107.964C318.514 102.395 311.961 96.8071 305.407 91.1812L295.614 82.7328L290.728 78.4897L289.515 77.4289L288.966 76.9174L288.663 76.6522L288.398 76.4249C287.678 75.8377 286.92 75.3073 286.087 74.8527C284.458 73.9624 282.64 73.3752 280.783 73.1479C280.31 73.0911 279.855 73.0532 279.382 73.0532C279.154 73.0532 278.908 73.0532 278.681 73.0532C278.567 73.0532 278.416 73.0532 278.283 73.0721L277.885 73.0911L274.646 73.2047L261.709 73.6214L235.854 74.3981L222.918 74.7959L209.981 75.2316L203.522 75.4589L197.063 75.7051C192.763 75.8756 188.444 76.0461 184.145 76.2355C175.526 76.6333 166.908 77.05 158.309 77.5047Z" fill="#001064"/>
<path d="M158.271 76.9364C166.889 76.5007 175.488 76.0082 184.107 75.4968C188.406 75.2316 192.706 74.9664 197.025 74.6822L203.484 74.2655L209.943 73.8298L222.842 72.9206L235.741 71.9545L261.52 70.0034L274.419 69.0752L277.639 68.8479L278.037 68.829C278.169 68.829 278.302 68.81 278.454 68.81C278.757 68.7911 279.06 68.7722 279.363 68.7722C279.969 68.7722 280.575 68.7911 281.181 68.8479C283.643 69.0563 286.03 69.7382 288.208 70.8558C289.307 71.4052 290.33 72.0682 291.296 72.8259L291.656 73.11L291.978 73.3752L292.603 73.8866L293.853 74.9095L298.815 79.058L308.741 87.3548C315.332 92.9049 321.924 98.493 328.478 104.081L330.94 106.184L331.546 106.714L331.849 106.979L332.19 107.282C332.417 107.491 332.645 107.699 332.872 107.926C333.08 108.154 333.308 108.362 333.516 108.589C335.202 110.408 336.509 112.567 337.361 114.897C337.797 116.053 338.1 117.265 338.308 118.477C338.365 118.78 338.403 119.084 338.441 119.387C338.479 119.69 338.517 119.993 338.517 120.315L338.535 120.769L338.554 120.997V121.205L338.573 122.02L338.725 128.479C339.539 162.973 339.786 197.468 340.808 231.962C341.055 240.581 341.32 249.2 341.642 257.819L342.115 270.737L342.627 283.656L343.176 296.575L343.328 299.814L343.366 300.629L343.384 301.045V301.481V301.917L343.366 302.353L343.347 302.788C343.347 302.94 343.328 303.072 343.309 303.224C343.138 305.516 342.494 307.789 341.471 309.854C339.407 314.002 335.694 317.298 331.281 318.833C330.182 319.211 329.046 319.496 327.89 319.666C327.606 319.704 327.303 319.742 327.019 319.761C326.735 319.799 326.432 319.799 326.148 319.818L325.921 319.836H325.712L325.314 319.855L324.5 319.893L318.041 320.14L292.186 321.125L279.268 321.617L266.331 322.072C249.094 322.678 231.858 323.17 214.621 323.663L188.766 324.421L175.829 324.799L169.37 324.989L167.741 325.027C167.419 325.027 167.116 325.027 166.794 325.027L165.847 324.97C164.578 324.875 163.328 324.648 162.097 324.326C159.653 323.644 157.324 322.488 155.316 320.954C153.308 319.401 151.584 317.469 150.296 315.271C149.008 313.074 148.156 310.63 147.796 308.092L147.683 307.145C147.664 306.823 147.645 306.52 147.626 306.198L147.55 304.569L147.417 301.33C147.057 292.711 146.735 284.092 146.432 275.473C146.11 266.854 145.807 258.235 145.523 249.617C145.239 240.998 144.936 232.379 144.69 223.76C144.159 206.503 143.818 189.247 143.515 172.009C143.231 154.752 143.004 137.515 142.625 120.258L142.474 113.799L142.322 107.339L141.981 94.3825C141.943 92.1662 142.341 89.9688 143.137 87.9041C143.932 85.8583 145.125 83.9451 146.622 82.354C148.118 80.7438 149.937 79.4368 151.925 78.5086C153.914 77.5804 156.074 77.05 158.271 76.9364ZM158.309 77.5047C156.187 77.6183 154.104 78.1487 152.191 79.039C150.259 79.9672 148.516 81.2363 147.095 82.7896C145.675 84.3429 144.538 86.1803 143.8 88.1693C143.08 90.1393 142.739 92.2609 142.815 94.3635C143.004 98.6635 143.231 102.982 143.459 107.282L143.8 113.742L144.159 120.201C145.125 137.42 146.243 154.639 147.304 171.857C148.345 189.076 149.349 206.295 150.183 223.533C150.599 232.151 150.978 240.77 151.357 249.37C151.755 257.989 152.115 266.608 152.475 275.227C152.835 283.846 153.176 292.465 153.498 301.083L153.611 304.323L153.668 305.914C153.687 306.141 153.687 306.349 153.706 306.577L153.782 307.24C154.028 308.982 154.615 310.687 155.486 312.222C156.377 313.756 157.551 315.12 158.953 316.199C160.354 317.298 161.964 318.113 163.65 318.586C164.502 318.833 165.374 318.984 166.264 319.06L166.927 319.098C167.154 319.098 167.382 319.098 167.59 319.098L169.181 319.079L175.64 318.965L188.577 318.738L214.451 318.302C231.687 318.018 248.943 317.696 266.18 317.507L279.116 317.355L292.053 317.241L317.927 317.033L324.386 316.976H325.201H325.599H325.807H325.996C326.243 316.957 326.489 316.976 326.735 316.938C326.981 316.919 327.227 316.9 327.474 316.881C328.459 316.768 329.425 316.559 330.372 316.256C332.266 315.65 334.027 314.684 335.562 313.396C337.096 312.127 338.365 310.536 339.312 308.774C340.259 307.012 340.846 305.061 341.036 303.053C341.055 302.921 341.074 302.807 341.074 302.675L341.093 302.296L341.112 301.917V301.538V301.159V300.761L341.093 299.947L341.017 296.708L340.676 283.77L340.297 270.832L339.88 257.894C339.596 249.276 339.293 240.657 338.933 232.038C337.588 197.562 335.486 163.125 333.952 128.668L333.668 122.209L333.63 121.395V121.186L333.611 121.016L333.592 120.675C333.592 120.447 333.554 120.22 333.516 119.993C333.497 119.765 333.459 119.538 333.402 119.311C333.232 118.402 332.986 117.511 332.664 116.659C332.342 115.806 331.925 114.973 331.432 114.196C330.94 113.42 330.372 112.7 329.747 112.018C329.595 111.847 329.425 111.696 329.273 111.525C329.122 111.355 328.932 111.203 328.762 111.052L328.497 110.825L328.193 110.559L327.568 110.048L325.106 107.964C318.514 102.395 311.961 96.8071 305.407 91.1812L295.614 82.7328L290.728 78.4897L289.515 77.4289L288.966 76.9174L288.663 76.6522L288.398 76.4249C287.678 75.8377 286.92 75.3073 286.087 74.8527C284.458 73.9624 282.64 73.3752 280.783 73.1479C280.31 73.0911 279.855 73.0532 279.382 73.0532C279.154 73.0532 278.908 73.0532 278.681 73.0532C278.567 73.0532 278.416 73.0532 278.283 73.0721L277.885 73.0911L274.646 73.2047L261.709 73.6214L235.854 74.3981L222.918 74.7959L209.981 75.2316L203.522 75.4589L197.063 75.7051C192.763 75.8756 188.444 76.0461 184.145 76.2355C175.526 76.6333 166.908 77.05 158.309 77.5047Z" stroke="#001064" stroke-width="2" mask="url(#path-114-outside-1)"/>
<path d="M278.453 70.9512C279.021 72.8454 279.495 74.7397 279.968 76.6339C280.442 78.5282 280.878 80.4414 281.294 82.3546C282.128 86.162 282.885 89.9884 283.605 93.8337L284.117 96.713C284.287 97.6791 284.439 98.6262 284.609 99.5923C284.761 100.558 284.931 101.505 285.083 102.472L285.196 103.191L285.234 103.362L285.272 103.513L285.329 103.816C285.367 104.025 285.405 104.214 285.461 104.423L285.537 104.726C285.556 104.82 285.594 104.915 285.613 105.029C286.484 108.192 288.435 110.996 291.03 112.947C291.674 113.439 292.375 113.875 293.095 114.254C293.815 114.633 294.553 114.955 295.33 115.22C296.864 115.731 298.493 115.978 300.141 115.997L300.766 115.978L301.486 115.94L302.944 115.883C303.91 115.845 304.895 115.807 305.861 115.769L308.778 115.674L311.695 115.561C315.597 115.485 319.48 115.447 323.401 115.523C325.352 115.561 327.303 115.599 329.273 115.693C331.224 115.769 333.194 115.883 335.145 116.034C333.232 116.489 331.3 116.887 329.386 117.266C327.473 117.645 325.541 117.985 323.609 118.307C319.764 118.952 315.9 119.52 312.036 120.012L309.138 120.391L306.24 120.732C305.274 120.846 304.308 120.959 303.342 121.054L301.884 121.206L301.164 121.281L300.33 121.338C298.095 121.452 295.803 121.187 293.644 120.524C292.564 120.183 291.504 119.766 290.5 119.255C289.496 118.743 288.53 118.137 287.621 117.455C284.003 114.727 281.37 110.693 280.404 106.298C280.366 106.165 280.347 106.033 280.309 105.881L280.234 105.464C280.177 105.18 280.139 104.915 280.101 104.631L280.044 104.214L280.025 104.006L280.006 103.816L279.931 103.097C279.836 102.131 279.76 101.165 279.665 100.179C279.59 99.2134 279.495 98.2474 279.419 97.2623L279.192 94.3452C278.908 90.462 278.68 86.5598 278.548 82.6577C278.491 80.7066 278.434 78.7555 278.415 76.7855C278.396 74.8723 278.377 72.9023 278.453 70.9512Z" fill="#001064"/>
<path d="M249.796 157.892C249.23 157.887 248.652 157.731 248.203 157.425C246.855 156.506 246.419 154.689 247.152 153.335C252.413 143.708 261.924 137.593 272.587 136.778C283.392 135.964 294.514 140.593 302.575 149.125C303.667 150.343 303.819 152.158 302.791 153.358C301.749 154.407 300.054 154.393 298.821 153.173C292.146 146.013 282.347 142 273.508 142.68C264.528 143.359 256.367 148.729 251.955 156.701C251.453 157.453 250.643 157.899 249.796 157.892Z" fill="#001064" stroke="#001C63" stroke-width="2"/>
<path d="M232.841 228.557C231.127 228.54 229.38 228.098 227.862 227.235C224.133 225.078 221.277 220.669 220.342 215.573C219.474 211.325 219.925 207.09 220.409 203.28L222.924 177.164C223.524 171.518 224.211 165.307 221.924 159.773C219.436 153.39 212.89 148.944 206.586 149.163C200.426 149.525 195.178 154.701 194.382 161.193C194.243 162.746 192.861 163.58 191.52 163.284C190.048 162.986 189.132 161.423 189.282 160.011C190.281 151.119 197.49 144.126 205.88 143.645C214.27 143.164 223.193 149.329 226.653 157.984C229.449 164.936 228.589 172.275 228.011 178.204L225.354 204.177C224.978 207.706 224.614 211.377 225.282 214.775C225.95 218.173 227.626 221.015 229.837 222.309C230.948 223.027 232.409 223.183 233.693 222.772C234.209 222.636 235.23 222.222 235.666 221.096C236.223 219.83 237.759 219.28 239.134 220C240.377 220.719 241.04 222.422 240.495 223.829C239.61 225.94 237.879 227.336 235.695 228.02C234.674 228.434 233.763 228.566 232.841 228.557Z" fill="#001064" stroke="#001C63" stroke-width="2"/>
<path d="M245.212 260.56C233.135 260.458 220.89 256.62 210.065 249.371C208.709 248.426 208.127 246.554 208.863 245.16C209.599 243.765 211.265 243.313 212.622 244.258C223.589 251.508 236.389 255.195 248.531 254.363C260.672 253.532 272.167 248.338 280.82 239.697C281.866 238.617 283.726 238.788 284.682 240.041C285.78 241.295 285.806 243.318 284.747 244.243C275.306 253.655 262.714 259.307 249.306 260.283C248.054 260.584 246.633 260.572 245.212 260.56Z" fill="#001064" stroke="#001C63" stroke-width="2"/>
<path fill-rule="evenodd" clip-rule="evenodd" d="M267.313 182.975C268.191 183.402 269.143 183.359 270.273 182.918C270.647 182.772 270.803 182.557 271.425 181.441C271.997 180.418 272.478 178.945 272.938 177.353C273.272 176.194 273.414 174.8 273.418 173.204C273.422 171.54 274.377 170.496 275.551 170.871C276.725 171.247 277.672 172.901 277.668 174.565C277.663 176.621 277.483 178.767 276.916 180.728C276.453 182.332 275.826 184.352 274.95 185.922C274.92 185.976 274.889 186.031 274.858 186.087C274.319 187.059 273.602 188.354 272.165 188.915C270.674 189.497 268.845 189.796 266.803 188.802C265.706 188.268 264.436 187.291 263.303 186.113C262.202 184.966 260.958 183.348 260.196 181.384C259.121 178.612 258.464 176.163 257.891 173.353C257.544 171.653 258.172 170.162 259.293 170.023C260.415 169.884 261.605 171.15 261.951 172.851C262.442 175.259 262.961 177.159 263.797 179.313C263.976 179.776 264.451 180.532 265.238 181.352C265.994 182.139 266.785 182.718 267.313 182.975Z" fill="#001064" stroke="#001C63" stroke-width="2" stroke-linecap="round" stroke-linejoin="round"/>
<path fill-rule="evenodd" clip-rule="evenodd" d="M202.928 190.182C201.568 190.185 200.106 189.882 198.815 189.232C194.594 187.104 192.878 182.502 191.85 179.744C191.796 179.598 191.743 179.458 191.693 179.323C191.126 177.818 191.724 176.23 193.028 175.775C194.332 175.32 195.849 176.171 196.416 177.676C197.655 180.967 198.561 183.127 200.482 184.096C200.927 184.32 201.596 184.491 202.319 184.489C203.048 184.487 203.61 184.312 203.931 184.095C204.72 183.562 205.086 183.295 205.405 182.886C205.545 182.706 205.615 182.567 205.676 182.406C205.748 182.213 205.8 182.019 205.905 181.627C205.923 181.56 205.942 181.488 205.964 181.408C206.094 180.924 206.211 180.411 206.274 179.935C206.305 179.701 206.319 179.503 206.319 179.345C206.32 179.267 206.317 179.207 206.313 179.163C206.31 179.118 206.305 179.098 206.305 179.098C205.987 177.535 206.852 176.129 208.238 175.957C209.624 175.786 211.006 176.913 211.324 178.476C211.543 179.548 211.476 180.6 211.372 181.389C211.262 182.218 211.077 182.997 210.916 183.595C210.897 183.665 210.878 183.738 210.858 183.812C210.64 184.644 210.349 185.753 209.469 186.881C208.673 187.902 207.764 188.515 207.047 188.998C207.022 189.015 206.998 189.032 206.973 189.048C205.755 189.871 204.283 190.179 202.928 190.182Z" fill="#001064" stroke="#001C63" stroke-width="2" stroke-linecap="round" stroke-linejoin="round"/>
<circle cx="150.055" cy="85.0549" r="38.0549" fill="#001064"/>
<path d="M162.935 75.1019H160.886V71.0037C160.886 65.3481 156.296 60.7581 150.64 60.7581C144.985 60.7581 140.395 65.3481 140.395 71.0037V75.1019H138.346C136.092 75.1019 134.247 76.9461 134.247 79.2001V99.6912C134.247 101.945 136.092 103.789 138.346 103.789H162.935C165.189 103.789 167.033 101.945 167.033 99.6912V79.2001C167.033 76.9461 165.189 75.1019 162.935 75.1019ZM150.64 93.5439C148.386 93.5439 146.542 91.6997 146.542 89.4457C146.542 87.1917 148.386 85.3475 150.64 85.3475C152.894 85.3475 154.738 87.1917 154.738 89.4457C154.738 91.6997 152.894 93.5439 150.64 93.5439ZM156.992 75.1019H144.288V71.0037C144.288 67.4997 147.136 64.6514 150.64 64.6514C154.144 64.6514 156.992 67.4997 156.992 71.0037V75.1019Z" fill="white"/>
</svg>
