<svg width="222" height="200" viewBox="0 0 222 200" fill="none" xmlns="http://www.w3.org/2000/svg">
<rect width="68.0537" height="13.7791" transform="matrix(0.999302 -0.0373485 0.0643008 0.997931 82.4062 67.0303)" fill="white"/>
<rect width="68.0537" height="13.7791" transform="matrix(0.999302 -0.0373484 0.0643009 0.997931 84.8156 105.064)" fill="white"/>
<rect width="68.0537" height="13.7791" transform="matrix(0.999302 -0.0373484 0.0643009 0.997931 84.8156 125.59)" fill="white"/>
<rect width="36.3399" height="13.7791" transform="matrix(0.999302 -0.0373484 0.064301 0.997931 85.0422 84.8677)" fill="white"/>
<rect width="24.8878" height="13.7791" transform="matrix(0.999302 -0.0373484 0.064301 0.997931 127.598 83.5293)" fill="white"/>
<path d="M147.94 160.916L144.617 169.601C143.608 168.412 142.718 168.352 141.353 168.293C142.896 165.08 143.846 162.998 144.676 159.607C146.16 159.607 146.872 160.024 147.94 160.916Z" fill="#D3EDFF"/>
<path d="M200.755 94.4678L194.287 97.9181C194.287 96.6689 193.812 96.193 193.041 95.4791C195.592 94.3488 197.254 93.635 199.509 92.0288C200.399 92.7427 200.577 93.397 200.755 94.4678Z" fill="#D3E1FF"/>
<path d="M67.8883 144.736C70.084 144.855 72.2203 144.141 74.1786 142.594C73.1104 142.059 72.9917 140.691 73.4071 139.679C71.8049 140.869 70.084 141.642 67.0575 142.059C66.7014 142.059 67.1168 143.367 67.4729 144.081C67.5916 144.26 67.7696 144.498 67.8883 144.736Z" fill="#D3E1FF"/>
<path d="M57.5031 118.918C58.9867 118.62 60.4702 119.572 60.767 121.059C61.0637 122.546 60.1142 124.034 58.6306 124.331C57.1471 124.629 55.6635 123.677 55.3668 122.19C55.0701 120.702 56.0196 119.215 57.5031 118.918Z" fill="#D3EDFF"/>
<path d="M37.4453 132.778C38.1574 132.005 39.4036 132.005 40.175 132.719C40.9465 133.432 40.9465 134.682 40.2344 135.455C39.5223 136.228 38.2761 136.228 37.5046 135.515C36.7332 134.741 36.6738 133.551 37.4453 132.778Z" fill="#DED3FF"/>
<path d="M33.5874 40.2141L42.6668 36.4663C42.4888 38.132 43.0822 38.8459 44.0317 39.9166C40.4711 41.0469 38.1568 41.8203 34.9523 43.6644C33.8248 42.5341 33.7061 41.6418 33.5874 40.2141Z" fill="#DED3FF"/>
<path d="M97.4411 193.814C98.2719 195.241 99.9928 194.944 101.298 195.539C101.239 194.29 101.595 192.802 102.545 191.97C101.18 192.029 100.112 190.958 99.5774 189.709C98.1532 191.613 97.6191 192.445 97.4411 193.814Z" fill="#BAF0DF"/>
<path d="M31.0956 96.1332C31.4517 97.085 30.9176 98.0963 30.0274 98.3937C29.078 98.7507 28.0691 98.2153 27.7724 97.3229C27.4164 96.3711 27.9505 95.3598 28.8406 95.0624C29.7901 94.7054 30.7989 95.1813 31.0956 96.1332Z" fill="#D3EDFF"/>
<path d="M161.473 92.3856L169.603 87.3291C169.721 88.9353 170.374 89.5302 171.442 90.4225C168.238 92.0882 166.101 93.2185 163.312 95.479C162.066 94.5272 161.769 93.7538 161.473 92.3856Z" fill="#D3E1FF"/>
<path d="M165.447 74.0631C166.16 73.6467 167.109 73.9441 167.465 74.7175C167.88 75.4313 167.584 76.3831 166.812 76.7401C166.1 77.1565 165.151 76.859 164.795 76.0857C164.439 75.3718 164.735 74.4795 165.447 74.0631Z" fill="#D3EDFF"/>
<path d="M185.566 140.095L189.72 148.9C188.058 148.781 187.405 149.435 186.397 150.387C185.091 146.936 184.201 144.676 182.243 141.582C183.251 140.452 184.142 140.274 185.566 140.095Z" fill="#FFE9BE"/>
<path d="M76.6716 73.1117L72.6956 78.3467C72.2209 77.3354 71.6275 77.1569 70.7373 76.8595C72.3989 75.0154 73.4671 73.7661 74.7133 71.6245C75.7221 71.8625 76.1375 72.3384 76.6716 73.1117Z" fill="#D3EDFF"/>
<path d="M175.416 182.213L169.66 173.766C171.381 173.587 171.915 172.814 172.864 171.624C174.763 175.015 176.069 177.156 178.621 180.071C177.73 181.499 176.84 181.856 175.416 182.213Z" fill="#FFD9D1"/>
<path d="M62.7253 103.51C62.4286 104.283 61.5385 104.64 60.767 104.283C59.9956 103.986 59.6395 103.093 59.9956 102.32C60.2923 101.547 61.1824 101.19 61.9539 101.547C62.7253 101.904 63.0814 102.796 62.7253 103.51Z" fill="#DED3FF"/>
<path d="M208.65 94.8244C209.896 94.8244 210.43 93.5752 211.261 92.9208C210.371 92.4449 209.54 91.6715 209.362 90.7197C208.887 91.6715 207.76 91.969 206.691 91.85C207.463 93.6347 207.819 94.2295 208.65 94.8244Z" fill="#FFD9D1"/>
<path d="M38.6914 119.393C36.8518 118.858 35.6056 120.524 34.1221 121.059C35.1902 122.07 36.0804 123.557 35.9023 125.045C37.0298 123.914 38.7508 123.914 40.175 124.509C39.8783 121.832 39.6409 120.643 38.6914 119.393Z" fill="#BAF0DF"/>
<path d="M181.588 8.03094L176.129 2.02261C177.434 1.66567 177.79 1.0113 178.384 0C180.283 2.43903 181.529 3.98572 183.843 6.00833C183.309 7.1981 182.657 7.55503 181.588 8.03094Z" fill="#D3E1FF"/>
<path d="M93.3458 178.822C94.5327 178.643 94.8294 177.394 95.5415 176.74C94.6513 176.442 93.7612 175.788 93.5238 174.955C93.1678 175.907 92.2183 176.323 91.2095 176.323C92.0996 177.692 92.515 178.346 93.3458 178.822Z" fill="#D3EDFF"/>
<path d="M169.364 128.079H163.489C163.963 127.187 163.785 126.651 163.489 125.878C165.744 126.056 167.168 126.175 169.364 125.878C169.779 126.77 169.66 127.306 169.364 128.079Z" fill="#D3E1FF"/>
<path d="M183.784 127.246C183.843 128.198 183.131 129.09 182.181 129.15C181.232 129.209 180.342 128.495 180.283 127.543C180.223 126.592 180.935 125.699 181.885 125.64C182.834 125.58 183.665 126.294 183.784 127.246Z" fill="#D3EDFF"/>
<path d="M138.447 28.0191C138.269 29.2089 139.397 29.9227 139.871 30.8746C140.465 30.1012 141.355 29.3874 142.304 29.3874C141.474 28.733 141.355 27.6622 141.652 26.6509C139.931 27.0673 139.219 27.3053 138.447 28.0191Z" fill="#BAF0DF"/>
<path d="M133.403 184.176C132.276 185.544 133.225 187.21 133.106 188.697C134.353 188.162 135.955 187.924 137.142 188.638C136.548 187.27 137.201 185.842 138.269 184.831C135.717 183.998 134.709 183.819 133.403 184.176Z" fill="#DED3FF"/>
<path d="M65.456 55.0263C66.7616 56.573 68.6012 57.6438 70.8562 57.9413C70.5001 56.8705 71.3903 55.9186 72.3397 55.5617C70.5001 55.2048 68.8979 54.5504 66.7022 52.7658C66.4648 52.5278 65.8714 53.5986 65.6341 54.3125C65.5154 54.4909 65.456 54.7289 65.456 55.0263Z" fill="#D3E1FF"/>
<path d="M79.5197 41.8205C79.8757 43.5457 81.7747 43.9026 82.8429 44.9734C83.2583 43.6647 84.089 42.2369 85.3946 41.761C83.9704 41.3446 83.2583 39.8574 83.1396 38.4297C80.8252 39.9169 80.1131 40.5713 79.5197 41.8205Z" fill="#FFD9D1"/>
<path d="M119.338 166.924C120.525 166.211 122.068 166.567 122.78 167.757C123.492 168.947 123.136 170.494 121.949 171.208C120.762 171.921 119.219 171.564 118.507 170.375C117.795 169.185 118.151 167.638 119.338 166.924Z" fill="#D3EDFF"/>
<path d="M0.416214 133.492L5.51966 127.96C5.93505 129.15 6.58782 129.447 7.59664 129.923C5.51966 131.886 4.15478 133.195 2.4932 135.455C1.36569 134.979 0.950295 134.444 0.416214 133.492Z" fill="#D3E1FF"/>
<path d="M56.5545 80.7851C55.3083 81.2015 54.0028 80.5471 53.5281 79.3574C53.1127 78.1081 53.7654 76.7994 54.9523 76.3235C56.1985 75.907 57.504 76.5614 57.9787 77.7512C58.3941 79.0004 57.7414 80.3687 56.5545 80.7851Z" fill="#DED3FF"/>
<path d="M85.3948 148.483C82.5464 149.673 80.1727 151.815 78.6298 154.968C80.3507 154.968 81.2409 156.693 81.3595 158.299C82.7244 155.8 84.5047 153.778 88.0652 151.398C88.54 151.16 87.2344 149.792 86.3443 149.078C86.0476 148.9 85.7509 148.721 85.3948 148.483Z" fill="#D3E1FF"/>
<path d="M127.29 6.66309L132.986 10.6488C131.918 11.1842 131.74 11.7791 131.444 12.7904C129.426 11.1247 128.061 9.99444 125.747 8.80467C126.043 7.67439 126.459 7.25797 127.29 6.66309Z" fill="#D3E1FF"/>
<path d="M25.697 126.711L16.855 132.541C16.7363 130.756 15.9055 130.161 14.7186 129.15C18.2792 127.246 20.5342 125.937 23.5606 123.32C24.9849 124.272 25.3409 125.164 25.697 126.711Z" fill="#DED3FF"/>
<path d="M160.107 162.285L161.235 169.304C160.107 168.888 159.514 169.245 158.623 169.721C158.386 167.044 158.267 165.259 157.496 162.701C158.445 162.106 159.098 162.106 160.107 162.285Z" fill="#FFD9D1"/>
<path d="M13.7093 83.4628L12.4038 73.1713C14.006 73.8257 14.8961 73.4093 16.261 72.7549C16.439 76.6811 16.5577 79.2391 17.5666 83.0464C16.083 83.8792 15.1929 83.8197 13.7093 83.4628Z" fill="#D3E1FF"/>
<path d="M185.92 62.6413C184.615 60.3808 181.766 60.8567 179.749 59.9644C179.867 61.987 179.333 64.3665 177.85 65.6752C180.045 65.5563 181.766 67.2219 182.656 69.1851C185.03 65.9727 185.742 64.6639 185.92 62.6413Z" fill="#D3E1FF"/>
<path d="M80.9435 178.287C81.4775 177.156 80.5874 176.205 80.4094 175.134C79.6379 175.669 78.5698 176.086 77.6796 175.848C78.2731 176.68 78.095 177.811 77.5016 178.644C79.4599 178.822 80.1127 178.763 80.9435 178.287Z" fill="#DED3FF"/>
<path d="M60.6491 136.11L54.5962 138.846C54.6555 137.716 54.2401 137.24 53.5874 136.526C55.9611 135.693 57.504 135.098 59.6403 133.79C60.4117 134.563 60.5898 135.158 60.6491 136.11Z" fill="#D3E1FF"/>
<path d="M183.013 28.971C182.301 30.2203 183.25 31.4696 183.428 32.7188C184.378 32.1239 185.683 31.7075 186.692 32.0644C186.039 30.9936 186.336 29.7444 187.048 28.7331C185.03 28.4951 184.14 28.4356 183.013 28.971Z" fill="#D3EDFF"/>
<path d="M91.9819 136.585C92.6347 134.979 92.694 133.194 92.0412 131.291C91.3885 131.945 90.3203 131.648 89.6675 131.112C90.1423 132.659 90.261 134.146 89.7862 136.526C89.7269 136.823 90.7357 136.823 91.3885 136.764C91.5072 136.704 91.7445 136.645 91.9819 136.585Z" fill="#FFD9D1"/>
<path d="M101.001 140.631L99.6955 135.336C100.586 135.574 101.001 135.277 101.654 134.86C102.01 136.883 102.247 138.251 102.959 140.155C102.247 140.69 101.773 140.69 101.001 140.631Z" fill="#FFE9BE"/>
<path d="M30.7999 159.132C30.2065 160.857 31.6901 162.166 32.1648 163.653C33.1736 162.701 34.7165 161.868 36.0814 162.106C35.0133 160.976 35.1319 159.31 35.7847 157.942C32.9956 158.12 31.9868 158.299 30.7999 159.132Z" fill="#DED3FF"/>
<path d="M44.9226 74.658L41.8962 80.7258C41.2434 79.774 40.5907 79.7145 39.6412 79.5361C41.006 77.335 41.8368 75.9073 42.6676 73.4683C43.7358 73.5872 44.2105 73.9442 44.9226 74.658Z" fill="#DED3FF"/>
<path d="M34.3599 141.88C32.817 139.322 30.3839 137.299 27.1795 136.288C27.4168 137.954 25.8739 139.084 24.3904 139.381C26.9421 140.333 29.1378 141.761 31.9268 144.854C32.2236 145.271 33.3511 143.843 33.8851 142.891C34.0632 142.594 34.1819 142.237 34.3599 141.88Z" fill="#D3E1FF"/>
<path d="M135.124 38.0727C133.937 37.1209 132.394 36.526 130.614 36.645C131.029 37.4183 130.495 38.2512 129.842 38.6676C131.267 38.6676 132.572 38.965 134.53 39.9763C134.768 40.0953 135.064 39.203 135.124 38.6676C135.124 38.4891 135.124 38.2512 135.124 38.0727Z" fill="#FFD9D1"/>
<path d="M183.012 92.3855C183.427 93.5157 184.733 93.5157 185.563 94.0511C185.682 93.1588 186.097 92.088 186.869 91.6716C185.86 91.5526 185.207 90.7198 184.97 89.7085C183.783 90.8388 183.249 91.4337 183.012 92.3855Z" fill="#D3EDFF"/>
<path d="M33.767 70.7912L27.6547 77.4539C27.18 76.0262 26.4085 75.6693 25.1623 75.1339C27.6547 72.8138 29.3163 71.2671 31.2746 68.4712C32.6395 68.9471 33.1735 69.6015 33.767 70.7912Z" fill="#D3E1FF"/>
<path d="M22.6688 56.4546C24.6865 57.7634 26.8228 56.1572 28.8404 56.0382C27.891 54.432 27.2975 52.2904 28.0096 50.5653C26.2294 51.5766 24.1524 50.9817 22.6095 49.7324C22.0161 53.3612 21.9567 54.7295 22.6688 56.4546Z" fill="#D3E1FF"/>
<path d="M158.207 147.829C157.555 146.52 158.089 144.974 159.394 144.319C160.7 143.665 162.243 144.2 162.895 145.509C163.548 146.818 163.014 148.365 161.709 149.019C160.403 149.673 158.86 149.078 158.207 147.829Z" fill="#D3E1FF"/>
<path d="M48.6611 112.017L53.3492 113.444C52.7558 114.039 52.7558 114.515 52.8151 115.229C51.0942 114.515 49.9073 114.099 48.1271 113.801C48.0084 113.028 48.2457 112.611 48.6611 112.017Z" fill="#BAF0DF"/>
<path d="M207.818 58.3583C206.394 56.7521 204.436 55.7408 202.003 55.4434C202.418 56.5736 201.528 57.5849 200.519 58.0014C202.478 58.2988 204.198 58.9532 206.572 60.7378C206.81 60.9758 207.403 59.786 207.7 59.0721C207.7 58.8937 207.759 58.6557 207.818 58.3583Z" fill="#FFD9D1"/>
<path d="M49.7889 179.179C47.7713 179.953 45.991 181.38 44.8635 183.581C46.0503 183.641 46.7031 184.89 46.7031 185.961C47.7119 184.236 49.0175 182.867 51.6285 181.261C51.9252 181.083 51.0944 180.131 50.501 179.596C50.2637 179.477 50.0263 179.358 49.7889 179.179Z" fill="#FFD9D1"/>
<path d="M182.181 74.5391C180.995 75.4909 180.223 76.9186 179.986 78.6438C180.816 78.4058 181.469 79.0602 181.766 79.774C182.063 78.4058 182.537 77.1566 183.902 75.4909C184.08 75.3124 183.25 74.8365 182.775 74.658C182.597 74.658 182.419 74.5986 182.181 74.5391Z" fill="#FFD9D1"/>
<path d="M122.305 41.4636C122.602 39.2625 122.127 37.0019 120.762 34.8604C120.11 35.9311 118.745 35.8717 117.736 35.3363C118.745 37.1209 119.397 38.9056 119.516 41.999C119.516 42.3559 120.822 42.0584 121.593 41.761C121.83 41.761 122.068 41.642 122.305 41.4636Z" fill="#D3E1FF"/>
<path d="M60.7671 91.4337C61.3011 92.0881 61.2418 93.0399 60.6484 93.5753C59.9956 94.1107 59.0461 94.0512 58.512 93.4564C57.978 92.802 58.0373 91.8502 58.6307 91.3148C59.2241 90.7794 60.233 90.8389 60.7671 91.4337Z" fill="#D3E1FF"/>
<path d="M154.469 47.7692C155.122 50.1488 157.792 50.4462 159.454 51.755C159.869 49.9108 160.878 47.8287 162.599 46.9959C160.581 46.52 159.394 44.6164 159.098 42.5938C156.309 44.7948 155.181 45.8656 154.469 47.7692Z" fill="#BAF0DF"/>
<path d="M72.5183 115.408C70.9754 116.24 69.1358 115.646 68.305 114.099C67.4742 112.552 68.0676 110.708 69.6105 109.875C71.1534 109.042 72.993 109.637 73.8238 111.184C74.5953 112.731 74.0018 114.634 72.5183 115.408Z" fill="#FFD9D1"/>
<path d="M160.047 88.3405L156.843 83.284C157.852 83.2245 158.208 82.7486 158.742 82.0942C159.81 84.1168 160.522 85.4256 161.946 87.1508C161.412 87.9241 160.878 88.1026 160.047 88.3405Z" fill="#FFD9D1"/>
<path d="M96.1947 146.877C95.7793 148.602 94.0583 149.732 92.2781 149.316C90.5571 148.9 89.4296 147.174 89.845 145.39C90.2604 143.665 91.9813 142.534 93.7616 142.951C95.5419 143.367 96.6101 145.092 96.1947 146.877Z" fill="#FFE9BE"/>
<path d="M169.778 156.633C168.591 156.752 168.235 157.942 167.464 158.655C168.294 159.012 169.184 159.667 169.422 160.559C169.837 159.607 170.787 159.25 171.796 159.31C170.905 157.644 170.549 157.109 169.778 156.633Z" fill="#FFD9D1"/>
<path d="M20.058 108.15C21.6009 108.745 22.3724 110.411 21.8383 112.017C21.2449 113.564 19.5833 114.337 17.981 113.802C16.4381 113.207 15.6667 111.541 16.2008 109.935C16.7942 108.388 18.5151 107.615 20.058 108.15Z" fill="#D3EDFF"/>
<path d="M88.6576 9.28083C88.5389 10.5301 89.8444 11.125 90.3785 12.0768C90.9126 11.2439 91.7434 10.4111 92.7522 10.2921C91.8621 9.69725 91.5653 8.56697 91.8027 7.55566C90.0818 8.15055 89.3103 8.44799 88.6576 9.28083Z" fill="#BAF0DF"/>
<path d="M88.6588 25.3423C87.2939 25.4018 86.8192 26.77 85.8697 27.4839C86.8192 27.9598 87.7687 28.7926 88.006 29.8039C88.5401 28.7926 89.6676 28.3762 90.7951 28.4952C89.9643 26.77 89.5489 25.9967 88.6588 25.3423Z" fill="#D3E1FF"/>
<path d="M132.157 159.548C132.691 160.857 134.174 160.797 135.183 161.452C135.302 160.381 135.717 159.191 136.667 158.596C135.48 158.477 134.768 157.466 134.412 156.395C132.869 157.882 132.394 158.537 132.157 159.548Z" fill="#FFE9BE"/>
<path d="M204.673 169.304C206.453 168.828 208.056 167.698 209.242 165.913C208.234 165.794 207.759 164.664 207.818 163.712C206.809 165.08 205.623 166.21 203.249 167.341C202.952 167.46 203.605 168.352 204.08 168.887C204.258 169.006 204.436 169.185 204.673 169.304Z" fill="#FFE9BE"/>
<path d="M190.193 115.586L185.92 119.75C185.623 118.799 185.149 118.501 184.377 118.144C186.098 116.716 187.226 115.705 188.65 113.98C189.54 114.337 189.837 114.753 190.193 115.586Z" fill="#D3E1FF"/>
<path d="M73.9411 66.0918C73.8818 63.8313 71.5081 62.9984 70.3212 61.5112C69.5498 63.1174 68.1849 64.7236 66.5233 65.0805C68.2442 65.9134 68.897 67.8765 68.719 69.7206C71.9235 68.2334 72.9916 67.5196 73.9411 66.0918Z" fill="#D3E1FF"/>
<path d="M222 115.229C220.932 113.623 218.914 114.039 217.371 113.504C217.549 114.991 217.252 116.776 216.184 117.728C217.787 117.549 219.092 118.679 219.804 120.107C221.466 117.728 221.941 116.716 222 115.229Z" fill="#D3E1FF"/>
<path d="M72.9916 33.7305L78.6885 34.6228C78.0951 35.3961 78.2138 35.9315 78.3324 36.7644C76.1961 36.229 74.8313 35.9315 72.6356 35.8721C72.3982 34.9797 72.5762 34.5038 72.9916 33.7305Z" fill="#FFE9BE"/>
<path d="M48.1269 25.7589C50.2039 25.9969 52.3402 25.521 54.2985 24.0932C53.2897 23.4984 53.2897 22.1896 53.7644 21.2378C52.1028 22.2491 50.4412 22.9035 47.4741 23.1414C47.1181 23.1414 47.4148 24.3907 47.7115 25.1045C47.8302 25.283 48.0082 25.521 48.1269 25.7589Z" fill="#D3E1FF"/>
<path d="M183.012 105.771C185.445 108.091 188.708 109.519 192.566 109.638C191.794 107.912 193.1 106.247 194.643 105.414C191.557 105.116 188.768 104.343 184.792 101.785C184.376 101.428 183.546 103.332 183.249 104.522C183.071 104.938 183.071 105.354 183.012 105.771Z" fill="#FFE9BE"/>
<path d="M209.849 106.864C209.914 105.848 209.146 104.971 208.132 104.905C207.118 104.84 206.243 105.61 206.177 106.627C206.112 107.643 206.88 108.52 207.894 108.586C208.908 108.651 209.783 107.88 209.849 106.864Z" fill="#D3EDFF"/>
<path d="M63.2016 24.4501C64.8038 23.9742 66.4654 24.807 66.9995 26.4132C67.4742 28.0194 66.6434 29.6851 65.0412 30.2205C63.439 30.6964 61.7774 29.8635 61.2433 28.2574C60.7092 26.6512 61.5993 24.926 63.2016 24.4501Z" fill="#D3EDFF"/>
<path d="M194.406 13.3848C195.118 12.9089 196.068 13.1468 196.542 13.8607C197.017 14.5746 196.78 15.5264 196.068 16.0023C195.356 16.4782 194.406 16.2402 193.931 15.5264C193.516 14.753 193.694 13.8012 194.406 13.3848Z" fill="#BAF0DF"/>
<path d="M195.476 74.3006C195.535 73.4678 196.247 72.8134 197.137 72.8729C197.968 72.9324 198.621 73.6462 198.561 74.5386C198.502 75.3714 197.79 76.0258 196.9 75.9663C196.069 75.9068 195.416 75.1335 195.476 74.3006Z" fill="#D3EDFF"/>
<path d="M71.0932 198.691C70.2624 198.632 69.6096 197.918 69.6689 197.085C69.7283 196.252 70.4404 195.598 71.2712 195.658C72.102 195.717 72.7547 196.431 72.6954 197.264C72.6361 198.097 71.9239 198.751 71.0932 198.691Z" fill="#D3EDFF"/>
<path d="M158.682 30.8149C159.632 32.3616 161.115 33.5514 163.073 34.2057C162.955 33.1944 163.845 32.4806 164.735 32.3021C163.192 31.7072 161.827 30.8744 160.106 29.0302C159.928 28.7923 159.216 29.6846 158.919 30.22C158.86 30.339 158.801 30.5769 158.682 30.8149Z" fill="#DED3FF"/>
<path d="M181.231 193.457C181.528 194.408 180.994 195.42 180.044 195.717C179.095 196.015 178.086 195.479 177.789 194.527C177.493 193.576 178.027 192.564 178.976 192.267C179.926 191.969 180.935 192.505 181.231 193.457Z" fill="#BAF0DF"/>
<path d="M80.3502 129.744C79.0446 129.685 78.4512 131.053 77.5611 131.648C78.4512 132.124 79.3413 133.016 79.46 134.027C79.9941 133.075 81.181 132.778 82.2491 132.897C81.537 131.172 81.181 130.398 80.3502 129.744Z" fill="#BAF0DF"/>
<path d="M14.0653 158.477C16.617 158.061 18.9907 156.752 20.8897 154.492C19.5248 154.135 19.05 152.528 19.2874 151.22C17.6852 152.945 15.8456 154.254 12.463 155.503C12.0476 155.622 12.8191 156.99 13.4125 157.704C13.5905 158.001 13.8279 158.239 14.0653 158.477Z" fill="#DED3FF"/>
<path d="M43.8547 100.774C44.6855 98.632 42.8459 97.0258 42.3118 95.1816C41.0062 96.3714 39.1073 97.2637 37.4457 96.9663C38.6919 98.394 38.5139 100.417 37.6831 102.082C41.1249 101.963 42.3711 101.725 43.8547 100.774Z" fill="#FFE9BE"/>
<path d="M72.8738 123.498C71.0342 121.773 68.5418 122.963 66.4648 122.666C67.1176 124.51 67.2956 126.889 66.2275 128.495C68.2451 127.782 70.2628 128.852 71.6276 130.459C72.8145 127.068 73.2299 125.521 72.8738 123.498Z" fill="#D3EDFF"/>
<path d="M209.065 37.4782C208.412 35.8125 206.453 35.872 205.148 35.0986C205.029 36.4669 204.436 38.0136 203.308 38.7274C204.792 38.8464 205.801 40.1552 206.216 41.5829C208.115 39.5603 208.768 38.7869 209.065 37.4782Z" fill="#FFD9D1"/>
<path d="M215.711 71.9216C215.592 70.9698 216.304 70.1369 217.254 70.0774C218.203 69.9584 219.034 70.6723 219.093 71.6241C219.212 72.5759 218.5 73.4088 217.55 73.4683C216.601 73.5872 215.77 72.8734 215.711 71.9216Z" fill="#D3EDFF"/>
<path d="M217.432 132.422C216.839 133.552 217.729 134.563 217.848 135.634C218.678 135.099 219.747 134.742 220.696 135.039C220.103 134.147 220.34 133.016 220.993 132.184C219.035 131.946 218.322 132.005 217.432 132.422Z" fill="#D3E1FF"/>
<path d="M61.4208 175.669C62.845 176.681 63.1417 178.703 62.0736 180.131C61.0648 181.559 59.0471 181.856 57.6229 180.785C56.1987 179.774 55.902 177.752 56.9701 176.324C58.0383 174.896 60.0559 174.599 61.4208 175.669Z" fill="#D3E1FF"/>
<path d="M168.889 58.8935L164.26 62.1654C164.141 61.2136 163.726 60.9161 163.073 60.3808C164.913 59.2505 166.159 58.5366 167.702 57.1089C168.473 57.6443 168.651 58.1202 168.889 58.8935Z" fill="#D3E1FF"/>
<path d="M0 90.3035C1.48356 92.802 3.79791 94.8246 7.0024 95.8359C6.82437 94.2297 8.30793 93.0994 9.73215 92.802C7.23977 91.7907 5.10344 90.4225 2.43304 87.3291C2.13632 86.9126 1.00882 88.3404 0.474739 89.2327C0.296711 89.5896 0.178027 89.8871 0 90.3035Z" fill="#FFD9D1"/>
<path d="M156.901 18.5007L163.31 17.9653C162.895 18.9766 163.132 19.512 163.488 20.4044C161.055 20.4044 159.453 20.4638 157.079 20.9398C156.605 19.9879 156.664 19.3931 156.901 18.5007Z" fill="#D3E1FF"/>
<path d="M57.0877 48.3641C57.6217 46.52 57.4437 44.5569 56.4942 42.5938C55.8415 43.4266 54.6546 43.2481 53.8832 42.7127C54.5953 44.3784 54.892 45.9846 54.6546 48.6021C54.5953 48.8995 55.7228 48.7805 56.4349 48.6616C56.6129 48.5426 56.8503 48.4236 57.0877 48.3641Z" fill="#BAF0DF"/>
<path d="M190.906 176.026C192.923 173.349 193.932 170.018 193.636 166.211C192.033 167.163 190.194 166.032 189.244 164.664C189.304 167.757 188.829 170.613 186.752 174.777C186.455 175.253 188.413 175.848 189.6 176.026C190.016 176.026 190.431 176.026 190.906 176.026Z" fill="#D3E1FF"/>
<path d="M142.185 48.245C141.413 49.6132 141.117 51.2194 141.413 52.9445C142.125 52.4091 143.016 52.8256 143.55 53.4204C143.372 51.9927 143.431 50.6245 144.143 48.5424C144.262 48.3044 143.312 48.126 142.719 48.126C142.6 48.245 142.422 48.245 142.185 48.245Z" fill="#FFE9BE"/>
<path d="M197.195 127.424C195.236 126.294 193.278 127.84 191.379 128.078C192.329 129.566 192.981 131.588 192.388 133.254C194.05 132.242 196.008 132.718 197.551 133.849C197.966 130.339 197.907 129.03 197.195 127.424Z" fill="#D3E1FF"/>
<path d="M113.82 150.922C114.888 154.016 117.083 156.633 120.288 158.418C120.407 156.633 122.246 155.741 123.908 155.681C121.356 154.075 119.338 152.172 117.024 148.245C116.787 147.769 115.303 149.019 114.532 149.911C114.294 150.208 114.057 150.565 113.82 150.922Z" fill="#D3EDFF"/>
<path d="M58.5119 155.086C58.7493 157.525 59.8768 159.845 61.9538 161.749C62.3692 160.44 63.8527 160.143 65.0989 160.381C63.556 158.775 62.3692 156.931 61.3604 153.659C61.301 153.242 59.9361 153.956 59.224 154.432C58.9867 154.67 58.7493 154.848 58.5119 155.086Z" fill="#D3EDFF"/>
<path d="M32.8165 110.291C33.2319 109.458 34.1814 109.161 35.0121 109.518C35.8429 109.934 36.1397 110.886 35.7836 111.719C35.3682 112.552 34.4187 112.849 33.5879 112.492C32.7571 112.076 32.4604 111.124 32.8165 110.291Z" fill="#FFE9BE"/>
<path d="M48.068 156.93L42.9053 157.168C43.2613 156.395 43.0833 155.919 42.8459 155.205C44.8042 155.265 46.1097 155.324 48.0087 154.967C48.3648 155.741 48.2461 156.217 48.068 156.93Z" fill="#FFD9D1"/>
<path d="M172.152 142.058C173.042 141.821 173.873 142.356 174.11 143.248C174.347 144.141 173.813 144.973 172.923 145.211C172.033 145.449 171.202 144.914 170.965 144.022C170.728 143.129 171.262 142.296 172.152 142.058Z" fill="#D3EDFF"/>
<path d="M111.801 25.6398C114.828 24.5095 117.439 22.3085 119.219 19.0366C117.439 18.9771 116.489 17.133 116.43 15.4673C114.887 18.0253 112.988 20.1074 109.072 22.4869C108.597 22.7249 109.902 24.2121 110.792 24.9854C111.089 25.2234 111.445 25.4019 111.801 25.6398Z" fill="#D3E1FF"/>
<path d="M75.365 92.326C76.6705 90.3034 75.187 88.2213 75.0683 86.1987C73.466 87.0911 71.3297 87.6265 69.6088 86.9126C70.5583 88.6972 69.9055 90.7199 68.6593 92.2666C72.3385 92.9209 73.6441 92.9804 75.365 92.326Z" fill="#FFD9D1"/>
<path d="M106.995 165.973C105.512 167.281 104.444 169.066 104.147 171.327C105.215 170.97 106.105 171.862 106.521 172.814C106.877 171.029 107.529 169.423 109.25 167.222C109.488 166.984 108.42 166.389 107.767 166.151C107.47 166.032 107.233 166.032 106.995 165.973Z" fill="#DED3FF"/>
<path d="M102.188 158.299C100.704 159.013 98.8647 158.358 98.1526 156.871C97.4405 155.384 98.0932 153.54 99.5768 152.826C101.06 152.112 102.9 152.766 103.612 154.254C104.324 155.8 103.671 157.585 102.188 158.299Z" fill="#DED3FF"/>
<path d="M72.5171 161.274C73.7633 162.047 74.1194 163.653 73.3479 164.843C72.5765 166.092 70.9742 166.449 69.7874 165.676C68.5412 164.902 68.1851 163.296 68.9566 162.106C69.728 160.917 71.3303 160.5 72.5171 161.274Z" fill="#D3EDFF"/>
<path d="M123.848 194.289V200C123.017 199.524 122.483 199.703 121.712 200C121.89 197.799 121.949 196.431 121.712 194.289C122.542 193.873 123.017 193.992 123.848 194.289Z" fill="#D3E1FF"/>
<path d="M210.013 146.341L205.503 154.61C204.672 153.242 203.782 153.123 202.417 152.885C204.375 149.911 205.621 147.948 206.927 144.616C208.411 144.795 209.063 145.33 210.013 146.341Z" fill="#DED3FF"/>
<path d="M92.3956 44.4976C92.5736 45.5683 91.8615 46.5797 90.7934 46.7581C89.7252 46.9366 88.7164 46.2227 88.5383 45.1519C88.3603 44.0811 89.0724 43.0698 90.1406 42.8914C91.2088 42.7724 92.2176 43.4863 92.3956 44.4976Z" fill="#D3EDFF"/>
<path d="M111.98 183.105C110.496 182.094 110.081 180.071 111.09 178.584C112.099 177.097 114.116 176.681 115.6 177.692C117.083 178.703 117.499 180.726 116.49 182.213C115.481 183.7 113.463 184.117 111.98 183.105Z" fill="#BAF0DF"/>
<path d="M37.208 55.4431C37.3861 54.3128 38.4542 53.4799 39.6411 53.6584C40.7686 53.8369 41.5994 54.9077 41.4213 56.0974C41.2433 57.2872 40.1752 58.0606 38.9883 57.8821C37.8015 57.6441 36.9707 56.5734 37.208 55.4431Z" fill="#FFD9D1"/>
<path d="M154.47 186.318L149.248 187.805C149.426 186.913 149.189 186.496 148.714 185.842C150.732 185.425 152.037 185.187 153.936 184.354C154.53 185.009 154.53 185.544 154.47 186.318Z" fill="#DED3FF"/>
<path d="M55.2487 69.4821C56.7323 68.9467 56.7323 67.1621 57.5038 66.0913C56.2576 65.9723 54.8927 65.3774 54.2993 64.3066C54.1212 65.6154 52.9937 66.5077 51.6882 66.8052C53.3498 68.5898 54.0619 69.1847 55.2487 69.4821Z" fill="#DED3FF"/>
<path d="M76.1959 108.388C75.2465 107.495 75.2465 106.008 76.1366 105.056C77.0267 104.105 78.5103 104.105 79.4598 104.997C80.4092 105.889 80.4092 107.376 79.5191 108.328C78.5696 109.28 77.0861 109.34 76.1959 108.388Z" fill="#D3E1FF"/>
<mask id="path-114-outside-1" maskUnits="userSpaceOnUse" x="68.9016" y="32.9243" width="102" height="129" fill="black">
<rect fill="white" x="68.9016" y="32.9243" width="102" height="129"/>
<path d="M77.9227 37.9516C82.1659 37.7367 86.3997 37.4938 90.6428 37.2415C92.7597 37.1107 94.8766 36.9799 97.0028 36.8397L100.183 36.6341L103.363 36.4192L109.714 35.9707L116.064 35.4941L128.756 34.5317L135.107 34.0738L136.692 33.9617L136.888 33.9523C136.953 33.9523 137.019 33.943 137.093 33.943C137.243 33.9337 137.392 33.9243 137.541 33.9243C137.839 33.9243 138.138 33.9337 138.436 33.9617C139.649 34.0645 140.824 34.4009 141.896 34.9522C142.437 35.2232 142.94 35.5502 143.416 35.924L143.593 36.0641L143.752 36.1949L144.059 36.4472L144.675 36.9518L147.118 38.9982L152.005 43.0909C155.25 45.8288 158.495 48.5853 161.722 51.3418L162.934 52.379L163.233 52.6407L163.382 52.7715L163.55 52.921C163.662 53.0238 163.774 53.1265 163.886 53.2387C163.988 53.3508 164.1 53.4536 164.203 53.5657C165.033 54.4628 165.676 55.528 166.096 56.6773C166.31 57.2473 166.459 57.8453 166.562 58.4434C166.59 58.5929 166.609 58.7424 166.627 58.8919C166.646 59.0414 166.665 59.1909 166.665 59.3498L166.674 59.574L166.683 59.6861V59.7889L166.693 60.1907L166.767 63.3771C167.168 80.3928 167.289 97.4085 167.793 114.424C167.914 118.676 168.045 122.927 168.203 127.179L168.436 133.552L168.688 139.924L168.959 146.297L169.033 147.895L169.052 148.297L169.061 148.502V148.717V148.932L169.052 149.147L169.043 149.362C169.043 149.437 169.033 149.502 169.024 149.577C168.94 150.708 168.623 151.829 168.119 152.847C167.103 154.894 165.275 156.52 163.102 157.276C162.561 157.463 162.002 157.604 161.433 157.688C161.293 157.706 161.144 157.725 161.004 157.734C160.864 157.753 160.715 157.753 160.575 157.762L160.463 157.772H160.361L160.165 157.781L159.764 157.8L156.584 157.921L143.854 158.407L137.494 158.65L131.125 158.874C122.639 159.173 114.152 159.416 105.666 159.659L92.9369 160.033L86.5675 160.22L83.3875 160.313L82.5855 160.332C82.427 160.332 82.2778 160.332 82.1192 160.332L81.653 160.304C81.0281 160.257 80.4127 160.145 79.8065 159.986C78.6035 159.65 77.4565 159.08 76.468 158.323C75.4794 157.557 74.6308 156.604 73.9967 155.52C73.3625 154.436 72.9429 153.23 72.7657 151.978L72.7098 151.511C72.7004 151.352 72.6911 151.203 72.6818 151.044L72.6445 150.24L72.5792 148.642C72.402 144.391 72.2435 140.139 72.0943 135.888C71.9357 131.636 71.7865 127.385 71.6466 123.133C71.5068 118.881 71.3576 114.63 71.2363 110.378C70.9752 101.866 70.8073 93.3531 70.6581 84.8499C70.5183 76.3374 70.4063 67.8342 70.2198 59.3217L70.1452 56.1354L70.0706 52.949L69.9028 46.5576C69.8841 45.4643 70.08 44.3804 70.4716 43.3619C70.8633 42.3527 71.4508 41.409 72.1875 40.6241C72.9242 39.8298 73.8195 39.1851 74.7987 38.7272C75.7779 38.2693 76.841 38.0077 77.9227 37.9516ZM77.9414 38.232C76.8969 38.288 75.8711 38.5497 74.9292 38.9888C73.978 39.4467 73.1201 40.0728 72.4207 40.839C71.7212 41.6052 71.1617 42.5116 70.798 43.4927C70.4436 44.4645 70.2758 45.5111 70.3131 46.5483C70.4063 48.6694 70.5183 50.7999 70.6302 52.921L70.798 56.1073L70.9752 59.2937C71.4508 67.7875 72.001 76.2814 72.5232 84.7752C73.0362 93.269 73.5304 101.763 73.9407 110.266C74.1459 114.518 74.3324 118.769 74.5189 123.011C74.7147 127.263 74.8919 131.515 75.0691 135.766C75.2463 140.018 75.4142 144.269 75.5727 148.521L75.6287 150.119L75.6566 150.904C75.666 151.016 75.666 151.119 75.6753 151.231L75.7126 151.558C75.8338 152.418 76.1229 153.258 76.5519 154.015C76.9902 154.772 77.5684 155.445 78.2585 155.978C78.9485 156.52 79.7412 156.921 80.5712 157.155C80.9908 157.276 81.4198 157.351 81.8581 157.389L82.1845 157.407C82.2964 157.407 82.4083 157.407 82.5109 157.407L83.2943 157.398L86.4743 157.342L92.8436 157.23L105.582 157.015C114.069 156.875 122.564 156.716 131.05 156.622L137.42 156.548L143.789 156.492L156.528 156.389L159.708 156.361H160.109H160.305H160.407H160.5C160.622 156.351 160.743 156.361 160.864 156.342C160.985 156.333 161.107 156.323 161.228 156.314C161.713 156.258 162.188 156.155 162.655 156.006C163.587 155.707 164.454 155.23 165.21 154.595C165.965 153.969 166.59 153.184 167.056 152.315C167.523 151.446 167.812 150.483 167.905 149.493C167.914 149.427 167.924 149.371 167.924 149.306L167.933 149.119L167.942 148.932V148.745V148.558V148.362L167.933 147.96L167.896 146.363L167.728 139.98L167.541 133.598L167.336 127.216C167.196 122.965 167.047 118.713 166.87 114.462C166.208 97.4552 165.173 80.4675 164.417 63.4705L164.277 60.2842L164.259 59.8824V59.7796L164.249 59.6955L164.24 59.5273C164.24 59.4152 164.221 59.303 164.203 59.1909C164.193 59.0788 164.175 58.9666 164.147 58.8545C164.063 58.406 163.942 57.9668 163.783 57.5463C163.624 57.1258 163.419 56.7147 163.177 56.3316C162.934 55.9485 162.655 55.5934 162.347 55.257C162.272 55.1729 162.188 55.0982 162.114 55.0141C162.039 54.93 161.946 54.8552 161.862 54.7805L161.731 54.6683L161.582 54.5375L161.274 54.2852L160.062 53.2574C156.817 50.5102 153.59 47.7537 150.364 44.9784L145.542 40.811L143.136 38.7179L142.539 38.1946L142.269 37.9423L142.12 37.8115L141.989 37.6994C141.635 37.4097 141.262 37.148 140.852 36.9238C140.05 36.4846 139.154 36.1949 138.24 36.0828C138.007 36.0548 137.783 36.0361 137.55 36.0361C137.438 36.0361 137.317 36.0361 137.205 36.0361C137.149 36.0361 137.075 36.0361 137.009 36.0454L136.814 36.0548L135.219 36.1108L128.85 36.3164L116.12 36.6995L109.751 36.8958L103.381 37.1107L100.201 37.2228L97.0215 37.3443C94.9046 37.4284 92.7783 37.5125 90.6614 37.6059C86.4183 37.8021 82.1752 38.0077 77.9414 38.232Z"/>
</mask>
<path d="M77.9227 37.9516C82.1659 37.7367 86.3997 37.4938 90.6428 37.2415C92.7597 37.1107 94.8766 36.9799 97.0028 36.8397L100.183 36.6341L103.363 36.4192L109.714 35.9707L116.064 35.4941L128.756 34.5317L135.107 34.0738L136.692 33.9617L136.888 33.9523C136.953 33.9523 137.019 33.943 137.093 33.943C137.243 33.9337 137.392 33.9243 137.541 33.9243C137.839 33.9243 138.138 33.9337 138.436 33.9617C139.649 34.0645 140.824 34.4009 141.896 34.9522C142.437 35.2232 142.94 35.5502 143.416 35.924L143.593 36.0641L143.752 36.1949L144.059 36.4472L144.675 36.9518L147.118 38.9982L152.005 43.0909C155.25 45.8288 158.495 48.5853 161.722 51.3418L162.934 52.379L163.233 52.6407L163.382 52.7715L163.55 52.921C163.662 53.0238 163.774 53.1265 163.886 53.2387C163.988 53.3508 164.1 53.4536 164.203 53.5657C165.033 54.4628 165.676 55.528 166.096 56.6773C166.31 57.2473 166.459 57.8453 166.562 58.4434C166.59 58.5929 166.609 58.7424 166.627 58.8919C166.646 59.0414 166.665 59.1909 166.665 59.3498L166.674 59.574L166.683 59.6861V59.7889L166.693 60.1907L166.767 63.3771C167.168 80.3928 167.289 97.4085 167.793 114.424C167.914 118.676 168.045 122.927 168.203 127.179L168.436 133.552L168.688 139.924L168.959 146.297L169.033 147.895L169.052 148.297L169.061 148.502V148.717V148.932L169.052 149.147L169.043 149.362C169.043 149.437 169.033 149.502 169.024 149.577C168.94 150.708 168.623 151.829 168.119 152.847C167.103 154.894 165.275 156.52 163.102 157.276C162.561 157.463 162.002 157.604 161.433 157.688C161.293 157.706 161.144 157.725 161.004 157.734C160.864 157.753 160.715 157.753 160.575 157.762L160.463 157.772H160.361L160.165 157.781L159.764 157.8L156.584 157.921L143.854 158.407L137.494 158.65L131.125 158.874C122.639 159.173 114.152 159.416 105.666 159.659L92.9369 160.033L86.5675 160.22L83.3875 160.313L82.5855 160.332C82.427 160.332 82.2778 160.332 82.1192 160.332L81.653 160.304C81.0281 160.257 80.4127 160.145 79.8065 159.986C78.6035 159.65 77.4565 159.08 76.468 158.323C75.4794 157.557 74.6308 156.604 73.9967 155.52C73.3625 154.436 72.9429 153.23 72.7657 151.978L72.7098 151.511C72.7004 151.352 72.6911 151.203 72.6818 151.044L72.6445 150.24L72.5792 148.642C72.402 144.391 72.2435 140.139 72.0943 135.888C71.9357 131.636 71.7865 127.385 71.6466 123.133C71.5068 118.881 71.3576 114.63 71.2363 110.378C70.9752 101.866 70.8073 93.3531 70.6581 84.8499C70.5183 76.3374 70.4063 67.8342 70.2198 59.3217L70.1452 56.1354L70.0706 52.949L69.9028 46.5576C69.8841 45.4643 70.08 44.3804 70.4716 43.3619C70.8633 42.3527 71.4508 41.409 72.1875 40.6241C72.9242 39.8298 73.8195 39.1851 74.7987 38.7272C75.7779 38.2693 76.841 38.0077 77.9227 37.9516ZM77.9414 38.232C76.8969 38.288 75.8711 38.5497 74.9292 38.9888C73.978 39.4467 73.1201 40.0728 72.4207 40.839C71.7212 41.6052 71.1617 42.5116 70.798 43.4927C70.4436 44.4645 70.2758 45.5111 70.3131 46.5483C70.4063 48.6694 70.5183 50.7999 70.6302 52.921L70.798 56.1073L70.9752 59.2937C71.4508 67.7875 72.001 76.2814 72.5232 84.7752C73.0362 93.269 73.5304 101.763 73.9407 110.266C74.1459 114.518 74.3324 118.769 74.5189 123.011C74.7147 127.263 74.8919 131.515 75.0691 135.766C75.2463 140.018 75.4142 144.269 75.5727 148.521L75.6287 150.119L75.6566 150.904C75.666 151.016 75.666 151.119 75.6753 151.231L75.7126 151.558C75.8338 152.418 76.1229 153.258 76.5519 154.015C76.9902 154.772 77.5684 155.445 78.2585 155.978C78.9485 156.52 79.7412 156.921 80.5712 157.155C80.9908 157.276 81.4198 157.351 81.8581 157.389L82.1845 157.407C82.2964 157.407 82.4083 157.407 82.5109 157.407L83.2943 157.398L86.4743 157.342L92.8436 157.23L105.582 157.015C114.069 156.875 122.564 156.716 131.05 156.622L137.42 156.548L143.789 156.492L156.528 156.389L159.708 156.361H160.109H160.305H160.407H160.5C160.622 156.351 160.743 156.361 160.864 156.342C160.985 156.333 161.107 156.323 161.228 156.314C161.713 156.258 162.188 156.155 162.655 156.006C163.587 155.707 164.454 155.23 165.21 154.595C165.965 153.969 166.59 153.184 167.056 152.315C167.523 151.446 167.812 150.483 167.905 149.493C167.914 149.427 167.924 149.371 167.924 149.306L167.933 149.119L167.942 148.932V148.745V148.558V148.362L167.933 147.96L167.896 146.363L167.728 139.98L167.541 133.598L167.336 127.216C167.196 122.965 167.047 118.713 166.87 114.462C166.208 97.4552 165.173 80.4675 164.417 63.4705L164.277 60.2842L164.259 59.8824V59.7796L164.249 59.6955L164.24 59.5273C164.24 59.4152 164.221 59.303 164.203 59.1909C164.193 59.0788 164.175 58.9666 164.147 58.8545C164.063 58.406 163.942 57.9668 163.783 57.5463C163.624 57.1258 163.419 56.7147 163.177 56.3316C162.934 55.9485 162.655 55.5934 162.347 55.257C162.272 55.1729 162.188 55.0982 162.114 55.0141C162.039 54.93 161.946 54.8552 161.862 54.7805L161.731 54.6683L161.582 54.5375L161.274 54.2852L160.062 53.2574C156.817 50.5102 153.59 47.7537 150.364 44.9784L145.542 40.811L143.136 38.7179L142.539 38.1946L142.269 37.9423L142.12 37.8115L141.989 37.6994C141.635 37.4097 141.262 37.148 140.852 36.9238C140.05 36.4846 139.154 36.1949 138.24 36.0828C138.007 36.0548 137.783 36.0361 137.55 36.0361C137.438 36.0361 137.317 36.0361 137.205 36.0361C137.149 36.0361 137.075 36.0361 137.009 36.0454L136.814 36.0548L135.219 36.1108L128.85 36.3164L116.12 36.6995L109.751 36.8958L103.381 37.1107L100.201 37.2228L97.0215 37.3443C94.9046 37.4284 92.7783 37.5125 90.6614 37.6059C86.4183 37.8021 82.1752 38.0077 77.9414 38.232Z" fill="#001064"/>
<path d="M77.9227 37.9516C82.1659 37.7367 86.3997 37.4938 90.6428 37.2415C92.7597 37.1107 94.8766 36.9799 97.0028 36.8397L100.183 36.6341L103.363 36.4192L109.714 35.9707L116.064 35.4941L128.756 34.5317L135.107 34.0738L136.692 33.9617L136.888 33.9523C136.953 33.9523 137.019 33.943 137.093 33.943C137.243 33.9337 137.392 33.9243 137.541 33.9243C137.839 33.9243 138.138 33.9337 138.436 33.9617C139.649 34.0645 140.824 34.4009 141.896 34.9522C142.437 35.2232 142.94 35.5502 143.416 35.924L143.593 36.0641L143.752 36.1949L144.059 36.4472L144.675 36.9518L147.118 38.9982L152.005 43.0909C155.25 45.8288 158.495 48.5853 161.722 51.3418L162.934 52.379L163.233 52.6407L163.382 52.7715L163.55 52.921C163.662 53.0238 163.774 53.1265 163.886 53.2387C163.988 53.3508 164.1 53.4536 164.203 53.5657C165.033 54.4628 165.676 55.528 166.096 56.6773C166.31 57.2473 166.459 57.8453 166.562 58.4434C166.59 58.5929 166.609 58.7424 166.627 58.8919C166.646 59.0414 166.665 59.1909 166.665 59.3498L166.674 59.574L166.683 59.6861V59.7889L166.693 60.1907L166.767 63.3771C167.168 80.3928 167.289 97.4085 167.793 114.424C167.914 118.676 168.045 122.927 168.203 127.179L168.436 133.552L168.688 139.924L168.959 146.297L169.033 147.895L169.052 148.297L169.061 148.502V148.717V148.932L169.052 149.147L169.043 149.362C169.043 149.437 169.033 149.502 169.024 149.577C168.94 150.708 168.623 151.829 168.119 152.847C167.103 154.894 165.275 156.52 163.102 157.276C162.561 157.463 162.002 157.604 161.433 157.688C161.293 157.706 161.144 157.725 161.004 157.734C160.864 157.753 160.715 157.753 160.575 157.762L160.463 157.772H160.361L160.165 157.781L159.764 157.8L156.584 157.921L143.854 158.407L137.494 158.65L131.125 158.874C122.639 159.173 114.152 159.416 105.666 159.659L92.9369 160.033L86.5675 160.22L83.3875 160.313L82.5855 160.332C82.427 160.332 82.2778 160.332 82.1192 160.332L81.653 160.304C81.0281 160.257 80.4127 160.145 79.8065 159.986C78.6035 159.65 77.4565 159.08 76.468 158.323C75.4794 157.557 74.6308 156.604 73.9967 155.52C73.3625 154.436 72.9429 153.23 72.7657 151.978L72.7098 151.511C72.7004 151.352 72.6911 151.203 72.6818 151.044L72.6445 150.24L72.5792 148.642C72.402 144.391 72.2435 140.139 72.0943 135.888C71.9357 131.636 71.7865 127.385 71.6466 123.133C71.5068 118.881 71.3576 114.63 71.2363 110.378C70.9752 101.866 70.8073 93.3531 70.6581 84.8499C70.5183 76.3374 70.4063 67.8342 70.2198 59.3217L70.1452 56.1354L70.0706 52.949L69.9028 46.5576C69.8841 45.4643 70.08 44.3804 70.4716 43.3619C70.8633 42.3527 71.4508 41.409 72.1875 40.6241C72.9242 39.8298 73.8195 39.1851 74.7987 38.7272C75.7779 38.2693 76.841 38.0077 77.9227 37.9516ZM77.9414 38.232C76.8969 38.288 75.8711 38.5497 74.9292 38.9888C73.978 39.4467 73.1201 40.0728 72.4207 40.839C71.7212 41.6052 71.1617 42.5116 70.798 43.4927C70.4436 44.4645 70.2758 45.5111 70.3131 46.5483C70.4063 48.6694 70.5183 50.7999 70.6302 52.921L70.798 56.1073L70.9752 59.2937C71.4508 67.7875 72.001 76.2814 72.5232 84.7752C73.0362 93.269 73.5304 101.763 73.9407 110.266C74.1459 114.518 74.3324 118.769 74.5189 123.011C74.7147 127.263 74.8919 131.515 75.0691 135.766C75.2463 140.018 75.4142 144.269 75.5727 148.521L75.6287 150.119L75.6566 150.904C75.666 151.016 75.666 151.119 75.6753 151.231L75.7126 151.558C75.8338 152.418 76.1229 153.258 76.5519 154.015C76.9902 154.772 77.5684 155.445 78.2585 155.978C78.9485 156.52 79.7412 156.921 80.5712 157.155C80.9908 157.276 81.4198 157.351 81.8581 157.389L82.1845 157.407C82.2964 157.407 82.4083 157.407 82.5109 157.407L83.2943 157.398L86.4743 157.342L92.8436 157.23L105.582 157.015C114.069 156.875 122.564 156.716 131.05 156.622L137.42 156.548L143.789 156.492L156.528 156.389L159.708 156.361H160.109H160.305H160.407H160.5C160.622 156.351 160.743 156.361 160.864 156.342C160.985 156.333 161.107 156.323 161.228 156.314C161.713 156.258 162.188 156.155 162.655 156.006C163.587 155.707 164.454 155.23 165.21 154.595C165.965 153.969 166.59 153.184 167.056 152.315C167.523 151.446 167.812 150.483 167.905 149.493C167.914 149.427 167.924 149.371 167.924 149.306L167.933 149.119L167.942 148.932V148.745V148.558V148.362L167.933 147.96L167.896 146.363L167.728 139.98L167.541 133.598L167.336 127.216C167.196 122.965 167.047 118.713 166.87 114.462C166.208 97.4552 165.173 80.4675 164.417 63.4705L164.277 60.2842L164.259 59.8824V59.7796L164.249 59.6955L164.24 59.5273C164.24 59.4152 164.221 59.303 164.203 59.1909C164.193 59.0788 164.175 58.9666 164.147 58.8545C164.063 58.406 163.942 57.9668 163.783 57.5463C163.624 57.1258 163.419 56.7147 163.177 56.3316C162.934 55.9485 162.655 55.5934 162.347 55.257C162.272 55.1729 162.188 55.0982 162.114 55.0141C162.039 54.93 161.946 54.8552 161.862 54.7805L161.731 54.6683L161.582 54.5375L161.274 54.2852L160.062 53.2574C156.817 50.5102 153.59 47.7537 150.364 44.9784L145.542 40.811L143.136 38.7179L142.539 38.1946L142.269 37.9423L142.12 37.8115L141.989 37.6994C141.635 37.4097 141.262 37.148 140.852 36.9238C140.05 36.4846 139.154 36.1949 138.24 36.0828C138.007 36.0548 137.783 36.0361 137.55 36.0361C137.438 36.0361 137.317 36.0361 137.205 36.0361C137.149 36.0361 137.075 36.0361 137.009 36.0454L136.814 36.0548L135.219 36.1108L128.85 36.3164L116.12 36.6995L109.751 36.8958L103.381 37.1107L100.201 37.2228L97.0215 37.3443C94.9046 37.4284 92.7783 37.5125 90.6614 37.6059C86.4183 37.8021 82.1752 38.0077 77.9414 38.232Z" stroke="#001064" stroke-width="2" mask="url(#path-114-outside-1)"/>
<path d="M137.093 34.9995C137.373 35.9339 137.606 36.8683 137.839 37.8028C138.072 38.7372 138.287 39.6809 138.492 40.6247C138.902 42.5029 139.275 44.3904 139.629 46.2872L139.881 47.7076C139.965 48.1841 140.04 48.6513 140.124 49.1279C140.198 49.6044 140.282 50.0716 140.357 50.5482L140.413 50.9033L140.431 50.9874L140.45 51.0621L140.478 51.2116C140.497 51.3144 140.515 51.4078 140.543 51.5106L140.581 51.6601C140.59 51.7069 140.609 51.7536 140.618 51.8096C141.047 53.3701 142.007 54.753 143.285 55.7155C143.602 55.9584 143.947 56.1734 144.302 56.3602C144.656 56.5471 145.02 56.706 145.402 56.8368C146.157 57.0891 146.959 57.2106 147.771 57.2199L148.078 57.2106L148.433 57.1919L149.151 57.1638C149.626 57.1452 150.111 57.1265 150.587 57.1078L152.023 57.0611L153.459 57.005C155.38 56.9676 157.292 56.9489 159.222 56.9863C160.183 57.005 161.143 57.0237 162.113 57.0704C163.074 57.1078 164.044 57.1638 165.004 57.2386C164.062 57.4629 163.111 57.6591 162.169 57.846C161.227 58.0328 160.276 58.201 159.325 58.3599C157.432 58.6776 155.529 58.9579 153.627 59.2009L152.2 59.3877L150.773 59.5559C150.298 59.612 149.822 59.6681 149.347 59.7148L148.629 59.7895L148.274 59.8269L147.864 59.855C146.763 59.911 145.635 59.7802 144.572 59.4532C144.04 59.285 143.518 59.0794 143.024 58.8271C142.53 58.5748 142.054 58.2758 141.606 57.9394C139.825 56.5938 138.529 54.6035 138.053 52.4357C138.035 52.3703 138.025 52.3049 138.007 52.2301L137.969 52.0246C137.941 51.8844 137.923 51.7536 137.904 51.6134L137.876 51.4078L137.867 51.3051L137.858 51.2116L137.82 50.8565C137.774 50.38 137.736 49.9034 137.69 49.4175C137.652 48.941 137.606 48.4644 137.568 47.9785L137.457 46.5395C137.317 44.624 137.205 42.6991 137.139 40.7742C137.112 39.8118 137.084 38.8493 137.074 37.8775C137.065 36.9338 137.056 35.962 137.093 34.9995Z" fill="#001064"/>
<path d="M123.344 77.4964C123.069 77.4899 122.786 77.4118 122.562 77.2635C121.891 76.8187 121.646 75.9549 121.977 75.3192C124.356 70.7989 128.863 67.9731 134.026 67.6653C139.257 67.3591 144.742 69.633 148.811 73.7328C149.363 74.3178 149.471 75.1783 148.993 75.7391C148.506 76.2282 147.683 76.2089 147.062 75.6223C143.691 72.1825 138.86 70.2099 134.58 70.4669C130.232 70.7224 126.367 73.2057 124.37 76.9485C124.14 77.3006 123.755 77.5061 123.344 77.4964Z" fill="#001064" stroke="#001C63" stroke-width="2"/>
<path d="M114.858 112.68C114.06 112.658 113.239 112.429 112.518 111.996C110.747 110.913 109.343 108.738 108.822 106.241C108.347 104.16 108.485 102.095 108.647 100.237L109.379 87.5012C109.563 84.7481 109.779 81.7201 108.621 78.9994C107.356 75.8621 104.234 73.6396 101.304 73.6977C98.4423 73.8267 96.0866 76.3138 95.8251 79.4785C95.7866 80.2359 95.1575 80.6325 94.5284 80.4775C93.8381 80.3208 93.3856 79.55 93.4318 78.8617C93.7473 74.5263 96.9853 71.1668 100.882 70.9971C104.78 70.8274 109.036 73.9083 110.792 78.1622C112.211 81.5795 111.934 85.1574 111.764 88.0488L110.964 100.714C110.848 102.435 110.74 104.225 111.108 105.89C111.476 107.555 112.304 108.956 113.355 109.605C113.884 109.964 114.567 110.052 115.158 109.861C115.396 109.799 115.864 109.605 116.048 109.058C116.286 108.444 116.992 108.187 117.644 108.55C118.234 108.911 118.572 109.747 118.341 110.431C117.965 111.455 117.183 112.123 116.178 112.44C115.71 112.634 115.288 112.692 114.858 112.68Z" fill="#001064" stroke="#001C63" stroke-width="2"/>
<path d="M120.94 128.238C115.055 128.103 109.02 126.219 103.614 122.749C102.936 122.297 102.618 121.416 102.951 120.769C103.284 120.122 104.087 119.922 104.765 120.374C110.241 123.846 116.544 125.664 122.442 125.362C128.341 125.061 133.845 122.714 137.901 118.733C138.39 118.235 139.3 118.329 139.788 118.922C140.346 119.517 140.396 120.464 139.897 120.889C135.472 125.225 129.442 127.778 122.929 128.138C122.324 128.27 121.632 128.254 120.94 128.238Z" fill="#001064" stroke="#001C63" stroke-width="2"/>
<path fill-rule="evenodd" clip-rule="evenodd" d="M131.695 90.2666C132.123 90.4866 132.578 90.4728 133.112 90.2618C133.288 90.192 133.359 90.0857 133.638 89.5346C133.894 89.0288 134.098 88.2984 134.291 87.5085C134.431 86.9334 134.474 86.2391 134.449 85.4437C134.422 84.6141 134.861 84.101 135.43 84.2976C135.998 84.4943 136.481 85.3263 136.508 86.1559C136.541 87.1807 136.492 88.249 136.255 89.2222C136.061 90.0182 135.796 91.0205 135.404 91.796C135.391 91.8227 135.377 91.85 135.363 91.8779C135.122 92.3581 134.801 92.9981 134.122 93.2664C133.418 93.5448 132.548 93.6792 131.552 93.1676C131.017 92.8928 130.392 92.3956 129.829 91.7992C129.282 91.2191 128.658 90.4023 128.258 89.4174C127.695 88.0267 127.338 86.8006 127.014 85.3952C126.819 84.5448 127.093 83.8064 127.628 83.7461C128.163 83.6858 128.755 84.3264 128.95 85.1768C129.227 86.3813 129.509 87.3328 129.947 88.4133C130.041 88.6457 130.281 89.0262 130.673 89.4409C131.049 89.8392 131.437 90.1342 131.695 90.2666Z" fill="#001064" stroke="#001C63" stroke-width="2" stroke-linecap="round" stroke-linejoin="round"/>
<path fill-rule="evenodd" clip-rule="evenodd" d="M100.037 93.8762C99.3817 93.8671 98.671 93.7038 98.037 93.3678C95.9645 92.2694 95.0562 89.9527 94.5117 88.5636C94.483 88.4904 94.4553 88.4197 94.4285 88.352C94.1287 87.5942 94.3891 86.8038 95.01 86.5865C95.631 86.3692 96.3773 86.8073 96.6771 87.565C97.3325 89.2219 97.8075 90.3104 98.7507 90.8104C98.9693 90.9262 99.295 91.017 99.6436 91.0218C99.9949 91.0267 100.263 90.9434 100.414 90.8372C100.785 90.577 100.957 90.4462 101.104 90.2437C101.168 90.155 101.199 90.0858 101.225 90.0059C101.257 89.91 101.279 89.813 101.322 89.6178C101.33 89.5845 101.338 89.5483 101.347 89.5087C101.401 89.2674 101.448 89.0115 101.47 88.7739C101.481 88.6567 101.484 88.5579 101.482 88.4787C101.481 88.4398 101.478 88.4096 101.476 88.3875C101.473 88.3653 101.471 88.355 101.471 88.355C101.29 87.5703 101.682 86.8733 102.348 86.7984C103.013 86.7234 103.699 87.2987 103.88 88.0834C104.004 88.6219 103.991 89.1478 103.954 89.5419C103.916 89.9559 103.84 90.3446 103.773 90.6424C103.765 90.6774 103.757 90.7136 103.749 90.7509C103.659 91.1656 103.538 91.718 103.133 92.2757C102.767 92.7805 102.34 93.0801 102.003 93.3162C101.991 93.3244 101.979 93.3326 101.968 93.3407C101.395 93.7428 100.69 93.8854 100.037 93.8762Z" fill="#001064" stroke="#001C63" stroke-width="2" stroke-linecap="round" stroke-linejoin="round"/>
<ellipse cx="73.8779" cy="41.9567" rx="18.7359" ry="18.7721" fill="#001064"/>
<path d="M80.2193 37.0468H79.2105V35.0252C79.2105 32.2354 76.9506 29.9712 74.1662 29.9712C71.3817 29.9712 69.1219 32.2354 69.1219 35.0252V37.0468H68.113C67.0033 37.0468 66.0953 37.9565 66.0953 39.0684V49.1765C66.0953 50.2884 67.0033 51.1981 68.113 51.1981H80.2193C81.3291 51.1981 82.237 50.2884 82.237 49.1765V39.0684C82.237 37.9565 81.3291 37.0468 80.2193 37.0468ZM74.1662 46.1441C73.0564 46.1441 72.1485 45.2343 72.1485 44.1224C72.1485 43.0106 73.0564 42.1008 74.1662 42.1008C75.2759 42.1008 76.1839 43.0106 76.1839 44.1224C76.1839 45.2343 75.2759 46.1441 74.1662 46.1441ZM77.2936 37.0468H71.0387V35.0252C71.0387 33.2967 72.441 31.8917 74.1662 31.8917C75.8913 31.8917 77.2936 33.2967 77.2936 35.0252V37.0468Z" fill="white"/>
</svg>
