<svg width="173" height="183" viewBox="0 0 173 183" fill="none" xmlns="http://www.w3.org/2000/svg">
<path d="M84.9813 49.6246C84.5626 49.5807 84.1611 49.4238 83.8816 49.1649C83.0432 48.3884 83.0411 47.0109 83.8247 46.0601C89.4317 39.3027 97.5723 35.4508 105.632 35.6074C113.796 35.775 121.233 39.9982 125.709 46.8948C126.304 47.8754 126.096 49.2309 125.121 50.0468C124.162 50.7497 122.906 50.6179 122.207 49.6264C118.518 43.8452 111.953 40.1726 105.272 40.0458C98.486 39.908 91.4785 43.3049 86.7944 48.8966C86.2893 49.4175 85.6094 49.6905 84.9813 49.6246Z" fill="#001064"/>
<path d="M63.2594 99.1228C61.953 98.9876 60.6965 98.5289 59.6911 97.7677C57.2279 95.8697 55.8353 92.33 56.0335 88.4073C56.1317 85.1314 57.2348 81.9596 58.2879 79.1112L64.8895 59.5309C66.3603 55.3018 67.9983 50.6519 67.2416 46.3017C66.4844 41.2943 62.278 37.4634 57.421 37.1796C52.6477 37.0141 47.7096 40.5557 45.9378 45.4108C45.5534 46.5759 44.3479 47.1083 43.3763 46.7887C42.3042 46.4586 41.8846 45.2103 42.2523 44.1531C44.6091 37.4964 51.3719 32.7198 57.8702 32.9543C64.3685 33.1889 70.0832 38.4904 71.1766 45.2851C72.0681 50.7446 70.0958 56.2361 68.5916 60.6808L61.9062 80.143C60.9869 82.7861 60.051 85.5371 59.9523 88.1557C59.8537 90.7743 60.6257 93.0449 62.0835 94.1816C62.8041 94.8039 63.8929 95.0261 64.9479 94.8067C65.3665 94.7405 66.2205 94.5003 66.7558 93.6795C67.4084 92.7612 68.681 92.4548 69.6026 93.0979C70.4236 93.7306 70.6256 95.0659 69.9564 96.0919C68.9023 97.6258 67.3287 98.5583 65.5369 98.9205C64.683 99.1607 63.9628 99.1957 63.2594 99.1228Z" fill="#001064"/>
<path d="M69.9225 125.782C60.993 124.828 52.5818 121.137 45.8102 115.061C44.9681 114.273 44.8596 112.866 45.6449 111.902C46.4303 110.939 47.7426 110.73 48.5847 111.518C55.4614 117.605 64.31 121.226 73.4479 121.504C82.5859 121.782 91.996 118.832 99.8941 113.159C100.855 112.448 102.204 112.708 102.696 113.692C103.294 114.686 102.965 116.164 102.021 116.761C93.4064 122.938 83.1042 126.143 73.0035 125.878C72.0236 126.006 70.9731 125.894 69.9225 125.782Z" fill="#001064"/>
<path d="M90.3672 68.4062C90.706 67.3247 91.1746 66.2875 91.8653 65.3961C92.5728 64.4831 93.3904 63.4887 94.2783 62.7735C94.9975 62.1943 95.5381 61.743 96.4569 61.5933C97.7283 61.3863 99.0086 61.3871 100.191 61.9152C101.507 62.5031 103.323 64.0619 103.725 65.569C104.132 67.0987 104.262 68.4305 104.262 70.0155" stroke="#001064" stroke-width="3.74091" stroke-linecap="round" stroke-linejoin="round"/>
<path d="M54.0252 63.6024C53.6498 61.5854 53.2435 59.1803 51.168 57.8917C50.0356 57.1887 48.2084 56.9401 46.935 57.4874C46.3084 57.7567 45.7662 57.9903 45.2418 58.4173C44.6886 58.8678 44.4792 59.2935 44.16 59.8728C43.7884 60.5471 43.3369 61.4913 43.3369 62.2379" stroke="#001064" stroke-width="3.74091" stroke-linecap="round" stroke-linejoin="round"/>
<path d="M14.9996 148.563L2.73265 24.4531C2.13005 18.3563 6.62454 12.9421 12.728 12.4123L126.803 2.51018L158.218 28.859L170.361 168.75" stroke="#001064" stroke-width="4" stroke-linecap="round"/>
<path d="M124.5 3.5625C125.362 8.94745 126.367 14.3966 127.5 19.7292L129.528 31.8125C129.816 33.1112 134.388 31.5485 135 31.4514C141.777 30.377 148.632 29.5625 155.5 29.5625" stroke="#001064" stroke-width="4" stroke-linecap="round" stroke-linejoin="round"/>
<path d="M94 108.062C95.3973 108.286 96.4124 108.279 97.5556 109.174C98.9432 110.26 100.405 111.255 101.486 112.674C102.423 113.904 103.076 115.729 103.444 117.201C103.845 118.803 104 120.776 104 122.424C104 123.389 104.165 124.483 103.75 125.312" stroke="#001064" stroke-width="4" stroke-linecap="round" stroke-linejoin="round"/>
</svg>
