<svg width="146" height="134" viewBox="0 0 146 134" fill="none" xmlns="http://www.w3.org/2000/svg">
<ellipse cx="73.9357" cy="67.0002" rx="58.0255" ry="58.507" fill="#E9FAF4"/>
<path d="M70.3801 42.7725C69.1634 44.5655 67.9468 46.2641 66.7301 48.057C61.6763 55.6063 57.184 63.4387 53.7212 71.9317C53.534 72.3091 53.3468 72.6866 52.8789 73.4415C52.2237 72.5923 51.8494 72.1204 51.5686 71.5542C48.0122 66.1754 44.4558 60.8908 40.8994 55.512C40.2443 54.5683 39.5892 53.6246 38.8404 52.681C37.6238 51.2655 36.7815 51.2655 34.6289 52.4923C35.0033 53.2472 35.1904 54.0021 35.6584 54.6627C40.1507 62.212 44.5494 69.6669 49.0417 77.2162C49.6032 78.1599 50.1648 79.0091 50.8199 79.8584C52.9725 82.312 57.2776 81.557 58.1199 78.5373C60.4596 70.6106 64.2032 63.25 68.4147 56.1725C70.5673 52.4923 72.907 48.9063 75.1532 45.3204L78.0545 40.6965C78.9904 39.1866 87.507 27.2965 88.4429 25.6923C89.0044 24.7486 90.0339 23.8993 89.7532 22.6725C87.6942 21.3514 86.2903 21.3514 84.7929 22.8613C84.1378 23.5218 83.4827 24.2768 83.0147 25.0317L70.3801 42.7725Z" fill="#17C67E"/>
<path d="M8.12428 52.761C10.7863 40.381 16.1104 29.2671 23.1157 18.8566C26.0579 14.4955 29.7007 10.8378 34.044 7.88346C39.3681 4.36641 45.1125 3.94436 51.1371 6.19527C54.2194 7.32073 54.2194 7.32073 55.9007 4.22573C83.2215 1.97482 107.18 18.0126 114.045 43.6167C120.07 65.7037 114.886 85.6806 97.5124 101.718C90.0867 108.612 80.9798 112.41 71.0322 114.38C59.2632 116.49 47.6344 116.068 36.4258 111.144C21.0141 104.391 11.4868 92.574 7.42374 76.2549C5.46225 68.3767 6.44299 60.4985 8.12428 52.761ZM36.8462 115.786C49.736 120.007 62.906 119.585 75.936 116.631C105.639 109.878 120.63 86.806 123.152 64.8596C126.094 38.5521 111.803 17.8719 94.7103 8.44618C83.922 2.53754 72.5734 -0.135413 60.244 0.005269C55.6205 0.427315 50.8568 0.708678 46.2333 1.27141C34.4643 2.53754 25.0772 7.88346 18.212 17.5905C10.9264 27.8603 5.18203 39.1148 2.23979 51.4948C0.13819 60.3578 -1.12277 69.5021 1.39915 78.6465C6.72321 97.2165 18.4922 109.737 36.8462 115.786Z" fill="#001064"/>
</svg>
