<svg width="156" height="142" viewBox="0 0 156 142" fill="none" xmlns="http://www.w3.org/2000/svg">
<circle cx="79" cy="71" r="62" fill="#E9FAF4"/>
<path d="M75.2 45.3263C73.9 47.2263 72.6 49.0263 71.3 50.9263C65.9 58.9263 61.1 67.2262 57.4 76.2262C57.2 76.6263 57 77.0263 56.5 77.8263C55.8 76.9263 55.4 76.4263 55.1 75.8263C51.3 70.1263 47.5 64.5263 43.7 58.8263C43 57.8263 42.3 56.8263 41.5 55.8263C40.2 54.3263 39.3 54.3263 37 55.6263C37.4 56.4263 37.6 57.2262 38.1 57.9263C42.9 65.9263 47.6 73.8263 52.4 81.8263C53 82.8263 53.6 83.7262 54.3 84.6263C56.6 87.2262 61.2 86.4263 62.1 83.2262C64.6 74.8262 68.6 67.0263 73.1 59.5263C75.4 55.6263 77.9 51.8263 80.3 48.0263L83.4 43.1263C84.4 41.5263 93.5 28.9263 94.5 27.2263C95.1 26.2263 96.2 25.3263 95.9 24.0263C93.7 22.6263 92.2 22.6263 90.6 24.2263C89.9 24.9263 89.2 25.7263 88.7 26.5263L75.2 45.3263Z" fill="#17C67E"/>
<path d="M8.68075 55.9109C11.5251 42.7918 17.2139 31.0144 24.699 19.9824C27.8428 15.3609 31.7351 11.4848 36.3759 8.35411C42.0646 4.62709 48.2025 4.17985 54.6397 6.56514C57.9332 7.75779 57.9332 7.75779 59.7296 4.47801C88.9218 2.09272 114.521 19.0879 121.857 46.2206C128.294 69.6263 122.755 90.7958 104.192 107.791C96.2573 115.096 86.5266 119.121 75.8976 121.208C63.3225 123.445 50.8971 122.997 38.9209 117.779C22.4535 110.624 12.2736 98.1008 7.93223 80.8074C5.83639 72.4589 6.88431 64.1103 8.68075 55.9109ZM39.37 122.699C53.1427 127.172 67.2148 126.724 81.1372 123.594C112.874 116.438 128.893 91.9885 131.587 68.7318C134.731 40.8537 119.461 18.9389 101.197 8.95043C89.6703 2.68904 77.5443 -0.143497 64.3704 0.00558356C59.4302 0.452826 54.3403 0.750988 49.4001 1.34731C36.825 2.68904 26.7949 8.35411 19.4594 18.6407C11.6748 29.5236 5.53698 41.4501 2.39321 54.5692C0.147655 63.9613 -1.19968 73.6515 1.49499 83.3418C7.18372 103.02 19.7588 116.289 39.37 122.699Z" fill="#001064"/>
</svg>
