<svg width="348" height="195" viewBox="0 0 348 195" fill="none" xmlns="http://www.w3.org/2000/svg">
<path d="M180.89 129.508C180.89 134.619 180.817 139.735 180.89 144.845C180.954 149.334 181.819 153.769 181.819 158.278C181.819 161.916 182.283 165.473 182.283 169.111C182.283 170.848 181.763 173.429 182.747 174.901" stroke="#001064" stroke-width="3.48101" stroke-linecap="round" stroke-linejoin="round"/>
<path d="M128.686 152.668C130.578 155.014 132.647 157.344 134.257 159.899C136.513 163.481 137.978 167.48 140.06 171.144C141.407 173.517 143.613 176.041 144.47 178.607" stroke="#001064" stroke-width="3.48101" stroke-linecap="round" stroke-linejoin="round"/>
<path d="M92.4746 179.43C95.8099 182.757 99.6996 185.767 103.591 188.436C105.257 189.579 106.802 190.834 108.723 191.473" stroke="#001064" stroke-width="3.48101" stroke-linecap="round" stroke-linejoin="round"/>
<path d="M247.031 190.672C251.341 188.761 255.553 186.219 259.447 183.553C261.115 182.412 262.843 181.424 264.13 179.864" stroke="#001064" stroke-width="3.48101" stroke-linecap="round" stroke-linejoin="round"/>
<path d="M228.5 145.134C227.079 149.505 224.961 153.615 223.467 157.954C222.588 160.51 222.434 163.763 221.053 166.092C220.344 167.289 219.413 170.477 219.215 171.92" stroke="#001064" stroke-width="3.48101" stroke-linecap="round" stroke-linejoin="round"/>
<rect width="86.1681" height="117.995" rx="31.329" transform="matrix(0.994415 0.105531 -0.106002 0.994366 260.023 35.5469)" fill="#D3ECFF"/>
<path d="M295.195 85.0213C294.866 84.9911 294.553 84.8682 294.339 84.6601C293.696 84.0357 293.725 82.9076 294.364 82.1181C298.936 76.506 305.437 73.2384 311.783 73.2548C318.211 73.2787 323.975 76.6342 327.345 82.2203C327.791 83.0151 327.597 84.1281 326.809 84.8098C326.038 85.3988 325.052 85.3083 324.523 84.506C321.748 79.8225 316.66 76.9059 311.399 76.8947C306.055 76.8761 300.457 79.7553 296.64 84.3999C296.23 84.8335 295.688 85.0665 295.195 85.0213Z" fill="#001064"/>
<path d="M277.018 123.86C276.023 123.77 275.074 123.421 274.324 122.828C272.487 121.348 271.503 118.546 271.743 115.417C271.893 112.805 272.806 110.263 273.675 107.979L279.157 92.2863C280.376 88.8963 281.732 85.1687 281.252 81.712C280.787 77.7316 277.663 74.7347 273.961 74.5735C270.321 74.5054 266.471 77.3938 265.009 81.2867C264.689 82.2203 263.756 82.6607 263.022 82.419C262.211 82.1703 261.919 81.1811 262.224 80.3336C264.173 74.9971 269.444 71.1001 274.4 71.2002C279.355 71.3003 283.598 75.4489 284.279 80.8493C284.836 85.1882 283.206 89.591 281.958 93.1533L276.414 108.753C275.652 110.871 274.875 113.076 274.741 115.165C274.606 117.253 275.144 119.052 276.232 119.938C276.768 120.425 277.594 120.587 278.404 120.398C278.725 120.34 279.383 120.137 279.81 119.476C280.329 118.735 281.307 118.474 281.996 118.974C282.609 119.467 282.733 120.529 282.199 121.356C281.359 122.592 280.137 123.356 278.761 123.669C278.103 123.872 277.553 123.909 277.018 123.86Z" fill="#001064"/>
<path d="M283.101 145.21C276.066 144.547 269.501 141.614 264.282 136.688C263.633 136.048 263.578 134.886 264.22 134.079C264.861 133.272 265.902 133.081 266.551 133.72C271.852 138.655 278.765 141.524 285.98 141.626C293.194 141.728 300.693 139.157 307.056 134.359C307.831 133.758 308.891 133.954 309.259 134.76C309.709 135.573 309.417 136.799 308.659 137.306C301.718 142.532 293.509 145.324 285.534 145.247C284.757 145.366 283.929 145.288 283.101 145.21Z" fill="#001064"/>
<path d="M299.486 99.4504C299.755 98.5939 300.127 97.7725 300.675 97.0665C301.237 96.3434 301.886 95.556 302.591 94.9895C303.162 94.5308 303.591 94.1734 304.32 94.0549C305.329 93.8909 306.346 93.8915 307.284 94.3098C308.328 94.7754 309.77 96.0099 310.089 97.2034C310.412 98.4149 310.515 99.4696 310.515 100.725" stroke="#001064" stroke-width="3.04588" stroke-linecap="round" stroke-linejoin="round"/>
<path d="M270.637 95.6492C270.339 94.0517 270.017 92.147 268.37 91.1265C267.471 90.5697 266.021 90.3728 265.01 90.8063C264.513 91.0196 264.082 91.2045 263.666 91.5427C263.227 91.8995 263.061 92.2366 262.808 92.6954C262.513 93.2294 262.154 93.9772 262.154 94.5685" stroke="#001064" stroke-width="3.04588" stroke-linecap="round" stroke-linejoin="round"/>
<rect x="124.715" width="99.2625" height="99.0373" rx="22.6265" fill="#FFD9D1"/>
<path d="M162.751 64.4766C159.641 64.4766 156.53 63.7605 153.739 62.3282C153.021 61.9304 152.702 61.1347 153.021 60.339C157.886 48.4832 160.279 35.5135 159.96 22.6233C154.058 25.2491 147.279 25.8061 140.979 24.1351C140.182 23.8964 139.703 23.0212 139.863 22.2255C140.102 21.4298 140.979 20.9524 141.777 21.1115C148.077 22.862 154.935 21.9868 160.677 18.804C161.156 18.5653 161.714 18.5653 162.193 18.804C162.671 19.0427 162.99 19.5201 162.99 20.0771C163.708 33.6834 161.475 47.4488 156.53 60.1003C159.96 61.453 163.947 61.6917 167.456 60.6573C168.254 60.4186 169.131 60.896 169.37 61.6917C169.609 62.4874 169.131 63.3626 168.333 63.6013C166.499 64.2379 164.585 64.4766 162.751 64.4766Z" fill="#001064"/>
<path d="M189.067 25.4041L171.841 25.0858C170.964 25.0858 170.326 24.3697 170.326 23.4944C170.326 22.6192 171.044 21.903 171.921 21.9826L189.067 22.3009C189.945 22.3009 190.583 23.017 190.583 23.8923C190.662 24.688 189.945 25.4041 189.067 25.4041Z" fill="#001064"/>
<path d="M179.659 33.9247C179.659 35.1978 178.622 36.2322 177.346 36.2322C176.07 36.2322 175.033 35.1978 175.033 33.9247C175.033 32.6516 176.07 31.6172 177.346 31.6172C178.622 31.6172 179.659 32.6516 179.659 33.9247Z" fill="#001064"/>
<path d="M154.616 33.9247C154.616 35.1978 153.579 36.2322 152.303 36.2322C151.027 36.2322 149.99 35.1978 149.99 33.9247C149.99 32.6516 151.027 31.6172 152.303 31.6172C153.579 31.6172 154.616 32.6516 154.616 33.9247Z" fill="#001064"/>
<path d="M165.622 90.5753C162.432 90.5753 159.322 89.7001 156.69 88.0291C151.028 84.5281 147.599 77.3669 148.157 70.2057C148.237 69.41 148.875 68.7734 149.672 68.7734H181.732C182.21 68.7734 182.609 69.0121 182.928 69.3304C183.247 69.7283 183.327 70.1261 183.247 70.6035C182.29 75.5368 180.934 82.2206 176.388 86.5173C173.597 89.1431 169.769 90.5753 165.622 90.5753ZM151.187 71.8766C151.267 77.3669 154.058 82.698 158.365 85.4033C160.438 86.756 163.07 87.4721 165.622 87.4721C168.972 87.4721 172.002 86.3582 174.235 84.2894C177.425 81.3453 178.781 76.969 179.818 71.8766H151.187Z" fill="#001064"/>
<ellipse rx="51.3257" ry="51.214" transform="matrix(0.989896 -0.141794 0.142458 0.989801 58.103 103.68)" fill="#FFE9BE"/>
<path d="M69.8881 116.227C72.1953 115.821 74.8123 115.446 77.0439 113.984C79.2115 112.607 81.2285 109.654 80.4785 106.563C79.7607 103.697 77.1851 102.238 74.9408 100.961C74.524 100.716 74.1072 100.471 73.7759 100.29C69.0841 97.3836 65.8647 91.982 65.6792 86.4504C65.4614 80.6949 68.6302 75.1396 73.3397 72.8659C78.2628 70.4856 84.8553 72.2822 87.465 76.629C87.8715 77.3322 88.7476 77.5874 89.4524 77.1819C90.1572 76.7763 90.413 75.9022 90.0065 75.199C86.6587 69.4351 78.3993 67.192 72.056 70.3088C66.2786 73.1161 62.4909 79.6738 62.7309 86.6443C62.9919 93.2311 66.5645 99.4958 72.1754 102.956C72.5922 103.201 73.009 103.446 73.4258 103.69C75.3388 104.787 77.1663 105.819 77.552 107.439C77.9378 109.059 76.7426 110.829 75.3437 111.715C73.5925 112.803 71.4349 113.189 69.3413 113.488C68.5188 113.606 68.0172 114.363 68.1353 115.184C68.3815 115.834 69.0656 116.345 69.8881 116.227Z" fill="#001064"/>
<path d="M29.5518 88.3505C30.15 88.2648 30.6197 87.8168 30.7689 87.2625C31.93 82.6039 36.0402 78.8172 40.7293 77.9931C45.4933 77.1584 50.6118 79.3184 53.3174 83.2708C53.7986 83.9633 54.6641 84.1439 55.3581 83.6637C56.0521 83.1836 56.2331 82.3201 55.7519 81.6277C52.3834 76.7804 46.0466 74.1096 40.2466 75.169C34.4466 76.2283 29.397 80.911 27.9376 86.6783C27.7458 87.4671 28.2378 88.2342 29.0284 88.4255C29.1673 88.3295 29.3275 88.3826 29.5518 88.3505Z" fill="#001064"/>
<path d="M44.7314 88.9135C44.9676 90.5548 46.5173 91.7794 48.2369 91.5331C49.8817 91.2974 51.109 89.7511 50.8621 88.0352C50.6151 86.3194 49.0761 85.1694 47.3565 85.4157C45.637 85.662 44.4844 87.1977 44.7314 88.9135Z" fill="#001064"/>
<path d="M79.567 87.0448C77.874 87.2873 76.3045 86.1145 76.0614 84.4252C75.8183 82.736 76.9937 81.1699 78.6866 80.9274C80.3796 80.6849 81.949 81.8577 82.1921 83.547C82.4352 85.2362 81.2599 86.8023 79.567 87.0448Z" fill="#001064"/>
<path d="M70.2887 139.166C79.8595 137.795 88.005 130.232 90.167 120.862C90.3161 120.307 90.0914 119.807 89.7279 119.402C89.3004 119.082 88.7448 118.933 88.2428 119.158C75.2452 123.761 61.1026 125.711 47.3852 124.782C46.8511 124.783 46.3492 125.007 46.029 125.434C45.7088 125.86 45.7199 126.468 45.9446 126.968C50.5122 135.375 60.6431 140.548 70.1499 139.262L70.2887 139.166ZM86.4828 122.836C83.8171 129.766 77.1976 135.207 69.87 136.256L69.7204 136.278C62.3073 137.264 54.4103 133.827 49.962 127.84C56.3398 128.144 62.6958 127.767 69.0514 126.856C75.0439 126.074 80.8009 124.716 86.4828 122.836Z" fill="#001064"/>
</svg>
