<svg width="207" height="120" viewBox="0 0 207 120" fill="none" xmlns="http://www.w3.org/2000/svg">
<path d="M107.055 79.6992C107.055 82.8443 107.012 85.9927 107.055 89.1373C107.093 91.8996 107.605 94.6291 107.605 97.4035C107.605 99.6426 107.88 101.831 107.88 104.07C107.88 105.139 107.572 106.727 108.155 107.633" stroke="#001064" stroke-width="3.6179" stroke-linecap="round" stroke-linejoin="round"/>
<path d="M76.1594 93.9492C77.2796 95.393 78.5038 96.8266 79.4566 98.3991C80.7921 100.603 81.6592 103.064 82.8911 105.319C83.6884 106.779 84.994 108.333 85.5013 109.912" stroke="#001064" stroke-width="3.6179" stroke-linecap="round" stroke-linejoin="round"/>
<path d="M54.7278 110.419C56.7017 112.467 59.0038 114.319 61.3068 115.962C62.293 116.665 63.2072 117.437 64.3444 117.83" stroke="#001064" stroke-width="3.6179" stroke-linecap="round" stroke-linejoin="round"/>
<path d="M146.199 117.34C148.751 116.164 151.243 114.6 153.548 112.959C154.535 112.257 155.558 111.649 156.32 110.689" stroke="#001064" stroke-width="3.6179" stroke-linecap="round" stroke-linejoin="round"/>
<path d="M135.234 89.3179C134.393 92.0079 133.139 94.537 132.255 97.2071C131.734 98.7798 131.644 100.782 130.826 102.215C130.406 102.952 129.855 104.914 129.738 105.801" stroke="#001064" stroke-width="3.6179" stroke-linecap="round" stroke-linejoin="round"/>
<rect width="51.0293" height="72.5688" rx="25.5147" transform="matrix(0.993786 0.109701 -0.101968 0.994958 153.896 21.8756)" fill="#D3ECFF"/>
<path d="M174.723 51.9698C174.525 51.9475 174.336 51.8708 174.203 51.7452C173.806 51.3685 173.8 50.7041 174.165 50.2476C176.779 47.0027 180.597 45.1658 184.391 45.2622C188.235 45.364 191.752 47.4202 193.884 50.7582C194.168 51.2326 194.075 51.8859 193.619 52.2769C193.171 52.6135 192.579 52.5467 192.246 52.0666C190.488 49.2687 187.384 47.4804 184.239 47.402C181.044 47.318 177.758 48.9384 175.573 51.6233C175.337 51.8732 175.018 52.0032 174.723 51.9698Z" fill="#001064"/>
<path d="M164.669 76.157C164.048 76.0878 163.45 75.8614 162.969 75.4885C161.793 74.5588 161.118 72.8335 161.197 70.9262C161.232 69.3332 161.744 67.7934 162.233 66.4108L165.294 56.905C165.976 54.852 166.737 52.5948 166.361 50.477C165.983 48.0396 163.971 46.1652 161.664 46.0144C159.397 45.9212 157.065 47.6307 156.242 49.9874C156.064 50.553 155.494 50.8088 155.031 50.6507C154.521 50.4874 154.317 49.8791 154.488 49.3659C155.582 46.1345 158.775 43.8292 161.861 43.9605C164.947 44.0918 167.681 46.6854 168.225 49.993C168.669 52.6506 167.753 55.3164 167.056 57.4741L163.955 66.9222C163.528 68.2054 163.094 69.5409 163.057 70.8142C163.02 72.0876 163.395 73.1939 164.092 73.7507C164.436 74.0552 164.954 74.1662 165.454 74.0623C165.653 74.0312 166.057 73.9166 166.308 73.5188C166.615 73.0739 167.218 72.9282 167.658 73.2435C168.05 73.5533 168.151 74.2033 167.837 74.7006C167.342 75.4438 166.599 75.8932 165.749 76.0646C165.345 76.1792 165.003 76.1943 164.669 76.157Z" fill="#001064"/>
<path d="M167.668 89.107C163.464 88.6257 159.495 86.8287 156.287 83.8884C155.888 83.5071 155.832 82.8294 156.198 82.3679C156.564 81.9064 157.181 81.8091 157.58 82.1904C160.836 85.1364 165.012 86.901 169.311 87.0577C173.61 87.2144 178.026 85.8182 181.721 83.1088C182.17 82.7687 182.805 82.8974 183.041 83.3718C183.325 83.8519 183.176 84.5619 182.734 84.847C178.704 87.7976 173.87 89.3137 169.118 89.1611C168.657 89.2203 168.163 89.1636 167.668 89.107Z" fill="#001064"/>
<path d="M177.249 61.2013C177.408 60.6742 177.629 60.1687 177.953 59.7343C178.285 59.2893 178.67 58.8047 179.087 58.4562C179.425 58.1738 179.679 57.9539 180.11 57.881C180.708 57.7801 181.309 57.7805 181.865 58.0378C182.483 58.3244 183.336 59.084 183.525 59.8185C183.716 60.5641 183.777 61.2131 183.777 61.9856" stroke="#001064" stroke-width="3.16566" stroke-linecap="round" stroke-linejoin="round"/>
<path d="M160.175 58.8598C159.998 57.8767 159.808 56.7046 158.832 56.0766C158.3 55.734 157.442 55.6128 156.844 55.8796C156.549 56.0108 156.295 56.1247 156.048 56.3328C155.788 56.5523 155.69 56.7598 155.54 57.0421C155.365 57.3707 155.153 57.8309 155.153 58.1948" stroke="#001064" stroke-width="3.16566" stroke-linecap="round" stroke-linejoin="round"/>
<rect x="73.8113" width="58.747" height="60.9454" rx="23.5163" fill="#FFD9D1"/>
<path d="M96.3227 39.677C94.4819 39.677 92.6412 39.2363 90.9892 38.355C90.5644 38.1101 90.3756 37.6205 90.5644 37.1308C93.4435 29.8351 94.8595 21.8538 94.6707 13.9214C91.178 15.5373 87.1661 15.88 83.4374 14.8518C82.9654 14.7049 82.6822 14.1663 82.7766 13.6766C82.9182 13.187 83.4374 12.8932 83.9094 12.9911C87.6381 14.0683 91.6972 13.5297 95.0955 11.5711C95.3787 11.4242 95.7091 11.4242 95.9923 11.5711C96.2755 11.718 96.4643 12.0118 96.4643 12.3545C96.8891 20.7276 95.5675 29.1985 92.6412 36.9839C94.6707 37.8163 97.0306 37.9632 99.1074 37.3267C99.5794 37.1798 100.099 37.4736 100.24 37.9632C100.382 38.4529 100.099 38.9915 99.6266 39.1384C98.541 39.5301 97.4082 39.677 96.3227 39.677Z" fill="#001064"/>
<path d="M111.894 15.6346L101.699 15.4387C101.18 15.4387 100.802 14.9981 100.802 14.4594C100.802 13.9208 101.227 13.4801 101.746 13.5291L111.894 13.725C112.413 13.725 112.791 14.1657 112.791 14.7043C112.838 15.1939 112.413 15.6346 111.894 15.6346Z" fill="#001064"/>
<path d="M106.329 20.8751C106.329 21.6585 105.716 22.295 104.96 22.295C104.205 22.295 103.592 21.6585 103.592 20.8751C103.592 20.0916 104.205 19.4551 104.96 19.4551C105.716 19.4551 106.329 20.0916 106.329 20.8751Z" fill="#001064"/>
<path d="M91.5144 20.8751C91.5144 21.6585 90.9007 22.295 90.1455 22.295C89.3902 22.295 88.7766 21.6585 88.7766 20.8751C88.7766 20.0916 89.3902 19.4551 90.1455 19.4551C90.9007 19.4551 91.5144 20.0916 91.5144 20.8751Z" fill="#001064"/>
<path d="M98.0154 55.7387C96.1274 55.7387 94.2867 55.2001 92.7291 54.1718C89.378 52.0173 87.3485 47.6105 87.6789 43.2036C87.7261 42.714 88.1036 42.3223 88.5756 42.3223H107.55C107.833 42.3223 108.069 42.4692 108.258 42.665C108.446 42.9098 108.493 43.1547 108.446 43.4485C107.88 46.4843 107.078 50.5974 104.387 53.2415C102.735 54.8573 100.47 55.7387 98.0154 55.7387ZM89.4724 44.2319C89.5196 47.6105 91.1716 50.8911 93.7203 52.556C94.9475 53.3884 96.505 53.829 98.0154 53.829C99.9977 53.829 101.791 53.1435 103.113 51.8704C105.001 50.0587 105.803 47.3657 106.417 44.2319H89.4724Z" fill="#001064"/>
<ellipse rx="30.401" ry="31.4919" transform="matrix(0.989136 -0.147002 0.137405 0.990515 34.3979 63.8084)" fill="#FFE9BE"/>
<path d="M41.3593 71.5238C42.7248 71.2736 44.2736 71.0429 45.5944 70.1433C46.8773 69.2962 48.0709 67.4785 47.6271 65.5767C47.2023 63.8127 45.6779 62.9152 44.3497 62.1291C44.103 61.9784 43.8563 61.8277 43.6603 61.7164C40.8835 59.9278 38.9781 56.6038 38.8683 53.1997C38.7394 49.658 40.6149 46.2393 43.4021 44.8402C46.3157 43.3754 50.2174 44.481 51.762 47.1559C52.0025 47.5886 52.521 47.7457 52.9382 47.4961C53.3553 47.2466 53.5066 46.7086 53.2661 46.2759C51.2847 42.7289 46.3965 41.3486 42.6423 43.2666C39.2231 44.9941 36.9814 49.0296 37.1234 53.3191C37.2779 57.3725 39.3923 61.2276 42.713 63.3568C42.9597 63.5075 43.2064 63.6582 43.453 63.8089C44.5852 64.4836 45.6668 65.119 45.8951 66.1158C46.1234 67.1126 45.416 68.202 44.5882 68.747C43.5517 69.4168 42.2748 69.6538 41.0357 69.8384C40.5489 69.9109 40.2521 70.3768 40.322 70.8818C40.4677 71.2818 40.8725 71.5963 41.3593 71.5238Z" fill="#001064"/>
<path d="M17.4842 54.369C17.8382 54.3163 18.1162 54.0406 18.2045 53.6995C18.8917 50.8327 21.3242 48.5024 24.0994 47.9953C26.9189 47.4817 29.9482 48.8109 31.5495 51.2431C31.8343 51.6692 32.3465 51.7804 32.7572 51.4849C33.168 51.1895 33.2751 50.6581 32.9903 50.232C30.9967 47.2491 27.2464 45.6055 23.8137 46.2574C20.3811 46.9093 17.3925 49.7909 16.5288 53.34C16.4153 53.8254 16.7065 54.2975 17.1744 54.4152C17.2566 54.3561 17.3514 54.3888 17.4842 54.369Z" fill="#001064"/>
<path d="M26.4682 54.7149C26.6079 55.7249 27.5253 56.4785 28.5432 56.3269C29.5168 56.1819 30.2433 55.2303 30.0972 54.1744C29.951 53.1185 29.0401 52.4108 28.0222 52.5624C27.0043 52.714 26.322 53.659 26.4682 54.7149Z" fill="#001064"/>
<path d="M47.0862 53.5642C46.084 53.7134 45.155 52.9917 45.0111 51.9522C44.8672 50.9126 45.563 49.9489 46.5651 49.7996C47.5673 49.6504 48.4963 50.3721 48.6402 51.4116C48.784 52.4512 48.0883 53.4149 47.0862 53.5642Z" fill="#001064"/>
<path d="M41.5956 85.6387C47.2599 84.7949 52.0807 80.141 53.3602 74.3747C53.4485 74.0335 53.3155 73.7254 53.1004 73.4763C52.8473 73.2797 52.5185 73.1881 52.2215 73.3261C44.529 76.1587 36.1589 77.3586 28.0405 76.7874C27.7244 76.7877 27.4273 76.9256 27.2378 77.1881C27.0483 77.4506 27.0549 77.8245 27.1879 78.1327C29.8911 83.3057 35.887 86.489 41.5134 85.6978L41.5956 85.6387ZM51.1798 75.5897C49.6021 79.8543 45.6845 83.2023 41.3478 83.8482L41.2593 83.8614C36.8719 84.4681 32.1982 82.353 29.5655 78.6687C33.3401 78.8562 37.1018 78.6238 40.8633 78.0635C44.4098 77.5821 47.8171 76.7466 51.1798 75.5897Z" fill="#001064"/>
</svg>
