<svg width="20" height="20" viewBox="0 0 20 20" fill="none" xmlns="http://www.w3.org/2000/svg">
<g clip-path="url(#clip0)">
<path d="M6.25077 18.1292C13.7984 18.1292 17.9258 11.8762 17.9258 6.45417C17.9258 6.27656 17.9221 6.09971 17.9142 5.92378C18.7152 5.34455 19.4117 4.62174 19.961 3.79898C19.2258 4.12583 18.4345 4.34571 17.6046 4.44504C18.4517 3.93692 19.1022 3.13339 19.4089 2.17545C18.6161 2.64542 17.7381 2.98691 16.8033 3.17139C16.0546 2.37381 14.9884 1.875 13.808 1.875C11.5421 1.875 9.70446 3.71262 9.70446 5.97779C9.70446 6.29991 9.74047 6.61302 9.81081 6.91346C6.40046 6.7418 3.37632 5.10911 1.35269 2.62619C1.00037 3.23258 0.797121 3.93708 0.797121 4.68873C0.797121 6.11222 1.52161 7.36909 2.62314 8.10426C1.94992 8.08351 1.3176 7.89873 0.764772 7.59111C0.764162 7.60835 0.764162 7.62513 0.764162 7.64344C0.764162 9.63075 2.1785 11.29 4.05625 11.666C3.7114 11.7598 3.34855 11.8103 2.97425 11.8103C2.71027 11.8103 2.45301 11.7844 2.20292 11.7363C2.72538 13.3667 4.24027 14.5531 6.03624 14.5864C4.63181 15.6871 2.86255 16.3428 0.939791 16.3428C0.60898 16.3428 0.282136 16.3239 -0.0390625 16.286C1.77689 17.45 3.93342 18.1293 6.25093 18.1293" fill="#ABB2D9"/>
</g>
<defs>
<clipPath id="clip0">
<rect width="20" height="20" fill="white"/>
</clipPath>
</defs>
</svg>
