<svg width="137" height="120" viewBox="0 0 137 120" fill="none" xmlns="http://www.w3.org/2000/svg">
<g clip-path="url(#clip0)">
<path d="M73.2998 56.5972V42.6797H87.2173L73.2998 56.5972Z" fill="#001064"/>
<path d="M128.66 8.34971H54.433C52.8957 8.34971 51.6495 9.59593 51.6495 11.1332V42.061C51.6495 43.5983 52.8957 44.8445 54.433 44.8445H128.66C130.197 44.8445 131.443 43.5983 131.443 42.061V11.1332C131.443 9.59593 130.197 8.34971 128.66 8.34971Z" fill="#001064" stroke="#001064" stroke-width="1.85567"/>
<path d="M131.753 1.23711H57.5262C55.8181 1.23711 54.4334 2.62179 54.4334 4.32989V34.0206C54.4334 35.7287 55.8181 37.1134 57.5262 37.1134H131.753C133.461 37.1134 134.846 35.7287 134.846 34.0206V4.32989C134.846 2.62179 133.461 1.23711 131.753 1.23711Z" fill="white" stroke="#001064" stroke-width="2.47423"/>
<path d="M23.1992 113.055C51.211 113.055 66.529 89.8485 66.529 69.7253C66.529 69.0662 66.5154 68.4098 66.486 67.7569C69.4591 65.6072 72.0437 62.9246 74.0824 59.871C71.354 61.0841 68.4171 61.9001 65.3369 62.2688C68.4811 60.383 70.8952 57.4008 72.0335 53.8455C69.091 55.5898 65.8325 56.8571 62.3633 57.5418C59.5844 54.5817 55.6276 52.7305 51.2467 52.7305C42.837 52.7305 36.017 59.5505 36.017 67.9573C36.017 69.1528 36.1506 70.3149 36.4117 71.4299C23.7547 70.7928 12.5311 64.7333 5.02075 55.5184C3.71315 57.7689 2.95883 60.3835 2.95883 63.1732C2.95883 68.4562 5.64765 73.1209 9.73582 75.8494C7.23728 75.7724 4.8905 75.0866 2.83877 73.9449C2.83651 74.0089 2.83651 74.0712 2.83651 74.1391C2.83651 81.5147 8.0856 87.6727 15.0546 89.0681C13.7747 89.4164 12.428 89.6038 11.0389 89.6038C10.0592 89.6038 9.10439 89.5076 8.17621 89.3292C10.1152 95.3802 15.7375 99.7832 22.403 99.9067C17.1907 103.992 10.6244 106.425 3.48833 106.425C2.26057 106.425 1.04754 106.355 -0.144531 106.215C6.59508 110.535 14.5987 113.056 23.1998 113.056" fill="#1BD4FF"/>
</g>
<defs>
<clipPath id="clip0">
<rect width="137" height="120" fill="white"/>
</clipPath>
</defs>
</svg>
