<svg width="250" height="17" viewBox="0 0 250 17" fill="none" xmlns="http://www.w3.org/2000/svg">
<path d="M22.4358 1.98409C73.0472 1.98409 123.666 0.457649 174.272 1.20695C194.878 1.51204 215.464 1.98409 236.073 1.98409C239.04 1.98409 242.007 1.98409 244.974 1.98409C248.588 1.98409 237.823 3.01224 234.259 3.5939C180.668 12.3387 125.699 15.067 71.4227 15.9173C66.018 16.0019 60.6122 15.9728 55.2071 15.9728C52.8233 15.9728 52.6842 16.0995 54.9803 15.8062C80.8807 12.4987 106.669 11.835 132.77 10.9768C154.575 10.2599 176.378 9.16918 198.199 8.97844C205.068 8.91839 184.511 9.72985 183.571 9.75559C127.883 11.2807 72.2702 6.98005 16.5959 6.98005C-60.884 6.98005 171.52 2.98329 249 2.98329" stroke="#001066" stroke-width="2" stroke-linecap="round" stroke-linejoin="round"/>
</svg>
