<svg width="169" height="17" viewBox="0 0 169 17" fill="none" xmlns="http://www.w3.org/2000/svg"> <path d="M16.3482 1.98409C50.2251 1.98409 84.1068 0.457649 117.981 1.20695C131.773 1.51204 145.553 1.98409 159.347 1.98409C161.333 1.98409 163.319 1.98409 165.305 1.98409C167.724 1.98409 160.519 3.01224 158.133 3.5939C122.261 12.3387 85.468 15.067 49.1377 15.9173C45.5201 16.0019 41.9017 15.9728 38.2838 15.9728C36.6882 15.9728 36.5951 16.0995 38.132 15.8062C55.4686 12.4987 72.7299 11.835 90.2006 10.9768C104.796 10.2599 119.39 9.16918 133.996 8.97844C138.594 8.91839 124.834 9.72985 124.205 9.75559C86.9296 11.2807 49.705 6.98005 12.4392 6.98005C-39.4224 6.98005 116.138 2.98329 168 2.98329" stroke="#001066" stroke-width="2" stroke-linecap="round" stroke-linejoin="round"/> </svg>