<svg width="58" height="58" viewBox="0 0 58 58" fill="none" xmlns="http://www.w3.org/2000/svg">
<circle cx="29" cy="29" r="29" fill="#E9FAF4"/>
<path d="M42.3636 21.5L34.7273 29H40.4545C40.4545 35.2062 35.3191 40.25 29 40.25C27.0718 40.25 25.2391 39.7812 23.6545 38.9375L20.8673 41.675C23.2155 43.1375 26.0027 44 29 44C37.4382 44 44.2727 37.2875 44.2727 29H50L42.3636 21.5ZM17.5455 29C17.5455 22.7937 22.6809 17.75 29 17.75C30.9282 17.75 32.7609 18.2187 34.3455 19.0625L37.1327 16.325C34.7845 14.8625 31.9973 14 29 14C20.5618 14 13.7273 20.7125 13.7273 29H8L15.6364 36.5L23.2727 29H17.5455Z" fill="#001064"/>
</svg>
