<svg width="402" height="402" viewBox="0 0 402 402" fill="none" xmlns="http://www.w3.org/2000/svg">
<mask id="mask0" mask-type="alpha" maskUnits="userSpaceOnUse" x="0" y="0" width="403" height="403">
<ellipse cx="2.1383" cy="2.13878" rx="2.1383" ry="2.1383" fill="black"/>
<ellipse cx="2.1383" cy="156.096" rx="2.1383" ry="2.1383" fill="black"/>
<ellipse cx="2.1383" cy="14.9674" rx="2.1383" ry="2.1383" fill="black"/>
<ellipse cx="2.1383" cy="168.925" rx="2.1383" ry="2.1383" fill="black"/>
<ellipse cx="2.1383" cy="27.798" rx="2.1383" ry="2.1383" fill="black"/>
<ellipse cx="2.1383" cy="181.755" rx="2.1383" ry="2.1383" fill="black"/>
<ellipse cx="2.1383" cy="91.9469" rx="2.1383" ry="2.1383" fill="black"/>
<ellipse cx="2.1383" cy="245.903" rx="2.1383" ry="2.1383" fill="black"/>
<ellipse cx="2.1383" cy="322.883" rx="2.1383" ry="2.1383" fill="black"/>
<ellipse cx="2.1383" cy="40.6276" rx="2.1383" ry="2.1383" fill="black"/>
<ellipse cx="2.1383" cy="194.585" rx="2.1383" ry="2.1383" fill="black"/>
<ellipse cx="2.1383" cy="104.776" rx="2.1383" ry="2.1383" fill="black"/>
<ellipse cx="2.1383" cy="258.733" rx="2.1383" ry="2.1383" fill="black"/>
<ellipse cx="2.1383" cy="335.712" rx="2.1383" ry="2.1383" fill="black"/>
<ellipse cx="2.1383" cy="53.4581" rx="2.1383" ry="2.1383" fill="black"/>
<ellipse cx="2.1383" cy="207.415" rx="2.1383" ry="2.1383" fill="black"/>
<ellipse cx="2.1383" cy="117.606" rx="2.1383" ry="2.1383" fill="black"/>
<ellipse cx="2.1383" cy="271.564" rx="2.1383" ry="2.1383" fill="black"/>
<ellipse cx="2.1383" cy="348.542" rx="2.1383" ry="2.1383" fill="black"/>
<ellipse cx="2.1383" cy="66.2872" rx="2.1383" ry="2.1383" fill="black"/>
<ellipse cx="2.1383" cy="220.243" rx="2.1383" ry="2.1383" fill="black"/>
<ellipse cx="2.1383" cy="130.436" rx="2.1383" ry="2.1383" fill="black"/>
<ellipse cx="2.1383" cy="284.393" rx="2.1383" ry="2.1383" fill="black"/>
<ellipse cx="2.1383" cy="361.373" rx="2.1383" ry="2.1383" fill="black"/>
<ellipse cx="2.1383" cy="387.032" rx="2.1383" ry="2.1383" fill="black"/>
<ellipse cx="2.1383" cy="79.1163" rx="2.1383" ry="2.1383" fill="black"/>
<ellipse cx="2.1383" cy="233.074" rx="2.1383" ry="2.1383" fill="black"/>
<ellipse cx="2.1383" cy="310.053" rx="2.1383" ry="2.1383" fill="black"/>
<ellipse cx="2.1383" cy="143.265" rx="2.1383" ry="2.1383" fill="black"/>
<ellipse cx="2.1383" cy="297.224" rx="2.1383" ry="2.1383" fill="black"/>
<ellipse cx="2.1383" cy="374.202" rx="2.1383" ry="2.1383" fill="black"/>
<ellipse cx="2.1383" cy="399.862" rx="2.1383" ry="2.1383" fill="black"/>
<ellipse cx="207.416" cy="2.1383" rx="2.1383" ry="2.1383" fill="black"/>
<ellipse cx="207.416" cy="156.096" rx="2.1383" ry="2.1383" fill="black"/>
<ellipse cx="207.416" cy="14.9674" rx="2.1383" ry="2.1383" fill="black"/>
<ellipse cx="207.416" cy="168.925" rx="2.1383" ry="2.1383" fill="black"/>
<ellipse cx="207.416" cy="27.798" rx="2.1383" ry="2.1383" fill="black"/>
<ellipse cx="207.416" cy="181.755" rx="2.1383" ry="2.1383" fill="black"/>
<ellipse cx="207.416" cy="91.9469" rx="2.1383" ry="2.1383" fill="black"/>
<ellipse cx="207.416" cy="245.903" rx="2.1383" ry="2.1383" fill="black"/>
<ellipse cx="207.416" cy="322.883" rx="2.1383" ry="2.1383" fill="black"/>
<ellipse cx="207.416" cy="40.6276" rx="2.1383" ry="2.1383" fill="black"/>
<ellipse cx="207.416" cy="194.585" rx="2.1383" ry="2.1383" fill="black"/>
<ellipse cx="207.416" cy="104.776" rx="2.1383" ry="2.1383" fill="black"/>
<ellipse cx="207.416" cy="258.733" rx="2.1383" ry="2.1383" fill="black"/>
<ellipse cx="207.416" cy="335.712" rx="2.1383" ry="2.1383" fill="black"/>
<ellipse cx="207.416" cy="53.4581" rx="2.1383" ry="2.1383" fill="black"/>
<ellipse cx="207.416" cy="207.415" rx="2.1383" ry="2.1383" fill="black"/>
<ellipse cx="207.416" cy="117.606" rx="2.1383" ry="2.1383" fill="black"/>
<ellipse cx="207.416" cy="271.564" rx="2.1383" ry="2.1383" fill="black"/>
<ellipse cx="207.416" cy="348.542" rx="2.1383" ry="2.1383" fill="black"/>
<ellipse cx="207.416" cy="66.2872" rx="2.1383" ry="2.1383" fill="black"/>
<ellipse cx="207.416" cy="220.243" rx="2.1383" ry="2.1383" fill="black"/>
<ellipse cx="207.416" cy="130.436" rx="2.1383" ry="2.1383" fill="black"/>
<ellipse cx="207.416" cy="284.393" rx="2.1383" ry="2.1383" fill="black"/>
<ellipse cx="207.416" cy="361.373" rx="2.1383" ry="2.1383" fill="black"/>
<ellipse cx="207.416" cy="387.032" rx="2.1383" ry="2.1383" fill="black"/>
<ellipse cx="207.416" cy="79.1163" rx="2.1383" ry="2.1383" fill="black"/>
<ellipse cx="207.416" cy="233.074" rx="2.1383" ry="2.1383" fill="black"/>
<ellipse cx="207.416" cy="310.053" rx="2.1383" ry="2.1383" fill="black"/>
<ellipse cx="207.416" cy="143.265" rx="2.1383" ry="2.1383" fill="black"/>
<ellipse cx="207.416" cy="297.224" rx="2.1383" ry="2.1383" fill="black"/>
<ellipse cx="207.416" cy="374.202" rx="2.1383" ry="2.1383" fill="black"/>
<ellipse cx="207.416" cy="399.862" rx="2.1383" ry="2.1383" fill="black"/>
<ellipse cx="104.777" cy="2.1383" rx="2.1383" ry="2.1383" fill="black"/>
<ellipse cx="104.777" cy="156.096" rx="2.1383" ry="2.1383" fill="black"/>
<ellipse cx="104.777" cy="14.9674" rx="2.1383" ry="2.1383" fill="black"/>
<ellipse cx="104.777" cy="168.925" rx="2.1383" ry="2.1383" fill="black"/>
<ellipse cx="104.777" cy="27.798" rx="2.1383" ry="2.1383" fill="black"/>
<ellipse cx="104.777" cy="181.755" rx="2.1383" ry="2.1383" fill="black"/>
<ellipse cx="104.777" cy="91.9469" rx="2.1383" ry="2.1383" fill="black"/>
<ellipse cx="104.777" cy="245.903" rx="2.1383" ry="2.1383" fill="black"/>
<ellipse cx="104.777" cy="322.883" rx="2.1383" ry="2.1383" fill="black"/>
<ellipse cx="104.777" cy="40.6276" rx="2.1383" ry="2.1383" fill="black"/>
<ellipse cx="104.777" cy="194.585" rx="2.1383" ry="2.1383" fill="black"/>
<ellipse cx="104.777" cy="104.776" rx="2.1383" ry="2.1383" fill="black"/>
<ellipse cx="104.777" cy="258.733" rx="2.1383" ry="2.1383" fill="black"/>
<ellipse cx="104.777" cy="335.712" rx="2.1383" ry="2.1383" fill="black"/>
<ellipse cx="104.777" cy="53.4581" rx="2.1383" ry="2.1383" fill="black"/>
<ellipse cx="104.777" cy="207.415" rx="2.1383" ry="2.1383" fill="black"/>
<ellipse cx="104.777" cy="117.606" rx="2.1383" ry="2.1383" fill="black"/>
<ellipse cx="104.777" cy="271.564" rx="2.1383" ry="2.1383" fill="black"/>
<ellipse cx="104.777" cy="348.542" rx="2.1383" ry="2.1383" fill="black"/>
<ellipse cx="104.777" cy="66.2872" rx="2.1383" ry="2.1383" fill="black"/>
<ellipse cx="104.777" cy="220.243" rx="2.1383" ry="2.1383" fill="black"/>
<ellipse cx="104.777" cy="130.436" rx="2.1383" ry="2.1383" fill="black"/>
<ellipse cx="104.777" cy="284.393" rx="2.1383" ry="2.1383" fill="black"/>
<ellipse cx="104.777" cy="361.373" rx="2.1383" ry="2.1383" fill="black"/>
<ellipse cx="104.777" cy="387.032" rx="2.1383" ry="2.1383" fill="black"/>
<ellipse cx="104.777" cy="79.1163" rx="2.1383" ry="2.1383" fill="black"/>
<ellipse cx="104.777" cy="233.074" rx="2.1383" ry="2.1383" fill="black"/>
<ellipse cx="104.777" cy="310.053" rx="2.1383" ry="2.1383" fill="black"/>
<ellipse cx="104.777" cy="143.265" rx="2.1383" ry="2.1383" fill="black"/>
<ellipse cx="104.777" cy="297.224" rx="2.1383" ry="2.1383" fill="black"/>
<ellipse cx="104.777" cy="374.202" rx="2.1383" ry="2.1383" fill="black"/>
<ellipse cx="104.777" cy="399.862" rx="2.1383" ry="2.1383" fill="black"/>
<ellipse cx="310.052" cy="2.1383" rx="2.1383" ry="2.1383" fill="black"/>
<ellipse cx="310.054" cy="156.096" rx="2.1383" ry="2.1383" fill="black"/>
<ellipse cx="310.054" cy="14.9674" rx="2.1383" ry="2.1383" fill="black"/>
<ellipse cx="310.052" cy="168.925" rx="2.1383" ry="2.1383" fill="black"/>
<ellipse cx="310.054" cy="27.798" rx="2.1383" ry="2.1383" fill="black"/>
<ellipse cx="310.054" cy="181.755" rx="2.1383" ry="2.1383" fill="black"/>
<ellipse cx="310.052" cy="91.9469" rx="2.1383" ry="2.1383" fill="black"/>
<ellipse cx="310.054" cy="245.903" rx="2.1383" ry="2.1383" fill="black"/>
<ellipse cx="310.054" cy="322.883" rx="2.1383" ry="2.1383" fill="black"/>
<ellipse cx="310.052" cy="40.6276" rx="2.1383" ry="2.1383" fill="black"/>
<ellipse cx="310.052" cy="194.585" rx="2.1383" ry="2.1383" fill="black"/>
<ellipse cx="310.052" cy="104.776" rx="2.1383" ry="2.1383" fill="black"/>
<ellipse cx="310.054" cy="258.733" rx="2.1383" ry="2.1383" fill="black"/>
<ellipse cx="310.052" cy="335.712" rx="2.1383" ry="2.1383" fill="black"/>
<ellipse cx="310.054" cy="53.4581" rx="2.1383" ry="2.1383" fill="black"/>
<ellipse cx="310.052" cy="207.415" rx="2.1383" ry="2.1383" fill="black"/>
<ellipse cx="310.054" cy="117.606" rx="2.1383" ry="2.1383" fill="black"/>
<ellipse cx="310.052" cy="271.564" rx="2.1383" ry="2.1383" fill="black"/>
<ellipse cx="310.054" cy="348.542" rx="2.1383" ry="2.1383" fill="black"/>
<ellipse cx="310.052" cy="66.2872" rx="2.1383" ry="2.1383" fill="black"/>
<ellipse cx="310.054" cy="220.243" rx="2.1383" ry="2.1383" fill="black"/>
<ellipse cx="310.052" cy="130.436" rx="2.1383" ry="2.1383" fill="black"/>
<ellipse cx="310.052" cy="284.393" rx="2.1383" ry="2.1383" fill="black"/>
<ellipse cx="310.054" cy="361.373" rx="2.1383" ry="2.1383" fill="black"/>
<ellipse cx="310.054" cy="387.032" rx="2.1383" ry="2.1383" fill="black"/>
<ellipse cx="310.054" cy="79.1163" rx="2.1383" ry="2.1383" fill="black"/>
<ellipse cx="310.052" cy="233.074" rx="2.1383" ry="2.1383" fill="black"/>
<ellipse cx="310.052" cy="310.053" rx="2.1383" ry="2.1383" fill="black"/>
<ellipse cx="310.052" cy="143.265" rx="2.1383" ry="2.1383" fill="black"/>
<ellipse cx="310.054" cy="297.224" rx="2.1383" ry="2.1383" fill="black"/>
<ellipse cx="310.052" cy="374.202" rx="2.1383" ry="2.1383" fill="black"/>
<ellipse cx="310.054" cy="399.862" rx="2.1383" ry="2.1383" fill="black"/>
<ellipse cx="53.4567" cy="2.1383" rx="2.1383" ry="2.1383" fill="black"/>
<ellipse cx="53.4567" cy="156.096" rx="2.1383" ry="2.1383" fill="black"/>
<ellipse cx="53.4567" cy="14.9674" rx="2.1383" ry="2.1383" fill="black"/>
<ellipse cx="53.4567" cy="168.925" rx="2.1383" ry="2.1383" fill="black"/>
<ellipse cx="53.4567" cy="27.798" rx="2.1383" ry="2.1383" fill="black"/>
<ellipse cx="53.4567" cy="181.755" rx="2.1383" ry="2.1383" fill="black"/>
<ellipse cx="53.4567" cy="91.9469" rx="2.1383" ry="2.1383" fill="black"/>
<ellipse cx="53.4567" cy="245.903" rx="2.1383" ry="2.1383" fill="black"/>
<ellipse cx="53.4567" cy="322.883" rx="2.1383" ry="2.1383" fill="black"/>
<ellipse cx="53.4567" cy="40.6276" rx="2.1383" ry="2.1383" fill="black"/>
<ellipse cx="53.4567" cy="194.585" rx="2.1383" ry="2.1383" fill="black"/>
<ellipse cx="53.4567" cy="104.776" rx="2.1383" ry="2.1383" fill="black"/>
<ellipse cx="53.4567" cy="258.733" rx="2.1383" ry="2.1383" fill="black"/>
<ellipse cx="53.4567" cy="335.712" rx="2.1383" ry="2.1383" fill="black"/>
<ellipse cx="53.4567" cy="53.4581" rx="2.1383" ry="2.1383" fill="black"/>
<ellipse cx="53.4567" cy="207.415" rx="2.1383" ry="2.1383" fill="black"/>
<ellipse cx="53.4567" cy="117.606" rx="2.1383" ry="2.1383" fill="black"/>
<ellipse cx="53.4567" cy="271.564" rx="2.1383" ry="2.1383" fill="black"/>
<ellipse cx="53.4567" cy="348.542" rx="2.1383" ry="2.1383" fill="black"/>
<ellipse cx="53.4567" cy="66.2872" rx="2.1383" ry="2.1383" fill="black"/>
<ellipse cx="53.4567" cy="220.243" rx="2.1383" ry="2.1383" fill="black"/>
<ellipse cx="53.4567" cy="130.436" rx="2.1383" ry="2.1383" fill="black"/>
<ellipse cx="53.4567" cy="284.393" rx="2.1383" ry="2.1383" fill="black"/>
<ellipse cx="53.4567" cy="361.373" rx="2.1383" ry="2.1383" fill="black"/>
<ellipse cx="53.4567" cy="387.032" rx="2.1383" ry="2.1383" fill="black"/>
<ellipse cx="53.4567" cy="79.1163" rx="2.1383" ry="2.1383" fill="black"/>
<ellipse cx="53.4567" cy="233.074" rx="2.1383" ry="2.1383" fill="black"/>
<ellipse cx="53.4567" cy="310.053" rx="2.1383" ry="2.1383" fill="black"/>
<ellipse cx="53.4567" cy="143.265" rx="2.1383" ry="2.1383" fill="black"/>
<ellipse cx="53.4567" cy="297.224" rx="2.1383" ry="2.1383" fill="black"/>
<ellipse cx="53.4567" cy="374.202" rx="2.1383" ry="2.1383" fill="black"/>
<ellipse cx="53.4567" cy="399.862" rx="2.1383" ry="2.1383" fill="black"/>
<ellipse cx="258.734" cy="2.1383" rx="2.1383" ry="2.1383" fill="black"/>
<ellipse cx="258.736" cy="156.096" rx="2.1383" ry="2.1383" fill="black"/>
<ellipse cx="258.736" cy="14.9674" rx="2.1383" ry="2.1383" fill="black"/>
<ellipse cx="258.734" cy="168.925" rx="2.1383" ry="2.1383" fill="black"/>
<ellipse cx="258.736" cy="27.798" rx="2.1383" ry="2.1383" fill="black"/>
<ellipse cx="258.736" cy="181.755" rx="2.1383" ry="2.1383" fill="black"/>
<ellipse cx="258.734" cy="91.9469" rx="2.1383" ry="2.1383" fill="black"/>
<ellipse cx="258.736" cy="245.903" rx="2.1383" ry="2.1383" fill="black"/>
<ellipse cx="258.736" cy="322.883" rx="2.1383" ry="2.1383" fill="black"/>
<ellipse cx="258.734" cy="40.6276" rx="2.1383" ry="2.1383" fill="black"/>
<ellipse cx="258.734" cy="194.585" rx="2.1383" ry="2.1383" fill="black"/>
<ellipse cx="258.734" cy="104.776" rx="2.1383" ry="2.1383" fill="black"/>
<ellipse cx="258.736" cy="258.733" rx="2.1383" ry="2.1383" fill="black"/>
<ellipse cx="258.734" cy="335.712" rx="2.1383" ry="2.1383" fill="black"/>
<ellipse cx="258.736" cy="53.4581" rx="2.1383" ry="2.1383" fill="black"/>
<ellipse cx="258.734" cy="207.415" rx="2.1383" ry="2.1383" fill="black"/>
<ellipse cx="258.736" cy="117.606" rx="2.1383" ry="2.1383" fill="black"/>
<ellipse cx="258.734" cy="271.564" rx="2.1383" ry="2.1383" fill="black"/>
<ellipse cx="258.736" cy="348.542" rx="2.1383" ry="2.1383" fill="black"/>
<ellipse cx="258.734" cy="66.2872" rx="2.1383" ry="2.1383" fill="black"/>
<ellipse cx="258.736" cy="220.243" rx="2.1383" ry="2.1383" fill="black"/>
<ellipse cx="258.734" cy="130.436" rx="2.1383" ry="2.1383" fill="black"/>
<ellipse cx="258.734" cy="284.393" rx="2.1383" ry="2.1383" fill="black"/>
<ellipse cx="258.736" cy="361.373" rx="2.1383" ry="2.1383" fill="black"/>
<ellipse cx="258.736" cy="387.032" rx="2.1383" ry="2.1383" fill="black"/>
<ellipse cx="258.736" cy="79.1163" rx="2.1383" ry="2.1383" fill="black"/>
<ellipse cx="258.734" cy="233.074" rx="2.1383" ry="2.1383" fill="black"/>
<ellipse cx="258.734" cy="310.053" rx="2.1383" ry="2.1383" fill="black"/>
<ellipse cx="258.734" cy="143.265" rx="2.1383" ry="2.1383" fill="black"/>
<ellipse cx="258.736" cy="297.224" rx="2.1383" ry="2.1383" fill="black"/>
<ellipse cx="258.734" cy="374.202" rx="2.1383" ry="2.1383" fill="black"/>
<ellipse cx="258.736" cy="399.862" rx="2.1383" ry="2.1383" fill="black"/>
<ellipse cx="156.095" cy="2.1383" rx="2.1383" ry="2.1383" fill="black"/>
<ellipse cx="156.095" cy="156.096" rx="2.1383" ry="2.1383" fill="black"/>
<ellipse cx="156.095" cy="14.9674" rx="2.1383" ry="2.1383" fill="black"/>
<ellipse cx="156.095" cy="168.925" rx="2.1383" ry="2.1383" fill="black"/>
<ellipse cx="156.095" cy="27.798" rx="2.1383" ry="2.1383" fill="black"/>
<ellipse cx="156.095" cy="181.755" rx="2.1383" ry="2.1383" fill="black"/>
<ellipse cx="156.095" cy="91.9469" rx="2.1383" ry="2.1383" fill="black"/>
<ellipse cx="156.095" cy="245.903" rx="2.1383" ry="2.1383" fill="black"/>
<ellipse cx="156.095" cy="322.883" rx="2.1383" ry="2.1383" fill="black"/>
<ellipse cx="156.095" cy="40.6276" rx="2.1383" ry="2.1383" fill="black"/>
<ellipse cx="156.095" cy="194.585" rx="2.1383" ry="2.1383" fill="black"/>
<ellipse cx="156.095" cy="104.776" rx="2.1383" ry="2.1383" fill="black"/>
<ellipse cx="156.095" cy="258.733" rx="2.1383" ry="2.1383" fill="black"/>
<ellipse cx="156.095" cy="335.712" rx="2.1383" ry="2.1383" fill="black"/>
<ellipse cx="156.095" cy="53.4581" rx="2.1383" ry="2.1383" fill="black"/>
<ellipse cx="156.095" cy="207.415" rx="2.1383" ry="2.1383" fill="black"/>
<ellipse cx="156.095" cy="117.606" rx="2.1383" ry="2.1383" fill="black"/>
<ellipse cx="156.095" cy="271.564" rx="2.1383" ry="2.1383" fill="black"/>
<ellipse cx="156.095" cy="348.542" rx="2.1383" ry="2.1383" fill="black"/>
<ellipse cx="156.095" cy="66.2872" rx="2.1383" ry="2.1383" fill="black"/>
<ellipse cx="156.095" cy="220.243" rx="2.1383" ry="2.1383" fill="black"/>
<ellipse cx="156.095" cy="130.436" rx="2.1383" ry="2.1383" fill="black"/>
<ellipse cx="156.095" cy="284.393" rx="2.1383" ry="2.1383" fill="black"/>
<ellipse cx="156.095" cy="361.373" rx="2.1383" ry="2.1383" fill="black"/>
<ellipse cx="156.095" cy="387.032" rx="2.1383" ry="2.1383" fill="black"/>
<ellipse cx="156.095" cy="79.1163" rx="2.1383" ry="2.1383" fill="black"/>
<ellipse cx="156.095" cy="233.074" rx="2.1383" ry="2.1383" fill="black"/>
<ellipse cx="156.095" cy="310.053" rx="2.1383" ry="2.1383" fill="black"/>
<ellipse cx="156.095" cy="143.265" rx="2.1383" ry="2.1383" fill="black"/>
<ellipse cx="156.095" cy="297.224" rx="2.1383" ry="2.1383" fill="black"/>
<ellipse cx="156.095" cy="374.202" rx="2.1383" ry="2.1383" fill="black"/>
<ellipse cx="156.095" cy="399.862" rx="2.1383" ry="2.1383" fill="black"/>
<ellipse cx="361.373" cy="2.1383" rx="2.1383" ry="2.1383" fill="black"/>
<ellipse cx="361.373" cy="156.096" rx="2.1383" ry="2.1383" fill="black"/>
<ellipse cx="361.373" cy="14.9674" rx="2.1383" ry="2.1383" fill="black"/>
<ellipse cx="361.373" cy="168.925" rx="2.1383" ry="2.1383" fill="black"/>
<ellipse cx="361.373" cy="27.798" rx="2.1383" ry="2.1383" fill="black"/>
<ellipse cx="361.373" cy="181.755" rx="2.1383" ry="2.1383" fill="black"/>
<ellipse cx="361.373" cy="91.9469" rx="2.1383" ry="2.1383" fill="black"/>
<ellipse cx="361.373" cy="245.903" rx="2.1383" ry="2.1383" fill="black"/>
<ellipse cx="361.373" cy="322.883" rx="2.1383" ry="2.1383" fill="black"/>
<ellipse cx="361.373" cy="40.6276" rx="2.1383" ry="2.1383" fill="black"/>
<ellipse cx="361.373" cy="194.585" rx="2.1383" ry="2.1383" fill="black"/>
<ellipse cx="361.373" cy="104.776" rx="2.1383" ry="2.1383" fill="black"/>
<ellipse cx="361.373" cy="258.733" rx="2.1383" ry="2.1383" fill="black"/>
<ellipse cx="361.373" cy="335.712" rx="2.1383" ry="2.1383" fill="black"/>
<ellipse cx="361.373" cy="53.4581" rx="2.1383" ry="2.1383" fill="black"/>
<ellipse cx="361.373" cy="207.415" rx="2.1383" ry="2.1383" fill="black"/>
<ellipse cx="361.373" cy="117.606" rx="2.1383" ry="2.1383" fill="black"/>
<ellipse cx="361.373" cy="271.564" rx="2.1383" ry="2.1383" fill="black"/>
<ellipse cx="361.373" cy="348.542" rx="2.1383" ry="2.1383" fill="black"/>
<ellipse cx="361.373" cy="66.2872" rx="2.1383" ry="2.1383" fill="black"/>
<ellipse cx="361.373" cy="220.243" rx="2.1383" ry="2.1383" fill="black"/>
<ellipse cx="361.373" cy="130.436" rx="2.1383" ry="2.1383" fill="black"/>
<ellipse cx="361.373" cy="284.393" rx="2.1383" ry="2.1383" fill="black"/>
<ellipse cx="361.373" cy="361.373" rx="2.1383" ry="2.1383" fill="black"/>
<ellipse cx="361.373" cy="387.032" rx="2.1383" ry="2.1383" fill="black"/>
<ellipse cx="361.373" cy="79.1163" rx="2.1383" ry="2.1383" fill="black"/>
<ellipse cx="361.373" cy="233.074" rx="2.1383" ry="2.1383" fill="black"/>
<ellipse cx="361.373" cy="310.053" rx="2.1383" ry="2.1383" fill="black"/>
<ellipse cx="361.373" cy="143.265" rx="2.1383" ry="2.1383" fill="black"/>
<ellipse cx="361.373" cy="297.224" rx="2.1383" ry="2.1383" fill="black"/>
<ellipse cx="361.373" cy="374.202" rx="2.1383" ry="2.1383" fill="black"/>
<ellipse cx="361.373" cy="399.862" rx="2.1383" ry="2.1383" fill="black"/>
<ellipse cx="27.7985" cy="2.1383" rx="2.1383" ry="2.1383" fill="black"/>
<ellipse cx="27.7985" cy="156.096" rx="2.1383" ry="2.1383" fill="black"/>
<ellipse cx="27.7985" cy="14.9674" rx="2.1383" ry="2.1383" fill="black"/>
<ellipse cx="27.7985" cy="168.925" rx="2.1383" ry="2.1383" fill="black"/>
<ellipse cx="27.7985" cy="27.798" rx="2.1383" ry="2.1383" fill="black"/>
<ellipse cx="27.7985" cy="181.755" rx="2.1383" ry="2.1383" fill="black"/>
<ellipse cx="27.7985" cy="91.9469" rx="2.1383" ry="2.1383" fill="black"/>
<ellipse cx="27.7985" cy="245.903" rx="2.1383" ry="2.1383" fill="black"/>
<ellipse cx="27.7985" cy="322.883" rx="2.1383" ry="2.1383" fill="black"/>
<ellipse cx="27.7985" cy="40.6276" rx="2.1383" ry="2.1383" fill="black"/>
<ellipse cx="27.7985" cy="194.585" rx="2.1383" ry="2.1383" fill="black"/>
<ellipse cx="27.7985" cy="104.776" rx="2.1383" ry="2.1383" fill="black"/>
<ellipse cx="27.7985" cy="258.733" rx="2.1383" ry="2.1383" fill="black"/>
<ellipse cx="27.7985" cy="335.712" rx="2.1383" ry="2.1383" fill="black"/>
<ellipse cx="27.7985" cy="53.4581" rx="2.1383" ry="2.1383" fill="black"/>
<ellipse cx="27.7985" cy="207.415" rx="2.1383" ry="2.1383" fill="black"/>
<ellipse cx="27.7985" cy="117.606" rx="2.1383" ry="2.1383" fill="black"/>
<ellipse cx="27.7985" cy="271.564" rx="2.1383" ry="2.1383" fill="black"/>
<ellipse cx="27.7985" cy="348.542" rx="2.1383" ry="2.1383" fill="black"/>
<ellipse cx="27.7985" cy="66.2872" rx="2.1383" ry="2.1383" fill="black"/>
<ellipse cx="27.7985" cy="220.243" rx="2.1383" ry="2.1383" fill="black"/>
<ellipse cx="27.7985" cy="130.436" rx="2.1383" ry="2.1383" fill="black"/>
<ellipse cx="27.7985" cy="284.393" rx="2.1383" ry="2.1383" fill="black"/>
<ellipse cx="27.7985" cy="361.373" rx="2.1383" ry="2.1383" fill="black"/>
<ellipse cx="27.7985" cy="387.032" rx="2.1383" ry="2.1383" fill="black"/>
<ellipse cx="27.7985" cy="79.1163" rx="2.1383" ry="2.1383" fill="black"/>
<ellipse cx="27.7985" cy="233.074" rx="2.1383" ry="2.1383" fill="black"/>
<ellipse cx="27.7985" cy="310.053" rx="2.1383" ry="2.1383" fill="black"/>
<ellipse cx="27.7985" cy="143.265" rx="2.1383" ry="2.1383" fill="black"/>
<ellipse cx="27.7985" cy="297.224" rx="2.1383" ry="2.1383" fill="black"/>
<ellipse cx="27.7985" cy="374.202" rx="2.1383" ry="2.1383" fill="black"/>
<ellipse cx="27.7985" cy="399.862" rx="2.1383" ry="2.1383" fill="black"/>
<ellipse cx="233.074" cy="2.1383" rx="2.1383" ry="2.1383" fill="black"/>
<ellipse cx="233.074" cy="156.096" rx="2.1383" ry="2.1383" fill="black"/>
<ellipse cx="233.074" cy="14.9674" rx="2.1383" ry="2.1383" fill="black"/>
<ellipse cx="233.074" cy="168.925" rx="2.1383" ry="2.1383" fill="black"/>
<ellipse cx="233.074" cy="27.798" rx="2.1383" ry="2.1383" fill="black"/>
<ellipse cx="233.074" cy="181.755" rx="2.1383" ry="2.1383" fill="black"/>
<ellipse cx="233.074" cy="91.9469" rx="2.1383" ry="2.1383" fill="black"/>
<ellipse cx="233.074" cy="245.903" rx="2.1383" ry="2.1383" fill="black"/>
<ellipse cx="233.074" cy="322.883" rx="2.1383" ry="2.1383" fill="black"/>
<ellipse cx="233.074" cy="40.6276" rx="2.1383" ry="2.1383" fill="black"/>
<ellipse cx="233.074" cy="194.585" rx="2.1383" ry="2.1383" fill="black"/>
<ellipse cx="233.074" cy="104.776" rx="2.1383" ry="2.1383" fill="black"/>
<ellipse cx="233.074" cy="258.733" rx="2.1383" ry="2.1383" fill="black"/>
<ellipse cx="233.074" cy="335.712" rx="2.1383" ry="2.1383" fill="black"/>
<ellipse cx="233.074" cy="53.4581" rx="2.1383" ry="2.1383" fill="black"/>
<ellipse cx="233.074" cy="207.415" rx="2.1383" ry="2.1383" fill="black"/>
<ellipse cx="233.074" cy="117.606" rx="2.1383" ry="2.1383" fill="black"/>
<ellipse cx="233.074" cy="271.564" rx="2.1383" ry="2.1383" fill="black"/>
<ellipse cx="233.074" cy="348.542" rx="2.1383" ry="2.1383" fill="black"/>
<ellipse cx="233.074" cy="66.2872" rx="2.1383" ry="2.1383" fill="black"/>
<ellipse cx="233.074" cy="220.243" rx="2.1383" ry="2.1383" fill="black"/>
<ellipse cx="233.074" cy="130.436" rx="2.1383" ry="2.1383" fill="black"/>
<ellipse cx="233.074" cy="284.393" rx="2.1383" ry="2.1383" fill="black"/>
<ellipse cx="233.074" cy="361.373" rx="2.1383" ry="2.1383" fill="black"/>
<ellipse cx="233.074" cy="387.032" rx="2.1383" ry="2.1383" fill="black"/>
<ellipse cx="233.074" cy="79.1163" rx="2.1383" ry="2.1383" fill="black"/>
<ellipse cx="233.074" cy="233.074" rx="2.1383" ry="2.1383" fill="black"/>
<ellipse cx="233.074" cy="310.053" rx="2.1383" ry="2.1383" fill="black"/>
<ellipse cx="233.074" cy="143.265" rx="2.1383" ry="2.1383" fill="black"/>
<ellipse cx="233.074" cy="297.224" rx="2.1383" ry="2.1383" fill="black"/>
<ellipse cx="233.074" cy="374.202" rx="2.1383" ry="2.1383" fill="black"/>
<ellipse cx="233.074" cy="399.862" rx="2.1383" ry="2.1383" fill="black"/>
<ellipse cx="130.435" cy="2.1383" rx="2.1383" ry="2.1383" fill="black"/>
<ellipse cx="130.435" cy="156.096" rx="2.1383" ry="2.1383" fill="black"/>
<ellipse cx="130.435" cy="14.9674" rx="2.1383" ry="2.1383" fill="black"/>
<ellipse cx="130.435" cy="168.925" rx="2.1383" ry="2.1383" fill="black"/>
<ellipse cx="130.435" cy="27.798" rx="2.1383" ry="2.1383" fill="black"/>
<ellipse cx="130.435" cy="181.755" rx="2.1383" ry="2.1383" fill="black"/>
<ellipse cx="130.435" cy="91.9469" rx="2.1383" ry="2.1383" fill="black"/>
<ellipse cx="130.435" cy="245.903" rx="2.1383" ry="2.1383" fill="black"/>
<ellipse cx="130.435" cy="322.883" rx="2.1383" ry="2.1383" fill="black"/>
<ellipse cx="130.435" cy="40.6276" rx="2.1383" ry="2.1383" fill="black"/>
<ellipse cx="130.435" cy="194.585" rx="2.1383" ry="2.1383" fill="black"/>
<ellipse cx="130.435" cy="104.776" rx="2.1383" ry="2.1383" fill="black"/>
<ellipse cx="130.435" cy="258.733" rx="2.1383" ry="2.1383" fill="black"/>
<ellipse cx="130.435" cy="335.712" rx="2.1383" ry="2.1383" fill="black"/>
<ellipse cx="130.435" cy="53.4581" rx="2.1383" ry="2.1383" fill="black"/>
<ellipse cx="130.435" cy="207.415" rx="2.1383" ry="2.1383" fill="black"/>
<ellipse cx="130.435" cy="117.606" rx="2.1383" ry="2.1383" fill="black"/>
<ellipse cx="130.435" cy="271.564" rx="2.1383" ry="2.1383" fill="black"/>
<ellipse cx="130.435" cy="348.542" rx="2.1383" ry="2.1383" fill="black"/>
<ellipse cx="130.435" cy="66.2872" rx="2.1383" ry="2.1383" fill="black"/>
<ellipse cx="130.435" cy="220.243" rx="2.1383" ry="2.1383" fill="black"/>
<ellipse cx="130.435" cy="130.436" rx="2.1383" ry="2.1383" fill="black"/>
<ellipse cx="130.435" cy="284.393" rx="2.1383" ry="2.1383" fill="black"/>
<ellipse cx="130.435" cy="361.373" rx="2.1383" ry="2.1383" fill="black"/>
<ellipse cx="130.435" cy="387.032" rx="2.1383" ry="2.1383" fill="black"/>
<ellipse cx="130.435" cy="79.1163" rx="2.1383" ry="2.1383" fill="black"/>
<ellipse cx="130.435" cy="233.074" rx="2.1383" ry="2.1383" fill="black"/>
<ellipse cx="130.435" cy="310.053" rx="2.1383" ry="2.1383" fill="black"/>
<ellipse cx="130.435" cy="143.265" rx="2.1383" ry="2.1383" fill="black"/>
<ellipse cx="130.435" cy="297.224" rx="2.1383" ry="2.1383" fill="black"/>
<ellipse cx="130.435" cy="374.202" rx="2.1383" ry="2.1383" fill="black"/>
<ellipse cx="130.435" cy="399.862" rx="2.1383" ry="2.1383" fill="black"/>
<ellipse cx="335.713" cy="2.1383" rx="2.1383" ry="2.1383" fill="black"/>
<ellipse cx="335.713" cy="156.096" rx="2.1383" ry="2.1383" fill="black"/>
<ellipse cx="335.713" cy="14.9674" rx="2.1383" ry="2.1383" fill="black"/>
<ellipse cx="335.713" cy="168.925" rx="2.1383" ry="2.1383" fill="black"/>
<ellipse cx="335.713" cy="27.798" rx="2.1383" ry="2.1383" fill="black"/>
<ellipse cx="335.713" cy="181.755" rx="2.1383" ry="2.1383" fill="black"/>
<ellipse cx="335.713" cy="91.9469" rx="2.1383" ry="2.1383" fill="black"/>
<ellipse cx="335.713" cy="245.903" rx="2.1383" ry="2.1383" fill="black"/>
<ellipse cx="335.713" cy="322.883" rx="2.1383" ry="2.1383" fill="black"/>
<ellipse cx="335.713" cy="40.6276" rx="2.1383" ry="2.1383" fill="black"/>
<ellipse cx="335.713" cy="194.585" rx="2.1383" ry="2.1383" fill="black"/>
<ellipse cx="335.713" cy="104.776" rx="2.1383" ry="2.1383" fill="black"/>
<ellipse cx="335.713" cy="258.733" rx="2.1383" ry="2.1383" fill="black"/>
<ellipse cx="335.713" cy="335.712" rx="2.1383" ry="2.1383" fill="black"/>
<ellipse cx="335.713" cy="53.4581" rx="2.1383" ry="2.1383" fill="black"/>
<ellipse cx="335.713" cy="207.415" rx="2.1383" ry="2.1383" fill="black"/>
<ellipse cx="335.713" cy="117.606" rx="2.1383" ry="2.1383" fill="black"/>
<ellipse cx="335.713" cy="271.564" rx="2.1383" ry="2.1383" fill="black"/>
<ellipse cx="335.713" cy="348.542" rx="2.1383" ry="2.1383" fill="black"/>
<ellipse cx="335.713" cy="66.2872" rx="2.1383" ry="2.1383" fill="black"/>
<ellipse cx="335.713" cy="220.243" rx="2.1383" ry="2.1383" fill="black"/>
<ellipse cx="335.713" cy="130.436" rx="2.1383" ry="2.1383" fill="black"/>
<ellipse cx="335.713" cy="284.393" rx="2.1383" ry="2.1383" fill="black"/>
<ellipse cx="335.713" cy="361.373" rx="2.1383" ry="2.1383" fill="black"/>
<ellipse cx="335.713" cy="387.032" rx="2.1383" ry="2.1383" fill="black"/>
<ellipse cx="335.713" cy="79.1163" rx="2.1383" ry="2.1383" fill="black"/>
<ellipse cx="335.713" cy="233.074" rx="2.1383" ry="2.1383" fill="black"/>
<ellipse cx="335.713" cy="310.053" rx="2.1383" ry="2.1383" fill="black"/>
<ellipse cx="335.713" cy="143.265" rx="2.1383" ry="2.1383" fill="black"/>
<ellipse cx="335.713" cy="297.224" rx="2.1383" ry="2.1383" fill="black"/>
<ellipse cx="335.713" cy="374.202" rx="2.1383" ry="2.1383" fill="black"/>
<ellipse cx="335.713" cy="399.862" rx="2.1383" ry="2.1383" fill="black"/>
<ellipse cx="79.1168" cy="2.1383" rx="2.1383" ry="2.1383" fill="black"/>
<ellipse cx="79.1149" cy="156.096" rx="2.1383" ry="2.1383" fill="black"/>
<ellipse cx="79.1149" cy="14.9674" rx="2.1383" ry="2.1383" fill="black"/>
<ellipse cx="79.1168" cy="168.925" rx="2.1383" ry="2.1383" fill="black"/>
<ellipse cx="79.1149" cy="27.798" rx="2.1383" ry="2.1383" fill="black"/>
<ellipse cx="79.1149" cy="181.755" rx="2.1383" ry="2.1383" fill="black"/>
<ellipse cx="79.1168" cy="91.9469" rx="2.1383" ry="2.1383" fill="black"/>
<ellipse cx="79.1149" cy="245.903" rx="2.1383" ry="2.1383" fill="black"/>
<ellipse cx="79.1149" cy="322.883" rx="2.1383" ry="2.1383" fill="black"/>
<ellipse cx="79.1168" cy="40.6276" rx="2.1383" ry="2.1383" fill="black"/>
<ellipse cx="79.1168" cy="194.585" rx="2.1383" ry="2.1383" fill="black"/>
<ellipse cx="79.1168" cy="104.776" rx="2.1383" ry="2.1383" fill="black"/>
<ellipse cx="79.1149" cy="258.733" rx="2.1383" ry="2.1383" fill="black"/>
<ellipse cx="79.1168" cy="335.712" rx="2.1383" ry="2.1383" fill="black"/>
<ellipse cx="79.1149" cy="53.4581" rx="2.1383" ry="2.1383" fill="black"/>
<ellipse cx="79.1168" cy="207.415" rx="2.1383" ry="2.1383" fill="black"/>
<ellipse cx="79.1149" cy="117.606" rx="2.1383" ry="2.1383" fill="black"/>
<ellipse cx="79.1168" cy="271.564" rx="2.1383" ry="2.1383" fill="black"/>
<ellipse cx="79.1149" cy="348.542" rx="2.1383" ry="2.1383" fill="black"/>
<ellipse cx="79.1168" cy="66.2872" rx="2.1383" ry="2.1383" fill="black"/>
<ellipse cx="79.1149" cy="220.243" rx="2.1383" ry="2.1383" fill="black"/>
<ellipse cx="79.1168" cy="130.436" rx="2.1383" ry="2.1383" fill="black"/>
<ellipse cx="79.1168" cy="284.393" rx="2.1383" ry="2.1383" fill="black"/>
<ellipse cx="79.1149" cy="361.373" rx="2.1383" ry="2.1383" fill="black"/>
<ellipse cx="79.1149" cy="387.032" rx="2.1383" ry="2.1383" fill="black"/>
<ellipse cx="79.1149" cy="79.1163" rx="2.1383" ry="2.1383" fill="black"/>
<ellipse cx="79.1168" cy="233.074" rx="2.1383" ry="2.1383" fill="black"/>
<ellipse cx="79.1168" cy="310.053" rx="2.1383" ry="2.1383" fill="black"/>
<ellipse cx="79.1168" cy="143.265" rx="2.1383" ry="2.1383" fill="black"/>
<ellipse cx="79.1149" cy="297.224" rx="2.1383" ry="2.1383" fill="black"/>
<ellipse cx="79.1168" cy="374.202" rx="2.1383" ry="2.1383" fill="black"/>
<ellipse cx="79.1149" cy="399.862" rx="2.1383" ry="2.1383" fill="black"/>
<ellipse cx="284.394" cy="2.1383" rx="2.1383" ry="2.1383" fill="black"/>
<ellipse cx="284.392" cy="156.096" rx="2.1383" ry="2.1383" fill="black"/>
<ellipse cx="284.392" cy="14.9674" rx="2.1383" ry="2.1383" fill="black"/>
<ellipse cx="284.392" cy="168.925" rx="2.1383" ry="2.1383" fill="black"/>
<ellipse cx="284.392" cy="27.798" rx="2.1383" ry="2.1383" fill="black"/>
<ellipse cx="284.392" cy="181.755" rx="2.1383" ry="2.1383" fill="black"/>
<ellipse cx="284.392" cy="91.9469" rx="2.1383" ry="2.1383" fill="black"/>
<ellipse cx="284.392" cy="245.903" rx="2.1383" ry="2.1383" fill="black"/>
<ellipse cx="284.392" cy="322.883" rx="2.1383" ry="2.1383" fill="black"/>
<ellipse cx="284.392" cy="40.6276" rx="2.1383" ry="2.1383" fill="black"/>
<ellipse cx="284.392" cy="194.585" rx="2.1383" ry="2.1383" fill="black"/>
<ellipse cx="284.392" cy="104.776" rx="2.1383" ry="2.1383" fill="black"/>
<ellipse cx="284.392" cy="258.733" rx="2.1383" ry="2.1383" fill="black"/>
<ellipse cx="284.392" cy="335.712" rx="2.1383" ry="2.1383" fill="black"/>
<ellipse cx="284.392" cy="53.4581" rx="2.1383" ry="2.1383" fill="black"/>
<ellipse cx="284.392" cy="207.415" rx="2.1383" ry="2.1383" fill="black"/>
<ellipse cx="284.392" cy="117.606" rx="2.1383" ry="2.1383" fill="black"/>
<ellipse cx="284.392" cy="271.564" rx="2.1383" ry="2.1383" fill="black"/>
<ellipse cx="284.392" cy="348.542" rx="2.1383" ry="2.1383" fill="black"/>
<ellipse cx="284.392" cy="66.2872" rx="2.1383" ry="2.1383" fill="black"/>
<ellipse cx="284.392" cy="220.243" rx="2.1383" ry="2.1383" fill="black"/>
<ellipse cx="284.392" cy="130.436" rx="2.1383" ry="2.1383" fill="black"/>
<ellipse cx="284.392" cy="284.393" rx="2.1383" ry="2.1383" fill="black"/>
<ellipse cx="284.392" cy="361.373" rx="2.1383" ry="2.1383" fill="black"/>
<ellipse cx="284.392" cy="387.032" rx="2.1383" ry="2.1383" fill="black"/>
<ellipse cx="284.392" cy="79.1163" rx="2.1383" ry="2.1383" fill="black"/>
<ellipse cx="284.392" cy="233.074" rx="2.1383" ry="2.1383" fill="black"/>
<ellipse cx="284.392" cy="310.053" rx="2.1383" ry="2.1383" fill="black"/>
<ellipse cx="284.392" cy="143.265" rx="2.1383" ry="2.1383" fill="black"/>
<ellipse cx="284.392" cy="297.224" rx="2.1383" ry="2.1383" fill="black"/>
<ellipse cx="284.392" cy="374.202" rx="2.1383" ry="2.1383" fill="black"/>
<ellipse cx="284.392" cy="399.862" rx="2.1383" ry="2.1383" fill="black"/>
<ellipse cx="181.755" cy="2.1383" rx="2.1383" ry="2.1383" fill="black"/>
<ellipse cx="181.755" cy="156.096" rx="2.1383" ry="2.1383" fill="black"/>
<ellipse cx="181.755" cy="14.9674" rx="2.1383" ry="2.1383" fill="black"/>
<ellipse cx="181.755" cy="168.925" rx="2.1383" ry="2.1383" fill="black"/>
<ellipse cx="181.755" cy="27.798" rx="2.1383" ry="2.1383" fill="black"/>
<ellipse cx="181.755" cy="181.755" rx="2.1383" ry="2.1383" fill="black"/>
<ellipse cx="181.755" cy="91.9469" rx="2.1383" ry="2.1383" fill="black"/>
<ellipse cx="181.755" cy="245.903" rx="2.1383" ry="2.1383" fill="black"/>
<ellipse cx="181.755" cy="322.883" rx="2.1383" ry="2.1383" fill="black"/>
<ellipse cx="181.755" cy="40.6276" rx="2.1383" ry="2.1383" fill="black"/>
<ellipse cx="181.755" cy="194.585" rx="2.1383" ry="2.1383" fill="black"/>
<ellipse cx="181.755" cy="104.776" rx="2.1383" ry="2.1383" fill="black"/>
<ellipse cx="181.755" cy="258.733" rx="2.1383" ry="2.1383" fill="black"/>
<ellipse cx="181.755" cy="335.712" rx="2.1383" ry="2.1383" fill="black"/>
<ellipse cx="181.755" cy="53.4581" rx="2.1383" ry="2.1383" fill="black"/>
<ellipse cx="181.755" cy="207.415" rx="2.1383" ry="2.1383" fill="black"/>
<ellipse cx="181.755" cy="117.606" rx="2.1383" ry="2.1383" fill="black"/>
<ellipse cx="181.755" cy="271.564" rx="2.1383" ry="2.1383" fill="black"/>
<ellipse cx="181.755" cy="348.542" rx="2.1383" ry="2.1383" fill="black"/>
<ellipse cx="181.755" cy="66.2872" rx="2.1383" ry="2.1383" fill="black"/>
<ellipse cx="181.755" cy="220.243" rx="2.1383" ry="2.1383" fill="black"/>
<ellipse cx="181.755" cy="130.436" rx="2.1383" ry="2.1383" fill="black"/>
<ellipse cx="181.755" cy="284.393" rx="2.1383" ry="2.1383" fill="black"/>
<ellipse cx="181.755" cy="361.373" rx="2.1383" ry="2.1383" fill="black"/>
<ellipse cx="181.755" cy="387.032" rx="2.1383" ry="2.1383" fill="black"/>
<ellipse cx="181.755" cy="79.1163" rx="2.1383" ry="2.1383" fill="black"/>
<ellipse cx="181.755" cy="233.074" rx="2.1383" ry="2.1383" fill="black"/>
<ellipse cx="181.755" cy="310.053" rx="2.1383" ry="2.1383" fill="black"/>
<ellipse cx="181.755" cy="143.265" rx="2.1383" ry="2.1383" fill="black"/>
<ellipse cx="181.755" cy="297.224" rx="2.1383" ry="2.1383" fill="black"/>
<ellipse cx="181.755" cy="374.202" rx="2.1383" ry="2.1383" fill="black"/>
<ellipse cx="181.755" cy="399.862" rx="2.1383" ry="2.1383" fill="black"/>
<ellipse cx="387.031" cy="2.1383" rx="2.1383" ry="2.1383" fill="black"/>
<ellipse cx="387.033" cy="156.096" rx="2.1383" ry="2.1383" fill="black"/>
<ellipse cx="387.033" cy="14.9674" rx="2.1383" ry="2.1383" fill="black"/>
<ellipse cx="387.033" cy="168.925" rx="2.1383" ry="2.1383" fill="black"/>
<ellipse cx="387.033" cy="27.798" rx="2.1383" ry="2.1383" fill="black"/>
<ellipse cx="387.033" cy="181.755" rx="2.1383" ry="2.1383" fill="black"/>
<ellipse cx="387.033" cy="91.9469" rx="2.1383" ry="2.1383" fill="black"/>
<ellipse cx="387.033" cy="245.903" rx="2.1383" ry="2.1383" fill="black"/>
<ellipse cx="387.033" cy="322.883" rx="2.1383" ry="2.1383" fill="black"/>
<ellipse cx="387.033" cy="40.6276" rx="2.1383" ry="2.1383" fill="black"/>
<ellipse cx="387.033" cy="194.585" rx="2.1383" ry="2.1383" fill="black"/>
<ellipse cx="387.033" cy="104.776" rx="2.1383" ry="2.1383" fill="black"/>
<ellipse cx="387.033" cy="258.733" rx="2.1383" ry="2.1383" fill="black"/>
<ellipse cx="387.033" cy="335.712" rx="2.1383" ry="2.1383" fill="black"/>
<ellipse cx="387.033" cy="53.4581" rx="2.1383" ry="2.1383" fill="black"/>
<ellipse cx="387.033" cy="207.415" rx="2.1383" ry="2.1383" fill="black"/>
<ellipse cx="387.033" cy="117.606" rx="2.1383" ry="2.1383" fill="black"/>
<ellipse cx="387.033" cy="271.564" rx="2.1383" ry="2.1383" fill="black"/>
<ellipse cx="387.033" cy="348.542" rx="2.1383" ry="2.1383" fill="black"/>
<ellipse cx="387.033" cy="66.2872" rx="2.1383" ry="2.1383" fill="black"/>
<ellipse cx="387.033" cy="220.243" rx="2.1383" ry="2.1383" fill="black"/>
<ellipse cx="387.033" cy="130.436" rx="2.1383" ry="2.1383" fill="black"/>
<ellipse cx="387.033" cy="284.393" rx="2.1383" ry="2.1383" fill="black"/>
<ellipse cx="387.033" cy="361.373" rx="2.1383" ry="2.1383" fill="black"/>
<ellipse cx="387.033" cy="387.032" rx="2.1383" ry="2.1383" fill="black"/>
<ellipse cx="387.033" cy="79.1163" rx="2.1383" ry="2.1383" fill="black"/>
<ellipse cx="387.033" cy="233.074" rx="2.1383" ry="2.1383" fill="black"/>
<ellipse cx="387.033" cy="310.053" rx="2.1383" ry="2.1383" fill="black"/>
<ellipse cx="387.033" cy="143.265" rx="2.1383" ry="2.1383" fill="black"/>
<ellipse cx="387.033" cy="297.224" rx="2.1383" ry="2.1383" fill="black"/>
<ellipse cx="387.033" cy="374.202" rx="2.1383" ry="2.1383" fill="black"/>
<ellipse cx="387.033" cy="399.862" rx="2.1383" ry="2.1383" fill="black"/>
<ellipse cx="14.9684" cy="2.1383" rx="2.1383" ry="2.1383" fill="black"/>
<ellipse cx="14.9684" cy="156.096" rx="2.1383" ry="2.1383" fill="black"/>
<ellipse cx="14.9684" cy="14.9674" rx="2.1383" ry="2.1383" fill="black"/>
<ellipse cx="14.9684" cy="168.925" rx="2.1383" ry="2.1383" fill="black"/>
<ellipse cx="14.9684" cy="27.798" rx="2.1383" ry="2.1383" fill="black"/>
<ellipse cx="14.9684" cy="181.755" rx="2.1383" ry="2.1383" fill="black"/>
<ellipse cx="14.9684" cy="91.9469" rx="2.1383" ry="2.1383" fill="black"/>
<ellipse cx="14.9684" cy="245.903" rx="2.1383" ry="2.1383" fill="black"/>
<ellipse cx="14.9684" cy="322.883" rx="2.1383" ry="2.1383" fill="black"/>
<ellipse cx="14.9684" cy="40.6276" rx="2.1383" ry="2.1383" fill="black"/>
<ellipse cx="14.9684" cy="194.585" rx="2.1383" ry="2.1383" fill="black"/>
<ellipse cx="14.9684" cy="104.776" rx="2.1383" ry="2.1383" fill="black"/>
<ellipse cx="14.9684" cy="258.733" rx="2.1383" ry="2.1383" fill="black"/>
<ellipse cx="14.9684" cy="335.712" rx="2.1383" ry="2.1383" fill="black"/>
<ellipse cx="14.9684" cy="53.4581" rx="2.1383" ry="2.1383" fill="black"/>
<ellipse cx="14.9684" cy="207.415" rx="2.1383" ry="2.1383" fill="black"/>
<ellipse cx="14.9684" cy="117.606" rx="2.1383" ry="2.1383" fill="black"/>
<ellipse cx="14.9684" cy="271.564" rx="2.1383" ry="2.1383" fill="black"/>
<ellipse cx="14.9684" cy="348.542" rx="2.1383" ry="2.1383" fill="black"/>
<ellipse cx="14.9684" cy="66.2872" rx="2.1383" ry="2.1383" fill="black"/>
<ellipse cx="14.9684" cy="220.243" rx="2.1383" ry="2.1383" fill="black"/>
<ellipse cx="14.9684" cy="130.436" rx="2.1383" ry="2.1383" fill="black"/>
<ellipse cx="14.9684" cy="284.393" rx="2.1383" ry="2.1383" fill="black"/>
<ellipse cx="14.9684" cy="361.373" rx="2.1383" ry="2.1383" fill="black"/>
<ellipse cx="14.9684" cy="387.032" rx="2.1383" ry="2.1383" fill="black"/>
<ellipse cx="14.9684" cy="79.1163" rx="2.1383" ry="2.1383" fill="black"/>
<ellipse cx="14.9684" cy="233.074" rx="2.1383" ry="2.1383" fill="black"/>
<ellipse cx="14.9684" cy="310.053" rx="2.1383" ry="2.1383" fill="black"/>
<ellipse cx="14.9684" cy="143.265" rx="2.1383" ry="2.1383" fill="black"/>
<ellipse cx="14.9684" cy="297.224" rx="2.1383" ry="2.1383" fill="black"/>
<ellipse cx="14.9684" cy="374.202" rx="2.1383" ry="2.1383" fill="black"/>
<ellipse cx="14.9684" cy="399.862" rx="2.1383" ry="2.1383" fill="black"/>
<ellipse cx="220.244" cy="2.1383" rx="2.1383" ry="2.1383" fill="black"/>
<ellipse cx="220.244" cy="156.096" rx="2.1383" ry="2.1383" fill="black"/>
<ellipse cx="220.244" cy="14.9674" rx="2.1383" ry="2.1383" fill="black"/>
<ellipse cx="220.244" cy="168.925" rx="2.1383" ry="2.1383" fill="black"/>
<ellipse cx="220.244" cy="27.798" rx="2.1383" ry="2.1383" fill="black"/>
<ellipse cx="220.244" cy="181.755" rx="2.1383" ry="2.1383" fill="black"/>
<ellipse cx="220.244" cy="91.9469" rx="2.1383" ry="2.1383" fill="black"/>
<ellipse cx="220.244" cy="245.903" rx="2.1383" ry="2.1383" fill="black"/>
<ellipse cx="220.244" cy="322.883" rx="2.1383" ry="2.1383" fill="black"/>
<ellipse cx="220.244" cy="40.6276" rx="2.1383" ry="2.1383" fill="black"/>
<ellipse cx="220.244" cy="194.585" rx="2.1383" ry="2.1383" fill="black"/>
<ellipse cx="220.244" cy="104.776" rx="2.1383" ry="2.1383" fill="black"/>
<ellipse cx="220.244" cy="258.733" rx="2.1383" ry="2.1383" fill="black"/>
<ellipse cx="220.244" cy="335.712" rx="2.1383" ry="2.1383" fill="black"/>
<ellipse cx="220.244" cy="53.4581" rx="2.1383" ry="2.1383" fill="black"/>
<ellipse cx="220.244" cy="207.415" rx="2.1383" ry="2.1383" fill="black"/>
<ellipse cx="220.244" cy="117.606" rx="2.1383" ry="2.1383" fill="black"/>
<ellipse cx="220.244" cy="271.564" rx="2.1383" ry="2.1383" fill="black"/>
<ellipse cx="220.244" cy="348.542" rx="2.1383" ry="2.1383" fill="black"/>
<ellipse cx="220.244" cy="66.2872" rx="2.1383" ry="2.1383" fill="black"/>
<ellipse cx="220.244" cy="220.243" rx="2.1383" ry="2.1383" fill="black"/>
<ellipse cx="220.244" cy="130.436" rx="2.1383" ry="2.1383" fill="black"/>
<ellipse cx="220.244" cy="284.393" rx="2.1383" ry="2.1383" fill="black"/>
<ellipse cx="220.244" cy="361.373" rx="2.1383" ry="2.1383" fill="black"/>
<ellipse cx="220.244" cy="387.032" rx="2.1383" ry="2.1383" fill="black"/>
<ellipse cx="220.244" cy="79.1163" rx="2.1383" ry="2.1383" fill="black"/>
<ellipse cx="220.244" cy="233.074" rx="2.1383" ry="2.1383" fill="black"/>
<ellipse cx="220.244" cy="310.053" rx="2.1383" ry="2.1383" fill="black"/>
<ellipse cx="220.244" cy="143.265" rx="2.1383" ry="2.1383" fill="black"/>
<ellipse cx="220.244" cy="297.224" rx="2.1383" ry="2.1383" fill="black"/>
<ellipse cx="220.244" cy="374.202" rx="2.1383" ry="2.1383" fill="black"/>
<ellipse cx="220.244" cy="399.862" rx="2.1383" ry="2.1383" fill="black"/>
<ellipse cx="117.605" cy="2.1383" rx="2.1383" ry="2.1383" fill="black"/>
<ellipse cx="117.605" cy="156.096" rx="2.1383" ry="2.1383" fill="black"/>
<ellipse cx="117.605" cy="14.9674" rx="2.1383" ry="2.1383" fill="black"/>
<ellipse cx="117.605" cy="168.925" rx="2.1383" ry="2.1383" fill="black"/>
<ellipse cx="117.605" cy="27.798" rx="2.1383" ry="2.1383" fill="black"/>
<ellipse cx="117.605" cy="181.755" rx="2.1383" ry="2.1383" fill="black"/>
<ellipse cx="117.605" cy="91.9469" rx="2.1383" ry="2.1383" fill="black"/>
<ellipse cx="117.605" cy="245.903" rx="2.1383" ry="2.1383" fill="black"/>
<ellipse cx="117.605" cy="322.883" rx="2.1383" ry="2.1383" fill="black"/>
<ellipse cx="117.605" cy="40.6276" rx="2.1383" ry="2.1383" fill="black"/>
<ellipse cx="117.605" cy="194.585" rx="2.1383" ry="2.1383" fill="black"/>
<ellipse cx="117.605" cy="104.776" rx="2.1383" ry="2.1383" fill="black"/>
<ellipse cx="117.605" cy="258.733" rx="2.1383" ry="2.1383" fill="black"/>
<ellipse cx="117.605" cy="335.712" rx="2.1383" ry="2.1383" fill="black"/>
<ellipse cx="117.605" cy="53.4581" rx="2.1383" ry="2.1383" fill="black"/>
<ellipse cx="117.605" cy="207.415" rx="2.1383" ry="2.1383" fill="black"/>
<ellipse cx="117.605" cy="117.606" rx="2.1383" ry="2.1383" fill="black"/>
<ellipse cx="117.605" cy="271.564" rx="2.1383" ry="2.1383" fill="black"/>
<ellipse cx="117.605" cy="348.542" rx="2.1383" ry="2.1383" fill="black"/>
<ellipse cx="117.605" cy="66.2872" rx="2.1383" ry="2.1383" fill="black"/>
<ellipse cx="117.605" cy="220.243" rx="2.1383" ry="2.1383" fill="black"/>
<ellipse cx="117.605" cy="130.436" rx="2.1383" ry="2.1383" fill="black"/>
<ellipse cx="117.605" cy="284.393" rx="2.1383" ry="2.1383" fill="black"/>
<ellipse cx="117.605" cy="361.373" rx="2.1383" ry="2.1383" fill="black"/>
<ellipse cx="117.605" cy="387.032" rx="2.1383" ry="2.1383" fill="black"/>
<ellipse cx="117.605" cy="79.1163" rx="2.1383" ry="2.1383" fill="black"/>
<ellipse cx="117.605" cy="233.074" rx="2.1383" ry="2.1383" fill="black"/>
<ellipse cx="117.605" cy="310.053" rx="2.1383" ry="2.1383" fill="black"/>
<ellipse cx="117.605" cy="143.265" rx="2.1383" ry="2.1383" fill="black"/>
<ellipse cx="117.605" cy="297.224" rx="2.1383" ry="2.1383" fill="black"/>
<ellipse cx="117.605" cy="374.202" rx="2.1383" ry="2.1383" fill="black"/>
<ellipse cx="117.605" cy="399.862" rx="2.1383" ry="2.1383" fill="black"/>
<ellipse cx="322.884" cy="2.13829" rx="2.13824" ry="2.13829" fill="black"/>
<ellipse cx="322.884" cy="156.096" rx="2.1383" ry="2.1383" fill="black"/>
<ellipse cx="322.884" cy="14.9674" rx="2.1383" ry="2.1383" fill="black"/>
<ellipse cx="322.884" cy="168.925" rx="2.1383" ry="2.1383" fill="black"/>
<ellipse cx="322.884" cy="27.798" rx="2.1383" ry="2.1383" fill="black"/>
<ellipse cx="322.884" cy="181.755" rx="2.1383" ry="2.1383" fill="black"/>
<ellipse cx="322.884" cy="91.9469" rx="2.1383" ry="2.1383" fill="black"/>
<ellipse cx="322.884" cy="245.903" rx="2.1383" ry="2.1383" fill="black"/>
<ellipse cx="322.884" cy="322.883" rx="2.1383" ry="2.1383" fill="black"/>
<ellipse cx="322.884" cy="40.6276" rx="2.1383" ry="2.1383" fill="black"/>
<ellipse cx="322.884" cy="194.585" rx="2.1383" ry="2.1383" fill="black"/>
<ellipse cx="322.884" cy="104.776" rx="2.1383" ry="2.1383" fill="black"/>
<ellipse cx="322.884" cy="258.733" rx="2.1383" ry="2.1383" fill="black"/>
<ellipse cx="322.884" cy="335.712" rx="2.1383" ry="2.1383" fill="black"/>
<ellipse cx="322.884" cy="53.4581" rx="2.1383" ry="2.1383" fill="black"/>
<ellipse cx="322.884" cy="207.415" rx="2.1383" ry="2.1383" fill="black"/>
<ellipse cx="322.884" cy="117.606" rx="2.1383" ry="2.1383" fill="black"/>
<ellipse cx="322.884" cy="271.564" rx="2.1383" ry="2.1383" fill="black"/>
<ellipse cx="322.884" cy="348.542" rx="2.1383" ry="2.1383" fill="black"/>
<ellipse cx="322.884" cy="66.2872" rx="2.1383" ry="2.1383" fill="black"/>
<ellipse cx="322.884" cy="220.243" rx="2.1383" ry="2.1383" fill="black"/>
<ellipse cx="322.884" cy="130.436" rx="2.1383" ry="2.1383" fill="black"/>
<ellipse cx="322.884" cy="284.393" rx="2.1383" ry="2.1383" fill="black"/>
<ellipse cx="322.884" cy="361.373" rx="2.1383" ry="2.1383" fill="black"/>
<ellipse cx="322.884" cy="387.032" rx="2.1383" ry="2.1383" fill="black"/>
<ellipse cx="322.884" cy="79.1163" rx="2.1383" ry="2.1383" fill="black"/>
<ellipse cx="322.884" cy="233.074" rx="2.1383" ry="2.1383" fill="black"/>
<ellipse cx="322.884" cy="310.053" rx="2.1383" ry="2.1383" fill="black"/>
<ellipse cx="322.884" cy="143.265" rx="2.1383" ry="2.1383" fill="black"/>
<ellipse cx="322.884" cy="297.224" rx="2.1383" ry="2.1383" fill="black"/>
<ellipse cx="322.884" cy="374.202" rx="2.1383" ry="2.1383" fill="black"/>
<ellipse cx="322.884" cy="399.862" rx="2.1383" ry="2.1383" fill="black"/>
<ellipse cx="66.2867" cy="2.1383" rx="2.1383" ry="2.1383" fill="black"/>
<ellipse cx="66.2867" cy="156.096" rx="2.1383" ry="2.1383" fill="black"/>
<ellipse cx="66.2867" cy="14.9674" rx="2.1383" ry="2.1383" fill="black"/>
<ellipse cx="66.2867" cy="168.925" rx="2.1383" ry="2.1383" fill="black"/>
<ellipse cx="66.2867" cy="27.798" rx="2.1383" ry="2.1383" fill="black"/>
<ellipse cx="66.2867" cy="181.755" rx="2.1383" ry="2.1383" fill="black"/>
<ellipse cx="66.2867" cy="91.9469" rx="2.1383" ry="2.1383" fill="black"/>
<ellipse cx="66.2867" cy="245.903" rx="2.1383" ry="2.1383" fill="black"/>
<ellipse cx="66.2867" cy="322.883" rx="2.1383" ry="2.1383" fill="black"/>
<ellipse cx="66.2867" cy="40.6276" rx="2.1383" ry="2.1383" fill="black"/>
<ellipse cx="66.2867" cy="194.585" rx="2.1383" ry="2.1383" fill="black"/>
<ellipse cx="66.2867" cy="104.776" rx="2.1383" ry="2.1383" fill="black"/>
<ellipse cx="66.2867" cy="258.733" rx="2.1383" ry="2.1383" fill="black"/>
<ellipse cx="66.2867" cy="335.712" rx="2.1383" ry="2.1383" fill="black"/>
<ellipse cx="66.2867" cy="53.4581" rx="2.1383" ry="2.1383" fill="black"/>
<ellipse cx="66.2867" cy="207.415" rx="2.1383" ry="2.1383" fill="black"/>
<ellipse cx="66.2867" cy="117.606" rx="2.1383" ry="2.1383" fill="black"/>
<ellipse cx="66.2867" cy="271.564" rx="2.1383" ry="2.1383" fill="black"/>
<ellipse cx="66.2867" cy="348.542" rx="2.1383" ry="2.1383" fill="black"/>
<ellipse cx="66.2867" cy="66.2872" rx="2.1383" ry="2.1383" fill="black"/>
<ellipse cx="66.2867" cy="220.243" rx="2.1383" ry="2.1383" fill="black"/>
<ellipse cx="66.2867" cy="130.436" rx="2.1383" ry="2.1383" fill="black"/>
<ellipse cx="66.2867" cy="284.393" rx="2.1383" ry="2.1383" fill="black"/>
<ellipse cx="66.2867" cy="361.373" rx="2.1383" ry="2.1383" fill="black"/>
<ellipse cx="66.2867" cy="387.032" rx="2.1383" ry="2.1383" fill="black"/>
<ellipse cx="66.2867" cy="79.1163" rx="2.1383" ry="2.1383" fill="black"/>
<ellipse cx="66.2867" cy="233.074" rx="2.1383" ry="2.1383" fill="black"/>
<ellipse cx="66.2867" cy="310.053" rx="2.1383" ry="2.1383" fill="black"/>
<ellipse cx="66.2867" cy="143.265" rx="2.1383" ry="2.1383" fill="black"/>
<ellipse cx="66.2867" cy="297.224" rx="2.1383" ry="2.1383" fill="black"/>
<ellipse cx="66.2867" cy="374.202" rx="2.1383" ry="2.1383" fill="black"/>
<ellipse cx="66.2867" cy="399.862" rx="2.1383" ry="2.1383" fill="black"/>
<ellipse cx="271.562" cy="2.13829" rx="2.13824" ry="2.13829" fill="black"/>
<ellipse cx="271.562" cy="156.096" rx="2.1383" ry="2.1383" fill="black"/>
<ellipse cx="271.562" cy="14.9674" rx="2.1383" ry="2.1383" fill="black"/>
<ellipse cx="271.562" cy="168.925" rx="2.1383" ry="2.1383" fill="black"/>
<ellipse cx="271.562" cy="27.798" rx="2.1383" ry="2.1383" fill="black"/>
<ellipse cx="271.562" cy="181.755" rx="2.1383" ry="2.1383" fill="black"/>
<ellipse cx="271.562" cy="91.9469" rx="2.1383" ry="2.1383" fill="black"/>
<ellipse cx="271.562" cy="245.903" rx="2.1383" ry="2.1383" fill="black"/>
<ellipse cx="271.562" cy="322.883" rx="2.1383" ry="2.1383" fill="black"/>
<ellipse cx="271.562" cy="40.6276" rx="2.1383" ry="2.1383" fill="black"/>
<ellipse cx="271.562" cy="194.585" rx="2.1383" ry="2.1383" fill="black"/>
<ellipse cx="271.562" cy="104.776" rx="2.1383" ry="2.1383" fill="black"/>
<ellipse cx="271.562" cy="258.733" rx="2.1383" ry="2.1383" fill="black"/>
<ellipse cx="271.562" cy="335.712" rx="2.1383" ry="2.1383" fill="black"/>
<ellipse cx="271.562" cy="53.4581" rx="2.1383" ry="2.1383" fill="black"/>
<ellipse cx="271.562" cy="207.415" rx="2.1383" ry="2.1383" fill="black"/>
<ellipse cx="271.562" cy="117.606" rx="2.1383" ry="2.1383" fill="black"/>
<ellipse cx="271.562" cy="271.564" rx="2.1383" ry="2.1383" fill="black"/>
<ellipse cx="271.562" cy="348.542" rx="2.1383" ry="2.1383" fill="black"/>
<ellipse cx="271.562" cy="66.2872" rx="2.1383" ry="2.1383" fill="black"/>
<ellipse cx="271.562" cy="220.243" rx="2.1383" ry="2.1383" fill="black"/>
<ellipse cx="271.562" cy="130.436" rx="2.1383" ry="2.1383" fill="black"/>
<ellipse cx="271.562" cy="284.393" rx="2.1383" ry="2.1383" fill="black"/>
<ellipse cx="271.562" cy="361.373" rx="2.1383" ry="2.1383" fill="black"/>
<ellipse cx="271.562" cy="387.032" rx="2.1383" ry="2.1383" fill="black"/>
<ellipse cx="271.562" cy="79.1163" rx="2.1383" ry="2.1383" fill="black"/>
<ellipse cx="271.562" cy="233.074" rx="2.1383" ry="2.1383" fill="black"/>
<ellipse cx="271.562" cy="310.053" rx="2.1383" ry="2.1383" fill="black"/>
<ellipse cx="271.562" cy="143.265" rx="2.1383" ry="2.1383" fill="black"/>
<ellipse cx="271.562" cy="297.224" rx="2.1383" ry="2.1383" fill="black"/>
<ellipse cx="271.562" cy="374.202" rx="2.1383" ry="2.1383" fill="black"/>
<ellipse cx="271.562" cy="399.862" rx="2.1383" ry="2.1383" fill="black"/>
<ellipse cx="168.925" cy="2.1383" rx="2.1383" ry="2.1383" fill="black"/>
<ellipse cx="168.925" cy="156.096" rx="2.1383" ry="2.1383" fill="black"/>
<ellipse cx="168.925" cy="14.9674" rx="2.1383" ry="2.1383" fill="black"/>
<ellipse cx="168.925" cy="168.925" rx="2.1383" ry="2.1383" fill="black"/>
<ellipse cx="168.925" cy="27.798" rx="2.1383" ry="2.1383" fill="black"/>
<ellipse cx="168.925" cy="181.755" rx="2.1383" ry="2.1383" fill="black"/>
<ellipse cx="168.925" cy="91.9469" rx="2.1383" ry="2.1383" fill="black"/>
<ellipse cx="168.925" cy="245.903" rx="2.1383" ry="2.1383" fill="black"/>
<ellipse cx="168.925" cy="322.883" rx="2.1383" ry="2.1383" fill="black"/>
<ellipse cx="168.925" cy="40.6276" rx="2.1383" ry="2.1383" fill="black"/>
<ellipse cx="168.925" cy="194.585" rx="2.1383" ry="2.1383" fill="black"/>
<ellipse cx="168.925" cy="104.776" rx="2.1383" ry="2.1383" fill="black"/>
<ellipse cx="168.925" cy="258.733" rx="2.1383" ry="2.1383" fill="black"/>
<ellipse cx="168.925" cy="335.712" rx="2.1383" ry="2.1383" fill="black"/>
<ellipse cx="168.925" cy="53.4581" rx="2.1383" ry="2.1383" fill="black"/>
<ellipse cx="168.925" cy="207.415" rx="2.1383" ry="2.1383" fill="black"/>
<ellipse cx="168.925" cy="117.606" rx="2.1383" ry="2.1383" fill="black"/>
<ellipse cx="168.925" cy="271.564" rx="2.1383" ry="2.1383" fill="black"/>
<ellipse cx="168.925" cy="348.542" rx="2.1383" ry="2.1383" fill="black"/>
<ellipse cx="168.925" cy="66.2872" rx="2.1383" ry="2.1383" fill="black"/>
<ellipse cx="168.925" cy="220.243" rx="2.1383" ry="2.1383" fill="black"/>
<ellipse cx="168.925" cy="130.436" rx="2.1383" ry="2.1383" fill="black"/>
<ellipse cx="168.925" cy="284.393" rx="2.1383" ry="2.1383" fill="black"/>
<ellipse cx="168.925" cy="361.373" rx="2.1383" ry="2.1383" fill="black"/>
<ellipse cx="168.925" cy="387.032" rx="2.1383" ry="2.1383" fill="black"/>
<ellipse cx="168.925" cy="79.1163" rx="2.1383" ry="2.1383" fill="black"/>
<ellipse cx="168.925" cy="233.074" rx="2.1383" ry="2.1383" fill="black"/>
<ellipse cx="168.925" cy="310.053" rx="2.1383" ry="2.1383" fill="black"/>
<ellipse cx="168.925" cy="143.265" rx="2.1383" ry="2.1383" fill="black"/>
<ellipse cx="168.925" cy="297.224" rx="2.1383" ry="2.1383" fill="black"/>
<ellipse cx="168.925" cy="374.202" rx="2.1383" ry="2.1383" fill="black"/>
<ellipse cx="168.925" cy="399.862" rx="2.1383" ry="2.1383" fill="black"/>
<ellipse cx="374.201" cy="2.13829" rx="2.13824" ry="2.13829" fill="black"/>
<ellipse cx="374.201" cy="156.096" rx="2.1383" ry="2.1383" fill="black"/>
<ellipse cx="374.201" cy="14.9674" rx="2.1383" ry="2.1383" fill="black"/>
<ellipse cx="374.201" cy="168.925" rx="2.1383" ry="2.1383" fill="black"/>
<ellipse cx="374.201" cy="27.798" rx="2.1383" ry="2.1383" fill="black"/>
<ellipse cx="374.201" cy="181.755" rx="2.1383" ry="2.1383" fill="black"/>
<ellipse cx="374.201" cy="91.9469" rx="2.1383" ry="2.1383" fill="black"/>
<ellipse cx="374.201" cy="245.903" rx="2.1383" ry="2.1383" fill="black"/>
<ellipse cx="374.201" cy="322.883" rx="2.1383" ry="2.1383" fill="black"/>
<ellipse cx="374.201" cy="40.6276" rx="2.1383" ry="2.1383" fill="black"/>
<ellipse cx="374.201" cy="194.585" rx="2.1383" ry="2.1383" fill="black"/>
<ellipse cx="374.201" cy="104.776" rx="2.1383" ry="2.1383" fill="black"/>
<ellipse cx="374.201" cy="258.733" rx="2.1383" ry="2.1383" fill="black"/>
<ellipse cx="374.201" cy="335.712" rx="2.1383" ry="2.1383" fill="black"/>
<ellipse cx="374.201" cy="53.4581" rx="2.1383" ry="2.1383" fill="black"/>
<ellipse cx="374.201" cy="207.415" rx="2.1383" ry="2.1383" fill="black"/>
<ellipse cx="374.201" cy="117.606" rx="2.1383" ry="2.1383" fill="black"/>
<ellipse cx="374.201" cy="271.564" rx="2.1383" ry="2.1383" fill="black"/>
<ellipse cx="374.201" cy="348.542" rx="2.1383" ry="2.1383" fill="black"/>
<ellipse cx="374.201" cy="66.2872" rx="2.1383" ry="2.1383" fill="black"/>
<ellipse cx="374.201" cy="220.243" rx="2.1383" ry="2.1383" fill="black"/>
<ellipse cx="374.201" cy="130.436" rx="2.1383" ry="2.1383" fill="black"/>
<ellipse cx="374.201" cy="284.393" rx="2.1383" ry="2.1383" fill="black"/>
<ellipse cx="374.201" cy="361.373" rx="2.1383" ry="2.1383" fill="black"/>
<ellipse cx="374.201" cy="387.032" rx="2.1383" ry="2.1383" fill="black"/>
<ellipse cx="374.201" cy="79.1163" rx="2.1383" ry="2.1383" fill="black"/>
<ellipse cx="374.201" cy="233.074" rx="2.1383" ry="2.1383" fill="black"/>
<ellipse cx="374.201" cy="310.053" rx="2.1383" ry="2.1383" fill="black"/>
<ellipse cx="374.201" cy="143.265" rx="2.1383" ry="2.1383" fill="black"/>
<ellipse cx="374.201" cy="297.224" rx="2.1383" ry="2.1383" fill="black"/>
<ellipse cx="374.201" cy="374.202" rx="2.1383" ry="2.1383" fill="black"/>
<ellipse cx="374.201" cy="399.862" rx="2.1383" ry="2.1383" fill="black"/>
<ellipse cx="40.6285" cy="2.1383" rx="2.1383" ry="2.1383" fill="black"/>
<ellipse cx="40.6285" cy="156.096" rx="2.1383" ry="2.1383" fill="black"/>
<ellipse cx="40.6285" cy="14.9674" rx="2.1383" ry="2.1383" fill="black"/>
<ellipse cx="40.6285" cy="168.925" rx="2.1383" ry="2.1383" fill="black"/>
<ellipse cx="40.6285" cy="27.798" rx="2.1383" ry="2.1383" fill="black"/>
<ellipse cx="40.6285" cy="181.755" rx="2.1383" ry="2.1383" fill="black"/>
<ellipse cx="40.6285" cy="91.9469" rx="2.1383" ry="2.1383" fill="black"/>
<ellipse cx="40.6285" cy="245.903" rx="2.1383" ry="2.1383" fill="black"/>
<ellipse cx="40.6285" cy="322.883" rx="2.1383" ry="2.1383" fill="black"/>
<ellipse cx="40.6285" cy="40.6276" rx="2.1383" ry="2.1383" fill="black"/>
<ellipse cx="40.6285" cy="194.585" rx="2.1383" ry="2.1383" fill="black"/>
<ellipse cx="40.6285" cy="104.776" rx="2.1383" ry="2.1383" fill="black"/>
<ellipse cx="40.6285" cy="258.733" rx="2.1383" ry="2.1383" fill="black"/>
<ellipse cx="40.6285" cy="335.712" rx="2.1383" ry="2.1383" fill="black"/>
<ellipse cx="40.6285" cy="53.4581" rx="2.1383" ry="2.1383" fill="black"/>
<ellipse cx="40.6285" cy="207.415" rx="2.1383" ry="2.1383" fill="black"/>
<ellipse cx="40.6285" cy="117.606" rx="2.1383" ry="2.1383" fill="black"/>
<ellipse cx="40.6285" cy="271.564" rx="2.1383" ry="2.1383" fill="black"/>
<ellipse cx="40.6285" cy="348.542" rx="2.1383" ry="2.1383" fill="black"/>
<ellipse cx="40.6285" cy="66.2872" rx="2.1383" ry="2.1383" fill="black"/>
<ellipse cx="40.6285" cy="220.243" rx="2.1383" ry="2.1383" fill="black"/>
<ellipse cx="40.6285" cy="130.436" rx="2.1383" ry="2.1383" fill="black"/>
<ellipse cx="40.6285" cy="284.393" rx="2.1383" ry="2.1383" fill="black"/>
<ellipse cx="40.6285" cy="361.373" rx="2.1383" ry="2.1383" fill="black"/>
<ellipse cx="40.6285" cy="387.032" rx="2.1383" ry="2.1383" fill="black"/>
<ellipse cx="40.6285" cy="79.1163" rx="2.1383" ry="2.1383" fill="black"/>
<ellipse cx="40.6285" cy="233.074" rx="2.1383" ry="2.1383" fill="black"/>
<ellipse cx="40.6285" cy="310.053" rx="2.1383" ry="2.1383" fill="black"/>
<ellipse cx="40.6285" cy="143.265" rx="2.1383" ry="2.1383" fill="black"/>
<ellipse cx="40.6285" cy="297.224" rx="2.1383" ry="2.1383" fill="black"/>
<ellipse cx="40.6285" cy="374.202" rx="2.1383" ry="2.1383" fill="black"/>
<ellipse cx="40.6285" cy="399.862" rx="2.1383" ry="2.1383" fill="black"/>
<ellipse cx="245.904" cy="2.1383" rx="2.1383" ry="2.1383" fill="black"/>
<ellipse cx="245.904" cy="156.096" rx="2.1383" ry="2.1383" fill="black"/>
<ellipse cx="245.904" cy="14.9674" rx="2.1383" ry="2.1383" fill="black"/>
<ellipse cx="245.904" cy="168.925" rx="2.1383" ry="2.1383" fill="black"/>
<ellipse cx="245.904" cy="27.798" rx="2.1383" ry="2.1383" fill="black"/>
<ellipse cx="245.904" cy="181.755" rx="2.1383" ry="2.1383" fill="black"/>
<ellipse cx="245.904" cy="91.9469" rx="2.1383" ry="2.1383" fill="black"/>
<ellipse cx="245.904" cy="245.903" rx="2.1383" ry="2.1383" fill="black"/>
<ellipse cx="245.904" cy="322.883" rx="2.1383" ry="2.1383" fill="black"/>
<ellipse cx="245.904" cy="40.6276" rx="2.1383" ry="2.1383" fill="black"/>
<ellipse cx="245.904" cy="194.585" rx="2.1383" ry="2.1383" fill="black"/>
<ellipse cx="245.904" cy="104.776" rx="2.1383" ry="2.1383" fill="black"/>
<ellipse cx="245.904" cy="258.733" rx="2.1383" ry="2.1383" fill="black"/>
<ellipse cx="245.904" cy="335.712" rx="2.1383" ry="2.1383" fill="black"/>
<ellipse cx="245.904" cy="53.4581" rx="2.1383" ry="2.1383" fill="black"/>
<ellipse cx="245.904" cy="207.415" rx="2.1383" ry="2.1383" fill="black"/>
<ellipse cx="245.904" cy="117.606" rx="2.1383" ry="2.1383" fill="black"/>
<ellipse cx="245.904" cy="271.564" rx="2.1383" ry="2.1383" fill="black"/>
<ellipse cx="245.904" cy="348.542" rx="2.1383" ry="2.1383" fill="black"/>
<ellipse cx="245.904" cy="66.2872" rx="2.1383" ry="2.1383" fill="black"/>
<ellipse cx="245.904" cy="220.243" rx="2.1383" ry="2.1383" fill="black"/>
<ellipse cx="245.904" cy="130.436" rx="2.1383" ry="2.1383" fill="black"/>
<ellipse cx="245.904" cy="284.393" rx="2.1383" ry="2.1383" fill="black"/>
<ellipse cx="245.904" cy="361.373" rx="2.1383" ry="2.1383" fill="black"/>
<ellipse cx="245.904" cy="387.032" rx="2.1383" ry="2.1383" fill="black"/>
<ellipse cx="245.904" cy="79.1163" rx="2.1383" ry="2.1383" fill="black"/>
<ellipse cx="245.904" cy="233.074" rx="2.1383" ry="2.1383" fill="black"/>
<ellipse cx="245.904" cy="310.053" rx="2.1383" ry="2.1383" fill="black"/>
<ellipse cx="245.904" cy="143.265" rx="2.1383" ry="2.1383" fill="black"/>
<ellipse cx="245.904" cy="297.224" rx="2.1383" ry="2.1383" fill="black"/>
<ellipse cx="245.904" cy="374.202" rx="2.1383" ry="2.1383" fill="black"/>
<ellipse cx="245.904" cy="399.862" rx="2.1383" ry="2.1383" fill="black"/>
<ellipse cx="143.265" cy="2.1383" rx="2.1383" ry="2.1383" fill="black"/>
<ellipse cx="143.267" cy="156.096" rx="2.1383" ry="2.1383" fill="black"/>
<ellipse cx="143.267" cy="14.9674" rx="2.1383" ry="2.1383" fill="black"/>
<ellipse cx="143.267" cy="168.925" rx="2.1383" ry="2.1383" fill="black"/>
<ellipse cx="143.267" cy="27.798" rx="2.1383" ry="2.1383" fill="black"/>
<ellipse cx="143.267" cy="181.755" rx="2.1383" ry="2.1383" fill="black"/>
<ellipse cx="143.267" cy="91.9469" rx="2.1383" ry="2.1383" fill="black"/>
<ellipse cx="143.267" cy="245.903" rx="2.1383" ry="2.1383" fill="black"/>
<ellipse cx="143.267" cy="322.883" rx="2.1383" ry="2.1383" fill="black"/>
<ellipse cx="143.267" cy="40.6276" rx="2.1383" ry="2.1383" fill="black"/>
<ellipse cx="143.267" cy="194.585" rx="2.1383" ry="2.1383" fill="black"/>
<ellipse cx="143.267" cy="104.776" rx="2.1383" ry="2.1383" fill="black"/>
<ellipse cx="143.267" cy="258.733" rx="2.1383" ry="2.1383" fill="black"/>
<ellipse cx="143.267" cy="335.712" rx="2.1383" ry="2.1383" fill="black"/>
<ellipse cx="143.267" cy="53.4581" rx="2.1383" ry="2.1383" fill="black"/>
<ellipse cx="143.267" cy="207.415" rx="2.1383" ry="2.1383" fill="black"/>
<ellipse cx="143.267" cy="117.606" rx="2.1383" ry="2.1383" fill="black"/>
<ellipse cx="143.267" cy="271.564" rx="2.1383" ry="2.1383" fill="black"/>
<ellipse cx="143.267" cy="348.542" rx="2.1383" ry="2.1383" fill="black"/>
<ellipse cx="143.267" cy="66.2872" rx="2.1383" ry="2.1383" fill="black"/>
<ellipse cx="143.267" cy="220.243" rx="2.1383" ry="2.1383" fill="black"/>
<ellipse cx="143.267" cy="130.436" rx="2.1383" ry="2.1383" fill="black"/>
<ellipse cx="143.267" cy="284.393" rx="2.1383" ry="2.1383" fill="black"/>
<ellipse cx="143.267" cy="361.373" rx="2.1383" ry="2.1383" fill="black"/>
<ellipse cx="143.267" cy="387.032" rx="2.1383" ry="2.1383" fill="black"/>
<ellipse cx="143.267" cy="79.1163" rx="2.1383" ry="2.1383" fill="black"/>
<ellipse cx="143.267" cy="233.074" rx="2.1383" ry="2.1383" fill="black"/>
<ellipse cx="143.267" cy="310.053" rx="2.1383" ry="2.1383" fill="black"/>
<ellipse cx="143.267" cy="143.265" rx="2.1383" ry="2.1383" fill="black"/>
<ellipse cx="143.267" cy="297.224" rx="2.1383" ry="2.1383" fill="black"/>
<ellipse cx="143.267" cy="374.202" rx="2.1383" ry="2.1383" fill="black"/>
<ellipse cx="143.267" cy="399.862" rx="2.1383" ry="2.1383" fill="black"/>
<ellipse cx="348.541" cy="2.1383" rx="2.1383" ry="2.1383" fill="black"/>
<ellipse cx="348.543" cy="156.096" rx="2.1383" ry="2.1383" fill="black"/>
<ellipse cx="348.543" cy="14.9674" rx="2.1383" ry="2.1383" fill="black"/>
<ellipse cx="348.541" cy="168.925" rx="2.1383" ry="2.1383" fill="black"/>
<ellipse cx="348.543" cy="27.798" rx="2.1383" ry="2.1383" fill="black"/>
<ellipse cx="348.543" cy="181.755" rx="2.1383" ry="2.1383" fill="black"/>
<ellipse cx="348.541" cy="91.9469" rx="2.1383" ry="2.1383" fill="black"/>
<ellipse cx="348.543" cy="245.903" rx="2.1383" ry="2.1383" fill="black"/>
<ellipse cx="348.543" cy="322.883" rx="2.1383" ry="2.1383" fill="black"/>
<ellipse cx="348.541" cy="40.6276" rx="2.1383" ry="2.1383" fill="black"/>
<ellipse cx="348.541" cy="194.585" rx="2.1383" ry="2.1383" fill="black"/>
<ellipse cx="348.541" cy="104.776" rx="2.1383" ry="2.1383" fill="black"/>
<ellipse cx="348.543" cy="258.733" rx="2.1383" ry="2.1383" fill="black"/>
<ellipse cx="348.541" cy="335.712" rx="2.1383" ry="2.1383" fill="black"/>
<ellipse cx="348.543" cy="53.4581" rx="2.1383" ry="2.1383" fill="black"/>
<ellipse cx="348.541" cy="207.415" rx="2.1383" ry="2.1383" fill="black"/>
<ellipse cx="348.543" cy="117.606" rx="2.1383" ry="2.1383" fill="black"/>
<ellipse cx="348.541" cy="271.564" rx="2.1383" ry="2.1383" fill="black"/>
<ellipse cx="348.543" cy="348.542" rx="2.1383" ry="2.1383" fill="black"/>
<ellipse cx="348.541" cy="66.2872" rx="2.1383" ry="2.1383" fill="black"/>
<ellipse cx="348.543" cy="220.243" rx="2.1383" ry="2.1383" fill="black"/>
<ellipse cx="348.541" cy="130.436" rx="2.1383" ry="2.1383" fill="black"/>
<ellipse cx="348.541" cy="284.393" rx="2.1383" ry="2.1383" fill="black"/>
<ellipse cx="348.543" cy="361.373" rx="2.1383" ry="2.1383" fill="black"/>
<ellipse cx="348.543" cy="387.032" rx="2.1383" ry="2.1383" fill="black"/>
<ellipse cx="348.543" cy="79.1163" rx="2.1383" ry="2.1383" fill="black"/>
<ellipse cx="348.541" cy="233.074" rx="2.1383" ry="2.1383" fill="black"/>
<ellipse cx="348.541" cy="310.053" rx="2.1383" ry="2.1383" fill="black"/>
<ellipse cx="348.541" cy="143.265" rx="2.1383" ry="2.1383" fill="black"/>
<ellipse cx="348.543" cy="297.224" rx="2.1383" ry="2.1383" fill="black"/>
<ellipse cx="348.541" cy="374.202" rx="2.1383" ry="2.1383" fill="black"/>
<ellipse cx="348.543" cy="399.862" rx="2.1383" ry="2.1383" fill="black"/>
<ellipse cx="91.9469" cy="2.1383" rx="2.1383" ry="2.1383" fill="black"/>
<ellipse cx="91.9469" cy="156.096" rx="2.1383" ry="2.1383" fill="black"/>
<ellipse cx="91.9469" cy="14.9674" rx="2.1383" ry="2.1383" fill="black"/>
<ellipse cx="91.9469" cy="168.925" rx="2.1383" ry="2.1383" fill="black"/>
<ellipse cx="91.9469" cy="27.798" rx="2.1383" ry="2.1383" fill="black"/>
<ellipse cx="91.9469" cy="181.755" rx="2.1383" ry="2.1383" fill="black"/>
<ellipse cx="91.9469" cy="91.9469" rx="2.1383" ry="2.1383" fill="black"/>
<ellipse cx="91.9469" cy="245.903" rx="2.1383" ry="2.1383" fill="black"/>
<ellipse cx="91.9469" cy="322.883" rx="2.1383" ry="2.1383" fill="black"/>
<ellipse cx="91.9469" cy="40.6276" rx="2.1383" ry="2.1383" fill="black"/>
<ellipse cx="91.9469" cy="194.585" rx="2.1383" ry="2.1383" fill="black"/>
<ellipse cx="91.9469" cy="104.776" rx="2.1383" ry="2.1383" fill="black"/>
<ellipse cx="91.9469" cy="258.733" rx="2.1383" ry="2.1383" fill="black"/>
<ellipse cx="91.9469" cy="335.712" rx="2.1383" ry="2.1383" fill="black"/>
<ellipse cx="91.9469" cy="53.4581" rx="2.1383" ry="2.1383" fill="black"/>
<ellipse cx="91.9469" cy="207.415" rx="2.1383" ry="2.1383" fill="black"/>
<ellipse cx="91.9469" cy="117.606" rx="2.1383" ry="2.1383" fill="black"/>
<ellipse cx="91.9469" cy="271.564" rx="2.1383" ry="2.1383" fill="black"/>
<ellipse cx="91.9469" cy="348.542" rx="2.1383" ry="2.1383" fill="black"/>
<ellipse cx="91.9469" cy="66.2872" rx="2.1383" ry="2.1383" fill="black"/>
<ellipse cx="91.9469" cy="220.243" rx="2.1383" ry="2.1383" fill="black"/>
<ellipse cx="91.9469" cy="130.436" rx="2.1383" ry="2.1383" fill="black"/>
<ellipse cx="91.9469" cy="284.393" rx="2.1383" ry="2.1383" fill="black"/>
<ellipse cx="91.9469" cy="361.373" rx="2.1383" ry="2.1383" fill="black"/>
<ellipse cx="91.9469" cy="387.032" rx="2.1383" ry="2.1383" fill="black"/>
<ellipse cx="91.9469" cy="79.1163" rx="2.1383" ry="2.1383" fill="black"/>
<ellipse cx="91.9469" cy="233.074" rx="2.1383" ry="2.1383" fill="black"/>
<ellipse cx="91.9469" cy="310.053" rx="2.1383" ry="2.1383" fill="black"/>
<ellipse cx="91.9469" cy="143.265" rx="2.1383" ry="2.1383" fill="black"/>
<ellipse cx="91.9469" cy="297.224" rx="2.1383" ry="2.1383" fill="black"/>
<ellipse cx="91.9469" cy="374.202" rx="2.1383" ry="2.1383" fill="black"/>
<ellipse cx="91.9469" cy="399.862" rx="2.1383" ry="2.1383" fill="black"/>
<ellipse cx="297.222" cy="2.1383" rx="2.1383" ry="2.1383" fill="black"/>
<ellipse cx="297.222" cy="156.096" rx="2.1383" ry="2.1383" fill="black"/>
<ellipse cx="297.222" cy="14.9674" rx="2.1383" ry="2.1383" fill="black"/>
<ellipse cx="297.224" cy="168.925" rx="2.1383" ry="2.1383" fill="black"/>
<ellipse cx="297.222" cy="27.798" rx="2.1383" ry="2.1383" fill="black"/>
<ellipse cx="297.222" cy="181.755" rx="2.1383" ry="2.1383" fill="black"/>
<ellipse cx="297.224" cy="91.9469" rx="2.1383" ry="2.1383" fill="black"/>
<ellipse cx="297.222" cy="245.903" rx="2.1383" ry="2.1383" fill="black"/>
<ellipse cx="297.222" cy="322.883" rx="2.1383" ry="2.1383" fill="black"/>
<ellipse cx="297.224" cy="40.6276" rx="2.1383" ry="2.1383" fill="black"/>
<ellipse cx="297.224" cy="194.585" rx="2.1383" ry="2.1383" fill="black"/>
<ellipse cx="297.224" cy="104.776" rx="2.1383" ry="2.1383" fill="black"/>
<ellipse cx="297.222" cy="258.733" rx="2.1383" ry="2.1383" fill="black"/>
<ellipse cx="297.224" cy="335.712" rx="2.1383" ry="2.1383" fill="black"/>
<ellipse cx="297.222" cy="53.4581" rx="2.1383" ry="2.1383" fill="black"/>
<ellipse cx="297.224" cy="207.415" rx="2.1383" ry="2.1383" fill="black"/>
<ellipse cx="297.222" cy="117.606" rx="2.1383" ry="2.1383" fill="black"/>
<ellipse cx="297.224" cy="271.564" rx="2.1383" ry="2.1383" fill="black"/>
<ellipse cx="297.222" cy="348.542" rx="2.1383" ry="2.1383" fill="black"/>
<ellipse cx="297.224" cy="66.2872" rx="2.1383" ry="2.1383" fill="black"/>
<ellipse cx="297.222" cy="220.243" rx="2.1383" ry="2.1383" fill="black"/>
<ellipse cx="297.224" cy="130.436" rx="2.1383" ry="2.1383" fill="black"/>
<ellipse cx="297.224" cy="284.393" rx="2.1383" ry="2.1383" fill="black"/>
<ellipse cx="297.222" cy="361.373" rx="2.1383" ry="2.1383" fill="black"/>
<ellipse cx="297.222" cy="387.032" rx="2.1383" ry="2.1383" fill="black"/>
<ellipse cx="297.222" cy="79.1163" rx="2.1383" ry="2.1383" fill="black"/>
<ellipse cx="297.224" cy="233.074" rx="2.1383" ry="2.1383" fill="black"/>
<ellipse cx="297.224" cy="310.053" rx="2.1383" ry="2.1383" fill="black"/>
<ellipse cx="297.224" cy="143.265" rx="2.1383" ry="2.1383" fill="black"/>
<ellipse cx="297.222" cy="297.224" rx="2.1383" ry="2.1383" fill="black"/>
<ellipse cx="297.224" cy="374.202" rx="2.1383" ry="2.1383" fill="black"/>
<ellipse cx="297.222" cy="399.862" rx="2.1383" ry="2.1383" fill="black"/>
<ellipse cx="194.584" cy="2.1383" rx="2.1383" ry="2.1383" fill="black"/>
<ellipse cx="194.584" cy="156.096" rx="2.1383" ry="2.1383" fill="black"/>
<ellipse cx="194.584" cy="14.9674" rx="2.1383" ry="2.1383" fill="black"/>
<ellipse cx="194.584" cy="168.925" rx="2.1383" ry="2.1383" fill="black"/>
<ellipse cx="194.584" cy="27.798" rx="2.1383" ry="2.1383" fill="black"/>
<ellipse cx="194.584" cy="181.755" rx="2.1383" ry="2.1383" fill="black"/>
<ellipse cx="194.584" cy="91.9469" rx="2.1383" ry="2.1383" fill="black"/>
<ellipse cx="194.584" cy="245.903" rx="2.1383" ry="2.1383" fill="black"/>
<ellipse cx="194.584" cy="322.883" rx="2.1383" ry="2.1383" fill="black"/>
<ellipse cx="194.584" cy="40.6276" rx="2.1383" ry="2.1383" fill="black"/>
<ellipse cx="194.584" cy="194.585" rx="2.1383" ry="2.1383" fill="black"/>
<ellipse cx="194.584" cy="104.776" rx="2.1383" ry="2.1383" fill="black"/>
<ellipse cx="194.584" cy="258.733" rx="2.1383" ry="2.1383" fill="black"/>
<ellipse cx="194.584" cy="335.712" rx="2.1383" ry="2.1383" fill="black"/>
<ellipse cx="194.584" cy="53.4581" rx="2.1383" ry="2.1383" fill="black"/>
<ellipse cx="194.584" cy="207.415" rx="2.1383" ry="2.1383" fill="black"/>
<ellipse cx="194.584" cy="117.606" rx="2.1383" ry="2.1383" fill="black"/>
<ellipse cx="194.584" cy="271.564" rx="2.1383" ry="2.1383" fill="black"/>
<ellipse cx="194.584" cy="348.542" rx="2.1383" ry="2.1383" fill="black"/>
<ellipse cx="194.584" cy="66.2872" rx="2.1383" ry="2.1383" fill="black"/>
<ellipse cx="194.584" cy="220.243" rx="2.1383" ry="2.1383" fill="black"/>
<ellipse cx="194.584" cy="130.436" rx="2.1383" ry="2.1383" fill="black"/>
<ellipse cx="194.584" cy="284.393" rx="2.1383" ry="2.1383" fill="black"/>
<ellipse cx="194.584" cy="361.373" rx="2.1383" ry="2.1383" fill="black"/>
<ellipse cx="194.584" cy="387.032" rx="2.1383" ry="2.1383" fill="black"/>
<ellipse cx="194.584" cy="79.1163" rx="2.1383" ry="2.1383" fill="black"/>
<ellipse cx="194.584" cy="233.074" rx="2.1383" ry="2.1383" fill="black"/>
<ellipse cx="194.584" cy="310.053" rx="2.1383" ry="2.1383" fill="black"/>
<ellipse cx="194.584" cy="143.265" rx="2.1383" ry="2.1383" fill="black"/>
<ellipse cx="194.584" cy="297.224" rx="2.1383" ry="2.1383" fill="black"/>
<ellipse cx="194.584" cy="374.202" rx="2.1383" ry="2.1383" fill="black"/>
<ellipse cx="194.584" cy="399.862" rx="2.1383" ry="2.1383" fill="black"/>
<ellipse cx="399.863" cy="2.1383" rx="2.1383" ry="2.1383" fill="black"/>
<ellipse cx="399.861" cy="156.096" rx="2.1383" ry="2.1383" fill="black"/>
<ellipse cx="399.861" cy="14.9674" rx="2.1383" ry="2.1383" fill="black"/>
<ellipse cx="399.861" cy="168.925" rx="2.1383" ry="2.1383" fill="black"/>
<ellipse cx="399.861" cy="27.798" rx="2.1383" ry="2.1383" fill="black"/>
<ellipse cx="399.861" cy="181.755" rx="2.1383" ry="2.1383" fill="black"/>
<ellipse cx="399.861" cy="91.9469" rx="2.1383" ry="2.1383" fill="black"/>
<ellipse cx="399.861" cy="245.903" rx="2.1383" ry="2.1383" fill="black"/>
<ellipse cx="399.861" cy="322.883" rx="2.1383" ry="2.1383" fill="black"/>
<ellipse cx="399.861" cy="40.6276" rx="2.1383" ry="2.1383" fill="black"/>
<ellipse cx="399.861" cy="194.585" rx="2.1383" ry="2.1383" fill="black"/>
<ellipse cx="399.861" cy="104.776" rx="2.1383" ry="2.1383" fill="black"/>
<ellipse cx="399.861" cy="258.733" rx="2.1383" ry="2.1383" fill="black"/>
<ellipse cx="399.861" cy="335.712" rx="2.1383" ry="2.1383" fill="black"/>
<ellipse cx="399.861" cy="53.4581" rx="2.1383" ry="2.1383" fill="black"/>
<ellipse cx="399.861" cy="207.415" rx="2.1383" ry="2.1383" fill="black"/>
<ellipse cx="399.861" cy="117.606" rx="2.1383" ry="2.1383" fill="black"/>
<ellipse cx="399.861" cy="271.564" rx="2.1383" ry="2.1383" fill="black"/>
<ellipse cx="399.861" cy="348.542" rx="2.1383" ry="2.1383" fill="black"/>
<ellipse cx="399.861" cy="66.2872" rx="2.1383" ry="2.1383" fill="black"/>
<ellipse cx="399.861" cy="220.243" rx="2.1383" ry="2.1383" fill="black"/>
<ellipse cx="399.861" cy="130.436" rx="2.1383" ry="2.1383" fill="black"/>
<ellipse cx="399.861" cy="284.393" rx="2.1383" ry="2.1383" fill="black"/>
<ellipse cx="399.861" cy="361.373" rx="2.1383" ry="2.1383" fill="black"/>
<ellipse cx="399.861" cy="387.032" rx="2.1383" ry="2.1383" fill="black"/>
<ellipse cx="399.861" cy="79.1163" rx="2.1383" ry="2.1383" fill="black"/>
<ellipse cx="399.861" cy="233.074" rx="2.1383" ry="2.1383" fill="black"/>
<ellipse cx="399.861" cy="310.053" rx="2.1383" ry="2.1383" fill="black"/>
<ellipse cx="399.861" cy="143.265" rx="2.1383" ry="2.1383" fill="black"/>
<ellipse cx="399.861" cy="297.224" rx="2.1383" ry="2.1383" fill="black"/>
<ellipse cx="399.861" cy="374.202" rx="2.1383" ry="2.1383" fill="black"/>
<ellipse cx="399.861" cy="399.862" rx="2.1383" ry="2.1383" fill="black"/>
</mask>
<g mask="url(#mask0)">
<path d="M29.7363 192.047C29.7363 187.278 29.7363 182.572 29.7363 177.803C30.0444 176.193 30.3524 174.645 30.6605 173.035C35.774 144.362 51.546 124.05 77.8531 112.036C82.597 109.869 85.1846 106.339 85.8007 101.199C90.6678 60.4503 123.752 28.6813 164.414 25.5849C207.725 22.3028 246.231 51.223 255.411 93.8913C257.259 102.561 260.155 105.1 268.965 105.596C305.376 107.701 334.64 131.915 343.019 166.966C343.943 170.744 344.436 174.645 345.175 178.485C345.175 183.005 345.175 187.588 345.175 192.109C344.744 194.338 344.313 196.506 344.005 198.735C338.214 235.21 305.437 264.254 268.78 264.502C214.995 264.812 161.21 264.812 107.426 264.502C72.6779 264.316 42.1814 240.412 32.8168 206.786C31.4614 201.955 30.7221 196.939 29.7363 192.047Z" fill="#001064" fill-opacity="0.3"/>
</g>
<path d="M282 104L283 136L242.5 139L235.5 238L189 243H180.5L176.5 241L174 236L167.5 139L168.5 122.5L189 99L198.5 94L269 92L275.5 93L280 98L282 104Z" fill="white"/>
<mask id="path-1027-outside-1" maskUnits="userSpaceOnUse" x="159.695" y="84.9221" width="134.2" height="164.393" fill="black">
<rect fill="white" x="159.695" y="84.9221" width="134.2" height="164.393"/>
<path d="M271.115 91.6254C265.986 91.7833 260.865 91.9067 255.732 92.0198C253.171 92.0702 250.609 92.1207 248.036 92.1608L244.187 92.2258L240.338 92.2795L232.648 92.3635L224.956 92.4138L209.582 92.5024L201.891 92.5751L199.972 92.5959L199.735 92.6039C199.657 92.6103 199.577 92.6055 199.487 92.6128C199.307 92.6162 199.126 92.6196 198.947 92.6342C198.587 92.6635 198.229 92.704 197.872 92.767C196.423 93.0094 195.041 93.5288 193.804 94.2963C193.18 94.6749 192.605 95.1173 192.07 95.613L191.87 95.7988L191.692 95.9715L191.346 96.3048L190.655 96.9714L187.914 99.6696L182.432 105.066C178.793 108.674 175.157 112.304 171.542 115.932L170.184 117.297L169.851 117.641L169.684 117.813L169.497 118.009C169.372 118.143 169.247 118.278 169.124 118.423C169.011 118.568 168.886 118.703 168.774 118.848C167.863 120.007 167.192 121.35 166.8 122.772C166.597 123.477 166.476 124.211 166.412 124.939C166.392 125.122 166.385 125.303 166.377 125.484C166.369 125.666 166.361 125.847 166.377 126.038L166.388 126.309L166.387 126.444L166.397 126.568L166.426 127.051L166.648 130.887C167.833 151.37 169.355 171.825 170.416 192.318C170.687 197.438 170.947 202.559 171.173 207.683L171.517 215.362L171.838 223.043L172.137 230.726L172.204 232.653L172.221 233.138L172.23 233.386L172.251 233.644L172.272 233.902L172.304 234.16L172.336 234.417C172.344 234.507 172.361 234.584 172.38 234.673C172.592 236.023 173.083 237.339 173.789 238.514C175.214 240.873 177.574 242.647 180.264 243.343C180.933 243.515 181.621 243.628 182.314 243.673C182.484 243.682 182.665 243.69 182.835 243.687C183.005 243.696 183.184 243.681 183.354 243.679L183.489 243.679L183.613 243.669L183.85 243.661L184.334 243.644L188.175 243.478L203.547 242.814L211.227 242.482L218.917 242.126C229.163 241.653 239.404 241.113 249.644 240.572L265.005 239.773L272.692 239.373L276.529 239.173L277.497 239.117C277.687 239.101 277.867 239.087 278.058 239.071L278.616 238.992C279.364 238.874 280.094 238.679 280.808 238.429C282.224 237.907 283.549 237.109 284.664 236.103C285.779 235.086 286.708 233.857 287.365 232.493C288.022 231.128 288.409 229.639 288.5 228.117L288.521 227.55C288.517 227.359 288.514 227.178 288.509 226.986L288.475 226.017L288.397 224.091C288.194 218.966 287.968 213.842 287.731 208.719C287.505 203.596 287.268 198.473 287.02 193.351C286.771 188.229 286.534 183.107 286.264 177.987C285.744 167.734 285.111 157.49 284.458 147.259C283.792 137.018 283.093 126.791 282.483 116.545L282.261 112.709L282.038 108.874L281.614 101.178C281.529 99.8631 281.187 98.58 280.616 97.3947C280.045 96.2207 279.245 95.1444 278.282 94.2737C277.317 93.3917 276.176 92.7048 274.952 92.2508C273.728 91.7967 272.423 91.5866 271.115 91.6254ZM271.12 91.964C272.383 91.9289 273.644 92.1427 274.821 92.5779C276.011 93.0347 277.105 93.7028 278.022 94.5547C278.939 95.4067 279.702 96.4408 280.236 97.5839C280.757 98.7167 281.062 99.9576 281.119 101.207C281.214 103.765 281.289 106.336 281.362 108.895L281.472 112.74L281.571 116.585C281.831 126.837 282.001 137.096 282.205 147.352C282.42 157.607 282.657 167.861 282.997 178.117C283.166 183.245 283.359 188.372 283.55 193.487C283.731 198.614 283.934 203.74 284.138 208.865C284.341 213.99 284.556 219.115 284.782 224.239L284.871 226.164L284.914 227.11C284.914 227.245 284.924 227.369 284.924 227.504L284.911 227.901C284.849 228.946 284.583 229.984 284.141 230.936C283.688 231.888 283.058 232.753 282.279 233.461C281.501 234.18 280.586 234.74 279.61 235.102C279.117 235.289 278.608 235.421 278.084 235.509L277.693 235.564C277.558 235.575 277.423 235.586 277.3 235.596L276.356 235.661L272.522 235.906L264.843 236.396L249.486 237.387C239.256 238.051 229.012 238.693 218.787 239.413L211.111 239.948L203.438 240.506L188.092 241.632L184.261 241.91L183.778 241.949L183.542 241.968L183.419 241.979L183.306 241.988C183.159 241.988 183.014 242.011 182.867 242.001C182.72 242.002 182.573 242.002 182.426 242.003C181.837 241.983 181.254 241.906 180.678 241.772C179.526 241.505 178.435 241.017 177.464 240.328C176.493 239.65 175.664 238.768 175.017 237.77C174.371 236.771 173.928 235.643 173.719 234.462C173.701 234.385 173.685 234.318 173.678 234.24L173.649 234.016L173.619 233.792L173.601 233.568L173.582 233.343L173.563 233.108L173.535 232.624L173.423 230.701L173 223.016L172.599 215.33L172.22 207.643C171.972 202.521 171.735 197.398 171.532 192.273C170.662 171.775 170.243 151.264 169.486 130.769L169.343 126.927L169.326 126.442L169.316 126.319L169.319 126.217L169.313 126.014C169.302 125.879 169.314 125.742 169.325 125.606C169.325 125.47 169.337 125.334 169.36 125.196C169.417 124.649 169.52 124.11 169.669 123.589C169.819 123.068 170.026 122.554 170.28 122.07C170.534 121.586 170.836 121.132 171.174 120.697C171.255 120.589 171.349 120.491 171.431 120.383C171.512 120.274 171.617 120.175 171.711 120.077L171.857 119.93L172.024 119.758L172.37 119.425L173.728 118.071C177.366 114.452 180.98 110.824 184.593 107.173L189.989 101.693L192.68 98.9423L193.347 98.255L193.648 97.9254L193.815 97.7536L193.961 97.6061C194.36 97.2233 194.783 96.8724 195.255 96.5627C196.177 95.9564 197.227 95.5205 198.316 95.2962C198.594 95.2396 198.862 95.1952 199.142 95.1724C199.277 95.1614 199.423 95.1495 199.558 95.1385C199.625 95.133 199.715 95.1257 199.794 95.1305L200.031 95.1226L201.956 95.0335L209.644 94.6558L225.007 93.8675L232.694 93.4786L240.383 93.1121L244.222 92.9349L248.063 92.7689C250.62 92.6623 253.188 92.5548 255.745 92.4594C260.873 92.279 266.001 92.1098 271.12 91.964Z"/>
</mask>
<path d="M271.115 91.6254C265.986 91.7833 260.865 91.9067 255.732 92.0198C253.171 92.0702 250.609 92.1207 248.036 92.1608L244.187 92.2258L240.338 92.2795L232.648 92.3635L224.956 92.4138L209.582 92.5024L201.891 92.5751L199.972 92.5959L199.735 92.6039C199.657 92.6103 199.577 92.6055 199.487 92.6128C199.307 92.6162 199.126 92.6196 198.947 92.6342C198.587 92.6635 198.229 92.704 197.872 92.767C196.423 93.0094 195.041 93.5288 193.804 94.2963C193.18 94.6749 192.605 95.1173 192.07 95.613L191.87 95.7988L191.692 95.9715L191.346 96.3048L190.655 96.9714L187.914 99.6696L182.432 105.066C178.793 108.674 175.157 112.304 171.542 115.932L170.184 117.297L169.851 117.641L169.684 117.813L169.497 118.009C169.372 118.143 169.247 118.278 169.124 118.423C169.011 118.568 168.886 118.703 168.774 118.848C167.863 120.007 167.192 121.35 166.8 122.772C166.597 123.477 166.476 124.211 166.412 124.939C166.392 125.122 166.385 125.303 166.377 125.484C166.369 125.666 166.361 125.847 166.377 126.038L166.388 126.309L166.387 126.444L166.397 126.568L166.426 127.051L166.648 130.887C167.833 151.37 169.355 171.825 170.416 192.318C170.687 197.438 170.947 202.559 171.173 207.683L171.517 215.362L171.838 223.043L172.137 230.726L172.204 232.653L172.221 233.138L172.23 233.386L172.251 233.644L172.272 233.902L172.304 234.16L172.336 234.417C172.344 234.507 172.361 234.584 172.38 234.673C172.592 236.023 173.083 237.339 173.789 238.514C175.214 240.873 177.574 242.647 180.264 243.343C180.933 243.515 181.621 243.628 182.314 243.673C182.484 243.682 182.665 243.69 182.835 243.687C183.005 243.696 183.184 243.681 183.354 243.679L183.489 243.679L183.613 243.669L183.85 243.661L184.334 243.644L188.175 243.478L203.547 242.814L211.227 242.482L218.917 242.126C229.163 241.653 239.404 241.113 249.644 240.572L265.005 239.773L272.692 239.373L276.529 239.173L277.497 239.117C277.687 239.101 277.867 239.087 278.058 239.071L278.616 238.992C279.364 238.874 280.094 238.679 280.808 238.429C282.224 237.907 283.549 237.109 284.664 236.103C285.779 235.086 286.708 233.857 287.365 232.493C288.022 231.128 288.409 229.639 288.5 228.117L288.521 227.55C288.517 227.359 288.514 227.178 288.509 226.986L288.475 226.017L288.397 224.091C288.194 218.966 287.968 213.842 287.731 208.719C287.505 203.596 287.268 198.473 287.02 193.351C286.771 188.229 286.534 183.107 286.264 177.987C285.744 167.734 285.111 157.49 284.458 147.259C283.792 137.018 283.093 126.791 282.483 116.545L282.261 112.709L282.038 108.874L281.614 101.178C281.529 99.8631 281.187 98.58 280.616 97.3947C280.045 96.2207 279.245 95.1444 278.282 94.2737C277.317 93.3917 276.176 92.7048 274.952 92.2508C273.728 91.7967 272.423 91.5866 271.115 91.6254ZM271.12 91.964C272.383 91.9289 273.644 92.1427 274.821 92.5779C276.011 93.0347 277.105 93.7028 278.022 94.5547C278.939 95.4067 279.702 96.4408 280.236 97.5839C280.757 98.7167 281.062 99.9576 281.119 101.207C281.214 103.765 281.289 106.336 281.362 108.895L281.472 112.74L281.571 116.585C281.831 126.837 282.001 137.096 282.205 147.352C282.42 157.607 282.657 167.861 282.997 178.117C283.166 183.245 283.359 188.372 283.55 193.487C283.731 198.614 283.934 203.74 284.138 208.865C284.341 213.99 284.556 219.115 284.782 224.239L284.871 226.164L284.914 227.11C284.914 227.245 284.924 227.369 284.924 227.504L284.911 227.901C284.849 228.946 284.583 229.984 284.141 230.936C283.688 231.888 283.058 232.753 282.279 233.461C281.501 234.18 280.586 234.74 279.61 235.102C279.117 235.289 278.608 235.421 278.084 235.509L277.693 235.564C277.558 235.575 277.423 235.586 277.3 235.596L276.356 235.661L272.522 235.906L264.843 236.396L249.486 237.387C239.256 238.051 229.012 238.693 218.787 239.413L211.111 239.948L203.438 240.506L188.092 241.632L184.261 241.91L183.778 241.949L183.542 241.968L183.419 241.979L183.306 241.988C183.159 241.988 183.014 242.011 182.867 242.001C182.72 242.002 182.573 242.002 182.426 242.003C181.837 241.983 181.254 241.906 180.678 241.772C179.526 241.505 178.435 241.017 177.464 240.328C176.493 239.65 175.664 238.768 175.017 237.77C174.371 236.771 173.928 235.643 173.719 234.462C173.701 234.385 173.685 234.318 173.678 234.24L173.649 234.016L173.619 233.792L173.601 233.568L173.582 233.343L173.563 233.108L173.535 232.624L173.423 230.701L173 223.016L172.599 215.33L172.22 207.643C171.972 202.521 171.735 197.398 171.532 192.273C170.662 171.775 170.243 151.264 169.486 130.769L169.343 126.927L169.326 126.442L169.316 126.319L169.319 126.217L169.313 126.014C169.302 125.879 169.314 125.742 169.325 125.606C169.325 125.47 169.337 125.334 169.36 125.196C169.417 124.649 169.52 124.11 169.669 123.589C169.819 123.068 170.026 122.554 170.28 122.07C170.534 121.586 170.836 121.132 171.174 120.697C171.255 120.589 171.349 120.491 171.431 120.383C171.512 120.274 171.617 120.175 171.711 120.077L171.857 119.93L172.024 119.758L172.37 119.425L173.728 118.071C177.366 114.452 180.98 110.824 184.593 107.173L189.989 101.693L192.68 98.9423L193.347 98.255L193.648 97.9254L193.815 97.7536L193.961 97.6061C194.36 97.2233 194.783 96.8724 195.255 96.5627C196.177 95.9564 197.227 95.5205 198.316 95.2962C198.594 95.2396 198.862 95.1952 199.142 95.1724C199.277 95.1614 199.423 95.1495 199.558 95.1385C199.625 95.133 199.715 95.1257 199.794 95.1305L200.031 95.1226L201.956 95.0335L209.644 94.6558L225.007 93.8675L232.694 93.4786L240.383 93.1121L244.222 92.9349L248.063 92.7689C250.62 92.6623 253.188 92.5548 255.745 92.4594C260.873 92.279 266.001 92.1098 271.12 91.964Z" fill="#001064"/>
<path d="M271.115 91.6254C265.986 91.7833 260.865 91.9067 255.732 92.0198C253.171 92.0702 250.609 92.1207 248.036 92.1608L244.187 92.2258L240.338 92.2795L232.648 92.3635L224.956 92.4138L209.582 92.5024L201.891 92.5751L199.972 92.5959L199.735 92.6039C199.657 92.6103 199.577 92.6055 199.487 92.6128C199.307 92.6162 199.126 92.6196 198.947 92.6342C198.587 92.6635 198.229 92.704 197.872 92.767C196.423 93.0094 195.041 93.5288 193.804 94.2963C193.18 94.6749 192.605 95.1173 192.07 95.613L191.87 95.7988L191.692 95.9715L191.346 96.3048L190.655 96.9714L187.914 99.6696L182.432 105.066C178.793 108.674 175.157 112.304 171.542 115.932L170.184 117.297L169.851 117.641L169.684 117.813L169.497 118.009C169.372 118.143 169.247 118.278 169.124 118.423C169.011 118.568 168.886 118.703 168.774 118.848C167.863 120.007 167.192 121.35 166.8 122.772C166.597 123.477 166.476 124.211 166.412 124.939C166.392 125.122 166.385 125.303 166.377 125.484C166.369 125.666 166.361 125.847 166.377 126.038L166.388 126.309L166.387 126.444L166.397 126.568L166.426 127.051L166.648 130.887C167.833 151.37 169.355 171.825 170.416 192.318C170.687 197.438 170.947 202.559 171.173 207.683L171.517 215.362L171.838 223.043L172.137 230.726L172.204 232.653L172.221 233.138L172.23 233.386L172.251 233.644L172.272 233.902L172.304 234.16L172.336 234.417C172.344 234.507 172.361 234.584 172.38 234.673C172.592 236.023 173.083 237.339 173.789 238.514C175.214 240.873 177.574 242.647 180.264 243.343C180.933 243.515 181.621 243.628 182.314 243.673C182.484 243.682 182.665 243.69 182.835 243.687C183.005 243.696 183.184 243.681 183.354 243.679L183.489 243.679L183.613 243.669L183.85 243.661L184.334 243.644L188.175 243.478L203.547 242.814L211.227 242.482L218.917 242.126C229.163 241.653 239.404 241.113 249.644 240.572L265.005 239.773L272.692 239.373L276.529 239.173L277.497 239.117C277.687 239.101 277.867 239.087 278.058 239.071L278.616 238.992C279.364 238.874 280.094 238.679 280.808 238.429C282.224 237.907 283.549 237.109 284.664 236.103C285.779 235.086 286.708 233.857 287.365 232.493C288.022 231.128 288.409 229.639 288.5 228.117L288.521 227.55C288.517 227.359 288.514 227.178 288.509 226.986L288.475 226.017L288.397 224.091C288.194 218.966 287.968 213.842 287.731 208.719C287.505 203.596 287.268 198.473 287.02 193.351C286.771 188.229 286.534 183.107 286.264 177.987C285.744 167.734 285.111 157.49 284.458 147.259C283.792 137.018 283.093 126.791 282.483 116.545L282.261 112.709L282.038 108.874L281.614 101.178C281.529 99.8631 281.187 98.58 280.616 97.3947C280.045 96.2207 279.245 95.1444 278.282 94.2737C277.317 93.3917 276.176 92.7048 274.952 92.2508C273.728 91.7967 272.423 91.5866 271.115 91.6254ZM271.12 91.964C272.383 91.9289 273.644 92.1427 274.821 92.5779C276.011 93.0347 277.105 93.7028 278.022 94.5547C278.939 95.4067 279.702 96.4408 280.236 97.5839C280.757 98.7167 281.062 99.9576 281.119 101.207C281.214 103.765 281.289 106.336 281.362 108.895L281.472 112.74L281.571 116.585C281.831 126.837 282.001 137.096 282.205 147.352C282.42 157.607 282.657 167.861 282.997 178.117C283.166 183.245 283.359 188.372 283.55 193.487C283.731 198.614 283.934 203.74 284.138 208.865C284.341 213.99 284.556 219.115 284.782 224.239L284.871 226.164L284.914 227.11C284.914 227.245 284.924 227.369 284.924 227.504L284.911 227.901C284.849 228.946 284.583 229.984 284.141 230.936C283.688 231.888 283.058 232.753 282.279 233.461C281.501 234.18 280.586 234.74 279.61 235.102C279.117 235.289 278.608 235.421 278.084 235.509L277.693 235.564C277.558 235.575 277.423 235.586 277.3 235.596L276.356 235.661L272.522 235.906L264.843 236.396L249.486 237.387C239.256 238.051 229.012 238.693 218.787 239.413L211.111 239.948L203.438 240.506L188.092 241.632L184.261 241.91L183.778 241.949L183.542 241.968L183.419 241.979L183.306 241.988C183.159 241.988 183.014 242.011 182.867 242.001C182.72 242.002 182.573 242.002 182.426 242.003C181.837 241.983 181.254 241.906 180.678 241.772C179.526 241.505 178.435 241.017 177.464 240.328C176.493 239.65 175.664 238.768 175.017 237.77C174.371 236.771 173.928 235.643 173.719 234.462C173.701 234.385 173.685 234.318 173.678 234.24L173.649 234.016L173.619 233.792L173.601 233.568L173.582 233.343L173.563 233.108L173.535 232.624L173.423 230.701L173 223.016L172.599 215.33L172.22 207.643C171.972 202.521 171.735 197.398 171.532 192.273C170.662 171.775 170.243 151.264 169.486 130.769L169.343 126.927L169.326 126.442L169.316 126.319L169.319 126.217L169.313 126.014C169.302 125.879 169.314 125.742 169.325 125.606C169.325 125.47 169.337 125.334 169.36 125.196C169.417 124.649 169.52 124.11 169.669 123.589C169.819 123.068 170.026 122.554 170.28 122.07C170.534 121.586 170.836 121.132 171.174 120.697C171.255 120.589 171.349 120.491 171.431 120.383C171.512 120.274 171.617 120.175 171.711 120.077L171.857 119.93L172.024 119.758L172.37 119.425L173.728 118.071C177.366 114.452 180.98 110.824 184.593 107.173L189.989 101.693L192.68 98.9423L193.347 98.255L193.648 97.9254L193.815 97.7536L193.961 97.6061C194.36 97.2233 194.783 96.8724 195.255 96.5627C196.177 95.9564 197.227 95.5205 198.316 95.2962C198.594 95.2396 198.862 95.1952 199.142 95.1724C199.277 95.1614 199.423 95.1495 199.558 95.1385C199.625 95.133 199.715 95.1257 199.794 95.1305L200.031 95.1226L201.956 95.0335L209.644 94.6558L225.007 93.8675L232.694 93.4786L240.383 93.1121L244.222 92.9349L248.063 92.7689C250.62 92.6623 253.188 92.5548 255.745 92.4594C260.873 92.279 266.001 92.1098 271.12 91.964Z" stroke="#001064" stroke-width="2" mask="url(#path-1027-outside-1)"/>
<path d="M201.68 93.6944C201.466 95.0309 201.316 96.3588 201.166 97.6867C201.017 99.0146 200.894 100.352 200.785 101.688C200.565 104.346 200.397 107.01 200.257 109.684L200.171 111.684C200.143 112.355 200.126 113.011 200.098 113.682C200.082 114.351 200.052 115.009 200.037 115.678L200.025 116.176L200.015 116.295L200.003 116.402L199.992 116.612C199.985 116.757 199.977 116.889 199.957 117.036L199.933 117.248C199.929 117.314 199.912 117.382 199.909 117.461C199.604 119.685 198.535 121.764 196.951 123.322C196.559 123.715 196.123 124.074 195.669 124.396C195.216 124.718 194.744 125.003 194.241 125.254C193.247 125.739 192.164 126.054 191.048 126.216L190.622 126.26L190.131 126.299L189.136 126.393C188.477 126.454 187.806 126.518 187.147 126.579L185.16 126.779L183.171 126.966C180.518 127.268 177.881 127.594 175.228 128C173.908 128.202 172.588 128.404 171.261 128.647C169.944 128.875 168.618 129.13 167.309 129.41C168.647 129.545 169.994 129.64 171.326 129.724C172.658 129.808 173.999 129.864 175.339 129.908C178.005 129.997 180.678 130.032 183.343 130.017L185.343 130.012L187.34 129.981C188.005 129.97 188.671 129.96 189.335 129.937L190.338 129.907L190.833 129.894L191.403 129.857C192.929 129.732 194.46 129.344 195.865 128.699C196.566 128.37 197.248 127.991 197.882 127.554C198.517 127.116 199.117 126.617 199.672 126.072C201.879 123.894 203.3 120.919 203.557 117.85C203.571 117.757 203.572 117.665 203.584 117.559L203.597 117.269C203.61 117.071 203.612 116.888 203.612 116.692L203.612 116.404L203.606 116.261L203.602 116.131L203.588 115.635C203.565 114.972 203.529 114.309 203.504 113.632C203.468 112.97 203.445 112.306 203.407 111.631L203.297 109.632C203.138 106.972 202.939 104.304 202.675 101.645C202.537 100.316 202.399 98.9871 202.234 97.6489C202.073 96.3493 201.908 95.0112 201.68 93.6944Z" fill="#001064"/>
<rect x="225.84" y="133.739" width="124.557" height="116.084" rx="18.6544" fill="#001064"/>
<rect x="247.45" y="136.707" width="118.621" height="110.148" rx="15.6866" fill="#FFC47F" stroke="#001C63" stroke-width="5.93548"/>
<path d="M333.146 133.739V73.6806C333.146 52.8562 316.265 35.9746 295.44 35.9746V35.9746C274.616 35.9746 257.734 52.8562 257.734 73.6806V92.5" stroke="#001064" stroke-width="8"/>
<mask id="mask1" mask-type="alpha" maskUnits="userSpaceOnUse" x="252" y="139" width="112" height="105">
<rect x="252.107" y="139.67" width="111" height="104.221" rx="12.7189" fill="white"/>
</mask>
<g mask="url(#mask1)">
<rect x="347.764" y="122.724" width="38.1297" height="155.908" transform="rotate(30 347.764 122.724)" fill="white"/>
<rect x="387.42" y="148.991" width="13.3605" height="155.908" transform="rotate(30 387.42 148.991)" fill="white"/>
</g>
<ellipse cx="306.783" cy="189.866" rx="13.9901" ry="13.9901" fill="#001C63"/>
<ellipse cx="182.87" cy="40.9718" rx="3.99717" ry="3.99717" fill="#55DBA4"/>
<ellipse cx="66.9522" cy="168.88" rx="3.99717" ry="3.99717" fill="#55DBA4"/>
<ellipse cx="131.907" cy="104.926" rx="3.99717" ry="3.99717" fill="#55DBA4"/>
<ellipse cx="118.915" cy="194.862" rx="3.99717" ry="3.99717" fill="#55DBA4"/>
<path d="M258 93L258 134" stroke="#55DBA4" stroke-width="8"/>
<rect x="299.787" y="189.866" width="12.9908" height="27.9802" fill="#001C63"/>
<path d="M151.751 156.79L151.75 156.79C149.044 157.291 146.268 157.65 143.505 158.008C142.579 158.128 141.654 158.247 140.734 158.372C140.571 161.325 140.403 164.276 140.235 167.227C139.833 174.297 139.432 181.362 139.101 188.424L139.101 188.427C138.958 191.387 138.978 194.325 139.277 197.193L139.277 197.196C140.202 206.188 143.143 214.235 148.536 221.106L151.751 156.79ZM151.751 156.79C159.893 155.278 167.71 152.601 175.211 148.925M151.751 156.79L175.211 148.925M175.218 148.929C184.296 154.648 193.999 158.791 204.331 161.191C205.58 161.491 206.889 161.727 208.171 161.959C208.264 161.975 208.357 161.992 208.449 162.009C208.267 165.335 208.099 168.653 207.931 171.966C207.564 179.196 207.199 186.402 206.69 193.623M175.218 148.929L148.537 221.108C148.537 221.107 148.536 221.107 148.536 221.107C153.168 226.995 159.069 230.94 165.804 233.851L165.812 233.854L165.819 233.857C168.986 235.261 171.801 235.688 174.731 234.489M175.218 148.929C175.215 148.927 175.213 148.926 175.211 148.925M175.218 148.929L175.211 148.925M206.69 193.623C206.69 193.623 206.69 193.623 206.69 193.622L208.435 193.747L206.69 193.623ZM206.69 193.623C205.515 210.231 196.456 228.312 175.64 234.207L175.606 234.217L175.572 234.228C175.549 234.235 175.535 234.239 175.485 234.251C175.454 234.259 175.408 234.27 175.339 234.287C175.214 234.318 174.982 234.378 174.731 234.489M174.731 234.489C174.74 234.485 174.749 234.482 174.758 234.478L175.426 236.096L174.685 234.51C174.7 234.503 174.716 234.496 174.731 234.489Z" fill="#55DBA4" stroke="#001064" stroke-width="3.5"/>
<path d="M178.029 184.971C179.584 186.436 184.162 188.427 190.038 184.672" stroke="#001064" stroke-width="2.15055" stroke-linecap="round"/>
<path d="M151.535 185.531C152.733 187.028 156.62 189.327 162.578 186.541" stroke="#001064" stroke-width="2.15055" stroke-linecap="round"/>
<path d="M171.83 206.686C169.177 206.783 166.472 206.346 163.989 205.365C163.349 205.091 163.02 204.508 163.236 203.904C166.545 194.915 167.665 185.172 166.478 175.572C161.629 177.713 155.885 178.34 150.391 177.29C149.694 177.137 149.224 176.5 149.303 175.901C149.451 175.301 150.165 174.918 150.857 175.011C156.357 176.12 162.146 175.254 166.819 172.703C167.21 172.51 167.687 172.492 168.112 172.655C168.537 172.819 168.843 173.164 168.883 173.58C170.461 183.701 169.533 194.032 166.212 203.617C169.234 204.519 172.653 204.573 175.574 203.692C176.237 203.489 177.02 203.818 177.28 204.404C177.541 204.989 177.195 205.657 176.531 205.86C175.011 206.391 173.395 206.629 171.83 206.686Z" fill="#001064"/>
<path d="M192.811 176.625L177.649 176.957C176.878 176.987 176.267 176.44 176.204 175.746C176.142 175.052 176.721 174.46 177.498 174.494L192.59 174.164C193.361 174.135 193.972 174.681 194.035 175.375C194.162 176.003 193.582 176.595 192.811 176.625Z" fill="#001064"/>
<path d="M168.857 212.552C170.92 213.348 176.263 214.246 181.141 211.47" stroke="#001064" stroke-width="2.15055" stroke-linecap="round"/>
</svg>
