<svg width="261" height="235" viewBox="0 0 261 235" fill="none" xmlns="http://www.w3.org/2000/svg">
<path d="M80.0833 17.7426L75.7793 11.291L74.7033 13.4416L69.3232 20.9685L62.8672 23.6566L70.9372 29.033L74.7033 36.0223L78.4693 29.033L87.0773 23.6566L86.5393 22.0437L80.0833 17.7426Z" fill="white"/>
<path d="M93.579 23.2125C92.6308 22.4996 91.0701 22.5282 89.9031 22.2002C88.6195 21.8296 87.3797 21.3591 86.2127 20.7603C83.8205 19.5342 81.7201 17.8661 80.1155 15.8558C78.4672 13.7886 77.3441 11.3221 76.8335 8.81283C76.8189 8.71303 76.7898 8.59897 76.7752 8.49917C77.242 5.98992 77.3441 3.43791 76.9648 1.05697C76.746 -0.368738 74.2371 -0.354481 74.1204 1.114C74.0913 1.42766 74.0767 1.74131 74.0912 2.05497C74.0912 2.16902 74.1058 2.26882 74.135 2.36862C74.1642 4.36462 74.1788 6.3321 73.8433 8.34235C73.4349 10.7946 72.6764 13.2183 71.5969 15.4994C70.6634 17.4811 69.3944 19.3916 67.5419 20.7888C65.4997 22.3286 63.0784 22.8561 60.4673 22.8846C59.6359 22.8988 59.2858 23.8541 60.1027 24.1962C60.832 24.4956 61.5759 24.6667 62.2907 24.7237C62.6553 24.9519 63.0054 25.1657 63.4284 25.3511C64.2307 25.7075 65.0038 26.0782 65.7331 26.5487C67.221 27.4754 68.5337 28.6159 69.5986 29.9276C71.8887 32.7647 72.8514 36.4003 72.4576 39.8648C72.37 40.6489 72.9389 41.1337 73.5953 41.262C74.31 42.4311 76.3668 42.0176 76.2501 40.4921C75.9292 36.2435 77.0815 32.0804 80.5823 29.0294C82.1868 27.6322 84.0685 26.6342 86.1544 25.9356C87.5109 25.4651 88.9258 25.2798 90.3262 25.0659C91.3764 25.3368 92.485 25.4936 93.3748 25.1229C94.25 24.7523 94.2791 23.7257 93.579 23.2125ZM85.4105 23.5261C82.8286 24.239 80.3927 25.5792 78.4964 27.3043C76.8189 28.8298 75.4478 30.726 74.5143 32.779C73.9454 31.2963 73.1285 29.8706 72.0637 28.5732C70.8238 27.0477 69.2339 25.7075 67.4689 24.681C67.0751 24.4529 66.6667 24.239 66.2437 24.0251C69.2631 22.7848 71.8449 20.0759 73.2744 17.6807C74.135 16.2408 74.8789 14.6582 75.4916 13.0187C76.0604 14.4301 76.8044 15.7845 77.7379 17.0534C79.4591 19.3916 81.8367 21.3876 84.5061 22.8133C84.8999 23.0271 85.3084 23.2267 85.7168 23.4121C85.6293 23.4691 85.5272 23.4976 85.4105 23.5261Z" fill="#001064"/>
<path d="M0.879057 210.873L20.759 200.94C67.6672 199.371 168.165 194.433 211.95 202.495C242.213 208.067 215.533 230.215 187.807 231.593C160.08 232.97 108.29 234.207 108.29 234.207L34.8838 230.215C4.33246 230.215 -2.78333 220.806 0.879057 210.873Z" fill="#001064"/>
<path d="M177.866 130.695H18.832L23.5403 202.839V211.727L33.4799 215.909L170.542 219.045L177.866 130.695Z" fill="#F3EEFF"/>
<path d="M218.717 109.3L178.372 130.396L169.459 219.469H173.212L211.68 207.749L218.717 109.3Z" fill="#E9F7FF"/>
<path d="M244.988 22.5703L220.594 107.424L236.544 99.9231L251.087 87.7341L257.185 74.6076V55.3866L251.087 32.4152L244.988 22.5703Z" fill="#E9F7FF"/>
<mask id="path-7-outside-1" maskUnits="userSpaceOnUse" x="13.6484" y="17.8203" width="247" height="205" fill="black">
<rect fill="white" x="13.6484" y="17.8203" width="247" height="205"/>
<path d="M96.2251 36.107C90.127 50.6576 84.1535 65.2083 78.4288 79.8833L74.1353 90.8896L72.0196 96.4238C71.833 96.9213 71.7085 97.2944 71.4596 97.854C71.2107 98.3515 70.9618 98.8489 70.6507 99.3464C70.0285 100.279 69.344 101.15 68.4728 101.896C68.0373 102.269 67.6017 102.642 67.1039 102.953L65.7972 103.761L63.3082 105.316L58.3302 108.487L48.312 114.83C41.7162 119.058 35.0582 123.224 28.3379 127.391L25.8489 128.945L24.6044 129.691C24.4799 129.754 24.4177 129.816 24.3555 129.878L24.1066 130.002C23.9821 130.127 23.7955 130.251 23.671 130.313C22.551 131.184 21.7421 132.427 21.3065 133.795C21.0576 134.479 20.9331 135.163 20.9331 135.847C20.9331 136.034 20.9331 136.22 20.9331 136.345C20.9331 136.531 20.9331 136.656 20.9954 136.967L21.1198 138.459L21.5554 144.366C22.7377 160.098 23.671 175.831 24.5422 191.563C24.7911 195.48 24.9155 199.46 25.1644 203.377L25.2889 206.3L25.3511 207.046C25.3511 207.17 25.3511 207.295 25.3511 207.357V207.606C25.3511 207.979 25.4755 208.352 25.5378 208.725C25.9111 210.155 26.6578 211.523 27.7779 212.58C28.3379 213.14 28.9601 213.575 29.6446 213.886C30.3291 214.259 31.0135 214.508 31.8225 214.632C32.1958 214.757 32.5692 214.757 33.0047 214.757L34.4981 214.819L37.4227 214.943L49.2454 215.503L72.8908 216.622L96.5362 217.555C112.279 218.115 128.084 218.425 143.827 218.736L155.65 218.923L167.472 219.047H168.966C169.464 219.047 169.961 219.047 170.397 219.047C170.833 219.047 171.268 218.985 171.641 218.923C172.077 218.861 172.45 218.736 172.948 218.612L178.611 216.995L189.998 213.762L201.385 210.528L204.185 209.72C204.932 209.533 205.616 209.16 206.301 208.725C207.607 207.854 208.665 206.673 209.287 205.243C209.599 204.559 209.847 203.813 209.91 203.066C209.91 202.88 209.972 202.693 209.972 202.507C209.972 202.445 209.972 202.32 209.972 202.196V201.823L210.034 200.33L210.345 194.423L211.03 182.608C211.963 166.876 213.021 151.144 214.079 135.412L214.888 123.597L215.261 117.69L215.448 114.768L215.51 114.021C215.572 113.71 215.572 113.4 215.634 113.026C215.759 112.405 215.883 111.721 216.07 111.099C216.817 108.612 218.31 106.311 220.301 104.57C221.297 103.699 222.417 103.015 223.599 102.455C224.284 102.145 224.595 102.02 225.092 101.834C225.528 101.647 225.964 101.461 226.399 101.274C229.822 99.7816 233.057 97.9162 236.044 95.802C242.018 91.5114 246.871 85.915 249.671 79.3237C250.356 77.7069 250.978 75.9658 251.414 74.2869C251.849 72.5458 252.222 70.8047 252.409 69.0014C252.534 68.1309 252.596 67.136 252.658 66.2032C252.72 65.2705 252.845 64.3377 252.845 63.3428L252.969 60.4824V57.6221C252.845 50.098 251.725 42.5739 249.173 35.6717C248.551 33.9306 247.805 32.3139 246.933 30.6971C246.684 30.324 246.498 29.8888 246.311 29.5157L246 28.956C245.876 28.7695 245.751 28.5208 245.689 28.4586C245.316 27.8989 244.88 27.4015 244.382 26.9662C243.387 26.0956 242.142 25.536 240.835 25.3495C240.524 25.2873 240.151 25.2873 239.84 25.2873H239.591C239.529 25.2873 239.342 25.2873 239.217 25.2873L238.471 25.3495L235.546 25.4738L223.724 25.9713L211.901 26.4066C203.998 26.7175 196.158 26.904 188.255 27.1527L164.61 27.7746L152.787 28.0855L140.965 28.4586C133.062 28.7073 125.222 29.0182 117.319 29.3291L105.497 29.8888C103.568 29.9509 101.701 30.5728 100.145 31.6299C98.2785 32.8113 96.9718 34.3659 96.2251 36.107ZM95.6028 35.8583C96.3495 33.9928 97.7185 32.3139 99.3985 31.1946C101.079 30.0131 103.132 29.3913 105.123 29.2669L116.946 28.5207C124.786 27.9611 132.689 27.4015 140.529 26.7796L152.352 25.8469L164.112 24.852L187.695 22.8C195.536 22.1782 203.438 21.432 211.279 20.8723L223.101 19.9396L234.924 19.069L237.849 18.8825L238.595 18.8203H238.969H239.466C240.089 18.8203 240.773 18.8203 241.395 18.9447C244.009 19.2556 246.498 20.3127 248.489 21.9916C249.485 22.8622 250.418 23.8571 251.102 24.9142C251.289 25.2251 251.414 25.4116 251.538 25.6604L251.974 26.3444C252.222 26.7796 252.471 27.2771 252.783 27.7124C253.778 29.5778 254.711 31.5055 255.458 33.4332C258.569 41.2681 259.814 49.6005 260.001 57.7464V60.7934L259.876 63.8403C259.876 64.8352 259.752 65.8923 259.689 66.8872C259.627 67.8821 259.565 68.9392 259.441 69.9963C259.192 72.1105 258.818 74.2247 258.258 76.2767C257.76 78.3909 257.014 80.3808 256.143 82.3706C254.463 86.3503 252.098 90.019 249.36 93.2525C246.622 96.5482 243.387 99.3464 239.902 101.771C236.48 104.197 232.746 106.186 228.95 107.803C228.453 107.99 228.017 108.176 227.519 108.425C227.084 108.612 226.461 108.86 226.275 108.922C225.653 109.171 225.092 109.544 224.595 109.917C223.599 110.726 222.852 111.907 222.417 113.151C222.292 113.462 222.23 113.773 222.168 114.146L222.106 114.643L222.043 115.327L221.795 118.25L221.297 124.157L220.301 135.91C218.994 151.642 217.688 167.312 216.319 183.044L215.261 194.796L214.701 200.704L214.576 202.196L214.514 202.569C214.514 202.693 214.514 202.818 214.452 203.004C214.39 203.315 214.39 203.626 214.328 203.875C214.141 205.056 213.705 206.238 213.208 207.295C212.15 209.471 210.407 211.275 208.354 212.518C207.296 213.14 206.238 213.575 205.056 213.886L202.132 214.57L190.62 217.368L179.108 220.167L173.384 221.535C172.948 221.659 172.388 221.783 171.828 221.845C171.268 221.908 170.708 221.97 170.148 221.97C169.526 221.97 169.09 221.908 168.592 221.908L167.099 221.845L155.276 221.348L143.454 220.913C127.711 220.353 111.906 219.918 96.1628 219.607L72.5174 219.296L48.872 219.172L37.0493 219.109H34.0626H32.5692C32.0091 219.047 31.3869 219.109 30.7646 218.985C29.5824 218.799 28.4001 218.488 27.2801 217.99C26.16 217.493 25.1644 216.809 24.231 216C22.3643 214.446 20.9954 212.269 20.3109 209.906C20.1864 209.285 19.9998 208.725 19.9375 208.103C19.8753 207.792 19.8753 207.481 19.8131 207.233L19.7509 206.486L19.502 203.564C19.1908 199.646 18.8175 195.729 18.5064 191.811C17.2619 176.079 16.0796 160.409 15.1462 144.677L14.7729 138.77L14.7107 137.278C14.7107 137.091 14.7107 136.718 14.6484 136.407C14.6484 136.096 14.6484 135.785 14.6484 135.474C14.7107 134.231 14.9596 132.987 15.3951 131.743C16.2663 129.38 17.8219 127.266 19.8131 125.712C20.062 125.525 20.3109 125.339 20.5598 125.152L20.9331 124.903C21.0576 124.841 21.182 124.717 21.3065 124.655L22.6132 123.908L25.1644 122.416C32.0091 118.499 38.9161 114.705 45.7608 110.85L56.0901 105.129L61.2548 102.269L63.8682 100.839L65.1127 100.155C65.486 99.9682 65.7972 99.7195 66.1705 99.4707C66.855 98.9733 67.415 98.3515 67.9128 97.6053C68.1617 97.2322 68.4106 96.9213 68.5973 96.486C68.784 96.1129 68.9706 95.6154 69.2195 95.1802L71.6463 89.7703L76.4998 78.9506C83.2823 64.8352 89.567 50.4089 95.6028 35.8583Z"/>
</mask>
<path d="M96.2251 36.107C90.127 50.6576 84.1535 65.2083 78.4288 79.8833L74.1353 90.8896L72.0196 96.4238C71.833 96.9213 71.7085 97.2944 71.4596 97.854C71.2107 98.3515 70.9618 98.8489 70.6507 99.3464C70.0285 100.279 69.344 101.15 68.4728 101.896C68.0373 102.269 67.6017 102.642 67.1039 102.953L65.7972 103.761L63.3082 105.316L58.3302 108.487L48.312 114.83C41.7162 119.058 35.0582 123.224 28.3379 127.391L25.8489 128.945L24.6044 129.691C24.4799 129.754 24.4177 129.816 24.3555 129.878L24.1066 130.002C23.9821 130.127 23.7955 130.251 23.671 130.313C22.551 131.184 21.7421 132.427 21.3065 133.795C21.0576 134.479 20.9331 135.163 20.9331 135.847C20.9331 136.034 20.9331 136.22 20.9331 136.345C20.9331 136.531 20.9331 136.656 20.9954 136.967L21.1198 138.459L21.5554 144.366C22.7377 160.098 23.671 175.831 24.5422 191.563C24.7911 195.48 24.9155 199.46 25.1644 203.377L25.2889 206.3L25.3511 207.046C25.3511 207.17 25.3511 207.295 25.3511 207.357V207.606C25.3511 207.979 25.4755 208.352 25.5378 208.725C25.9111 210.155 26.6578 211.523 27.7779 212.58C28.3379 213.14 28.9601 213.575 29.6446 213.886C30.3291 214.259 31.0135 214.508 31.8225 214.632C32.1958 214.757 32.5692 214.757 33.0047 214.757L34.4981 214.819L37.4227 214.943L49.2454 215.503L72.8908 216.622L96.5362 217.555C112.279 218.115 128.084 218.425 143.827 218.736L155.65 218.923L167.472 219.047H168.966C169.464 219.047 169.961 219.047 170.397 219.047C170.833 219.047 171.268 218.985 171.641 218.923C172.077 218.861 172.45 218.736 172.948 218.612L178.611 216.995L189.998 213.762L201.385 210.528L204.185 209.72C204.932 209.533 205.616 209.16 206.301 208.725C207.607 207.854 208.665 206.673 209.287 205.243C209.599 204.559 209.847 203.813 209.91 203.066C209.91 202.88 209.972 202.693 209.972 202.507C209.972 202.445 209.972 202.32 209.972 202.196V201.823L210.034 200.33L210.345 194.423L211.03 182.608C211.963 166.876 213.021 151.144 214.079 135.412L214.888 123.597L215.261 117.69L215.448 114.768L215.51 114.021C215.572 113.71 215.572 113.4 215.634 113.026C215.759 112.405 215.883 111.721 216.07 111.099C216.817 108.612 218.31 106.311 220.301 104.57C221.297 103.699 222.417 103.015 223.599 102.455C224.284 102.145 224.595 102.02 225.092 101.834C225.528 101.647 225.964 101.461 226.399 101.274C229.822 99.7816 233.057 97.9162 236.044 95.802C242.018 91.5114 246.871 85.915 249.671 79.3237C250.356 77.7069 250.978 75.9658 251.414 74.2869C251.849 72.5458 252.222 70.8047 252.409 69.0014C252.534 68.1309 252.596 67.136 252.658 66.2032C252.72 65.2705 252.845 64.3377 252.845 63.3428L252.969 60.4824V57.6221C252.845 50.098 251.725 42.5739 249.173 35.6717C248.551 33.9306 247.805 32.3139 246.933 30.6971C246.684 30.324 246.498 29.8888 246.311 29.5157L246 28.956C245.876 28.7695 245.751 28.5208 245.689 28.4586C245.316 27.8989 244.88 27.4015 244.382 26.9662C243.387 26.0956 242.142 25.536 240.835 25.3495C240.524 25.2873 240.151 25.2873 239.84 25.2873H239.591C239.529 25.2873 239.342 25.2873 239.217 25.2873L238.471 25.3495L235.546 25.4738L223.724 25.9713L211.901 26.4066C203.998 26.7175 196.158 26.904 188.255 27.1527L164.61 27.7746L152.787 28.0855L140.965 28.4586C133.062 28.7073 125.222 29.0182 117.319 29.3291L105.497 29.8888C103.568 29.9509 101.701 30.5728 100.145 31.6299C98.2785 32.8113 96.9718 34.3659 96.2251 36.107ZM95.6028 35.8583C96.3495 33.9928 97.7185 32.3139 99.3985 31.1946C101.079 30.0131 103.132 29.3913 105.123 29.2669L116.946 28.5207C124.786 27.9611 132.689 27.4015 140.529 26.7796L152.352 25.8469L164.112 24.852L187.695 22.8C195.536 22.1782 203.438 21.432 211.279 20.8723L223.101 19.9396L234.924 19.069L237.849 18.8825L238.595 18.8203H238.969H239.466C240.089 18.8203 240.773 18.8203 241.395 18.9447C244.009 19.2556 246.498 20.3127 248.489 21.9916C249.485 22.8622 250.418 23.8571 251.102 24.9142C251.289 25.2251 251.414 25.4116 251.538 25.6604L251.974 26.3444C252.222 26.7796 252.471 27.2771 252.783 27.7124C253.778 29.5778 254.711 31.5055 255.458 33.4332C258.569 41.2681 259.814 49.6005 260.001 57.7464V60.7934L259.876 63.8403C259.876 64.8352 259.752 65.8923 259.689 66.8872C259.627 67.8821 259.565 68.9392 259.441 69.9963C259.192 72.1105 258.818 74.2247 258.258 76.2767C257.76 78.3909 257.014 80.3808 256.143 82.3706C254.463 86.3503 252.098 90.019 249.36 93.2525C246.622 96.5482 243.387 99.3464 239.902 101.771C236.48 104.197 232.746 106.186 228.95 107.803C228.453 107.99 228.017 108.176 227.519 108.425C227.084 108.612 226.461 108.86 226.275 108.922C225.653 109.171 225.092 109.544 224.595 109.917C223.599 110.726 222.852 111.907 222.417 113.151C222.292 113.462 222.23 113.773 222.168 114.146L222.106 114.643L222.043 115.327L221.795 118.25L221.297 124.157L220.301 135.91C218.994 151.642 217.688 167.312 216.319 183.044L215.261 194.796L214.701 200.704L214.576 202.196L214.514 202.569C214.514 202.693 214.514 202.818 214.452 203.004C214.39 203.315 214.39 203.626 214.328 203.875C214.141 205.056 213.705 206.238 213.208 207.295C212.15 209.471 210.407 211.275 208.354 212.518C207.296 213.14 206.238 213.575 205.056 213.886L202.132 214.57L190.62 217.368L179.108 220.167L173.384 221.535C172.948 221.659 172.388 221.783 171.828 221.845C171.268 221.908 170.708 221.97 170.148 221.97C169.526 221.97 169.09 221.908 168.592 221.908L167.099 221.845L155.276 221.348L143.454 220.913C127.711 220.353 111.906 219.918 96.1628 219.607L72.5174 219.296L48.872 219.172L37.0493 219.109H34.0626H32.5692C32.0091 219.047 31.3869 219.109 30.7646 218.985C29.5824 218.799 28.4001 218.488 27.2801 217.99C26.16 217.493 25.1644 216.809 24.231 216C22.3643 214.446 20.9954 212.269 20.3109 209.906C20.1864 209.285 19.9998 208.725 19.9375 208.103C19.8753 207.792 19.8753 207.481 19.8131 207.233L19.7509 206.486L19.502 203.564C19.1908 199.646 18.8175 195.729 18.5064 191.811C17.2619 176.079 16.0796 160.409 15.1462 144.677L14.7729 138.77L14.7107 137.278C14.7107 137.091 14.7107 136.718 14.6484 136.407C14.6484 136.096 14.6484 135.785 14.6484 135.474C14.7107 134.231 14.9596 132.987 15.3951 131.743C16.2663 129.38 17.8219 127.266 19.8131 125.712C20.062 125.525 20.3109 125.339 20.5598 125.152L20.9331 124.903C21.0576 124.841 21.182 124.717 21.3065 124.655L22.6132 123.908L25.1644 122.416C32.0091 118.499 38.9161 114.705 45.7608 110.85L56.0901 105.129L61.2548 102.269L63.8682 100.839L65.1127 100.155C65.486 99.9682 65.7972 99.7195 66.1705 99.4707C66.855 98.9733 67.415 98.3515 67.9128 97.6053C68.1617 97.2322 68.4106 96.9213 68.5973 96.486C68.784 96.1129 68.9706 95.6154 69.2195 95.1802L71.6463 89.7703L76.4998 78.9506C83.2823 64.8352 89.567 50.4089 95.6028 35.8583Z" fill="#001064"/>
<path d="M96.2251 36.107C90.127 50.6576 84.1535 65.2083 78.4288 79.8833L74.1353 90.8896L72.0196 96.4238C71.833 96.9213 71.7085 97.2944 71.4596 97.854C71.2107 98.3515 70.9618 98.8489 70.6507 99.3464C70.0285 100.279 69.344 101.15 68.4728 101.896C68.0373 102.269 67.6017 102.642 67.1039 102.953L65.7972 103.761L63.3082 105.316L58.3302 108.487L48.312 114.83C41.7162 119.058 35.0582 123.224 28.3379 127.391L25.8489 128.945L24.6044 129.691C24.4799 129.754 24.4177 129.816 24.3555 129.878L24.1066 130.002C23.9821 130.127 23.7955 130.251 23.671 130.313C22.551 131.184 21.7421 132.427 21.3065 133.795C21.0576 134.479 20.9331 135.163 20.9331 135.847C20.9331 136.034 20.9331 136.22 20.9331 136.345C20.9331 136.531 20.9331 136.656 20.9954 136.967L21.1198 138.459L21.5554 144.366C22.7377 160.098 23.671 175.831 24.5422 191.563C24.7911 195.48 24.9155 199.46 25.1644 203.377L25.2889 206.3L25.3511 207.046C25.3511 207.17 25.3511 207.295 25.3511 207.357V207.606C25.3511 207.979 25.4755 208.352 25.5378 208.725C25.9111 210.155 26.6578 211.523 27.7779 212.58C28.3379 213.14 28.9601 213.575 29.6446 213.886C30.3291 214.259 31.0135 214.508 31.8225 214.632C32.1958 214.757 32.5692 214.757 33.0047 214.757L34.4981 214.819L37.4227 214.943L49.2454 215.503L72.8908 216.622L96.5362 217.555C112.279 218.115 128.084 218.425 143.827 218.736L155.65 218.923L167.472 219.047H168.966C169.464 219.047 169.961 219.047 170.397 219.047C170.833 219.047 171.268 218.985 171.641 218.923C172.077 218.861 172.45 218.736 172.948 218.612L178.611 216.995L189.998 213.762L201.385 210.528L204.185 209.72C204.932 209.533 205.616 209.16 206.301 208.725C207.607 207.854 208.665 206.673 209.287 205.243C209.599 204.559 209.847 203.813 209.91 203.066C209.91 202.88 209.972 202.693 209.972 202.507C209.972 202.445 209.972 202.32 209.972 202.196V201.823L210.034 200.33L210.345 194.423L211.03 182.608C211.963 166.876 213.021 151.144 214.079 135.412L214.888 123.597L215.261 117.69L215.448 114.768L215.51 114.021C215.572 113.71 215.572 113.4 215.634 113.026C215.759 112.405 215.883 111.721 216.07 111.099C216.817 108.612 218.31 106.311 220.301 104.57C221.297 103.699 222.417 103.015 223.599 102.455C224.284 102.145 224.595 102.02 225.092 101.834C225.528 101.647 225.964 101.461 226.399 101.274C229.822 99.7816 233.057 97.9162 236.044 95.802C242.018 91.5114 246.871 85.915 249.671 79.3237C250.356 77.7069 250.978 75.9658 251.414 74.2869C251.849 72.5458 252.222 70.8047 252.409 69.0014C252.534 68.1309 252.596 67.136 252.658 66.2032C252.72 65.2705 252.845 64.3377 252.845 63.3428L252.969 60.4824V57.6221C252.845 50.098 251.725 42.5739 249.173 35.6717C248.551 33.9306 247.805 32.3139 246.933 30.6971C246.684 30.324 246.498 29.8888 246.311 29.5157L246 28.956C245.876 28.7695 245.751 28.5208 245.689 28.4586C245.316 27.8989 244.88 27.4015 244.382 26.9662C243.387 26.0956 242.142 25.536 240.835 25.3495C240.524 25.2873 240.151 25.2873 239.84 25.2873H239.591C239.529 25.2873 239.342 25.2873 239.217 25.2873L238.471 25.3495L235.546 25.4738L223.724 25.9713L211.901 26.4066C203.998 26.7175 196.158 26.904 188.255 27.1527L164.61 27.7746L152.787 28.0855L140.965 28.4586C133.062 28.7073 125.222 29.0182 117.319 29.3291L105.497 29.8888C103.568 29.9509 101.701 30.5728 100.145 31.6299C98.2785 32.8113 96.9718 34.3659 96.2251 36.107ZM95.6028 35.8583C96.3495 33.9928 97.7185 32.3139 99.3985 31.1946C101.079 30.0131 103.132 29.3913 105.123 29.2669L116.946 28.5207C124.786 27.9611 132.689 27.4015 140.529 26.7796L152.352 25.8469L164.112 24.852L187.695 22.8C195.536 22.1782 203.438 21.432 211.279 20.8723L223.101 19.9396L234.924 19.069L237.849 18.8825L238.595 18.8203H238.969H239.466C240.089 18.8203 240.773 18.8203 241.395 18.9447C244.009 19.2556 246.498 20.3127 248.489 21.9916C249.485 22.8622 250.418 23.8571 251.102 24.9142C251.289 25.2251 251.414 25.4116 251.538 25.6604L251.974 26.3444C252.222 26.7796 252.471 27.2771 252.783 27.7124C253.778 29.5778 254.711 31.5055 255.458 33.4332C258.569 41.2681 259.814 49.6005 260.001 57.7464V60.7934L259.876 63.8403C259.876 64.8352 259.752 65.8923 259.689 66.8872C259.627 67.8821 259.565 68.9392 259.441 69.9963C259.192 72.1105 258.818 74.2247 258.258 76.2767C257.76 78.3909 257.014 80.3808 256.143 82.3706C254.463 86.3503 252.098 90.019 249.36 93.2525C246.622 96.5482 243.387 99.3464 239.902 101.771C236.48 104.197 232.746 106.186 228.95 107.803C228.453 107.99 228.017 108.176 227.519 108.425C227.084 108.612 226.461 108.86 226.275 108.922C225.653 109.171 225.092 109.544 224.595 109.917C223.599 110.726 222.852 111.907 222.417 113.151C222.292 113.462 222.23 113.773 222.168 114.146L222.106 114.643L222.043 115.327L221.795 118.25L221.297 124.157L220.301 135.91C218.994 151.642 217.688 167.312 216.319 183.044L215.261 194.796L214.701 200.704L214.576 202.196L214.514 202.569C214.514 202.693 214.514 202.818 214.452 203.004C214.39 203.315 214.39 203.626 214.328 203.875C214.141 205.056 213.705 206.238 213.208 207.295C212.15 209.471 210.407 211.275 208.354 212.518C207.296 213.14 206.238 213.575 205.056 213.886L202.132 214.57L190.62 217.368L179.108 220.167L173.384 221.535C172.948 221.659 172.388 221.783 171.828 221.845C171.268 221.908 170.708 221.97 170.148 221.97C169.526 221.97 169.09 221.908 168.592 221.908L167.099 221.845L155.276 221.348L143.454 220.913C127.711 220.353 111.906 219.918 96.1628 219.607L72.5174 219.296L48.872 219.172L37.0493 219.109H34.0626H32.5692C32.0091 219.047 31.3869 219.109 30.7646 218.985C29.5824 218.799 28.4001 218.488 27.2801 217.99C26.16 217.493 25.1644 216.809 24.231 216C22.3643 214.446 20.9954 212.269 20.3109 209.906C20.1864 209.285 19.9998 208.725 19.9375 208.103C19.8753 207.792 19.8753 207.481 19.8131 207.233L19.7509 206.486L19.502 203.564C19.1908 199.646 18.8175 195.729 18.5064 191.811C17.2619 176.079 16.0796 160.409 15.1462 144.677L14.7729 138.77L14.7107 137.278C14.7107 137.091 14.7107 136.718 14.6484 136.407C14.6484 136.096 14.6484 135.785 14.6484 135.474C14.7107 134.231 14.9596 132.987 15.3951 131.743C16.2663 129.38 17.8219 127.266 19.8131 125.712C20.062 125.525 20.3109 125.339 20.5598 125.152L20.9331 124.903C21.0576 124.841 21.182 124.717 21.3065 124.655L22.6132 123.908L25.1644 122.416C32.0091 118.499 38.9161 114.705 45.7608 110.85L56.0901 105.129L61.2548 102.269L63.8682 100.839L65.1127 100.155C65.486 99.9682 65.7972 99.7195 66.1705 99.4707C66.855 98.9733 67.415 98.3515 67.9128 97.6053C68.1617 97.2322 68.4106 96.9213 68.5973 96.486C68.784 96.1129 68.9706 95.6154 69.2195 95.1802L71.6463 89.7703L76.4998 78.9506C83.2823 64.8352 89.567 50.4089 95.6028 35.8583Z" stroke="#001064" mask="url(#path-7-outside-1)"/>
<path d="M17.5098 130.625H177.427L171.205 220.665" stroke="#001064" stroke-width="4" stroke-miterlimit="10"/>
<path d="M177.427 130.625L219.304 107.617L216.504 107.431L69.0312 100.031" stroke="#001064" stroke-width="4" stroke-miterlimit="10"/>
<path d="M244.381 21.8057L219.305 107.617" stroke="#001064" stroke-width="4" stroke-miterlimit="10"/>
<path d="M59.263 130.625L59.7608 139.641C59.9474 142.626 60.1341 145.611 60.383 148.595C60.6319 151.58 60.943 154.503 61.3164 157.425C61.6897 160.348 62.1253 163.27 62.6231 166.131C62.872 167.561 63.1209 169.053 63.432 170.484C63.7432 171.914 64.0543 173.344 64.4899 174.774C65.361 177.572 66.481 180.308 68.2233 182.671C69.9034 185.034 72.2057 187.024 74.8814 188.143C77.4948 189.263 80.4816 189.511 83.2817 189.076C84.7129 188.889 86.0818 188.516 87.3263 188.019C88.633 187.521 89.8775 186.837 90.9976 186.091C93.2999 184.537 95.2911 182.609 97.0956 180.371C100.58 175.893 103.007 170.546 105.06 165.074C106.118 162.338 107.052 159.539 107.923 156.741C108.358 155.311 108.794 153.881 109.167 152.451C109.541 151.02 109.976 149.59 110.287 148.16C111.781 142.377 113.025 136.532 114.145 130.625H114.581C114.767 133.672 114.705 136.719 114.519 139.765C114.456 141.258 114.332 142.812 114.145 144.305C114.021 145.797 113.834 147.352 113.585 148.844C113.336 150.336 113.15 151.891 112.838 153.383C112.527 154.876 112.216 156.368 111.905 157.861C111.221 160.845 110.349 163.83 109.354 166.69C108.296 169.613 107.052 172.473 105.558 175.209C104.065 177.945 102.26 180.619 100.207 182.982C98.0912 185.345 95.6644 187.521 92.7399 189.076C89.8775 190.631 86.5796 191.377 83.4062 191.439C80.2327 191.501 77.0592 190.817 74.1969 189.449C71.3968 188.019 68.97 185.905 67.0411 183.542C65.1121 181.117 63.4943 178.443 62.1875 175.645C60.8186 172.846 59.7608 169.924 58.9519 166.939C58.1429 163.954 57.6451 160.907 57.334 157.861C57.0229 154.814 56.8984 151.767 56.8984 148.72C56.8984 145.673 57.0229 142.626 57.334 139.579C57.6451 136.532 58.0185 133.547 58.703 130.562L59.263 130.625Z" fill="#001064"/>
<path d="M89.0072 168.244L86.3937 159.352C86.207 158.73 86.3937 158.109 86.9537 157.673C88.4471 156.492 89.4427 154.688 89.505 152.699C89.6294 149.092 86.7048 145.921 82.8469 145.61C78.7401 145.237 75.1933 148.097 74.9444 151.952C74.8199 153.88 75.5666 155.683 76.8111 156.989C77.2467 157.487 77.3711 158.109 77.1222 158.73L73.2021 167.187C72.9532 167.747 73.3888 168.431 74.011 168.493L88.0116 169.426C88.696 169.426 89.1938 168.804 89.0072 168.244Z" fill="#001064"/>
<path d="M197.936 88.1929L193.177 81.0586L191.987 83.4367L186.038 91.7601L178.898 94.7327L187.822 100.678L191.987 108.407L196.151 100.678L205.67 94.7327L205.075 92.9491L197.936 88.1929Z" fill="white"/>
<path d="M212.86 94.242C211.811 93.4537 210.086 93.4853 208.795 93.1226C207.376 92.7127 206.005 92.1925 204.714 91.5303C202.069 90.1745 199.746 88.3299 197.972 86.1069C196.149 83.8209 194.907 81.0934 194.342 78.3186C194.326 78.2083 194.294 78.0821 194.278 77.9718C194.794 75.197 194.907 72.3749 194.488 69.7421C194.246 68.1655 191.471 68.1813 191.342 69.8051C191.31 70.152 191.294 70.4988 191.31 70.8457C191.31 70.9718 191.326 71.0821 191.358 71.1925C191.391 73.3997 191.407 75.5754 191.036 77.7984C190.584 80.5101 189.745 83.1902 188.552 85.7127C187.519 87.9042 186.116 90.0168 184.068 91.5618C181.809 93.2645 179.132 93.8479 176.244 93.8794C175.325 93.8952 174.938 94.9515 175.841 95.3298C176.648 95.6609 177.47 95.8501 178.261 95.9132C178.664 96.1654 179.051 96.4019 179.519 96.6069C180.406 97.001 181.261 97.4109 182.067 97.9312C183.713 98.956 185.164 100.217 186.342 101.668C188.874 104.805 189.939 108.825 189.503 112.656C189.407 113.524 190.036 114.06 190.762 114.201C191.552 115.494 193.826 115.037 193.697 113.35C193.342 108.652 194.617 104.048 198.488 100.674C200.262 99.1294 202.343 98.0258 204.65 97.2533C206.15 96.733 207.714 96.528 209.263 96.2916C210.424 96.5911 211.65 96.7645 212.634 96.3546C213.602 95.9447 213.634 94.8096 212.86 94.242ZM203.827 94.5889C200.972 95.3771 198.278 96.8591 196.181 98.7668C194.326 100.454 192.81 102.551 191.778 104.821C191.149 103.181 190.245 101.605 189.068 100.17C187.697 98.483 185.939 97.001 183.987 95.8659C183.551 95.6136 183.1 95.3771 182.632 95.1407C185.971 93.769 188.826 90.7736 190.407 88.1249C191.358 86.5326 192.181 84.7826 192.859 82.9695C193.488 84.5303 194.31 86.0281 195.343 87.4312C197.246 90.0168 199.875 92.224 202.827 93.8006C203.262 94.0371 203.714 94.2578 204.166 94.4627C204.069 94.5258 203.956 94.5573 203.827 94.5889Z" fill="#001064"/>
<path fill-rule="evenodd" clip-rule="evenodd" d="M32.465 74.8567C31.6663 75.7508 31.1719 76.8568 30.5135 77.9393C30.0903 78.5511 30.347 79.0926 30.9555 79.5167C32.7097 81.2831 35.0747 82.2967 37.2282 83.6161C40.0139 85.1948 43.1753 86.4912 46.1726 87.7641C47.2731 88.259 47.6486 87.9767 48.1193 87.0354C49.391 84.0231 49.391 84.0231 46.5815 82.6091C42.2032 80.4646 37.8725 77.9905 33.7057 75.54C33.2375 75.3044 32.7692 75.0687 32.465 74.8567Z" fill="#001064"/>
<path fill-rule="evenodd" clip-rule="evenodd" d="M59.2776 51.4979C58.9332 51.1029 59.0235 50.8862 59.4851 50.6947C59.639 50.6309 59.8831 50.3503 60.037 50.2865C62.6158 48.6791 62.7697 48.6152 64.465 50.96C67.1032 54.7065 69.6511 58.6698 72.2893 62.4164C72.6972 62.9643 72.6704 63.334 72.2723 63.6784C71.0147 64.5586 69.8206 65.5918 68.5629 66.472C68.011 66.8802 67.7936 66.791 67.3857 66.2431C64.6741 61.4513 61.9624 56.6594 59.3143 52.0206C59.4047 51.8038 59.3411 51.6509 59.2776 51.4979Z" fill="#001064"/>
<path fill-rule="evenodd" clip-rule="evenodd" d="M103.07 45.2412C103.825 49.2309 103.902 53.3229 104.132 57.351C104.195 57.504 104.232 58.0266 104.078 58.0904C102.63 58.5118 101.326 57.977 99.9042 58.0287C99.0079 58.0419 99.2153 57.2387 99.1786 56.7161C98.885 52.535 98.5913 48.3539 98.1438 44.2366C98.1339 43.3442 98.3781 43.0637 99.2744 43.0505C99.4918 43.1396 99.7995 43.012 99.9533 42.9482C102.425 42.8195 102.425 42.8195 103.07 45.2412Z" fill="#001064"/>
<path d="M130.262 59.5977L97.3047 85.214L121.369 119.718L152.234 94.1013L130.262 59.5977Z" fill="white"/>
<path d="M154.366 93.5877C150.564 87.4859 146.747 81.395 142.943 75.3062C139.679 70.0904 136.503 64.8223 133.007 59.7833C132.966 59.5472 132.938 59.3132 132.897 59.077C132.824 58.6331 132.58 58.3224 132.262 58.134C132.222 57.6552 131.776 57.189 131.287 57.3765C130.816 56.9737 130.12 57.5173 130.125 58.1251C124.332 61.9253 118.853 66.1828 113.313 70.3221C107.358 74.7692 101.402 79.2164 95.4581 83.6789C94.6892 84.2508 94.8483 85.3026 95.3114 85.9875C99.3882 91.9737 103.511 97.9273 107.633 103.881L113.737 112.69C114.774 114.199 115.826 115.698 116.864 117.208C117.588 118.26 118.257 119.398 119.106 120.35C119.266 120.997 119.849 121.527 120.499 121.501C121.247 121.775 122.157 121.322 122.453 120.603C123.349 119.998 124.188 119.249 125.029 118.568C126.425 117.467 127.806 116.378 129.202 115.278L137.331 108.863C142.824 104.527 148.304 100.188 153.777 95.8084C154.397 95.3194 154.866 94.3732 154.366 93.5877ZM129.959 63.1011C130.382 67.3802 131.045 71.6728 131.537 75.9367C131.856 78.6743 132.16 81.4229 132.479 84.1606C132.62 85.3982 132.788 86.6402 132.944 87.8669C133.022 88.4464 133.073 89.0215 133.152 89.5878L122.491 87.7135C120.361 87.3417 118.23 86.9699 116.098 86.6112C118.679 82.3113 121.257 78.0245 123.825 73.7223C125.922 70.2177 128.045 66.7174 129.959 63.1011ZM114.935 72.5911C119.49 69.0279 124.113 65.5435 128.536 61.8096C126.064 65.2242 123.796 68.7811 121.503 72.3336C118.63 76.7732 115.769 81.215 112.92 85.672C112.846 85.7944 112.784 85.9189 112.736 86.0457C111.258 85.797 109.78 85.5484 108.301 85.2997C105.934 84.9014 103.563 84.5163 101.189 84.1573C100.94 84.1155 100.642 84.0518 100.33 83.9858C105.206 80.1934 110.07 76.3988 114.935 72.5911ZM116.692 110.799C114.587 107.802 112.497 104.793 110.393 101.796C106.87 96.7525 103.332 91.72 99.779 86.6985C100.623 86.8809 101.486 87.0261 102.345 87.1976C104.503 87.6416 106.681 88.0484 108.846 88.453C110.281 88.7213 111.716 88.9896 113.148 89.271C113.353 91.0859 113.975 92.9843 114.33 94.6354C114.906 97.3624 115.526 100.07 116.131 102.788C116.9 106.289 117.682 109.793 118.449 113.307C117.853 112.451 117.279 111.627 116.692 110.799ZM121.782 115.001C120.84 110.769 119.883 106.548 118.941 102.317C118.347 99.6946 117.781 97.0638 117.174 94.4395C116.889 93.1777 116.578 91.9115 116.279 90.6474C116.217 90.3806 116.156 90.1007 116.096 89.8208C118.3 90.232 120.491 90.641 122.697 91.0392C126.234 91.688 129.759 92.3215 133.296 92.9702C131.075 97.1285 128.831 101.269 126.684 105.467C125.052 108.605 123.272 111.745 121.782 115.001ZM135.562 106.03C132.774 108.204 129.984 110.392 127.197 112.566C126.253 113.298 125.307 114.042 124.376 114.776C126.037 112.102 127.533 109.292 129.103 106.602C131.616 102.304 134.018 97.9472 136.468 93.6252C136.485 93.6012 136.487 93.5881 136.505 93.564C140.578 94.3031 144.663 95.0443 148.736 95.7833C144.343 99.1849 139.947 102.6 135.562 106.03ZM136.34 90.151C136.316 89.2567 136.169 88.3689 136.09 87.479C135.969 86.2042 135.836 84.9141 135.699 83.6503C135.393 80.9148 135.09 78.1662 134.784 75.4308C134.398 71.9672 134.116 68.4534 133.735 64.9636C136.028 69.0043 138.455 72.9598 140.837 76.9481C143.941 82.1637 147.046 87.3662 150.163 92.584L136.34 90.151Z" fill="#001064"/>
<path d="M177.215 63.6134C179.29 64.5565 181.26 64.2771 183.218 63.5552C186.969 62.1581 189.49 59.4221 191.542 56.0807C190.885 55.5917 190.299 55.1958 189.76 54.7534C186.102 51.7613 184.707 46.6618 186.407 42.389C187.169 40.4912 188.271 38.7332 190.557 38.6867C192.89 38.6401 194.531 40.0721 195.516 42.0863C196.654 44.4148 196.841 46.9529 196.618 49.491C196.501 50.8764 196.149 52.2386 195.845 53.9152C197.31 53.7056 198.694 53.6241 200.03 53.2981C201.308 52.9838 202.527 52.4249 203.876 51.9359C204.356 53.3447 203.594 54.2411 202.668 55.0212C200.921 56.4998 198.799 56.9772 196.583 57.1402C195.809 57.1984 195.036 57.1518 194.145 57.1518C193.605 57.9668 193.054 58.84 192.445 59.6899C190.674 62.1931 188.529 64.2771 185.773 65.7207C182.491 67.4439 179.091 67.8281 175.667 66.6289C174.307 68.1308 173.111 69.6094 171.751 70.9133C169.524 73.0439 166.909 74.5226 163.814 75.0814C161.446 75.5122 159.136 75.2444 156.979 74.2664C155.994 73.8124 155.126 73.009 154.329 72.2522C153.755 71.705 153.544 70.9599 154.247 70.0052C157.471 72.4967 161.059 73.0323 164.822 71.8564C168.328 70.762 170.884 68.3753 173.076 65.3598C172.513 64.8359 171.951 64.3353 171.423 63.7997C168.387 60.7959 166.98 57.1984 167.484 52.9372C167.566 52.2503 167.765 51.5517 168.035 50.923C169.313 47.9542 172.127 46.9995 175.011 48.5596C177.496 49.9101 178.833 51.9941 178.997 54.8233C179.126 57.1751 178.716 59.4221 177.895 61.6226C177.672 62.2513 177.461 62.9032 177.215 63.6134ZM174.823 62.3095C176.019 59.8296 176.629 57.4429 176.488 54.8699C176.406 53.2748 175.738 52.0756 174.413 51.2024C172.361 49.8635 171.001 50.4224 170.473 52.844C169.735 56.1855 171.47 60.0741 174.823 62.3095ZM193.207 52.7625C194.356 50.0033 194.285 47.3255 193.617 44.6244C193.441 43.9025 193.078 43.1574 192.597 42.5986C191.26 41.0385 190.123 41.248 189.302 43.1341C187.778 46.5687 189.455 50.8415 193.207 52.7625Z" fill="#001064"/>
</svg>
